<?xml version="1.0" encoding="utf-8" standalone="no"?>
<!DOCTYPE svg PUBLIC "-//W3C//DTD SVG 1.1//EN"
  "http://www.w3.org/Graphics/SVG/1.1/DTD/svg11.dtd">
<!-- Created with matplotlib (https://matplotlib.org/) -->
<svg height="432pt" version="1.1" viewBox="0 0 540 432" width="540pt" xmlns="http://www.w3.org/2000/svg" xmlns:xlink="http://www.w3.org/1999/xlink">
 <defs>
  <style type="text/css">
*{stroke-linecap:butt;stroke-linejoin:round;}
  </style>
 </defs>
 <g id="figure_1">
  <g id="patch_1">
   <path d="M 0 432 
L 540 432 
L 540 0 
L 0 0 
z
" style="fill:#ffffff;"/>
  </g>
  <g id="axes_1">
   <g id="patch_2">
    <path d="M 51.05 365.56 
L 529.2 365.56 
L 529.2 66.6 
L 51.05 66.6 
z
" style="fill:#ffffff;"/>
   </g>
   <g id="matplotlib.axis_1">
    <g id="xtick_1">
     <g id="line2d_1">
      <defs>
       <path d="M 0 0 
L 0 3.5 
" id="m6e65b30f33" style="stroke:#000000;stroke-width:0.8;"/>
      </defs>
      <g>
       <use style="stroke:#000000;stroke-width:0.8;" x="72.784091" xlink:href="#m6e65b30f33" y="365.56"/>
      </g>
     </g>
     <g id="text_1">
      <!-- 0 -->
      <defs>
       <path d="M 31.78125 66.40625 
Q 24.171875 66.40625 20.328125 58.90625 
Q 16.5 51.421875 16.5 36.375 
Q 16.5 21.390625 20.328125 13.890625 
Q 24.171875 6.390625 31.78125 6.390625 
Q 39.453125 6.390625 43.28125 13.890625 
Q 47.125 21.390625 47.125 36.375 
Q 47.125 51.421875 43.28125 58.90625 
Q 39.453125 66.40625 31.78125 66.40625 
z
M 31.78125 74.21875 
Q 44.046875 74.21875 50.515625 64.515625 
Q 56.984375 54.828125 56.984375 36.375 
Q 56.984375 17.96875 50.515625 8.265625 
Q 44.046875 -1.421875 31.78125 -1.421875 
Q 19.53125 -1.421875 13.0625 8.265625 
Q 6.59375 17.96875 6.59375 36.375 
Q 6.59375 54.828125 13.0625 64.515625 
Q 19.53125 74.21875 31.78125 74.21875 
z
" id="DejaVuSans-48"/>
      </defs>
      <g transform="translate(66.421591 387.756875)scale(0.2 -0.2)">
       <use xlink:href="#DejaVuSans-48"/>
      </g>
     </g>
    </g>
    <g id="xtick_2">
     <g id="line2d_2">
      <g>
       <use style="stroke:#000000;stroke-width:0.8;" x="171.575413" xlink:href="#m6e65b30f33" y="365.56"/>
      </g>
     </g>
     <g id="text_2">
      <!-- 20 -->
      <defs>
       <path d="M 19.1875 8.296875 
L 53.609375 8.296875 
L 53.609375 0 
L 7.328125 0 
L 7.328125 8.296875 
Q 12.9375 14.109375 22.625 23.890625 
Q 32.328125 33.6875 34.8125 36.53125 
Q 39.546875 41.84375 41.421875 45.53125 
Q 43.3125 49.21875 43.3125 52.78125 
Q 43.3125 58.59375 39.234375 62.25 
Q 35.15625 65.921875 28.609375 65.921875 
Q 23.96875 65.921875 18.8125 64.3125 
Q 13.671875 62.703125 7.8125 59.421875 
L 7.8125 69.390625 
Q 13.765625 71.78125 18.9375 73 
Q 24.125 74.21875 28.421875 74.21875 
Q 39.75 74.21875 46.484375 68.546875 
Q 53.21875 62.890625 53.21875 53.421875 
Q 53.21875 48.921875 51.53125 44.890625 
Q 49.859375 40.875 45.40625 35.40625 
Q 44.1875 33.984375 37.640625 27.21875 
Q 31.109375 20.453125 19.1875 8.296875 
z
" id="DejaVuSans-50"/>
      </defs>
      <g transform="translate(158.850413 387.756875)scale(0.2 -0.2)">
       <use xlink:href="#DejaVuSans-50"/>
       <use x="63.623047" xlink:href="#DejaVuSans-48"/>
      </g>
     </g>
    </g>
    <g id="xtick_3">
     <g id="line2d_3">
      <g>
       <use style="stroke:#000000;stroke-width:0.8;" x="270.366736" xlink:href="#m6e65b30f33" y="365.56"/>
      </g>
     </g>
     <g id="text_3">
      <!-- 40 -->
      <defs>
       <path d="M 37.796875 64.3125 
L 12.890625 25.390625 
L 37.796875 25.390625 
z
M 35.203125 72.90625 
L 47.609375 72.90625 
L 47.609375 25.390625 
L 58.015625 25.390625 
L 58.015625 17.1875 
L 47.609375 17.1875 
L 47.609375 0 
L 37.796875 0 
L 37.796875 17.1875 
L 4.890625 17.1875 
L 4.890625 26.703125 
z
" id="DejaVuSans-52"/>
      </defs>
      <g transform="translate(257.641736 387.756875)scale(0.2 -0.2)">
       <use xlink:href="#DejaVuSans-52"/>
       <use x="63.623047" xlink:href="#DejaVuSans-48"/>
      </g>
     </g>
    </g>
    <g id="xtick_4">
     <g id="line2d_4">
      <g>
       <use style="stroke:#000000;stroke-width:0.8;" x="369.158058" xlink:href="#m6e65b30f33" y="365.56"/>
      </g>
     </g>
     <g id="text_4">
      <!-- 60 -->
      <defs>
       <path d="M 33.015625 40.375 
Q 26.375 40.375 22.484375 35.828125 
Q 18.609375 31.296875 18.609375 23.390625 
Q 18.609375 15.53125 22.484375 10.953125 
Q 26.375 6.390625 33.015625 6.390625 
Q 39.65625 6.390625 43.53125 10.953125 
Q 47.40625 15.53125 47.40625 23.390625 
Q 47.40625 31.296875 43.53125 35.828125 
Q 39.65625 40.375 33.015625 40.375 
z
M 52.59375 71.296875 
L 52.59375 62.3125 
Q 48.875 64.0625 45.09375 64.984375 
Q 41.3125 65.921875 37.59375 65.921875 
Q 27.828125 65.921875 22.671875 59.328125 
Q 17.53125 52.734375 16.796875 39.40625 
Q 19.671875 43.65625 24.015625 45.921875 
Q 28.375 48.1875 33.59375 48.1875 
Q 44.578125 48.1875 50.953125 41.515625 
Q 57.328125 34.859375 57.328125 23.390625 
Q 57.328125 12.15625 50.6875 5.359375 
Q 44.046875 -1.421875 33.015625 -1.421875 
Q 20.359375 -1.421875 13.671875 8.265625 
Q 6.984375 17.96875 6.984375 36.375 
Q 6.984375 53.65625 15.1875 63.9375 
Q 23.390625 74.21875 37.203125 74.21875 
Q 40.921875 74.21875 44.703125 73.484375 
Q 48.484375 72.75 52.59375 71.296875 
z
" id="DejaVuSans-54"/>
      </defs>
      <g transform="translate(356.433058 387.756875)scale(0.2 -0.2)">
       <use xlink:href="#DejaVuSans-54"/>
       <use x="63.623047" xlink:href="#DejaVuSans-48"/>
      </g>
     </g>
    </g>
    <g id="xtick_5">
     <g id="line2d_5">
      <g>
       <use style="stroke:#000000;stroke-width:0.8;" x="467.94938" xlink:href="#m6e65b30f33" y="365.56"/>
      </g>
     </g>
     <g id="text_5">
      <!-- 80 -->
      <defs>
       <path d="M 31.78125 34.625 
Q 24.75 34.625 20.71875 30.859375 
Q 16.703125 27.09375 16.703125 20.515625 
Q 16.703125 13.921875 20.71875 10.15625 
Q 24.75 6.390625 31.78125 6.390625 
Q 38.8125 6.390625 42.859375 10.171875 
Q 46.921875 13.96875 46.921875 20.515625 
Q 46.921875 27.09375 42.890625 30.859375 
Q 38.875 34.625 31.78125 34.625 
z
M 21.921875 38.8125 
Q 15.578125 40.375 12.03125 44.71875 
Q 8.5 49.078125 8.5 55.328125 
Q 8.5 64.0625 14.71875 69.140625 
Q 20.953125 74.21875 31.78125 74.21875 
Q 42.671875 74.21875 48.875 69.140625 
Q 55.078125 64.0625 55.078125 55.328125 
Q 55.078125 49.078125 51.53125 44.71875 
Q 48 40.375 41.703125 38.8125 
Q 48.828125 37.15625 52.796875 32.3125 
Q 56.78125 27.484375 56.78125 20.515625 
Q 56.78125 9.90625 50.3125 4.234375 
Q 43.84375 -1.421875 31.78125 -1.421875 
Q 19.734375 -1.421875 13.25 4.234375 
Q 6.78125 9.90625 6.78125 20.515625 
Q 6.78125 27.484375 10.78125 32.3125 
Q 14.796875 37.15625 21.921875 38.8125 
z
M 18.3125 54.390625 
Q 18.3125 48.734375 21.84375 45.5625 
Q 25.390625 42.390625 31.78125 42.390625 
Q 38.140625 42.390625 41.71875 45.5625 
Q 45.3125 48.734375 45.3125 54.390625 
Q 45.3125 60.0625 41.71875 63.234375 
Q 38.140625 66.40625 31.78125 66.40625 
Q 25.390625 66.40625 21.84375 63.234375 
Q 18.3125 60.0625 18.3125 54.390625 
z
" id="DejaVuSans-56"/>
      </defs>
      <g transform="translate(455.22438 387.756875)scale(0.2 -0.2)">
       <use xlink:href="#DejaVuSans-56"/>
       <use x="63.623047" xlink:href="#DejaVuSans-48"/>
      </g>
     </g>
    </g>
    <g id="text_6">
     <!-- # of games -->
     <defs>
      <path d="M 51.125 44 
L 36.921875 44 
L 32.8125 27.6875 
L 47.125 27.6875 
z
M 43.796875 71.78125 
L 38.71875 51.515625 
L 52.984375 51.515625 
L 58.109375 71.78125 
L 65.921875 71.78125 
L 60.890625 51.515625 
L 76.125 51.515625 
L 76.125 44 
L 58.984375 44 
L 54.984375 27.6875 
L 70.515625 27.6875 
L 70.515625 20.21875 
L 53.078125 20.21875 
L 48 0 
L 40.1875 0 
L 45.21875 20.21875 
L 30.90625 20.21875 
L 25.875 0 
L 18.015625 0 
L 23.09375 20.21875 
L 7.71875 20.21875 
L 7.71875 27.6875 
L 24.90625 27.6875 
L 29 44 
L 13.28125 44 
L 13.28125 51.515625 
L 30.90625 51.515625 
L 35.890625 71.78125 
z
" id="DejaVuSans-35"/>
      <path id="DejaVuSans-32"/>
      <path d="M 30.609375 48.390625 
Q 23.390625 48.390625 19.1875 42.75 
Q 14.984375 37.109375 14.984375 27.296875 
Q 14.984375 17.484375 19.15625 11.84375 
Q 23.34375 6.203125 30.609375 6.203125 
Q 37.796875 6.203125 41.984375 11.859375 
Q 46.1875 17.53125 46.1875 27.296875 
Q 46.1875 37.015625 41.984375 42.703125 
Q 37.796875 48.390625 30.609375 48.390625 
z
M 30.609375 56 
Q 42.328125 56 49.015625 48.375 
Q 55.71875 40.765625 55.71875 27.296875 
Q 55.71875 13.875 49.015625 6.21875 
Q 42.328125 -1.421875 30.609375 -1.421875 
Q 18.84375 -1.421875 12.171875 6.21875 
Q 5.515625 13.875 5.515625 27.296875 
Q 5.515625 40.765625 12.171875 48.375 
Q 18.84375 56 30.609375 56 
z
" id="DejaVuSans-111"/>
      <path d="M 37.109375 75.984375 
L 37.109375 68.5 
L 28.515625 68.5 
Q 23.6875 68.5 21.796875 66.546875 
Q 19.921875 64.59375 19.921875 59.515625 
L 19.921875 54.6875 
L 34.71875 54.6875 
L 34.71875 47.703125 
L 19.921875 47.703125 
L 19.921875 0 
L 10.890625 0 
L 10.890625 47.703125 
L 2.296875 47.703125 
L 2.296875 54.6875 
L 10.890625 54.6875 
L 10.890625 58.5 
Q 10.890625 67.625 15.140625 71.796875 
Q 19.390625 75.984375 28.609375 75.984375 
z
" id="DejaVuSans-102"/>
      <path d="M 45.40625 27.984375 
Q 45.40625 37.75 41.375 43.109375 
Q 37.359375 48.484375 30.078125 48.484375 
Q 22.859375 48.484375 18.828125 43.109375 
Q 14.796875 37.75 14.796875 27.984375 
Q 14.796875 18.265625 18.828125 12.890625 
Q 22.859375 7.515625 30.078125 7.515625 
Q 37.359375 7.515625 41.375 12.890625 
Q 45.40625 18.265625 45.40625 27.984375 
z
M 54.390625 6.78125 
Q 54.390625 -7.171875 48.1875 -13.984375 
Q 42 -20.796875 29.203125 -20.796875 
Q 24.46875 -20.796875 20.265625 -20.09375 
Q 16.0625 -19.390625 12.109375 -17.921875 
L 12.109375 -9.1875 
Q 16.0625 -11.328125 19.921875 -12.34375 
Q 23.78125 -13.375 27.78125 -13.375 
Q 36.625 -13.375 41.015625 -8.765625 
Q 45.40625 -4.15625 45.40625 5.171875 
L 45.40625 9.625 
Q 42.625 4.78125 38.28125 2.390625 
Q 33.9375 0 27.875 0 
Q 17.828125 0 11.671875 7.65625 
Q 5.515625 15.328125 5.515625 27.984375 
Q 5.515625 40.671875 11.671875 48.328125 
Q 17.828125 56 27.875 56 
Q 33.9375 56 38.28125 53.609375 
Q 42.625 51.21875 45.40625 46.390625 
L 45.40625 54.6875 
L 54.390625 54.6875 
z
" id="DejaVuSans-103"/>
      <path d="M 34.28125 27.484375 
Q 23.390625 27.484375 19.1875 25 
Q 14.984375 22.515625 14.984375 16.5 
Q 14.984375 11.71875 18.140625 8.90625 
Q 21.296875 6.109375 26.703125 6.109375 
Q 34.1875 6.109375 38.703125 11.40625 
Q 43.21875 16.703125 43.21875 25.484375 
L 43.21875 27.484375 
z
M 52.203125 31.203125 
L 52.203125 0 
L 43.21875 0 
L 43.21875 8.296875 
Q 40.140625 3.328125 35.546875 0.953125 
Q 30.953125 -1.421875 24.3125 -1.421875 
Q 15.921875 -1.421875 10.953125 3.296875 
Q 6 8.015625 6 15.921875 
Q 6 25.140625 12.171875 29.828125 
Q 18.359375 34.515625 30.609375 34.515625 
L 43.21875 34.515625 
L 43.21875 35.40625 
Q 43.21875 41.609375 39.140625 45 
Q 35.0625 48.390625 27.6875 48.390625 
Q 23 48.390625 18.546875 47.265625 
Q 14.109375 46.140625 10.015625 43.890625 
L 10.015625 52.203125 
Q 14.9375 54.109375 19.578125 55.046875 
Q 24.21875 56 28.609375 56 
Q 40.484375 56 46.34375 49.84375 
Q 52.203125 43.703125 52.203125 31.203125 
z
" id="DejaVuSans-97"/>
      <path d="M 52 44.1875 
Q 55.375 50.25 60.0625 53.125 
Q 64.75 56 71.09375 56 
Q 79.640625 56 84.28125 50.015625 
Q 88.921875 44.046875 88.921875 33.015625 
L 88.921875 0 
L 79.890625 0 
L 79.890625 32.71875 
Q 79.890625 40.578125 77.09375 44.375 
Q 74.3125 48.1875 68.609375 48.1875 
Q 61.625 48.1875 57.5625 43.546875 
Q 53.515625 38.921875 53.515625 30.90625 
L 53.515625 0 
L 44.484375 0 
L 44.484375 32.71875 
Q 44.484375 40.625 41.703125 44.40625 
Q 38.921875 48.1875 33.109375 48.1875 
Q 26.21875 48.1875 22.15625 43.53125 
Q 18.109375 38.875 18.109375 30.90625 
L 18.109375 0 
L 9.078125 0 
L 9.078125 54.6875 
L 18.109375 54.6875 
L 18.109375 46.1875 
Q 21.1875 51.21875 25.484375 53.609375 
Q 29.78125 56 35.6875 56 
Q 41.65625 56 45.828125 52.96875 
Q 50 49.953125 52 44.1875 
z
" id="DejaVuSans-109"/>
      <path d="M 56.203125 29.59375 
L 56.203125 25.203125 
L 14.890625 25.203125 
Q 15.484375 15.921875 20.484375 11.0625 
Q 25.484375 6.203125 34.421875 6.203125 
Q 39.59375 6.203125 44.453125 7.46875 
Q 49.3125 8.734375 54.109375 11.28125 
L 54.109375 2.78125 
Q 49.265625 0.734375 44.1875 -0.34375 
Q 39.109375 -1.421875 33.890625 -1.421875 
Q 20.796875 -1.421875 13.15625 6.1875 
Q 5.515625 13.8125 5.515625 26.8125 
Q 5.515625 40.234375 12.765625 48.109375 
Q 20.015625 56 32.328125 56 
Q 43.359375 56 49.78125 48.890625 
Q 56.203125 41.796875 56.203125 29.59375 
z
M 47.21875 32.234375 
Q 47.125 39.59375 43.09375 43.984375 
Q 39.0625 48.390625 32.421875 48.390625 
Q 24.90625 48.390625 20.390625 44.140625 
Q 15.875 39.890625 15.1875 32.171875 
z
" id="DejaVuSans-101"/>
      <path d="M 44.28125 53.078125 
L 44.28125 44.578125 
Q 40.484375 46.53125 36.375 47.5 
Q 32.28125 48.484375 27.875 48.484375 
Q 21.1875 48.484375 17.84375 46.4375 
Q 14.5 44.390625 14.5 40.28125 
Q 14.5 37.15625 16.890625 35.375 
Q 19.28125 33.59375 26.515625 31.984375 
L 29.59375 31.296875 
Q 39.15625 29.25 43.1875 25.515625 
Q 47.21875 21.78125 47.21875 15.09375 
Q 47.21875 7.46875 41.1875 3.015625 
Q 35.15625 -1.421875 24.609375 -1.421875 
Q 20.21875 -1.421875 15.453125 -0.5625 
Q 10.6875 0.296875 5.421875 2 
L 5.421875 11.28125 
Q 10.40625 8.6875 15.234375 7.390625 
Q 20.0625 6.109375 24.8125 6.109375 
Q 31.15625 6.109375 34.5625 8.28125 
Q 37.984375 10.453125 37.984375 14.40625 
Q 37.984375 18.0625 35.515625 20.015625 
Q 33.0625 21.96875 24.703125 23.78125 
L 21.578125 24.515625 
Q 13.234375 26.265625 9.515625 29.90625 
Q 5.8125 33.546875 5.8125 39.890625 
Q 5.8125 47.609375 11.28125 51.796875 
Q 16.75 56 26.8125 56 
Q 31.78125 56 36.171875 55.265625 
Q 40.578125 54.546875 44.28125 53.078125 
z
" id="DejaVuSans-115"/>
     </defs>
     <g transform="translate(217.681641 414.912344)scale(0.25 -0.25)">
      <use xlink:href="#DejaVuSans-35"/>
      <use x="83.789062" xlink:href="#DejaVuSans-32"/>
      <use x="115.576172" xlink:href="#DejaVuSans-111"/>
      <use x="176.757812" xlink:href="#DejaVuSans-102"/>
      <use x="211.962891" xlink:href="#DejaVuSans-32"/>
      <use x="243.75" xlink:href="#DejaVuSans-103"/>
      <use x="307.226562" xlink:href="#DejaVuSans-97"/>
      <use x="368.505859" xlink:href="#DejaVuSans-109"/>
      <use x="465.917969" xlink:href="#DejaVuSans-101"/>
      <use x="527.441406" xlink:href="#DejaVuSans-115"/>
     </g>
    </g>
   </g>
   <g id="matplotlib.axis_2">
    <g id="ytick_1">
     <g id="line2d_6">
      <defs>
       <path d="M 0 0 
L -3.5 0 
" id="m62ee41ec61" style="stroke:#000000;stroke-width:0.8;"/>
      </defs>
      <g>
       <use style="stroke:#000000;stroke-width:0.8;" x="51.05" xlink:href="#m62ee41ec61" y="351.970909"/>
      </g>
     </g>
     <g id="text_7">
      <!-- 0 -->
      <g transform="translate(31.325 359.569347)scale(0.2 -0.2)">
       <use xlink:href="#DejaVuSans-48"/>
      </g>
     </g>
    </g>
    <g id="ytick_2">
     <g id="line2d_7">
      <g>
       <use style="stroke:#000000;stroke-width:0.8;" x="51.05" xlink:href="#m62ee41ec61" y="288.643107"/>
      </g>
     </g>
     <g id="text_8">
      <!-- 2 -->
      <g transform="translate(31.325 296.241544)scale(0.2 -0.2)">
       <use xlink:href="#DejaVuSans-50"/>
      </g>
     </g>
    </g>
    <g id="ytick_3">
     <g id="line2d_8">
      <g>
       <use style="stroke:#000000;stroke-width:0.8;" x="51.05" xlink:href="#m62ee41ec61" y="225.315305"/>
      </g>
     </g>
     <g id="text_9">
      <!-- 4 -->
      <g transform="translate(31.325 232.913742)scale(0.2 -0.2)">
       <use xlink:href="#DejaVuSans-52"/>
      </g>
     </g>
    </g>
    <g id="ytick_4">
     <g id="line2d_9">
      <g>
       <use style="stroke:#000000;stroke-width:0.8;" x="51.05" xlink:href="#m62ee41ec61" y="161.987502"/>
      </g>
     </g>
     <g id="text_10">
      <!-- 6 -->
      <g transform="translate(31.325 169.58594)scale(0.2 -0.2)">
       <use xlink:href="#DejaVuSans-54"/>
      </g>
     </g>
    </g>
    <g id="ytick_5">
     <g id="line2d_10">
      <g>
       <use style="stroke:#000000;stroke-width:0.8;" x="51.05" xlink:href="#m62ee41ec61" y="98.6597"/>
      </g>
     </g>
     <g id="text_11">
      <!-- 8 -->
      <g transform="translate(31.325 106.258137)scale(0.2 -0.2)">
       <use xlink:href="#DejaVuSans-56"/>
      </g>
     </g>
    </g>
    <g id="text_12">
     <!-- AHEU Value -->
     <defs>
      <path d="M 34.1875 63.1875 
L 20.796875 26.90625 
L 47.609375 26.90625 
z
M 28.609375 72.90625 
L 39.796875 72.90625 
L 67.578125 0 
L 57.328125 0 
L 50.6875 18.703125 
L 17.828125 18.703125 
L 11.1875 0 
L 0.78125 0 
z
" id="DejaVuSans-65"/>
      <path d="M 9.8125 72.90625 
L 19.671875 72.90625 
L 19.671875 43.015625 
L 55.515625 43.015625 
L 55.515625 72.90625 
L 65.375 72.90625 
L 65.375 0 
L 55.515625 0 
L 55.515625 34.71875 
L 19.671875 34.71875 
L 19.671875 0 
L 9.8125 0 
z
" id="DejaVuSans-72"/>
      <path d="M 9.8125 72.90625 
L 55.90625 72.90625 
L 55.90625 64.59375 
L 19.671875 64.59375 
L 19.671875 43.015625 
L 54.390625 43.015625 
L 54.390625 34.71875 
L 19.671875 34.71875 
L 19.671875 8.296875 
L 56.78125 8.296875 
L 56.78125 0 
L 9.8125 0 
z
" id="DejaVuSans-69"/>
      <path d="M 8.6875 72.90625 
L 18.609375 72.90625 
L 18.609375 28.609375 
Q 18.609375 16.890625 22.84375 11.734375 
Q 27.09375 6.59375 36.625 6.59375 
Q 46.09375 6.59375 50.34375 11.734375 
Q 54.59375 16.890625 54.59375 28.609375 
L 54.59375 72.90625 
L 64.5 72.90625 
L 64.5 27.390625 
Q 64.5 13.140625 57.4375 5.859375 
Q 50.390625 -1.421875 36.625 -1.421875 
Q 22.796875 -1.421875 15.734375 5.859375 
Q 8.6875 13.140625 8.6875 27.390625 
z
" id="DejaVuSans-85"/>
      <path d="M 28.609375 0 
L 0.78125 72.90625 
L 11.078125 72.90625 
L 34.1875 11.53125 
L 57.328125 72.90625 
L 67.578125 72.90625 
L 39.796875 0 
z
" id="DejaVuSans-86"/>
      <path d="M 9.421875 75.984375 
L 18.40625 75.984375 
L 18.40625 0 
L 9.421875 0 
z
" id="DejaVuSans-108"/>
      <path d="M 8.5 21.578125 
L 8.5 54.6875 
L 17.484375 54.6875 
L 17.484375 21.921875 
Q 17.484375 14.15625 20.5 10.265625 
Q 23.53125 6.390625 29.59375 6.390625 
Q 36.859375 6.390625 41.078125 11.03125 
Q 45.3125 15.671875 45.3125 23.6875 
L 45.3125 54.6875 
L 54.296875 54.6875 
L 54.296875 0 
L 45.3125 0 
L 45.3125 8.40625 
Q 42.046875 3.421875 37.71875 1 
Q 33.40625 -1.421875 27.6875 -1.421875 
Q 18.265625 -1.421875 13.375 4.4375 
Q 8.5 10.296875 8.5 21.578125 
z
M 31.109375 56 
z
" id="DejaVuSans-117"/>
     </defs>
     <g transform="translate(23.858854 265.582604)rotate(-90)scale(0.166667 -0.166667)">
      <use xlink:href="#DejaVuSans-65"/>
      <use x="68.408203" xlink:href="#DejaVuSans-72"/>
      <use x="143.603516" xlink:href="#DejaVuSans-69"/>
      <use x="206.787109" xlink:href="#DejaVuSans-85"/>
      <use x="279.980469" xlink:href="#DejaVuSans-32"/>
      <use x="311.767578" xlink:href="#DejaVuSans-86"/>
      <use x="380.066406" xlink:href="#DejaVuSans-97"/>
      <use x="441.345703" xlink:href="#DejaVuSans-108"/>
      <use x="469.128906" xlink:href="#DejaVuSans-117"/>
      <use x="532.507812" xlink:href="#DejaVuSans-101"/>
     </g>
    </g>
   </g>
   <g id="line2d_11">
    <path clip-path="url(#p4e8aeb93ba)" d="M 72.784091 351.970909 
L 77.723657 294.700549 
L 82.663223 257.883889 
L 87.602789 244.406774 
L 92.542355 238.548631 
L 97.481921 234.61981 
L 102.421488 225.576066 
L 107.361054 218.381087 
L 112.30062 217.700495 
L 117.240186 208.09809 
L 122.179752 213.378901 
L 127.119318 212.302931 
L 132.058884 210.986136 
L 136.99845 205.08996 
L 141.938017 195.797248 
L 146.877583 189.333416 
L 151.817149 187.424866 
L 156.756715 186.846082 
L 161.696281 184.079163 
L 166.635847 185.833856 
L 171.575413 181.195144 
L 176.514979 186.350744 
L 181.454545 179.134511 
L 186.394112 175.897958 
L 191.333678 176.853919 
L 196.273244 170.690354 
L 201.21281 167.485767 
L 206.152376 170.265621 
L 211.091942 169.573144 
L 216.031508 172.559809 
L 220.971074 163.130092 
L 225.91064 159.018892 
L 230.850207 156.16611 
L 235.789773 158.536544 
L 240.729339 161.162284 
L 245.668905 160.908083 
L 250.608471 152.197744 
L 255.548037 150.606044 
L 260.487603 152.708305 
L 265.427169 147.763046 
L 270.366736 150.367051 
L 275.306302 138.101958 
L 280.245868 135.596982 
L 285.185434 139.760308 
L 290.125 145.1684 
L 295.064566 132.869695 
L 300.004132 131.446547 
L 304.943698 130.977313 
L 309.883264 133.496937 
L 314.822831 139.282559 
L 319.762397 142.697362 
L 324.701963 133.141799 
L 329.641529 133.914926 
L 334.581095 147.630901 
L 339.520661 133.409711 
L 344.460227 133.381091 
L 349.399793 131.621985 
L 354.33936 128.111693 
L 359.278926 122.557809 
L 364.218492 121.944475 
L 369.158058 110.979117 
L 374.097624 133.071381 
L 379.03719 136.958179 
L 383.976756 120.194938 
L 388.916322 120.185978 
L 393.855888 103.440645 
L 398.795455 125.617354 
L 403.735021 117.237325 
L 408.674587 112.576075 
L 413.614153 96.7399 
L 418.553719 98.422129 
L 423.493285 98.41762 
L 428.432851 112.798088 
L 433.372417 112.78851 
L 438.311983 120.714063 
L 443.25155 134.31515 
L 448.191116 134.382574 
L 453.130682 112.867339 
L 458.070248 112.872129 
L 463.009814 112.860249 
L 467.94938 99.271158 
L 472.888946 114.144809 
L 477.828512 129.645523 
L 482.768079 129.645523 
L 487.707645 97.981621 
L 492.647211 98.007185 
L 497.586777 98.007185 
L 502.526343 98.007185 
L 507.465909 112.08003 
" style="fill:none;stroke:#1f77b4;stroke-linecap:square;stroke-width:1.5;"/>
   </g>
   <g id="line2d_12">
    <path clip-path="url(#p4e8aeb93ba)" d="M 72.784091 351.970909 
L 77.723657 317.902387 
L 82.663223 289.346749 
L 87.602789 276.62945 
L 92.542355 263.239195 
L 97.481921 264.49518 
L 102.421488 265.582982 
L 107.361054 264.60588 
L 112.30062 267.20861 
L 117.240186 266.919732 
L 122.179752 268.560579 
L 127.119318 273.018469 
L 132.058884 278.275933 
L 136.99845 282.227953 
L 141.938017 278.894302 
L 146.877583 277.577881 
L 151.817149 278.30597 
L 156.756715 276.009689 
L 161.696281 278.695017 
L 166.635847 286.870688 
L 171.575413 283.393266 
L 176.514979 288.447507 
L 181.454545 292.203254 
L 186.394112 291.799188 
L 191.333678 294.342649 
L 196.273244 294.493336 
L 201.21281 292.522 
L 206.152376 290.417297 
L 211.091942 290.644837 
L 216.031508 292.39673 
L 220.971074 291.315835 
L 225.91064 294.987523 
L 230.850207 295.711689 
L 235.789773 298.431026 
L 240.729339 293.376793 
L 245.668905 292.822466 
L 250.608471 285.612376 
L 255.548037 284.869284 
L 260.487603 288.910274 
L 265.427169 294.985577 
L 270.366736 298.077336 
L 275.306302 294.410511 
L 280.245868 291.310566 
L 285.185434 298.190801 
L 290.125 299.644326 
L 295.064566 288.14004 
L 300.004132 287.586572 
L 304.943698 281.147024 
L 309.883264 278.240736 
L 314.822831 290.438415 
L 319.762397 292.508117 
L 324.701963 282.416453 
L 329.641529 280.741862 
L 334.581095 288.287603 
L 339.520661 295.497234 
L 344.460227 305.980437 
L 349.399793 305.980437 
L 354.33936 305.978302 
L 359.278926 304.652576 
L 364.218492 309.136367 
L 369.158058 292.485966 
L 374.097624 299.184959 
L 379.03719 297.942485 
L 383.976756 287.139507 
L 388.916322 287.153041 
L 393.855888 276.350063 
L 398.795455 280.551221 
L 403.735021 280.551221 
L 408.674587 294.624066 
L 413.614153 292.86496 
L 418.553719 291.250722 
L 423.493285 291.250722 
L 428.432851 291.413698 
L 433.372417 291.413698 
L 438.311983 303.287661 
L 443.25155 306.151382 
L 448.191116 306.151382 
L 453.130682 287.455711 
L 458.070248 287.455711 
L 463.009814 287.455711 
L 467.94938 285.476717 
L 472.888946 298.328535 
L 477.828512 323.825219 
L 482.768079 323.825219 
L 487.707645 303.419594 
L 492.647211 303.419594 
L 497.586777 303.419594 
L 502.526343 303.419594 
L 507.465909 320.307008 
" style="fill:none;stroke:#ff7f0e;stroke-linecap:square;stroke-width:1.5;"/>
   </g>
   <g id="line2d_13">
    <path clip-path="url(#p4e8aeb93ba)" d="M 72.784091 351.970909 
L 77.723657 319.224011 
L 82.663223 286.934261 
L 87.602789 275.232513 
L 92.542355 264.01951 
L 97.481921 258.439571 
L 102.421488 254.918174 
L 107.361054 247.830856 
L 112.30062 246.446006 
L 117.240186 239.214094 
L 122.179752 242.669875 
L 127.119318 245.064645 
L 132.058884 251.923478 
L 136.99845 254.287204 
L 141.938017 256.146591 
L 146.877583 258.830731 
L 151.817149 262.496494 
L 156.756715 270.896919 
L 161.696281 271.198817 
L 166.635847 276.678781 
L 171.575413 276.069488 
L 176.514979 281.000318 
L 181.454545 277.672243 
L 186.394112 275.387822 
L 191.333678 277.932604 
L 196.273244 277.946753 
L 201.21281 276.357462 
L 206.152376 275.614929 
L 211.091942 278.754105 
L 216.031508 276.918471 
L 220.971074 269.856644 
L 225.91064 267.260369 
L 230.850207 264.413463 
L 235.789773 264.143054 
L 240.729339 268.675386 
L 245.668905 273.166486 
L 250.608471 277.186247 
L 255.548037 280.592117 
L 260.487603 283.541237 
L 265.427169 285.634243 
L 270.366736 286.743931 
L 275.306302 283.198964 
L 280.245868 278.083779 
L 285.185434 277.585496 
L 290.125 279.65957 
L 295.064566 270.206738 
L 300.004132 276.769324 
L 304.943698 265.507006 
L 309.883264 269.866854 
L 314.822831 280.85075 
L 319.762397 281.698784 
L 324.701963 270.401508 
L 329.641529 278.296631 
L 334.581095 285.234171 
L 339.520661 274.117692 
L 344.460227 274.117692 
L 349.399793 284.556118 
L 354.33936 295.110752 
L 359.278926 293.702004 
L 364.218492 301.052438 
L 369.158058 294.490124 
L 374.097624 300.876983 
L 379.03719 308.751702 
L 383.976756 306.88912 
L 388.916322 306.88912 
L 393.855888 296.086142 
L 398.795455 299.190851 
L 403.735021 299.074668 
L 408.674587 299.07492 
L 413.614153 288.806719 
L 418.553719 296.069813 
L 423.493285 296.069813 
L 428.432851 296.533495 
L 433.372417 296.442341 
L 438.311983 305.941512 
L 443.25155 308.649123 
L 448.191116 308.649123 
L 453.130682 306.173509 
L 458.070248 306.264662 
L 463.009814 306.264691 
L 467.94938 320.117648 
L 472.888946 321.991369 
L 477.828512 323.825219 
L 482.768079 323.825219 
L 487.707645 320.307008 
L 492.647211 320.25588 
L 497.586777 320.25588 
L 502.526343 320.25588 
L 507.465909 320.25588 
" style="fill:none;stroke:#2ca02c;stroke-linecap:square;stroke-width:1.5;"/>
   </g>
   <g id="line2d_14">
    <path clip-path="url(#p4e8aeb93ba)" d="M 72.784091 351.970909 
L 77.723657 323.188882 
L 82.663223 296.584212 
L 87.602789 290.040044 
L 92.542355 277.65173 
L 97.481921 270.78782 
L 102.421488 261.859172 
L 107.361054 257.604229 
L 112.30062 262.967767 
L 117.240186 254.514985 
L 122.179752 256.086749 
L 127.119318 257.692748 
L 132.058884 262.346027 
L 136.99845 264.489785 
L 141.938017 263.260498 
L 146.877583 265.748897 
L 151.817149 267.638311 
L 156.756715 271.184704 
L 161.696281 274.980535 
L 166.635847 279.305849 
L 171.575413 279.394826 
L 176.514979 281.021518 
L 181.454545 280.043473 
L 186.394112 277.969986 
L 191.333678 277.425843 
L 196.273244 277.393822 
L 201.21281 278.806245 
L 206.152376 276.202286 
L 211.091942 276.605909 
L 216.031508 279.377325 
L 220.971074 275.201843 
L 225.91064 275.188151 
L 230.850207 276.123099 
L 235.789773 276.227407 
L 240.729339 275.148607 
L 245.668905 279.171256 
L 250.608471 279.390389 
L 255.548037 278.853353 
L 260.487603 288.02699 
L 265.427169 293.454201 
L 270.366736 294.744289 
L 275.306302 291.689746 
L 280.245868 288.643107 
L 285.185434 286.444225 
L 290.125 288.215216 
L 295.064566 280.826973 
L 300.004132 281.285019 
L 304.943698 276.798768 
L 309.883264 276.560299 
L 314.822831 279.965194 
L 319.762397 284.516243 
L 324.701963 273.494103 
L 329.641529 279.636486 
L 334.581095 282.976935 
L 339.520661 284.948985 
L 344.460227 284.948985 
L 349.399793 284.885018 
L 354.33936 284.885018 
L 359.278926 287.787542 
L 364.218492 281.284053 
L 369.158058 294.880442 
L 374.097624 301.223827 
L 379.03719 309.041683 
L 383.976756 307.1791 
L 388.916322 307.1791 
L 393.855888 296.365285 
L 398.795455 299.454037 
L 403.735021 299.4388 
L 408.674587 299.400594 
L 413.614153 289.197781 
L 418.553719 287.525557 
L 423.493285 287.525557 
L 428.432851 303.287661 
L 433.372417 303.287661 
L 438.311983 300.912868 
L 443.25155 303.916283 
L 448.191116 303.916283 
L 453.130682 300.912868 
L 458.070248 300.912868 
L 463.009814 312.786831 
L 467.94938 301.308667 
L 472.888946 304.288799 
L 477.828512 306.937805 
L 482.768079 323.825219 
L 487.707645 320.307008 
L 492.647211 320.307008 
L 497.586777 320.307008 
L 502.526343 320.307008 
L 507.465909 320.307008 
" style="fill:none;stroke:#d62728;stroke-linecap:square;stroke-width:1.5;"/>
   </g>
   <g id="line2d_15">
    <path clip-path="url(#p4e8aeb93ba)" d="M 72.784091 351.970909 
L 77.723657 294.700549 
L 82.663223 250.445385 
L 87.602789 232.765634 
L 92.542355 209.636214 
L 97.481921 202.673262 
L 102.421488 194.433688 
L 107.361054 183.143941 
L 112.30062 180.764803 
L 117.240186 166.902337 
L 122.179752 167.880585 
L 127.119318 171.572062 
L 132.058884 174.642852 
L 136.99845 167.237755 
L 141.938017 159.775511 
L 146.877583 155.400799 
L 151.817149 149.139704 
L 156.756715 148.223777 
L 161.696281 145.487972 
L 166.635847 152.046547 
L 171.575413 148.706602 
L 176.514979 152.538692 
L 181.454545 145.882339 
L 186.394112 141.565388 
L 191.333678 146.169887 
L 196.273244 148.088145 
L 201.21281 141.621679 
L 206.152376 139.571811 
L 211.091942 143.0892 
L 216.031508 143.469677 
L 220.971074 138.283229 
L 225.91064 134.495503 
L 230.850207 134.573385 
L 235.789773 134.173738 
L 240.729339 133.726356 
L 245.668905 137.392267 
L 250.608471 133.601903 
L 255.548037 131.440552 
L 260.487603 130.028398 
L 265.427169 125.262174 
L 270.366736 125.586289 
L 275.306302 122.340901 
L 280.245868 124.714567 
L 285.185434 129.175207 
L 290.125 134.857858 
L 295.064566 112.978387 
L 300.004132 112.590354 
L 304.943698 113.470818 
L 309.883264 114.02746 
L 314.822831 119.106794 
L 319.762397 129.279472 
L 324.701963 118.188093 
L 329.641529 116.954398 
L 334.581095 122.546503 
L 339.520661 120.64852 
L 344.460227 120.64852 
L 349.399793 118.862761 
L 354.33936 115.34455 
L 359.278926 103.464191 
L 364.218492 106.567999 
L 369.158058 101.298358 
L 374.097624 124.459916 
L 379.03719 127.840158 
L 383.976756 111.076916 
L 388.916322 111.076916 
L 393.855888 94.312169 
L 398.795455 108.626544 
L 403.735021 108.626544 
L 408.674587 103.935595 
L 413.614153 96.547352 
L 418.553719 98.285678 
L 423.493285 98.285678 
L 428.432851 112.776523 
L 433.372417 112.776523 
L 438.311983 111.193327 
L 443.25155 125.349189 
L 448.191116 125.350694 
L 453.130682 103.277352 
L 458.070248 103.277352 
L 463.009814 103.277352 
L 467.94938 80.189091 
L 472.888946 96.176257 
L 477.828512 112.732545 
L 482.768079 112.732545 
L 487.707645 97.956058 
L 492.647211 97.956058 
L 497.586777 97.956058 
L 502.526343 97.956058 
L 507.465909 95.141489 
" style="fill:none;stroke:#9467bd;stroke-linecap:square;stroke-width:1.5;"/>
   </g>
   <g id="line2d_16">
    <path clip-path="url(#p4e8aeb93ba)" d="M 72.784091 351.970909 
L 77.723657 325.832129 
L 82.663223 298.9967 
L 87.602789 285.290458 
L 92.542355 271.886716 
L 97.481921 266.915547 
L 102.421488 263.647251 
L 107.361054 256.967413 
L 112.30062 251.895298 
L 117.240186 252.021106 
L 122.179752 255.042352 
L 127.119318 259.61092 
L 132.058884 262.342393 
L 136.99845 260.85871 
L 141.938017 258.387902 
L 146.877583 254.135942 
L 151.817149 254.205768 
L 156.756715 257.358311 
L 161.696281 258.252249 
L 166.635847 263.344789 
L 171.575413 263.014479 
L 176.514979 271.483049 
L 181.454545 268.049485 
L 186.394112 272.961637 
L 191.333678 270.487557 
L 196.273244 271.704773 
L 201.21281 269.861411 
L 206.152376 273.464898 
L 211.091942 273.222305 
L 216.031508 275.17665 
L 220.971074 270.918932 
L 225.91064 271.00212 
L 230.850207 278.54896 
L 235.789773 278.222579 
L 240.729339 273.584141 
L 245.668905 281.841391 
L 250.608471 277.750682 
L 255.548037 281.811414 
L 260.487603 285.315906 
L 265.427169 281.921499 
L 270.366736 279.261525 
L 275.306302 281.043543 
L 280.245868 284.811867 
L 285.185434 284.836732 
L 290.125 293.48962 
L 295.064566 285.245596 
L 300.004132 291.203342 
L 304.943698 282.907475 
L 309.883264 276.765878 
L 314.822831 283.673545 
L 319.762397 290.065929 
L 324.701963 276.709811 
L 329.641529 274.274354 
L 334.581095 283.279025 
L 339.520661 291.785582 
L 344.460227 291.785545 
L 349.399793 295.479667 
L 354.33936 295.460477 
L 359.278926 287.806235 
L 364.218492 288.928445 
L 369.158058 288.602386 
L 374.097624 309.716178 
L 379.03719 309.093188 
L 383.976756 298.29021 
L 388.916322 313.172808 
L 393.855888 311.310226 
L 398.795455 313.569153 
L 403.735021 313.537217 
L 408.674587 313.537352 
L 413.614153 303.33454 
L 418.553719 302.336159 
L 423.493285 302.336158 
L 428.432851 303.182125 
L 433.372417 303.182122 
L 438.311983 312.681295 
L 443.25155 314.996955 
L 448.191116 314.996955 
L 453.130682 303.258876 
L 458.070248 303.258876 
L 463.009814 303.258876 
L 467.94938 301.279882 
L 472.888946 313.202103 
L 477.828512 323.774045 
L 482.768079 323.774045 
L 487.707645 303.36842 
L 492.647211 303.36842 
L 497.586777 303.36842 
L 502.526343 303.36842 
L 507.465909 299.146567 
" style="fill:none;stroke:#8c564b;stroke-linecap:square;stroke-width:1.5;"/>
   </g>
   <g id="line2d_17">
    <path clip-path="url(#p4e8aeb93ba)" d="M 72.784091 351.970909 
L 77.723657 307.18255 
L 82.663223 272.660376 
L 87.602789 256.141044 
L 92.542355 239.189189 
L 97.481921 234.754068 
L 102.421488 223.564477 
L 107.361054 216.229493 
L 112.30062 220.103261 
L 117.240186 214.44294 
L 122.179752 215.417419 
L 127.119318 216.921194 
L 132.058884 225.712542 
L 136.99845 219.815389 
L 141.938017 210.990978 
L 146.877583 207.87301 
L 151.817149 202.030313 
L 156.756715 204.287875 
L 161.696281 205.900722 
L 166.635847 210.514969 
L 171.575413 208.95746 
L 176.514979 213.790185 
L 181.454545 213.253583 
L 186.394112 208.602507 
L 191.333678 205.91829 
L 196.273244 200.678699 
L 201.21281 199.43288 
L 206.152376 199.120329 
L 211.091942 198.900697 
L 216.031508 207.114057 
L 220.971074 205.738035 
L 225.91064 204.514682 
L 230.850207 208.495712 
L 235.789773 209.89048 
L 240.729339 209.973694 
L 245.668905 210.282418 
L 250.608471 200.962444 
L 255.548037 198.535452 
L 260.487603 207.253947 
L 265.427169 209.7669 
L 270.366736 215.300168 
L 275.306302 212.372371 
L 280.245868 213.344415 
L 285.185434 212.88321 
L 290.125 216.993166 
L 295.064566 205.934312 
L 300.004132 206.411136 
L 304.943698 206.477849 
L 309.883264 206.476657 
L 314.822831 208.93816 
L 319.762397 217.146346 
L 324.701963 216.203811 
L 329.641529 221.094272 
L 334.581095 223.439673 
L 339.520661 220.221868 
L 344.460227 220.207527 
L 349.399793 227.224733 
L 354.33936 225.469618 
L 359.278926 222.058567 
L 364.218492 221.877132 
L 369.158058 203.737916 
L 374.097624 217.865947 
L 379.03719 219.30162 
L 383.976756 205.51851 
L 388.916322 205.51403 
L 393.855888 191.739875 
L 398.795455 200.604482 
L 403.735021 196.397425 
L 408.674587 194.0668 
L 413.614153 181.047306 
L 418.553719 180.272176 
L 423.493285 180.269917 
L 428.432851 186.621793 
L 433.372417 186.616993 
L 438.311983 183.449006 
L 443.25155 193.360927 
L 448.191116 193.394639 
L 453.130682 191.425184 
L 458.070248 191.427585 
L 463.009814 191.428836 
L 467.94938 174.145623 
L 472.888946 189.080612 
L 477.828512 188.717386 
L 482.768079 205.6048 
L 487.707645 179.570037 
L 492.647211 179.557232 
L 497.586777 179.582819 
L 502.526343 179.582819 
L 507.465909 173.953681 
" style="fill:none;stroke:#e377c2;stroke-linecap:square;stroke-width:1.5;"/>
   </g>
   <g id="line2d_18">
    <path clip-path="url(#p4e8aeb93ba)" d="M 72.784091 351.970909 
L 77.723657 316.580763 
L 82.663223 288.140505 
L 87.602789 274.394351 
L 92.542355 266.645794 
L 97.481921 268.206305 
L 102.421488 263.721754 
L 107.361054 258.948618 
L 112.30062 259.1896 
L 117.240186 247.799951 
L 122.179752 247.111677 
L 127.119318 249.330029 
L 132.058884 257.459249 
L 136.99845 258.968639 
L 141.938017 257.398285 
L 146.877583 256.280464 
L 151.817149 258.737954 
L 156.756715 256.635094 
L 161.696281 258.893565 
L 166.635847 262.190409 
L 171.575413 261.566011 
L 176.514979 267.908939 
L 181.454545 263.892157 
L 186.394112 261.992753 
L 191.333678 265.61115 
L 196.273244 270.934659 
L 201.21281 274.526151 
L 206.152376 274.14471 
L 211.091942 277.303431 
L 216.031508 274.855462 
L 220.971074 268.640651 
L 225.91064 270.811542 
L 230.850207 267.42381 
L 235.789773 266.755478 
L 240.729339 264.442763 
L 245.668905 271.941817 
L 250.608471 272.225147 
L 255.548037 273.919644 
L 260.487603 274.799772 
L 265.427169 282.498932 
L 270.366736 287.510654 
L 275.306302 286.868556 
L 280.245868 276.135148 
L 285.185434 277.801921 
L 290.125 279.806461 
L 295.064566 267.794931 
L 300.004132 273.281845 
L 304.943698 272.650611 
L 309.883264 271.690692 
L 314.822831 278.421648 
L 319.762397 282.945617 
L 324.701963 276.689826 
L 329.641529 284.102394 
L 334.581095 292.265161 
L 339.520661 295.459015 
L 344.460227 295.458969 
L 349.399793 295.458969 
L 354.33936 295.459012 
L 359.278926 294.139637 
L 364.218492 301.531587 
L 369.158058 294.916144 
L 374.097624 301.255586 
L 379.03719 309.07531 
L 383.976756 298.272332 
L 388.916322 298.272298 
L 393.855888 296.337538 
L 398.795455 299.415499 
L 403.735021 299.415499 
L 408.674587 299.415499 
L 413.614153 297.656377 
L 418.553719 296.323987 
L 423.493285 296.323983 
L 428.432851 296.863745 
L 433.372417 296.863736 
L 438.311983 296.863745 
L 443.25155 300.06922 
L 448.191116 300.069383 
L 453.130682 303.14872 
L 458.070248 303.148724 
L 463.009814 303.148691 
L 467.94938 301.169697 
L 472.888946 313.098421 
L 477.828512 323.799655 
L 482.768079 323.799655 
L 487.707645 303.39403 
L 492.647211 303.39403 
L 497.586777 303.39403 
L 502.526343 303.39403 
L 507.465909 299.172177 
" style="fill:none;stroke:#7f7f7f;stroke-linecap:square;stroke-width:1.5;"/>
   </g>
   <g id="patch_3">
    <path d="M 51.05 365.56 
L 51.05 66.6 
" style="fill:none;stroke:#000000;stroke-linecap:square;stroke-linejoin:miter;stroke-width:0.8;"/>
   </g>
   <g id="patch_4">
    <path d="M 529.2 365.56 
L 529.2 66.6 
" style="fill:none;stroke:#000000;stroke-linecap:square;stroke-linejoin:miter;stroke-width:0.8;"/>
   </g>
   <g id="patch_5">
    <path d="M 51.05 365.56 
L 529.2 365.56 
" style="fill:none;stroke:#000000;stroke-linecap:square;stroke-linejoin:miter;stroke-width:0.8;"/>
   </g>
   <g id="patch_6">
    <path d="M 51.05 66.6 
L 529.2 66.6 
" style="fill:none;stroke:#000000;stroke-linecap:square;stroke-linejoin:miter;stroke-width:0.8;"/>
   </g>
   <g id="legend_1">
    <g id="patch_7">
     <path d="M 61.55 59.1 
L 518.7 59.1 
Q 521.7 59.1 521.7 56.1 
L 521.7 13.565625 
Q 521.7 10.565625 518.7 10.565625 
L 61.55 10.565625 
Q 58.55 10.565625 58.55 13.565625 
L 58.55 56.1 
Q 58.55 59.1 61.55 59.1 
z
" style="fill:#ffffff;opacity:0.8;stroke:#cccccc;stroke-linejoin:miter;"/>
    </g>
    <g id="line2d_19">
     <path d="M 64.55 22.713281 
L 94.55 22.713281 
" style="fill:none;stroke:#1f77b4;stroke-linecap:square;stroke-width:1.5;"/>
    </g>
    <g id="line2d_20"/>
    <g id="text_13">
     <!-- Stra 1 -->
     <defs>
      <path d="M 53.515625 70.515625 
L 53.515625 60.890625 
Q 47.90625 63.578125 42.921875 64.890625 
Q 37.9375 66.21875 33.296875 66.21875 
Q 25.25 66.21875 20.875 63.09375 
Q 16.5 59.96875 16.5 54.203125 
Q 16.5 49.359375 19.40625 46.890625 
Q 22.3125 44.4375 30.421875 42.921875 
L 36.375 41.703125 
Q 47.40625 39.59375 52.65625 34.296875 
Q 57.90625 29 57.90625 20.125 
Q 57.90625 9.515625 50.796875 4.046875 
Q 43.703125 -1.421875 29.984375 -1.421875 
Q 24.8125 -1.421875 18.96875 -0.25 
Q 13.140625 0.921875 6.890625 3.21875 
L 6.890625 13.375 
Q 12.890625 10.015625 18.65625 8.296875 
Q 24.421875 6.59375 29.984375 6.59375 
Q 38.421875 6.59375 43.015625 9.90625 
Q 47.609375 13.234375 47.609375 19.390625 
Q 47.609375 24.75 44.3125 27.78125 
Q 41.015625 30.8125 33.5 32.328125 
L 27.484375 33.5 
Q 16.453125 35.6875 11.515625 40.375 
Q 6.59375 45.0625 6.59375 53.421875 
Q 6.59375 63.09375 13.40625 68.65625 
Q 20.21875 74.21875 32.171875 74.21875 
Q 37.3125 74.21875 42.625 73.28125 
Q 47.953125 72.359375 53.515625 70.515625 
z
" id="DejaVuSans-83"/>
      <path d="M 18.3125 70.21875 
L 18.3125 54.6875 
L 36.8125 54.6875 
L 36.8125 47.703125 
L 18.3125 47.703125 
L 18.3125 18.015625 
Q 18.3125 11.328125 20.140625 9.421875 
Q 21.96875 7.515625 27.59375 7.515625 
L 36.8125 7.515625 
L 36.8125 0 
L 27.59375 0 
Q 17.1875 0 13.234375 3.875 
Q 9.28125 7.765625 9.28125 18.015625 
L 9.28125 47.703125 
L 2.6875 47.703125 
L 2.6875 54.6875 
L 9.28125 54.6875 
L 9.28125 70.21875 
z
" id="DejaVuSans-116"/>
      <path d="M 41.109375 46.296875 
Q 39.59375 47.171875 37.8125 47.578125 
Q 36.03125 48 33.890625 48 
Q 26.265625 48 22.1875 43.046875 
Q 18.109375 38.09375 18.109375 28.8125 
L 18.109375 0 
L 9.078125 0 
L 9.078125 54.6875 
L 18.109375 54.6875 
L 18.109375 46.1875 
Q 20.953125 51.171875 25.484375 53.578125 
Q 30.03125 56 36.53125 56 
Q 37.453125 56 38.578125 55.875 
Q 39.703125 55.765625 41.0625 55.515625 
z
" id="DejaVuSans-114"/>
      <path d="M 12.40625 8.296875 
L 28.515625 8.296875 
L 28.515625 63.921875 
L 10.984375 60.40625 
L 10.984375 69.390625 
L 28.421875 72.90625 
L 38.28125 72.90625 
L 38.28125 8.296875 
L 54.390625 8.296875 
L 54.390625 0 
L 12.40625 0 
z
" id="DejaVuSans-49"/>
     </defs>
     <g transform="translate(106.55 27.963281)scale(0.15 -0.15)">
      <use xlink:href="#DejaVuSans-83"/>
      <use x="63.476562" xlink:href="#DejaVuSans-116"/>
      <use x="102.685547" xlink:href="#DejaVuSans-114"/>
      <use x="143.798828" xlink:href="#DejaVuSans-97"/>
      <use x="205.078125" xlink:href="#DejaVuSans-32"/>
      <use x="236.865234" xlink:href="#DejaVuSans-49"/>
     </g>
    </g>
    <g id="line2d_21">
     <path d="M 64.55 44.730469 
L 94.55 44.730469 
" style="fill:none;stroke:#ff7f0e;stroke-linecap:square;stroke-width:1.5;"/>
    </g>
    <g id="line2d_22"/>
    <g id="text_14">
     <!-- Stra 2 -->
     <g transform="translate(106.55 49.980469)scale(0.15 -0.15)">
      <use xlink:href="#DejaVuSans-83"/>
      <use x="63.476562" xlink:href="#DejaVuSans-116"/>
      <use x="102.685547" xlink:href="#DejaVuSans-114"/>
      <use x="143.798828" xlink:href="#DejaVuSans-97"/>
      <use x="205.078125" xlink:href="#DejaVuSans-32"/>
      <use x="236.865234" xlink:href="#DejaVuSans-50"/>
     </g>
    </g>
    <g id="line2d_23">
     <path d="M 185.909115 22.713281 
L 215.909115 22.713281 
" style="fill:none;stroke:#2ca02c;stroke-linecap:square;stroke-width:1.5;"/>
    </g>
    <g id="line2d_24"/>
    <g id="text_15">
     <!-- Stra 3 -->
     <defs>
      <path d="M 40.578125 39.3125 
Q 47.65625 37.796875 51.625 33 
Q 55.609375 28.21875 55.609375 21.1875 
Q 55.609375 10.40625 48.1875 4.484375 
Q 40.765625 -1.421875 27.09375 -1.421875 
Q 22.515625 -1.421875 17.65625 -0.515625 
Q 12.796875 0.390625 7.625 2.203125 
L 7.625 11.71875 
Q 11.71875 9.328125 16.59375 8.109375 
Q 21.484375 6.890625 26.8125 6.890625 
Q 36.078125 6.890625 40.9375 10.546875 
Q 45.796875 14.203125 45.796875 21.1875 
Q 45.796875 27.640625 41.28125 31.265625 
Q 36.765625 34.90625 28.71875 34.90625 
L 20.21875 34.90625 
L 20.21875 43.015625 
L 29.109375 43.015625 
Q 36.375 43.015625 40.234375 45.921875 
Q 44.09375 48.828125 44.09375 54.296875 
Q 44.09375 59.90625 40.109375 62.90625 
Q 36.140625 65.921875 28.71875 65.921875 
Q 24.65625 65.921875 20.015625 65.03125 
Q 15.375 64.15625 9.8125 62.3125 
L 9.8125 71.09375 
Q 15.4375 72.65625 20.34375 73.4375 
Q 25.25 74.21875 29.59375 74.21875 
Q 40.828125 74.21875 47.359375 69.109375 
Q 53.90625 64.015625 53.90625 55.328125 
Q 53.90625 49.265625 50.4375 45.09375 
Q 46.96875 40.921875 40.578125 39.3125 
z
" id="DejaVuSans-51"/>
     </defs>
     <g transform="translate(227.909115 27.963281)scale(0.15 -0.15)">
      <use xlink:href="#DejaVuSans-83"/>
      <use x="63.476562" xlink:href="#DejaVuSans-116"/>
      <use x="102.685547" xlink:href="#DejaVuSans-114"/>
      <use x="143.798828" xlink:href="#DejaVuSans-97"/>
      <use x="205.078125" xlink:href="#DejaVuSans-32"/>
      <use x="236.865234" xlink:href="#DejaVuSans-51"/>
     </g>
    </g>
    <g id="line2d_25">
     <path d="M 185.909115 44.730469 
L 215.909115 44.730469 
" style="fill:none;stroke:#d62728;stroke-linecap:square;stroke-width:1.5;"/>
    </g>
    <g id="line2d_26"/>
    <g id="text_16">
     <!-- Stra 4 -->
     <g transform="translate(227.909115 49.980469)scale(0.15 -0.15)">
      <use xlink:href="#DejaVuSans-83"/>
      <use x="63.476562" xlink:href="#DejaVuSans-116"/>
      <use x="102.685547" xlink:href="#DejaVuSans-114"/>
      <use x="143.798828" xlink:href="#DejaVuSans-97"/>
      <use x="205.078125" xlink:href="#DejaVuSans-32"/>
      <use x="236.865234" xlink:href="#DejaVuSans-52"/>
     </g>
    </g>
    <g id="line2d_27">
     <path d="M 307.268229 22.713281 
L 337.268229 22.713281 
" style="fill:none;stroke:#9467bd;stroke-linecap:square;stroke-width:1.5;"/>
    </g>
    <g id="line2d_28"/>
    <g id="text_17">
     <!-- Stra 5 -->
     <defs>
      <path d="M 10.796875 72.90625 
L 49.515625 72.90625 
L 49.515625 64.59375 
L 19.828125 64.59375 
L 19.828125 46.734375 
Q 21.96875 47.46875 24.109375 47.828125 
Q 26.265625 48.1875 28.421875 48.1875 
Q 40.625 48.1875 47.75 41.5 
Q 54.890625 34.8125 54.890625 23.390625 
Q 54.890625 11.625 47.5625 5.09375 
Q 40.234375 -1.421875 26.90625 -1.421875 
Q 22.3125 -1.421875 17.546875 -0.640625 
Q 12.796875 0.140625 7.71875 1.703125 
L 7.71875 11.625 
Q 12.109375 9.234375 16.796875 8.0625 
Q 21.484375 6.890625 26.703125 6.890625 
Q 35.15625 6.890625 40.078125 11.328125 
Q 45.015625 15.765625 45.015625 23.390625 
Q 45.015625 31 40.078125 35.4375 
Q 35.15625 39.890625 26.703125 39.890625 
Q 22.75 39.890625 18.8125 39.015625 
Q 14.890625 38.140625 10.796875 36.28125 
z
" id="DejaVuSans-53"/>
     </defs>
     <g transform="translate(349.268229 27.963281)scale(0.15 -0.15)">
      <use xlink:href="#DejaVuSans-83"/>
      <use x="63.476562" xlink:href="#DejaVuSans-116"/>
      <use x="102.685547" xlink:href="#DejaVuSans-114"/>
      <use x="143.798828" xlink:href="#DejaVuSans-97"/>
      <use x="205.078125" xlink:href="#DejaVuSans-32"/>
      <use x="236.865234" xlink:href="#DejaVuSans-53"/>
     </g>
    </g>
    <g id="line2d_29">
     <path d="M 307.268229 44.730469 
L 337.268229 44.730469 
" style="fill:none;stroke:#8c564b;stroke-linecap:square;stroke-width:1.5;"/>
    </g>
    <g id="line2d_30"/>
    <g id="text_18">
     <!-- Stra 6 -->
     <g transform="translate(349.268229 49.980469)scale(0.15 -0.15)">
      <use xlink:href="#DejaVuSans-83"/>
      <use x="63.476562" xlink:href="#DejaVuSans-116"/>
      <use x="102.685547" xlink:href="#DejaVuSans-114"/>
      <use x="143.798828" xlink:href="#DejaVuSans-97"/>
      <use x="205.078125" xlink:href="#DejaVuSans-32"/>
      <use x="236.865234" xlink:href="#DejaVuSans-54"/>
     </g>
    </g>
    <g id="line2d_31">
     <path d="M 428.627344 22.713281 
L 458.627344 22.713281 
" style="fill:none;stroke:#e377c2;stroke-linecap:square;stroke-width:1.5;"/>
    </g>
    <g id="line2d_32"/>
    <g id="text_19">
     <!-- Stra 7 -->
     <defs>
      <path d="M 8.203125 72.90625 
L 55.078125 72.90625 
L 55.078125 68.703125 
L 28.609375 0 
L 18.3125 0 
L 43.21875 64.59375 
L 8.203125 64.59375 
z
" id="DejaVuSans-55"/>
     </defs>
     <g transform="translate(470.627344 27.963281)scale(0.15 -0.15)">
      <use xlink:href="#DejaVuSans-83"/>
      <use x="63.476562" xlink:href="#DejaVuSans-116"/>
      <use x="102.685547" xlink:href="#DejaVuSans-114"/>
      <use x="143.798828" xlink:href="#DejaVuSans-97"/>
      <use x="205.078125" xlink:href="#DejaVuSans-32"/>
      <use x="236.865234" xlink:href="#DejaVuSans-55"/>
     </g>
    </g>
    <g id="line2d_33">
     <path d="M 428.627344 44.730469 
L 458.627344 44.730469 
" style="fill:none;stroke:#7f7f7f;stroke-linecap:square;stroke-width:1.5;"/>
    </g>
    <g id="line2d_34"/>
    <g id="text_20">
     <!-- Stra 8 -->
     <g transform="translate(470.627344 49.980469)scale(0.15 -0.15)">
      <use xlink:href="#DejaVuSans-83"/>
      <use x="63.476562" xlink:href="#DejaVuSans-116"/>
      <use x="102.685547" xlink:href="#DejaVuSans-114"/>
      <use x="143.798828" xlink:href="#DejaVuSans-97"/>
      <use x="205.078125" xlink:href="#DejaVuSans-32"/>
      <use x="236.865234" xlink:href="#DejaVuSans-56"/>
     </g>
    </g>
   </g>
  </g>
 </g>
 <defs>
  <clipPath id="p4e8aeb93ba">
   <rect height="298.96" width="478.15" x="51.05" y="66.6"/>
  </clipPath>
 </defs>
</svg>
