<?xml version="1.0" encoding="utf-8" standalone="no"?>
<!DOCTYPE svg PUBLIC "-//W3C//DTD SVG 1.1//EN"
  "http://www.w3.org/Graphics/SVG/1.1/DTD/svg11.dtd">
<!-- Created with matplotlib (https://matplotlib.org/) -->
<svg height="432pt" version="1.1" viewBox="0 0 540 432" width="540pt" xmlns="http://www.w3.org/2000/svg" xmlns:xlink="http://www.w3.org/1999/xlink">
 <defs>
  <style type="text/css">
*{stroke-linecap:butt;stroke-linejoin:round;}
  </style>
 </defs>
 <g id="figure_1">
  <g id="patch_1">
   <path d="M 0 432 
L 540 432 
L 540 0 
L 0 0 
z
" style="fill:#ffffff;"/>
  </g>
  <g id="axes_1">
   <g id="patch_2">
    <path d="M 76.43 365.56 
L 529.2 365.56 
L 529.2 66.6 
L 76.43 66.6 
z
" style="fill:#ffffff;"/>
   </g>
   <g id="matplotlib.axis_1">
    <g id="xtick_1">
     <g id="line2d_1">
      <defs>
       <path d="M 0 0 
L 0 3.5 
" id="m5372e2349b" style="stroke:#000000;stroke-width:0.8;"/>
      </defs>
      <g>
       <use style="stroke:#000000;stroke-width:0.8;" x="97.010455" xlink:href="#m5372e2349b" y="365.56"/>
      </g>
     </g>
     <g id="text_1">
      <!-- 0 -->
      <defs>
       <path d="M 31.78125 66.40625 
Q 24.171875 66.40625 20.328125 58.90625 
Q 16.5 51.421875 16.5 36.375 
Q 16.5 21.390625 20.328125 13.890625 
Q 24.171875 6.390625 31.78125 6.390625 
Q 39.453125 6.390625 43.28125 13.890625 
Q 47.125 21.390625 47.125 36.375 
Q 47.125 51.421875 43.28125 58.90625 
Q 39.453125 66.40625 31.78125 66.40625 
z
M 31.78125 74.21875 
Q 44.046875 74.21875 50.515625 64.515625 
Q 56.984375 54.828125 56.984375 36.375 
Q 56.984375 17.96875 50.515625 8.265625 
Q 44.046875 -1.421875 31.78125 -1.421875 
Q 19.53125 -1.421875 13.0625 8.265625 
Q 6.59375 17.96875 6.59375 36.375 
Q 6.59375 54.828125 13.0625 64.515625 
Q 19.53125 74.21875 31.78125 74.21875 
z
" id="DejaVuSans-48"/>
      </defs>
      <g transform="translate(90.647955 387.756875)scale(0.2 -0.2)">
       <use xlink:href="#DejaVuSans-48"/>
      </g>
     </g>
    </g>
    <g id="xtick_2">
     <g id="line2d_2">
      <g>
       <use style="stroke:#000000;stroke-width:0.8;" x="190.557975" xlink:href="#m5372e2349b" y="365.56"/>
      </g>
     </g>
     <g id="text_2">
      <!-- 20 -->
      <defs>
       <path d="M 19.1875 8.296875 
L 53.609375 8.296875 
L 53.609375 0 
L 7.328125 0 
L 7.328125 8.296875 
Q 12.9375 14.109375 22.625 23.890625 
Q 32.328125 33.6875 34.8125 36.53125 
Q 39.546875 41.84375 41.421875 45.53125 
Q 43.3125 49.21875 43.3125 52.78125 
Q 43.3125 58.59375 39.234375 62.25 
Q 35.15625 65.921875 28.609375 65.921875 
Q 23.96875 65.921875 18.8125 64.3125 
Q 13.671875 62.703125 7.8125 59.421875 
L 7.8125 69.390625 
Q 13.765625 71.78125 18.9375 73 
Q 24.125 74.21875 28.421875 74.21875 
Q 39.75 74.21875 46.484375 68.546875 
Q 53.21875 62.890625 53.21875 53.421875 
Q 53.21875 48.921875 51.53125 44.890625 
Q 49.859375 40.875 45.40625 35.40625 
Q 44.1875 33.984375 37.640625 27.21875 
Q 31.109375 20.453125 19.1875 8.296875 
z
" id="DejaVuSans-50"/>
      </defs>
      <g transform="translate(177.832975 387.756875)scale(0.2 -0.2)">
       <use xlink:href="#DejaVuSans-50"/>
       <use x="63.623047" xlink:href="#DejaVuSans-48"/>
      </g>
     </g>
    </g>
    <g id="xtick_3">
     <g id="line2d_3">
      <g>
       <use style="stroke:#000000;stroke-width:0.8;" x="284.105496" xlink:href="#m5372e2349b" y="365.56"/>
      </g>
     </g>
     <g id="text_3">
      <!-- 40 -->
      <defs>
       <path d="M 37.796875 64.3125 
L 12.890625 25.390625 
L 37.796875 25.390625 
z
M 35.203125 72.90625 
L 47.609375 72.90625 
L 47.609375 25.390625 
L 58.015625 25.390625 
L 58.015625 17.1875 
L 47.609375 17.1875 
L 47.609375 0 
L 37.796875 0 
L 37.796875 17.1875 
L 4.890625 17.1875 
L 4.890625 26.703125 
z
" id="DejaVuSans-52"/>
      </defs>
      <g transform="translate(271.380496 387.756875)scale(0.2 -0.2)">
       <use xlink:href="#DejaVuSans-52"/>
       <use x="63.623047" xlink:href="#DejaVuSans-48"/>
      </g>
     </g>
    </g>
    <g id="xtick_4">
     <g id="line2d_4">
      <g>
       <use style="stroke:#000000;stroke-width:0.8;" x="377.653017" xlink:href="#m5372e2349b" y="365.56"/>
      </g>
     </g>
     <g id="text_4">
      <!-- 60 -->
      <defs>
       <path d="M 33.015625 40.375 
Q 26.375 40.375 22.484375 35.828125 
Q 18.609375 31.296875 18.609375 23.390625 
Q 18.609375 15.53125 22.484375 10.953125 
Q 26.375 6.390625 33.015625 6.390625 
Q 39.65625 6.390625 43.53125 10.953125 
Q 47.40625 15.53125 47.40625 23.390625 
Q 47.40625 31.296875 43.53125 35.828125 
Q 39.65625 40.375 33.015625 40.375 
z
M 52.59375 71.296875 
L 52.59375 62.3125 
Q 48.875 64.0625 45.09375 64.984375 
Q 41.3125 65.921875 37.59375 65.921875 
Q 27.828125 65.921875 22.671875 59.328125 
Q 17.53125 52.734375 16.796875 39.40625 
Q 19.671875 43.65625 24.015625 45.921875 
Q 28.375 48.1875 33.59375 48.1875 
Q 44.578125 48.1875 50.953125 41.515625 
Q 57.328125 34.859375 57.328125 23.390625 
Q 57.328125 12.15625 50.6875 5.359375 
Q 44.046875 -1.421875 33.015625 -1.421875 
Q 20.359375 -1.421875 13.671875 8.265625 
Q 6.984375 17.96875 6.984375 36.375 
Q 6.984375 53.65625 15.1875 63.9375 
Q 23.390625 74.21875 37.203125 74.21875 
Q 40.921875 74.21875 44.703125 73.484375 
Q 48.484375 72.75 52.59375 71.296875 
z
" id="DejaVuSans-54"/>
      </defs>
      <g transform="translate(364.928017 387.756875)scale(0.2 -0.2)">
       <use xlink:href="#DejaVuSans-54"/>
       <use x="63.623047" xlink:href="#DejaVuSans-48"/>
      </g>
     </g>
    </g>
    <g id="xtick_5">
     <g id="line2d_5">
      <g>
       <use style="stroke:#000000;stroke-width:0.8;" x="471.200537" xlink:href="#m5372e2349b" y="365.56"/>
      </g>
     </g>
     <g id="text_5">
      <!-- 80 -->
      <defs>
       <path d="M 31.78125 34.625 
Q 24.75 34.625 20.71875 30.859375 
Q 16.703125 27.09375 16.703125 20.515625 
Q 16.703125 13.921875 20.71875 10.15625 
Q 24.75 6.390625 31.78125 6.390625 
Q 38.8125 6.390625 42.859375 10.171875 
Q 46.921875 13.96875 46.921875 20.515625 
Q 46.921875 27.09375 42.890625 30.859375 
Q 38.875 34.625 31.78125 34.625 
z
M 21.921875 38.8125 
Q 15.578125 40.375 12.03125 44.71875 
Q 8.5 49.078125 8.5 55.328125 
Q 8.5 64.0625 14.71875 69.140625 
Q 20.953125 74.21875 31.78125 74.21875 
Q 42.671875 74.21875 48.875 69.140625 
Q 55.078125 64.0625 55.078125 55.328125 
Q 55.078125 49.078125 51.53125 44.71875 
Q 48 40.375 41.703125 38.8125 
Q 48.828125 37.15625 52.796875 32.3125 
Q 56.78125 27.484375 56.78125 20.515625 
Q 56.78125 9.90625 50.3125 4.234375 
Q 43.84375 -1.421875 31.78125 -1.421875 
Q 19.734375 -1.421875 13.25 4.234375 
Q 6.78125 9.90625 6.78125 20.515625 
Q 6.78125 27.484375 10.78125 32.3125 
Q 14.796875 37.15625 21.921875 38.8125 
z
M 18.3125 54.390625 
Q 18.3125 48.734375 21.84375 45.5625 
Q 25.390625 42.390625 31.78125 42.390625 
Q 38.140625 42.390625 41.71875 45.5625 
Q 45.3125 48.734375 45.3125 54.390625 
Q 45.3125 60.0625 41.71875 63.234375 
Q 38.140625 66.40625 31.78125 66.40625 
Q 25.390625 66.40625 21.84375 63.234375 
Q 18.3125 60.0625 18.3125 54.390625 
z
" id="DejaVuSans-56"/>
      </defs>
      <g transform="translate(458.475537 387.756875)scale(0.2 -0.2)">
       <use xlink:href="#DejaVuSans-56"/>
       <use x="63.623047" xlink:href="#DejaVuSans-48"/>
      </g>
     </g>
    </g>
    <g id="text_6">
     <!-- # of games -->
     <defs>
      <path d="M 51.125 44 
L 36.921875 44 
L 32.8125 27.6875 
L 47.125 27.6875 
z
M 43.796875 71.78125 
L 38.71875 51.515625 
L 52.984375 51.515625 
L 58.109375 71.78125 
L 65.921875 71.78125 
L 60.890625 51.515625 
L 76.125 51.515625 
L 76.125 44 
L 58.984375 44 
L 54.984375 27.6875 
L 70.515625 27.6875 
L 70.515625 20.21875 
L 53.078125 20.21875 
L 48 0 
L 40.1875 0 
L 45.21875 20.21875 
L 30.90625 20.21875 
L 25.875 0 
L 18.015625 0 
L 23.09375 20.21875 
L 7.71875 20.21875 
L 7.71875 27.6875 
L 24.90625 27.6875 
L 29 44 
L 13.28125 44 
L 13.28125 51.515625 
L 30.90625 51.515625 
L 35.890625 71.78125 
z
" id="DejaVuSans-35"/>
      <path id="DejaVuSans-32"/>
      <path d="M 30.609375 48.390625 
Q 23.390625 48.390625 19.1875 42.75 
Q 14.984375 37.109375 14.984375 27.296875 
Q 14.984375 17.484375 19.15625 11.84375 
Q 23.34375 6.203125 30.609375 6.203125 
Q 37.796875 6.203125 41.984375 11.859375 
Q 46.1875 17.53125 46.1875 27.296875 
Q 46.1875 37.015625 41.984375 42.703125 
Q 37.796875 48.390625 30.609375 48.390625 
z
M 30.609375 56 
Q 42.328125 56 49.015625 48.375 
Q 55.71875 40.765625 55.71875 27.296875 
Q 55.71875 13.875 49.015625 6.21875 
Q 42.328125 -1.421875 30.609375 -1.421875 
Q 18.84375 -1.421875 12.171875 6.21875 
Q 5.515625 13.875 5.515625 27.296875 
Q 5.515625 40.765625 12.171875 48.375 
Q 18.84375 56 30.609375 56 
z
" id="DejaVuSans-111"/>
      <path d="M 37.109375 75.984375 
L 37.109375 68.5 
L 28.515625 68.5 
Q 23.6875 68.5 21.796875 66.546875 
Q 19.921875 64.59375 19.921875 59.515625 
L 19.921875 54.6875 
L 34.71875 54.6875 
L 34.71875 47.703125 
L 19.921875 47.703125 
L 19.921875 0 
L 10.890625 0 
L 10.890625 47.703125 
L 2.296875 47.703125 
L 2.296875 54.6875 
L 10.890625 54.6875 
L 10.890625 58.5 
Q 10.890625 67.625 15.140625 71.796875 
Q 19.390625 75.984375 28.609375 75.984375 
z
" id="DejaVuSans-102"/>
      <path d="M 45.40625 27.984375 
Q 45.40625 37.75 41.375 43.109375 
Q 37.359375 48.484375 30.078125 48.484375 
Q 22.859375 48.484375 18.828125 43.109375 
Q 14.796875 37.75 14.796875 27.984375 
Q 14.796875 18.265625 18.828125 12.890625 
Q 22.859375 7.515625 30.078125 7.515625 
Q 37.359375 7.515625 41.375 12.890625 
Q 45.40625 18.265625 45.40625 27.984375 
z
M 54.390625 6.78125 
Q 54.390625 -7.171875 48.1875 -13.984375 
Q 42 -20.796875 29.203125 -20.796875 
Q 24.46875 -20.796875 20.265625 -20.09375 
Q 16.0625 -19.390625 12.109375 -17.921875 
L 12.109375 -9.1875 
Q 16.0625 -11.328125 19.921875 -12.34375 
Q 23.78125 -13.375 27.78125 -13.375 
Q 36.625 -13.375 41.015625 -8.765625 
Q 45.40625 -4.15625 45.40625 5.171875 
L 45.40625 9.625 
Q 42.625 4.78125 38.28125 2.390625 
Q 33.9375 0 27.875 0 
Q 17.828125 0 11.671875 7.65625 
Q 5.515625 15.328125 5.515625 27.984375 
Q 5.515625 40.671875 11.671875 48.328125 
Q 17.828125 56 27.875 56 
Q 33.9375 56 38.28125 53.609375 
Q 42.625 51.21875 45.40625 46.390625 
L 45.40625 54.6875 
L 54.390625 54.6875 
z
" id="DejaVuSans-103"/>
      <path d="M 34.28125 27.484375 
Q 23.390625 27.484375 19.1875 25 
Q 14.984375 22.515625 14.984375 16.5 
Q 14.984375 11.71875 18.140625 8.90625 
Q 21.296875 6.109375 26.703125 6.109375 
Q 34.1875 6.109375 38.703125 11.40625 
Q 43.21875 16.703125 43.21875 25.484375 
L 43.21875 27.484375 
z
M 52.203125 31.203125 
L 52.203125 0 
L 43.21875 0 
L 43.21875 8.296875 
Q 40.140625 3.328125 35.546875 0.953125 
Q 30.953125 -1.421875 24.3125 -1.421875 
Q 15.921875 -1.421875 10.953125 3.296875 
Q 6 8.015625 6 15.921875 
Q 6 25.140625 12.171875 29.828125 
Q 18.359375 34.515625 30.609375 34.515625 
L 43.21875 34.515625 
L 43.21875 35.40625 
Q 43.21875 41.609375 39.140625 45 
Q 35.0625 48.390625 27.6875 48.390625 
Q 23 48.390625 18.546875 47.265625 
Q 14.109375 46.140625 10.015625 43.890625 
L 10.015625 52.203125 
Q 14.9375 54.109375 19.578125 55.046875 
Q 24.21875 56 28.609375 56 
Q 40.484375 56 46.34375 49.84375 
Q 52.203125 43.703125 52.203125 31.203125 
z
" id="DejaVuSans-97"/>
      <path d="M 52 44.1875 
Q 55.375 50.25 60.0625 53.125 
Q 64.75 56 71.09375 56 
Q 79.640625 56 84.28125 50.015625 
Q 88.921875 44.046875 88.921875 33.015625 
L 88.921875 0 
L 79.890625 0 
L 79.890625 32.71875 
Q 79.890625 40.578125 77.09375 44.375 
Q 74.3125 48.1875 68.609375 48.1875 
Q 61.625 48.1875 57.5625 43.546875 
Q 53.515625 38.921875 53.515625 30.90625 
L 53.515625 0 
L 44.484375 0 
L 44.484375 32.71875 
Q 44.484375 40.625 41.703125 44.40625 
Q 38.921875 48.1875 33.109375 48.1875 
Q 26.21875 48.1875 22.15625 43.53125 
Q 18.109375 38.875 18.109375 30.90625 
L 18.109375 0 
L 9.078125 0 
L 9.078125 54.6875 
L 18.109375 54.6875 
L 18.109375 46.1875 
Q 21.1875 51.21875 25.484375 53.609375 
Q 29.78125 56 35.6875 56 
Q 41.65625 56 45.828125 52.96875 
Q 50 49.953125 52 44.1875 
z
" id="DejaVuSans-109"/>
      <path d="M 56.203125 29.59375 
L 56.203125 25.203125 
L 14.890625 25.203125 
Q 15.484375 15.921875 20.484375 11.0625 
Q 25.484375 6.203125 34.421875 6.203125 
Q 39.59375 6.203125 44.453125 7.46875 
Q 49.3125 8.734375 54.109375 11.28125 
L 54.109375 2.78125 
Q 49.265625 0.734375 44.1875 -0.34375 
Q 39.109375 -1.421875 33.890625 -1.421875 
Q 20.796875 -1.421875 13.15625 6.1875 
Q 5.515625 13.8125 5.515625 26.8125 
Q 5.515625 40.234375 12.765625 48.109375 
Q 20.015625 56 32.328125 56 
Q 43.359375 56 49.78125 48.890625 
Q 56.203125 41.796875 56.203125 29.59375 
z
M 47.21875 32.234375 
Q 47.125 39.59375 43.09375 43.984375 
Q 39.0625 48.390625 32.421875 48.390625 
Q 24.90625 48.390625 20.390625 44.140625 
Q 15.875 39.890625 15.1875 32.171875 
z
" id="DejaVuSans-101"/>
      <path d="M 44.28125 53.078125 
L 44.28125 44.578125 
Q 40.484375 46.53125 36.375 47.5 
Q 32.28125 48.484375 27.875 48.484375 
Q 21.1875 48.484375 17.84375 46.4375 
Q 14.5 44.390625 14.5 40.28125 
Q 14.5 37.15625 16.890625 35.375 
Q 19.28125 33.59375 26.515625 31.984375 
L 29.59375 31.296875 
Q 39.15625 29.25 43.1875 25.515625 
Q 47.21875 21.78125 47.21875 15.09375 
Q 47.21875 7.46875 41.1875 3.015625 
Q 35.15625 -1.421875 24.609375 -1.421875 
Q 20.21875 -1.421875 15.453125 -0.5625 
Q 10.6875 0.296875 5.421875 2 
L 5.421875 11.28125 
Q 10.40625 8.6875 15.234375 7.390625 
Q 20.0625 6.109375 24.8125 6.109375 
Q 31.15625 6.109375 34.5625 8.28125 
Q 37.984375 10.453125 37.984375 14.40625 
Q 37.984375 18.0625 35.515625 20.015625 
Q 33.0625 21.96875 24.703125 23.78125 
L 21.578125 24.515625 
Q 13.234375 26.265625 9.515625 29.90625 
Q 5.8125 33.546875 5.8125 39.890625 
Q 5.8125 47.609375 11.28125 51.796875 
Q 16.75 56 26.8125 56 
Q 31.78125 56 36.171875 55.265625 
Q 40.578125 54.546875 44.28125 53.078125 
z
" id="DejaVuSans-115"/>
     </defs>
     <g transform="translate(230.371641 414.912344)scale(0.25 -0.25)">
      <use xlink:href="#DejaVuSans-35"/>
      <use x="83.789062" xlink:href="#DejaVuSans-32"/>
      <use x="115.576172" xlink:href="#DejaVuSans-111"/>
      <use x="176.757812" xlink:href="#DejaVuSans-102"/>
      <use x="211.962891" xlink:href="#DejaVuSans-32"/>
      <use x="243.75" xlink:href="#DejaVuSans-103"/>
      <use x="307.226562" xlink:href="#DejaVuSans-97"/>
      <use x="368.505859" xlink:href="#DejaVuSans-109"/>
      <use x="465.917969" xlink:href="#DejaVuSans-101"/>
      <use x="527.441406" xlink:href="#DejaVuSans-115"/>
     </g>
    </g>
   </g>
   <g id="matplotlib.axis_2">
    <g id="ytick_1">
     <g id="line2d_6">
      <defs>
       <path d="M 0 0 
L -3.5 0 
" id="md5b8fb3ff1" style="stroke:#000000;stroke-width:0.8;"/>
      </defs>
      <g>
       <use style="stroke:#000000;stroke-width:0.8;" x="76.43" xlink:href="#md5b8fb3ff1" y="351.970909"/>
      </g>
     </g>
     <g id="text_7">
      <!-- 0 -->
      <g transform="translate(56.705 359.569347)scale(0.2 -0.2)">
       <use xlink:href="#DejaVuSans-48"/>
      </g>
     </g>
    </g>
    <g id="ytick_2">
     <g id="line2d_7">
      <g>
       <use style="stroke:#000000;stroke-width:0.8;" x="76.43" xlink:href="#md5b8fb3ff1" y="300.202944"/>
      </g>
     </g>
     <g id="text_8">
      <!-- 20 -->
      <g transform="translate(43.98 307.801381)scale(0.2 -0.2)">
       <use xlink:href="#DejaVuSans-50"/>
       <use x="63.623047" xlink:href="#DejaVuSans-48"/>
      </g>
     </g>
    </g>
    <g id="ytick_3">
     <g id="line2d_8">
      <g>
       <use style="stroke:#000000;stroke-width:0.8;" x="76.43" xlink:href="#md5b8fb3ff1" y="248.434978"/>
      </g>
     </g>
     <g id="text_9">
      <!-- 40 -->
      <g transform="translate(43.98 256.033416)scale(0.2 -0.2)">
       <use xlink:href="#DejaVuSans-52"/>
       <use x="63.623047" xlink:href="#DejaVuSans-48"/>
      </g>
     </g>
    </g>
    <g id="ytick_4">
     <g id="line2d_9">
      <g>
       <use style="stroke:#000000;stroke-width:0.8;" x="76.43" xlink:href="#md5b8fb3ff1" y="196.667013"/>
      </g>
     </g>
     <g id="text_10">
      <!-- 60 -->
      <g transform="translate(43.98 204.26545)scale(0.2 -0.2)">
       <use xlink:href="#DejaVuSans-54"/>
       <use x="63.623047" xlink:href="#DejaVuSans-48"/>
      </g>
     </g>
    </g>
    <g id="ytick_5">
     <g id="line2d_10">
      <g>
       <use style="stroke:#000000;stroke-width:0.8;" x="76.43" xlink:href="#md5b8fb3ff1" y="144.899048"/>
      </g>
     </g>
     <g id="text_11">
      <!-- 80 -->
      <g transform="translate(43.98 152.497485)scale(0.2 -0.2)">
       <use xlink:href="#DejaVuSans-56"/>
       <use x="63.623047" xlink:href="#DejaVuSans-48"/>
      </g>
     </g>
    </g>
    <g id="ytick_6">
     <g id="line2d_11">
      <g>
       <use style="stroke:#000000;stroke-width:0.8;" x="76.43" xlink:href="#md5b8fb3ff1" y="93.131082"/>
      </g>
     </g>
     <g id="text_12">
      <!-- 100 -->
      <defs>
       <path d="M 12.40625 8.296875 
L 28.515625 8.296875 
L 28.515625 63.921875 
L 10.984375 60.40625 
L 10.984375 69.390625 
L 28.421875 72.90625 
L 38.28125 72.90625 
L 38.28125 8.296875 
L 54.390625 8.296875 
L 54.390625 0 
L 12.40625 0 
z
" id="DejaVuSans-49"/>
      </defs>
      <g transform="translate(31.255 100.72952)scale(0.2 -0.2)">
       <use xlink:href="#DejaVuSans-49"/>
       <use x="63.623047" xlink:href="#DejaVuSans-48"/>
       <use x="127.246094" xlink:href="#DejaVuSans-48"/>
      </g>
     </g>
    </g>
    <g id="text_13">
     <!-- Number of Attackers in CKC -->
     <defs>
      <path d="M 9.8125 72.90625 
L 23.09375 72.90625 
L 55.421875 11.921875 
L 55.421875 72.90625 
L 64.984375 72.90625 
L 64.984375 0 
L 51.703125 0 
L 19.390625 60.984375 
L 19.390625 0 
L 9.8125 0 
z
" id="DejaVuSans-78"/>
      <path d="M 8.5 21.578125 
L 8.5 54.6875 
L 17.484375 54.6875 
L 17.484375 21.921875 
Q 17.484375 14.15625 20.5 10.265625 
Q 23.53125 6.390625 29.59375 6.390625 
Q 36.859375 6.390625 41.078125 11.03125 
Q 45.3125 15.671875 45.3125 23.6875 
L 45.3125 54.6875 
L 54.296875 54.6875 
L 54.296875 0 
L 45.3125 0 
L 45.3125 8.40625 
Q 42.046875 3.421875 37.71875 1 
Q 33.40625 -1.421875 27.6875 -1.421875 
Q 18.265625 -1.421875 13.375 4.4375 
Q 8.5 10.296875 8.5 21.578125 
z
M 31.109375 56 
z
" id="DejaVuSans-117"/>
      <path d="M 48.6875 27.296875 
Q 48.6875 37.203125 44.609375 42.84375 
Q 40.53125 48.484375 33.40625 48.484375 
Q 26.265625 48.484375 22.1875 42.84375 
Q 18.109375 37.203125 18.109375 27.296875 
Q 18.109375 17.390625 22.1875 11.75 
Q 26.265625 6.109375 33.40625 6.109375 
Q 40.53125 6.109375 44.609375 11.75 
Q 48.6875 17.390625 48.6875 27.296875 
z
M 18.109375 46.390625 
Q 20.953125 51.265625 25.265625 53.625 
Q 29.59375 56 35.59375 56 
Q 45.5625 56 51.78125 48.09375 
Q 58.015625 40.1875 58.015625 27.296875 
Q 58.015625 14.40625 51.78125 6.484375 
Q 45.5625 -1.421875 35.59375 -1.421875 
Q 29.59375 -1.421875 25.265625 0.953125 
Q 20.953125 3.328125 18.109375 8.203125 
L 18.109375 0 
L 9.078125 0 
L 9.078125 75.984375 
L 18.109375 75.984375 
z
" id="DejaVuSans-98"/>
      <path d="M 41.109375 46.296875 
Q 39.59375 47.171875 37.8125 47.578125 
Q 36.03125 48 33.890625 48 
Q 26.265625 48 22.1875 43.046875 
Q 18.109375 38.09375 18.109375 28.8125 
L 18.109375 0 
L 9.078125 0 
L 9.078125 54.6875 
L 18.109375 54.6875 
L 18.109375 46.1875 
Q 20.953125 51.171875 25.484375 53.578125 
Q 30.03125 56 36.53125 56 
Q 37.453125 56 38.578125 55.875 
Q 39.703125 55.765625 41.0625 55.515625 
z
" id="DejaVuSans-114"/>
      <path d="M 34.1875 63.1875 
L 20.796875 26.90625 
L 47.609375 26.90625 
z
M 28.609375 72.90625 
L 39.796875 72.90625 
L 67.578125 0 
L 57.328125 0 
L 50.6875 18.703125 
L 17.828125 18.703125 
L 11.1875 0 
L 0.78125 0 
z
" id="DejaVuSans-65"/>
      <path d="M 18.3125 70.21875 
L 18.3125 54.6875 
L 36.8125 54.6875 
L 36.8125 47.703125 
L 18.3125 47.703125 
L 18.3125 18.015625 
Q 18.3125 11.328125 20.140625 9.421875 
Q 21.96875 7.515625 27.59375 7.515625 
L 36.8125 7.515625 
L 36.8125 0 
L 27.59375 0 
Q 17.1875 0 13.234375 3.875 
Q 9.28125 7.765625 9.28125 18.015625 
L 9.28125 47.703125 
L 2.6875 47.703125 
L 2.6875 54.6875 
L 9.28125 54.6875 
L 9.28125 70.21875 
z
" id="DejaVuSans-116"/>
      <path d="M 48.78125 52.59375 
L 48.78125 44.1875 
Q 44.96875 46.296875 41.140625 47.34375 
Q 37.3125 48.390625 33.40625 48.390625 
Q 24.65625 48.390625 19.8125 42.84375 
Q 14.984375 37.3125 14.984375 27.296875 
Q 14.984375 17.28125 19.8125 11.734375 
Q 24.65625 6.203125 33.40625 6.203125 
Q 37.3125 6.203125 41.140625 7.25 
Q 44.96875 8.296875 48.78125 10.40625 
L 48.78125 2.09375 
Q 45.015625 0.34375 40.984375 -0.53125 
Q 36.96875 -1.421875 32.421875 -1.421875 
Q 20.0625 -1.421875 12.78125 6.34375 
Q 5.515625 14.109375 5.515625 27.296875 
Q 5.515625 40.671875 12.859375 48.328125 
Q 20.21875 56 33.015625 56 
Q 37.15625 56 41.109375 55.140625 
Q 45.0625 54.296875 48.78125 52.59375 
z
" id="DejaVuSans-99"/>
      <path d="M 9.078125 75.984375 
L 18.109375 75.984375 
L 18.109375 31.109375 
L 44.921875 54.6875 
L 56.390625 54.6875 
L 27.390625 29.109375 
L 57.625 0 
L 45.90625 0 
L 18.109375 26.703125 
L 18.109375 0 
L 9.078125 0 
z
" id="DejaVuSans-107"/>
      <path d="M 9.421875 54.6875 
L 18.40625 54.6875 
L 18.40625 0 
L 9.421875 0 
z
M 9.421875 75.984375 
L 18.40625 75.984375 
L 18.40625 64.59375 
L 9.421875 64.59375 
z
" id="DejaVuSans-105"/>
      <path d="M 54.890625 33.015625 
L 54.890625 0 
L 45.90625 0 
L 45.90625 32.71875 
Q 45.90625 40.484375 42.875 44.328125 
Q 39.84375 48.1875 33.796875 48.1875 
Q 26.515625 48.1875 22.3125 43.546875 
Q 18.109375 38.921875 18.109375 30.90625 
L 18.109375 0 
L 9.078125 0 
L 9.078125 54.6875 
L 18.109375 54.6875 
L 18.109375 46.1875 
Q 21.34375 51.125 25.703125 53.5625 
Q 30.078125 56 35.796875 56 
Q 45.21875 56 50.046875 50.171875 
Q 54.890625 44.34375 54.890625 33.015625 
z
" id="DejaVuSans-110"/>
      <path d="M 64.40625 67.28125 
L 64.40625 56.890625 
Q 59.421875 61.53125 53.78125 63.8125 
Q 48.140625 66.109375 41.796875 66.109375 
Q 29.296875 66.109375 22.65625 58.46875 
Q 16.015625 50.828125 16.015625 36.375 
Q 16.015625 21.96875 22.65625 14.328125 
Q 29.296875 6.6875 41.796875 6.6875 
Q 48.140625 6.6875 53.78125 8.984375 
Q 59.421875 11.28125 64.40625 15.921875 
L 64.40625 5.609375 
Q 59.234375 2.09375 53.4375 0.328125 
Q 47.65625 -1.421875 41.21875 -1.421875 
Q 24.65625 -1.421875 15.125 8.703125 
Q 5.609375 18.84375 5.609375 36.375 
Q 5.609375 53.953125 15.125 64.078125 
Q 24.65625 74.21875 41.21875 74.21875 
Q 47.75 74.21875 53.53125 72.484375 
Q 59.328125 70.75 64.40625 67.28125 
z
" id="DejaVuSans-67"/>
      <path d="M 9.8125 72.90625 
L 19.671875 72.90625 
L 19.671875 42.09375 
L 52.390625 72.90625 
L 65.09375 72.90625 
L 28.90625 38.921875 
L 67.671875 0 
L 54.6875 0 
L 19.671875 35.109375 
L 19.671875 0 
L 9.8125 0 
z
" id="DejaVuSans-75"/>
     </defs>
     <g transform="translate(23.788854 332.513594)rotate(-90)scale(0.166667 -0.166667)">
      <use xlink:href="#DejaVuSans-78"/>
      <use x="74.804688" xlink:href="#DejaVuSans-117"/>
      <use x="138.183594" xlink:href="#DejaVuSans-109"/>
      <use x="235.595703" xlink:href="#DejaVuSans-98"/>
      <use x="299.072266" xlink:href="#DejaVuSans-101"/>
      <use x="360.595703" xlink:href="#DejaVuSans-114"/>
      <use x="401.708984" xlink:href="#DejaVuSans-32"/>
      <use x="433.496094" xlink:href="#DejaVuSans-111"/>
      <use x="494.677734" xlink:href="#DejaVuSans-102"/>
      <use x="529.882812" xlink:href="#DejaVuSans-32"/>
      <use x="561.669922" xlink:href="#DejaVuSans-65"/>
      <use x="630.0625" xlink:href="#DejaVuSans-116"/>
      <use x="669.271484" xlink:href="#DejaVuSans-116"/>
      <use x="708.480469" xlink:href="#DejaVuSans-97"/>
      <use x="769.759766" xlink:href="#DejaVuSans-99"/>
      <use x="824.740234" xlink:href="#DejaVuSans-107"/>
      <use x="882.603516" xlink:href="#DejaVuSans-101"/>
      <use x="944.126953" xlink:href="#DejaVuSans-114"/>
      <use x="985.240234" xlink:href="#DejaVuSans-115"/>
      <use x="1037.339844" xlink:href="#DejaVuSans-32"/>
      <use x="1069.126953" xlink:href="#DejaVuSans-105"/>
      <use x="1096.910156" xlink:href="#DejaVuSans-110"/>
      <use x="1160.289062" xlink:href="#DejaVuSans-32"/>
      <use x="1192.076172" xlink:href="#DejaVuSans-67"/>
      <use x="1261.900391" xlink:href="#DejaVuSans-75"/>
      <use x="1327.398438" xlink:href="#DejaVuSans-67"/>
     </g>
    </g>
   </g>
   <g id="line2d_12">
    <path clip-path="url(#p6917a63d28)" d="M 97.010455 93.131082 
L 101.687831 80.189091 
L 106.365207 85.365887 
L 111.042583 93.131082 
L 115.719959 87.954286 
L 120.397335 82.777489 
L 125.074711 82.777489 
L 129.752087 100.896277 
L 134.429463 87.954286 
L 139.106839 108.661472 
L 143.784215 98.307879 
L 148.461591 95.719481 
L 153.138967 90.542684 
L 157.816343 90.542684 
L 162.493719 100.896277 
L 167.171095 103.484675 
L 171.848471 144.899048 
L 176.525847 152.664242 
L 181.203223 170.78303 
L 185.880599 157.841039 
L 190.557975 165.606234 
L 195.235351 175.959827 
L 199.912727 199.255411 
L 204.590103 204.432208 
L 209.267479 212.197403 
L 213.944855 194.078615 
L 218.622231 196.667013 
L 223.299607 209.609004 
L 227.976983 219.962597 
L 232.65436 230.31619 
L 237.331736 256.200173 
L 242.009112 263.965368 
L 246.686488 266.553766 
L 251.363864 266.553766 
L 256.04124 261.37697 
L 260.718616 253.611775 
L 265.395992 269.142165 
L 270.073368 276.907359 
L 274.750744 279.495758 
L 279.42812 279.495758 
L 284.105496 276.907359 
L 288.782872 279.495758 
L 293.460248 284.672554 
L 298.137624 282.084156 
L 302.815 282.084156 
L 307.492376 284.672554 
L 312.169752 289.849351 
L 316.847128 302.791342 
L 321.524504 300.202944 
L 326.20188 310.556537 
L 330.879256 315.733333 
L 335.556632 323.498528 
L 340.234008 333.852121 
L 344.911384 336.440519 
L 349.58876 346.794113 
L 354.266136 346.794113 
L 358.943512 346.794113 
L 363.620888 346.794113 
L 368.298264 346.794113 
L 372.97564 349.382511 
L 377.653017 349.382511 
L 382.330393 344.205714 
L 387.007769 344.205714 
L 391.685145 344.205714 
L 396.362521 344.205714 
L 401.039897 344.205714 
L 405.717273 346.794113 
L 410.394649 346.794113 
L 415.072025 346.794113 
L 419.749401 346.794113 
L 424.426777 346.794113 
L 429.104153 346.794113 
L 433.781529 344.205714 
L 438.458905 344.205714 
L 443.136281 346.794113 
L 447.813657 344.205714 
L 452.491033 344.205714 
L 457.168409 346.794113 
L 461.845785 346.794113 
L 466.523161 346.794113 
L 471.200537 346.794113 
L 475.877913 344.205714 
L 480.555289 346.794113 
L 485.232665 346.794113 
L 489.910041 346.794113 
L 494.587417 346.794113 
L 499.264793 346.794113 
L 503.942169 346.794113 
L 508.619545 346.794113 
" style="fill:none;stroke:#1f77b4;stroke-linecap:square;stroke-width:1.5;"/>
   </g>
   <g id="line2d_13">
    <path clip-path="url(#p6917a63d28)" d="M 97.010455 351.970909 
L 101.687831 326.086926 
L 106.365207 292.437749 
L 111.042583 263.965368 
L 115.719959 251.023377 
L 120.397335 240.669784 
L 125.074711 212.197403 
L 129.752087 181.136623 
L 134.429463 181.136623 
L 139.106839 163.017835 
L 143.784215 160.429437 
L 148.461591 160.429437 
L 153.138967 163.017835 
L 157.816343 163.017835 
L 162.493719 157.841039 
L 167.171095 152.664242 
L 171.848471 121.603463 
L 176.525847 124.191861 
L 181.203223 131.957056 
L 185.880599 137.133853 
L 190.557975 134.545455 
L 195.235351 113.838268 
L 199.912727 121.603463 
L 204.590103 134.545455 
L 209.267479 144.899048 
L 213.944855 157.841039 
L 218.622231 152.664242 
L 223.299607 160.429437 
L 227.976983 155.252641 
L 232.65436 188.901818 
L 237.331736 194.078615 
L 242.009112 204.432208 
L 246.686488 217.374199 
L 251.363864 222.550996 
L 256.04124 232.904589 
L 260.718616 235.492987 
L 265.395992 253.611775 
L 270.073368 253.611775 
L 274.750744 258.788571 
L 279.42812 271.730563 
L 284.105496 274.318961 
L 288.782872 271.730563 
L 293.460248 289.849351 
L 298.137624 287.260952 
L 302.815 282.084156 
L 307.492376 279.495758 
L 312.169752 279.495758 
L 316.847128 295.026147 
L 321.524504 289.849351 
L 326.20188 284.672554 
L 330.879256 282.084156 
L 335.556632 287.260952 
L 340.234008 287.260952 
L 344.911384 300.202944 
L 349.58876 320.91013 
L 354.266136 326.086926 
L 358.943512 326.086926 
L 363.620888 326.086926 
L 368.298264 326.086926 
L 372.97564 328.675325 
L 377.653017 333.852121 
L 382.330393 339.028918 
L 387.007769 339.028918 
L 391.685145 339.028918 
L 396.362521 339.028918 
L 401.039897 339.028918 
L 405.717273 333.852121 
L 410.394649 333.852121 
L 415.072025 333.852121 
L 419.749401 333.852121 
L 424.426777 336.440519 
L 429.104153 336.440519 
L 433.781529 336.440519 
L 438.458905 336.440519 
L 443.136281 333.852121 
L 447.813657 333.852121 
L 452.491033 333.852121 
L 457.168409 331.263723 
L 461.845785 331.263723 
L 466.523161 331.263723 
L 471.200537 331.263723 
L 475.877913 331.263723 
L 480.555289 341.617316 
L 485.232665 341.617316 
L 489.910041 341.617316 
L 494.587417 341.617316 
L 499.264793 344.205714 
L 503.942169 344.205714 
L 508.619545 344.205714 
" style="fill:none;stroke:#ff7f0e;stroke-linecap:square;stroke-width:1.5;"/>
   </g>
   <g id="line2d_14">
    <path clip-path="url(#p6917a63d28)" d="M 97.010455 351.970909 
L 101.687831 351.970909 
L 106.365207 351.970909 
L 111.042583 346.794113 
L 115.719959 341.617316 
L 120.397335 326.086926 
L 125.074711 326.086926 
L 129.752087 323.498528 
L 134.429463 313.144935 
L 139.106839 297.614545 
L 143.784215 297.614545 
L 148.461591 274.318961 
L 153.138967 266.553766 
L 157.816343 256.200173 
L 162.493719 271.730563 
L 167.171095 274.318961 
L 171.848471 269.142165 
L 176.525847 269.142165 
L 181.203223 276.907359 
L 185.880599 287.260952 
L 190.557975 276.907359 
L 195.235351 289.849351 
L 199.912727 295.026147 
L 204.590103 289.849351 
L 209.267479 292.437749 
L 213.944855 300.202944 
L 218.622231 300.202944 
L 223.299607 305.37974 
L 227.976983 302.791342 
L 232.65436 305.37974 
L 237.331736 313.144935 
L 242.009112 307.968139 
L 246.686488 305.37974 
L 251.363864 307.968139 
L 256.04124 307.968139 
L 260.718616 320.91013 
L 265.395992 331.263723 
L 270.073368 331.263723 
L 274.750744 333.852121 
L 279.42812 331.263723 
L 284.105496 333.852121 
L 288.782872 333.852121 
L 293.460248 339.028918 
L 298.137624 339.028918 
L 302.815 339.028918 
L 307.492376 339.028918 
L 312.169752 341.617316 
L 316.847128 336.440519 
L 321.524504 346.794113 
L 326.20188 344.205714 
L 330.879256 341.617316 
L 335.556632 336.440519 
L 340.234008 339.028918 
L 344.911384 339.028918 
L 349.58876 333.852121 
L 354.266136 336.440519 
L 358.943512 341.617316 
L 363.620888 341.617316 
L 368.298264 344.205714 
L 372.97564 346.794113 
L 377.653017 346.794113 
L 382.330393 341.617316 
L 387.007769 344.205714 
L 391.685145 344.205714 
L 396.362521 344.205714 
L 401.039897 346.794113 
L 405.717273 346.794113 
L 410.394649 346.794113 
L 415.072025 349.382511 
L 419.749401 349.382511 
L 424.426777 346.794113 
L 429.104153 346.794113 
L 433.781529 346.794113 
L 438.458905 346.794113 
L 443.136281 346.794113 
L 447.813657 349.382511 
L 452.491033 349.382511 
L 457.168409 349.382511 
L 461.845785 349.382511 
L 466.523161 349.382511 
L 471.200537 349.382511 
L 475.877913 349.382511 
L 480.555289 349.382511 
L 485.232665 349.382511 
L 489.910041 351.970909 
L 494.587417 351.970909 
L 499.264793 349.382511 
L 503.942169 349.382511 
L 508.619545 351.970909 
" style="fill:none;stroke:#2ca02c;stroke-linecap:square;stroke-width:1.5;"/>
   </g>
   <g id="line2d_15">
    <path clip-path="url(#p6917a63d28)" d="M 97.010455 351.970909 
L 101.687831 351.970909 
L 106.365207 351.970909 
L 111.042583 351.970909 
L 115.719959 351.970909 
L 120.397335 351.970909 
L 125.074711 346.794113 
L 129.752087 341.617316 
L 134.429463 339.028918 
L 139.106839 346.794113 
L 143.784215 341.617316 
L 148.461591 346.794113 
L 153.138967 331.263723 
L 157.816343 326.086926 
L 162.493719 328.675325 
L 167.171095 326.086926 
L 171.848471 331.263723 
L 176.525847 323.498528 
L 181.203223 318.321732 
L 185.880599 323.498528 
L 190.557975 333.852121 
L 195.235351 326.086926 
L 199.912727 320.91013 
L 204.590103 320.91013 
L 209.267479 328.675325 
L 213.944855 320.91013 
L 218.622231 318.321732 
L 223.299607 326.086926 
L 227.976983 336.440519 
L 232.65436 331.263723 
L 237.331736 336.440519 
L 242.009112 346.794113 
L 246.686488 344.205714 
L 251.363864 341.617316 
L 256.04124 344.205714 
L 260.718616 331.263723 
L 265.395992 339.028918 
L 270.073368 344.205714 
L 274.750744 344.205714 
L 279.42812 344.205714 
L 284.105496 346.794113 
L 288.782872 344.205714 
L 293.460248 349.382511 
L 298.137624 351.970909 
L 302.815 349.382511 
L 307.492376 349.382511 
L 312.169752 351.970909 
L 316.847128 351.970909 
L 321.524504 344.205714 
L 326.20188 351.970909 
L 330.879256 351.970909 
L 335.556632 351.970909 
L 340.234008 349.382511 
L 344.911384 351.970909 
L 349.58876 351.970909 
L 354.266136 344.205714 
L 358.943512 339.028918 
L 363.620888 349.382511 
L 368.298264 349.382511 
L 372.97564 346.794113 
L 377.653017 349.382511 
L 382.330393 349.382511 
L 387.007769 346.794113 
L 391.685145 351.970909 
L 396.362521 351.970909 
L 401.039897 349.382511 
L 405.717273 349.382511 
L 410.394649 349.382511 
L 415.072025 346.794113 
L 419.749401 346.794113 
L 424.426777 346.794113 
L 429.104153 346.794113 
L 433.781529 346.794113 
L 438.458905 349.382511 
L 443.136281 349.382511 
L 447.813657 346.794113 
L 452.491033 346.794113 
L 457.168409 346.794113 
L 461.845785 349.382511 
L 466.523161 349.382511 
L 471.200537 349.382511 
L 475.877913 349.382511 
L 480.555289 351.970909 
L 485.232665 351.970909 
L 489.910041 349.382511 
L 494.587417 349.382511 
L 499.264793 349.382511 
L 503.942169 349.382511 
L 508.619545 346.794113 
" style="fill:none;stroke:#d62728;stroke-linecap:square;stroke-width:1.5;"/>
   </g>
   <g id="line2d_16">
    <path clip-path="url(#p6917a63d28)" d="M 97.010455 351.970909 
L 101.687831 351.970909 
L 106.365207 351.970909 
L 111.042583 351.970909 
L 115.719959 351.970909 
L 120.397335 351.970909 
L 125.074711 351.970909 
L 129.752087 349.382511 
L 134.429463 344.205714 
L 139.106839 339.028918 
L 143.784215 341.617316 
L 148.461591 341.617316 
L 153.138967 349.382511 
L 157.816343 349.382511 
L 162.493719 336.440519 
L 167.171095 336.440519 
L 171.848471 333.852121 
L 176.525847 331.263723 
L 181.203223 336.440519 
L 185.880599 323.498528 
L 190.557975 328.675325 
L 195.235351 326.086926 
L 199.912727 333.852121 
L 204.590103 333.852121 
L 209.267479 323.498528 
L 213.944855 323.498528 
L 218.622231 331.263723 
L 223.299607 331.263723 
L 227.976983 331.263723 
L 232.65436 333.852121 
L 237.331736 331.263723 
L 242.009112 331.263723 
L 246.686488 339.028918 
L 251.363864 341.617316 
L 256.04124 339.028918 
L 260.718616 346.794113 
L 265.395992 341.617316 
L 270.073368 336.440519 
L 274.750744 336.440519 
L 279.42812 333.852121 
L 284.105496 339.028918 
L 288.782872 341.617316 
L 293.460248 341.617316 
L 298.137624 341.617316 
L 302.815 344.205714 
L 307.492376 344.205714 
L 312.169752 341.617316 
L 316.847128 344.205714 
L 321.524504 346.794113 
L 326.20188 341.617316 
L 330.879256 344.205714 
L 335.556632 344.205714 
L 340.234008 349.382511 
L 344.911384 349.382511 
L 349.58876 351.970909 
L 354.266136 351.970909 
L 358.943512 351.970909 
L 363.620888 341.617316 
L 368.298264 341.617316 
L 372.97564 346.794113 
L 377.653017 346.794113 
L 382.330393 349.382511 
L 387.007769 349.382511 
L 391.685145 344.205714 
L 396.362521 346.794113 
L 401.039897 349.382511 
L 405.717273 349.382511 
L 410.394649 349.382511 
L 415.072025 349.382511 
L 419.749401 349.382511 
L 424.426777 349.382511 
L 429.104153 349.382511 
L 433.781529 351.970909 
L 438.458905 349.382511 
L 443.136281 351.970909 
L 447.813657 351.970909 
L 452.491033 351.970909 
L 457.168409 351.970909 
L 461.845785 349.382511 
L 466.523161 349.382511 
L 471.200537 351.970909 
L 475.877913 351.970909 
L 480.555289 351.970909 
L 485.232665 351.970909 
L 489.910041 351.970909 
L 494.587417 351.970909 
L 499.264793 351.970909 
L 503.942169 351.970909 
L 508.619545 351.970909 
" style="fill:none;stroke:#9467bd;stroke-linecap:square;stroke-width:1.5;"/>
   </g>
   <g id="line2d_17">
    <path clip-path="url(#p6917a63d28)" d="M 97.010455 351.970909 
L 101.687831 351.970909 
L 106.365207 351.970909 
L 111.042583 351.970909 
L 115.719959 351.970909 
L 120.397335 351.970909 
L 125.074711 351.970909 
L 129.752087 351.970909 
L 134.429463 351.970909 
L 139.106839 344.205714 
L 143.784215 339.028918 
L 148.461591 328.675325 
L 153.138967 320.91013 
L 157.816343 320.91013 
L 162.493719 323.498528 
L 167.171095 323.498528 
L 171.848471 318.321732 
L 176.525847 320.91013 
L 181.203223 313.144935 
L 185.880599 315.733333 
L 190.557975 307.968139 
L 195.235351 302.791342 
L 199.912727 297.614545 
L 204.590103 305.37974 
L 209.267479 305.37974 
L 213.944855 302.791342 
L 218.622231 300.202944 
L 223.299607 300.202944 
L 227.976983 300.202944 
L 232.65436 307.968139 
L 237.331736 305.37974 
L 242.009112 305.37974 
L 246.686488 300.202944 
L 251.363864 302.791342 
L 256.04124 310.556537 
L 260.718616 305.37974 
L 265.395992 315.733333 
L 270.073368 315.733333 
L 274.750744 315.733333 
L 279.42812 323.498528 
L 284.105496 318.321732 
L 288.782872 315.733333 
L 293.460248 326.086926 
L 298.137624 323.498528 
L 302.815 323.498528 
L 307.492376 323.498528 
L 312.169752 326.086926 
L 316.847128 331.263723 
L 321.524504 328.675325 
L 326.20188 328.675325 
L 330.879256 328.675325 
L 335.556632 336.440519 
L 340.234008 336.440519 
L 344.911384 336.440519 
L 349.58876 344.205714 
L 354.266136 344.205714 
L 358.943512 344.205714 
L 363.620888 344.205714 
L 368.298264 341.617316 
L 372.97564 341.617316 
L 377.653017 344.205714 
L 382.330393 341.617316 
L 387.007769 344.205714 
L 391.685145 344.205714 
L 396.362521 341.617316 
L 401.039897 339.028918 
L 405.717273 339.028918 
L 410.394649 339.028918 
L 415.072025 339.028918 
L 419.749401 339.028918 
L 424.426777 341.617316 
L 429.104153 341.617316 
L 433.781529 344.205714 
L 438.458905 344.205714 
L 443.136281 341.617316 
L 447.813657 341.617316 
L 452.491033 341.617316 
L 457.168409 344.205714 
L 461.845785 344.205714 
L 466.523161 344.205714 
L 471.200537 341.617316 
L 475.877913 341.617316 
L 480.555289 346.794113 
L 485.232665 346.794113 
L 489.910041 346.794113 
L 494.587417 346.794113 
L 499.264793 346.794113 
L 503.942169 346.794113 
L 508.619545 346.794113 
" style="fill:none;stroke:#8c564b;stroke-linecap:square;stroke-width:1.5;"/>
   </g>
   <g id="patch_3">
    <path d="M 76.43 365.56 
L 76.43 66.6 
" style="fill:none;stroke:#000000;stroke-linecap:square;stroke-linejoin:miter;stroke-width:0.8;"/>
   </g>
   <g id="patch_4">
    <path d="M 529.2 365.56 
L 529.2 66.6 
" style="fill:none;stroke:#000000;stroke-linecap:square;stroke-linejoin:miter;stroke-width:0.8;"/>
   </g>
   <g id="patch_5">
    <path d="M 76.43 365.56 
L 529.2 365.56 
" style="fill:none;stroke:#000000;stroke-linecap:square;stroke-linejoin:miter;stroke-width:0.8;"/>
   </g>
   <g id="patch_6">
    <path d="M 76.43 66.6 
L 529.2 66.6 
" style="fill:none;stroke:#000000;stroke-linecap:square;stroke-linejoin:miter;stroke-width:0.8;"/>
   </g>
   <g id="legend_1">
    <g id="patch_7">
     <path d="M 86.93 59.1 
L 518.7 59.1 
Q 521.7 59.1 521.7 56.1 
L 521.7 13.565625 
Q 521.7 10.565625 518.7 10.565625 
L 86.93 10.565625 
Q 83.93 10.565625 83.93 13.565625 
L 83.93 56.1 
Q 83.93 59.1 86.93 59.1 
z
" style="fill:#ffffff;opacity:0.8;stroke:#cccccc;stroke-linejoin:miter;"/>
    </g>
    <g id="line2d_18">
     <path d="M 89.93 22.713281 
L 119.93 22.713281 
" style="fill:none;stroke:#1f77b4;stroke-linecap:square;stroke-width:1.5;"/>
    </g>
    <g id="line2d_19"/>
    <g id="text_14">
     <!-- CKC #0 -->
     <g transform="translate(131.93 27.963281)scale(0.15 -0.15)">
      <use xlink:href="#DejaVuSans-67"/>
      <use x="69.824219" xlink:href="#DejaVuSans-75"/>
      <use x="135.322266" xlink:href="#DejaVuSans-67"/>
      <use x="205.146484" xlink:href="#DejaVuSans-32"/>
      <use x="236.933594" xlink:href="#DejaVuSans-35"/>
      <use x="320.722656" xlink:href="#DejaVuSans-48"/>
     </g>
    </g>
    <g id="line2d_20">
     <path d="M 89.93 44.730469 
L 119.93 44.730469 
" style="fill:none;stroke:#ff7f0e;stroke-linecap:square;stroke-width:1.5;"/>
    </g>
    <g id="line2d_21"/>
    <g id="text_15">
     <!-- CKC #1 -->
     <g transform="translate(131.93 49.980469)scale(0.15 -0.15)">
      <use xlink:href="#DejaVuSans-67"/>
      <use x="69.824219" xlink:href="#DejaVuSans-75"/>
      <use x="135.322266" xlink:href="#DejaVuSans-67"/>
      <use x="205.146484" xlink:href="#DejaVuSans-32"/>
      <use x="236.933594" xlink:href="#DejaVuSans-35"/>
      <use x="320.722656" xlink:href="#DejaVuSans-49"/>
     </g>
    </g>
    <g id="line2d_22">
     <path d="M 198.635365 22.713281 
L 228.635365 22.713281 
" style="fill:none;stroke:#2ca02c;stroke-linecap:square;stroke-width:1.5;"/>
    </g>
    <g id="line2d_23"/>
    <g id="text_16">
     <!-- CKC #2 -->
     <g transform="translate(240.635365 27.963281)scale(0.15 -0.15)">
      <use xlink:href="#DejaVuSans-67"/>
      <use x="69.824219" xlink:href="#DejaVuSans-75"/>
      <use x="135.322266" xlink:href="#DejaVuSans-67"/>
      <use x="205.146484" xlink:href="#DejaVuSans-32"/>
      <use x="236.933594" xlink:href="#DejaVuSans-35"/>
      <use x="320.722656" xlink:href="#DejaVuSans-50"/>
     </g>
    </g>
    <g id="line2d_24">
     <path d="M 198.635365 44.730469 
L 228.635365 44.730469 
" style="fill:none;stroke:#d62728;stroke-linecap:square;stroke-width:1.5;"/>
    </g>
    <g id="line2d_25"/>
    <g id="text_17">
     <!-- CKC #3 -->
     <defs>
      <path d="M 40.578125 39.3125 
Q 47.65625 37.796875 51.625 33 
Q 55.609375 28.21875 55.609375 21.1875 
Q 55.609375 10.40625 48.1875 4.484375 
Q 40.765625 -1.421875 27.09375 -1.421875 
Q 22.515625 -1.421875 17.65625 -0.515625 
Q 12.796875 0.390625 7.625 2.203125 
L 7.625 11.71875 
Q 11.71875 9.328125 16.59375 8.109375 
Q 21.484375 6.890625 26.8125 6.890625 
Q 36.078125 6.890625 40.9375 10.546875 
Q 45.796875 14.203125 45.796875 21.1875 
Q 45.796875 27.640625 41.28125 31.265625 
Q 36.765625 34.90625 28.71875 34.90625 
L 20.21875 34.90625 
L 20.21875 43.015625 
L 29.109375 43.015625 
Q 36.375 43.015625 40.234375 45.921875 
Q 44.09375 48.828125 44.09375 54.296875 
Q 44.09375 59.90625 40.109375 62.90625 
Q 36.140625 65.921875 28.71875 65.921875 
Q 24.65625 65.921875 20.015625 65.03125 
Q 15.375 64.15625 9.8125 62.3125 
L 9.8125 71.09375 
Q 15.4375 72.65625 20.34375 73.4375 
Q 25.25 74.21875 29.59375 74.21875 
Q 40.828125 74.21875 47.359375 69.109375 
Q 53.90625 64.015625 53.90625 55.328125 
Q 53.90625 49.265625 50.4375 45.09375 
Q 46.96875 40.921875 40.578125 39.3125 
z
" id="DejaVuSans-51"/>
     </defs>
     <g transform="translate(240.635365 49.980469)scale(0.15 -0.15)">
      <use xlink:href="#DejaVuSans-67"/>
      <use x="69.824219" xlink:href="#DejaVuSans-75"/>
      <use x="135.322266" xlink:href="#DejaVuSans-67"/>
      <use x="205.146484" xlink:href="#DejaVuSans-32"/>
      <use x="236.933594" xlink:href="#DejaVuSans-35"/>
      <use x="320.722656" xlink:href="#DejaVuSans-51"/>
     </g>
    </g>
    <g id="line2d_26">
     <path d="M 307.340729 22.713281 
L 337.340729 22.713281 
" style="fill:none;stroke:#9467bd;stroke-linecap:square;stroke-width:1.5;"/>
    </g>
    <g id="line2d_27"/>
    <g id="text_18">
     <!-- CKC #4 -->
     <g transform="translate(349.340729 27.963281)scale(0.15 -0.15)">
      <use xlink:href="#DejaVuSans-67"/>
      <use x="69.824219" xlink:href="#DejaVuSans-75"/>
      <use x="135.322266" xlink:href="#DejaVuSans-67"/>
      <use x="205.146484" xlink:href="#DejaVuSans-32"/>
      <use x="236.933594" xlink:href="#DejaVuSans-35"/>
      <use x="320.722656" xlink:href="#DejaVuSans-52"/>
     </g>
    </g>
    <g id="line2d_28">
     <path d="M 416.046094 22.713281 
L 446.046094 22.713281 
" style="fill:none;stroke:#8c564b;stroke-linecap:square;stroke-width:1.5;"/>
    </g>
    <g id="line2d_29"/>
    <g id="text_19">
     <!-- CKC #5 -->
     <defs>
      <path d="M 10.796875 72.90625 
L 49.515625 72.90625 
L 49.515625 64.59375 
L 19.828125 64.59375 
L 19.828125 46.734375 
Q 21.96875 47.46875 24.109375 47.828125 
Q 26.265625 48.1875 28.421875 48.1875 
Q 40.625 48.1875 47.75 41.5 
Q 54.890625 34.8125 54.890625 23.390625 
Q 54.890625 11.625 47.5625 5.09375 
Q 40.234375 -1.421875 26.90625 -1.421875 
Q 22.3125 -1.421875 17.546875 -0.640625 
Q 12.796875 0.140625 7.71875 1.703125 
L 7.71875 11.625 
Q 12.109375 9.234375 16.796875 8.0625 
Q 21.484375 6.890625 26.703125 6.890625 
Q 35.15625 6.890625 40.078125 11.328125 
Q 45.015625 15.765625 45.015625 23.390625 
Q 45.015625 31 40.078125 35.4375 
Q 35.15625 39.890625 26.703125 39.890625 
Q 22.75 39.890625 18.8125 39.015625 
Q 14.890625 38.140625 10.796875 36.28125 
z
" id="DejaVuSans-53"/>
     </defs>
     <g transform="translate(458.046094 27.963281)scale(0.15 -0.15)">
      <use xlink:href="#DejaVuSans-67"/>
      <use x="69.824219" xlink:href="#DejaVuSans-75"/>
      <use x="135.322266" xlink:href="#DejaVuSans-67"/>
      <use x="205.146484" xlink:href="#DejaVuSans-32"/>
      <use x="236.933594" xlink:href="#DejaVuSans-35"/>
      <use x="320.722656" xlink:href="#DejaVuSans-53"/>
     </g>
    </g>
   </g>
  </g>
 </g>
 <defs>
  <clipPath id="p6917a63d28">
   <rect height="298.96" width="452.77" x="76.43" y="66.6"/>
  </clipPath>
 </defs>
</svg>
