<?xml version="1.0" encoding="utf-8" standalone="no"?>
<!DOCTYPE svg PUBLIC "-//W3C//DTD SVG 1.1//EN"
  "http://www.w3.org/Graphics/SVG/1.1/DTD/svg11.dtd">
<!-- Created with matplotlib (https://matplotlib.org/) -->
<svg height="432pt" version="1.1" viewBox="0 0 540 432" width="540pt" xmlns="http://www.w3.org/2000/svg" xmlns:xlink="http://www.w3.org/1999/xlink">
 <defs>
  <style type="text/css">
*{stroke-linecap:butt;stroke-linejoin:round;}
  </style>
 </defs>
 <g id="figure_1">
  <g id="patch_1">
   <path d="M 0 432 
L 540 432 
L 540 0 
L 0 0 
z
" style="fill:#ffffff;"/>
  </g>
  <g id="axes_1">
   <g id="patch_2">
    <path d="M 70.13 365.56 
L 529.2 365.56 
L 529.2 66.6 
L 70.13 66.6 
z
" style="fill:#ffffff;"/>
   </g>
   <g id="matplotlib.axis_1">
    <g id="xtick_1">
     <g id="line2d_1">
      <defs>
       <path d="M 0 0 
L 0 3.5 
" id="m4d49f6521d" style="stroke:#000000;stroke-width:0.8;"/>
      </defs>
      <g>
       <use style="stroke:#000000;stroke-width:0.8;" x="90.996818" xlink:href="#m4d49f6521d" y="365.56"/>
      </g>
     </g>
     <g id="text_1">
      <!-- 0 -->
      <defs>
       <path d="M 31.78125 66.40625 
Q 24.171875 66.40625 20.328125 58.90625 
Q 16.5 51.421875 16.5 36.375 
Q 16.5 21.390625 20.328125 13.890625 
Q 24.171875 6.390625 31.78125 6.390625 
Q 39.453125 6.390625 43.28125 13.890625 
Q 47.125 21.390625 47.125 36.375 
Q 47.125 51.421875 43.28125 58.90625 
Q 39.453125 66.40625 31.78125 66.40625 
z
M 31.78125 74.21875 
Q 44.046875 74.21875 50.515625 64.515625 
Q 56.984375 54.828125 56.984375 36.375 
Q 56.984375 17.96875 50.515625 8.265625 
Q 44.046875 -1.421875 31.78125 -1.421875 
Q 19.53125 -1.421875 13.0625 8.265625 
Q 6.59375 17.96875 6.59375 36.375 
Q 6.59375 54.828125 13.0625 64.515625 
Q 19.53125 74.21875 31.78125 74.21875 
z
" id="DejaVuSans-48"/>
      </defs>
      <g transform="translate(84.634318 387.756875)scale(0.2 -0.2)">
       <use xlink:href="#DejaVuSans-48"/>
      </g>
     </g>
    </g>
    <g id="xtick_2">
     <g id="line2d_2">
      <g>
       <use style="stroke:#000000;stroke-width:0.8;" x="185.845992" xlink:href="#m4d49f6521d" y="365.56"/>
      </g>
     </g>
     <g id="text_2">
      <!-- 20 -->
      <defs>
       <path d="M 19.1875 8.296875 
L 53.609375 8.296875 
L 53.609375 0 
L 7.328125 0 
L 7.328125 8.296875 
Q 12.9375 14.109375 22.625 23.890625 
Q 32.328125 33.6875 34.8125 36.53125 
Q 39.546875 41.84375 41.421875 45.53125 
Q 43.3125 49.21875 43.3125 52.78125 
Q 43.3125 58.59375 39.234375 62.25 
Q 35.15625 65.921875 28.609375 65.921875 
Q 23.96875 65.921875 18.8125 64.3125 
Q 13.671875 62.703125 7.8125 59.421875 
L 7.8125 69.390625 
Q 13.765625 71.78125 18.9375 73 
Q 24.125 74.21875 28.421875 74.21875 
Q 39.75 74.21875 46.484375 68.546875 
Q 53.21875 62.890625 53.21875 53.421875 
Q 53.21875 48.921875 51.53125 44.890625 
Q 49.859375 40.875 45.40625 35.40625 
Q 44.1875 33.984375 37.640625 27.21875 
Q 31.109375 20.453125 19.1875 8.296875 
z
" id="DejaVuSans-50"/>
      </defs>
      <g transform="translate(173.120992 387.756875)scale(0.2 -0.2)">
       <use xlink:href="#DejaVuSans-50"/>
       <use x="63.623047" xlink:href="#DejaVuSans-48"/>
      </g>
     </g>
    </g>
    <g id="xtick_3">
     <g id="line2d_3">
      <g>
       <use style="stroke:#000000;stroke-width:0.8;" x="280.695165" xlink:href="#m4d49f6521d" y="365.56"/>
      </g>
     </g>
     <g id="text_3">
      <!-- 40 -->
      <defs>
       <path d="M 37.796875 64.3125 
L 12.890625 25.390625 
L 37.796875 25.390625 
z
M 35.203125 72.90625 
L 47.609375 72.90625 
L 47.609375 25.390625 
L 58.015625 25.390625 
L 58.015625 17.1875 
L 47.609375 17.1875 
L 47.609375 0 
L 37.796875 0 
L 37.796875 17.1875 
L 4.890625 17.1875 
L 4.890625 26.703125 
z
" id="DejaVuSans-52"/>
      </defs>
      <g transform="translate(267.970165 387.756875)scale(0.2 -0.2)">
       <use xlink:href="#DejaVuSans-52"/>
       <use x="63.623047" xlink:href="#DejaVuSans-48"/>
      </g>
     </g>
    </g>
    <g id="xtick_4">
     <g id="line2d_4">
      <g>
       <use style="stroke:#000000;stroke-width:0.8;" x="375.544339" xlink:href="#m4d49f6521d" y="365.56"/>
      </g>
     </g>
     <g id="text_4">
      <!-- 60 -->
      <defs>
       <path d="M 33.015625 40.375 
Q 26.375 40.375 22.484375 35.828125 
Q 18.609375 31.296875 18.609375 23.390625 
Q 18.609375 15.53125 22.484375 10.953125 
Q 26.375 6.390625 33.015625 6.390625 
Q 39.65625 6.390625 43.53125 10.953125 
Q 47.40625 15.53125 47.40625 23.390625 
Q 47.40625 31.296875 43.53125 35.828125 
Q 39.65625 40.375 33.015625 40.375 
z
M 52.59375 71.296875 
L 52.59375 62.3125 
Q 48.875 64.0625 45.09375 64.984375 
Q 41.3125 65.921875 37.59375 65.921875 
Q 27.828125 65.921875 22.671875 59.328125 
Q 17.53125 52.734375 16.796875 39.40625 
Q 19.671875 43.65625 24.015625 45.921875 
Q 28.375 48.1875 33.59375 48.1875 
Q 44.578125 48.1875 50.953125 41.515625 
Q 57.328125 34.859375 57.328125 23.390625 
Q 57.328125 12.15625 50.6875 5.359375 
Q 44.046875 -1.421875 33.015625 -1.421875 
Q 20.359375 -1.421875 13.671875 8.265625 
Q 6.984375 17.96875 6.984375 36.375 
Q 6.984375 53.65625 15.1875 63.9375 
Q 23.390625 74.21875 37.203125 74.21875 
Q 40.921875 74.21875 44.703125 73.484375 
Q 48.484375 72.75 52.59375 71.296875 
z
" id="DejaVuSans-54"/>
      </defs>
      <g transform="translate(362.819339 387.756875)scale(0.2 -0.2)">
       <use xlink:href="#DejaVuSans-54"/>
       <use x="63.623047" xlink:href="#DejaVuSans-48"/>
      </g>
     </g>
    </g>
    <g id="xtick_5">
     <g id="line2d_5">
      <g>
       <use style="stroke:#000000;stroke-width:0.8;" x="470.393512" xlink:href="#m4d49f6521d" y="365.56"/>
      </g>
     </g>
     <g id="text_5">
      <!-- 80 -->
      <defs>
       <path d="M 31.78125 34.625 
Q 24.75 34.625 20.71875 30.859375 
Q 16.703125 27.09375 16.703125 20.515625 
Q 16.703125 13.921875 20.71875 10.15625 
Q 24.75 6.390625 31.78125 6.390625 
Q 38.8125 6.390625 42.859375 10.171875 
Q 46.921875 13.96875 46.921875 20.515625 
Q 46.921875 27.09375 42.890625 30.859375 
Q 38.875 34.625 31.78125 34.625 
z
M 21.921875 38.8125 
Q 15.578125 40.375 12.03125 44.71875 
Q 8.5 49.078125 8.5 55.328125 
Q 8.5 64.0625 14.71875 69.140625 
Q 20.953125 74.21875 31.78125 74.21875 
Q 42.671875 74.21875 48.875 69.140625 
Q 55.078125 64.0625 55.078125 55.328125 
Q 55.078125 49.078125 51.53125 44.71875 
Q 48 40.375 41.703125 38.8125 
Q 48.828125 37.15625 52.796875 32.3125 
Q 56.78125 27.484375 56.78125 20.515625 
Q 56.78125 9.90625 50.3125 4.234375 
Q 43.84375 -1.421875 31.78125 -1.421875 
Q 19.734375 -1.421875 13.25 4.234375 
Q 6.78125 9.90625 6.78125 20.515625 
Q 6.78125 27.484375 10.78125 32.3125 
Q 14.796875 37.15625 21.921875 38.8125 
z
M 18.3125 54.390625 
Q 18.3125 48.734375 21.84375 45.5625 
Q 25.390625 42.390625 31.78125 42.390625 
Q 38.140625 42.390625 41.71875 45.5625 
Q 45.3125 48.734375 45.3125 54.390625 
Q 45.3125 60.0625 41.71875 63.234375 
Q 38.140625 66.40625 31.78125 66.40625 
Q 25.390625 66.40625 21.84375 63.234375 
Q 18.3125 60.0625 18.3125 54.390625 
z
" id="DejaVuSans-56"/>
      </defs>
      <g transform="translate(457.668512 387.756875)scale(0.2 -0.2)">
       <use xlink:href="#DejaVuSans-56"/>
       <use x="63.623047" xlink:href="#DejaVuSans-48"/>
      </g>
     </g>
    </g>
    <g id="text_6">
     <!-- number of games (DD-IPI) -->
     <defs>
      <path d="M 54.890625 33.015625 
L 54.890625 0 
L 45.90625 0 
L 45.90625 32.71875 
Q 45.90625 40.484375 42.875 44.328125 
Q 39.84375 48.1875 33.796875 48.1875 
Q 26.515625 48.1875 22.3125 43.546875 
Q 18.109375 38.921875 18.109375 30.90625 
L 18.109375 0 
L 9.078125 0 
L 9.078125 54.6875 
L 18.109375 54.6875 
L 18.109375 46.1875 
Q 21.34375 51.125 25.703125 53.5625 
Q 30.078125 56 35.796875 56 
Q 45.21875 56 50.046875 50.171875 
Q 54.890625 44.34375 54.890625 33.015625 
z
" id="DejaVuSans-110"/>
      <path d="M 8.5 21.578125 
L 8.5 54.6875 
L 17.484375 54.6875 
L 17.484375 21.921875 
Q 17.484375 14.15625 20.5 10.265625 
Q 23.53125 6.390625 29.59375 6.390625 
Q 36.859375 6.390625 41.078125 11.03125 
Q 45.3125 15.671875 45.3125 23.6875 
L 45.3125 54.6875 
L 54.296875 54.6875 
L 54.296875 0 
L 45.3125 0 
L 45.3125 8.40625 
Q 42.046875 3.421875 37.71875 1 
Q 33.40625 -1.421875 27.6875 -1.421875 
Q 18.265625 -1.421875 13.375 4.4375 
Q 8.5 10.296875 8.5 21.578125 
z
M 31.109375 56 
z
" id="DejaVuSans-117"/>
      <path d="M 52 44.1875 
Q 55.375 50.25 60.0625 53.125 
Q 64.75 56 71.09375 56 
Q 79.640625 56 84.28125 50.015625 
Q 88.921875 44.046875 88.921875 33.015625 
L 88.921875 0 
L 79.890625 0 
L 79.890625 32.71875 
Q 79.890625 40.578125 77.09375 44.375 
Q 74.3125 48.1875 68.609375 48.1875 
Q 61.625 48.1875 57.5625 43.546875 
Q 53.515625 38.921875 53.515625 30.90625 
L 53.515625 0 
L 44.484375 0 
L 44.484375 32.71875 
Q 44.484375 40.625 41.703125 44.40625 
Q 38.921875 48.1875 33.109375 48.1875 
Q 26.21875 48.1875 22.15625 43.53125 
Q 18.109375 38.875 18.109375 30.90625 
L 18.109375 0 
L 9.078125 0 
L 9.078125 54.6875 
L 18.109375 54.6875 
L 18.109375 46.1875 
Q 21.1875 51.21875 25.484375 53.609375 
Q 29.78125 56 35.6875 56 
Q 41.65625 56 45.828125 52.96875 
Q 50 49.953125 52 44.1875 
z
" id="DejaVuSans-109"/>
      <path d="M 48.6875 27.296875 
Q 48.6875 37.203125 44.609375 42.84375 
Q 40.53125 48.484375 33.40625 48.484375 
Q 26.265625 48.484375 22.1875 42.84375 
Q 18.109375 37.203125 18.109375 27.296875 
Q 18.109375 17.390625 22.1875 11.75 
Q 26.265625 6.109375 33.40625 6.109375 
Q 40.53125 6.109375 44.609375 11.75 
Q 48.6875 17.390625 48.6875 27.296875 
z
M 18.109375 46.390625 
Q 20.953125 51.265625 25.265625 53.625 
Q 29.59375 56 35.59375 56 
Q 45.5625 56 51.78125 48.09375 
Q 58.015625 40.1875 58.015625 27.296875 
Q 58.015625 14.40625 51.78125 6.484375 
Q 45.5625 -1.421875 35.59375 -1.421875 
Q 29.59375 -1.421875 25.265625 0.953125 
Q 20.953125 3.328125 18.109375 8.203125 
L 18.109375 0 
L 9.078125 0 
L 9.078125 75.984375 
L 18.109375 75.984375 
z
" id="DejaVuSans-98"/>
      <path d="M 56.203125 29.59375 
L 56.203125 25.203125 
L 14.890625 25.203125 
Q 15.484375 15.921875 20.484375 11.0625 
Q 25.484375 6.203125 34.421875 6.203125 
Q 39.59375 6.203125 44.453125 7.46875 
Q 49.3125 8.734375 54.109375 11.28125 
L 54.109375 2.78125 
Q 49.265625 0.734375 44.1875 -0.34375 
Q 39.109375 -1.421875 33.890625 -1.421875 
Q 20.796875 -1.421875 13.15625 6.1875 
Q 5.515625 13.8125 5.515625 26.8125 
Q 5.515625 40.234375 12.765625 48.109375 
Q 20.015625 56 32.328125 56 
Q 43.359375 56 49.78125 48.890625 
Q 56.203125 41.796875 56.203125 29.59375 
z
M 47.21875 32.234375 
Q 47.125 39.59375 43.09375 43.984375 
Q 39.0625 48.390625 32.421875 48.390625 
Q 24.90625 48.390625 20.390625 44.140625 
Q 15.875 39.890625 15.1875 32.171875 
z
" id="DejaVuSans-101"/>
      <path d="M 41.109375 46.296875 
Q 39.59375 47.171875 37.8125 47.578125 
Q 36.03125 48 33.890625 48 
Q 26.265625 48 22.1875 43.046875 
Q 18.109375 38.09375 18.109375 28.8125 
L 18.109375 0 
L 9.078125 0 
L 9.078125 54.6875 
L 18.109375 54.6875 
L 18.109375 46.1875 
Q 20.953125 51.171875 25.484375 53.578125 
Q 30.03125 56 36.53125 56 
Q 37.453125 56 38.578125 55.875 
Q 39.703125 55.765625 41.0625 55.515625 
z
" id="DejaVuSans-114"/>
      <path id="DejaVuSans-32"/>
      <path d="M 30.609375 48.390625 
Q 23.390625 48.390625 19.1875 42.75 
Q 14.984375 37.109375 14.984375 27.296875 
Q 14.984375 17.484375 19.15625 11.84375 
Q 23.34375 6.203125 30.609375 6.203125 
Q 37.796875 6.203125 41.984375 11.859375 
Q 46.1875 17.53125 46.1875 27.296875 
Q 46.1875 37.015625 41.984375 42.703125 
Q 37.796875 48.390625 30.609375 48.390625 
z
M 30.609375 56 
Q 42.328125 56 49.015625 48.375 
Q 55.71875 40.765625 55.71875 27.296875 
Q 55.71875 13.875 49.015625 6.21875 
Q 42.328125 -1.421875 30.609375 -1.421875 
Q 18.84375 -1.421875 12.171875 6.21875 
Q 5.515625 13.875 5.515625 27.296875 
Q 5.515625 40.765625 12.171875 48.375 
Q 18.84375 56 30.609375 56 
z
" id="DejaVuSans-111"/>
      <path d="M 37.109375 75.984375 
L 37.109375 68.5 
L 28.515625 68.5 
Q 23.6875 68.5 21.796875 66.546875 
Q 19.921875 64.59375 19.921875 59.515625 
L 19.921875 54.6875 
L 34.71875 54.6875 
L 34.71875 47.703125 
L 19.921875 47.703125 
L 19.921875 0 
L 10.890625 0 
L 10.890625 47.703125 
L 2.296875 47.703125 
L 2.296875 54.6875 
L 10.890625 54.6875 
L 10.890625 58.5 
Q 10.890625 67.625 15.140625 71.796875 
Q 19.390625 75.984375 28.609375 75.984375 
z
" id="DejaVuSans-102"/>
      <path d="M 45.40625 27.984375 
Q 45.40625 37.75 41.375 43.109375 
Q 37.359375 48.484375 30.078125 48.484375 
Q 22.859375 48.484375 18.828125 43.109375 
Q 14.796875 37.75 14.796875 27.984375 
Q 14.796875 18.265625 18.828125 12.890625 
Q 22.859375 7.515625 30.078125 7.515625 
Q 37.359375 7.515625 41.375 12.890625 
Q 45.40625 18.265625 45.40625 27.984375 
z
M 54.390625 6.78125 
Q 54.390625 -7.171875 48.1875 -13.984375 
Q 42 -20.796875 29.203125 -20.796875 
Q 24.46875 -20.796875 20.265625 -20.09375 
Q 16.0625 -19.390625 12.109375 -17.921875 
L 12.109375 -9.1875 
Q 16.0625 -11.328125 19.921875 -12.34375 
Q 23.78125 -13.375 27.78125 -13.375 
Q 36.625 -13.375 41.015625 -8.765625 
Q 45.40625 -4.15625 45.40625 5.171875 
L 45.40625 9.625 
Q 42.625 4.78125 38.28125 2.390625 
Q 33.9375 0 27.875 0 
Q 17.828125 0 11.671875 7.65625 
Q 5.515625 15.328125 5.515625 27.984375 
Q 5.515625 40.671875 11.671875 48.328125 
Q 17.828125 56 27.875 56 
Q 33.9375 56 38.28125 53.609375 
Q 42.625 51.21875 45.40625 46.390625 
L 45.40625 54.6875 
L 54.390625 54.6875 
z
" id="DejaVuSans-103"/>
      <path d="M 34.28125 27.484375 
Q 23.390625 27.484375 19.1875 25 
Q 14.984375 22.515625 14.984375 16.5 
Q 14.984375 11.71875 18.140625 8.90625 
Q 21.296875 6.109375 26.703125 6.109375 
Q 34.1875 6.109375 38.703125 11.40625 
Q 43.21875 16.703125 43.21875 25.484375 
L 43.21875 27.484375 
z
M 52.203125 31.203125 
L 52.203125 0 
L 43.21875 0 
L 43.21875 8.296875 
Q 40.140625 3.328125 35.546875 0.953125 
Q 30.953125 -1.421875 24.3125 -1.421875 
Q 15.921875 -1.421875 10.953125 3.296875 
Q 6 8.015625 6 15.921875 
Q 6 25.140625 12.171875 29.828125 
Q 18.359375 34.515625 30.609375 34.515625 
L 43.21875 34.515625 
L 43.21875 35.40625 
Q 43.21875 41.609375 39.140625 45 
Q 35.0625 48.390625 27.6875 48.390625 
Q 23 48.390625 18.546875 47.265625 
Q 14.109375 46.140625 10.015625 43.890625 
L 10.015625 52.203125 
Q 14.9375 54.109375 19.578125 55.046875 
Q 24.21875 56 28.609375 56 
Q 40.484375 56 46.34375 49.84375 
Q 52.203125 43.703125 52.203125 31.203125 
z
" id="DejaVuSans-97"/>
      <path d="M 44.28125 53.078125 
L 44.28125 44.578125 
Q 40.484375 46.53125 36.375 47.5 
Q 32.28125 48.484375 27.875 48.484375 
Q 21.1875 48.484375 17.84375 46.4375 
Q 14.5 44.390625 14.5 40.28125 
Q 14.5 37.15625 16.890625 35.375 
Q 19.28125 33.59375 26.515625 31.984375 
L 29.59375 31.296875 
Q 39.15625 29.25 43.1875 25.515625 
Q 47.21875 21.78125 47.21875 15.09375 
Q 47.21875 7.46875 41.1875 3.015625 
Q 35.15625 -1.421875 24.609375 -1.421875 
Q 20.21875 -1.421875 15.453125 -0.5625 
Q 10.6875 0.296875 5.421875 2 
L 5.421875 11.28125 
Q 10.40625 8.6875 15.234375 7.390625 
Q 20.0625 6.109375 24.8125 6.109375 
Q 31.15625 6.109375 34.5625 8.28125 
Q 37.984375 10.453125 37.984375 14.40625 
Q 37.984375 18.0625 35.515625 20.015625 
Q 33.0625 21.96875 24.703125 23.78125 
L 21.578125 24.515625 
Q 13.234375 26.265625 9.515625 29.90625 
Q 5.8125 33.546875 5.8125 39.890625 
Q 5.8125 47.609375 11.28125 51.796875 
Q 16.75 56 26.8125 56 
Q 31.78125 56 36.171875 55.265625 
Q 40.578125 54.546875 44.28125 53.078125 
z
" id="DejaVuSans-115"/>
      <path d="M 31 75.875 
Q 24.46875 64.65625 21.28125 53.65625 
Q 18.109375 42.671875 18.109375 31.390625 
Q 18.109375 20.125 21.3125 9.0625 
Q 24.515625 -2 31 -13.1875 
L 23.1875 -13.1875 
Q 15.875 -1.703125 12.234375 9.375 
Q 8.59375 20.453125 8.59375 31.390625 
Q 8.59375 42.28125 12.203125 53.3125 
Q 15.828125 64.359375 23.1875 75.875 
z
" id="DejaVuSans-40"/>
      <path d="M 19.671875 64.796875 
L 19.671875 8.109375 
L 31.59375 8.109375 
Q 46.6875 8.109375 53.6875 14.9375 
Q 60.6875 21.78125 60.6875 36.53125 
Q 60.6875 51.171875 53.6875 57.984375 
Q 46.6875 64.796875 31.59375 64.796875 
z
M 9.8125 72.90625 
L 30.078125 72.90625 
Q 51.265625 72.90625 61.171875 64.09375 
Q 71.09375 55.28125 71.09375 36.53125 
Q 71.09375 17.671875 61.125 8.828125 
Q 51.171875 0 30.078125 0 
L 9.8125 0 
z
" id="DejaVuSans-68"/>
      <path d="M 4.890625 31.390625 
L 31.203125 31.390625 
L 31.203125 23.390625 
L 4.890625 23.390625 
z
" id="DejaVuSans-45"/>
      <path d="M 9.8125 72.90625 
L 19.671875 72.90625 
L 19.671875 0 
L 9.8125 0 
z
" id="DejaVuSans-73"/>
      <path d="M 19.671875 64.796875 
L 19.671875 37.40625 
L 32.078125 37.40625 
Q 38.96875 37.40625 42.71875 40.96875 
Q 46.484375 44.53125 46.484375 51.125 
Q 46.484375 57.671875 42.71875 61.234375 
Q 38.96875 64.796875 32.078125 64.796875 
z
M 9.8125 72.90625 
L 32.078125 72.90625 
Q 44.34375 72.90625 50.609375 67.359375 
Q 56.890625 61.8125 56.890625 51.125 
Q 56.890625 40.328125 50.609375 34.8125 
Q 44.34375 29.296875 32.078125 29.296875 
L 19.671875 29.296875 
L 19.671875 0 
L 9.8125 0 
z
" id="DejaVuSans-80"/>
      <path d="M 8.015625 75.875 
L 15.828125 75.875 
Q 23.140625 64.359375 26.78125 53.3125 
Q 30.421875 42.28125 30.421875 31.390625 
Q 30.421875 20.453125 26.78125 9.375 
Q 23.140625 -1.703125 15.828125 -13.1875 
L 8.015625 -13.1875 
Q 14.5 -2 17.703125 9.0625 
Q 20.90625 20.125 20.90625 31.390625 
Q 20.90625 42.671875 17.703125 53.65625 
Q 14.5 64.65625 8.015625 75.875 
z
" id="DejaVuSans-41"/>
     </defs>
     <g transform="translate(136.512656 414.912344)scale(0.25 -0.25)">
      <use xlink:href="#DejaVuSans-110"/>
      <use x="63.378906" xlink:href="#DejaVuSans-117"/>
      <use x="126.757812" xlink:href="#DejaVuSans-109"/>
      <use x="224.169922" xlink:href="#DejaVuSans-98"/>
      <use x="287.646484" xlink:href="#DejaVuSans-101"/>
      <use x="349.169922" xlink:href="#DejaVuSans-114"/>
      <use x="390.283203" xlink:href="#DejaVuSans-32"/>
      <use x="422.070312" xlink:href="#DejaVuSans-111"/>
      <use x="483.251953" xlink:href="#DejaVuSans-102"/>
      <use x="518.457031" xlink:href="#DejaVuSans-32"/>
      <use x="550.244141" xlink:href="#DejaVuSans-103"/>
      <use x="613.720703" xlink:href="#DejaVuSans-97"/>
      <use x="675" xlink:href="#DejaVuSans-109"/>
      <use x="772.412109" xlink:href="#DejaVuSans-101"/>
      <use x="833.935547" xlink:href="#DejaVuSans-115"/>
      <use x="886.035156" xlink:href="#DejaVuSans-32"/>
      <use x="917.822266" xlink:href="#DejaVuSans-40"/>
      <use x="956.835938" xlink:href="#DejaVuSans-68"/>
      <use x="1033.837891" xlink:href="#DejaVuSans-68"/>
      <use x="1110.839844" xlink:href="#DejaVuSans-45"/>
      <use x="1146.923828" xlink:href="#DejaVuSans-73"/>
      <use x="1176.416016" xlink:href="#DejaVuSans-80"/>
      <use x="1236.71875" xlink:href="#DejaVuSans-73"/>
      <use x="1266.210938" xlink:href="#DejaVuSans-41"/>
     </g>
    </g>
   </g>
   <g id="matplotlib.axis_2">
    <g id="ytick_1">
     <g id="line2d_6">
      <defs>
       <path d="M 0 0 
L -3.5 0 
" id="mf1ba4b31dd" style="stroke:#000000;stroke-width:0.8;"/>
      </defs>
      <g>
       <use style="stroke:#000000;stroke-width:0.8;" x="70.13" xlink:href="#mf1ba4b31dd" y="351.970909"/>
      </g>
     </g>
     <g id="text_7">
      <!-- 0.0 -->
      <defs>
       <path d="M 10.6875 12.40625 
L 21 12.40625 
L 21 0 
L 10.6875 0 
z
" id="DejaVuSans-46"/>
      </defs>
      <g transform="translate(31.32375 359.569347)scale(0.2 -0.2)">
       <use xlink:href="#DejaVuSans-48"/>
       <use x="63.623047" xlink:href="#DejaVuSans-46"/>
       <use x="95.410156" xlink:href="#DejaVuSans-48"/>
      </g>
     </g>
    </g>
    <g id="ytick_2">
     <g id="line2d_7">
      <g>
       <use style="stroke:#000000;stroke-width:0.8;" x="70.13" xlink:href="#mf1ba4b31dd" y="303.050182"/>
      </g>
     </g>
     <g id="text_8">
      <!-- 0.1 -->
      <defs>
       <path d="M 12.40625 8.296875 
L 28.515625 8.296875 
L 28.515625 63.921875 
L 10.984375 60.40625 
L 10.984375 69.390625 
L 28.421875 72.90625 
L 38.28125 72.90625 
L 38.28125 8.296875 
L 54.390625 8.296875 
L 54.390625 0 
L 12.40625 0 
z
" id="DejaVuSans-49"/>
      </defs>
      <g transform="translate(31.32375 310.648619)scale(0.2 -0.2)">
       <use xlink:href="#DejaVuSans-48"/>
       <use x="63.623047" xlink:href="#DejaVuSans-46"/>
       <use x="95.410156" xlink:href="#DejaVuSans-49"/>
      </g>
     </g>
    </g>
    <g id="ytick_3">
     <g id="line2d_8">
      <g>
       <use style="stroke:#000000;stroke-width:0.8;" x="70.13" xlink:href="#mf1ba4b31dd" y="254.129455"/>
      </g>
     </g>
     <g id="text_9">
      <!-- 0.2 -->
      <g transform="translate(31.32375 261.727892)scale(0.2 -0.2)">
       <use xlink:href="#DejaVuSans-48"/>
       <use x="63.623047" xlink:href="#DejaVuSans-46"/>
       <use x="95.410156" xlink:href="#DejaVuSans-50"/>
      </g>
     </g>
    </g>
    <g id="ytick_4">
     <g id="line2d_9">
      <g>
       <use style="stroke:#000000;stroke-width:0.8;" x="70.13" xlink:href="#mf1ba4b31dd" y="205.208727"/>
      </g>
     </g>
     <g id="text_10">
      <!-- 0.3 -->
      <defs>
       <path d="M 40.578125 39.3125 
Q 47.65625 37.796875 51.625 33 
Q 55.609375 28.21875 55.609375 21.1875 
Q 55.609375 10.40625 48.1875 4.484375 
Q 40.765625 -1.421875 27.09375 -1.421875 
Q 22.515625 -1.421875 17.65625 -0.515625 
Q 12.796875 0.390625 7.625 2.203125 
L 7.625 11.71875 
Q 11.71875 9.328125 16.59375 8.109375 
Q 21.484375 6.890625 26.8125 6.890625 
Q 36.078125 6.890625 40.9375 10.546875 
Q 45.796875 14.203125 45.796875 21.1875 
Q 45.796875 27.640625 41.28125 31.265625 
Q 36.765625 34.90625 28.71875 34.90625 
L 20.21875 34.90625 
L 20.21875 43.015625 
L 29.109375 43.015625 
Q 36.375 43.015625 40.234375 45.921875 
Q 44.09375 48.828125 44.09375 54.296875 
Q 44.09375 59.90625 40.109375 62.90625 
Q 36.140625 65.921875 28.71875 65.921875 
Q 24.65625 65.921875 20.015625 65.03125 
Q 15.375 64.15625 9.8125 62.3125 
L 9.8125 71.09375 
Q 15.4375 72.65625 20.34375 73.4375 
Q 25.25 74.21875 29.59375 74.21875 
Q 40.828125 74.21875 47.359375 69.109375 
Q 53.90625 64.015625 53.90625 55.328125 
Q 53.90625 49.265625 50.4375 45.09375 
Q 46.96875 40.921875 40.578125 39.3125 
z
" id="DejaVuSans-51"/>
      </defs>
      <g transform="translate(31.32375 212.807165)scale(0.2 -0.2)">
       <use xlink:href="#DejaVuSans-48"/>
       <use x="63.623047" xlink:href="#DejaVuSans-46"/>
       <use x="95.410156" xlink:href="#DejaVuSans-51"/>
      </g>
     </g>
    </g>
    <g id="ytick_5">
     <g id="line2d_10">
      <g>
       <use style="stroke:#000000;stroke-width:0.8;" x="70.13" xlink:href="#mf1ba4b31dd" y="156.288"/>
      </g>
     </g>
     <g id="text_11">
      <!-- 0.4 -->
      <g transform="translate(31.32375 163.886437)scale(0.2 -0.2)">
       <use xlink:href="#DejaVuSans-48"/>
       <use x="63.623047" xlink:href="#DejaVuSans-46"/>
       <use x="95.410156" xlink:href="#DejaVuSans-52"/>
      </g>
     </g>
    </g>
    <g id="ytick_6">
     <g id="line2d_11">
      <g>
       <use style="stroke:#000000;stroke-width:0.8;" x="70.13" xlink:href="#mf1ba4b31dd" y="107.367273"/>
      </g>
     </g>
     <g id="text_12">
      <!-- 0.5 -->
      <defs>
       <path d="M 10.796875 72.90625 
L 49.515625 72.90625 
L 49.515625 64.59375 
L 19.828125 64.59375 
L 19.828125 46.734375 
Q 21.96875 47.46875 24.109375 47.828125 
Q 26.265625 48.1875 28.421875 48.1875 
Q 40.625 48.1875 47.75 41.5 
Q 54.890625 34.8125 54.890625 23.390625 
Q 54.890625 11.625 47.5625 5.09375 
Q 40.234375 -1.421875 26.90625 -1.421875 
Q 22.3125 -1.421875 17.546875 -0.640625 
Q 12.796875 0.140625 7.71875 1.703125 
L 7.71875 11.625 
Q 12.109375 9.234375 16.796875 8.0625 
Q 21.484375 6.890625 26.703125 6.890625 
Q 35.15625 6.890625 40.078125 11.328125 
Q 45.015625 15.765625 45.015625 23.390625 
Q 45.015625 31 40.078125 35.4375 
Q 35.15625 39.890625 26.703125 39.890625 
Q 22.75 39.890625 18.8125 39.015625 
Q 14.890625 38.140625 10.796875 36.28125 
z
" id="DejaVuSans-53"/>
      </defs>
      <g transform="translate(31.32375 114.96571)scale(0.2 -0.2)">
       <use xlink:href="#DejaVuSans-48"/>
       <use x="63.623047" xlink:href="#DejaVuSans-46"/>
       <use x="95.410156" xlink:href="#DejaVuSans-53"/>
      </g>
     </g>
    </g>
    <g id="text_13">
     <!-- Percentage of Att strategy used -->
     <defs>
      <path d="M 48.78125 52.59375 
L 48.78125 44.1875 
Q 44.96875 46.296875 41.140625 47.34375 
Q 37.3125 48.390625 33.40625 48.390625 
Q 24.65625 48.390625 19.8125 42.84375 
Q 14.984375 37.3125 14.984375 27.296875 
Q 14.984375 17.28125 19.8125 11.734375 
Q 24.65625 6.203125 33.40625 6.203125 
Q 37.3125 6.203125 41.140625 7.25 
Q 44.96875 8.296875 48.78125 10.40625 
L 48.78125 2.09375 
Q 45.015625 0.34375 40.984375 -0.53125 
Q 36.96875 -1.421875 32.421875 -1.421875 
Q 20.0625 -1.421875 12.78125 6.34375 
Q 5.515625 14.109375 5.515625 27.296875 
Q 5.515625 40.671875 12.859375 48.328125 
Q 20.21875 56 33.015625 56 
Q 37.15625 56 41.109375 55.140625 
Q 45.0625 54.296875 48.78125 52.59375 
z
" id="DejaVuSans-99"/>
      <path d="M 18.3125 70.21875 
L 18.3125 54.6875 
L 36.8125 54.6875 
L 36.8125 47.703125 
L 18.3125 47.703125 
L 18.3125 18.015625 
Q 18.3125 11.328125 20.140625 9.421875 
Q 21.96875 7.515625 27.59375 7.515625 
L 36.8125 7.515625 
L 36.8125 0 
L 27.59375 0 
Q 17.1875 0 13.234375 3.875 
Q 9.28125 7.765625 9.28125 18.015625 
L 9.28125 47.703125 
L 2.6875 47.703125 
L 2.6875 54.6875 
L 9.28125 54.6875 
L 9.28125 70.21875 
z
" id="DejaVuSans-116"/>
      <path d="M 34.1875 63.1875 
L 20.796875 26.90625 
L 47.609375 26.90625 
z
M 28.609375 72.90625 
L 39.796875 72.90625 
L 67.578125 0 
L 57.328125 0 
L 50.6875 18.703125 
L 17.828125 18.703125 
L 11.1875 0 
L 0.78125 0 
z
" id="DejaVuSans-65"/>
      <path d="M 32.171875 -5.078125 
Q 28.375 -14.84375 24.75 -17.8125 
Q 21.140625 -20.796875 15.09375 -20.796875 
L 7.90625 -20.796875 
L 7.90625 -13.28125 
L 13.1875 -13.28125 
Q 16.890625 -13.28125 18.9375 -11.515625 
Q 21 -9.765625 23.484375 -3.21875 
L 25.09375 0.875 
L 2.984375 54.6875 
L 12.5 54.6875 
L 29.59375 11.921875 
L 46.6875 54.6875 
L 56.203125 54.6875 
z
" id="DejaVuSans-121"/>
      <path d="M 45.40625 46.390625 
L 45.40625 75.984375 
L 54.390625 75.984375 
L 54.390625 0 
L 45.40625 0 
L 45.40625 8.203125 
Q 42.578125 3.328125 38.25 0.953125 
Q 33.9375 -1.421875 27.875 -1.421875 
Q 17.96875 -1.421875 11.734375 6.484375 
Q 5.515625 14.40625 5.515625 27.296875 
Q 5.515625 40.1875 11.734375 48.09375 
Q 17.96875 56 27.875 56 
Q 33.9375 56 38.25 53.625 
Q 42.578125 51.265625 45.40625 46.390625 
z
M 14.796875 27.296875 
Q 14.796875 17.390625 18.875 11.75 
Q 22.953125 6.109375 30.078125 6.109375 
Q 37.203125 6.109375 41.296875 11.75 
Q 45.40625 17.390625 45.40625 27.296875 
Q 45.40625 37.203125 41.296875 42.84375 
Q 37.203125 48.484375 30.078125 48.484375 
Q 22.953125 48.484375 18.875 42.84375 
Q 14.796875 37.203125 14.796875 27.296875 
z
" id="DejaVuSans-100"/>
     </defs>
     <g transform="translate(23.857604 349.091719)rotate(-90)scale(0.166667 -0.166667)">
      <use xlink:href="#DejaVuSans-80"/>
      <use x="60.255859" xlink:href="#DejaVuSans-101"/>
      <use x="121.779297" xlink:href="#DejaVuSans-114"/>
      <use x="162.861328" xlink:href="#DejaVuSans-99"/>
      <use x="217.841797" xlink:href="#DejaVuSans-101"/>
      <use x="279.365234" xlink:href="#DejaVuSans-110"/>
      <use x="342.744141" xlink:href="#DejaVuSans-116"/>
      <use x="381.953125" xlink:href="#DejaVuSans-97"/>
      <use x="443.232422" xlink:href="#DejaVuSans-103"/>
      <use x="506.708984" xlink:href="#DejaVuSans-101"/>
      <use x="568.232422" xlink:href="#DejaVuSans-32"/>
      <use x="600.019531" xlink:href="#DejaVuSans-111"/>
      <use x="661.201172" xlink:href="#DejaVuSans-102"/>
      <use x="696.40625" xlink:href="#DejaVuSans-32"/>
      <use x="728.193359" xlink:href="#DejaVuSans-65"/>
      <use x="796.585938" xlink:href="#DejaVuSans-116"/>
      <use x="835.794922" xlink:href="#DejaVuSans-116"/>
      <use x="875.003906" xlink:href="#DejaVuSans-32"/>
      <use x="906.791016" xlink:href="#DejaVuSans-115"/>
      <use x="958.890625" xlink:href="#DejaVuSans-116"/>
      <use x="998.099609" xlink:href="#DejaVuSans-114"/>
      <use x="1039.212891" xlink:href="#DejaVuSans-97"/>
      <use x="1100.492188" xlink:href="#DejaVuSans-116"/>
      <use x="1139.701172" xlink:href="#DejaVuSans-101"/>
      <use x="1201.224609" xlink:href="#DejaVuSans-103"/>
      <use x="1264.701172" xlink:href="#DejaVuSans-121"/>
      <use x="1323.880859" xlink:href="#DejaVuSans-32"/>
      <use x="1355.667969" xlink:href="#DejaVuSans-117"/>
      <use x="1419.046875" xlink:href="#DejaVuSans-115"/>
      <use x="1471.146484" xlink:href="#DejaVuSans-101"/>
      <use x="1532.669922" xlink:href="#DejaVuSans-100"/>
     </g>
    </g>
   </g>
   <g id="line2d_12">
    <path clip-path="url(#p53c97aa110)" d="M 90.996818 298.158109 
L 95.739277 198.827763 
L 100.481736 181.136623 
L 105.224194 211.683529 
L 109.966653 210.269492 
L 114.709112 199.288384 
L 119.45157 216.719487 
L 124.194029 179.791813 
L 128.936488 213.661 
L 133.678946 169.135868 
L 138.421405 197.609391 
L 143.163864 192.641935 
L 147.906322 221.086507 
L 152.648781 197.264336 
L 157.39124 200.295292 
L 162.133698 169.049929 
L 166.876157 204.567844 
L 171.618616 199.630048 
L 176.361074 215.082636 
L 181.103533 179.966526 
L 185.845992 212.838565 
L 190.58845 213.76437 
L 195.330909 200.54961 
L 200.073368 194.552727 
L 204.815826 213.989371 
L 209.558285 203.726281 
L 214.300744 186.431074 
L 219.043202 219.752727 
L 223.785661 186.184 
L 228.52812 202.151182 
L 233.270579 206.895649 
L 238.013037 193.697968 
L 242.755496 210.063456 
L 247.497955 201.741904 
L 252.240413 195.584978 
L 256.982872 208.788293 
L 261.725331 196.974545 
L 266.467789 197.22167 
L 271.210248 185.432263 
L 275.952707 190.754876 
L 280.695165 204.071036 
L 285.437624 194.52489 
L 290.180083 219.186078 
L 294.922541 195.696364 
L 299.665 186.698182 
L 304.407459 160.254545 
L 309.149917 156.288 
L 313.892376 208.582571 
L 318.634835 156.288 
L 323.377293 166.40953 
L 328.119752 154.571483 
L 332.862211 179.309519 
L 337.604669 221.515636 
L 342.347128 197.484402 
L 347.089587 250.052727 
L 351.832045 250.052727 
L 356.574504 168.518182 
L 361.316963 270.436364 
L 366.059421 250.052727 
L 370.80188 254.129455 
L 375.544339 137.942727 
L 380.286798 270.436364 
L 385.029256 121.755722 
L 389.771715 179.309519 
L 394.514174 208.086417 
L 399.256632 121.755722 
L 403.999091 188.901818 
L 408.74155 188.901818 
L 413.484008 243.258182 
L 418.226467 188.901818 
L 422.968926 208.086417 
L 427.711384 294.417112 
L 432.453843 229.669091 
L 437.196302 229.669091 
L 441.93876 290.82 
L 446.681219 236.863316 
L 451.423678 236.863316 
L 456.166136 137.942727 
L 460.908595 199.093636 
L 465.651054 137.942727 
L 470.393512 137.942727 
L 475.135971 236.863316 
L 479.87843 297.614545 
L 484.620888 188.901818 
L 489.363347 134.545455 
L 494.105806 243.258182 
L 498.848264 243.258182 
L 503.590723 243.258182 
L 508.333182 80.189091 
" style="fill:none;stroke:#1f77b4;stroke-linecap:square;stroke-width:1.5;"/>
   </g>
   <g id="line2d_13">
    <path clip-path="url(#p53c97aa110)" d="M 90.996818 298.158109 
L 95.739277 305.17717 
L 100.481736 289.849351 
L 105.224194 298.014225 
L 109.966653 287.867887 
L 114.709112 292.767481 
L 119.45157 285.784043 
L 124.194029 294.577877 
L 128.936488 295.622427 
L 133.678946 305.026777 
L 138.421405 297.35068 
L 143.163864 295.869158 
L 147.906322 294.038469 
L 152.648781 289.252028 
L 157.39124 315.654212 
L 162.133698 300.923194 
L 166.876157 298.564002 
L 171.618616 279.018947 
L 176.361074 307.089508 
L 181.103533 307.294446 
L 185.845992 304.845438 
L 190.58845 277.383253 
L 195.330909 305.37974 
L 200.073368 298.690909 
L 204.815826 296.778294 
L 209.558285 302.556033 
L 214.300744 314.909752 
L 219.043202 296.439273 
L 223.785661 305.768 
L 228.52812 309.165273 
L 233.270579 297.989417 
L 238.013037 315.999786 
L 242.755496 277.282776 
L 247.497955 309.598626 
L 252.240413 287.812578 
L 256.982872 292.311486 
L 261.725331 308.378182 
L 266.467789 282.084156 
L 271.210248 268.701586 
L 275.952707 290.82 
L 280.695165 312.151712 
L 285.437624 312.609404 
L 290.180083 303.050182 
L 294.922541 324.792727 
L 299.665 332.138182 
L 304.407459 318.916364 
L 309.149917 303.050182 
L 313.892376 309.797868 
L 318.634835 319.357091 
L 323.377293 318.232476 
L 328.119752 309.05799 
L 332.862211 313.601711 
L 337.604669 330.228364 
L 342.347128 313.349282 
L 347.089587 290.82 
L 351.832045 270.436364 
L 356.574504 351.970909 
L 361.316963 311.203636 
L 366.059421 311.203636 
L 370.80188 254.129455 
L 375.544339 290.82 
L 380.286798 351.970909 
L 385.029256 351.970909 
L 389.771715 294.417112 
L 394.514174 351.970909 
L 399.256632 323.194011 
L 403.999091 243.258182 
L 408.74155 324.792727 
L 413.484008 324.792727 
L 418.226467 324.792727 
L 422.968926 323.194011 
L 427.711384 323.194011 
L 432.453843 290.82 
L 437.196302 290.82 
L 441.93876 321.395455 
L 446.681219 265.640214 
L 451.423678 294.417112 
L 456.166136 290.82 
L 460.908595 351.970909 
L 465.651054 260.244545 
L 470.393512 351.970909 
L 475.135971 351.970909 
L 479.87843 297.614545 
L 484.620888 351.970909 
L 489.363347 351.970909 
L 494.105806 188.901818 
L 498.848264 243.258182 
L 503.590723 351.970909 
L 508.333182 351.970909 
" style="fill:none;stroke:#ff7f0e;stroke-linecap:square;stroke-width:1.5;"/>
   </g>
   <g id="line2d_14">
    <path clip-path="url(#p53c97aa110)" d="M 90.996818 317.7264 
L 95.739277 317.939099 
L 100.481736 317.027532 
L 105.224194 308.805561 
L 109.966653 318.232476 
L 114.709112 320.81121 
L 119.45157 300.172492 
L 124.194029 305.509883 
L 128.936488 295.622427 
L 133.678946 302.556033 
L 138.421405 313.974228 
L 143.163864 293.625088 
L 147.906322 296.184115 
L 152.648781 297.614545 
L 157.39124 304.97283 
L 162.133698 307.304158 
L 166.876157 302.836554 
L 171.618616 315.494928 
L 176.361074 309.333578 
L 181.103533 307.294446 
L 185.845992 307.089508 
L 190.58845 305.902063 
L 195.330909 303.050182 
L 200.073368 315.643636 
L 204.815826 306.813315 
L 209.558285 297.614545 
L 214.300744 312.439008 
L 219.043202 299.083636 
L 223.785661 305.768 
L 228.52812 315.280364 
L 233.270579 308.110947 
L 238.013037 319.596898 
L 242.755496 318.361249 
L 247.497955 294.190523 
L 252.240413 315.881848 
L 256.982872 292.311486 
L 261.725331 308.378182 
L 266.467789 327.011354 
L 271.210248 336.357911 
L 275.952707 307.497521 
L 280.695165 295.086342 
L 285.437624 318.232476 
L 290.180083 324.016208 
L 294.922541 304.409091 
L 299.665 312.305455 
L 304.407459 312.305455 
L 309.149917 344.982234 
L 313.892376 284.494044 
L 318.634835 303.050182 
L 323.377293 326.667085 
L 328.119752 334.805742 
L 332.862211 332.78631 
L 337.604669 286.743273 
L 342.347128 313.349282 
L 347.089587 331.587273 
L 351.832045 311.203636 
L 356.574504 331.587273 
L 361.316963 270.436364 
L 366.059421 311.203636 
L 370.80188 327.510545 
L 375.544339 351.970909 
L 380.286798 161.723636 
L 385.029256 323.194011 
L 389.771715 323.194011 
L 394.514174 323.194011 
L 399.256632 323.194011 
L 403.999091 297.614545 
L 408.74155 351.970909 
L 413.484008 297.614545 
L 418.226467 351.970909 
L 422.968926 265.640214 
L 427.711384 351.970909 
L 432.453843 290.82 
L 437.196302 290.82 
L 441.93876 321.395455 
L 446.681219 323.194011 
L 451.423678 265.640214 
L 456.166136 321.395455 
L 460.908595 321.395455 
L 465.651054 321.395455 
L 470.393512 321.395455 
L 475.135971 323.194011 
L 479.87843 297.614545 
L 484.620888 297.614545 
L 489.363347 297.614545 
L 494.105806 297.614545 
L 498.848264 297.614545 
L 503.590723 297.614545 
L 508.333182 351.970909 
" style="fill:none;stroke:#2ca02c;stroke-linecap:square;stroke-width:1.5;"/>
   </g>
   <g id="line2d_15">
    <path clip-path="url(#p53c97aa110)" d="M 90.996818 239.453236 
L 95.739277 305.17717 
L 100.481736 313.144935 
L 105.224194 312.402674 
L 109.966653 281.120201 
L 114.709112 311.463301 
L 119.45157 303.050182 
L 124.194029 302.776882 
L 128.936488 308.428901 
L 133.678946 300.085289 
L 138.421405 309.224643 
L 143.163864 311.577648 
L 147.906322 296.184115 
L 152.648781 305.977063 
L 157.39124 304.97283 
L 162.133698 322.193075 
L 166.876157 300.700278 
L 171.618616 294.038469 
L 176.361074 307.089508 
L 181.103533 316.229738 
L 185.845992 298.113228 
L 190.58845 310.289572 
L 195.330909 317.027532 
L 200.073368 284.16 
L 204.815826 306.813315 
L 209.558285 305.026777 
L 214.300744 305.026777 
L 219.043202 320.238545 
L 223.785661 316.639273 
L 228.52812 315.280364 
L 233.270579 311.48479 
L 238.013037 308.805561 
L 242.755496 318.361249 
L 247.497955 301.894574 
L 252.240413 299.842265 
L 256.982872 328.10714 
L 261.725331 289.003636 
L 266.467789 327.011354 
L 271.210248 305.131915 
L 275.952707 318.615868 
L 280.695165 306.463256 
L 285.437624 318.232476 
L 290.180083 337.993558 
L 294.922541 317.998182 
L 299.665 325.527273 
L 304.407459 305.694545 
L 309.149917 310.038857 
L 313.892376 301.36326 
L 318.634835 327.510545 
L 323.377293 318.232476 
L 328.119752 334.805742 
L 332.862211 304.009412 
L 337.604669 319.357091 
L 342.347128 339.097033 
L 347.089587 351.970909 
L 351.832045 290.82 
L 356.574504 290.82 
L 361.316963 311.203636 
L 366.059421 290.82 
L 370.80188 327.510545 
L 375.544339 321.395455 
L 380.286798 351.970909 
L 385.029256 294.417112 
L 389.771715 294.417112 
L 394.514174 294.417112 
L 399.256632 265.640214 
L 403.999091 351.970909 
L 408.74155 243.258182 
L 413.484008 324.792727 
L 418.226467 297.614545 
L 422.968926 323.194011 
L 427.711384 323.194011 
L 432.453843 351.970909 
L 437.196302 351.970909 
L 441.93876 321.395455 
L 446.681219 294.417112 
L 451.423678 351.970909 
L 456.166136 321.395455 
L 460.908595 290.82 
L 465.651054 351.970909 
L 470.393512 290.82 
L 475.135971 208.086417 
L 479.87843 297.614545 
L 484.620888 188.901818 
L 489.363347 351.970909 
L 494.105806 297.614545 
L 498.848264 297.614545 
L 503.590723 351.970909 
L 508.333182 351.970909 
" style="fill:none;stroke:#d62728;stroke-linecap:square;stroke-width:1.5;"/>
   </g>
   <g id="line2d_16">
    <path clip-path="url(#p53c97aa110)" d="M 90.996818 283.481891 
L 95.739277 296.669217 
L 100.481736 297.614545 
L 105.224194 312.402674 
L 109.966653 311.48479 
L 114.709112 292.767481 
L 119.45157 285.784043 
L 124.194029 319.174891 
L 128.936488 300.745017 
L 133.678946 312.439008 
L 138.421405 290.226302 
L 143.163864 298.113228 
L 147.906322 296.184115 
L 152.648781 301.795804 
L 157.39124 294.291449 
L 162.133698 292.415241 
L 166.876157 290.018896 
L 171.618616 300.475407 
L 176.361074 273.428457 
L 181.103533 302.8268 
L 185.845992 275.672527 
L 190.58845 299.320799 
L 195.330909 284.413714 
L 200.073368 284.16 
L 204.815826 279.217007 
L 209.558285 277.848595 
L 214.300744 285.260826 
L 219.043202 280.573091 
L 223.785661 284.025455 
L 228.52812 278.589818 
L 233.270579 284.494044 
L 238.013037 258.445989 
L 242.755496 281.017183 
L 247.497955 294.190523 
L 252.240413 279.792787 
L 256.982872 256.515831 
L 261.725331 308.378182 
L 266.467789 277.092245 
L 271.210248 310.336248 
L 275.952707 296.379174 
L 280.695165 289.397886 
L 285.437624 245.132539 
L 290.180083 261.11813 
L 294.922541 263.641818 
L 299.665 272.64 
L 304.407459 259.418182 
L 309.149917 282.084156 
L 313.892376 284.494044 
L 318.634835 294.896727 
L 323.377293 309.797868 
L 328.119752 300.475407 
L 332.862211 304.009412 
L 337.604669 297.614545 
L 342.347128 236.106029 
L 347.089587 168.518182 
L 351.832045 290.82 
L 356.574504 290.82 
L 361.316963 270.436364 
L 366.059421 270.436364 
L 370.80188 254.129455 
L 375.544339 290.82 
L 380.286798 297.614545 
L 385.029256 265.640214 
L 389.771715 323.194011 
L 394.514174 236.863316 
L 399.256632 294.417112 
L 403.999091 297.614545 
L 408.74155 297.614545 
L 413.484008 216.08 
L 418.226467 270.436364 
L 422.968926 265.640214 
L 427.711384 150.53262 
L 432.453843 260.244545 
L 437.196302 168.518182 
L 441.93876 229.669091 
L 446.681219 236.863316 
L 451.423678 323.194011 
L 456.166136 290.82 
L 460.908595 290.82 
L 465.651054 321.395455 
L 470.393512 321.395455 
L 475.135971 208.086417 
L 479.87843 188.901818 
L 484.620888 351.970909 
L 489.363347 243.258182 
L 494.105806 351.970909 
L 498.848264 297.614545 
L 503.590723 351.970909 
L 508.333182 243.258182 
" style="fill:none;stroke:#9467bd;stroke-linecap:square;stroke-width:1.5;"/>
   </g>
   <g id="line2d_17">
    <path clip-path="url(#p53c97aa110)" d="M 90.996818 273.697745 
L 95.739277 296.669217 
L 100.481736 320.91013 
L 105.224194 283.625775 
L 109.966653 311.48479 
L 114.709112 295.883451 
L 119.45157 334.70477 
L 124.194029 308.242885 
L 128.936488 298.183722 
L 133.678946 329.734215 
L 138.421405 306.84985 
L 143.163864 313.821718 
L 147.906322 317.640574 
L 152.648781 316.43021 
L 157.39124 317.790488 
L 162.133698 313.685123 
L 166.876157 298.564002 
L 171.618616 317.640574 
L 176.361074 309.333578 
L 181.103533 311.762092 
L 185.845992 298.113228 
L 190.58845 312.483327 
L 195.330909 319.357091 
L 200.073368 313.221818 
L 204.815826 309.32207 
L 209.558285 329.734215 
L 214.300744 312.439008 
L 219.043202 325.527273 
L 223.785661 316.639273 
L 228.52812 306.107727 
L 233.270579 308.110947 
L 238.013037 315.999786 
L 242.755496 303.423622 
L 247.497955 309.598626 
L 252.240413 327.911535 
L 256.982872 316.175255 
L 261.725331 318.065455 
L 266.467789 317.027532 
L 271.210248 346.766576 
L 275.952707 318.615868 
L 280.695165 306.463256 
L 285.437624 312.609404 
L 290.180083 282.084156 
L 294.922541 324.792727 
L 299.665 305.694545 
L 304.407459 325.527273 
L 309.149917 317.027532 
L 313.892376 326.667085 
L 318.634835 294.896727 
L 323.377293 309.797868 
L 328.119752 283.310239 
L 332.862211 323.194011 
L 337.604669 319.357091 
L 342.347128 339.097033 
L 347.089587 311.203636 
L 351.832045 311.203636 
L 356.574504 250.052727 
L 361.316963 290.82 
L 366.059421 290.82 
L 370.80188 327.510545 
L 375.544339 290.82 
L 380.286798 324.792727 
L 385.029256 351.970909 
L 389.771715 323.194011 
L 394.514174 351.970909 
L 399.256632 351.970909 
L 403.999091 297.614545 
L 408.74155 297.614545 
L 413.484008 270.436364 
L 418.226467 297.614545 
L 422.968926 294.417112 
L 427.711384 294.417112 
L 432.453843 290.82 
L 437.196302 321.395455 
L 441.93876 290.82 
L 446.681219 323.194011 
L 451.423678 323.194011 
L 456.166136 351.970909 
L 460.908595 351.970909 
L 465.651054 260.244545 
L 470.393512 290.82 
L 475.135971 351.970909 
L 479.87843 297.614545 
L 484.620888 351.970909 
L 489.363347 351.970909 
L 494.105806 351.970909 
L 498.848264 297.614545 
L 503.590723 243.258182 
L 508.333182 297.614545 
" style="fill:none;stroke:#8c564b;stroke-linecap:square;stroke-width:1.5;"/>
   </g>
   <g id="line2d_18">
    <path clip-path="url(#p53c97aa110)" d="M 90.996818 298.158109 
L 95.739277 305.17717 
L 100.481736 301.497143 
L 105.224194 290.82 
L 109.966653 294.615574 
L 114.709112 311.463301 
L 119.45157 300.172492 
L 124.194029 300.04388 
L 128.936488 305.867606 
L 133.678946 300.085289 
L 138.421405 304.475057 
L 143.163864 311.577648 
L 147.906322 300.475407 
L 152.648781 305.977063 
L 157.39124 287.88262 
L 162.133698 315.812111 
L 166.876157 315.654212 
L 171.618616 311.203636 
L 176.361074 295.869158 
L 181.103533 300.592976 
L 185.845992 311.577648 
L 190.58845 292.739535 
L 195.330909 300.720623 
L 200.073368 313.221818 
L 204.815826 299.287049 
L 209.558285 302.556033 
L 214.300744 297.614545 
L 219.043202 301.728 
L 223.785661 286.743273 
L 228.52812 278.589818 
L 233.270579 301.36326 
L 238.013037 301.611337 
L 242.755496 288.485996 
L 247.497955 305.7466 
L 252.240413 303.852161 
L 256.982872 312.19796 
L 261.725331 289.003636 
L 266.467789 297.059889 
L 271.210248 284.314584 
L 275.952707 290.82 
L 280.695165 289.397886 
L 285.437624 290.117116 
L 290.180083 282.084156 
L 294.922541 270.436364 
L 299.665 266.029091 
L 304.407459 332.138182 
L 309.149917 317.027532 
L 313.892376 292.928652 
L 318.634835 294.896727 
L 323.377293 259.190219 
L 328.119752 291.892823 
L 332.862211 275.232513 
L 337.604669 254.129455 
L 342.347128 287.601531 
L 347.089587 311.203636 
L 351.832045 250.052727 
L 356.574504 331.587273 
L 361.316963 270.436364 
L 366.059421 311.203636 
L 370.80188 278.589818 
L 375.544339 290.82 
L 380.286798 243.258182 
L 385.029256 323.194011 
L 389.771715 265.640214 
L 394.514174 294.417112 
L 399.256632 323.194011 
L 403.999091 297.614545 
L 408.74155 297.614545 
L 413.484008 324.792727 
L 418.226467 297.614545 
L 422.968926 351.970909 
L 427.711384 323.194011 
L 432.453843 321.395455 
L 437.196302 321.395455 
L 441.93876 229.669091 
L 446.681219 351.970909 
L 451.423678 294.417112 
L 456.166136 290.82 
L 460.908595 229.669091 
L 465.651054 321.395455 
L 470.393512 290.82 
L 475.135971 294.417112 
L 479.87843 297.614545 
L 484.620888 297.614545 
L 489.363347 243.258182 
L 494.105806 297.614545 
L 498.848264 351.970909 
L 503.590723 134.545455 
L 508.333182 297.614545 
" style="fill:none;stroke:#e377c2;stroke-linecap:square;stroke-width:1.5;"/>
   </g>
   <g id="line2d_19">
    <path clip-path="url(#p53c97aa110)" d="M 90.996818 317.7264 
L 95.739277 300.923194 
L 100.481736 305.37974 
L 105.224194 308.805561 
L 109.966653 311.48479 
L 114.709112 302.115391 
L 119.45157 300.172492 
L 124.194029 316.441889 
L 128.936488 308.428901 
L 133.678946 307.497521 
L 138.421405 306.84985 
L 143.163864 309.333578 
L 147.906322 304.766699 
L 152.648781 312.248951 
L 157.39124 300.700278 
L 162.133698 305.17717 
L 166.876157 315.654212 
L 171.618616 309.05799 
L 176.361074 309.333578 
L 181.103533 300.592976 
L 185.845992 318.309858 
L 190.58845 314.677081 
L 195.330909 296.061506 
L 200.073368 322.909091 
L 204.815826 314.33958 
L 209.558285 307.497521 
L 214.300744 312.439008 
L 219.043202 283.217455 
L 223.785661 324.792727 
L 228.52812 321.395455 
L 233.270579 308.110947 
L 238.013037 312.402674 
L 242.755496 329.564469 
L 247.497955 309.598626 
L 252.240413 315.881848 
L 256.982872 320.15255 
L 261.725331 308.378182 
L 266.467789 302.0518 
L 271.210248 289.518917 
L 275.952707 313.056694 
L 280.695165 323.528626 
L 285.437624 335.101693 
L 290.180083 317.027532 
L 294.922541 324.792727 
L 299.665 325.527273 
L 304.407459 312.305455 
L 309.149917 296.061506 
L 313.892376 318.232476 
L 318.634835 335.664 
L 323.377293 318.232476 
L 328.119752 317.640574 
L 332.862211 294.417112 
L 337.604669 297.614545 
L 342.347128 300.475407 
L 347.089587 311.203636 
L 351.832045 351.970909 
L 356.574504 311.203636 
L 361.316963 331.587273 
L 366.059421 290.82 
L 370.80188 303.050182 
L 375.544339 351.970909 
L 380.286798 324.792727 
L 385.029256 294.417112 
L 389.771715 323.194011 
L 394.514174 265.640214 
L 399.256632 323.194011 
L 403.999091 351.970909 
L 408.74155 324.792727 
L 413.484008 324.792727 
L 418.226467 297.614545 
L 422.968926 294.417112 
L 427.711384 265.640214 
L 432.453843 290.82 
L 437.196302 351.970909 
L 441.93876 321.395455 
L 446.681219 294.417112 
L 451.423678 236.863316 
L 456.166136 321.395455 
L 460.908595 290.82 
L 465.651054 351.970909 
L 470.393512 321.395455 
L 475.135971 351.970909 
L 479.87843 351.970909 
L 484.620888 297.614545 
L 489.363347 351.970909 
L 494.105806 297.614545 
L 498.848264 297.614545 
L 503.590723 351.970909 
L 508.333182 351.970909 
" style="fill:none;stroke:#7f7f7f;stroke-linecap:square;stroke-width:1.5;"/>
   </g>
   <g id="patch_3">
    <path d="M 70.13 365.56 
L 70.13 66.6 
" style="fill:none;stroke:#000000;stroke-linecap:square;stroke-linejoin:miter;stroke-width:0.8;"/>
   </g>
   <g id="patch_4">
    <path d="M 529.2 365.56 
L 529.2 66.6 
" style="fill:none;stroke:#000000;stroke-linecap:square;stroke-linejoin:miter;stroke-width:0.8;"/>
   </g>
   <g id="patch_5">
    <path d="M 70.13 365.56 
L 529.2 365.56 
" style="fill:none;stroke:#000000;stroke-linecap:square;stroke-linejoin:miter;stroke-width:0.8;"/>
   </g>
   <g id="patch_6">
    <path d="M 70.13 66.6 
L 529.2 66.6 
" style="fill:none;stroke:#000000;stroke-linecap:square;stroke-linejoin:miter;stroke-width:0.8;"/>
   </g>
   <g id="legend_1">
    <g id="patch_7">
     <path d="M 80.63 59.1 
L 518.7 59.1 
Q 521.7 59.1 521.7 56.1 
L 521.7 13.565625 
Q 521.7 10.565625 518.7 10.565625 
L 80.63 10.565625 
Q 77.63 10.565625 77.63 13.565625 
L 77.63 56.1 
Q 77.63 59.1 80.63 59.1 
z
" style="fill:#ffffff;opacity:0.8;stroke:#cccccc;stroke-linejoin:miter;"/>
    </g>
    <g id="line2d_20">
     <path d="M 83.63 22.713281 
L 113.63 22.713281 
" style="fill:none;stroke:#1f77b4;stroke-linecap:square;stroke-width:1.5;"/>
    </g>
    <g id="line2d_21"/>
    <g id="text_14">
     <!-- Stra 1 -->
     <defs>
      <path d="M 53.515625 70.515625 
L 53.515625 60.890625 
Q 47.90625 63.578125 42.921875 64.890625 
Q 37.9375 66.21875 33.296875 66.21875 
Q 25.25 66.21875 20.875 63.09375 
Q 16.5 59.96875 16.5 54.203125 
Q 16.5 49.359375 19.40625 46.890625 
Q 22.3125 44.4375 30.421875 42.921875 
L 36.375 41.703125 
Q 47.40625 39.59375 52.65625 34.296875 
Q 57.90625 29 57.90625 20.125 
Q 57.90625 9.515625 50.796875 4.046875 
Q 43.703125 -1.421875 29.984375 -1.421875 
Q 24.8125 -1.421875 18.96875 -0.25 
Q 13.140625 0.921875 6.890625 3.21875 
L 6.890625 13.375 
Q 12.890625 10.015625 18.65625 8.296875 
Q 24.421875 6.59375 29.984375 6.59375 
Q 38.421875 6.59375 43.015625 9.90625 
Q 47.609375 13.234375 47.609375 19.390625 
Q 47.609375 24.75 44.3125 27.78125 
Q 41.015625 30.8125 33.5 32.328125 
L 27.484375 33.5 
Q 16.453125 35.6875 11.515625 40.375 
Q 6.59375 45.0625 6.59375 53.421875 
Q 6.59375 63.09375 13.40625 68.65625 
Q 20.21875 74.21875 32.171875 74.21875 
Q 37.3125 74.21875 42.625 73.28125 
Q 47.953125 72.359375 53.515625 70.515625 
z
" id="DejaVuSans-83"/>
     </defs>
     <g transform="translate(125.63 27.963281)scale(0.15 -0.15)">
      <use xlink:href="#DejaVuSans-83"/>
      <use x="63.476562" xlink:href="#DejaVuSans-116"/>
      <use x="102.685547" xlink:href="#DejaVuSans-114"/>
      <use x="143.798828" xlink:href="#DejaVuSans-97"/>
      <use x="205.078125" xlink:href="#DejaVuSans-32"/>
      <use x="236.865234" xlink:href="#DejaVuSans-49"/>
     </g>
    </g>
    <g id="line2d_22">
     <path d="M 83.63 44.730469 
L 113.63 44.730469 
" style="fill:none;stroke:#ff7f0e;stroke-linecap:square;stroke-width:1.5;"/>
    </g>
    <g id="line2d_23"/>
    <g id="text_15">
     <!-- Stra 2 -->
     <g transform="translate(125.63 49.980469)scale(0.15 -0.15)">
      <use xlink:href="#DejaVuSans-83"/>
      <use x="63.476562" xlink:href="#DejaVuSans-116"/>
      <use x="102.685547" xlink:href="#DejaVuSans-114"/>
      <use x="143.798828" xlink:href="#DejaVuSans-97"/>
      <use x="205.078125" xlink:href="#DejaVuSans-32"/>
      <use x="236.865234" xlink:href="#DejaVuSans-50"/>
     </g>
    </g>
    <g id="line2d_24">
     <path d="M 198.629115 22.713281 
L 228.629115 22.713281 
" style="fill:none;stroke:#2ca02c;stroke-linecap:square;stroke-width:1.5;"/>
    </g>
    <g id="line2d_25"/>
    <g id="text_16">
     <!-- Stra 3 -->
     <g transform="translate(240.629115 27.963281)scale(0.15 -0.15)">
      <use xlink:href="#DejaVuSans-83"/>
      <use x="63.476562" xlink:href="#DejaVuSans-116"/>
      <use x="102.685547" xlink:href="#DejaVuSans-114"/>
      <use x="143.798828" xlink:href="#DejaVuSans-97"/>
      <use x="205.078125" xlink:href="#DejaVuSans-32"/>
      <use x="236.865234" xlink:href="#DejaVuSans-51"/>
     </g>
    </g>
    <g id="line2d_26">
     <path d="M 198.629115 44.730469 
L 228.629115 44.730469 
" style="fill:none;stroke:#d62728;stroke-linecap:square;stroke-width:1.5;"/>
    </g>
    <g id="line2d_27"/>
    <g id="text_17">
     <!-- Stra 4 -->
     <g transform="translate(240.629115 49.980469)scale(0.15 -0.15)">
      <use xlink:href="#DejaVuSans-83"/>
      <use x="63.476562" xlink:href="#DejaVuSans-116"/>
      <use x="102.685547" xlink:href="#DejaVuSans-114"/>
      <use x="143.798828" xlink:href="#DejaVuSans-97"/>
      <use x="205.078125" xlink:href="#DejaVuSans-32"/>
      <use x="236.865234" xlink:href="#DejaVuSans-52"/>
     </g>
    </g>
    <g id="line2d_28">
     <path d="M 313.628229 22.713281 
L 343.628229 22.713281 
" style="fill:none;stroke:#9467bd;stroke-linecap:square;stroke-width:1.5;"/>
    </g>
    <g id="line2d_29"/>
    <g id="text_18">
     <!-- Stra 5 -->
     <g transform="translate(355.628229 27.963281)scale(0.15 -0.15)">
      <use xlink:href="#DejaVuSans-83"/>
      <use x="63.476562" xlink:href="#DejaVuSans-116"/>
      <use x="102.685547" xlink:href="#DejaVuSans-114"/>
      <use x="143.798828" xlink:href="#DejaVuSans-97"/>
      <use x="205.078125" xlink:href="#DejaVuSans-32"/>
      <use x="236.865234" xlink:href="#DejaVuSans-53"/>
     </g>
    </g>
    <g id="line2d_30">
     <path d="M 313.628229 44.730469 
L 343.628229 44.730469 
" style="fill:none;stroke:#8c564b;stroke-linecap:square;stroke-width:1.5;"/>
    </g>
    <g id="line2d_31"/>
    <g id="text_19">
     <!-- Stra 6 -->
     <g transform="translate(355.628229 49.980469)scale(0.15 -0.15)">
      <use xlink:href="#DejaVuSans-83"/>
      <use x="63.476562" xlink:href="#DejaVuSans-116"/>
      <use x="102.685547" xlink:href="#DejaVuSans-114"/>
      <use x="143.798828" xlink:href="#DejaVuSans-97"/>
      <use x="205.078125" xlink:href="#DejaVuSans-32"/>
      <use x="236.865234" xlink:href="#DejaVuSans-54"/>
     </g>
    </g>
    <g id="line2d_32">
     <path d="M 428.627344 22.713281 
L 458.627344 22.713281 
" style="fill:none;stroke:#e377c2;stroke-linecap:square;stroke-width:1.5;"/>
    </g>
    <g id="line2d_33"/>
    <g id="text_20">
     <!-- Stra 7 -->
     <defs>
      <path d="M 8.203125 72.90625 
L 55.078125 72.90625 
L 55.078125 68.703125 
L 28.609375 0 
L 18.3125 0 
L 43.21875 64.59375 
L 8.203125 64.59375 
z
" id="DejaVuSans-55"/>
     </defs>
     <g transform="translate(470.627344 27.963281)scale(0.15 -0.15)">
      <use xlink:href="#DejaVuSans-83"/>
      <use x="63.476562" xlink:href="#DejaVuSans-116"/>
      <use x="102.685547" xlink:href="#DejaVuSans-114"/>
      <use x="143.798828" xlink:href="#DejaVuSans-97"/>
      <use x="205.078125" xlink:href="#DejaVuSans-32"/>
      <use x="236.865234" xlink:href="#DejaVuSans-55"/>
     </g>
    </g>
    <g id="line2d_34">
     <path d="M 428.627344 44.730469 
L 458.627344 44.730469 
" style="fill:none;stroke:#7f7f7f;stroke-linecap:square;stroke-width:1.5;"/>
    </g>
    <g id="line2d_35"/>
    <g id="text_21">
     <!-- Stra 8 -->
     <g transform="translate(470.627344 49.980469)scale(0.15 -0.15)">
      <use xlink:href="#DejaVuSans-83"/>
      <use x="63.476562" xlink:href="#DejaVuSans-116"/>
      <use x="102.685547" xlink:href="#DejaVuSans-114"/>
      <use x="143.798828" xlink:href="#DejaVuSans-97"/>
      <use x="205.078125" xlink:href="#DejaVuSans-32"/>
      <use x="236.865234" xlink:href="#DejaVuSans-56"/>
     </g>
    </g>
   </g>
  </g>
 </g>
 <defs>
  <clipPath id="p53c97aa110">
   <rect height="298.96" width="459.07" x="70.13" y="66.6"/>
  </clipPath>
 </defs>
</svg>
