<?xml version="1.0" encoding="utf-8" standalone="no"?>
<!DOCTYPE svg PUBLIC "-//W3C//DTD SVG 1.1//EN"
  "http://www.w3.org/Graphics/SVG/1.1/DTD/svg11.dtd">
<!-- Created with matplotlib (https://matplotlib.org/) -->
<svg height="432pt" version="1.1" viewBox="0 0 540 432" width="540pt" xmlns="http://www.w3.org/2000/svg" xmlns:xlink="http://www.w3.org/1999/xlink">
 <defs>
  <style type="text/css">
*{stroke-linecap:butt;stroke-linejoin:round;}
  </style>
 </defs>
 <g id="figure_1">
  <g id="patch_1">
   <path d="M 0 432 
L 540 432 
L 540 0 
L 0 0 
z
" style="fill:#ffffff;"/>
  </g>
  <g id="axes_1">
   <g id="patch_2">
    <path d="M 63.74 365.56 
L 529.2 365.56 
L 529.2 66.6 
L 63.74 66.6 
z
" style="fill:#ffffff;"/>
   </g>
   <g id="matplotlib.axis_1">
    <g id="xtick_1">
     <g id="line2d_1">
      <defs>
       <path d="M 0 0 
L 0 3.5 
" id="mce94578e43" style="stroke:#000000;stroke-width:0.8;"/>
      </defs>
      <g>
       <use style="stroke:#000000;stroke-width:0.8;" x="84.897273" xlink:href="#mce94578e43" y="365.56"/>
      </g>
     </g>
     <g id="text_1">
      <!-- 0 -->
      <defs>
       <path d="M 31.78125 66.40625 
Q 24.171875 66.40625 20.328125 58.90625 
Q 16.5 51.421875 16.5 36.375 
Q 16.5 21.390625 20.328125 13.890625 
Q 24.171875 6.390625 31.78125 6.390625 
Q 39.453125 6.390625 43.28125 13.890625 
Q 47.125 21.390625 47.125 36.375 
Q 47.125 51.421875 43.28125 58.90625 
Q 39.453125 66.40625 31.78125 66.40625 
z
M 31.78125 74.21875 
Q 44.046875 74.21875 50.515625 64.515625 
Q 56.984375 54.828125 56.984375 36.375 
Q 56.984375 17.96875 50.515625 8.265625 
Q 44.046875 -1.421875 31.78125 -1.421875 
Q 19.53125 -1.421875 13.0625 8.265625 
Q 6.59375 17.96875 6.59375 36.375 
Q 6.59375 54.828125 13.0625 64.515625 
Q 19.53125 74.21875 31.78125 74.21875 
z
" id="DejaVuSans-48"/>
      </defs>
      <g transform="translate(78.534773 387.756875)scale(0.2 -0.2)">
       <use xlink:href="#DejaVuSans-48"/>
      </g>
     </g>
    </g>
    <g id="xtick_2">
     <g id="line2d_2">
      <g>
       <use style="stroke:#000000;stroke-width:0.8;" x="181.066694" xlink:href="#mce94578e43" y="365.56"/>
      </g>
     </g>
     <g id="text_2">
      <!-- 20 -->
      <defs>
       <path d="M 19.1875 8.296875 
L 53.609375 8.296875 
L 53.609375 0 
L 7.328125 0 
L 7.328125 8.296875 
Q 12.9375 14.109375 22.625 23.890625 
Q 32.328125 33.6875 34.8125 36.53125 
Q 39.546875 41.84375 41.421875 45.53125 
Q 43.3125 49.21875 43.3125 52.78125 
Q 43.3125 58.59375 39.234375 62.25 
Q 35.15625 65.921875 28.609375 65.921875 
Q 23.96875 65.921875 18.8125 64.3125 
Q 13.671875 62.703125 7.8125 59.421875 
L 7.8125 69.390625 
Q 13.765625 71.78125 18.9375 73 
Q 24.125 74.21875 28.421875 74.21875 
Q 39.75 74.21875 46.484375 68.546875 
Q 53.21875 62.890625 53.21875 53.421875 
Q 53.21875 48.921875 51.53125 44.890625 
Q 49.859375 40.875 45.40625 35.40625 
Q 44.1875 33.984375 37.640625 27.21875 
Q 31.109375 20.453125 19.1875 8.296875 
z
" id="DejaVuSans-50"/>
      </defs>
      <g transform="translate(168.341694 387.756875)scale(0.2 -0.2)">
       <use xlink:href="#DejaVuSans-50"/>
       <use x="63.623047" xlink:href="#DejaVuSans-48"/>
      </g>
     </g>
    </g>
    <g id="xtick_3">
     <g id="line2d_3">
      <g>
       <use style="stroke:#000000;stroke-width:0.8;" x="277.236116" xlink:href="#mce94578e43" y="365.56"/>
      </g>
     </g>
     <g id="text_3">
      <!-- 40 -->
      <defs>
       <path d="M 37.796875 64.3125 
L 12.890625 25.390625 
L 37.796875 25.390625 
z
M 35.203125 72.90625 
L 47.609375 72.90625 
L 47.609375 25.390625 
L 58.015625 25.390625 
L 58.015625 17.1875 
L 47.609375 17.1875 
L 47.609375 0 
L 37.796875 0 
L 37.796875 17.1875 
L 4.890625 17.1875 
L 4.890625 26.703125 
z
" id="DejaVuSans-52"/>
      </defs>
      <g transform="translate(264.511116 387.756875)scale(0.2 -0.2)">
       <use xlink:href="#DejaVuSans-52"/>
       <use x="63.623047" xlink:href="#DejaVuSans-48"/>
      </g>
     </g>
    </g>
    <g id="xtick_4">
     <g id="line2d_4">
      <g>
       <use style="stroke:#000000;stroke-width:0.8;" x="373.405537" xlink:href="#mce94578e43" y="365.56"/>
      </g>
     </g>
     <g id="text_4">
      <!-- 60 -->
      <defs>
       <path d="M 33.015625 40.375 
Q 26.375 40.375 22.484375 35.828125 
Q 18.609375 31.296875 18.609375 23.390625 
Q 18.609375 15.53125 22.484375 10.953125 
Q 26.375 6.390625 33.015625 6.390625 
Q 39.65625 6.390625 43.53125 10.953125 
Q 47.40625 15.53125 47.40625 23.390625 
Q 47.40625 31.296875 43.53125 35.828125 
Q 39.65625 40.375 33.015625 40.375 
z
M 52.59375 71.296875 
L 52.59375 62.3125 
Q 48.875 64.0625 45.09375 64.984375 
Q 41.3125 65.921875 37.59375 65.921875 
Q 27.828125 65.921875 22.671875 59.328125 
Q 17.53125 52.734375 16.796875 39.40625 
Q 19.671875 43.65625 24.015625 45.921875 
Q 28.375 48.1875 33.59375 48.1875 
Q 44.578125 48.1875 50.953125 41.515625 
Q 57.328125 34.859375 57.328125 23.390625 
Q 57.328125 12.15625 50.6875 5.359375 
Q 44.046875 -1.421875 33.015625 -1.421875 
Q 20.359375 -1.421875 13.671875 8.265625 
Q 6.984375 17.96875 6.984375 36.375 
Q 6.984375 53.65625 15.1875 63.9375 
Q 23.390625 74.21875 37.203125 74.21875 
Q 40.921875 74.21875 44.703125 73.484375 
Q 48.484375 72.75 52.59375 71.296875 
z
" id="DejaVuSans-54"/>
      </defs>
      <g transform="translate(360.680537 387.756875)scale(0.2 -0.2)">
       <use xlink:href="#DejaVuSans-54"/>
       <use x="63.623047" xlink:href="#DejaVuSans-48"/>
      </g>
     </g>
    </g>
    <g id="xtick_5">
     <g id="line2d_5">
      <g>
       <use style="stroke:#000000;stroke-width:0.8;" x="469.574959" xlink:href="#mce94578e43" y="365.56"/>
      </g>
     </g>
     <g id="text_5">
      <!-- 80 -->
      <defs>
       <path d="M 31.78125 34.625 
Q 24.75 34.625 20.71875 30.859375 
Q 16.703125 27.09375 16.703125 20.515625 
Q 16.703125 13.921875 20.71875 10.15625 
Q 24.75 6.390625 31.78125 6.390625 
Q 38.8125 6.390625 42.859375 10.171875 
Q 46.921875 13.96875 46.921875 20.515625 
Q 46.921875 27.09375 42.890625 30.859375 
Q 38.875 34.625 31.78125 34.625 
z
M 21.921875 38.8125 
Q 15.578125 40.375 12.03125 44.71875 
Q 8.5 49.078125 8.5 55.328125 
Q 8.5 64.0625 14.71875 69.140625 
Q 20.953125 74.21875 31.78125 74.21875 
Q 42.671875 74.21875 48.875 69.140625 
Q 55.078125 64.0625 55.078125 55.328125 
Q 55.078125 49.078125 51.53125 44.71875 
Q 48 40.375 41.703125 38.8125 
Q 48.828125 37.15625 52.796875 32.3125 
Q 56.78125 27.484375 56.78125 20.515625 
Q 56.78125 9.90625 50.3125 4.234375 
Q 43.84375 -1.421875 31.78125 -1.421875 
Q 19.734375 -1.421875 13.25 4.234375 
Q 6.78125 9.90625 6.78125 20.515625 
Q 6.78125 27.484375 10.78125 32.3125 
Q 14.796875 37.15625 21.921875 38.8125 
z
M 18.3125 54.390625 
Q 18.3125 48.734375 21.84375 45.5625 
Q 25.390625 42.390625 31.78125 42.390625 
Q 38.140625 42.390625 41.71875 45.5625 
Q 45.3125 48.734375 45.3125 54.390625 
Q 45.3125 60.0625 41.71875 63.234375 
Q 38.140625 66.40625 31.78125 66.40625 
Q 25.390625 66.40625 21.84375 63.234375 
Q 18.3125 60.0625 18.3125 54.390625 
z
" id="DejaVuSans-56"/>
      </defs>
      <g transform="translate(456.849959 387.756875)scale(0.2 -0.2)">
       <use xlink:href="#DejaVuSans-56"/>
       <use x="63.623047" xlink:href="#DejaVuSans-48"/>
      </g>
     </g>
    </g>
    <g id="text_6">
     <!-- number of games (DD-IPI) -->
     <defs>
      <path d="M 54.890625 33.015625 
L 54.890625 0 
L 45.90625 0 
L 45.90625 32.71875 
Q 45.90625 40.484375 42.875 44.328125 
Q 39.84375 48.1875 33.796875 48.1875 
Q 26.515625 48.1875 22.3125 43.546875 
Q 18.109375 38.921875 18.109375 30.90625 
L 18.109375 0 
L 9.078125 0 
L 9.078125 54.6875 
L 18.109375 54.6875 
L 18.109375 46.1875 
Q 21.34375 51.125 25.703125 53.5625 
Q 30.078125 56 35.796875 56 
Q 45.21875 56 50.046875 50.171875 
Q 54.890625 44.34375 54.890625 33.015625 
z
" id="DejaVuSans-110"/>
      <path d="M 8.5 21.578125 
L 8.5 54.6875 
L 17.484375 54.6875 
L 17.484375 21.921875 
Q 17.484375 14.15625 20.5 10.265625 
Q 23.53125 6.390625 29.59375 6.390625 
Q 36.859375 6.390625 41.078125 11.03125 
Q 45.3125 15.671875 45.3125 23.6875 
L 45.3125 54.6875 
L 54.296875 54.6875 
L 54.296875 0 
L 45.3125 0 
L 45.3125 8.40625 
Q 42.046875 3.421875 37.71875 1 
Q 33.40625 -1.421875 27.6875 -1.421875 
Q 18.265625 -1.421875 13.375 4.4375 
Q 8.5 10.296875 8.5 21.578125 
z
M 31.109375 56 
z
" id="DejaVuSans-117"/>
      <path d="M 52 44.1875 
Q 55.375 50.25 60.0625 53.125 
Q 64.75 56 71.09375 56 
Q 79.640625 56 84.28125 50.015625 
Q 88.921875 44.046875 88.921875 33.015625 
L 88.921875 0 
L 79.890625 0 
L 79.890625 32.71875 
Q 79.890625 40.578125 77.09375 44.375 
Q 74.3125 48.1875 68.609375 48.1875 
Q 61.625 48.1875 57.5625 43.546875 
Q 53.515625 38.921875 53.515625 30.90625 
L 53.515625 0 
L 44.484375 0 
L 44.484375 32.71875 
Q 44.484375 40.625 41.703125 44.40625 
Q 38.921875 48.1875 33.109375 48.1875 
Q 26.21875 48.1875 22.15625 43.53125 
Q 18.109375 38.875 18.109375 30.90625 
L 18.109375 0 
L 9.078125 0 
L 9.078125 54.6875 
L 18.109375 54.6875 
L 18.109375 46.1875 
Q 21.1875 51.21875 25.484375 53.609375 
Q 29.78125 56 35.6875 56 
Q 41.65625 56 45.828125 52.96875 
Q 50 49.953125 52 44.1875 
z
" id="DejaVuSans-109"/>
      <path d="M 48.6875 27.296875 
Q 48.6875 37.203125 44.609375 42.84375 
Q 40.53125 48.484375 33.40625 48.484375 
Q 26.265625 48.484375 22.1875 42.84375 
Q 18.109375 37.203125 18.109375 27.296875 
Q 18.109375 17.390625 22.1875 11.75 
Q 26.265625 6.109375 33.40625 6.109375 
Q 40.53125 6.109375 44.609375 11.75 
Q 48.6875 17.390625 48.6875 27.296875 
z
M 18.109375 46.390625 
Q 20.953125 51.265625 25.265625 53.625 
Q 29.59375 56 35.59375 56 
Q 45.5625 56 51.78125 48.09375 
Q 58.015625 40.1875 58.015625 27.296875 
Q 58.015625 14.40625 51.78125 6.484375 
Q 45.5625 -1.421875 35.59375 -1.421875 
Q 29.59375 -1.421875 25.265625 0.953125 
Q 20.953125 3.328125 18.109375 8.203125 
L 18.109375 0 
L 9.078125 0 
L 9.078125 75.984375 
L 18.109375 75.984375 
z
" id="DejaVuSans-98"/>
      <path d="M 56.203125 29.59375 
L 56.203125 25.203125 
L 14.890625 25.203125 
Q 15.484375 15.921875 20.484375 11.0625 
Q 25.484375 6.203125 34.421875 6.203125 
Q 39.59375 6.203125 44.453125 7.46875 
Q 49.3125 8.734375 54.109375 11.28125 
L 54.109375 2.78125 
Q 49.265625 0.734375 44.1875 -0.34375 
Q 39.109375 -1.421875 33.890625 -1.421875 
Q 20.796875 -1.421875 13.15625 6.1875 
Q 5.515625 13.8125 5.515625 26.8125 
Q 5.515625 40.234375 12.765625 48.109375 
Q 20.015625 56 32.328125 56 
Q 43.359375 56 49.78125 48.890625 
Q 56.203125 41.796875 56.203125 29.59375 
z
M 47.21875 32.234375 
Q 47.125 39.59375 43.09375 43.984375 
Q 39.0625 48.390625 32.421875 48.390625 
Q 24.90625 48.390625 20.390625 44.140625 
Q 15.875 39.890625 15.1875 32.171875 
z
" id="DejaVuSans-101"/>
      <path d="M 41.109375 46.296875 
Q 39.59375 47.171875 37.8125 47.578125 
Q 36.03125 48 33.890625 48 
Q 26.265625 48 22.1875 43.046875 
Q 18.109375 38.09375 18.109375 28.8125 
L 18.109375 0 
L 9.078125 0 
L 9.078125 54.6875 
L 18.109375 54.6875 
L 18.109375 46.1875 
Q 20.953125 51.171875 25.484375 53.578125 
Q 30.03125 56 36.53125 56 
Q 37.453125 56 38.578125 55.875 
Q 39.703125 55.765625 41.0625 55.515625 
z
" id="DejaVuSans-114"/>
      <path id="DejaVuSans-32"/>
      <path d="M 30.609375 48.390625 
Q 23.390625 48.390625 19.1875 42.75 
Q 14.984375 37.109375 14.984375 27.296875 
Q 14.984375 17.484375 19.15625 11.84375 
Q 23.34375 6.203125 30.609375 6.203125 
Q 37.796875 6.203125 41.984375 11.859375 
Q 46.1875 17.53125 46.1875 27.296875 
Q 46.1875 37.015625 41.984375 42.703125 
Q 37.796875 48.390625 30.609375 48.390625 
z
M 30.609375 56 
Q 42.328125 56 49.015625 48.375 
Q 55.71875 40.765625 55.71875 27.296875 
Q 55.71875 13.875 49.015625 6.21875 
Q 42.328125 -1.421875 30.609375 -1.421875 
Q 18.84375 -1.421875 12.171875 6.21875 
Q 5.515625 13.875 5.515625 27.296875 
Q 5.515625 40.765625 12.171875 48.375 
Q 18.84375 56 30.609375 56 
z
" id="DejaVuSans-111"/>
      <path d="M 37.109375 75.984375 
L 37.109375 68.5 
L 28.515625 68.5 
Q 23.6875 68.5 21.796875 66.546875 
Q 19.921875 64.59375 19.921875 59.515625 
L 19.921875 54.6875 
L 34.71875 54.6875 
L 34.71875 47.703125 
L 19.921875 47.703125 
L 19.921875 0 
L 10.890625 0 
L 10.890625 47.703125 
L 2.296875 47.703125 
L 2.296875 54.6875 
L 10.890625 54.6875 
L 10.890625 58.5 
Q 10.890625 67.625 15.140625 71.796875 
Q 19.390625 75.984375 28.609375 75.984375 
z
" id="DejaVuSans-102"/>
      <path d="M 45.40625 27.984375 
Q 45.40625 37.75 41.375 43.109375 
Q 37.359375 48.484375 30.078125 48.484375 
Q 22.859375 48.484375 18.828125 43.109375 
Q 14.796875 37.75 14.796875 27.984375 
Q 14.796875 18.265625 18.828125 12.890625 
Q 22.859375 7.515625 30.078125 7.515625 
Q 37.359375 7.515625 41.375 12.890625 
Q 45.40625 18.265625 45.40625 27.984375 
z
M 54.390625 6.78125 
Q 54.390625 -7.171875 48.1875 -13.984375 
Q 42 -20.796875 29.203125 -20.796875 
Q 24.46875 -20.796875 20.265625 -20.09375 
Q 16.0625 -19.390625 12.109375 -17.921875 
L 12.109375 -9.1875 
Q 16.0625 -11.328125 19.921875 -12.34375 
Q 23.78125 -13.375 27.78125 -13.375 
Q 36.625 -13.375 41.015625 -8.765625 
Q 45.40625 -4.15625 45.40625 5.171875 
L 45.40625 9.625 
Q 42.625 4.78125 38.28125 2.390625 
Q 33.9375 0 27.875 0 
Q 17.828125 0 11.671875 7.65625 
Q 5.515625 15.328125 5.515625 27.984375 
Q 5.515625 40.671875 11.671875 48.328125 
Q 17.828125 56 27.875 56 
Q 33.9375 56 38.28125 53.609375 
Q 42.625 51.21875 45.40625 46.390625 
L 45.40625 54.6875 
L 54.390625 54.6875 
z
" id="DejaVuSans-103"/>
      <path d="M 34.28125 27.484375 
Q 23.390625 27.484375 19.1875 25 
Q 14.984375 22.515625 14.984375 16.5 
Q 14.984375 11.71875 18.140625 8.90625 
Q 21.296875 6.109375 26.703125 6.109375 
Q 34.1875 6.109375 38.703125 11.40625 
Q 43.21875 16.703125 43.21875 25.484375 
L 43.21875 27.484375 
z
M 52.203125 31.203125 
L 52.203125 0 
L 43.21875 0 
L 43.21875 8.296875 
Q 40.140625 3.328125 35.546875 0.953125 
Q 30.953125 -1.421875 24.3125 -1.421875 
Q 15.921875 -1.421875 10.953125 3.296875 
Q 6 8.015625 6 15.921875 
Q 6 25.140625 12.171875 29.828125 
Q 18.359375 34.515625 30.609375 34.515625 
L 43.21875 34.515625 
L 43.21875 35.40625 
Q 43.21875 41.609375 39.140625 45 
Q 35.0625 48.390625 27.6875 48.390625 
Q 23 48.390625 18.546875 47.265625 
Q 14.109375 46.140625 10.015625 43.890625 
L 10.015625 52.203125 
Q 14.9375 54.109375 19.578125 55.046875 
Q 24.21875 56 28.609375 56 
Q 40.484375 56 46.34375 49.84375 
Q 52.203125 43.703125 52.203125 31.203125 
z
" id="DejaVuSans-97"/>
      <path d="M 44.28125 53.078125 
L 44.28125 44.578125 
Q 40.484375 46.53125 36.375 47.5 
Q 32.28125 48.484375 27.875 48.484375 
Q 21.1875 48.484375 17.84375 46.4375 
Q 14.5 44.390625 14.5 40.28125 
Q 14.5 37.15625 16.890625 35.375 
Q 19.28125 33.59375 26.515625 31.984375 
L 29.59375 31.296875 
Q 39.15625 29.25 43.1875 25.515625 
Q 47.21875 21.78125 47.21875 15.09375 
Q 47.21875 7.46875 41.1875 3.015625 
Q 35.15625 -1.421875 24.609375 -1.421875 
Q 20.21875 -1.421875 15.453125 -0.5625 
Q 10.6875 0.296875 5.421875 2 
L 5.421875 11.28125 
Q 10.40625 8.6875 15.234375 7.390625 
Q 20.0625 6.109375 24.8125 6.109375 
Q 31.15625 6.109375 34.5625 8.28125 
Q 37.984375 10.453125 37.984375 14.40625 
Q 37.984375 18.0625 35.515625 20.015625 
Q 33.0625 21.96875 24.703125 23.78125 
L 21.578125 24.515625 
Q 13.234375 26.265625 9.515625 29.90625 
Q 5.8125 33.546875 5.8125 39.890625 
Q 5.8125 47.609375 11.28125 51.796875 
Q 16.75 56 26.8125 56 
Q 31.78125 56 36.171875 55.265625 
Q 40.578125 54.546875 44.28125 53.078125 
z
" id="DejaVuSans-115"/>
      <path d="M 31 75.875 
Q 24.46875 64.65625 21.28125 53.65625 
Q 18.109375 42.671875 18.109375 31.390625 
Q 18.109375 20.125 21.3125 9.0625 
Q 24.515625 -2 31 -13.1875 
L 23.1875 -13.1875 
Q 15.875 -1.703125 12.234375 9.375 
Q 8.59375 20.453125 8.59375 31.390625 
Q 8.59375 42.28125 12.203125 53.3125 
Q 15.828125 64.359375 23.1875 75.875 
z
" id="DejaVuSans-40"/>
      <path d="M 19.671875 64.796875 
L 19.671875 8.109375 
L 31.59375 8.109375 
Q 46.6875 8.109375 53.6875 14.9375 
Q 60.6875 21.78125 60.6875 36.53125 
Q 60.6875 51.171875 53.6875 57.984375 
Q 46.6875 64.796875 31.59375 64.796875 
z
M 9.8125 72.90625 
L 30.078125 72.90625 
Q 51.265625 72.90625 61.171875 64.09375 
Q 71.09375 55.28125 71.09375 36.53125 
Q 71.09375 17.671875 61.125 8.828125 
Q 51.171875 0 30.078125 0 
L 9.8125 0 
z
" id="DejaVuSans-68"/>
      <path d="M 4.890625 31.390625 
L 31.203125 31.390625 
L 31.203125 23.390625 
L 4.890625 23.390625 
z
" id="DejaVuSans-45"/>
      <path d="M 9.8125 72.90625 
L 19.671875 72.90625 
L 19.671875 0 
L 9.8125 0 
z
" id="DejaVuSans-73"/>
      <path d="M 19.671875 64.796875 
L 19.671875 37.40625 
L 32.078125 37.40625 
Q 38.96875 37.40625 42.71875 40.96875 
Q 46.484375 44.53125 46.484375 51.125 
Q 46.484375 57.671875 42.71875 61.234375 
Q 38.96875 64.796875 32.078125 64.796875 
z
M 9.8125 72.90625 
L 32.078125 72.90625 
Q 44.34375 72.90625 50.609375 67.359375 
Q 56.890625 61.8125 56.890625 51.125 
Q 56.890625 40.328125 50.609375 34.8125 
Q 44.34375 29.296875 32.078125 29.296875 
L 19.671875 29.296875 
L 19.671875 0 
L 9.8125 0 
z
" id="DejaVuSans-80"/>
      <path d="M 8.015625 75.875 
L 15.828125 75.875 
Q 23.140625 64.359375 26.78125 53.3125 
Q 30.421875 42.28125 30.421875 31.390625 
Q 30.421875 20.453125 26.78125 9.375 
Q 23.140625 -1.703125 15.828125 -13.1875 
L 8.015625 -13.1875 
Q 14.5 -2 17.703125 9.0625 
Q 20.90625 20.125 20.90625 31.390625 
Q 20.90625 42.671875 17.703125 53.65625 
Q 14.5 64.65625 8.015625 75.875 
z
" id="DejaVuSans-41"/>
     </defs>
     <g transform="translate(133.317656 414.912344)scale(0.25 -0.25)">
      <use xlink:href="#DejaVuSans-110"/>
      <use x="63.378906" xlink:href="#DejaVuSans-117"/>
      <use x="126.757812" xlink:href="#DejaVuSans-109"/>
      <use x="224.169922" xlink:href="#DejaVuSans-98"/>
      <use x="287.646484" xlink:href="#DejaVuSans-101"/>
      <use x="349.169922" xlink:href="#DejaVuSans-114"/>
      <use x="390.283203" xlink:href="#DejaVuSans-32"/>
      <use x="422.070312" xlink:href="#DejaVuSans-111"/>
      <use x="483.251953" xlink:href="#DejaVuSans-102"/>
      <use x="518.457031" xlink:href="#DejaVuSans-32"/>
      <use x="550.244141" xlink:href="#DejaVuSans-103"/>
      <use x="613.720703" xlink:href="#DejaVuSans-97"/>
      <use x="675" xlink:href="#DejaVuSans-109"/>
      <use x="772.412109" xlink:href="#DejaVuSans-101"/>
      <use x="833.935547" xlink:href="#DejaVuSans-115"/>
      <use x="886.035156" xlink:href="#DejaVuSans-32"/>
      <use x="917.822266" xlink:href="#DejaVuSans-40"/>
      <use x="956.835938" xlink:href="#DejaVuSans-68"/>
      <use x="1033.837891" xlink:href="#DejaVuSans-68"/>
      <use x="1110.839844" xlink:href="#DejaVuSans-45"/>
      <use x="1146.923828" xlink:href="#DejaVuSans-73"/>
      <use x="1176.416016" xlink:href="#DejaVuSans-80"/>
      <use x="1236.71875" xlink:href="#DejaVuSans-73"/>
      <use x="1266.210938" xlink:href="#DejaVuSans-41"/>
     </g>
    </g>
   </g>
   <g id="matplotlib.axis_2">
    <g id="ytick_1">
     <g id="line2d_6">
      <defs>
       <path d="M 0 0 
L -3.5 0 
" id="m4ebecbca66" style="stroke:#000000;stroke-width:0.8;"/>
      </defs>
      <g>
       <use style="stroke:#000000;stroke-width:0.8;" x="63.74" xlink:href="#m4ebecbca66" y="351.970909"/>
      </g>
     </g>
     <g id="text_7">
      <!-- 0 -->
      <g transform="translate(44.015 359.569347)scale(0.2 -0.2)">
       <use xlink:href="#DejaVuSans-48"/>
      </g>
     </g>
    </g>
    <g id="ytick_2">
     <g id="line2d_7">
      <g>
       <use style="stroke:#000000;stroke-width:0.8;" x="63.74" xlink:href="#m4ebecbca66" y="288.765835"/>
      </g>
     </g>
     <g id="text_8">
      <!-- 20 -->
      <g transform="translate(31.29 296.364273)scale(0.2 -0.2)">
       <use xlink:href="#DejaVuSans-50"/>
       <use x="63.623047" xlink:href="#DejaVuSans-48"/>
      </g>
     </g>
    </g>
    <g id="ytick_3">
     <g id="line2d_8">
      <g>
       <use style="stroke:#000000;stroke-width:0.8;" x="63.74" xlink:href="#m4ebecbca66" y="225.560761"/>
      </g>
     </g>
     <g id="text_9">
      <!-- 40 -->
      <g transform="translate(31.29 233.159199)scale(0.2 -0.2)">
       <use xlink:href="#DejaVuSans-52"/>
       <use x="63.623047" xlink:href="#DejaVuSans-48"/>
      </g>
     </g>
    </g>
    <g id="ytick_4">
     <g id="line2d_9">
      <g>
       <use style="stroke:#000000;stroke-width:0.8;" x="63.74" xlink:href="#m4ebecbca66" y="162.355687"/>
      </g>
     </g>
     <g id="text_10">
      <!-- 60 -->
      <g transform="translate(31.29 169.954125)scale(0.2 -0.2)">
       <use xlink:href="#DejaVuSans-54"/>
       <use x="63.623047" xlink:href="#DejaVuSans-48"/>
      </g>
     </g>
    </g>
    <g id="ytick_5">
     <g id="line2d_10">
      <g>
       <use style="stroke:#000000;stroke-width:0.8;" x="63.74" xlink:href="#m4ebecbca66" y="99.150613"/>
      </g>
     </g>
     <g id="text_11">
      <!-- 80 -->
      <g transform="translate(31.29 106.749051)scale(0.2 -0.2)">
       <use xlink:href="#DejaVuSans-56"/>
       <use x="63.623047" xlink:href="#DejaVuSans-48"/>
      </g>
     </g>
    </g>
    <g id="text_12">
     <!-- Number of Att strategy used -->
     <defs>
      <path d="M 9.8125 72.90625 
L 23.09375 72.90625 
L 55.421875 11.921875 
L 55.421875 72.90625 
L 64.984375 72.90625 
L 64.984375 0 
L 51.703125 0 
L 19.390625 60.984375 
L 19.390625 0 
L 9.8125 0 
z
" id="DejaVuSans-78"/>
      <path d="M 34.1875 63.1875 
L 20.796875 26.90625 
L 47.609375 26.90625 
z
M 28.609375 72.90625 
L 39.796875 72.90625 
L 67.578125 0 
L 57.328125 0 
L 50.6875 18.703125 
L 17.828125 18.703125 
L 11.1875 0 
L 0.78125 0 
z
" id="DejaVuSans-65"/>
      <path d="M 18.3125 70.21875 
L 18.3125 54.6875 
L 36.8125 54.6875 
L 36.8125 47.703125 
L 18.3125 47.703125 
L 18.3125 18.015625 
Q 18.3125 11.328125 20.140625 9.421875 
Q 21.96875 7.515625 27.59375 7.515625 
L 36.8125 7.515625 
L 36.8125 0 
L 27.59375 0 
Q 17.1875 0 13.234375 3.875 
Q 9.28125 7.765625 9.28125 18.015625 
L 9.28125 47.703125 
L 2.6875 47.703125 
L 2.6875 54.6875 
L 9.28125 54.6875 
L 9.28125 70.21875 
z
" id="DejaVuSans-116"/>
      <path d="M 32.171875 -5.078125 
Q 28.375 -14.84375 24.75 -17.8125 
Q 21.140625 -20.796875 15.09375 -20.796875 
L 7.90625 -20.796875 
L 7.90625 -13.28125 
L 13.1875 -13.28125 
Q 16.890625 -13.28125 18.9375 -11.515625 
Q 21 -9.765625 23.484375 -3.21875 
L 25.09375 0.875 
L 2.984375 54.6875 
L 12.5 54.6875 
L 29.59375 11.921875 
L 46.6875 54.6875 
L 56.203125 54.6875 
z
" id="DejaVuSans-121"/>
      <path d="M 45.40625 46.390625 
L 45.40625 75.984375 
L 54.390625 75.984375 
L 54.390625 0 
L 45.40625 0 
L 45.40625 8.203125 
Q 42.578125 3.328125 38.25 0.953125 
Q 33.9375 -1.421875 27.875 -1.421875 
Q 17.96875 -1.421875 11.734375 6.484375 
Q 5.515625 14.40625 5.515625 27.296875 
Q 5.515625 40.1875 11.734375 48.09375 
Q 17.96875 56 27.875 56 
Q 33.9375 56 38.25 53.625 
Q 42.578125 51.265625 45.40625 46.390625 
z
M 14.796875 27.296875 
Q 14.796875 17.390625 18.875 11.75 
Q 22.953125 6.109375 30.078125 6.109375 
Q 37.203125 6.109375 41.296875 11.75 
Q 45.40625 17.390625 45.40625 27.296875 
Q 45.40625 37.203125 41.296875 42.84375 
Q 37.203125 48.484375 30.078125 48.484375 
Q 22.953125 48.484375 18.875 42.84375 
Q 14.796875 37.203125 14.796875 27.296875 
z
" id="DejaVuSans-100"/>
     </defs>
     <g transform="translate(23.823854 335.214115)rotate(-90)scale(0.166667 -0.166667)">
      <use xlink:href="#DejaVuSans-78"/>
      <use x="74.804688" xlink:href="#DejaVuSans-117"/>
      <use x="138.183594" xlink:href="#DejaVuSans-109"/>
      <use x="235.595703" xlink:href="#DejaVuSans-98"/>
      <use x="299.072266" xlink:href="#DejaVuSans-101"/>
      <use x="360.595703" xlink:href="#DejaVuSans-114"/>
      <use x="401.708984" xlink:href="#DejaVuSans-32"/>
      <use x="433.496094" xlink:href="#DejaVuSans-111"/>
      <use x="494.677734" xlink:href="#DejaVuSans-102"/>
      <use x="529.882812" xlink:href="#DejaVuSans-32"/>
      <use x="561.669922" xlink:href="#DejaVuSans-65"/>
      <use x="630.0625" xlink:href="#DejaVuSans-116"/>
      <use x="669.271484" xlink:href="#DejaVuSans-116"/>
      <use x="708.480469" xlink:href="#DejaVuSans-32"/>
      <use x="740.267578" xlink:href="#DejaVuSans-115"/>
      <use x="792.367188" xlink:href="#DejaVuSans-116"/>
      <use x="831.576172" xlink:href="#DejaVuSans-114"/>
      <use x="872.689453" xlink:href="#DejaVuSans-97"/>
      <use x="933.96875" xlink:href="#DejaVuSans-116"/>
      <use x="973.177734" xlink:href="#DejaVuSans-101"/>
      <use x="1034.701172" xlink:href="#DejaVuSans-103"/>
      <use x="1098.177734" xlink:href="#DejaVuSans-121"/>
      <use x="1157.357422" xlink:href="#DejaVuSans-32"/>
      <use x="1189.144531" xlink:href="#DejaVuSans-117"/>
      <use x="1252.523438" xlink:href="#DejaVuSans-115"/>
      <use x="1304.623047" xlink:href="#DejaVuSans-101"/>
      <use x="1366.146484" xlink:href="#DejaVuSans-100"/>
     </g>
    </g>
   </g>
   <g id="line2d_11">
    <path clip-path="url(#pda9639dc2c)" d="M 84.897273 317.208118 
L 89.705744 238.201776 
L 94.514215 212.919746 
L 99.322686 228.721015 
L 104.131157 219.240254 
L 108.939628 197.118478 
L 113.748099 203.438985 
L 118.55657 152.874926 
L 123.365041 181.317209 
L 128.173512 118.112135 
L 132.981983 146.554419 
L 137.790455 127.592896 
L 142.598926 159.195433 
L 147.407397 118.112135 
L 152.215868 127.592896 
L 157.024339 80.189091 
L 161.83281 133.913404 
L 166.641281 127.592896 
L 171.449752 159.195433 
L 176.258223 108.631374 
L 181.066694 156.03518 
L 185.875165 152.874926 
L 190.683636 146.554419 
L 195.492107 146.554419 
L 200.300579 178.156956 
L 205.10905 162.355687 
L 209.917521 140.233911 
L 214.725992 193.958224 
L 219.534463 159.195433 
L 224.342934 197.118478 
L 229.151405 216.08 
L 233.959876 212.919746 
L 238.768347 231.881268 
L 243.576818 228.721015 
L 248.385289 228.721015 
L 253.19376 238.201776 
L 258.002231 250.842791 
L 262.810702 254.003044 
L 267.619174 250.842791 
L 272.427645 260.323552 
L 277.236116 269.804313 
L 282.044587 263.483805 
L 286.853058 291.926089 
L 291.661529 279.285074 
L 296.47 272.964567 
L 301.278471 260.323552 
L 306.086942 263.483805 
L 310.895413 298.246596 
L 315.703884 276.12482 
L 320.512355 282.445328 
L 325.320826 279.285074 
L 330.129298 295.086342 
L 334.937769 314.047865 
L 339.74624 314.047865 
L 344.554711 336.169641 
L 349.363182 336.169641 
L 354.171653 323.528626 
L 358.980124 339.329894 
L 363.788595 336.169641 
L 368.597066 339.329894 
L 373.405537 329.849133 
L 378.214008 342.490148 
L 383.022479 326.688879 
L 387.83095 333.009387 
L 392.639421 336.169641 
L 397.447893 326.688879 
L 402.256364 333.009387 
L 407.064835 333.009387 
L 411.873306 339.329894 
L 416.681777 333.009387 
L 421.490248 336.169641 
L 426.298719 345.650402 
L 431.10719 339.329894 
L 435.915661 339.329894 
L 440.724132 345.650402 
L 445.532603 339.329894 
L 450.341074 339.329894 
L 455.149545 329.849133 
L 459.958017 336.169641 
L 464.766488 329.849133 
L 469.574959 329.849133 
L 474.38343 339.329894 
L 479.191901 348.810655 
L 484.000372 342.490148 
L 488.808843 339.329894 
L 493.617314 345.650402 
L 498.425785 345.650402 
L 503.234256 345.650402 
L 508.042727 336.169641 
" style="fill:none;stroke:#1f77b4;stroke-linecap:square;stroke-width:1.5;"/>
   </g>
   <g id="line2d_12">
    <path clip-path="url(#pda9639dc2c)" d="M 84.897273 317.208118 
L 89.705744 317.208118 
L 94.514215 301.40685 
L 99.322686 304.567104 
L 104.131157 291.926089 
L 108.939628 291.926089 
L 113.748099 279.285074 
L 118.55657 285.605581 
L 123.365041 282.445328 
L 128.173512 291.926089 
L 132.981983 279.285074 
L 137.790455 272.964567 
L 142.598926 266.644059 
L 147.407397 257.163298 
L 152.215868 298.246596 
L 157.024339 276.12482 
L 161.83281 272.964567 
L 166.641281 244.522283 
L 171.449752 288.765835 
L 176.258223 288.765835 
L 181.066694 285.605581 
L 185.875165 244.522283 
L 190.683636 288.765835 
L 195.492107 282.445328 
L 200.300579 282.445328 
L 205.10905 288.765835 
L 209.917521 304.567104 
L 214.725992 285.605581 
L 219.534463 298.246596 
L 224.342934 307.727357 
L 229.151405 301.40685 
L 233.959876 320.368372 
L 238.768347 288.765835 
L 243.576818 317.208118 
L 248.385289 301.40685 
L 253.19376 304.567104 
L 258.002231 323.528626 
L 262.810702 307.727357 
L 267.619174 301.40685 
L 272.427645 317.208118 
L 277.236116 329.849133 
L 282.044587 329.849133 
L 286.853058 329.849133 
L 291.661529 339.329894 
L 296.47 342.490148 
L 301.278471 336.169641 
L 306.086942 329.849133 
L 310.895413 336.169641 
L 315.703884 339.329894 
L 320.512355 339.329894 
L 325.320826 336.169641 
L 330.129298 339.329894 
L 334.937769 345.650402 
L 339.74624 342.490148 
L 344.554711 342.490148 
L 349.363182 339.329894 
L 354.171653 351.970909 
L 358.980124 345.650402 
L 363.788595 345.650402 
L 368.597066 339.329894 
L 373.405537 345.650402 
L 378.214008 351.970909 
L 383.022479 351.970909 
L 387.83095 345.650402 
L 392.639421 351.970909 
L 397.447893 348.810655 
L 402.256364 339.329894 
L 407.064835 348.810655 
L 411.873306 348.810655 
L 416.681777 348.810655 
L 421.490248 348.810655 
L 426.298719 348.810655 
L 431.10719 345.650402 
L 435.915661 345.650402 
L 440.724132 348.810655 
L 445.532603 342.490148 
L 450.341074 345.650402 
L 455.149545 345.650402 
L 459.958017 351.970909 
L 464.766488 342.490148 
L 469.574959 351.970909 
L 474.38343 351.970909 
L 479.191901 348.810655 
L 484.000372 351.970909 
L 488.808843 351.970909 
L 493.617314 342.490148 
L 498.425785 345.650402 
L 503.234256 351.970909 
L 508.042727 351.970909 
" style="fill:none;stroke:#ff7f0e;stroke-linecap:square;stroke-width:1.5;"/>
   </g>
   <g id="line2d_13">
    <path clip-path="url(#pda9639dc2c)" d="M 84.897273 329.849133 
L 89.705744 326.688879 
L 94.514215 323.528626 
L 99.322686 314.047865 
L 104.131157 320.368372 
L 108.939628 320.368372 
L 113.748099 295.086342 
L 118.55657 298.246596 
L 123.365041 282.445328 
L 128.173512 288.765835 
L 132.981983 301.40685 
L 137.790455 269.804313 
L 142.598926 269.804313 
L 147.407397 269.804313 
L 152.215868 282.445328 
L 157.024339 285.605581 
L 161.83281 279.285074 
L 166.641281 298.246596 
L 171.449752 291.926089 
L 176.258223 288.765835 
L 181.066694 288.765835 
L 185.875165 285.605581 
L 190.683636 285.605581 
L 195.492107 304.567104 
L 200.300579 295.086342 
L 205.10905 282.445328 
L 209.917521 301.40685 
L 214.725992 288.765835 
L 219.534463 298.246596 
L 224.342934 314.047865 
L 229.151405 310.887611 
L 233.959876 323.528626 
L 238.768347 323.528626 
L 243.576818 304.567104 
L 248.385289 323.528626 
L 253.19376 304.567104 
L 258.002231 323.528626 
L 262.810702 336.169641 
L 267.619174 342.490148 
L 272.427645 326.688879 
L 277.236116 320.368372 
L 282.044587 333.009387 
L 286.853058 339.329894 
L 291.661529 329.849133 
L 296.47 333.009387 
L 301.278471 333.009387 
L 306.086942 348.810655 
L 310.895413 326.688879 
L 315.703884 333.009387 
L 320.512355 342.490148 
L 325.320826 345.650402 
L 330.129298 345.650402 
L 334.937769 333.009387 
L 339.74624 342.490148 
L 344.554711 348.810655 
L 349.363182 345.650402 
L 354.171653 348.810655 
L 358.980124 339.329894 
L 363.788595 345.650402 
L 368.597066 348.810655 
L 373.405537 351.970909 
L 378.214008 329.849133 
L 383.022479 348.810655 
L 387.83095 348.810655 
L 392.639421 348.810655 
L 397.447893 348.810655 
L 402.256364 345.650402 
L 407.064835 351.970909 
L 411.873306 345.650402 
L 416.681777 351.970909 
L 421.490248 342.490148 
L 426.298719 351.970909 
L 431.10719 345.650402 
L 435.915661 345.650402 
L 440.724132 348.810655 
L 445.532603 348.810655 
L 450.341074 342.490148 
L 455.149545 348.810655 
L 459.958017 348.810655 
L 464.766488 348.810655 
L 469.574959 348.810655 
L 474.38343 348.810655 
L 479.191901 348.810655 
L 484.000372 348.810655 
L 488.808843 348.810655 
L 493.617314 348.810655 
L 498.425785 348.810655 
L 503.234256 348.810655 
L 508.042727 351.970909 
" style="fill:none;stroke:#2ca02c;stroke-linecap:square;stroke-width:1.5;"/>
   </g>
   <g id="line2d_14">
    <path clip-path="url(#pda9639dc2c)" d="M 84.897273 279.285074 
L 89.705744 317.208118 
L 94.514215 320.368372 
L 99.322686 317.208118 
L 104.131157 285.605581 
L 108.939628 310.887611 
L 113.748099 298.246596 
L 118.55657 295.086342 
L 123.365041 298.246596 
L 128.173512 285.605581 
L 132.981983 295.086342 
L 137.790455 295.086342 
L 142.598926 269.804313 
L 147.407397 282.445328 
L 152.215868 282.445328 
L 157.024339 307.727357 
L 161.83281 276.12482 
L 166.641281 266.644059 
L 171.449752 288.765835 
L 176.258223 301.40685 
L 181.066694 276.12482 
L 185.875165 291.926089 
L 190.683636 304.567104 
L 195.492107 263.483805 
L 200.300579 295.086342 
L 205.10905 291.926089 
L 209.917521 291.926089 
L 214.725992 314.047865 
L 219.534463 310.887611 
L 224.342934 314.047865 
L 229.151405 314.047865 
L 233.959876 314.047865 
L 238.768347 323.528626 
L 243.576818 310.887611 
L 248.385289 310.887611 
L 253.19376 333.009387 
L 258.002231 310.887611 
L 262.810702 336.169641 
L 267.619174 323.528626 
L 272.427645 333.009387 
L 277.236116 326.688879 
L 282.044587 333.009387 
L 286.853058 345.650402 
L 291.661529 336.169641 
L 296.47 339.329894 
L 301.278471 329.849133 
L 306.086942 333.009387 
L 310.895413 333.009387 
L 315.703884 342.490148 
L 320.512355 339.329894 
L 325.320826 345.650402 
L 330.129298 336.169641 
L 334.937769 342.490148 
L 339.74624 348.810655 
L 344.554711 351.970909 
L 349.363182 342.490148 
L 354.171653 342.490148 
L 358.980124 345.650402 
L 363.788595 342.490148 
L 368.597066 348.810655 
L 373.405537 348.810655 
L 378.214008 351.970909 
L 383.022479 345.650402 
L 387.83095 345.650402 
L 392.639421 345.650402 
L 397.447893 342.490148 
L 402.256364 351.970909 
L 407.064835 339.329894 
L 411.873306 348.810655 
L 416.681777 345.650402 
L 421.490248 348.810655 
L 426.298719 348.810655 
L 431.10719 351.970909 
L 435.915661 351.970909 
L 440.724132 348.810655 
L 445.532603 345.650402 
L 450.341074 351.970909 
L 455.149545 348.810655 
L 459.958017 345.650402 
L 464.766488 351.970909 
L 469.574959 345.650402 
L 474.38343 336.169641 
L 479.191901 348.810655 
L 484.000372 342.490148 
L 488.808843 351.970909 
L 493.617314 348.810655 
L 498.425785 348.810655 
L 503.234256 351.970909 
L 508.042727 351.970909 
" style="fill:none;stroke:#d62728;stroke-linecap:square;stroke-width:1.5;"/>
   </g>
   <g id="line2d_15">
    <path clip-path="url(#pda9639dc2c)" d="M 84.897273 307.727357 
L 89.705744 310.887611 
L 94.514215 307.727357 
L 99.322686 317.208118 
L 104.131157 314.047865 
L 108.939628 291.926089 
L 113.748099 279.285074 
L 118.55657 314.047865 
L 123.365041 288.765835 
L 128.173512 301.40685 
L 132.981983 269.804313 
L 137.790455 276.12482 
L 142.598926 269.804313 
L 147.407397 276.12482 
L 152.215868 266.644059 
L 157.024339 263.483805 
L 161.83281 260.323552 
L 166.641281 276.12482 
L 171.449752 241.36203 
L 176.258223 282.445328 
L 181.066694 244.522283 
L 185.875165 276.12482 
L 190.683636 260.323552 
L 195.492107 263.483805 
L 200.300579 260.323552 
L 205.10905 257.163298 
L 209.917521 266.644059 
L 214.725992 266.644059 
L 219.534463 272.964567 
L 224.342934 276.12482 
L 229.151405 288.765835 
L 233.959876 269.804313 
L 238.768347 291.926089 
L 243.576818 304.567104 
L 248.385289 295.086342 
L 253.19376 276.12482 
L 258.002231 323.528626 
L 262.810702 304.567104 
L 267.619174 326.688879 
L 272.427645 320.368372 
L 277.236116 317.208118 
L 282.044587 291.926089 
L 286.853058 310.887611 
L 291.661529 310.887611 
L 296.47 314.047865 
L 301.278471 307.727357 
L 306.086942 320.368372 
L 310.895413 326.688879 
L 315.703884 329.849133 
L 320.512355 336.169641 
L 325.320826 333.009387 
L 330.129298 336.169641 
L 334.937769 336.169641 
L 339.74624 323.528626 
L 344.554711 323.528626 
L 349.363182 342.490148 
L 354.171653 342.490148 
L 358.980124 339.329894 
L 363.788595 339.329894 
L 368.597066 339.329894 
L 373.405537 345.650402 
L 378.214008 345.650402 
L 383.022479 342.490148 
L 387.83095 348.810655 
L 392.639421 339.329894 
L 397.447893 345.650402 
L 402.256364 345.650402 
L 407.064835 345.650402 
L 411.873306 336.169641 
L 416.681777 342.490148 
L 421.490248 342.490148 
L 426.298719 329.849133 
L 431.10719 342.490148 
L 435.915661 333.009387 
L 440.724132 339.329894 
L 445.532603 339.329894 
L 450.341074 348.810655 
L 455.149545 345.650402 
L 459.958017 345.650402 
L 464.766488 348.810655 
L 469.574959 348.810655 
L 474.38343 336.169641 
L 479.191901 342.490148 
L 484.000372 351.970909 
L 488.808843 345.650402 
L 493.617314 351.970909 
L 498.425785 348.810655 
L 503.234256 351.970909 
L 508.042727 345.650402 
" style="fill:none;stroke:#9467bd;stroke-linecap:square;stroke-width:1.5;"/>
   </g>
   <g id="line2d_16">
    <path clip-path="url(#pda9639dc2c)" d="M 84.897273 301.40685 
L 89.705744 310.887611 
L 94.514215 326.688879 
L 99.322686 291.926089 
L 104.131157 314.047865 
L 108.939628 295.086342 
L 113.748099 333.009387 
L 118.55657 301.40685 
L 123.365041 285.605581 
L 128.173512 323.528626 
L 132.981983 291.926089 
L 137.790455 298.246596 
L 142.598926 301.40685 
L 147.407397 298.246596 
L 152.215868 301.40685 
L 157.024339 295.086342 
L 161.83281 272.964567 
L 166.641281 301.40685 
L 171.449752 291.926089 
L 176.258223 295.086342 
L 181.066694 276.12482 
L 185.875165 295.086342 
L 190.683636 307.727357 
L 195.492107 301.40685 
L 200.300579 298.246596 
L 205.10905 323.528626 
L 209.917521 301.40685 
L 214.725992 320.368372 
L 219.534463 310.887611 
L 224.342934 304.567104 
L 229.151405 310.887611 
L 233.959876 320.368372 
L 238.768347 310.887611 
L 243.576818 317.208118 
L 248.385289 333.009387 
L 253.19376 323.528626 
L 258.002231 329.849133 
L 262.810702 329.849133 
L 267.619174 348.810655 
L 272.427645 333.009387 
L 277.236116 326.688879 
L 282.044587 329.849133 
L 286.853058 320.368372 
L 291.661529 339.329894 
L 296.47 329.849133 
L 301.278471 339.329894 
L 306.086942 336.169641 
L 310.895413 342.490148 
L 315.703884 329.849133 
L 320.512355 336.169641 
L 325.320826 326.688879 
L 330.129298 342.490148 
L 334.937769 342.490148 
L 339.74624 348.810655 
L 344.554711 345.650402 
L 349.363182 345.650402 
L 354.171653 336.169641 
L 358.980124 342.490148 
L 363.788595 342.490148 
L 368.597066 348.810655 
L 373.405537 345.650402 
L 378.214008 348.810655 
L 383.022479 351.970909 
L 387.83095 348.810655 
L 392.639421 351.970909 
L 397.447893 351.970909 
L 402.256364 345.650402 
L 407.064835 345.650402 
L 411.873306 342.490148 
L 416.681777 345.650402 
L 421.490248 345.650402 
L 426.298719 345.650402 
L 431.10719 345.650402 
L 435.915661 348.810655 
L 440.724132 345.650402 
L 445.532603 348.810655 
L 450.341074 348.810655 
L 455.149545 351.970909 
L 459.958017 351.970909 
L 464.766488 342.490148 
L 469.574959 345.650402 
L 474.38343 351.970909 
L 479.191901 348.810655 
L 484.000372 351.970909 
L 488.808843 351.970909 
L 493.617314 351.970909 
L 498.425785 348.810655 
L 503.234256 345.650402 
L 508.042727 348.810655 
" style="fill:none;stroke:#8c564b;stroke-linecap:square;stroke-width:1.5;"/>
   </g>
   <g id="line2d_17">
    <path clip-path="url(#pda9639dc2c)" d="M 84.897273 317.208118 
L 89.705744 317.208118 
L 94.514215 310.887611 
L 99.322686 298.246596 
L 104.131157 298.246596 
L 108.939628 310.887611 
L 113.748099 295.086342 
L 118.55657 291.926089 
L 123.365041 295.086342 
L 128.173512 285.605581 
L 132.981983 288.765835 
L 137.790455 295.086342 
L 142.598926 276.12482 
L 147.407397 282.445328 
L 152.215868 257.163298 
L 157.024339 298.246596 
L 161.83281 298.246596 
L 166.641281 291.926089 
L 171.449752 272.964567 
L 176.258223 279.285074 
L 181.066694 295.086342 
L 185.875165 266.644059 
L 190.683636 282.445328 
L 195.492107 301.40685 
L 200.300579 285.605581 
L 205.10905 288.765835 
L 209.917521 282.445328 
L 214.725992 291.926089 
L 219.534463 276.12482 
L 224.342934 276.12482 
L 229.151405 304.567104 
L 233.959876 307.727357 
L 238.768347 298.246596 
L 243.576818 314.047865 
L 248.385289 314.047865 
L 253.19376 320.368372 
L 258.002231 310.887611 
L 262.810702 317.208118 
L 267.619174 310.887611 
L 272.427645 317.208118 
L 277.236116 317.208118 
L 282.044587 317.208118 
L 286.853058 320.368372 
L 291.661529 314.047865 
L 296.47 310.887611 
L 301.278471 342.490148 
L 306.086942 336.169641 
L 310.895413 329.849133 
L 315.703884 329.849133 
L 320.512355 317.208118 
L 325.320826 329.849133 
L 330.129298 326.688879 
L 334.937769 323.528626 
L 339.74624 336.169641 
L 344.554711 345.650402 
L 349.363182 336.169641 
L 354.171653 348.810655 
L 358.980124 339.329894 
L 363.788595 345.650402 
L 368.597066 342.490148 
L 373.405537 345.650402 
L 378.214008 339.329894 
L 383.022479 348.810655 
L 387.83095 342.490148 
L 392.639421 345.650402 
L 397.447893 348.810655 
L 402.256364 345.650402 
L 407.064835 345.650402 
L 411.873306 348.810655 
L 416.681777 345.650402 
L 421.490248 351.970909 
L 426.298719 348.810655 
L 431.10719 348.810655 
L 435.915661 348.810655 
L 440.724132 339.329894 
L 445.532603 351.970909 
L 450.341074 345.650402 
L 455.149545 345.650402 
L 459.958017 339.329894 
L 464.766488 348.810655 
L 469.574959 345.650402 
L 474.38343 345.650402 
L 479.191901 348.810655 
L 484.000372 348.810655 
L 488.808843 345.650402 
L 493.617314 348.810655 
L 498.425785 351.970909 
L 503.234256 339.329894 
L 508.042727 348.810655 
" style="fill:none;stroke:#e377c2;stroke-linecap:square;stroke-width:1.5;"/>
   </g>
   <g id="line2d_18">
    <path clip-path="url(#pda9639dc2c)" d="M 84.897273 329.849133 
L 89.705744 314.047865 
L 94.514215 314.047865 
L 99.322686 314.047865 
L 104.131157 314.047865 
L 108.939628 301.40685 
L 113.748099 295.086342 
L 118.55657 310.887611 
L 123.365041 298.246596 
L 128.173512 295.086342 
L 132.981983 291.926089 
L 137.790455 291.926089 
L 142.598926 282.445328 
L 147.407397 291.926089 
L 152.215868 276.12482 
L 157.024339 282.445328 
L 161.83281 298.246596 
L 166.641281 288.765835 
L 171.449752 291.926089 
L 176.258223 279.285074 
L 181.066694 304.567104 
L 185.875165 298.246596 
L 190.683636 276.12482 
L 195.492107 314.047865 
L 200.300579 304.567104 
L 205.10905 295.086342 
L 209.917521 301.40685 
L 214.725992 269.804313 
L 219.534463 320.368372 
L 224.342934 320.368372 
L 229.151405 310.887611 
L 233.959876 317.208118 
L 238.768347 333.009387 
L 243.576818 317.208118 
L 248.385289 323.528626 
L 253.19376 326.688879 
L 258.002231 323.528626 
L 262.810702 320.368372 
L 267.619174 314.047865 
L 272.427645 329.849133 
L 277.236116 336.169641 
L 282.044587 342.490148 
L 286.853058 336.169641 
L 291.661529 339.329894 
L 296.47 339.329894 
L 301.278471 333.009387 
L 306.086942 326.688879 
L 310.895413 339.329894 
L 315.703884 345.650402 
L 320.512355 339.329894 
L 325.320826 339.329894 
L 330.129298 333.009387 
L 334.937769 336.169641 
L 339.74624 339.329894 
L 344.554711 345.650402 
L 349.363182 351.970909 
L 354.171653 345.650402 
L 358.980124 348.810655 
L 363.788595 342.490148 
L 368.597066 345.650402 
L 373.405537 351.970909 
L 378.214008 348.810655 
L 383.022479 345.650402 
L 387.83095 348.810655 
L 392.639421 342.490148 
L 397.447893 348.810655 
L 402.256364 351.970909 
L 407.064835 348.810655 
L 411.873306 348.810655 
L 416.681777 345.650402 
L 421.490248 345.650402 
L 426.298719 342.490148 
L 431.10719 345.650402 
L 435.915661 351.970909 
L 440.724132 348.810655 
L 445.532603 345.650402 
L 450.341074 339.329894 
L 455.149545 348.810655 
L 459.958017 345.650402 
L 464.766488 351.970909 
L 469.574959 348.810655 
L 474.38343 351.970909 
L 479.191901 351.970909 
L 484.000372 348.810655 
L 488.808843 351.970909 
L 493.617314 348.810655 
L 498.425785 348.810655 
L 503.234256 351.970909 
L 508.042727 351.970909 
" style="fill:none;stroke:#7f7f7f;stroke-linecap:square;stroke-width:1.5;"/>
   </g>
   <g id="patch_3">
    <path d="M 63.74 365.56 
L 63.74 66.6 
" style="fill:none;stroke:#000000;stroke-linecap:square;stroke-linejoin:miter;stroke-width:0.8;"/>
   </g>
   <g id="patch_4">
    <path d="M 529.2 365.56 
L 529.2 66.6 
" style="fill:none;stroke:#000000;stroke-linecap:square;stroke-linejoin:miter;stroke-width:0.8;"/>
   </g>
   <g id="patch_5">
    <path d="M 63.74 365.56 
L 529.2 365.56 
" style="fill:none;stroke:#000000;stroke-linecap:square;stroke-linejoin:miter;stroke-width:0.8;"/>
   </g>
   <g id="patch_6">
    <path d="M 63.74 66.6 
L 529.2 66.6 
" style="fill:none;stroke:#000000;stroke-linecap:square;stroke-linejoin:miter;stroke-width:0.8;"/>
   </g>
   <g id="legend_1">
    <g id="patch_7">
     <path d="M 74.24 59.1 
L 518.7 59.1 
Q 521.7 59.1 521.7 56.1 
L 521.7 13.565625 
Q 521.7 10.565625 518.7 10.565625 
L 74.24 10.565625 
Q 71.24 10.565625 71.24 13.565625 
L 71.24 56.1 
Q 71.24 59.1 74.24 59.1 
z
" style="fill:#ffffff;opacity:0.8;stroke:#cccccc;stroke-linejoin:miter;"/>
    </g>
    <g id="line2d_19">
     <path d="M 77.24 22.713281 
L 107.24 22.713281 
" style="fill:none;stroke:#1f77b4;stroke-linecap:square;stroke-width:1.5;"/>
    </g>
    <g id="line2d_20"/>
    <g id="text_13">
     <!-- Stra 1 -->
     <defs>
      <path d="M 53.515625 70.515625 
L 53.515625 60.890625 
Q 47.90625 63.578125 42.921875 64.890625 
Q 37.9375 66.21875 33.296875 66.21875 
Q 25.25 66.21875 20.875 63.09375 
Q 16.5 59.96875 16.5 54.203125 
Q 16.5 49.359375 19.40625 46.890625 
Q 22.3125 44.4375 30.421875 42.921875 
L 36.375 41.703125 
Q 47.40625 39.59375 52.65625 34.296875 
Q 57.90625 29 57.90625 20.125 
Q 57.90625 9.515625 50.796875 4.046875 
Q 43.703125 -1.421875 29.984375 -1.421875 
Q 24.8125 -1.421875 18.96875 -0.25 
Q 13.140625 0.921875 6.890625 3.21875 
L 6.890625 13.375 
Q 12.890625 10.015625 18.65625 8.296875 
Q 24.421875 6.59375 29.984375 6.59375 
Q 38.421875 6.59375 43.015625 9.90625 
Q 47.609375 13.234375 47.609375 19.390625 
Q 47.609375 24.75 44.3125 27.78125 
Q 41.015625 30.8125 33.5 32.328125 
L 27.484375 33.5 
Q 16.453125 35.6875 11.515625 40.375 
Q 6.59375 45.0625 6.59375 53.421875 
Q 6.59375 63.09375 13.40625 68.65625 
Q 20.21875 74.21875 32.171875 74.21875 
Q 37.3125 74.21875 42.625 73.28125 
Q 47.953125 72.359375 53.515625 70.515625 
z
" id="DejaVuSans-83"/>
      <path d="M 12.40625 8.296875 
L 28.515625 8.296875 
L 28.515625 63.921875 
L 10.984375 60.40625 
L 10.984375 69.390625 
L 28.421875 72.90625 
L 38.28125 72.90625 
L 38.28125 8.296875 
L 54.390625 8.296875 
L 54.390625 0 
L 12.40625 0 
z
" id="DejaVuSans-49"/>
     </defs>
     <g transform="translate(119.24 27.963281)scale(0.15 -0.15)">
      <use xlink:href="#DejaVuSans-83"/>
      <use x="63.476562" xlink:href="#DejaVuSans-116"/>
      <use x="102.685547" xlink:href="#DejaVuSans-114"/>
      <use x="143.798828" xlink:href="#DejaVuSans-97"/>
      <use x="205.078125" xlink:href="#DejaVuSans-32"/>
      <use x="236.865234" xlink:href="#DejaVuSans-49"/>
     </g>
    </g>
    <g id="line2d_21">
     <path d="M 77.24 44.730469 
L 107.24 44.730469 
" style="fill:none;stroke:#ff7f0e;stroke-linecap:square;stroke-width:1.5;"/>
    </g>
    <g id="line2d_22"/>
    <g id="text_14">
     <!-- Stra 2 -->
     <g transform="translate(119.24 49.980469)scale(0.15 -0.15)">
      <use xlink:href="#DejaVuSans-83"/>
      <use x="63.476562" xlink:href="#DejaVuSans-116"/>
      <use x="102.685547" xlink:href="#DejaVuSans-114"/>
      <use x="143.798828" xlink:href="#DejaVuSans-97"/>
      <use x="205.078125" xlink:href="#DejaVuSans-32"/>
      <use x="236.865234" xlink:href="#DejaVuSans-50"/>
     </g>
    </g>
    <g id="line2d_23">
     <path d="M 194.369115 22.713281 
L 224.369115 22.713281 
" style="fill:none;stroke:#2ca02c;stroke-linecap:square;stroke-width:1.5;"/>
    </g>
    <g id="line2d_24"/>
    <g id="text_15">
     <!-- Stra 3 -->
     <defs>
      <path d="M 40.578125 39.3125 
Q 47.65625 37.796875 51.625 33 
Q 55.609375 28.21875 55.609375 21.1875 
Q 55.609375 10.40625 48.1875 4.484375 
Q 40.765625 -1.421875 27.09375 -1.421875 
Q 22.515625 -1.421875 17.65625 -0.515625 
Q 12.796875 0.390625 7.625 2.203125 
L 7.625 11.71875 
Q 11.71875 9.328125 16.59375 8.109375 
Q 21.484375 6.890625 26.8125 6.890625 
Q 36.078125 6.890625 40.9375 10.546875 
Q 45.796875 14.203125 45.796875 21.1875 
Q 45.796875 27.640625 41.28125 31.265625 
Q 36.765625 34.90625 28.71875 34.90625 
L 20.21875 34.90625 
L 20.21875 43.015625 
L 29.109375 43.015625 
Q 36.375 43.015625 40.234375 45.921875 
Q 44.09375 48.828125 44.09375 54.296875 
Q 44.09375 59.90625 40.109375 62.90625 
Q 36.140625 65.921875 28.71875 65.921875 
Q 24.65625 65.921875 20.015625 65.03125 
Q 15.375 64.15625 9.8125 62.3125 
L 9.8125 71.09375 
Q 15.4375 72.65625 20.34375 73.4375 
Q 25.25 74.21875 29.59375 74.21875 
Q 40.828125 74.21875 47.359375 69.109375 
Q 53.90625 64.015625 53.90625 55.328125 
Q 53.90625 49.265625 50.4375 45.09375 
Q 46.96875 40.921875 40.578125 39.3125 
z
" id="DejaVuSans-51"/>
     </defs>
     <g transform="translate(236.369115 27.963281)scale(0.15 -0.15)">
      <use xlink:href="#DejaVuSans-83"/>
      <use x="63.476562" xlink:href="#DejaVuSans-116"/>
      <use x="102.685547" xlink:href="#DejaVuSans-114"/>
      <use x="143.798828" xlink:href="#DejaVuSans-97"/>
      <use x="205.078125" xlink:href="#DejaVuSans-32"/>
      <use x="236.865234" xlink:href="#DejaVuSans-51"/>
     </g>
    </g>
    <g id="line2d_25">
     <path d="M 194.369115 44.730469 
L 224.369115 44.730469 
" style="fill:none;stroke:#d62728;stroke-linecap:square;stroke-width:1.5;"/>
    </g>
    <g id="line2d_26"/>
    <g id="text_16">
     <!-- Stra 4 -->
     <g transform="translate(236.369115 49.980469)scale(0.15 -0.15)">
      <use xlink:href="#DejaVuSans-83"/>
      <use x="63.476562" xlink:href="#DejaVuSans-116"/>
      <use x="102.685547" xlink:href="#DejaVuSans-114"/>
      <use x="143.798828" xlink:href="#DejaVuSans-97"/>
      <use x="205.078125" xlink:href="#DejaVuSans-32"/>
      <use x="236.865234" xlink:href="#DejaVuSans-52"/>
     </g>
    </g>
    <g id="line2d_27">
     <path d="M 311.498229 22.713281 
L 341.498229 22.713281 
" style="fill:none;stroke:#9467bd;stroke-linecap:square;stroke-width:1.5;"/>
    </g>
    <g id="line2d_28"/>
    <g id="text_17">
     <!-- Stra 5 -->
     <defs>
      <path d="M 10.796875 72.90625 
L 49.515625 72.90625 
L 49.515625 64.59375 
L 19.828125 64.59375 
L 19.828125 46.734375 
Q 21.96875 47.46875 24.109375 47.828125 
Q 26.265625 48.1875 28.421875 48.1875 
Q 40.625 48.1875 47.75 41.5 
Q 54.890625 34.8125 54.890625 23.390625 
Q 54.890625 11.625 47.5625 5.09375 
Q 40.234375 -1.421875 26.90625 -1.421875 
Q 22.3125 -1.421875 17.546875 -0.640625 
Q 12.796875 0.140625 7.71875 1.703125 
L 7.71875 11.625 
Q 12.109375 9.234375 16.796875 8.0625 
Q 21.484375 6.890625 26.703125 6.890625 
Q 35.15625 6.890625 40.078125 11.328125 
Q 45.015625 15.765625 45.015625 23.390625 
Q 45.015625 31 40.078125 35.4375 
Q 35.15625 39.890625 26.703125 39.890625 
Q 22.75 39.890625 18.8125 39.015625 
Q 14.890625 38.140625 10.796875 36.28125 
z
" id="DejaVuSans-53"/>
     </defs>
     <g transform="translate(353.498229 27.963281)scale(0.15 -0.15)">
      <use xlink:href="#DejaVuSans-83"/>
      <use x="63.476562" xlink:href="#DejaVuSans-116"/>
      <use x="102.685547" xlink:href="#DejaVuSans-114"/>
      <use x="143.798828" xlink:href="#DejaVuSans-97"/>
      <use x="205.078125" xlink:href="#DejaVuSans-32"/>
      <use x="236.865234" xlink:href="#DejaVuSans-53"/>
     </g>
    </g>
    <g id="line2d_29">
     <path d="M 311.498229 44.730469 
L 341.498229 44.730469 
" style="fill:none;stroke:#8c564b;stroke-linecap:square;stroke-width:1.5;"/>
    </g>
    <g id="line2d_30"/>
    <g id="text_18">
     <!-- Stra 6 -->
     <g transform="translate(353.498229 49.980469)scale(0.15 -0.15)">
      <use xlink:href="#DejaVuSans-83"/>
      <use x="63.476562" xlink:href="#DejaVuSans-116"/>
      <use x="102.685547" xlink:href="#DejaVuSans-114"/>
      <use x="143.798828" xlink:href="#DejaVuSans-97"/>
      <use x="205.078125" xlink:href="#DejaVuSans-32"/>
      <use x="236.865234" xlink:href="#DejaVuSans-54"/>
     </g>
    </g>
    <g id="line2d_31">
     <path d="M 428.627344 22.713281 
L 458.627344 22.713281 
" style="fill:none;stroke:#e377c2;stroke-linecap:square;stroke-width:1.5;"/>
    </g>
    <g id="line2d_32"/>
    <g id="text_19">
     <!-- Stra 7 -->
     <defs>
      <path d="M 8.203125 72.90625 
L 55.078125 72.90625 
L 55.078125 68.703125 
L 28.609375 0 
L 18.3125 0 
L 43.21875 64.59375 
L 8.203125 64.59375 
z
" id="DejaVuSans-55"/>
     </defs>
     <g transform="translate(470.627344 27.963281)scale(0.15 -0.15)">
      <use xlink:href="#DejaVuSans-83"/>
      <use x="63.476562" xlink:href="#DejaVuSans-116"/>
      <use x="102.685547" xlink:href="#DejaVuSans-114"/>
      <use x="143.798828" xlink:href="#DejaVuSans-97"/>
      <use x="205.078125" xlink:href="#DejaVuSans-32"/>
      <use x="236.865234" xlink:href="#DejaVuSans-55"/>
     </g>
    </g>
    <g id="line2d_33">
     <path d="M 428.627344 44.730469 
L 458.627344 44.730469 
" style="fill:none;stroke:#7f7f7f;stroke-linecap:square;stroke-width:1.5;"/>
    </g>
    <g id="line2d_34"/>
    <g id="text_20">
     <!-- Stra 8 -->
     <g transform="translate(470.627344 49.980469)scale(0.15 -0.15)">
      <use xlink:href="#DejaVuSans-83"/>
      <use x="63.476562" xlink:href="#DejaVuSans-116"/>
      <use x="102.685547" xlink:href="#DejaVuSans-114"/>
      <use x="143.798828" xlink:href="#DejaVuSans-97"/>
      <use x="205.078125" xlink:href="#DejaVuSans-32"/>
      <use x="236.865234" xlink:href="#DejaVuSans-56"/>
     </g>
    </g>
   </g>
  </g>
 </g>
 <defs>
  <clipPath id="pda9639dc2c">
   <rect height="298.96" width="465.46" x="63.74" y="66.6"/>
  </clipPath>
 </defs>
</svg>
