<?xml version="1.0" encoding="utf-8" standalone="no"?>
<!DOCTYPE svg PUBLIC "-//W3C//DTD SVG 1.1//EN"
  "http://www.w3.org/Graphics/SVG/1.1/DTD/svg11.dtd">
<!-- Created with matplotlib (https://matplotlib.org/) -->
<svg height="432pt" version="1.1" viewBox="0 0 540 432" width="540pt" xmlns="http://www.w3.org/2000/svg" xmlns:xlink="http://www.w3.org/1999/xlink">
 <defs>
  <style type="text/css">
*{stroke-linecap:butt;stroke-linejoin:round;}
  </style>
 </defs>
 <g id="figure_1">
  <g id="patch_1">
   <path d="M 0 432 
L 540 432 
L 540 0 
L 0 0 
z
" style="fill:#ffffff;"/>
  </g>
  <g id="axes_1">
   <g id="patch_2">
    <path d="M 70.13 365.56 
L 529.2 365.56 
L 529.2 66.6 
L 70.13 66.6 
z
" style="fill:#ffffff;"/>
   </g>
   <g id="matplotlib.axis_1">
    <g id="xtick_1">
     <g id="line2d_1">
      <defs>
       <path d="M 0 0 
L 0 3.5 
" id="m11c939cffb" style="stroke:#000000;stroke-width:0.8;"/>
      </defs>
      <g>
       <use style="stroke:#000000;stroke-width:0.8;" x="90.996818" xlink:href="#m11c939cffb" y="365.56"/>
      </g>
     </g>
     <g id="text_1">
      <!-- 0 -->
      <defs>
       <path d="M 31.78125 66.40625 
Q 24.171875 66.40625 20.328125 58.90625 
Q 16.5 51.421875 16.5 36.375 
Q 16.5 21.390625 20.328125 13.890625 
Q 24.171875 6.390625 31.78125 6.390625 
Q 39.453125 6.390625 43.28125 13.890625 
Q 47.125 21.390625 47.125 36.375 
Q 47.125 51.421875 43.28125 58.90625 
Q 39.453125 66.40625 31.78125 66.40625 
z
M 31.78125 74.21875 
Q 44.046875 74.21875 50.515625 64.515625 
Q 56.984375 54.828125 56.984375 36.375 
Q 56.984375 17.96875 50.515625 8.265625 
Q 44.046875 -1.421875 31.78125 -1.421875 
Q 19.53125 -1.421875 13.0625 8.265625 
Q 6.59375 17.96875 6.59375 36.375 
Q 6.59375 54.828125 13.0625 64.515625 
Q 19.53125 74.21875 31.78125 74.21875 
z
" id="DejaVuSans-48"/>
      </defs>
      <g transform="translate(84.634318 387.756875)scale(0.2 -0.2)">
       <use xlink:href="#DejaVuSans-48"/>
      </g>
     </g>
    </g>
    <g id="xtick_2">
     <g id="line2d_2">
      <g>
       <use style="stroke:#000000;stroke-width:0.8;" x="185.845992" xlink:href="#m11c939cffb" y="365.56"/>
      </g>
     </g>
     <g id="text_2">
      <!-- 20 -->
      <defs>
       <path d="M 19.1875 8.296875 
L 53.609375 8.296875 
L 53.609375 0 
L 7.328125 0 
L 7.328125 8.296875 
Q 12.9375 14.109375 22.625 23.890625 
Q 32.328125 33.6875 34.8125 36.53125 
Q 39.546875 41.84375 41.421875 45.53125 
Q 43.3125 49.21875 43.3125 52.78125 
Q 43.3125 58.59375 39.234375 62.25 
Q 35.15625 65.921875 28.609375 65.921875 
Q 23.96875 65.921875 18.8125 64.3125 
Q 13.671875 62.703125 7.8125 59.421875 
L 7.8125 69.390625 
Q 13.765625 71.78125 18.9375 73 
Q 24.125 74.21875 28.421875 74.21875 
Q 39.75 74.21875 46.484375 68.546875 
Q 53.21875 62.890625 53.21875 53.421875 
Q 53.21875 48.921875 51.53125 44.890625 
Q 49.859375 40.875 45.40625 35.40625 
Q 44.1875 33.984375 37.640625 27.21875 
Q 31.109375 20.453125 19.1875 8.296875 
z
" id="DejaVuSans-50"/>
      </defs>
      <g transform="translate(173.120992 387.756875)scale(0.2 -0.2)">
       <use xlink:href="#DejaVuSans-50"/>
       <use x="63.623047" xlink:href="#DejaVuSans-48"/>
      </g>
     </g>
    </g>
    <g id="xtick_3">
     <g id="line2d_3">
      <g>
       <use style="stroke:#000000;stroke-width:0.8;" x="280.695165" xlink:href="#m11c939cffb" y="365.56"/>
      </g>
     </g>
     <g id="text_3">
      <!-- 40 -->
      <defs>
       <path d="M 37.796875 64.3125 
L 12.890625 25.390625 
L 37.796875 25.390625 
z
M 35.203125 72.90625 
L 47.609375 72.90625 
L 47.609375 25.390625 
L 58.015625 25.390625 
L 58.015625 17.1875 
L 47.609375 17.1875 
L 47.609375 0 
L 37.796875 0 
L 37.796875 17.1875 
L 4.890625 17.1875 
L 4.890625 26.703125 
z
" id="DejaVuSans-52"/>
      </defs>
      <g transform="translate(267.970165 387.756875)scale(0.2 -0.2)">
       <use xlink:href="#DejaVuSans-52"/>
       <use x="63.623047" xlink:href="#DejaVuSans-48"/>
      </g>
     </g>
    </g>
    <g id="xtick_4">
     <g id="line2d_4">
      <g>
       <use style="stroke:#000000;stroke-width:0.8;" x="375.544339" xlink:href="#m11c939cffb" y="365.56"/>
      </g>
     </g>
     <g id="text_4">
      <!-- 60 -->
      <defs>
       <path d="M 33.015625 40.375 
Q 26.375 40.375 22.484375 35.828125 
Q 18.609375 31.296875 18.609375 23.390625 
Q 18.609375 15.53125 22.484375 10.953125 
Q 26.375 6.390625 33.015625 6.390625 
Q 39.65625 6.390625 43.53125 10.953125 
Q 47.40625 15.53125 47.40625 23.390625 
Q 47.40625 31.296875 43.53125 35.828125 
Q 39.65625 40.375 33.015625 40.375 
z
M 52.59375 71.296875 
L 52.59375 62.3125 
Q 48.875 64.0625 45.09375 64.984375 
Q 41.3125 65.921875 37.59375 65.921875 
Q 27.828125 65.921875 22.671875 59.328125 
Q 17.53125 52.734375 16.796875 39.40625 
Q 19.671875 43.65625 24.015625 45.921875 
Q 28.375 48.1875 33.59375 48.1875 
Q 44.578125 48.1875 50.953125 41.515625 
Q 57.328125 34.859375 57.328125 23.390625 
Q 57.328125 12.15625 50.6875 5.359375 
Q 44.046875 -1.421875 33.015625 -1.421875 
Q 20.359375 -1.421875 13.671875 8.265625 
Q 6.984375 17.96875 6.984375 36.375 
Q 6.984375 53.65625 15.1875 63.9375 
Q 23.390625 74.21875 37.203125 74.21875 
Q 40.921875 74.21875 44.703125 73.484375 
Q 48.484375 72.75 52.59375 71.296875 
z
" id="DejaVuSans-54"/>
      </defs>
      <g transform="translate(362.819339 387.756875)scale(0.2 -0.2)">
       <use xlink:href="#DejaVuSans-54"/>
       <use x="63.623047" xlink:href="#DejaVuSans-48"/>
      </g>
     </g>
    </g>
    <g id="xtick_5">
     <g id="line2d_5">
      <g>
       <use style="stroke:#000000;stroke-width:0.8;" x="470.393512" xlink:href="#m11c939cffb" y="365.56"/>
      </g>
     </g>
     <g id="text_5">
      <!-- 80 -->
      <defs>
       <path d="M 31.78125 34.625 
Q 24.75 34.625 20.71875 30.859375 
Q 16.703125 27.09375 16.703125 20.515625 
Q 16.703125 13.921875 20.71875 10.15625 
Q 24.75 6.390625 31.78125 6.390625 
Q 38.8125 6.390625 42.859375 10.171875 
Q 46.921875 13.96875 46.921875 20.515625 
Q 46.921875 27.09375 42.890625 30.859375 
Q 38.875 34.625 31.78125 34.625 
z
M 21.921875 38.8125 
Q 15.578125 40.375 12.03125 44.71875 
Q 8.5 49.078125 8.5 55.328125 
Q 8.5 64.0625 14.71875 69.140625 
Q 20.953125 74.21875 31.78125 74.21875 
Q 42.671875 74.21875 48.875 69.140625 
Q 55.078125 64.0625 55.078125 55.328125 
Q 55.078125 49.078125 51.53125 44.71875 
Q 48 40.375 41.703125 38.8125 
Q 48.828125 37.15625 52.796875 32.3125 
Q 56.78125 27.484375 56.78125 20.515625 
Q 56.78125 9.90625 50.3125 4.234375 
Q 43.84375 -1.421875 31.78125 -1.421875 
Q 19.734375 -1.421875 13.25 4.234375 
Q 6.78125 9.90625 6.78125 20.515625 
Q 6.78125 27.484375 10.78125 32.3125 
Q 14.796875 37.15625 21.921875 38.8125 
z
M 18.3125 54.390625 
Q 18.3125 48.734375 21.84375 45.5625 
Q 25.390625 42.390625 31.78125 42.390625 
Q 38.140625 42.390625 41.71875 45.5625 
Q 45.3125 48.734375 45.3125 54.390625 
Q 45.3125 60.0625 41.71875 63.234375 
Q 38.140625 66.40625 31.78125 66.40625 
Q 25.390625 66.40625 21.84375 63.234375 
Q 18.3125 60.0625 18.3125 54.390625 
z
" id="DejaVuSans-56"/>
      </defs>
      <g transform="translate(457.668512 387.756875)scale(0.2 -0.2)">
       <use xlink:href="#DejaVuSans-56"/>
       <use x="63.623047" xlink:href="#DejaVuSans-48"/>
      </g>
     </g>
    </g>
    <g id="text_6">
     <!-- number of games (DD-IPI) -->
     <defs>
      <path d="M 54.890625 33.015625 
L 54.890625 0 
L 45.90625 0 
L 45.90625 32.71875 
Q 45.90625 40.484375 42.875 44.328125 
Q 39.84375 48.1875 33.796875 48.1875 
Q 26.515625 48.1875 22.3125 43.546875 
Q 18.109375 38.921875 18.109375 30.90625 
L 18.109375 0 
L 9.078125 0 
L 9.078125 54.6875 
L 18.109375 54.6875 
L 18.109375 46.1875 
Q 21.34375 51.125 25.703125 53.5625 
Q 30.078125 56 35.796875 56 
Q 45.21875 56 50.046875 50.171875 
Q 54.890625 44.34375 54.890625 33.015625 
z
" id="DejaVuSans-110"/>
      <path d="M 8.5 21.578125 
L 8.5 54.6875 
L 17.484375 54.6875 
L 17.484375 21.921875 
Q 17.484375 14.15625 20.5 10.265625 
Q 23.53125 6.390625 29.59375 6.390625 
Q 36.859375 6.390625 41.078125 11.03125 
Q 45.3125 15.671875 45.3125 23.6875 
L 45.3125 54.6875 
L 54.296875 54.6875 
L 54.296875 0 
L 45.3125 0 
L 45.3125 8.40625 
Q 42.046875 3.421875 37.71875 1 
Q 33.40625 -1.421875 27.6875 -1.421875 
Q 18.265625 -1.421875 13.375 4.4375 
Q 8.5 10.296875 8.5 21.578125 
z
M 31.109375 56 
z
" id="DejaVuSans-117"/>
      <path d="M 52 44.1875 
Q 55.375 50.25 60.0625 53.125 
Q 64.75 56 71.09375 56 
Q 79.640625 56 84.28125 50.015625 
Q 88.921875 44.046875 88.921875 33.015625 
L 88.921875 0 
L 79.890625 0 
L 79.890625 32.71875 
Q 79.890625 40.578125 77.09375 44.375 
Q 74.3125 48.1875 68.609375 48.1875 
Q 61.625 48.1875 57.5625 43.546875 
Q 53.515625 38.921875 53.515625 30.90625 
L 53.515625 0 
L 44.484375 0 
L 44.484375 32.71875 
Q 44.484375 40.625 41.703125 44.40625 
Q 38.921875 48.1875 33.109375 48.1875 
Q 26.21875 48.1875 22.15625 43.53125 
Q 18.109375 38.875 18.109375 30.90625 
L 18.109375 0 
L 9.078125 0 
L 9.078125 54.6875 
L 18.109375 54.6875 
L 18.109375 46.1875 
Q 21.1875 51.21875 25.484375 53.609375 
Q 29.78125 56 35.6875 56 
Q 41.65625 56 45.828125 52.96875 
Q 50 49.953125 52 44.1875 
z
" id="DejaVuSans-109"/>
      <path d="M 48.6875 27.296875 
Q 48.6875 37.203125 44.609375 42.84375 
Q 40.53125 48.484375 33.40625 48.484375 
Q 26.265625 48.484375 22.1875 42.84375 
Q 18.109375 37.203125 18.109375 27.296875 
Q 18.109375 17.390625 22.1875 11.75 
Q 26.265625 6.109375 33.40625 6.109375 
Q 40.53125 6.109375 44.609375 11.75 
Q 48.6875 17.390625 48.6875 27.296875 
z
M 18.109375 46.390625 
Q 20.953125 51.265625 25.265625 53.625 
Q 29.59375 56 35.59375 56 
Q 45.5625 56 51.78125 48.09375 
Q 58.015625 40.1875 58.015625 27.296875 
Q 58.015625 14.40625 51.78125 6.484375 
Q 45.5625 -1.421875 35.59375 -1.421875 
Q 29.59375 -1.421875 25.265625 0.953125 
Q 20.953125 3.328125 18.109375 8.203125 
L 18.109375 0 
L 9.078125 0 
L 9.078125 75.984375 
L 18.109375 75.984375 
z
" id="DejaVuSans-98"/>
      <path d="M 56.203125 29.59375 
L 56.203125 25.203125 
L 14.890625 25.203125 
Q 15.484375 15.921875 20.484375 11.0625 
Q 25.484375 6.203125 34.421875 6.203125 
Q 39.59375 6.203125 44.453125 7.46875 
Q 49.3125 8.734375 54.109375 11.28125 
L 54.109375 2.78125 
Q 49.265625 0.734375 44.1875 -0.34375 
Q 39.109375 -1.421875 33.890625 -1.421875 
Q 20.796875 -1.421875 13.15625 6.1875 
Q 5.515625 13.8125 5.515625 26.8125 
Q 5.515625 40.234375 12.765625 48.109375 
Q 20.015625 56 32.328125 56 
Q 43.359375 56 49.78125 48.890625 
Q 56.203125 41.796875 56.203125 29.59375 
z
M 47.21875 32.234375 
Q 47.125 39.59375 43.09375 43.984375 
Q 39.0625 48.390625 32.421875 48.390625 
Q 24.90625 48.390625 20.390625 44.140625 
Q 15.875 39.890625 15.1875 32.171875 
z
" id="DejaVuSans-101"/>
      <path d="M 41.109375 46.296875 
Q 39.59375 47.171875 37.8125 47.578125 
Q 36.03125 48 33.890625 48 
Q 26.265625 48 22.1875 43.046875 
Q 18.109375 38.09375 18.109375 28.8125 
L 18.109375 0 
L 9.078125 0 
L 9.078125 54.6875 
L 18.109375 54.6875 
L 18.109375 46.1875 
Q 20.953125 51.171875 25.484375 53.578125 
Q 30.03125 56 36.53125 56 
Q 37.453125 56 38.578125 55.875 
Q 39.703125 55.765625 41.0625 55.515625 
z
" id="DejaVuSans-114"/>
      <path id="DejaVuSans-32"/>
      <path d="M 30.609375 48.390625 
Q 23.390625 48.390625 19.1875 42.75 
Q 14.984375 37.109375 14.984375 27.296875 
Q 14.984375 17.484375 19.15625 11.84375 
Q 23.34375 6.203125 30.609375 6.203125 
Q 37.796875 6.203125 41.984375 11.859375 
Q 46.1875 17.53125 46.1875 27.296875 
Q 46.1875 37.015625 41.984375 42.703125 
Q 37.796875 48.390625 30.609375 48.390625 
z
M 30.609375 56 
Q 42.328125 56 49.015625 48.375 
Q 55.71875 40.765625 55.71875 27.296875 
Q 55.71875 13.875 49.015625 6.21875 
Q 42.328125 -1.421875 30.609375 -1.421875 
Q 18.84375 -1.421875 12.171875 6.21875 
Q 5.515625 13.875 5.515625 27.296875 
Q 5.515625 40.765625 12.171875 48.375 
Q 18.84375 56 30.609375 56 
z
" id="DejaVuSans-111"/>
      <path d="M 37.109375 75.984375 
L 37.109375 68.5 
L 28.515625 68.5 
Q 23.6875 68.5 21.796875 66.546875 
Q 19.921875 64.59375 19.921875 59.515625 
L 19.921875 54.6875 
L 34.71875 54.6875 
L 34.71875 47.703125 
L 19.921875 47.703125 
L 19.921875 0 
L 10.890625 0 
L 10.890625 47.703125 
L 2.296875 47.703125 
L 2.296875 54.6875 
L 10.890625 54.6875 
L 10.890625 58.5 
Q 10.890625 67.625 15.140625 71.796875 
Q 19.390625 75.984375 28.609375 75.984375 
z
" id="DejaVuSans-102"/>
      <path d="M 45.40625 27.984375 
Q 45.40625 37.75 41.375 43.109375 
Q 37.359375 48.484375 30.078125 48.484375 
Q 22.859375 48.484375 18.828125 43.109375 
Q 14.796875 37.75 14.796875 27.984375 
Q 14.796875 18.265625 18.828125 12.890625 
Q 22.859375 7.515625 30.078125 7.515625 
Q 37.359375 7.515625 41.375 12.890625 
Q 45.40625 18.265625 45.40625 27.984375 
z
M 54.390625 6.78125 
Q 54.390625 -7.171875 48.1875 -13.984375 
Q 42 -20.796875 29.203125 -20.796875 
Q 24.46875 -20.796875 20.265625 -20.09375 
Q 16.0625 -19.390625 12.109375 -17.921875 
L 12.109375 -9.1875 
Q 16.0625 -11.328125 19.921875 -12.34375 
Q 23.78125 -13.375 27.78125 -13.375 
Q 36.625 -13.375 41.015625 -8.765625 
Q 45.40625 -4.15625 45.40625 5.171875 
L 45.40625 9.625 
Q 42.625 4.78125 38.28125 2.390625 
Q 33.9375 0 27.875 0 
Q 17.828125 0 11.671875 7.65625 
Q 5.515625 15.328125 5.515625 27.984375 
Q 5.515625 40.671875 11.671875 48.328125 
Q 17.828125 56 27.875 56 
Q 33.9375 56 38.28125 53.609375 
Q 42.625 51.21875 45.40625 46.390625 
L 45.40625 54.6875 
L 54.390625 54.6875 
z
" id="DejaVuSans-103"/>
      <path d="M 34.28125 27.484375 
Q 23.390625 27.484375 19.1875 25 
Q 14.984375 22.515625 14.984375 16.5 
Q 14.984375 11.71875 18.140625 8.90625 
Q 21.296875 6.109375 26.703125 6.109375 
Q 34.1875 6.109375 38.703125 11.40625 
Q 43.21875 16.703125 43.21875 25.484375 
L 43.21875 27.484375 
z
M 52.203125 31.203125 
L 52.203125 0 
L 43.21875 0 
L 43.21875 8.296875 
Q 40.140625 3.328125 35.546875 0.953125 
Q 30.953125 -1.421875 24.3125 -1.421875 
Q 15.921875 -1.421875 10.953125 3.296875 
Q 6 8.015625 6 15.921875 
Q 6 25.140625 12.171875 29.828125 
Q 18.359375 34.515625 30.609375 34.515625 
L 43.21875 34.515625 
L 43.21875 35.40625 
Q 43.21875 41.609375 39.140625 45 
Q 35.0625 48.390625 27.6875 48.390625 
Q 23 48.390625 18.546875 47.265625 
Q 14.109375 46.140625 10.015625 43.890625 
L 10.015625 52.203125 
Q 14.9375 54.109375 19.578125 55.046875 
Q 24.21875 56 28.609375 56 
Q 40.484375 56 46.34375 49.84375 
Q 52.203125 43.703125 52.203125 31.203125 
z
" id="DejaVuSans-97"/>
      <path d="M 44.28125 53.078125 
L 44.28125 44.578125 
Q 40.484375 46.53125 36.375 47.5 
Q 32.28125 48.484375 27.875 48.484375 
Q 21.1875 48.484375 17.84375 46.4375 
Q 14.5 44.390625 14.5 40.28125 
Q 14.5 37.15625 16.890625 35.375 
Q 19.28125 33.59375 26.515625 31.984375 
L 29.59375 31.296875 
Q 39.15625 29.25 43.1875 25.515625 
Q 47.21875 21.78125 47.21875 15.09375 
Q 47.21875 7.46875 41.1875 3.015625 
Q 35.15625 -1.421875 24.609375 -1.421875 
Q 20.21875 -1.421875 15.453125 -0.5625 
Q 10.6875 0.296875 5.421875 2 
L 5.421875 11.28125 
Q 10.40625 8.6875 15.234375 7.390625 
Q 20.0625 6.109375 24.8125 6.109375 
Q 31.15625 6.109375 34.5625 8.28125 
Q 37.984375 10.453125 37.984375 14.40625 
Q 37.984375 18.0625 35.515625 20.015625 
Q 33.0625 21.96875 24.703125 23.78125 
L 21.578125 24.515625 
Q 13.234375 26.265625 9.515625 29.90625 
Q 5.8125 33.546875 5.8125 39.890625 
Q 5.8125 47.609375 11.28125 51.796875 
Q 16.75 56 26.8125 56 
Q 31.78125 56 36.171875 55.265625 
Q 40.578125 54.546875 44.28125 53.078125 
z
" id="DejaVuSans-115"/>
      <path d="M 31 75.875 
Q 24.46875 64.65625 21.28125 53.65625 
Q 18.109375 42.671875 18.109375 31.390625 
Q 18.109375 20.125 21.3125 9.0625 
Q 24.515625 -2 31 -13.1875 
L 23.1875 -13.1875 
Q 15.875 -1.703125 12.234375 9.375 
Q 8.59375 20.453125 8.59375 31.390625 
Q 8.59375 42.28125 12.203125 53.3125 
Q 15.828125 64.359375 23.1875 75.875 
z
" id="DejaVuSans-40"/>
      <path d="M 19.671875 64.796875 
L 19.671875 8.109375 
L 31.59375 8.109375 
Q 46.6875 8.109375 53.6875 14.9375 
Q 60.6875 21.78125 60.6875 36.53125 
Q 60.6875 51.171875 53.6875 57.984375 
Q 46.6875 64.796875 31.59375 64.796875 
z
M 9.8125 72.90625 
L 30.078125 72.90625 
Q 51.265625 72.90625 61.171875 64.09375 
Q 71.09375 55.28125 71.09375 36.53125 
Q 71.09375 17.671875 61.125 8.828125 
Q 51.171875 0 30.078125 0 
L 9.8125 0 
z
" id="DejaVuSans-68"/>
      <path d="M 4.890625 31.390625 
L 31.203125 31.390625 
L 31.203125 23.390625 
L 4.890625 23.390625 
z
" id="DejaVuSans-45"/>
      <path d="M 9.8125 72.90625 
L 19.671875 72.90625 
L 19.671875 0 
L 9.8125 0 
z
" id="DejaVuSans-73"/>
      <path d="M 19.671875 64.796875 
L 19.671875 37.40625 
L 32.078125 37.40625 
Q 38.96875 37.40625 42.71875 40.96875 
Q 46.484375 44.53125 46.484375 51.125 
Q 46.484375 57.671875 42.71875 61.234375 
Q 38.96875 64.796875 32.078125 64.796875 
z
M 9.8125 72.90625 
L 32.078125 72.90625 
Q 44.34375 72.90625 50.609375 67.359375 
Q 56.890625 61.8125 56.890625 51.125 
Q 56.890625 40.328125 50.609375 34.8125 
Q 44.34375 29.296875 32.078125 29.296875 
L 19.671875 29.296875 
L 19.671875 0 
L 9.8125 0 
z
" id="DejaVuSans-80"/>
      <path d="M 8.015625 75.875 
L 15.828125 75.875 
Q 23.140625 64.359375 26.78125 53.3125 
Q 30.421875 42.28125 30.421875 31.390625 
Q 30.421875 20.453125 26.78125 9.375 
Q 23.140625 -1.703125 15.828125 -13.1875 
L 8.015625 -13.1875 
Q 14.5 -2 17.703125 9.0625 
Q 20.90625 20.125 20.90625 31.390625 
Q 20.90625 42.671875 17.703125 53.65625 
Q 14.5 64.65625 8.015625 75.875 
z
" id="DejaVuSans-41"/>
     </defs>
     <g transform="translate(136.512656 414.912344)scale(0.25 -0.25)">
      <use xlink:href="#DejaVuSans-110"/>
      <use x="63.378906" xlink:href="#DejaVuSans-117"/>
      <use x="126.757812" xlink:href="#DejaVuSans-109"/>
      <use x="224.169922" xlink:href="#DejaVuSans-98"/>
      <use x="287.646484" xlink:href="#DejaVuSans-101"/>
      <use x="349.169922" xlink:href="#DejaVuSans-114"/>
      <use x="390.283203" xlink:href="#DejaVuSans-32"/>
      <use x="422.070312" xlink:href="#DejaVuSans-111"/>
      <use x="483.251953" xlink:href="#DejaVuSans-102"/>
      <use x="518.457031" xlink:href="#DejaVuSans-32"/>
      <use x="550.244141" xlink:href="#DejaVuSans-103"/>
      <use x="613.720703" xlink:href="#DejaVuSans-97"/>
      <use x="675" xlink:href="#DejaVuSans-109"/>
      <use x="772.412109" xlink:href="#DejaVuSans-101"/>
      <use x="833.935547" xlink:href="#DejaVuSans-115"/>
      <use x="886.035156" xlink:href="#DejaVuSans-32"/>
      <use x="917.822266" xlink:href="#DejaVuSans-40"/>
      <use x="956.835938" xlink:href="#DejaVuSans-68"/>
      <use x="1033.837891" xlink:href="#DejaVuSans-68"/>
      <use x="1110.839844" xlink:href="#DejaVuSans-45"/>
      <use x="1146.923828" xlink:href="#DejaVuSans-73"/>
      <use x="1176.416016" xlink:href="#DejaVuSans-80"/>
      <use x="1236.71875" xlink:href="#DejaVuSans-73"/>
      <use x="1266.210938" xlink:href="#DejaVuSans-41"/>
     </g>
    </g>
   </g>
   <g id="matplotlib.axis_2">
    <g id="ytick_1">
     <g id="line2d_6">
      <defs>
       <path d="M 0 0 
L -3.5 0 
" id="ma66f60c523" style="stroke:#000000;stroke-width:0.8;"/>
      </defs>
      <g>
       <use style="stroke:#000000;stroke-width:0.8;" x="70.13" xlink:href="#ma66f60c523" y="351.970909"/>
      </g>
     </g>
     <g id="text_7">
      <!-- 0.0 -->
      <defs>
       <path d="M 10.6875 12.40625 
L 21 12.40625 
L 21 0 
L 10.6875 0 
z
" id="DejaVuSans-46"/>
      </defs>
      <g transform="translate(31.32375 359.569347)scale(0.2 -0.2)">
       <use xlink:href="#DejaVuSans-48"/>
       <use x="63.623047" xlink:href="#DejaVuSans-46"/>
       <use x="95.410156" xlink:href="#DejaVuSans-48"/>
      </g>
     </g>
    </g>
    <g id="ytick_2">
     <g id="line2d_7">
      <g>
       <use style="stroke:#000000;stroke-width:0.8;" x="70.13" xlink:href="#ma66f60c523" y="297.614545"/>
      </g>
     </g>
     <g id="text_8">
      <!-- 0.2 -->
      <g transform="translate(31.32375 305.212983)scale(0.2 -0.2)">
       <use xlink:href="#DejaVuSans-48"/>
       <use x="63.623047" xlink:href="#DejaVuSans-46"/>
       <use x="95.410156" xlink:href="#DejaVuSans-50"/>
      </g>
     </g>
    </g>
    <g id="ytick_3">
     <g id="line2d_8">
      <g>
       <use style="stroke:#000000;stroke-width:0.8;" x="70.13" xlink:href="#ma66f60c523" y="243.258182"/>
      </g>
     </g>
     <g id="text_9">
      <!-- 0.4 -->
      <g transform="translate(31.32375 250.856619)scale(0.2 -0.2)">
       <use xlink:href="#DejaVuSans-48"/>
       <use x="63.623047" xlink:href="#DejaVuSans-46"/>
       <use x="95.410156" xlink:href="#DejaVuSans-52"/>
      </g>
     </g>
    </g>
    <g id="ytick_4">
     <g id="line2d_9">
      <g>
       <use style="stroke:#000000;stroke-width:0.8;" x="70.13" xlink:href="#ma66f60c523" y="188.901818"/>
      </g>
     </g>
     <g id="text_10">
      <!-- 0.6 -->
      <g transform="translate(31.32375 196.500256)scale(0.2 -0.2)">
       <use xlink:href="#DejaVuSans-48"/>
       <use x="63.623047" xlink:href="#DejaVuSans-46"/>
       <use x="95.410156" xlink:href="#DejaVuSans-54"/>
      </g>
     </g>
    </g>
    <g id="ytick_5">
     <g id="line2d_10">
      <g>
       <use style="stroke:#000000;stroke-width:0.8;" x="70.13" xlink:href="#ma66f60c523" y="134.545455"/>
      </g>
     </g>
     <g id="text_11">
      <!-- 0.8 -->
      <g transform="translate(31.32375 142.143892)scale(0.2 -0.2)">
       <use xlink:href="#DejaVuSans-48"/>
       <use x="63.623047" xlink:href="#DejaVuSans-46"/>
       <use x="95.410156" xlink:href="#DejaVuSans-56"/>
      </g>
     </g>
    </g>
    <g id="ytick_6">
     <g id="line2d_11">
      <g>
       <use style="stroke:#000000;stroke-width:0.8;" x="70.13" xlink:href="#ma66f60c523" y="80.189091"/>
      </g>
     </g>
     <g id="text_12">
      <!-- 1.0 -->
      <defs>
       <path d="M 12.40625 8.296875 
L 28.515625 8.296875 
L 28.515625 63.921875 
L 10.984375 60.40625 
L 10.984375 69.390625 
L 28.421875 72.90625 
L 38.28125 72.90625 
L 38.28125 8.296875 
L 54.390625 8.296875 
L 54.390625 0 
L 12.40625 0 
z
" id="DejaVuSans-49"/>
      </defs>
      <g transform="translate(31.32375 87.787528)scale(0.2 -0.2)">
       <use xlink:href="#DejaVuSans-49"/>
       <use x="63.623047" xlink:href="#DejaVuSans-46"/>
       <use x="95.410156" xlink:href="#DejaVuSans-48"/>
      </g>
     </g>
    </g>
    <g id="text_13">
     <!-- Percentage of Def strategy used -->
     <defs>
      <path d="M 48.78125 52.59375 
L 48.78125 44.1875 
Q 44.96875 46.296875 41.140625 47.34375 
Q 37.3125 48.390625 33.40625 48.390625 
Q 24.65625 48.390625 19.8125 42.84375 
Q 14.984375 37.3125 14.984375 27.296875 
Q 14.984375 17.28125 19.8125 11.734375 
Q 24.65625 6.203125 33.40625 6.203125 
Q 37.3125 6.203125 41.140625 7.25 
Q 44.96875 8.296875 48.78125 10.40625 
L 48.78125 2.09375 
Q 45.015625 0.34375 40.984375 -0.53125 
Q 36.96875 -1.421875 32.421875 -1.421875 
Q 20.0625 -1.421875 12.78125 6.34375 
Q 5.515625 14.109375 5.515625 27.296875 
Q 5.515625 40.671875 12.859375 48.328125 
Q 20.21875 56 33.015625 56 
Q 37.15625 56 41.109375 55.140625 
Q 45.0625 54.296875 48.78125 52.59375 
z
" id="DejaVuSans-99"/>
      <path d="M 18.3125 70.21875 
L 18.3125 54.6875 
L 36.8125 54.6875 
L 36.8125 47.703125 
L 18.3125 47.703125 
L 18.3125 18.015625 
Q 18.3125 11.328125 20.140625 9.421875 
Q 21.96875 7.515625 27.59375 7.515625 
L 36.8125 7.515625 
L 36.8125 0 
L 27.59375 0 
Q 17.1875 0 13.234375 3.875 
Q 9.28125 7.765625 9.28125 18.015625 
L 9.28125 47.703125 
L 2.6875 47.703125 
L 2.6875 54.6875 
L 9.28125 54.6875 
L 9.28125 70.21875 
z
" id="DejaVuSans-116"/>
      <path d="M 32.171875 -5.078125 
Q 28.375 -14.84375 24.75 -17.8125 
Q 21.140625 -20.796875 15.09375 -20.796875 
L 7.90625 -20.796875 
L 7.90625 -13.28125 
L 13.1875 -13.28125 
Q 16.890625 -13.28125 18.9375 -11.515625 
Q 21 -9.765625 23.484375 -3.21875 
L 25.09375 0.875 
L 2.984375 54.6875 
L 12.5 54.6875 
L 29.59375 11.921875 
L 46.6875 54.6875 
L 56.203125 54.6875 
z
" id="DejaVuSans-121"/>
      <path d="M 45.40625 46.390625 
L 45.40625 75.984375 
L 54.390625 75.984375 
L 54.390625 0 
L 45.40625 0 
L 45.40625 8.203125 
Q 42.578125 3.328125 38.25 0.953125 
Q 33.9375 -1.421875 27.875 -1.421875 
Q 17.96875 -1.421875 11.734375 6.484375 
Q 5.515625 14.40625 5.515625 27.296875 
Q 5.515625 40.1875 11.734375 48.09375 
Q 17.96875 56 27.875 56 
Q 33.9375 56 38.25 53.625 
Q 42.578125 51.265625 45.40625 46.390625 
z
M 14.796875 27.296875 
Q 14.796875 17.390625 18.875 11.75 
Q 22.953125 6.109375 30.078125 6.109375 
Q 37.203125 6.109375 41.296875 11.75 
Q 45.40625 17.390625 45.40625 27.296875 
Q 45.40625 37.203125 41.296875 42.84375 
Q 37.203125 48.484375 30.078125 48.484375 
Q 22.953125 48.484375 18.875 42.84375 
Q 14.796875 37.203125 14.796875 27.296875 
z
" id="DejaVuSans-100"/>
     </defs>
     <g transform="translate(23.857604 351.33651)rotate(-90)scale(0.166667 -0.166667)">
      <use xlink:href="#DejaVuSans-80"/>
      <use x="60.255859" xlink:href="#DejaVuSans-101"/>
      <use x="121.779297" xlink:href="#DejaVuSans-114"/>
      <use x="162.861328" xlink:href="#DejaVuSans-99"/>
      <use x="217.841797" xlink:href="#DejaVuSans-101"/>
      <use x="279.365234" xlink:href="#DejaVuSans-110"/>
      <use x="342.744141" xlink:href="#DejaVuSans-116"/>
      <use x="381.953125" xlink:href="#DejaVuSans-97"/>
      <use x="443.232422" xlink:href="#DejaVuSans-103"/>
      <use x="506.708984" xlink:href="#DejaVuSans-101"/>
      <use x="568.232422" xlink:href="#DejaVuSans-32"/>
      <use x="600.019531" xlink:href="#DejaVuSans-111"/>
      <use x="661.201172" xlink:href="#DejaVuSans-102"/>
      <use x="696.40625" xlink:href="#DejaVuSans-32"/>
      <use x="728.193359" xlink:href="#DejaVuSans-68"/>
      <use x="805.195312" xlink:href="#DejaVuSans-101"/>
      <use x="866.71875" xlink:href="#DejaVuSans-102"/>
      <use x="901.923828" xlink:href="#DejaVuSans-32"/>
      <use x="933.710938" xlink:href="#DejaVuSans-115"/>
      <use x="985.810547" xlink:href="#DejaVuSans-116"/>
      <use x="1025.019531" xlink:href="#DejaVuSans-114"/>
      <use x="1066.132812" xlink:href="#DejaVuSans-97"/>
      <use x="1127.412109" xlink:href="#DejaVuSans-116"/>
      <use x="1166.621094" xlink:href="#DejaVuSans-101"/>
      <use x="1228.144531" xlink:href="#DejaVuSans-103"/>
      <use x="1291.621094" xlink:href="#DejaVuSans-121"/>
      <use x="1350.800781" xlink:href="#DejaVuSans-32"/>
      <use x="1382.587891" xlink:href="#DejaVuSans-117"/>
      <use x="1445.966797" xlink:href="#DejaVuSans-115"/>
      <use x="1498.066406" xlink:href="#DejaVuSans-101"/>
      <use x="1559.589844" xlink:href="#DejaVuSans-100"/>
     </g>
    </g>
   </g>
   <g id="line2d_12">
    <path clip-path="url(#p587a17edbb)" d="M 90.996818 265.197196 
L 95.739277 263.346403 
L 100.481736 244.475115 
L 105.224194 254.049519 
L 109.966653 238.246602 
L 114.709112 219.290021 
L 119.45157 235.172111 
L 124.194029 220.463578 
L 128.936488 225.710064 
L 133.678946 228.000255 
L 138.421405 255.764956 
L 143.163864 239.280887 
L 147.906322 237.776868 
L 152.648781 238.357198 
L 157.39124 236.168221 
L 162.133698 269.923568 
L 166.876157 243.761481 
L 171.618616 253.611775 
L 176.361074 251.10343 
L 181.103533 250.052727 
L 185.845992 245.757325 
L 190.58845 254.905974 
L 195.330909 248.434978 
L 200.073368 272.248242 
L 204.815826 240.279751 
L 209.558285 270.842008 
L 214.300744 262.729118 
L 219.043202 273.06651 
L 223.785661 291.054295 
L 228.52812 274.318961 
L 233.270579 270.436364 
L 238.013037 267.416566 
L 242.755496 222.550996 
L 247.497955 268.345734 
L 252.240413 284.025455 
L 256.982872 261.37697 
L 261.725331 220.463578 
L 266.467789 258.545909 
L 271.210248 284.025455 
L 275.952707 234.198788 
L 280.695165 257.892587 
L 285.437624 305.111975 
L 290.180083 314.909752 
L 294.922541 245.621502 
L 299.665 257.438103 
L 304.407459 287.260952 
L 309.149917 280.449378 
L 313.892376 261.37697 
L 318.634835 267.039091 
L 323.377293 274.318961 
L 328.119752 284.025455 
L 332.862211 297.614545 
L 337.604669 306.673939 
L 342.347128 317.998182 
L 347.089587 261.37697 
L 351.832045 216.08 
L 356.574504 235.492987 
L 361.316963 297.614545 
L 366.059421 306.673939 
L 370.80188 297.614545 
L 375.544339 284.025455 
L 380.286798 351.970909 
L 385.029256 351.970909 
L 389.771715 351.970909 
L 394.514174 351.970909 
L 399.256632 261.37697 
L 403.999091 261.37697 
L 408.74155 216.08 
L 413.484008 351.970909 
L 418.226467 261.37697 
L 422.968926 351.970909 
L 427.711384 351.970909 
L 432.453843 351.970909 
L 437.196302 261.37697 
L 441.93876 216.08 
L 446.681219 351.970909 
L 451.423678 351.970909 
L 456.166136 261.37697 
L 460.908595 216.08 
L 465.651054 351.970909 
L 470.393512 351.970909 
L 475.135971 216.08 
L 479.87843 351.970909 
L 484.620888 351.970909 
L 489.363347 351.970909 
L 494.105806 351.970909 
L 498.848264 216.08 
L 503.590723 216.08 
L 508.333182 351.970909 
" style="fill:none;stroke:#1f77b4;stroke-linecap:square;stroke-width:1.5;"/>
   </g>
   <g id="line2d_13">
    <path clip-path="url(#p587a17edbb)" d="M 90.996818 322.500591 
L 95.739277 336.215441 
L 100.481736 341.829796 
L 105.224194 329.988556 
L 109.966653 326.913011 
L 114.709112 336.990809 
L 119.45157 331.755733 
L 124.194029 321.285865 
L 128.936488 307.030608 
L 133.678946 318.594195 
L 138.421405 299.057635 
L 143.163864 309.988352 
L 147.906322 301.725531 
L 152.648781 300.733353 
L 157.39124 311.794466 
L 162.133698 318.639177 
L 166.876157 296.607946 
L 171.618616 310.556537 
L 176.361074 307.140918 
L 181.103533 305.644463 
L 185.845992 320.73162 
L 190.58845 313.144935 
L 195.330909 303.438442 
L 200.073368 293.990788 
L 204.815826 311.017484 
L 209.558285 311.406459 
L 214.300744 327.632239 
L 219.043202 312.51871 
L 223.785661 319.169655 
L 228.52812 303.438442 
L 233.270579 303.050182 
L 238.013037 291.574949 
L 242.755496 306.673939 
L 247.497955 310.158322 
L 252.240413 317.998182 
L 256.982872 344.421414 
L 261.725331 299.367977 
L 266.467789 317.998182 
L 271.210248 332.557922 
L 275.952707 315.733333 
L 280.695165 299.705175 
L 285.437624 295.740188 
L 290.180083 302.556033 
L 294.922541 328.337708 
L 299.665 292.887905 
L 304.407459 313.144935 
L 309.149917 309.05799 
L 313.892376 336.871919 
L 318.634835 334.984545 
L 323.377293 313.144935 
L 328.119752 284.025455 
L 332.862211 324.792727 
L 337.604669 284.025455 
L 342.347128 284.025455 
L 347.089587 351.970909 
L 351.832045 284.025455 
L 356.574504 351.970909 
L 361.316963 351.970909 
L 366.059421 351.970909 
L 370.80188 351.970909 
L 375.544339 351.970909 
L 380.286798 351.970909 
L 385.029256 351.970909 
L 389.771715 351.970909 
L 394.514174 216.08 
L 399.256632 261.37697 
L 403.999091 261.37697 
L 408.74155 351.970909 
L 413.484008 216.08 
L 418.226467 351.970909 
L 422.968926 351.970909 
L 427.711384 351.970909 
L 432.453843 351.970909 
L 437.196302 261.37697 
L 441.93876 284.025455 
L 446.681219 216.08 
L 451.423678 351.970909 
L 456.166136 261.37697 
L 460.908595 216.08 
L 465.651054 351.970909 
L 470.393512 261.37697 
L 475.135971 351.970909 
L 479.87843 351.970909 
L 484.620888 80.189091 
L 489.363347 351.970909 
L 494.105806 351.970909 
L 498.848264 351.970909 
L 503.590723 351.970909 
L 508.333182 351.970909 
" style="fill:none;stroke:#ff7f0e;stroke-linecap:square;stroke-width:1.5;"/>
   </g>
   <g id="line2d_14">
    <path clip-path="url(#p587a17edbb)" d="M 90.996818 320.863352 
L 95.739277 324.398841 
L 100.481736 345.886242 
L 105.224194 343.977326 
L 109.966653 342.333256 
L 114.709112 339.130823 
L 119.45157 342.986386 
L 124.194029 349.77912 
L 128.936488 341.270838 
L 133.678946 344.818756 
L 138.421405 325.514272 
L 143.163864 334.294043 
L 147.906322 347.403147 
L 152.648781 334.149151 
L 157.39124 337.790988 
L 162.133698 334.023053 
L 166.876157 326.805926 
L 171.618616 339.028918 
L 176.361074 340.763411 
L 181.103533 342.70562 
L 185.845992 339.475193 
L 190.58845 326.086926 
L 195.330909 326.086926 
L 200.073368 344.723394 
L 204.815826 329.632677 
L 209.558285 315.462904 
L 214.300744 323.575794 
L 219.043202 321.285865 
L 223.785661 342.599122 
L 228.52812 327.704675 
L 233.270579 330.228364 
L 238.013037 333.852121 
L 242.755496 345.499913 
L 247.497955 317.127086 
L 252.240413 338.381818 
L 256.982872 344.421414 
L 261.725331 343.203754 
L 266.467789 334.984545 
L 271.210248 293.731948 
L 275.952707 342.911515 
L 280.695165 331.064615 
L 285.437624 351.970909 
L 290.180083 339.61719 
L 294.922541 340.154308 
L 299.665 316.521107 
L 304.407459 339.028918 
L 309.149917 337.666603 
L 313.892376 321.772929 
L 318.634835 317.998182 
L 323.377293 274.318961 
L 328.119752 306.673939 
L 332.862211 324.792727 
L 337.604669 329.322424 
L 342.347128 351.970909 
L 347.089587 351.970909 
L 351.832045 351.970909 
L 356.574504 313.144935 
L 361.316963 297.614545 
L 366.059421 306.673939 
L 370.80188 351.970909 
L 375.544339 284.025455 
L 380.286798 351.970909 
L 385.029256 216.08 
L 389.771715 351.970909 
L 394.514174 351.970909 
L 399.256632 261.37697 
L 403.999091 351.970909 
L 408.74155 216.08 
L 413.484008 351.970909 
L 418.226467 351.970909 
L 422.968926 351.970909 
L 427.711384 351.970909 
L 432.453843 261.37697 
L 437.196302 351.970909 
L 441.93876 351.970909 
L 446.681219 351.970909 
L 451.423678 351.970909 
L 456.166136 351.970909 
L 460.908595 351.970909 
L 465.651054 351.970909 
L 470.393512 351.970909 
L 475.135971 351.970909 
L 479.87843 351.970909 
L 484.620888 351.970909 
L 489.363347 351.970909 
L 494.105806 351.970909 
L 498.848264 351.970909 
L 503.590723 351.970909 
L 508.333182 351.970909 
" style="fill:none;stroke:#2ca02c;stroke-linecap:square;stroke-width:1.5;"/>
   </g>
   <g id="line2d_15">
    <path clip-path="url(#p587a17edbb)" d="M 90.996818 327.412311 
L 95.739277 344.093175 
L 100.481736 339.801574 
L 105.224194 339.980535 
L 109.966653 346.188317 
L 114.709112 343.410852 
L 119.45157 336.247994 
L 124.194029 341.011965 
L 128.936488 339.130823 
L 133.678946 342.434705 
L 138.421405 349.56576 
L 143.163864 332.084435 
L 147.906322 326.84822 
L 152.648781 331.921431 
L 157.39124 337.790988 
L 162.133698 323.767136 
L 166.876157 331.838923 
L 171.618616 333.852121 
L 176.361074 329.555914 
L 181.103533 330.351901 
L 185.845992 342.599122 
L 190.58845 335.79342 
L 195.330909 342.264416 
L 200.073368 333.852121 
L 204.815826 322.1866 
L 209.558285 331.688684 
L 214.300744 323.575794 
L 219.043202 338.820176 
L 223.785661 305.111975 
L 228.52812 327.704675 
L 233.270579 330.228364 
L 238.013037 345.931313 
L 242.755496 339.028918 
L 247.497955 331.064615 
L 252.240413 331.587273 
L 256.982872 329.322424 
L 261.725331 343.203754 
L 266.467789 343.477727 
L 271.210248 332.557922 
L 275.952707 333.852121 
L 280.695165 341.517762 
L 285.437624 305.111975 
L 290.180083 339.61719 
L 294.922541 340.154308 
L 299.665 351.970909 
L 304.407459 339.028918 
L 309.149917 323.362297 
L 313.892376 336.871919 
L 318.634835 334.984545 
L 323.377293 332.557922 
L 328.119752 306.673939 
L 332.862211 324.792727 
L 337.604669 329.322424 
L 342.347128 250.052727 
L 347.089587 351.970909 
L 351.832045 351.970909 
L 356.574504 351.970909 
L 361.316963 351.970909 
L 366.059421 306.673939 
L 370.80188 297.614545 
L 375.544339 351.970909 
L 380.286798 351.970909 
L 385.029256 351.970909 
L 389.771715 351.970909 
L 394.514174 351.970909 
L 399.256632 351.970909 
L 403.999091 351.970909 
L 408.74155 351.970909 
L 413.484008 351.970909 
L 418.226467 351.970909 
L 422.968926 351.970909 
L 427.711384 216.08 
L 432.453843 351.970909 
L 437.196302 351.970909 
L 441.93876 351.970909 
L 446.681219 351.970909 
L 451.423678 351.970909 
L 456.166136 351.970909 
L 460.908595 351.970909 
L 465.651054 351.970909 
L 470.393512 351.970909 
L 475.135971 216.08 
L 479.87843 351.970909 
L 484.620888 351.970909 
L 489.363347 351.970909 
L 494.105806 351.970909 
L 498.848264 351.970909 
L 503.590723 351.970909 
L 508.333182 80.189091 
" style="fill:none;stroke:#d62728;stroke-linecap:square;stroke-width:1.5;"/>
   </g>
   <g id="line2d_16">
    <path clip-path="url(#p587a17edbb)" d="M 90.996818 345.42195 
L 95.739277 344.093175 
L 100.481736 343.858019 
L 105.224194 349.972513 
L 109.966653 351.970909 
L 114.709112 351.970909 
L 119.45157 351.970909 
L 124.194029 351.970909 
L 128.936488 351.970909 
L 133.678946 344.818756 
L 138.421405 351.970909 
L 143.163864 347.551693 
L 147.906322 351.970909 
L 152.648781 349.743189 
L 157.39124 342.517628 
L 162.133698 344.278971 
L 166.876157 349.454411 
L 171.618616 349.382511 
L 176.361074 343.565286 
L 181.103533 345.79405 
L 185.845992 348.84698 
L 190.58845 342.264416 
L 195.330909 348.735411 
L 200.073368 351.970909 
L 204.815826 340.801793 
L 209.558285 347.914464 
L 214.300744 351.970909 
L 219.043202 347.587331 
L 223.785661 351.970909 
L 228.52812 351.970909 
L 233.270579 351.970909 
L 238.013037 345.931313 
L 242.755496 351.970909 
L 247.497955 345.002145 
L 252.240413 345.176364 
L 256.982872 351.970909 
L 261.725331 351.970909 
L 266.467789 351.970909 
L 271.210248 351.970909 
L 275.952707 333.852121 
L 280.695165 351.970909 
L 285.437624 342.599122 
L 290.180083 351.970909 
L 294.922541 340.154308 
L 299.665 351.970909 
L 304.407459 339.028918 
L 309.149917 351.970909 
L 313.892376 351.970909 
L 318.634835 351.970909 
L 323.377293 351.970909 
L 328.119752 351.970909 
L 332.862211 351.970909 
L 337.604669 351.970909 
L 342.347128 351.970909 
L 347.089587 351.970909 
L 351.832045 351.970909 
L 356.574504 351.970909 
L 361.316963 351.970909 
L 366.059421 351.970909 
L 370.80188 351.970909 
L 375.544339 351.970909 
L 380.286798 216.08 
L 385.029256 351.970909 
L 389.771715 351.970909 
L 394.514174 351.970909 
L 399.256632 351.970909 
L 403.999091 351.970909 
L 408.74155 351.970909 
L 413.484008 351.970909 
L 418.226467 351.970909 
L 422.968926 351.970909 
L 427.711384 351.970909 
L 432.453843 351.970909 
L 437.196302 351.970909 
L 441.93876 351.970909 
L 446.681219 351.970909 
L 451.423678 351.970909 
L 456.166136 351.970909 
L 460.908595 351.970909 
L 465.651054 351.970909 
L 470.393512 351.970909 
L 475.135971 351.970909 
L 479.87843 351.970909 
L 484.620888 351.970909 
L 489.363347 351.970909 
L 494.105806 351.970909 
L 498.848264 351.970909 
L 503.590723 351.970909 
L 508.333182 351.970909 
" style="fill:none;stroke:#9467bd;stroke-linecap:square;stroke-width:1.5;"/>
   </g>
   <g id="line2d_17">
    <path clip-path="url(#p587a17edbb)" d="M 90.996818 296.304754 
L 95.739277 316.521107 
L 100.481736 327.632239 
L 105.224194 323.993369 
L 109.966653 328.840542 
L 114.709112 336.990809 
L 119.45157 336.247994 
L 124.194029 330.053021 
L 128.936488 339.130823 
L 133.678946 347.202807 
L 138.421405 337.540016 
L 143.163864 334.294043 
L 147.906322 335.983743 
L 152.648781 338.60459 
L 157.39124 344.880949 
L 162.133698 328.895094 
L 166.876157 334.355421 
L 171.618616 328.675325 
L 176.361074 329.555914 
L 181.103533 330.351901 
L 185.845992 330.103406 
L 190.58845 326.086926 
L 195.330909 326.086926 
L 200.073368 322.980848 
L 204.815826 325.909639 
L 209.558285 319.519349 
L 214.300744 331.688684 
L 219.043202 312.51871 
L 223.785661 323.855549 
L 228.52812 317.998182 
L 233.270579 319.357091 
L 238.013037 309.693737 
L 242.755496 319.615931 
L 247.497955 331.064615 
L 252.240413 317.998182 
L 256.982872 329.322424 
L 261.725331 316.902287 
L 266.467789 292.518636 
L 271.210248 322.851429 
L 275.952707 324.792727 
L 280.695165 331.064615 
L 285.437624 295.740188 
L 290.180083 277.848595 
L 294.922541 316.521107 
L 299.665 292.887905 
L 304.407459 300.202944 
L 309.149917 280.449378 
L 313.892376 306.673939 
L 318.634835 301.011818 
L 323.377293 313.144935 
L 328.119752 306.673939 
L 332.862211 243.258182 
L 337.604669 306.673939 
L 342.347128 317.998182 
L 347.089587 261.37697 
L 351.832045 351.970909 
L 356.574504 351.970909 
L 361.316963 243.258182 
L 366.059421 216.08 
L 370.80188 243.258182 
L 375.544339 284.025455 
L 380.286798 351.970909 
L 385.029256 351.970909 
L 389.771715 351.970909 
L 394.514174 351.970909 
L 399.256632 351.970909 
L 403.999091 261.37697 
L 408.74155 351.970909 
L 413.484008 351.970909 
L 418.226467 170.78303 
L 422.968926 351.970909 
L 427.711384 351.970909 
L 432.453843 170.78303 
L 437.196302 351.970909 
L 441.93876 284.025455 
L 446.681219 216.08 
L 451.423678 351.970909 
L 456.166136 351.970909 
L 460.908595 351.970909 
L 465.651054 216.08 
L 470.393512 261.37697 
L 475.135971 351.970909 
L 479.87843 216.08 
L 484.620888 351.970909 
L 489.363347 351.970909 
L 494.105806 351.970909 
L 498.848264 351.970909 
L 503.590723 216.08 
L 508.333182 351.970909 
" style="fill:none;stroke:#8c564b;stroke-linecap:square;stroke-width:1.5;"/>
   </g>
   <g id="line2d_18">
    <path clip-path="url(#p587a17edbb)" d="M 90.996818 338.87299 
L 95.739277 330.307141 
L 100.481736 341.829796 
L 105.224194 329.988556 
L 109.966653 336.550664 
L 114.709112 349.830895 
L 119.45157 340.740255 
L 124.194029 347.587331 
L 128.936488 341.270838 
L 133.678946 342.434705 
L 138.421405 335.134867 
L 143.163864 347.551693 
L 147.906322 335.983743 
L 152.648781 343.06003 
L 157.39124 325.974387 
L 162.133698 336.587033 
L 166.876157 339.388418 
L 171.618616 336.440519 
L 176.361074 332.357788 
L 181.103533 336.52876 
L 185.845992 317.607691 
L 190.58845 339.028918 
L 195.330909 345.499913 
L 200.073368 330.228364 
L 204.815826 344.524832 
L 209.558285 339.801574 
L 214.300744 323.575794 
L 219.043202 325.669443 
L 223.785661 314.483762 
L 228.52812 322.851429 
L 233.270579 324.792727 
L 238.013037 339.891717 
L 242.755496 332.557922 
L 247.497955 331.064615 
L 252.240413 324.792727 
L 256.982872 299.124444 
L 261.725331 334.436598 
L 266.467789 334.984545 
L 271.210248 322.851429 
L 275.952707 324.792727 
L 280.695165 341.517762 
L 285.437624 333.227335 
L 290.180083 302.556033 
L 294.922541 328.337708 
L 299.665 351.970909 
L 304.407459 313.144935 
L 309.149917 323.362297 
L 313.892376 336.871919 
L 318.634835 334.984545 
L 323.377293 332.557922 
L 328.119752 351.970909 
L 332.862211 324.792727 
L 337.604669 306.673939 
L 342.347128 317.998182 
L 347.089587 306.673939 
L 351.832045 351.970909 
L 356.574504 274.318961 
L 361.316963 351.970909 
L 366.059421 351.970909 
L 370.80188 351.970909 
L 375.544339 284.025455 
L 380.286798 216.08 
L 385.029256 351.970909 
L 389.771715 80.189091 
L 394.514174 216.08 
L 399.256632 351.970909 
L 403.999091 351.970909 
L 408.74155 351.970909 
L 413.484008 216.08 
L 418.226467 351.970909 
L 422.968926 216.08 
L 427.711384 216.08 
L 432.453843 351.970909 
L 437.196302 351.970909 
L 441.93876 351.970909 
L 446.681219 351.970909 
L 451.423678 351.970909 
L 456.166136 351.970909 
L 460.908595 351.970909 
L 465.651054 216.08 
L 470.393512 351.970909 
L 475.135971 351.970909 
L 479.87843 351.970909 
L 484.620888 351.970909 
L 489.363347 351.970909 
L 494.105806 351.970909 
L 498.848264 351.970909 
L 503.590723 351.970909 
L 508.333182 351.970909 
" style="fill:none;stroke:#e377c2;stroke-linecap:square;stroke-width:1.5;"/>
   </g>
   <g id="line2d_19">
    <path clip-path="url(#p587a17edbb)" d="M 90.996818 327.412311 
L 95.739277 285.010171 
L 100.481736 258.672673 
L 105.224194 272.03508 
L 109.966653 272.942153 
L 114.709112 266.370336 
L 119.45157 268.864072 
L 124.194029 281.833666 
L 128.936488 298.470551 
L 133.678946 275.681276 
L 138.421405 289.437039 
L 143.163864 298.94031 
L 147.906322 306.293293 
L 152.648781 307.416513 
L 157.39124 307.067826 
L 162.133698 287.871424 
L 166.876157 321.772929 
L 171.618616 292.437749 
L 176.361074 309.942793 
L 181.103533 302.556033 
L 185.845992 298.864117 
L 190.58845 306.673939 
L 195.330909 303.438442 
L 200.073368 293.990788 
L 204.815826 329.632677 
L 209.558285 307.350014 
L 214.300744 299.237123 
L 219.043202 312.51871 
L 223.785661 295.740188 
L 228.52812 317.998182 
L 233.270579 313.921455 
L 238.013037 309.693737 
L 242.755496 326.086926 
L 247.497955 310.158322 
L 252.240413 284.025455 
L 256.982872 284.025455 
L 261.725331 334.436598 
L 266.467789 309.505 
L 271.210248 303.438442 
L 275.952707 333.852121 
L 280.695165 289.252028 
L 285.437624 314.483762 
L 290.180083 314.909752 
L 294.922541 304.704506 
L 299.665 328.337708 
L 304.407459 313.144935 
L 309.149917 337.666603 
L 313.892376 291.574949 
L 318.634835 301.011818 
L 323.377293 351.970909 
L 328.119752 351.970909 
L 332.862211 351.970909 
L 337.604669 329.322424 
L 342.347128 351.970909 
L 347.089587 306.673939 
L 351.832045 284.025455 
L 356.574504 313.144935 
L 361.316963 297.614545 
L 366.059421 351.970909 
L 370.80188 297.614545 
L 375.544339 351.970909 
L 380.286798 351.970909 
L 385.029256 216.08 
L 389.771715 351.970909 
L 394.514174 351.970909 
L 399.256632 351.970909 
L 403.999091 351.970909 
L 408.74155 351.970909 
L 413.484008 351.970909 
L 418.226467 351.970909 
L 422.968926 216.08 
L 427.711384 351.970909 
L 432.453843 351.970909 
L 437.196302 261.37697 
L 441.93876 351.970909 
L 446.681219 351.970909 
L 451.423678 80.189091 
L 456.166136 261.37697 
L 460.908595 351.970909 
L 465.651054 351.970909 
L 470.393512 261.37697 
L 475.135971 351.970909 
L 479.87843 216.08 
L 484.620888 351.970909 
L 489.363347 80.189091 
L 494.105806 80.189091 
L 498.848264 216.08 
L 503.590723 351.970909 
L 508.333182 351.970909 
" style="fill:none;stroke:#7f7f7f;stroke-linecap:square;stroke-width:1.5;"/>
   </g>
   <g id="patch_3">
    <path d="M 70.13 365.56 
L 70.13 66.6 
" style="fill:none;stroke:#000000;stroke-linecap:square;stroke-linejoin:miter;stroke-width:0.8;"/>
   </g>
   <g id="patch_4">
    <path d="M 529.2 365.56 
L 529.2 66.6 
" style="fill:none;stroke:#000000;stroke-linecap:square;stroke-linejoin:miter;stroke-width:0.8;"/>
   </g>
   <g id="patch_5">
    <path d="M 70.13 365.56 
L 529.2 365.56 
" style="fill:none;stroke:#000000;stroke-linecap:square;stroke-linejoin:miter;stroke-width:0.8;"/>
   </g>
   <g id="patch_6">
    <path d="M 70.13 66.6 
L 529.2 66.6 
" style="fill:none;stroke:#000000;stroke-linecap:square;stroke-linejoin:miter;stroke-width:0.8;"/>
   </g>
   <g id="legend_1">
    <g id="patch_7">
     <path d="M 80.63 59.1 
L 518.7 59.1 
Q 521.7 59.1 521.7 56.1 
L 521.7 13.565625 
Q 521.7 10.565625 518.7 10.565625 
L 80.63 10.565625 
Q 77.63 10.565625 77.63 13.565625 
L 77.63 56.1 
Q 77.63 59.1 80.63 59.1 
z
" style="fill:#ffffff;opacity:0.8;stroke:#cccccc;stroke-linejoin:miter;"/>
    </g>
    <g id="line2d_20">
     <path d="M 83.63 22.713281 
L 113.63 22.713281 
" style="fill:none;stroke:#1f77b4;stroke-linecap:square;stroke-width:1.5;"/>
    </g>
    <g id="line2d_21"/>
    <g id="text_14">
     <!-- Stra 1 -->
     <defs>
      <path d="M 53.515625 70.515625 
L 53.515625 60.890625 
Q 47.90625 63.578125 42.921875 64.890625 
Q 37.9375 66.21875 33.296875 66.21875 
Q 25.25 66.21875 20.875 63.09375 
Q 16.5 59.96875 16.5 54.203125 
Q 16.5 49.359375 19.40625 46.890625 
Q 22.3125 44.4375 30.421875 42.921875 
L 36.375 41.703125 
Q 47.40625 39.59375 52.65625 34.296875 
Q 57.90625 29 57.90625 20.125 
Q 57.90625 9.515625 50.796875 4.046875 
Q 43.703125 -1.421875 29.984375 -1.421875 
Q 24.8125 -1.421875 18.96875 -0.25 
Q 13.140625 0.921875 6.890625 3.21875 
L 6.890625 13.375 
Q 12.890625 10.015625 18.65625 8.296875 
Q 24.421875 6.59375 29.984375 6.59375 
Q 38.421875 6.59375 43.015625 9.90625 
Q 47.609375 13.234375 47.609375 19.390625 
Q 47.609375 24.75 44.3125 27.78125 
Q 41.015625 30.8125 33.5 32.328125 
L 27.484375 33.5 
Q 16.453125 35.6875 11.515625 40.375 
Q 6.59375 45.0625 6.59375 53.421875 
Q 6.59375 63.09375 13.40625 68.65625 
Q 20.21875 74.21875 32.171875 74.21875 
Q 37.3125 74.21875 42.625 73.28125 
Q 47.953125 72.359375 53.515625 70.515625 
z
" id="DejaVuSans-83"/>
     </defs>
     <g transform="translate(125.63 27.963281)scale(0.15 -0.15)">
      <use xlink:href="#DejaVuSans-83"/>
      <use x="63.476562" xlink:href="#DejaVuSans-116"/>
      <use x="102.685547" xlink:href="#DejaVuSans-114"/>
      <use x="143.798828" xlink:href="#DejaVuSans-97"/>
      <use x="205.078125" xlink:href="#DejaVuSans-32"/>
      <use x="236.865234" xlink:href="#DejaVuSans-49"/>
     </g>
    </g>
    <g id="line2d_22">
     <path d="M 83.63 44.730469 
L 113.63 44.730469 
" style="fill:none;stroke:#ff7f0e;stroke-linecap:square;stroke-width:1.5;"/>
    </g>
    <g id="line2d_23"/>
    <g id="text_15">
     <!-- Stra 2 -->
     <g transform="translate(125.63 49.980469)scale(0.15 -0.15)">
      <use xlink:href="#DejaVuSans-83"/>
      <use x="63.476562" xlink:href="#DejaVuSans-116"/>
      <use x="102.685547" xlink:href="#DejaVuSans-114"/>
      <use x="143.798828" xlink:href="#DejaVuSans-97"/>
      <use x="205.078125" xlink:href="#DejaVuSans-32"/>
      <use x="236.865234" xlink:href="#DejaVuSans-50"/>
     </g>
    </g>
    <g id="line2d_24">
     <path d="M 198.629115 22.713281 
L 228.629115 22.713281 
" style="fill:none;stroke:#2ca02c;stroke-linecap:square;stroke-width:1.5;"/>
    </g>
    <g id="line2d_25"/>
    <g id="text_16">
     <!-- Stra 3 -->
     <defs>
      <path d="M 40.578125 39.3125 
Q 47.65625 37.796875 51.625 33 
Q 55.609375 28.21875 55.609375 21.1875 
Q 55.609375 10.40625 48.1875 4.484375 
Q 40.765625 -1.421875 27.09375 -1.421875 
Q 22.515625 -1.421875 17.65625 -0.515625 
Q 12.796875 0.390625 7.625 2.203125 
L 7.625 11.71875 
Q 11.71875 9.328125 16.59375 8.109375 
Q 21.484375 6.890625 26.8125 6.890625 
Q 36.078125 6.890625 40.9375 10.546875 
Q 45.796875 14.203125 45.796875 21.1875 
Q 45.796875 27.640625 41.28125 31.265625 
Q 36.765625 34.90625 28.71875 34.90625 
L 20.21875 34.90625 
L 20.21875 43.015625 
L 29.109375 43.015625 
Q 36.375 43.015625 40.234375 45.921875 
Q 44.09375 48.828125 44.09375 54.296875 
Q 44.09375 59.90625 40.109375 62.90625 
Q 36.140625 65.921875 28.71875 65.921875 
Q 24.65625 65.921875 20.015625 65.03125 
Q 15.375 64.15625 9.8125 62.3125 
L 9.8125 71.09375 
Q 15.4375 72.65625 20.34375 73.4375 
Q 25.25 74.21875 29.59375 74.21875 
Q 40.828125 74.21875 47.359375 69.109375 
Q 53.90625 64.015625 53.90625 55.328125 
Q 53.90625 49.265625 50.4375 45.09375 
Q 46.96875 40.921875 40.578125 39.3125 
z
" id="DejaVuSans-51"/>
     </defs>
     <g transform="translate(240.629115 27.963281)scale(0.15 -0.15)">
      <use xlink:href="#DejaVuSans-83"/>
      <use x="63.476562" xlink:href="#DejaVuSans-116"/>
      <use x="102.685547" xlink:href="#DejaVuSans-114"/>
      <use x="143.798828" xlink:href="#DejaVuSans-97"/>
      <use x="205.078125" xlink:href="#DejaVuSans-32"/>
      <use x="236.865234" xlink:href="#DejaVuSans-51"/>
     </g>
    </g>
    <g id="line2d_26">
     <path d="M 198.629115 44.730469 
L 228.629115 44.730469 
" style="fill:none;stroke:#d62728;stroke-linecap:square;stroke-width:1.5;"/>
    </g>
    <g id="line2d_27"/>
    <g id="text_17">
     <!-- Stra 4 -->
     <g transform="translate(240.629115 49.980469)scale(0.15 -0.15)">
      <use xlink:href="#DejaVuSans-83"/>
      <use x="63.476562" xlink:href="#DejaVuSans-116"/>
      <use x="102.685547" xlink:href="#DejaVuSans-114"/>
      <use x="143.798828" xlink:href="#DejaVuSans-97"/>
      <use x="205.078125" xlink:href="#DejaVuSans-32"/>
      <use x="236.865234" xlink:href="#DejaVuSans-52"/>
     </g>
    </g>
    <g id="line2d_28">
     <path d="M 313.628229 22.713281 
L 343.628229 22.713281 
" style="fill:none;stroke:#9467bd;stroke-linecap:square;stroke-width:1.5;"/>
    </g>
    <g id="line2d_29"/>
    <g id="text_18">
     <!-- Stra 5 -->
     <defs>
      <path d="M 10.796875 72.90625 
L 49.515625 72.90625 
L 49.515625 64.59375 
L 19.828125 64.59375 
L 19.828125 46.734375 
Q 21.96875 47.46875 24.109375 47.828125 
Q 26.265625 48.1875 28.421875 48.1875 
Q 40.625 48.1875 47.75 41.5 
Q 54.890625 34.8125 54.890625 23.390625 
Q 54.890625 11.625 47.5625 5.09375 
Q 40.234375 -1.421875 26.90625 -1.421875 
Q 22.3125 -1.421875 17.546875 -0.640625 
Q 12.796875 0.140625 7.71875 1.703125 
L 7.71875 11.625 
Q 12.109375 9.234375 16.796875 8.0625 
Q 21.484375 6.890625 26.703125 6.890625 
Q 35.15625 6.890625 40.078125 11.328125 
Q 45.015625 15.765625 45.015625 23.390625 
Q 45.015625 31 40.078125 35.4375 
Q 35.15625 39.890625 26.703125 39.890625 
Q 22.75 39.890625 18.8125 39.015625 
Q 14.890625 38.140625 10.796875 36.28125 
z
" id="DejaVuSans-53"/>
     </defs>
     <g transform="translate(355.628229 27.963281)scale(0.15 -0.15)">
      <use xlink:href="#DejaVuSans-83"/>
      <use x="63.476562" xlink:href="#DejaVuSans-116"/>
      <use x="102.685547" xlink:href="#DejaVuSans-114"/>
      <use x="143.798828" xlink:href="#DejaVuSans-97"/>
      <use x="205.078125" xlink:href="#DejaVuSans-32"/>
      <use x="236.865234" xlink:href="#DejaVuSans-53"/>
     </g>
    </g>
    <g id="line2d_30">
     <path d="M 313.628229 44.730469 
L 343.628229 44.730469 
" style="fill:none;stroke:#8c564b;stroke-linecap:square;stroke-width:1.5;"/>
    </g>
    <g id="line2d_31"/>
    <g id="text_19">
     <!-- Stra 6 -->
     <g transform="translate(355.628229 49.980469)scale(0.15 -0.15)">
      <use xlink:href="#DejaVuSans-83"/>
      <use x="63.476562" xlink:href="#DejaVuSans-116"/>
      <use x="102.685547" xlink:href="#DejaVuSans-114"/>
      <use x="143.798828" xlink:href="#DejaVuSans-97"/>
      <use x="205.078125" xlink:href="#DejaVuSans-32"/>
      <use x="236.865234" xlink:href="#DejaVuSans-54"/>
     </g>
    </g>
    <g id="line2d_32">
     <path d="M 428.627344 22.713281 
L 458.627344 22.713281 
" style="fill:none;stroke:#e377c2;stroke-linecap:square;stroke-width:1.5;"/>
    </g>
    <g id="line2d_33"/>
    <g id="text_20">
     <!-- Stra 7 -->
     <defs>
      <path d="M 8.203125 72.90625 
L 55.078125 72.90625 
L 55.078125 68.703125 
L 28.609375 0 
L 18.3125 0 
L 43.21875 64.59375 
L 8.203125 64.59375 
z
" id="DejaVuSans-55"/>
     </defs>
     <g transform="translate(470.627344 27.963281)scale(0.15 -0.15)">
      <use xlink:href="#DejaVuSans-83"/>
      <use x="63.476562" xlink:href="#DejaVuSans-116"/>
      <use x="102.685547" xlink:href="#DejaVuSans-114"/>
      <use x="143.798828" xlink:href="#DejaVuSans-97"/>
      <use x="205.078125" xlink:href="#DejaVuSans-32"/>
      <use x="236.865234" xlink:href="#DejaVuSans-55"/>
     </g>
    </g>
    <g id="line2d_34">
     <path d="M 428.627344 44.730469 
L 458.627344 44.730469 
" style="fill:none;stroke:#7f7f7f;stroke-linecap:square;stroke-width:1.5;"/>
    </g>
    <g id="line2d_35"/>
    <g id="text_21">
     <!-- Stra 8 -->
     <g transform="translate(470.627344 49.980469)scale(0.15 -0.15)">
      <use xlink:href="#DejaVuSans-83"/>
      <use x="63.476562" xlink:href="#DejaVuSans-116"/>
      <use x="102.685547" xlink:href="#DejaVuSans-114"/>
      <use x="143.798828" xlink:href="#DejaVuSans-97"/>
      <use x="205.078125" xlink:href="#DejaVuSans-32"/>
      <use x="236.865234" xlink:href="#DejaVuSans-56"/>
     </g>
    </g>
   </g>
  </g>
 </g>
 <defs>
  <clipPath id="p587a17edbb">
   <rect height="298.96" width="459.07" x="70.13" y="66.6"/>
  </clipPath>
 </defs>
</svg>
