<?xml version="1.0" encoding="utf-8" standalone="no"?>
<!DOCTYPE svg PUBLIC "-//W3C//DTD SVG 1.1//EN"
  "http://www.w3.org/Graphics/SVG/1.1/DTD/svg11.dtd">
<!-- Created with matplotlib (https://matplotlib.org/) -->
<svg height="432pt" version="1.1" viewBox="0 0 540 432" width="540pt" xmlns="http://www.w3.org/2000/svg" xmlns:xlink="http://www.w3.org/1999/xlink">
 <defs>
  <style type="text/css">
*{stroke-linecap:butt;stroke-linejoin:round;}
  </style>
 </defs>
 <g id="figure_1">
  <g id="patch_1">
   <path d="M 0 432 
L 540 432 
L 540 0 
L 0 0 
z
" style="fill:#ffffff;"/>
  </g>
  <g id="axes_1">
   <g id="patch_2">
    <path d="M 108.2 365.56 
L 529.2 365.56 
L 529.2 66.6 
L 108.2 66.6 
z
" style="fill:#ffffff;"/>
   </g>
   <g id="matplotlib.axis_1">
    <g id="xtick_1">
     <g id="line2d_1">
      <defs>
       <path d="M 0 0 
L 0 3.5 
" id="mc60590a2a3" style="stroke:#000000;stroke-width:0.8;"/>
      </defs>
      <g>
       <use style="stroke:#000000;stroke-width:0.8;" x="127.336364" xlink:href="#mc60590a2a3" y="365.56"/>
      </g>
     </g>
     <g id="text_1">
      <!-- 0 -->
      <defs>
       <path d="M 31.78125 66.40625 
Q 24.171875 66.40625 20.328125 58.90625 
Q 16.5 51.421875 16.5 36.375 
Q 16.5 21.390625 20.328125 13.890625 
Q 24.171875 6.390625 31.78125 6.390625 
Q 39.453125 6.390625 43.28125 13.890625 
Q 47.125 21.390625 47.125 36.375 
Q 47.125 51.421875 43.28125 58.90625 
Q 39.453125 66.40625 31.78125 66.40625 
z
M 31.78125 74.21875 
Q 44.046875 74.21875 50.515625 64.515625 
Q 56.984375 54.828125 56.984375 36.375 
Q 56.984375 17.96875 50.515625 8.265625 
Q 44.046875 -1.421875 31.78125 -1.421875 
Q 19.53125 -1.421875 13.0625 8.265625 
Q 6.59375 17.96875 6.59375 36.375 
Q 6.59375 54.828125 13.0625 64.515625 
Q 19.53125 74.21875 31.78125 74.21875 
z
" id="DejaVuSans-48"/>
      </defs>
      <g transform="translate(120.973864 387.756875)scale(0.2 -0.2)">
       <use xlink:href="#DejaVuSans-48"/>
      </g>
     </g>
    </g>
    <g id="xtick_2">
     <g id="line2d_2">
      <g>
       <use style="stroke:#000000;stroke-width:0.8;" x="214.319835" xlink:href="#mc60590a2a3" y="365.56"/>
      </g>
     </g>
     <g id="text_2">
      <!-- 20 -->
      <defs>
       <path d="M 19.1875 8.296875 
L 53.609375 8.296875 
L 53.609375 0 
L 7.328125 0 
L 7.328125 8.296875 
Q 12.9375 14.109375 22.625 23.890625 
Q 32.328125 33.6875 34.8125 36.53125 
Q 39.546875 41.84375 41.421875 45.53125 
Q 43.3125 49.21875 43.3125 52.78125 
Q 43.3125 58.59375 39.234375 62.25 
Q 35.15625 65.921875 28.609375 65.921875 
Q 23.96875 65.921875 18.8125 64.3125 
Q 13.671875 62.703125 7.8125 59.421875 
L 7.8125 69.390625 
Q 13.765625 71.78125 18.9375 73 
Q 24.125 74.21875 28.421875 74.21875 
Q 39.75 74.21875 46.484375 68.546875 
Q 53.21875 62.890625 53.21875 53.421875 
Q 53.21875 48.921875 51.53125 44.890625 
Q 49.859375 40.875 45.40625 35.40625 
Q 44.1875 33.984375 37.640625 27.21875 
Q 31.109375 20.453125 19.1875 8.296875 
z
" id="DejaVuSans-50"/>
      </defs>
      <g transform="translate(201.594835 387.756875)scale(0.2 -0.2)">
       <use xlink:href="#DejaVuSans-50"/>
       <use x="63.623047" xlink:href="#DejaVuSans-48"/>
      </g>
     </g>
    </g>
    <g id="xtick_3">
     <g id="line2d_3">
      <g>
       <use style="stroke:#000000;stroke-width:0.8;" x="301.303306" xlink:href="#mc60590a2a3" y="365.56"/>
      </g>
     </g>
     <g id="text_3">
      <!-- 40 -->
      <defs>
       <path d="M 37.796875 64.3125 
L 12.890625 25.390625 
L 37.796875 25.390625 
z
M 35.203125 72.90625 
L 47.609375 72.90625 
L 47.609375 25.390625 
L 58.015625 25.390625 
L 58.015625 17.1875 
L 47.609375 17.1875 
L 47.609375 0 
L 37.796875 0 
L 37.796875 17.1875 
L 4.890625 17.1875 
L 4.890625 26.703125 
z
" id="DejaVuSans-52"/>
      </defs>
      <g transform="translate(288.578306 387.756875)scale(0.2 -0.2)">
       <use xlink:href="#DejaVuSans-52"/>
       <use x="63.623047" xlink:href="#DejaVuSans-48"/>
      </g>
     </g>
    </g>
    <g id="xtick_4">
     <g id="line2d_4">
      <g>
       <use style="stroke:#000000;stroke-width:0.8;" x="388.286777" xlink:href="#mc60590a2a3" y="365.56"/>
      </g>
     </g>
     <g id="text_4">
      <!-- 60 -->
      <defs>
       <path d="M 33.015625 40.375 
Q 26.375 40.375 22.484375 35.828125 
Q 18.609375 31.296875 18.609375 23.390625 
Q 18.609375 15.53125 22.484375 10.953125 
Q 26.375 6.390625 33.015625 6.390625 
Q 39.65625 6.390625 43.53125 10.953125 
Q 47.40625 15.53125 47.40625 23.390625 
Q 47.40625 31.296875 43.53125 35.828125 
Q 39.65625 40.375 33.015625 40.375 
z
M 52.59375 71.296875 
L 52.59375 62.3125 
Q 48.875 64.0625 45.09375 64.984375 
Q 41.3125 65.921875 37.59375 65.921875 
Q 27.828125 65.921875 22.671875 59.328125 
Q 17.53125 52.734375 16.796875 39.40625 
Q 19.671875 43.65625 24.015625 45.921875 
Q 28.375 48.1875 33.59375 48.1875 
Q 44.578125 48.1875 50.953125 41.515625 
Q 57.328125 34.859375 57.328125 23.390625 
Q 57.328125 12.15625 50.6875 5.359375 
Q 44.046875 -1.421875 33.015625 -1.421875 
Q 20.359375 -1.421875 13.671875 8.265625 
Q 6.984375 17.96875 6.984375 36.375 
Q 6.984375 53.65625 15.1875 63.9375 
Q 23.390625 74.21875 37.203125 74.21875 
Q 40.921875 74.21875 44.703125 73.484375 
Q 48.484375 72.75 52.59375 71.296875 
z
" id="DejaVuSans-54"/>
      </defs>
      <g transform="translate(375.561777 387.756875)scale(0.2 -0.2)">
       <use xlink:href="#DejaVuSans-54"/>
       <use x="63.623047" xlink:href="#DejaVuSans-48"/>
      </g>
     </g>
    </g>
    <g id="xtick_5">
     <g id="line2d_5">
      <g>
       <use style="stroke:#000000;stroke-width:0.8;" x="475.270248" xlink:href="#mc60590a2a3" y="365.56"/>
      </g>
     </g>
     <g id="text_5">
      <!-- 80 -->
      <defs>
       <path d="M 31.78125 34.625 
Q 24.75 34.625 20.71875 30.859375 
Q 16.703125 27.09375 16.703125 20.515625 
Q 16.703125 13.921875 20.71875 10.15625 
Q 24.75 6.390625 31.78125 6.390625 
Q 38.8125 6.390625 42.859375 10.171875 
Q 46.921875 13.96875 46.921875 20.515625 
Q 46.921875 27.09375 42.890625 30.859375 
Q 38.875 34.625 31.78125 34.625 
z
M 21.921875 38.8125 
Q 15.578125 40.375 12.03125 44.71875 
Q 8.5 49.078125 8.5 55.328125 
Q 8.5 64.0625 14.71875 69.140625 
Q 20.953125 74.21875 31.78125 74.21875 
Q 42.671875 74.21875 48.875 69.140625 
Q 55.078125 64.0625 55.078125 55.328125 
Q 55.078125 49.078125 51.53125 44.71875 
Q 48 40.375 41.703125 38.8125 
Q 48.828125 37.15625 52.796875 32.3125 
Q 56.78125 27.484375 56.78125 20.515625 
Q 56.78125 9.90625 50.3125 4.234375 
Q 43.84375 -1.421875 31.78125 -1.421875 
Q 19.734375 -1.421875 13.25 4.234375 
Q 6.78125 9.90625 6.78125 20.515625 
Q 6.78125 27.484375 10.78125 32.3125 
Q 14.796875 37.15625 21.921875 38.8125 
z
M 18.3125 54.390625 
Q 18.3125 48.734375 21.84375 45.5625 
Q 25.390625 42.390625 31.78125 42.390625 
Q 38.140625 42.390625 41.71875 45.5625 
Q 45.3125 48.734375 45.3125 54.390625 
Q 45.3125 60.0625 41.71875 63.234375 
Q 38.140625 66.40625 31.78125 66.40625 
Q 25.390625 66.40625 21.84375 63.234375 
Q 18.3125 60.0625 18.3125 54.390625 
z
" id="DejaVuSans-56"/>
      </defs>
      <g transform="translate(462.545248 387.756875)scale(0.2 -0.2)">
       <use xlink:href="#DejaVuSans-56"/>
       <use x="63.623047" xlink:href="#DejaVuSans-48"/>
      </g>
     </g>
    </g>
    <g id="text_6">
     <!-- # of games -->
     <defs>
      <path d="M 51.125 44 
L 36.921875 44 
L 32.8125 27.6875 
L 47.125 27.6875 
z
M 43.796875 71.78125 
L 38.71875 51.515625 
L 52.984375 51.515625 
L 58.109375 71.78125 
L 65.921875 71.78125 
L 60.890625 51.515625 
L 76.125 51.515625 
L 76.125 44 
L 58.984375 44 
L 54.984375 27.6875 
L 70.515625 27.6875 
L 70.515625 20.21875 
L 53.078125 20.21875 
L 48 0 
L 40.1875 0 
L 45.21875 20.21875 
L 30.90625 20.21875 
L 25.875 0 
L 18.015625 0 
L 23.09375 20.21875 
L 7.71875 20.21875 
L 7.71875 27.6875 
L 24.90625 27.6875 
L 29 44 
L 13.28125 44 
L 13.28125 51.515625 
L 30.90625 51.515625 
L 35.890625 71.78125 
z
" id="DejaVuSans-35"/>
      <path id="DejaVuSans-32"/>
      <path d="M 30.609375 48.390625 
Q 23.390625 48.390625 19.1875 42.75 
Q 14.984375 37.109375 14.984375 27.296875 
Q 14.984375 17.484375 19.15625 11.84375 
Q 23.34375 6.203125 30.609375 6.203125 
Q 37.796875 6.203125 41.984375 11.859375 
Q 46.1875 17.53125 46.1875 27.296875 
Q 46.1875 37.015625 41.984375 42.703125 
Q 37.796875 48.390625 30.609375 48.390625 
z
M 30.609375 56 
Q 42.328125 56 49.015625 48.375 
Q 55.71875 40.765625 55.71875 27.296875 
Q 55.71875 13.875 49.015625 6.21875 
Q 42.328125 -1.421875 30.609375 -1.421875 
Q 18.84375 -1.421875 12.171875 6.21875 
Q 5.515625 13.875 5.515625 27.296875 
Q 5.515625 40.765625 12.171875 48.375 
Q 18.84375 56 30.609375 56 
z
" id="DejaVuSans-111"/>
      <path d="M 37.109375 75.984375 
L 37.109375 68.5 
L 28.515625 68.5 
Q 23.6875 68.5 21.796875 66.546875 
Q 19.921875 64.59375 19.921875 59.515625 
L 19.921875 54.6875 
L 34.71875 54.6875 
L 34.71875 47.703125 
L 19.921875 47.703125 
L 19.921875 0 
L 10.890625 0 
L 10.890625 47.703125 
L 2.296875 47.703125 
L 2.296875 54.6875 
L 10.890625 54.6875 
L 10.890625 58.5 
Q 10.890625 67.625 15.140625 71.796875 
Q 19.390625 75.984375 28.609375 75.984375 
z
" id="DejaVuSans-102"/>
      <path d="M 45.40625 27.984375 
Q 45.40625 37.75 41.375 43.109375 
Q 37.359375 48.484375 30.078125 48.484375 
Q 22.859375 48.484375 18.828125 43.109375 
Q 14.796875 37.75 14.796875 27.984375 
Q 14.796875 18.265625 18.828125 12.890625 
Q 22.859375 7.515625 30.078125 7.515625 
Q 37.359375 7.515625 41.375 12.890625 
Q 45.40625 18.265625 45.40625 27.984375 
z
M 54.390625 6.78125 
Q 54.390625 -7.171875 48.1875 -13.984375 
Q 42 -20.796875 29.203125 -20.796875 
Q 24.46875 -20.796875 20.265625 -20.09375 
Q 16.0625 -19.390625 12.109375 -17.921875 
L 12.109375 -9.1875 
Q 16.0625 -11.328125 19.921875 -12.34375 
Q 23.78125 -13.375 27.78125 -13.375 
Q 36.625 -13.375 41.015625 -8.765625 
Q 45.40625 -4.15625 45.40625 5.171875 
L 45.40625 9.625 
Q 42.625 4.78125 38.28125 2.390625 
Q 33.9375 0 27.875 0 
Q 17.828125 0 11.671875 7.65625 
Q 5.515625 15.328125 5.515625 27.984375 
Q 5.515625 40.671875 11.671875 48.328125 
Q 17.828125 56 27.875 56 
Q 33.9375 56 38.28125 53.609375 
Q 42.625 51.21875 45.40625 46.390625 
L 45.40625 54.6875 
L 54.390625 54.6875 
z
" id="DejaVuSans-103"/>
      <path d="M 34.28125 27.484375 
Q 23.390625 27.484375 19.1875 25 
Q 14.984375 22.515625 14.984375 16.5 
Q 14.984375 11.71875 18.140625 8.90625 
Q 21.296875 6.109375 26.703125 6.109375 
Q 34.1875 6.109375 38.703125 11.40625 
Q 43.21875 16.703125 43.21875 25.484375 
L 43.21875 27.484375 
z
M 52.203125 31.203125 
L 52.203125 0 
L 43.21875 0 
L 43.21875 8.296875 
Q 40.140625 3.328125 35.546875 0.953125 
Q 30.953125 -1.421875 24.3125 -1.421875 
Q 15.921875 -1.421875 10.953125 3.296875 
Q 6 8.015625 6 15.921875 
Q 6 25.140625 12.171875 29.828125 
Q 18.359375 34.515625 30.609375 34.515625 
L 43.21875 34.515625 
L 43.21875 35.40625 
Q 43.21875 41.609375 39.140625 45 
Q 35.0625 48.390625 27.6875 48.390625 
Q 23 48.390625 18.546875 47.265625 
Q 14.109375 46.140625 10.015625 43.890625 
L 10.015625 52.203125 
Q 14.9375 54.109375 19.578125 55.046875 
Q 24.21875 56 28.609375 56 
Q 40.484375 56 46.34375 49.84375 
Q 52.203125 43.703125 52.203125 31.203125 
z
" id="DejaVuSans-97"/>
      <path d="M 52 44.1875 
Q 55.375 50.25 60.0625 53.125 
Q 64.75 56 71.09375 56 
Q 79.640625 56 84.28125 50.015625 
Q 88.921875 44.046875 88.921875 33.015625 
L 88.921875 0 
L 79.890625 0 
L 79.890625 32.71875 
Q 79.890625 40.578125 77.09375 44.375 
Q 74.3125 48.1875 68.609375 48.1875 
Q 61.625 48.1875 57.5625 43.546875 
Q 53.515625 38.921875 53.515625 30.90625 
L 53.515625 0 
L 44.484375 0 
L 44.484375 32.71875 
Q 44.484375 40.625 41.703125 44.40625 
Q 38.921875 48.1875 33.109375 48.1875 
Q 26.21875 48.1875 22.15625 43.53125 
Q 18.109375 38.875 18.109375 30.90625 
L 18.109375 0 
L 9.078125 0 
L 9.078125 54.6875 
L 18.109375 54.6875 
L 18.109375 46.1875 
Q 21.1875 51.21875 25.484375 53.609375 
Q 29.78125 56 35.6875 56 
Q 41.65625 56 45.828125 52.96875 
Q 50 49.953125 52 44.1875 
z
" id="DejaVuSans-109"/>
      <path d="M 56.203125 29.59375 
L 56.203125 25.203125 
L 14.890625 25.203125 
Q 15.484375 15.921875 20.484375 11.0625 
Q 25.484375 6.203125 34.421875 6.203125 
Q 39.59375 6.203125 44.453125 7.46875 
Q 49.3125 8.734375 54.109375 11.28125 
L 54.109375 2.78125 
Q 49.265625 0.734375 44.1875 -0.34375 
Q 39.109375 -1.421875 33.890625 -1.421875 
Q 20.796875 -1.421875 13.15625 6.1875 
Q 5.515625 13.8125 5.515625 26.8125 
Q 5.515625 40.234375 12.765625 48.109375 
Q 20.015625 56 32.328125 56 
Q 43.359375 56 49.78125 48.890625 
Q 56.203125 41.796875 56.203125 29.59375 
z
M 47.21875 32.234375 
Q 47.125 39.59375 43.09375 43.984375 
Q 39.0625 48.390625 32.421875 48.390625 
Q 24.90625 48.390625 20.390625 44.140625 
Q 15.875 39.890625 15.1875 32.171875 
z
" id="DejaVuSans-101"/>
      <path d="M 44.28125 53.078125 
L 44.28125 44.578125 
Q 40.484375 46.53125 36.375 47.5 
Q 32.28125 48.484375 27.875 48.484375 
Q 21.1875 48.484375 17.84375 46.4375 
Q 14.5 44.390625 14.5 40.28125 
Q 14.5 37.15625 16.890625 35.375 
Q 19.28125 33.59375 26.515625 31.984375 
L 29.59375 31.296875 
Q 39.15625 29.25 43.1875 25.515625 
Q 47.21875 21.78125 47.21875 15.09375 
Q 47.21875 7.46875 41.1875 3.015625 
Q 35.15625 -1.421875 24.609375 -1.421875 
Q 20.21875 -1.421875 15.453125 -0.5625 
Q 10.6875 0.296875 5.421875 2 
L 5.421875 11.28125 
Q 10.40625 8.6875 15.234375 7.390625 
Q 20.0625 6.109375 24.8125 6.109375 
Q 31.15625 6.109375 34.5625 8.28125 
Q 37.984375 10.453125 37.984375 14.40625 
Q 37.984375 18.0625 35.515625 20.015625 
Q 33.0625 21.96875 24.703125 23.78125 
L 21.578125 24.515625 
Q 13.234375 26.265625 9.515625 29.90625 
Q 5.8125 33.546875 5.8125 39.890625 
Q 5.8125 47.609375 11.28125 51.796875 
Q 16.75 56 26.8125 56 
Q 31.78125 56 36.171875 55.265625 
Q 40.578125 54.546875 44.28125 53.078125 
z
" id="DejaVuSans-115"/>
     </defs>
     <g transform="translate(246.256641 414.912344)scale(0.25 -0.25)">
      <use xlink:href="#DejaVuSans-35"/>
      <use x="83.789062" xlink:href="#DejaVuSans-32"/>
      <use x="115.576172" xlink:href="#DejaVuSans-111"/>
      <use x="176.757812" xlink:href="#DejaVuSans-102"/>
      <use x="211.962891" xlink:href="#DejaVuSans-32"/>
      <use x="243.75" xlink:href="#DejaVuSans-103"/>
      <use x="307.226562" xlink:href="#DejaVuSans-97"/>
      <use x="368.505859" xlink:href="#DejaVuSans-109"/>
      <use x="465.917969" xlink:href="#DejaVuSans-101"/>
      <use x="527.441406" xlink:href="#DejaVuSans-115"/>
     </g>
    </g>
   </g>
   <g id="matplotlib.axis_2">
    <g id="ytick_1">
     <g id="line2d_6">
      <defs>
       <path d="M 0 0 
L -3.5 0 
" id="m28bc031e98" style="stroke:#000000;stroke-width:0.8;"/>
      </defs>
      <g>
       <use style="stroke:#000000;stroke-width:0.8;" x="108.2" xlink:href="#m28bc031e98" y="364.483129"/>
      </g>
     </g>
     <g id="text_7">
      <!-- 0.9988 -->
      <defs>
       <path d="M 10.6875 12.40625 
L 21 12.40625 
L 21 0 
L 10.6875 0 
z
" id="DejaVuSans-46"/>
       <path d="M 10.984375 1.515625 
L 10.984375 10.5 
Q 14.703125 8.734375 18.5 7.8125 
Q 22.3125 6.890625 25.984375 6.890625 
Q 35.75 6.890625 40.890625 13.453125 
Q 46.046875 20.015625 46.78125 33.40625 
Q 43.953125 29.203125 39.59375 26.953125 
Q 35.25 24.703125 29.984375 24.703125 
Q 19.046875 24.703125 12.671875 31.3125 
Q 6.296875 37.9375 6.296875 49.421875 
Q 6.296875 60.640625 12.9375 67.421875 
Q 19.578125 74.21875 30.609375 74.21875 
Q 43.265625 74.21875 49.921875 64.515625 
Q 56.59375 54.828125 56.59375 36.375 
Q 56.59375 19.140625 48.40625 8.859375 
Q 40.234375 -1.421875 26.421875 -1.421875 
Q 22.703125 -1.421875 18.890625 -0.6875 
Q 15.09375 0.046875 10.984375 1.515625 
z
M 30.609375 32.421875 
Q 37.25 32.421875 41.125 36.953125 
Q 45.015625 41.5 45.015625 49.421875 
Q 45.015625 57.28125 41.125 61.84375 
Q 37.25 66.40625 30.609375 66.40625 
Q 23.96875 66.40625 20.09375 61.84375 
Q 16.21875 57.28125 16.21875 49.421875 
Q 16.21875 41.5 20.09375 36.953125 
Q 23.96875 32.421875 30.609375 32.421875 
z
" id="DejaVuSans-57"/>
      </defs>
      <g transform="translate(31.21875 372.081566)scale(0.2 -0.2)">
       <use xlink:href="#DejaVuSans-48"/>
       <use x="63.623047" xlink:href="#DejaVuSans-46"/>
       <use x="95.410156" xlink:href="#DejaVuSans-57"/>
       <use x="159.033203" xlink:href="#DejaVuSans-57"/>
       <use x="222.65625" xlink:href="#DejaVuSans-56"/>
       <use x="286.279297" xlink:href="#DejaVuSans-56"/>
      </g>
     </g>
    </g>
    <g id="ytick_2">
     <g id="line2d_7">
      <g>
       <use style="stroke:#000000;stroke-width:0.8;" x="108.2" xlink:href="#m28bc031e98" y="317.100789"/>
      </g>
     </g>
     <g id="text_8">
      <!-- 0.9990 -->
      <g transform="translate(31.21875 324.699227)scale(0.2 -0.2)">
       <use xlink:href="#DejaVuSans-48"/>
       <use x="63.623047" xlink:href="#DejaVuSans-46"/>
       <use x="95.410156" xlink:href="#DejaVuSans-57"/>
       <use x="159.033203" xlink:href="#DejaVuSans-57"/>
       <use x="222.65625" xlink:href="#DejaVuSans-57"/>
       <use x="286.279297" xlink:href="#DejaVuSans-48"/>
      </g>
     </g>
    </g>
    <g id="ytick_3">
     <g id="line2d_8">
      <g>
       <use style="stroke:#000000;stroke-width:0.8;" x="108.2" xlink:href="#m28bc031e98" y="269.718449"/>
      </g>
     </g>
     <g id="text_9">
      <!-- 0.9992 -->
      <g transform="translate(31.21875 277.316887)scale(0.2 -0.2)">
       <use xlink:href="#DejaVuSans-48"/>
       <use x="63.623047" xlink:href="#DejaVuSans-46"/>
       <use x="95.410156" xlink:href="#DejaVuSans-57"/>
       <use x="159.033203" xlink:href="#DejaVuSans-57"/>
       <use x="222.65625" xlink:href="#DejaVuSans-57"/>
       <use x="286.279297" xlink:href="#DejaVuSans-50"/>
      </g>
     </g>
    </g>
    <g id="ytick_4">
     <g id="line2d_9">
      <g>
       <use style="stroke:#000000;stroke-width:0.8;" x="108.2" xlink:href="#m28bc031e98" y="222.33611"/>
      </g>
     </g>
     <g id="text_10">
      <!-- 0.9994 -->
      <g transform="translate(31.21875 229.934547)scale(0.2 -0.2)">
       <use xlink:href="#DejaVuSans-48"/>
       <use x="63.623047" xlink:href="#DejaVuSans-46"/>
       <use x="95.410156" xlink:href="#DejaVuSans-57"/>
       <use x="159.033203" xlink:href="#DejaVuSans-57"/>
       <use x="222.65625" xlink:href="#DejaVuSans-57"/>
       <use x="286.279297" xlink:href="#DejaVuSans-52"/>
      </g>
     </g>
    </g>
    <g id="ytick_5">
     <g id="line2d_10">
      <g>
       <use style="stroke:#000000;stroke-width:0.8;" x="108.2" xlink:href="#m28bc031e98" y="174.95377"/>
      </g>
     </g>
     <g id="text_11">
      <!-- 0.9996 -->
      <g transform="translate(31.21875 182.552208)scale(0.2 -0.2)">
       <use xlink:href="#DejaVuSans-48"/>
       <use x="63.623047" xlink:href="#DejaVuSans-46"/>
       <use x="95.410156" xlink:href="#DejaVuSans-57"/>
       <use x="159.033203" xlink:href="#DejaVuSans-57"/>
       <use x="222.65625" xlink:href="#DejaVuSans-57"/>
       <use x="286.279297" xlink:href="#DejaVuSans-54"/>
      </g>
     </g>
    </g>
    <g id="ytick_6">
     <g id="line2d_11">
      <g>
       <use style="stroke:#000000;stroke-width:0.8;" x="108.2" xlink:href="#m28bc031e98" y="127.571431"/>
      </g>
     </g>
     <g id="text_12">
      <!-- 0.9998 -->
      <g transform="translate(31.21875 135.169868)scale(0.2 -0.2)">
       <use xlink:href="#DejaVuSans-48"/>
       <use x="63.623047" xlink:href="#DejaVuSans-46"/>
       <use x="95.410156" xlink:href="#DejaVuSans-57"/>
       <use x="159.033203" xlink:href="#DejaVuSans-57"/>
       <use x="222.65625" xlink:href="#DejaVuSans-57"/>
       <use x="286.279297" xlink:href="#DejaVuSans-56"/>
      </g>
     </g>
    </g>
    <g id="ytick_7">
     <g id="line2d_12">
      <g>
       <use style="stroke:#000000;stroke-width:0.8;" x="108.2" xlink:href="#m28bc031e98" y="80.189091"/>
      </g>
     </g>
     <g id="text_13">
      <!-- 1.0000 -->
      <defs>
       <path d="M 12.40625 8.296875 
L 28.515625 8.296875 
L 28.515625 63.921875 
L 10.984375 60.40625 
L 10.984375 69.390625 
L 28.421875 72.90625 
L 38.28125 72.90625 
L 38.28125 8.296875 
L 54.390625 8.296875 
L 54.390625 0 
L 12.40625 0 
z
" id="DejaVuSans-49"/>
      </defs>
      <g transform="translate(31.21875 87.787528)scale(0.2 -0.2)">
       <use xlink:href="#DejaVuSans-49"/>
       <use x="63.623047" xlink:href="#DejaVuSans-46"/>
       <use x="95.410156" xlink:href="#DejaVuSans-48"/>
       <use x="159.033203" xlink:href="#DejaVuSans-48"/>
       <use x="222.65625" xlink:href="#DejaVuSans-48"/>
       <use x="286.279297" xlink:href="#DejaVuSans-48"/>
      </g>
     </g>
    </g>
    <g id="text_14">
     <!-- defense impact Value -->
     <defs>
      <path d="M 45.40625 46.390625 
L 45.40625 75.984375 
L 54.390625 75.984375 
L 54.390625 0 
L 45.40625 0 
L 45.40625 8.203125 
Q 42.578125 3.328125 38.25 0.953125 
Q 33.9375 -1.421875 27.875 -1.421875 
Q 17.96875 -1.421875 11.734375 6.484375 
Q 5.515625 14.40625 5.515625 27.296875 
Q 5.515625 40.1875 11.734375 48.09375 
Q 17.96875 56 27.875 56 
Q 33.9375 56 38.25 53.625 
Q 42.578125 51.265625 45.40625 46.390625 
z
M 14.796875 27.296875 
Q 14.796875 17.390625 18.875 11.75 
Q 22.953125 6.109375 30.078125 6.109375 
Q 37.203125 6.109375 41.296875 11.75 
Q 45.40625 17.390625 45.40625 27.296875 
Q 45.40625 37.203125 41.296875 42.84375 
Q 37.203125 48.484375 30.078125 48.484375 
Q 22.953125 48.484375 18.875 42.84375 
Q 14.796875 37.203125 14.796875 27.296875 
z
" id="DejaVuSans-100"/>
      <path d="M 54.890625 33.015625 
L 54.890625 0 
L 45.90625 0 
L 45.90625 32.71875 
Q 45.90625 40.484375 42.875 44.328125 
Q 39.84375 48.1875 33.796875 48.1875 
Q 26.515625 48.1875 22.3125 43.546875 
Q 18.109375 38.921875 18.109375 30.90625 
L 18.109375 0 
L 9.078125 0 
L 9.078125 54.6875 
L 18.109375 54.6875 
L 18.109375 46.1875 
Q 21.34375 51.125 25.703125 53.5625 
Q 30.078125 56 35.796875 56 
Q 45.21875 56 50.046875 50.171875 
Q 54.890625 44.34375 54.890625 33.015625 
z
" id="DejaVuSans-110"/>
      <path d="M 9.421875 54.6875 
L 18.40625 54.6875 
L 18.40625 0 
L 9.421875 0 
z
M 9.421875 75.984375 
L 18.40625 75.984375 
L 18.40625 64.59375 
L 9.421875 64.59375 
z
" id="DejaVuSans-105"/>
      <path d="M 18.109375 8.203125 
L 18.109375 -20.796875 
L 9.078125 -20.796875 
L 9.078125 54.6875 
L 18.109375 54.6875 
L 18.109375 46.390625 
Q 20.953125 51.265625 25.265625 53.625 
Q 29.59375 56 35.59375 56 
Q 45.5625 56 51.78125 48.09375 
Q 58.015625 40.1875 58.015625 27.296875 
Q 58.015625 14.40625 51.78125 6.484375 
Q 45.5625 -1.421875 35.59375 -1.421875 
Q 29.59375 -1.421875 25.265625 0.953125 
Q 20.953125 3.328125 18.109375 8.203125 
z
M 48.6875 27.296875 
Q 48.6875 37.203125 44.609375 42.84375 
Q 40.53125 48.484375 33.40625 48.484375 
Q 26.265625 48.484375 22.1875 42.84375 
Q 18.109375 37.203125 18.109375 27.296875 
Q 18.109375 17.390625 22.1875 11.75 
Q 26.265625 6.109375 33.40625 6.109375 
Q 40.53125 6.109375 44.609375 11.75 
Q 48.6875 17.390625 48.6875 27.296875 
z
" id="DejaVuSans-112"/>
      <path d="M 48.78125 52.59375 
L 48.78125 44.1875 
Q 44.96875 46.296875 41.140625 47.34375 
Q 37.3125 48.390625 33.40625 48.390625 
Q 24.65625 48.390625 19.8125 42.84375 
Q 14.984375 37.3125 14.984375 27.296875 
Q 14.984375 17.28125 19.8125 11.734375 
Q 24.65625 6.203125 33.40625 6.203125 
Q 37.3125 6.203125 41.140625 7.25 
Q 44.96875 8.296875 48.78125 10.40625 
L 48.78125 2.09375 
Q 45.015625 0.34375 40.984375 -0.53125 
Q 36.96875 -1.421875 32.421875 -1.421875 
Q 20.0625 -1.421875 12.78125 6.34375 
Q 5.515625 14.109375 5.515625 27.296875 
Q 5.515625 40.671875 12.859375 48.328125 
Q 20.21875 56 33.015625 56 
Q 37.15625 56 41.109375 55.140625 
Q 45.0625 54.296875 48.78125 52.59375 
z
" id="DejaVuSans-99"/>
      <path d="M 18.3125 70.21875 
L 18.3125 54.6875 
L 36.8125 54.6875 
L 36.8125 47.703125 
L 18.3125 47.703125 
L 18.3125 18.015625 
Q 18.3125 11.328125 20.140625 9.421875 
Q 21.96875 7.515625 27.59375 7.515625 
L 36.8125 7.515625 
L 36.8125 0 
L 27.59375 0 
Q 17.1875 0 13.234375 3.875 
Q 9.28125 7.765625 9.28125 18.015625 
L 9.28125 47.703125 
L 2.6875 47.703125 
L 2.6875 54.6875 
L 9.28125 54.6875 
L 9.28125 70.21875 
z
" id="DejaVuSans-116"/>
      <path d="M 28.609375 0 
L 0.78125 72.90625 
L 11.078125 72.90625 
L 34.1875 11.53125 
L 57.328125 72.90625 
L 67.578125 72.90625 
L 39.796875 0 
z
" id="DejaVuSans-86"/>
      <path d="M 9.421875 75.984375 
L 18.40625 75.984375 
L 18.40625 0 
L 9.421875 0 
z
" id="DejaVuSans-108"/>
      <path d="M 8.5 21.578125 
L 8.5 54.6875 
L 17.484375 54.6875 
L 17.484375 21.921875 
Q 17.484375 14.15625 20.5 10.265625 
Q 23.53125 6.390625 29.59375 6.390625 
Q 36.859375 6.390625 41.078125 11.03125 
Q 45.3125 15.671875 45.3125 23.6875 
L 45.3125 54.6875 
L 54.296875 54.6875 
L 54.296875 0 
L 45.3125 0 
L 45.3125 8.40625 
Q 42.046875 3.421875 37.71875 1 
Q 33.40625 -1.421875 27.6875 -1.421875 
Q 18.265625 -1.421875 13.375 4.4375 
Q 8.5 10.296875 8.5 21.578125 
z
M 31.109375 56 
z
" id="DejaVuSans-117"/>
     </defs>
     <g transform="translate(23.752604 306.806562)rotate(-90)scale(0.166667 -0.166667)">
      <use xlink:href="#DejaVuSans-100"/>
      <use x="63.476562" xlink:href="#DejaVuSans-101"/>
      <use x="125" xlink:href="#DejaVuSans-102"/>
      <use x="160.205078" xlink:href="#DejaVuSans-101"/>
      <use x="221.728516" xlink:href="#DejaVuSans-110"/>
      <use x="285.107422" xlink:href="#DejaVuSans-115"/>
      <use x="337.207031" xlink:href="#DejaVuSans-101"/>
      <use x="398.730469" xlink:href="#DejaVuSans-32"/>
      <use x="430.517578" xlink:href="#DejaVuSans-105"/>
      <use x="458.300781" xlink:href="#DejaVuSans-109"/>
      <use x="555.712891" xlink:href="#DejaVuSans-112"/>
      <use x="619.189453" xlink:href="#DejaVuSans-97"/>
      <use x="680.46875" xlink:href="#DejaVuSans-99"/>
      <use x="735.449219" xlink:href="#DejaVuSans-116"/>
      <use x="774.658203" xlink:href="#DejaVuSans-32"/>
      <use x="806.445312" xlink:href="#DejaVuSans-86"/>
      <use x="874.744141" xlink:href="#DejaVuSans-97"/>
      <use x="936.023438" xlink:href="#DejaVuSans-108"/>
      <use x="963.806641" xlink:href="#DejaVuSans-117"/>
      <use x="1027.185547" xlink:href="#DejaVuSans-101"/>
     </g>
    </g>
   </g>
   <g id="line2d_13">
    <path clip-path="url(#pdb40569a13)" d="M 127.336364 80.189091 
L 131.685537 80.189091 
L 136.034711 80.189091 
L 140.383884 80.189091 
L 144.733058 85.453795 
L 149.082231 89.442208 
L 153.431405 101.048488 
L 157.780579 105.794699 
L 162.129752 107.35018 
L 166.478926 113.272972 
L 170.828099 117.560515 
L 175.177273 120.372346 
L 179.526446 136.744779 
L 183.87562 131.998165 
L 188.224793 119.730126 
L 192.573967 131.052307 
L 196.92314 130.984696 
L 201.272314 115.027633 
L 205.621488 113.617612 
L 209.970661 119.554175 
L 214.319835 124.674134 
L 218.669008 127.151202 
L 223.018182 129.205803 
L 227.367355 124.971886 
L 231.716529 134.918806 
L 236.065702 124.876861 
L 240.414876 122.683884 
L 244.76405 119.037937 
L 249.113223 112.694059 
L 253.462397 116.862814 
L 257.81157 121.329715 
L 262.160744 128.817651 
L 266.509917 114.27618 
L 270.859091 109.097311 
L 275.208264 106.96108 
L 279.557438 107.308396 
L 283.906612 124.199688 
L 288.255785 121.158063 
L 292.604959 131.456809 
L 296.954132 129.107836 
L 301.303306 118.822304 
L 305.652479 148.838992 
L 310.001653 178.03926 
L 314.350826 144.724285 
L 318.7 126.796539 
L 323.049174 103.701138 
L 327.398347 106.636064 
L 331.747521 92.384429 
L 336.096694 107.647776 
L 340.445868 110.600736 
L 344.795041 114.815762 
L 349.144215 170.814684 
L 353.493388 279.111161 
L 357.842562 307.528599 
L 362.191736 294.067707 
L 366.540909 286.589434 
L 370.890083 160.410568 
L 375.239256 86.969392 
L 379.58843 93.350852 
L 383.937603 89.761281 
L 388.286777 101.345806 
L 392.63595 109.775859 
L 396.985124 109.775859 
L 401.334298 109.775859 
L 405.683471 109.775859 
L 410.032645 109.775859 
L 414.381818 107.382812 
L 418.730992 102.254853 
L 423.080165 110.956844 
L 427.429339 110.956844 
L 431.778512 87.026369 
L 436.127686 87.026369 
L 440.47686 87.026369 
L 444.826033 87.026369 
L 449.175207 93.008988 
L 453.52438 107.858702 
L 457.873554 107.858702 
L 462.222727 107.858702 
L 466.571901 112.345666 
L 470.921074 109.354357 
L 475.270248 109.354357 
L 479.619421 109.354357 
L 483.968595 93.483799 
L 488.317769 93.483799 
L 492.666942 93.483799 
L 497.016116 93.483799 
L 501.365289 93.483799 
L 505.714463 104.119565 
L 510.063636 80.189091 
" style="fill:none;stroke:#1f77b4;stroke-linecap:square;stroke-width:1.5;"/>
   </g>
   <g id="line2d_14">
    <path clip-path="url(#pdb40569a13)" d="M 127.336364 80.189091 
L 131.685537 80.189091 
L 136.034711 80.189091 
L 140.383884 80.189091 
L 144.733058 80.189091 
L 149.082231 84.177503 
L 153.431405 84.177503 
L 157.780579 87.408117 
L 162.129752 91.117341 
L 166.478926 93.191315 
L 170.828099 97.379148 
L 175.177273 100.131153 
L 179.526446 100.370458 
L 183.87562 113.828731 
L 188.224793 125.133781 
L 192.573967 117.553064 
L 196.92314 114.906408 
L 201.272314 128.96305 
L 205.621488 124.879763 
L 209.970661 121.056659 
L 214.319835 126.041589 
L 218.669008 120.954712 
L 223.018182 119.566994 
L 227.367355 118.076711 
L 231.716529 104.934241 
L 236.065702 140.534687 
L 240.414876 153.221354 
L 244.76405 146.996139 
L 249.113223 158.620746 
L 253.462397 101.441631 
L 257.81157 113.045513 
L 262.160744 116.513715 
L 266.509917 119.143671 
L 270.859091 121.117799 
L 275.208264 126.846164 
L 279.557438 127.9 
L 283.906612 126.640947 
L 288.255785 122.149469 
L 292.604959 123.14999 
L 296.954132 115.356484 
L 301.303306 116.955002 
L 305.652479 162.640453 
L 310.001653 184.122426 
L 314.350826 177.787889 
L 318.7 121.070318 
L 323.049174 125.931196 
L 327.398347 129.578931 
L 331.747521 107.724477 
L 336.096694 109.565282 
L 340.445868 121.818146 
L 344.795041 100.946965 
L 349.144215 108.188552 
L 353.493388 111.688485 
L 357.842562 107.072027 
L 362.191736 83.81492 
L 366.540909 83.81492 
L 370.890083 88.601015 
L 375.239256 88.601015 
L 379.58843 88.601015 
L 383.937603 91.40499 
L 388.286777 97.01294 
L 392.63595 97.01294 
L 396.985124 97.01294 
L 401.334298 97.01294 
L 405.683471 97.01294 
L 410.032645 124.569244 
L 414.381818 178.956686 
L 418.730992 106.077513 
L 423.080165 106.077513 
L 427.429339 110.17988 
L 431.778512 110.17988 
L 436.127686 110.17988 
L 440.47686 110.17988 
L 444.826033 110.17988 
L 449.175207 99.496633 
L 453.52438 96.505324 
L 457.873554 102.487942 
L 462.222727 102.487942 
L 466.571901 100.992288 
L 470.921074 109.354357 
L 475.270248 109.354357 
L 479.619421 101.876083 
L 483.968595 80.189091 
L 488.317769 80.189091 
L 492.666942 80.189091 
L 497.016116 80.189091 
L 501.365289 80.189091 
L 505.714463 80.189091 
L 510.063636 80.189091 
" style="fill:none;stroke:#ff7f0e;stroke-linecap:square;stroke-width:1.5;"/>
   </g>
   <g id="line2d_15">
    <path clip-path="url(#pdb40569a13)" d="M 127.336364 80.189091 
L 131.685537 80.189091 
L 136.034711 80.189091 
L 140.383884 80.189091 
L 144.733058 80.189091 
L 149.082231 80.189091 
L 153.431405 80.189091 
L 157.780579 80.189091 
L 162.129752 80.189091 
L 166.478926 80.587932 
L 170.828099 87.52777 
L 175.177273 87.926611 
L 179.526446 91.725574 
L 183.87562 91.781673 
L 188.224793 94.480902 
L 192.573967 97.950675 
L 196.92314 98.374892 
L 201.272314 91.926076 
L 205.621488 94.212451 
L 209.970661 96.1564 
L 214.319835 92.396482 
L 218.669008 96.301699 
L 223.018182 101.134392 
L 227.367355 96.19742 
L 231.716529 97.864055 
L 236.065702 98.332298 
L 240.414876 103.1404 
L 244.76405 107.477239 
L 249.113223 112.569421 
L 253.462397 112.826921 
L 257.81157 117.495741 
L 262.160744 114.671449 
L 266.509917 113.703151 
L 270.859091 115.44424 
L 275.208264 120.563955 
L 279.557438 107.391963 
L 283.906612 107.693797 
L 288.255785 108.793985 
L 292.604959 108.656385 
L 296.954132 100.26988 
L 301.303306 98.644563 
L 305.652479 98.603125 
L 310.001653 92.757617 
L 314.350826 92.757617 
L 318.7 93.54315 
L 323.049174 87.560532 
L 327.398347 100.814881 
L 331.747521 98.136947 
L 336.096694 99.517551 
L 340.445868 98.896644 
L 344.795041 91.27377 
L 349.144215 85.894736 
L 353.493388 86.607942 
L 357.842562 84.591884 
L 362.191736 82.908463 
L 366.540909 82.908463 
L 370.890083 82.908463 
L 375.239256 114.317211 
L 379.58843 144.230304 
L 383.937603 153.430846 
L 388.286777 130.225538 
L 392.63595 95.417575 
L 396.985124 95.417575 
L 401.334298 95.417575 
L 405.683471 95.417575 
L 410.032645 95.417575 
L 414.381818 107.382812 
L 418.730992 107.382812 
L 423.080165 95.417575 
L 427.429339 95.417575 
L 431.778512 95.417575 
L 436.127686 95.417575 
L 440.47686 95.417575 
L 444.826033 80.189091 
L 449.175207 80.189091 
L 453.52438 80.189091 
L 457.873554 80.189091 
L 462.222727 80.189091 
L 466.571901 80.189091 
L 470.921074 80.189091 
L 475.270248 80.189091 
L 479.619421 80.189091 
L 483.968595 80.189091 
L 488.317769 80.189091 
L 492.666942 80.189091 
L 497.016116 80.189091 
L 501.365289 80.189091 
L 505.714463 80.189091 
L 510.063636 80.189091 
" style="fill:none;stroke:#2ca02c;stroke-linecap:square;stroke-width:1.5;"/>
   </g>
   <g id="line2d_16">
    <path clip-path="url(#pdb40569a13)" d="M 127.336364 80.189091 
L 131.685537 80.189091 
L 136.034711 80.189091 
L 140.383884 80.189091 
L 144.733058 86.889624 
L 149.082231 86.889624 
L 153.431405 86.889624 
L 157.780579 86.889624 
L 162.129752 87.687306 
L 166.478926 80.986773 
L 170.828099 82.422602 
L 175.177273 82.422602 
L 179.526446 85.653216 
L 183.87562 89.696822 
L 188.224793 83.276894 
L 192.573967 83.344758 
L 196.92314 85.355898 
L 201.272314 85.95547 
L 205.621488 85.404707 
L 209.970661 86.089756 
L 214.319835 85.658914 
L 218.669008 85.738186 
L 223.018182 86.539871 
L 227.367355 84.531314 
L 231.716529 84.912211 
L 236.065702 91.5347 
L 240.414876 90.979962 
L 244.76405 92.609007 
L 249.113223 95.12071 
L 253.462397 95.686922 
L 257.81157 95.523487 
L 262.160744 92.553169 
L 266.509917 92.735497 
L 270.859091 92.408136 
L 275.208264 93.196462 
L 279.557438 96.288982 
L 283.906612 95.697879 
L 288.255785 94.164488 
L 292.604959 94.746796 
L 296.954132 95.37974 
L 301.303306 96.070224 
L 305.652479 96.070224 
L 310.001653 89.761281 
L 314.350826 89.761281 
L 318.7 90.359543 
L 323.049174 90.359543 
L 327.398347 91.037573 
L 331.747521 83.870702 
L 336.096694 83.870702 
L 340.445868 84.177503 
L 344.795041 80.189091 
L 349.144215 80.189091 
L 353.493388 80.189091 
L 357.842562 80.189091 
L 362.191736 80.189091 
L 366.540909 80.189091 
L 370.890083 80.189091 
L 375.239256 80.189091 
L 379.58843 80.189091 
L 383.937603 80.189091 
L 388.286777 80.189091 
L 392.63595 80.189091 
L 396.985124 80.189091 
L 401.334298 80.189091 
L 405.683471 80.189091 
L 410.032645 80.189091 
L 414.381818 80.189091 
L 418.730992 80.189091 
L 423.080165 80.189091 
L 427.429339 80.189091 
L 431.778512 80.189091 
L 436.127686 80.189091 
L 440.47686 80.189091 
L 444.826033 80.189091 
L 449.175207 80.189091 
L 453.52438 80.189091 
L 457.873554 80.189091 
L 462.222727 80.189091 
L 466.571901 80.189091 
L 470.921074 80.189091 
L 475.270248 80.189091 
L 479.619421 80.189091 
L 483.968595 80.189091 
L 488.317769 80.189091 
L 492.666942 80.189091 
L 497.016116 80.189091 
L 501.365289 80.189091 
L 505.714463 80.189091 
L 510.063636 80.189091 
" style="fill:none;stroke:#d62728;stroke-linecap:square;stroke-width:1.5;"/>
   </g>
   <g id="line2d_17">
    <path clip-path="url(#pdb40569a13)" d="M 127.336364 80.189091 
L 131.685537 80.189091 
L 136.034711 80.189091 
L 140.383884 80.189091 
L 144.733058 80.189091 
L 149.082231 80.189091 
L 153.431405 80.189091 
L 157.780579 80.189091 
L 162.129752 80.189091 
L 166.478926 80.189091 
L 170.828099 83.514167 
L 175.177273 83.514167 
L 179.526446 83.514167 
L 183.87562 83.547754 
L 188.224793 81.976766 
L 192.573967 82.016056 
L 196.92314 82.078339 
L 201.272314 82.192149 
L 205.621488 86.849901 
L 209.970661 88.800697 
L 214.319835 89.72642 
L 218.669008 90.768195 
L 223.018182 92.058655 
L 227.367355 91.627421 
L 231.716529 92.630783 
L 236.065702 86.544218 
L 240.414876 86.163838 
L 244.76405 86.641817 
L 249.113223 86.910681 
L 253.462397 85.458743 
L 257.81157 85.794689 
L 262.160744 86.106111 
L 266.509917 88.412718 
L 270.859091 88.911119 
L 275.208264 89.473831 
L 279.557438 89.783322 
L 283.906612 91.259358 
L 288.255785 91.702168 
L 292.604959 92.18188 
L 296.954132 92.703305 
L 301.303306 96.106005 
L 305.652479 96.106005 
L 310.001653 92.71925 
L 314.350826 92.71925 
L 318.7 102.594391 
L 323.049174 102.594391 
L 327.398347 94.389938 
L 331.747521 96.574684 
L 336.096694 96.574684 
L 340.445868 97.94015 
L 344.795041 99.553883 
L 349.144215 103.85717 
L 353.493388 100.970819 
L 357.842562 80.189091 
L 362.191736 80.189091 
L 366.540909 80.189091 
L 370.890083 80.189091 
L 375.239256 80.189091 
L 379.58843 80.189091 
L 383.937603 80.189091 
L 388.286777 80.189091 
L 392.63595 80.189091 
L 396.985124 105.064189 
L 401.334298 105.064189 
L 405.683471 105.064189 
L 410.032645 105.064189 
L 414.381818 105.064189 
L 418.730992 105.064189 
L 423.080165 105.064189 
L 427.429339 105.064189 
L 431.778512 105.064189 
L 436.127686 105.064189 
L 440.47686 105.064189 
L 444.826033 105.064189 
L 449.175207 105.064189 
L 453.52438 105.064189 
L 457.873554 105.064189 
L 462.222727 105.064189 
L 466.571901 105.064189 
L 470.921074 105.064189 
L 475.270248 105.064189 
L 479.619421 105.064189 
L 483.968595 80.189091 
L 488.317769 80.189091 
L 492.666942 80.189091 
L 497.016116 80.189091 
L 501.365289 80.189091 
L 505.714463 80.189091 
L 510.063636 80.189091 
" style="fill:none;stroke:#9467bd;stroke-linecap:square;stroke-width:1.5;"/>
   </g>
   <g id="line2d_18">
    <path clip-path="url(#pdb40569a13)" d="M 127.336364 80.189091 
L 131.685537 80.189091 
L 136.034711 80.189091 
L 140.383884 80.189091 
L 144.733058 80.189091 
L 149.082231 80.189091 
L 153.431405 80.189091 
L 157.780579 80.189091 
L 162.129752 88.564757 
L 166.478926 94.308071 
L 170.828099 94.308071 
L 175.177273 95.544479 
L 179.526446 102.81336 
L 183.87562 100.372875 
L 188.224793 106.446139 
L 192.573967 107.384804 
L 196.92314 116.141456 
L 201.272314 110.810968 
L 205.621488 111.508355 
L 209.970661 100.540921 
L 214.319835 99.105561 
L 218.669008 99.235205 
L 223.018182 103.254387 
L 227.367355 109.748373 
L 231.716529 119.478452 
L 236.065702 127.171724 
L 240.414876 122.154998 
L 244.76405 125.578364 
L 249.113223 121.59261 
L 253.462397 133.594476 
L 257.81157 140.749985 
L 262.160744 132.503767 
L 266.509917 99.730684 
L 270.859091 99.12628 
L 275.208264 98.896032 
L 279.557438 102.983818 
L 283.906612 105.844225 
L 288.255785 97.27545 
L 292.604959 99.765549 
L 296.954132 90.732372 
L 301.303306 89.797539 
L 305.652479 100.539059 
L 310.001653 94.559106 
L 314.350826 95.216021 
L 318.7 112.35813 
L 323.049174 108.618993 
L 327.398347 116.749538 
L 331.747521 98.903949 
L 336.096694 100.131153 
L 340.445868 100.463521 
L 344.795041 87.350104 
L 349.144215 91.378804 
L 353.493388 95.054992 
L 357.842562 84.591884 
L 362.191736 103.847628 
L 366.540909 190.595599 
L 370.890083 190.595599 
L 375.239256 190.595599 
L 379.58843 126.509062 
L 383.937603 132.691102 
L 388.286777 130.225538 
L 392.63595 130.225538 
L 396.985124 130.225538 
L 401.334298 130.225538 
L 405.683471 130.225538 
L 410.032645 130.225538 
L 414.381818 130.225538 
L 418.730992 96.505324 
L 423.080165 96.505324 
L 427.429339 96.505324 
L 431.778512 80.189091 
L 436.127686 80.189091 
L 440.47686 80.189091 
L 444.826033 86.17171 
L 449.175207 86.17171 
L 453.52438 113.841321 
L 457.873554 108.772713 
L 462.222727 108.772713 
L 466.571901 108.772713 
L 470.921074 108.772713 
L 475.270248 102.790095 
L 479.619421 128.05004 
L 483.968595 80.189091 
L 488.317769 80.189091 
L 492.666942 80.189091 
L 497.016116 80.189091 
L 501.365289 80.189091 
L 505.714463 80.189091 
L 510.063636 80.189091 
" style="fill:none;stroke:#8c564b;stroke-linecap:square;stroke-width:1.5;"/>
   </g>
   <g id="line2d_19">
    <path clip-path="url(#pdb40569a13)" d="M 127.336364 80.189091 
L 131.685537 80.189091 
L 136.034711 80.189091 
L 140.383884 80.189091 
L 144.733058 80.189091 
L 149.082231 80.189091 
L 153.431405 80.189091 
L 157.780579 80.189091 
L 162.129752 80.189091 
L 166.478926 82.741675 
L 170.828099 86.331246 
L 175.177273 86.331246 
L 179.526446 86.331246 
L 183.87562 90.643566 
L 188.224793 92.776177 
L 192.573967 94.948408 
L 196.92314 95.519551 
L 201.272314 96.25086 
L 205.621488 96.679642 
L 209.970661 92.932888 
L 214.319835 93.479051 
L 218.669008 100.388377 
L 223.018182 104.668739 
L 227.367355 101.482067 
L 231.716529 106.848479 
L 236.065702 108.036756 
L 240.414876 113.64744 
L 244.76405 123.407528 
L 249.113223 108.257543 
L 253.462397 102.771102 
L 257.81157 109.335989 
L 262.160744 115.49762 
L 266.509917 113.634778 
L 270.859091 109.014435 
L 275.208264 110.874135 
L 279.557438 114.888279 
L 283.906612 164.436633 
L 288.255785 153.44825 
L 292.604959 158.627869 
L 296.954132 162.437092 
L 301.303306 155.515698 
L 305.652479 151.43664 
L 310.001653 158.080439 
L 314.350826 158.643509 
L 318.7 161.659537 
L 323.049174 161.659537 
L 327.398347 169.825811 
L 331.747521 92.154328 
L 336.096694 92.154328 
L 340.445868 90.160122 
L 344.795041 91.066579 
L 349.144215 80.189091 
L 353.493388 92.154328 
L 357.842562 351.970909 
L 362.191736 101.128256 
L 366.540909 90.160122 
L 370.890083 90.160122 
L 375.239256 80.986773 
L 379.58843 80.986773 
L 383.937603 81.252668 
L 388.286777 81.784456 
L 392.63595 80.189091 
L 396.985124 86.17171 
L 401.334298 86.17171 
L 405.683471 136.752031 
L 410.032645 113.818659 
L 414.381818 113.818659 
L 418.730992 113.818659 
L 423.080165 113.818659 
L 427.429339 135.029762 
L 431.778512 135.029762 
L 436.127686 202.405443 
L 440.47686 140.869937 
L 444.826033 140.869937 
L 449.175207 140.869937 
L 453.52438 140.869937 
L 457.873554 140.869937 
L 462.222727 140.869937 
L 466.571901 140.869937 
L 470.921074 140.869937 
L 475.270248 94.504643 
L 479.619421 94.504643 
L 483.968595 93.863648 
L 488.317769 93.863648 
L 492.666942 93.863648 
L 497.016116 93.863648 
L 501.365289 93.863648 
L 505.714463 93.863648 
L 510.063636 93.863648 
" style="fill:none;stroke:#e377c2;stroke-linecap:square;stroke-width:1.5;"/>
   </g>
   <g id="line2d_20">
    <path clip-path="url(#pdb40569a13)" d="M 127.336364 80.189091 
L 131.685537 80.189091 
L 136.034711 80.189091 
L 140.383884 80.189091 
L 144.733058 80.189091 
L 149.082231 80.189091 
L 153.431405 83.060748 
L 157.780579 90.23989 
L 162.129752 89.761281 
L 166.478926 89.920817 
L 170.828099 90.399427 
L 175.177273 90.558963 
L 179.526446 105.336031 
L 183.87562 109.377018 
L 188.224793 102.89731 
L 192.573967 111.94299 
L 196.92314 112.753572 
L 201.272314 111.399619 
L 205.621488 103.30143 
L 209.970661 100.732147 
L 214.319835 93.60725 
L 218.669008 95.530028 
L 223.018182 96.290005 
L 227.367355 95.010546 
L 231.716529 102.428239 
L 236.065702 102.835541 
L 240.414876 108.475165 
L 244.76405 110.601305 
L 249.113223 109.223784 
L 253.462397 98.367569 
L 257.81157 94.760291 
L 262.160744 96.766326 
L 266.509917 97.077169 
L 270.859091 106.440096 
L 275.208264 108.258692 
L 279.557438 109.992028 
L 283.906612 102.291908 
L 288.255785 89.48779 
L 292.604959 88.013976 
L 296.954132 87.611006 
L 301.303306 87.622041 
L 305.652479 83.271046 
L 310.001653 85.467872 
L 314.350826 85.467872 
L 318.7 85.797796 
L 323.049174 85.797796 
L 327.398347 86.17171 
L 331.747521 87.092112 
L 336.096694 94.47725 
L 340.445868 118.268933 
L 344.795041 120.280405 
L 349.144215 113.235937 
L 353.493388 117.366792 
L 357.842562 121.212762 
L 362.191736 136.026865 
L 366.540909 136.026865 
L 370.890083 136.026865 
L 375.239256 136.026865 
L 379.58843 155.425053 
L 383.937603 180.503706 
L 388.286777 118.985466 
L 392.63595 118.985466 
L 396.985124 118.985466 
L 401.334298 118.2603 
L 405.683471 118.2603 
L 410.032645 118.2603 
L 414.381818 118.2603 
L 418.730992 118.2603 
L 423.080165 118.2603 
L 427.429339 118.2603 
L 431.778512 118.2603 
L 436.127686 80.189091 
L 440.47686 80.189091 
L 444.826033 80.189091 
L 449.175207 86.17171 
L 453.52438 86.17171 
L 457.873554 86.17171 
L 462.222727 92.154328 
L 466.571901 86.17171 
L 470.921074 86.17171 
L 475.270248 86.17171 
L 479.619421 134.032659 
L 483.968595 92.154328 
L 488.317769 80.189091 
L 492.666942 80.189091 
L 497.016116 128.05004 
L 501.365289 96.142741 
L 505.714463 104.119565 
L 510.063636 104.119565 
" style="fill:none;stroke:#7f7f7f;stroke-linecap:square;stroke-width:1.5;"/>
   </g>
   <g id="patch_3">
    <path d="M 108.2 365.56 
L 108.2 66.6 
" style="fill:none;stroke:#000000;stroke-linecap:square;stroke-linejoin:miter;stroke-width:0.8;"/>
   </g>
   <g id="patch_4">
    <path d="M 529.2 365.56 
L 529.2 66.6 
" style="fill:none;stroke:#000000;stroke-linecap:square;stroke-linejoin:miter;stroke-width:0.8;"/>
   </g>
   <g id="patch_5">
    <path d="M 108.2 365.56 
L 529.2 365.56 
" style="fill:none;stroke:#000000;stroke-linecap:square;stroke-linejoin:miter;stroke-width:0.8;"/>
   </g>
   <g id="patch_6">
    <path d="M 108.2 66.6 
L 529.2 66.6 
" style="fill:none;stroke:#000000;stroke-linecap:square;stroke-linejoin:miter;stroke-width:0.8;"/>
   </g>
   <g id="legend_1">
    <g id="patch_7">
     <path d="M 118.7 59.1 
L 518.7 59.1 
Q 521.7 59.1 521.7 56.1 
L 521.7 13.565625 
Q 521.7 10.565625 518.7 10.565625 
L 118.7 10.565625 
Q 115.7 10.565625 115.7 13.565625 
L 115.7 56.1 
Q 115.7 59.1 118.7 59.1 
z
" style="fill:#ffffff;opacity:0.8;stroke:#cccccc;stroke-linejoin:miter;"/>
    </g>
    <g id="line2d_21">
     <path d="M 121.7 22.713281 
L 151.7 22.713281 
" style="fill:none;stroke:#1f77b4;stroke-linecap:square;stroke-width:1.5;"/>
    </g>
    <g id="line2d_22"/>
    <g id="text_15">
     <!-- Stra 1 -->
     <defs>
      <path d="M 53.515625 70.515625 
L 53.515625 60.890625 
Q 47.90625 63.578125 42.921875 64.890625 
Q 37.9375 66.21875 33.296875 66.21875 
Q 25.25 66.21875 20.875 63.09375 
Q 16.5 59.96875 16.5 54.203125 
Q 16.5 49.359375 19.40625 46.890625 
Q 22.3125 44.4375 30.421875 42.921875 
L 36.375 41.703125 
Q 47.40625 39.59375 52.65625 34.296875 
Q 57.90625 29 57.90625 20.125 
Q 57.90625 9.515625 50.796875 4.046875 
Q 43.703125 -1.421875 29.984375 -1.421875 
Q 24.8125 -1.421875 18.96875 -0.25 
Q 13.140625 0.921875 6.890625 3.21875 
L 6.890625 13.375 
Q 12.890625 10.015625 18.65625 8.296875 
Q 24.421875 6.59375 29.984375 6.59375 
Q 38.421875 6.59375 43.015625 9.90625 
Q 47.609375 13.234375 47.609375 19.390625 
Q 47.609375 24.75 44.3125 27.78125 
Q 41.015625 30.8125 33.5 32.328125 
L 27.484375 33.5 
Q 16.453125 35.6875 11.515625 40.375 
Q 6.59375 45.0625 6.59375 53.421875 
Q 6.59375 63.09375 13.40625 68.65625 
Q 20.21875 74.21875 32.171875 74.21875 
Q 37.3125 74.21875 42.625 73.28125 
Q 47.953125 72.359375 53.515625 70.515625 
z
" id="DejaVuSans-83"/>
      <path d="M 41.109375 46.296875 
Q 39.59375 47.171875 37.8125 47.578125 
Q 36.03125 48 33.890625 48 
Q 26.265625 48 22.1875 43.046875 
Q 18.109375 38.09375 18.109375 28.8125 
L 18.109375 0 
L 9.078125 0 
L 9.078125 54.6875 
L 18.109375 54.6875 
L 18.109375 46.1875 
Q 20.953125 51.171875 25.484375 53.578125 
Q 30.03125 56 36.53125 56 
Q 37.453125 56 38.578125 55.875 
Q 39.703125 55.765625 41.0625 55.515625 
z
" id="DejaVuSans-114"/>
     </defs>
     <g transform="translate(163.7 27.963281)scale(0.15 -0.15)">
      <use xlink:href="#DejaVuSans-83"/>
      <use x="63.476562" xlink:href="#DejaVuSans-116"/>
      <use x="102.685547" xlink:href="#DejaVuSans-114"/>
      <use x="143.798828" xlink:href="#DejaVuSans-97"/>
      <use x="205.078125" xlink:href="#DejaVuSans-32"/>
      <use x="236.865234" xlink:href="#DejaVuSans-49"/>
     </g>
    </g>
    <g id="line2d_23">
     <path d="M 121.7 44.730469 
L 151.7 44.730469 
" style="fill:none;stroke:#ff7f0e;stroke-linecap:square;stroke-width:1.5;"/>
    </g>
    <g id="line2d_24"/>
    <g id="text_16">
     <!-- Stra 2 -->
     <g transform="translate(163.7 49.980469)scale(0.15 -0.15)">
      <use xlink:href="#DejaVuSans-83"/>
      <use x="63.476562" xlink:href="#DejaVuSans-116"/>
      <use x="102.685547" xlink:href="#DejaVuSans-114"/>
      <use x="143.798828" xlink:href="#DejaVuSans-97"/>
      <use x="205.078125" xlink:href="#DejaVuSans-32"/>
      <use x="236.865234" xlink:href="#DejaVuSans-50"/>
     </g>
    </g>
    <g id="line2d_25">
     <path d="M 224.009115 22.713281 
L 254.009115 22.713281 
" style="fill:none;stroke:#2ca02c;stroke-linecap:square;stroke-width:1.5;"/>
    </g>
    <g id="line2d_26"/>
    <g id="text_17">
     <!-- Stra 3 -->
     <defs>
      <path d="M 40.578125 39.3125 
Q 47.65625 37.796875 51.625 33 
Q 55.609375 28.21875 55.609375 21.1875 
Q 55.609375 10.40625 48.1875 4.484375 
Q 40.765625 -1.421875 27.09375 -1.421875 
Q 22.515625 -1.421875 17.65625 -0.515625 
Q 12.796875 0.390625 7.625 2.203125 
L 7.625 11.71875 
Q 11.71875 9.328125 16.59375 8.109375 
Q 21.484375 6.890625 26.8125 6.890625 
Q 36.078125 6.890625 40.9375 10.546875 
Q 45.796875 14.203125 45.796875 21.1875 
Q 45.796875 27.640625 41.28125 31.265625 
Q 36.765625 34.90625 28.71875 34.90625 
L 20.21875 34.90625 
L 20.21875 43.015625 
L 29.109375 43.015625 
Q 36.375 43.015625 40.234375 45.921875 
Q 44.09375 48.828125 44.09375 54.296875 
Q 44.09375 59.90625 40.109375 62.90625 
Q 36.140625 65.921875 28.71875 65.921875 
Q 24.65625 65.921875 20.015625 65.03125 
Q 15.375 64.15625 9.8125 62.3125 
L 9.8125 71.09375 
Q 15.4375 72.65625 20.34375 73.4375 
Q 25.25 74.21875 29.59375 74.21875 
Q 40.828125 74.21875 47.359375 69.109375 
Q 53.90625 64.015625 53.90625 55.328125 
Q 53.90625 49.265625 50.4375 45.09375 
Q 46.96875 40.921875 40.578125 39.3125 
z
" id="DejaVuSans-51"/>
     </defs>
     <g transform="translate(266.009115 27.963281)scale(0.15 -0.15)">
      <use xlink:href="#DejaVuSans-83"/>
      <use x="63.476562" xlink:href="#DejaVuSans-116"/>
      <use x="102.685547" xlink:href="#DejaVuSans-114"/>
      <use x="143.798828" xlink:href="#DejaVuSans-97"/>
      <use x="205.078125" xlink:href="#DejaVuSans-32"/>
      <use x="236.865234" xlink:href="#DejaVuSans-51"/>
     </g>
    </g>
    <g id="line2d_27">
     <path d="M 224.009115 44.730469 
L 254.009115 44.730469 
" style="fill:none;stroke:#d62728;stroke-linecap:square;stroke-width:1.5;"/>
    </g>
    <g id="line2d_28"/>
    <g id="text_18">
     <!-- Stra 4 -->
     <g transform="translate(266.009115 49.980469)scale(0.15 -0.15)">
      <use xlink:href="#DejaVuSans-83"/>
      <use x="63.476562" xlink:href="#DejaVuSans-116"/>
      <use x="102.685547" xlink:href="#DejaVuSans-114"/>
      <use x="143.798828" xlink:href="#DejaVuSans-97"/>
      <use x="205.078125" xlink:href="#DejaVuSans-32"/>
      <use x="236.865234" xlink:href="#DejaVuSans-52"/>
     </g>
    </g>
    <g id="line2d_29">
     <path d="M 326.318229 22.713281 
L 356.318229 22.713281 
" style="fill:none;stroke:#9467bd;stroke-linecap:square;stroke-width:1.5;"/>
    </g>
    <g id="line2d_30"/>
    <g id="text_19">
     <!-- Stra 5 -->
     <defs>
      <path d="M 10.796875 72.90625 
L 49.515625 72.90625 
L 49.515625 64.59375 
L 19.828125 64.59375 
L 19.828125 46.734375 
Q 21.96875 47.46875 24.109375 47.828125 
Q 26.265625 48.1875 28.421875 48.1875 
Q 40.625 48.1875 47.75 41.5 
Q 54.890625 34.8125 54.890625 23.390625 
Q 54.890625 11.625 47.5625 5.09375 
Q 40.234375 -1.421875 26.90625 -1.421875 
Q 22.3125 -1.421875 17.546875 -0.640625 
Q 12.796875 0.140625 7.71875 1.703125 
L 7.71875 11.625 
Q 12.109375 9.234375 16.796875 8.0625 
Q 21.484375 6.890625 26.703125 6.890625 
Q 35.15625 6.890625 40.078125 11.328125 
Q 45.015625 15.765625 45.015625 23.390625 
Q 45.015625 31 40.078125 35.4375 
Q 35.15625 39.890625 26.703125 39.890625 
Q 22.75 39.890625 18.8125 39.015625 
Q 14.890625 38.140625 10.796875 36.28125 
z
" id="DejaVuSans-53"/>
     </defs>
     <g transform="translate(368.318229 27.963281)scale(0.15 -0.15)">
      <use xlink:href="#DejaVuSans-83"/>
      <use x="63.476562" xlink:href="#DejaVuSans-116"/>
      <use x="102.685547" xlink:href="#DejaVuSans-114"/>
      <use x="143.798828" xlink:href="#DejaVuSans-97"/>
      <use x="205.078125" xlink:href="#DejaVuSans-32"/>
      <use x="236.865234" xlink:href="#DejaVuSans-53"/>
     </g>
    </g>
    <g id="line2d_31">
     <path d="M 326.318229 44.730469 
L 356.318229 44.730469 
" style="fill:none;stroke:#8c564b;stroke-linecap:square;stroke-width:1.5;"/>
    </g>
    <g id="line2d_32"/>
    <g id="text_20">
     <!-- Stra 6 -->
     <g transform="translate(368.318229 49.980469)scale(0.15 -0.15)">
      <use xlink:href="#DejaVuSans-83"/>
      <use x="63.476562" xlink:href="#DejaVuSans-116"/>
      <use x="102.685547" xlink:href="#DejaVuSans-114"/>
      <use x="143.798828" xlink:href="#DejaVuSans-97"/>
      <use x="205.078125" xlink:href="#DejaVuSans-32"/>
      <use x="236.865234" xlink:href="#DejaVuSans-54"/>
     </g>
    </g>
    <g id="line2d_33">
     <path d="M 428.627344 22.713281 
L 458.627344 22.713281 
" style="fill:none;stroke:#e377c2;stroke-linecap:square;stroke-width:1.5;"/>
    </g>
    <g id="line2d_34"/>
    <g id="text_21">
     <!-- Stra 7 -->
     <defs>
      <path d="M 8.203125 72.90625 
L 55.078125 72.90625 
L 55.078125 68.703125 
L 28.609375 0 
L 18.3125 0 
L 43.21875 64.59375 
L 8.203125 64.59375 
z
" id="DejaVuSans-55"/>
     </defs>
     <g transform="translate(470.627344 27.963281)scale(0.15 -0.15)">
      <use xlink:href="#DejaVuSans-83"/>
      <use x="63.476562" xlink:href="#DejaVuSans-116"/>
      <use x="102.685547" xlink:href="#DejaVuSans-114"/>
      <use x="143.798828" xlink:href="#DejaVuSans-97"/>
      <use x="205.078125" xlink:href="#DejaVuSans-32"/>
      <use x="236.865234" xlink:href="#DejaVuSans-55"/>
     </g>
    </g>
    <g id="line2d_35">
     <path d="M 428.627344 44.730469 
L 458.627344 44.730469 
" style="fill:none;stroke:#7f7f7f;stroke-linecap:square;stroke-width:1.5;"/>
    </g>
    <g id="line2d_36"/>
    <g id="text_22">
     <!-- Stra 8 -->
     <g transform="translate(470.627344 49.980469)scale(0.15 -0.15)">
      <use xlink:href="#DejaVuSans-83"/>
      <use x="63.476562" xlink:href="#DejaVuSans-116"/>
      <use x="102.685547" xlink:href="#DejaVuSans-114"/>
      <use x="143.798828" xlink:href="#DejaVuSans-97"/>
      <use x="205.078125" xlink:href="#DejaVuSans-32"/>
      <use x="236.865234" xlink:href="#DejaVuSans-56"/>
     </g>
    </g>
   </g>
  </g>
 </g>
 <defs>
  <clipPath id="pdb40569a13">
   <rect height="298.96" width="421" x="108.2" y="66.6"/>
  </clipPath>
 </defs>
</svg>
