<?xml version="1.0" encoding="utf-8" standalone="no"?>
<!DOCTYPE svg PUBLIC "-//W3C//DTD SVG 1.1//EN"
  "http://www.w3.org/Graphics/SVG/1.1/DTD/svg11.dtd">
<!-- Created with matplotlib (https://matplotlib.org/) -->
<svg height="432pt" version="1.1" viewBox="0 0 540 432" width="540pt" xmlns="http://www.w3.org/2000/svg" xmlns:xlink="http://www.w3.org/1999/xlink">
 <defs>
  <style type="text/css">
*{stroke-linecap:butt;stroke-linejoin:round;}
  </style>
 </defs>
 <g id="figure_1">
  <g id="patch_1">
   <path d="M 0 432 
L 540 432 
L 540 0 
L 0 0 
z
" style="fill:#ffffff;"/>
  </g>
  <g id="axes_1">
   <g id="patch_2">
    <path d="M 51.05 365.56 
L 529.2 365.56 
L 529.2 66.6 
L 51.05 66.6 
z
" style="fill:#ffffff;"/>
   </g>
   <g id="matplotlib.axis_1">
    <g id="xtick_1">
     <g id="line2d_1">
      <defs>
       <path d="M 0 0 
L 0 3.5 
" id="m39ac22105a" style="stroke:#000000;stroke-width:0.8;"/>
      </defs>
      <g>
       <use style="stroke:#000000;stroke-width:0.8;" x="72.784091" xlink:href="#m39ac22105a" y="365.56"/>
      </g>
     </g>
     <g id="text_1">
      <!-- 0 -->
      <defs>
       <path d="M 31.78125 66.40625 
Q 24.171875 66.40625 20.328125 58.90625 
Q 16.5 51.421875 16.5 36.375 
Q 16.5 21.390625 20.328125 13.890625 
Q 24.171875 6.390625 31.78125 6.390625 
Q 39.453125 6.390625 43.28125 13.890625 
Q 47.125 21.390625 47.125 36.375 
Q 47.125 51.421875 43.28125 58.90625 
Q 39.453125 66.40625 31.78125 66.40625 
z
M 31.78125 74.21875 
Q 44.046875 74.21875 50.515625 64.515625 
Q 56.984375 54.828125 56.984375 36.375 
Q 56.984375 17.96875 50.515625 8.265625 
Q 44.046875 -1.421875 31.78125 -1.421875 
Q 19.53125 -1.421875 13.0625 8.265625 
Q 6.59375 17.96875 6.59375 36.375 
Q 6.59375 54.828125 13.0625 64.515625 
Q 19.53125 74.21875 31.78125 74.21875 
z
" id="DejaVuSans-48"/>
      </defs>
      <g transform="translate(66.421591 387.756875)scale(0.2 -0.2)">
       <use xlink:href="#DejaVuSans-48"/>
      </g>
     </g>
    </g>
    <g id="xtick_2">
     <g id="line2d_2">
      <g>
       <use style="stroke:#000000;stroke-width:0.8;" x="171.575413" xlink:href="#m39ac22105a" y="365.56"/>
      </g>
     </g>
     <g id="text_2">
      <!-- 20 -->
      <defs>
       <path d="M 19.1875 8.296875 
L 53.609375 8.296875 
L 53.609375 0 
L 7.328125 0 
L 7.328125 8.296875 
Q 12.9375 14.109375 22.625 23.890625 
Q 32.328125 33.6875 34.8125 36.53125 
Q 39.546875 41.84375 41.421875 45.53125 
Q 43.3125 49.21875 43.3125 52.78125 
Q 43.3125 58.59375 39.234375 62.25 
Q 35.15625 65.921875 28.609375 65.921875 
Q 23.96875 65.921875 18.8125 64.3125 
Q 13.671875 62.703125 7.8125 59.421875 
L 7.8125 69.390625 
Q 13.765625 71.78125 18.9375 73 
Q 24.125 74.21875 28.421875 74.21875 
Q 39.75 74.21875 46.484375 68.546875 
Q 53.21875 62.890625 53.21875 53.421875 
Q 53.21875 48.921875 51.53125 44.890625 
Q 49.859375 40.875 45.40625 35.40625 
Q 44.1875 33.984375 37.640625 27.21875 
Q 31.109375 20.453125 19.1875 8.296875 
z
" id="DejaVuSans-50"/>
      </defs>
      <g transform="translate(158.850413 387.756875)scale(0.2 -0.2)">
       <use xlink:href="#DejaVuSans-50"/>
       <use x="63.623047" xlink:href="#DejaVuSans-48"/>
      </g>
     </g>
    </g>
    <g id="xtick_3">
     <g id="line2d_3">
      <g>
       <use style="stroke:#000000;stroke-width:0.8;" x="270.366736" xlink:href="#m39ac22105a" y="365.56"/>
      </g>
     </g>
     <g id="text_3">
      <!-- 40 -->
      <defs>
       <path d="M 37.796875 64.3125 
L 12.890625 25.390625 
L 37.796875 25.390625 
z
M 35.203125 72.90625 
L 47.609375 72.90625 
L 47.609375 25.390625 
L 58.015625 25.390625 
L 58.015625 17.1875 
L 47.609375 17.1875 
L 47.609375 0 
L 37.796875 0 
L 37.796875 17.1875 
L 4.890625 17.1875 
L 4.890625 26.703125 
z
" id="DejaVuSans-52"/>
      </defs>
      <g transform="translate(257.641736 387.756875)scale(0.2 -0.2)">
       <use xlink:href="#DejaVuSans-52"/>
       <use x="63.623047" xlink:href="#DejaVuSans-48"/>
      </g>
     </g>
    </g>
    <g id="xtick_4">
     <g id="line2d_4">
      <g>
       <use style="stroke:#000000;stroke-width:0.8;" x="369.158058" xlink:href="#m39ac22105a" y="365.56"/>
      </g>
     </g>
     <g id="text_4">
      <!-- 60 -->
      <defs>
       <path d="M 33.015625 40.375 
Q 26.375 40.375 22.484375 35.828125 
Q 18.609375 31.296875 18.609375 23.390625 
Q 18.609375 15.53125 22.484375 10.953125 
Q 26.375 6.390625 33.015625 6.390625 
Q 39.65625 6.390625 43.53125 10.953125 
Q 47.40625 15.53125 47.40625 23.390625 
Q 47.40625 31.296875 43.53125 35.828125 
Q 39.65625 40.375 33.015625 40.375 
z
M 52.59375 71.296875 
L 52.59375 62.3125 
Q 48.875 64.0625 45.09375 64.984375 
Q 41.3125 65.921875 37.59375 65.921875 
Q 27.828125 65.921875 22.671875 59.328125 
Q 17.53125 52.734375 16.796875 39.40625 
Q 19.671875 43.65625 24.015625 45.921875 
Q 28.375 48.1875 33.59375 48.1875 
Q 44.578125 48.1875 50.953125 41.515625 
Q 57.328125 34.859375 57.328125 23.390625 
Q 57.328125 12.15625 50.6875 5.359375 
Q 44.046875 -1.421875 33.015625 -1.421875 
Q 20.359375 -1.421875 13.671875 8.265625 
Q 6.984375 17.96875 6.984375 36.375 
Q 6.984375 53.65625 15.1875 63.9375 
Q 23.390625 74.21875 37.203125 74.21875 
Q 40.921875 74.21875 44.703125 73.484375 
Q 48.484375 72.75 52.59375 71.296875 
z
" id="DejaVuSans-54"/>
      </defs>
      <g transform="translate(356.433058 387.756875)scale(0.2 -0.2)">
       <use xlink:href="#DejaVuSans-54"/>
       <use x="63.623047" xlink:href="#DejaVuSans-48"/>
      </g>
     </g>
    </g>
    <g id="xtick_5">
     <g id="line2d_5">
      <g>
       <use style="stroke:#000000;stroke-width:0.8;" x="467.94938" xlink:href="#m39ac22105a" y="365.56"/>
      </g>
     </g>
     <g id="text_5">
      <!-- 80 -->
      <defs>
       <path d="M 31.78125 34.625 
Q 24.75 34.625 20.71875 30.859375 
Q 16.703125 27.09375 16.703125 20.515625 
Q 16.703125 13.921875 20.71875 10.15625 
Q 24.75 6.390625 31.78125 6.390625 
Q 38.8125 6.390625 42.859375 10.171875 
Q 46.921875 13.96875 46.921875 20.515625 
Q 46.921875 27.09375 42.890625 30.859375 
Q 38.875 34.625 31.78125 34.625 
z
M 21.921875 38.8125 
Q 15.578125 40.375 12.03125 44.71875 
Q 8.5 49.078125 8.5 55.328125 
Q 8.5 64.0625 14.71875 69.140625 
Q 20.953125 74.21875 31.78125 74.21875 
Q 42.671875 74.21875 48.875 69.140625 
Q 55.078125 64.0625 55.078125 55.328125 
Q 55.078125 49.078125 51.53125 44.71875 
Q 48 40.375 41.703125 38.8125 
Q 48.828125 37.15625 52.796875 32.3125 
Q 56.78125 27.484375 56.78125 20.515625 
Q 56.78125 9.90625 50.3125 4.234375 
Q 43.84375 -1.421875 31.78125 -1.421875 
Q 19.734375 -1.421875 13.25 4.234375 
Q 6.78125 9.90625 6.78125 20.515625 
Q 6.78125 27.484375 10.78125 32.3125 
Q 14.796875 37.15625 21.921875 38.8125 
z
M 18.3125 54.390625 
Q 18.3125 48.734375 21.84375 45.5625 
Q 25.390625 42.390625 31.78125 42.390625 
Q 38.140625 42.390625 41.71875 45.5625 
Q 45.3125 48.734375 45.3125 54.390625 
Q 45.3125 60.0625 41.71875 63.234375 
Q 38.140625 66.40625 31.78125 66.40625 
Q 25.390625 66.40625 21.84375 63.234375 
Q 18.3125 60.0625 18.3125 54.390625 
z
" id="DejaVuSans-56"/>
      </defs>
      <g transform="translate(455.22438 387.756875)scale(0.2 -0.2)">
       <use xlink:href="#DejaVuSans-56"/>
       <use x="63.623047" xlink:href="#DejaVuSans-48"/>
      </g>
     </g>
    </g>
    <g id="text_6">
     <!-- # of games -->
     <defs>
      <path d="M 51.125 44 
L 36.921875 44 
L 32.8125 27.6875 
L 47.125 27.6875 
z
M 43.796875 71.78125 
L 38.71875 51.515625 
L 52.984375 51.515625 
L 58.109375 71.78125 
L 65.921875 71.78125 
L 60.890625 51.515625 
L 76.125 51.515625 
L 76.125 44 
L 58.984375 44 
L 54.984375 27.6875 
L 70.515625 27.6875 
L 70.515625 20.21875 
L 53.078125 20.21875 
L 48 0 
L 40.1875 0 
L 45.21875 20.21875 
L 30.90625 20.21875 
L 25.875 0 
L 18.015625 0 
L 23.09375 20.21875 
L 7.71875 20.21875 
L 7.71875 27.6875 
L 24.90625 27.6875 
L 29 44 
L 13.28125 44 
L 13.28125 51.515625 
L 30.90625 51.515625 
L 35.890625 71.78125 
z
" id="DejaVuSans-35"/>
      <path id="DejaVuSans-32"/>
      <path d="M 30.609375 48.390625 
Q 23.390625 48.390625 19.1875 42.75 
Q 14.984375 37.109375 14.984375 27.296875 
Q 14.984375 17.484375 19.15625 11.84375 
Q 23.34375 6.203125 30.609375 6.203125 
Q 37.796875 6.203125 41.984375 11.859375 
Q 46.1875 17.53125 46.1875 27.296875 
Q 46.1875 37.015625 41.984375 42.703125 
Q 37.796875 48.390625 30.609375 48.390625 
z
M 30.609375 56 
Q 42.328125 56 49.015625 48.375 
Q 55.71875 40.765625 55.71875 27.296875 
Q 55.71875 13.875 49.015625 6.21875 
Q 42.328125 -1.421875 30.609375 -1.421875 
Q 18.84375 -1.421875 12.171875 6.21875 
Q 5.515625 13.875 5.515625 27.296875 
Q 5.515625 40.765625 12.171875 48.375 
Q 18.84375 56 30.609375 56 
z
" id="DejaVuSans-111"/>
      <path d="M 37.109375 75.984375 
L 37.109375 68.5 
L 28.515625 68.5 
Q 23.6875 68.5 21.796875 66.546875 
Q 19.921875 64.59375 19.921875 59.515625 
L 19.921875 54.6875 
L 34.71875 54.6875 
L 34.71875 47.703125 
L 19.921875 47.703125 
L 19.921875 0 
L 10.890625 0 
L 10.890625 47.703125 
L 2.296875 47.703125 
L 2.296875 54.6875 
L 10.890625 54.6875 
L 10.890625 58.5 
Q 10.890625 67.625 15.140625 71.796875 
Q 19.390625 75.984375 28.609375 75.984375 
z
" id="DejaVuSans-102"/>
      <path d="M 45.40625 27.984375 
Q 45.40625 37.75 41.375 43.109375 
Q 37.359375 48.484375 30.078125 48.484375 
Q 22.859375 48.484375 18.828125 43.109375 
Q 14.796875 37.75 14.796875 27.984375 
Q 14.796875 18.265625 18.828125 12.890625 
Q 22.859375 7.515625 30.078125 7.515625 
Q 37.359375 7.515625 41.375 12.890625 
Q 45.40625 18.265625 45.40625 27.984375 
z
M 54.390625 6.78125 
Q 54.390625 -7.171875 48.1875 -13.984375 
Q 42 -20.796875 29.203125 -20.796875 
Q 24.46875 -20.796875 20.265625 -20.09375 
Q 16.0625 -19.390625 12.109375 -17.921875 
L 12.109375 -9.1875 
Q 16.0625 -11.328125 19.921875 -12.34375 
Q 23.78125 -13.375 27.78125 -13.375 
Q 36.625 -13.375 41.015625 -8.765625 
Q 45.40625 -4.15625 45.40625 5.171875 
L 45.40625 9.625 
Q 42.625 4.78125 38.28125 2.390625 
Q 33.9375 0 27.875 0 
Q 17.828125 0 11.671875 7.65625 
Q 5.515625 15.328125 5.515625 27.984375 
Q 5.515625 40.671875 11.671875 48.328125 
Q 17.828125 56 27.875 56 
Q 33.9375 56 38.28125 53.609375 
Q 42.625 51.21875 45.40625 46.390625 
L 45.40625 54.6875 
L 54.390625 54.6875 
z
" id="DejaVuSans-103"/>
      <path d="M 34.28125 27.484375 
Q 23.390625 27.484375 19.1875 25 
Q 14.984375 22.515625 14.984375 16.5 
Q 14.984375 11.71875 18.140625 8.90625 
Q 21.296875 6.109375 26.703125 6.109375 
Q 34.1875 6.109375 38.703125 11.40625 
Q 43.21875 16.703125 43.21875 25.484375 
L 43.21875 27.484375 
z
M 52.203125 31.203125 
L 52.203125 0 
L 43.21875 0 
L 43.21875 8.296875 
Q 40.140625 3.328125 35.546875 0.953125 
Q 30.953125 -1.421875 24.3125 -1.421875 
Q 15.921875 -1.421875 10.953125 3.296875 
Q 6 8.015625 6 15.921875 
Q 6 25.140625 12.171875 29.828125 
Q 18.359375 34.515625 30.609375 34.515625 
L 43.21875 34.515625 
L 43.21875 35.40625 
Q 43.21875 41.609375 39.140625 45 
Q 35.0625 48.390625 27.6875 48.390625 
Q 23 48.390625 18.546875 47.265625 
Q 14.109375 46.140625 10.015625 43.890625 
L 10.015625 52.203125 
Q 14.9375 54.109375 19.578125 55.046875 
Q 24.21875 56 28.609375 56 
Q 40.484375 56 46.34375 49.84375 
Q 52.203125 43.703125 52.203125 31.203125 
z
" id="DejaVuSans-97"/>
      <path d="M 52 44.1875 
Q 55.375 50.25 60.0625 53.125 
Q 64.75 56 71.09375 56 
Q 79.640625 56 84.28125 50.015625 
Q 88.921875 44.046875 88.921875 33.015625 
L 88.921875 0 
L 79.890625 0 
L 79.890625 32.71875 
Q 79.890625 40.578125 77.09375 44.375 
Q 74.3125 48.1875 68.609375 48.1875 
Q 61.625 48.1875 57.5625 43.546875 
Q 53.515625 38.921875 53.515625 30.90625 
L 53.515625 0 
L 44.484375 0 
L 44.484375 32.71875 
Q 44.484375 40.625 41.703125 44.40625 
Q 38.921875 48.1875 33.109375 48.1875 
Q 26.21875 48.1875 22.15625 43.53125 
Q 18.109375 38.875 18.109375 30.90625 
L 18.109375 0 
L 9.078125 0 
L 9.078125 54.6875 
L 18.109375 54.6875 
L 18.109375 46.1875 
Q 21.1875 51.21875 25.484375 53.609375 
Q 29.78125 56 35.6875 56 
Q 41.65625 56 45.828125 52.96875 
Q 50 49.953125 52 44.1875 
z
" id="DejaVuSans-109"/>
      <path d="M 56.203125 29.59375 
L 56.203125 25.203125 
L 14.890625 25.203125 
Q 15.484375 15.921875 20.484375 11.0625 
Q 25.484375 6.203125 34.421875 6.203125 
Q 39.59375 6.203125 44.453125 7.46875 
Q 49.3125 8.734375 54.109375 11.28125 
L 54.109375 2.78125 
Q 49.265625 0.734375 44.1875 -0.34375 
Q 39.109375 -1.421875 33.890625 -1.421875 
Q 20.796875 -1.421875 13.15625 6.1875 
Q 5.515625 13.8125 5.515625 26.8125 
Q 5.515625 40.234375 12.765625 48.109375 
Q 20.015625 56 32.328125 56 
Q 43.359375 56 49.78125 48.890625 
Q 56.203125 41.796875 56.203125 29.59375 
z
M 47.21875 32.234375 
Q 47.125 39.59375 43.09375 43.984375 
Q 39.0625 48.390625 32.421875 48.390625 
Q 24.90625 48.390625 20.390625 44.140625 
Q 15.875 39.890625 15.1875 32.171875 
z
" id="DejaVuSans-101"/>
      <path d="M 44.28125 53.078125 
L 44.28125 44.578125 
Q 40.484375 46.53125 36.375 47.5 
Q 32.28125 48.484375 27.875 48.484375 
Q 21.1875 48.484375 17.84375 46.4375 
Q 14.5 44.390625 14.5 40.28125 
Q 14.5 37.15625 16.890625 35.375 
Q 19.28125 33.59375 26.515625 31.984375 
L 29.59375 31.296875 
Q 39.15625 29.25 43.1875 25.515625 
Q 47.21875 21.78125 47.21875 15.09375 
Q 47.21875 7.46875 41.1875 3.015625 
Q 35.15625 -1.421875 24.609375 -1.421875 
Q 20.21875 -1.421875 15.453125 -0.5625 
Q 10.6875 0.296875 5.421875 2 
L 5.421875 11.28125 
Q 10.40625 8.6875 15.234375 7.390625 
Q 20.0625 6.109375 24.8125 6.109375 
Q 31.15625 6.109375 34.5625 8.28125 
Q 37.984375 10.453125 37.984375 14.40625 
Q 37.984375 18.0625 35.515625 20.015625 
Q 33.0625 21.96875 24.703125 23.78125 
L 21.578125 24.515625 
Q 13.234375 26.265625 9.515625 29.90625 
Q 5.8125 33.546875 5.8125 39.890625 
Q 5.8125 47.609375 11.28125 51.796875 
Q 16.75 56 26.8125 56 
Q 31.78125 56 36.171875 55.265625 
Q 40.578125 54.546875 44.28125 53.078125 
z
" id="DejaVuSans-115"/>
     </defs>
     <g transform="translate(217.681641 414.912344)scale(0.25 -0.25)">
      <use xlink:href="#DejaVuSans-35"/>
      <use x="83.789062" xlink:href="#DejaVuSans-32"/>
      <use x="115.576172" xlink:href="#DejaVuSans-111"/>
      <use x="176.757812" xlink:href="#DejaVuSans-102"/>
      <use x="211.962891" xlink:href="#DejaVuSans-32"/>
      <use x="243.75" xlink:href="#DejaVuSans-103"/>
      <use x="307.226562" xlink:href="#DejaVuSans-97"/>
      <use x="368.505859" xlink:href="#DejaVuSans-109"/>
      <use x="465.917969" xlink:href="#DejaVuSans-101"/>
      <use x="527.441406" xlink:href="#DejaVuSans-115"/>
     </g>
    </g>
   </g>
   <g id="matplotlib.axis_2">
    <g id="ytick_1">
     <g id="line2d_6">
      <defs>
       <path d="M 0 0 
L -3.5 0 
" id="ma914b47361" style="stroke:#000000;stroke-width:0.8;"/>
      </defs>
      <g>
       <use style="stroke:#000000;stroke-width:0.8;" x="51.05" xlink:href="#ma914b47361" y="351.970909"/>
      </g>
     </g>
     <g id="text_7">
      <!-- 0 -->
      <g transform="translate(31.325 359.569347)scale(0.2 -0.2)">
       <use xlink:href="#DejaVuSans-48"/>
      </g>
     </g>
    </g>
    <g id="ytick_2">
     <g id="line2d_7">
      <g>
       <use style="stroke:#000000;stroke-width:0.8;" x="51.05" xlink:href="#ma914b47361" y="291.574949"/>
      </g>
     </g>
     <g id="text_8">
      <!-- 2 -->
      <g transform="translate(31.325 299.173387)scale(0.2 -0.2)">
       <use xlink:href="#DejaVuSans-50"/>
      </g>
     </g>
    </g>
    <g id="ytick_3">
     <g id="line2d_8">
      <g>
       <use style="stroke:#000000;stroke-width:0.8;" x="51.05" xlink:href="#ma914b47361" y="231.17899"/>
      </g>
     </g>
     <g id="text_9">
      <!-- 4 -->
      <g transform="translate(31.325 238.777427)scale(0.2 -0.2)">
       <use xlink:href="#DejaVuSans-52"/>
      </g>
     </g>
    </g>
    <g id="ytick_4">
     <g id="line2d_9">
      <g>
       <use style="stroke:#000000;stroke-width:0.8;" x="51.05" xlink:href="#ma914b47361" y="170.78303"/>
      </g>
     </g>
     <g id="text_10">
      <!-- 6 -->
      <g transform="translate(31.325 178.381468)scale(0.2 -0.2)">
       <use xlink:href="#DejaVuSans-54"/>
      </g>
     </g>
    </g>
    <g id="ytick_5">
     <g id="line2d_10">
      <g>
       <use style="stroke:#000000;stroke-width:0.8;" x="51.05" xlink:href="#ma914b47361" y="110.387071"/>
      </g>
     </g>
     <g id="text_11">
      <!-- 8 -->
      <g transform="translate(31.325 117.985508)scale(0.2 -0.2)">
       <use xlink:href="#DejaVuSans-56"/>
      </g>
     </g>
    </g>
    <g id="text_12">
     <!-- DHEU Value -->
     <defs>
      <path d="M 19.671875 64.796875 
L 19.671875 8.109375 
L 31.59375 8.109375 
Q 46.6875 8.109375 53.6875 14.9375 
Q 60.6875 21.78125 60.6875 36.53125 
Q 60.6875 51.171875 53.6875 57.984375 
Q 46.6875 64.796875 31.59375 64.796875 
z
M 9.8125 72.90625 
L 30.078125 72.90625 
Q 51.265625 72.90625 61.171875 64.09375 
Q 71.09375 55.28125 71.09375 36.53125 
Q 71.09375 17.671875 61.125 8.828125 
Q 51.171875 0 30.078125 0 
L 9.8125 0 
z
" id="DejaVuSans-68"/>
      <path d="M 9.8125 72.90625 
L 19.671875 72.90625 
L 19.671875 43.015625 
L 55.515625 43.015625 
L 55.515625 72.90625 
L 65.375 72.90625 
L 65.375 0 
L 55.515625 0 
L 55.515625 34.71875 
L 19.671875 34.71875 
L 19.671875 0 
L 9.8125 0 
z
" id="DejaVuSans-72"/>
      <path d="M 9.8125 72.90625 
L 55.90625 72.90625 
L 55.90625 64.59375 
L 19.671875 64.59375 
L 19.671875 43.015625 
L 54.390625 43.015625 
L 54.390625 34.71875 
L 19.671875 34.71875 
L 19.671875 8.296875 
L 56.78125 8.296875 
L 56.78125 0 
L 9.8125 0 
z
" id="DejaVuSans-69"/>
      <path d="M 8.6875 72.90625 
L 18.609375 72.90625 
L 18.609375 28.609375 
Q 18.609375 16.890625 22.84375 11.734375 
Q 27.09375 6.59375 36.625 6.59375 
Q 46.09375 6.59375 50.34375 11.734375 
Q 54.59375 16.890625 54.59375 28.609375 
L 54.59375 72.90625 
L 64.5 72.90625 
L 64.5 27.390625 
Q 64.5 13.140625 57.4375 5.859375 
Q 50.390625 -1.421875 36.625 -1.421875 
Q 22.796875 -1.421875 15.734375 5.859375 
Q 8.6875 13.140625 8.6875 27.390625 
z
" id="DejaVuSans-85"/>
      <path d="M 28.609375 0 
L 0.78125 72.90625 
L 11.078125 72.90625 
L 34.1875 11.53125 
L 57.328125 72.90625 
L 67.578125 72.90625 
L 39.796875 0 
z
" id="DejaVuSans-86"/>
      <path d="M 9.421875 75.984375 
L 18.40625 75.984375 
L 18.40625 0 
L 9.421875 0 
z
" id="DejaVuSans-108"/>
      <path d="M 8.5 21.578125 
L 8.5 54.6875 
L 17.484375 54.6875 
L 17.484375 21.921875 
Q 17.484375 14.15625 20.5 10.265625 
Q 23.53125 6.390625 29.59375 6.390625 
Q 36.859375 6.390625 41.078125 11.03125 
Q 45.3125 15.671875 45.3125 23.6875 
L 45.3125 54.6875 
L 54.296875 54.6875 
L 54.296875 0 
L 45.3125 0 
L 45.3125 8.40625 
Q 42.046875 3.421875 37.71875 1 
Q 33.40625 -1.421875 27.6875 -1.421875 
Q 18.265625 -1.421875 13.375 4.4375 
Q 8.5 10.296875 8.5 21.578125 
z
M 31.109375 56 
z
" id="DejaVuSans-117"/>
     </defs>
     <g transform="translate(23.858854 266.29875)rotate(-90)scale(0.166667 -0.166667)">
      <use xlink:href="#DejaVuSans-68"/>
      <use x="77.001953" xlink:href="#DejaVuSans-72"/>
      <use x="152.197266" xlink:href="#DejaVuSans-69"/>
      <use x="215.380859" xlink:href="#DejaVuSans-85"/>
      <use x="288.574219" xlink:href="#DejaVuSans-32"/>
      <use x="320.361328" xlink:href="#DejaVuSans-86"/>
      <use x="388.660156" xlink:href="#DejaVuSans-97"/>
      <use x="449.939453" xlink:href="#DejaVuSans-108"/>
      <use x="477.722656" xlink:href="#DejaVuSans-117"/>
      <use x="541.101562" xlink:href="#DejaVuSans-101"/>
     </g>
    </g>
   </g>
   <g id="line2d_11">
    <path clip-path="url(#p26a2180f77)" d="M 72.784091 351.970909 
L 77.723657 235.104727 
L 82.663223 180.748364 
L 87.602789 137.263273 
L 92.542355 110.093144 
L 97.481921 93.791725 
L 102.421488 85.656084 
L 107.361054 80.226671 
L 112.30062 80.217459 
L 117.240186 80.21935 
L 122.179752 80.23106 
L 127.119318 80.238931 
L 132.058884 80.259004 
L 136.99845 80.252745 
L 141.938017 80.23478 
L 146.877583 80.250182 
L 151.817149 80.255419 
L 156.756715 80.227385 
L 161.696281 80.226086 
L 166.635847 80.243163 
L 171.575413 80.240837 
L 176.514979 80.23285 
L 181.454545 80.251956 
L 186.394112 80.238589 
L 191.333678 80.263994 
L 196.273244 80.262204 
L 201.21281 80.242776 
L 206.152376 80.236389 
L 211.091942 80.229782 
L 216.031508 80.237571 
L 220.971074 80.226847 
L 225.91064 80.236334 
L 230.850207 80.227561 
L 235.789773 80.224863 
L 240.729339 80.22768 
L 245.668905 80.217944 
L 250.608471 80.234893 
L 255.548037 80.248804 
L 260.487603 80.246005 
L 265.427169 80.260178 
L 270.366736 80.242776 
L 275.306302 80.286312 
L 280.245868 80.33407 
L 285.185434 80.286188 
L 290.125 80.221488 
L 295.064566 80.211272 
L 300.004132 80.201176 
L 304.943698 80.196599 
L 309.883264 80.21537 
L 314.822831 80.221627 
L 319.762397 80.238866 
L 324.701963 80.323813 
L 329.641529 80.487832 
L 334.581095 80.530093 
L 339.520661 80.480187 
L 344.460227 80.45003 
L 349.399793 80.221136 
L 354.33936 80.190311 
L 359.278926 80.200072 
L 364.218492 80.189091 
L 369.158058 80.211053 
L 374.097624 80.211053 
L 379.03719 80.211053 
L 383.976756 80.211053 
L 388.916322 80.211053 
L 393.855888 80.211053 
L 398.795455 80.207393 
L 403.735021 80.199549 
L 408.674587 80.211194 
L 413.614153 80.211194 
L 418.553719 80.199549 
L 423.493285 80.199549 
L 428.432851 80.199549 
L 433.372417 80.190398 
L 438.311983 80.199546 
L 443.25155 80.189091 
L 448.191116 80.196844 
L 453.130682 80.196844 
L 458.070248 80.196844 
L 463.009814 80.191379 
L 467.94938 80.20053 
L 472.888946 80.20053 
L 477.828512 80.209426 
L 482.768079 80.209426 
L 487.707645 80.209426 
L 492.647211 80.209426 
L 497.586777 80.209426 
L 502.526343 80.225695 
L 507.465909 80.189091 
" style="fill:none;stroke:#1f77b4;stroke-linecap:square;stroke-width:1.5;"/>
   </g>
   <g id="line2d_12">
    <path clip-path="url(#p26a2180f77)" d="M 72.784091 351.970909 
L 77.723657 287.045253 
L 82.663223 256.847273 
L 87.602789 232.688889 
L 92.542355 217.589899 
L 97.481921 208.535996 
L 102.421488 204.006909 
L 107.361054 200.992052 
L 112.30062 200.990014 
L 117.240186 200.999524 
L 122.179752 200.998978 
L 127.119318 201.002181 
L 132.058884 201.000655 
L 136.99845 201.022084 
L 141.938017 201.030333 
L 146.877583 201.028391 
L 151.817149 201.026978 
L 156.756715 201.037106 
L 161.696281 201.03803 
L 166.635847 201.035199 
L 171.575413 201.040755 
L 176.514979 201.028591 
L 181.454545 201.029599 
L 186.394112 201.020929 
L 191.333678 201.022373 
L 196.273244 201.059627 
L 201.21281 201.082501 
L 206.152376 201.072211 
L 211.091942 201.091336 
L 216.031508 201.003501 
L 220.971074 201.014404 
L 225.91064 201.019498 
L 230.850207 201.030165 
L 235.789773 201.035063 
L 240.729339 201.041504 
L 245.668905 201.040343 
L 250.608471 201.033268 
L 255.548037 201.035222 
L 260.487603 201.040148 
L 265.427169 201.023369 
L 270.366736 201.023211 
L 275.306302 201.091071 
L 280.245868 201.128065 
L 285.185434 201.119913 
L 290.125 201.006945 
L 295.064566 201.01818 
L 300.004132 201.031541 
L 304.943698 201.005032 
L 309.883264 201.004151 
L 314.822831 201.024129 
L 319.762397 200.996371 
L 324.701963 201.003806 
L 329.641529 201.010554 
L 334.581095 201.018767 
L 339.520661 200.968454 
L 344.460227 200.959094 
L 349.399793 200.941193 
L 354.33936 200.989301 
L 359.278926 200.989301 
L 364.218492 200.990845 
L 369.158058 201.001545 
L 374.097624 200.995097 
L 379.03719 200.976075 
L 383.976756 200.976075 
L 388.916322 200.976075 
L 393.855888 201.01822 
L 398.795455 201.101399 
L 403.735021 200.989938 
L 408.674587 200.989107 
L 413.614153 200.995381 
L 418.553719 201.007857 
L 423.493285 201.007857 
L 428.432851 201.007857 
L 433.372417 201.003283 
L 438.311983 200.986941 
L 443.25155 200.965781 
L 448.191116 200.978809 
L 453.130682 200.978809 
L 458.070248 200.97309 
L 463.009814 200.985436 
L 467.94938 200.990011 
L 472.888946 200.978572 
L 477.828512 200.98101 
L 482.768079 200.98101 
L 487.707645 200.98101 
L 492.647211 200.98101 
L 497.586777 200.98101 
L 502.526343 200.98101 
L 507.465909 200.98101 
" style="fill:none;stroke:#ff7f0e;stroke-linecap:square;stroke-width:1.5;"/>
   </g>
   <g id="line2d_13">
    <path clip-path="url(#p26a2180f77)" d="M 72.784091 351.970909 
L 77.723657 287.045253 
L 82.663223 256.847273 
L 87.602789 232.688889 
L 92.542355 217.589899 
L 97.481921 208.530505 
L 102.421488 204.000808 
L 107.361054 200.98101 
L 112.30062 200.975494 
L 117.240186 200.979636 
L 122.179752 200.983912 
L 127.119318 200.984247 
L 132.058884 200.983089 
L 136.99845 200.987671 
L 141.938017 200.992664 
L 146.877583 200.998409 
L 151.817149 201.001702 
L 156.756715 201.000303 
L 161.696281 200.991132 
L 166.635847 200.996456 
L 171.575413 200.989308 
L 176.514979 200.992824 
L 181.454545 200.997929 
L 186.394112 200.987458 
L 191.333678 200.988881 
L 196.273244 200.995076 
L 201.21281 201.005889 
L 206.152376 201.011757 
L 211.091942 201.011732 
L 216.031508 201.023094 
L 220.971074 201.021221 
L 225.91064 201.015667 
L 230.850207 201.020803 
L 235.789773 201.026384 
L 240.729339 201.031893 
L 245.668905 201.008974 
L 250.608471 201.004302 
L 255.548037 201.014794 
L 260.487603 201.004672 
L 265.427169 201.000292 
L 270.366736 200.995203 
L 275.306302 200.993119 
L 280.245868 200.988315 
L 285.185434 200.989853 
L 290.125 200.96484 
L 295.064566 200.9572 
L 300.004132 200.987521 
L 304.943698 200.990368 
L 309.883264 200.991599 
L 314.822831 200.989068 
L 319.762397 200.981573 
L 324.701963 200.969701 
L 329.641529 200.972185 
L 334.581095 200.984378 
L 339.520661 200.967067 
L 344.460227 200.957707 
L 349.399793 200.939805 
L 354.33936 201.028643 
L 359.278926 201.028643 
L 364.218492 201.024711 
L 369.158058 201.052352 
L 374.097624 200.992659 
L 379.03719 200.973633 
L 383.976756 200.973633 
L 388.916322 200.973633 
L 393.855888 200.973633 
L 398.795455 200.991935 
L 403.735021 200.991935 
L 408.674587 200.972801 
L 413.614153 200.972801 
L 418.553719 200.985278 
L 423.493285 200.985278 
L 428.432851 200.985278 
L 433.372417 200.957416 
L 438.311983 200.957416 
L 443.25155 200.940823 
L 448.191116 200.944702 
L 453.130682 200.944702 
L 458.070248 200.94127 
L 463.009814 200.940825 
L 467.94938 200.945401 
L 472.888946 200.945401 
L 477.828512 200.98101 
L 482.768079 200.98101 
L 487.707645 200.98101 
L 492.647211 200.98101 
L 497.586777 200.98101 
L 502.526343 200.98101 
L 507.465909 200.98101 
" style="fill:none;stroke:#2ca02c;stroke-linecap:square;stroke-width:1.5;"/>
   </g>
   <g id="line2d_14">
    <path clip-path="url(#p26a2180f77)" d="M 72.784091 351.970909 
L 77.723657 287.045253 
L 82.663223 256.847273 
L 87.602789 232.688889 
L 92.542355 217.589899 
L 97.481921 208.530505 
L 102.421488 204.011057 
L 107.361054 200.991259 
L 112.30062 200.986964 
L 117.240186 200.991105 
L 122.179752 200.986351 
L 127.119318 200.986077 
L 132.058884 200.978147 
L 136.99845 200.982954 
L 141.938017 200.976017 
L 146.877583 200.976067 
L 151.817149 200.98178 
L 156.756715 200.982341 
L 161.696281 200.97765 
L 166.635847 200.980555 
L 171.575413 200.978998 
L 176.514979 200.976661 
L 181.454545 200.9756 
L 186.394112 200.969609 
L 191.333678 200.969064 
L 196.273244 200.984342 
L 201.21281 200.98729 
L 206.152376 200.989011 
L 211.091942 200.994197 
L 216.031508 200.99688 
L 220.971074 200.987583 
L 225.91064 200.98182 
L 230.850207 200.988715 
L 235.789773 200.991147 
L 240.729339 200.99003 
L 245.668905 200.991987 
L 250.608471 200.98593 
L 255.548037 200.992415 
L 260.487603 200.983345 
L 265.427169 200.99281 
L 270.366736 200.991261 
L 275.306302 200.989242 
L 280.245868 200.983733 
L 285.185434 200.98527 
L 290.125 200.959968 
L 295.064566 200.963768 
L 300.004132 200.972559 
L 304.943698 200.968546 
L 309.883264 200.967665 
L 314.822831 200.966553 
L 319.762397 200.964619 
L 324.701963 200.960976 
L 329.641529 200.962369 
L 334.581095 200.977643 
L 339.520661 200.962908 
L 344.460227 200.953547 
L 349.399793 200.935642 
L 354.33936 200.976434 
L 359.278926 200.976434 
L 364.218492 200.973688 
L 369.158058 200.97581 
L 374.097624 200.969361 
L 379.03719 200.950343 
L 383.976756 200.950343 
L 388.916322 200.950343 
L 393.855888 200.950343 
L 398.795455 200.950343 
L 403.735021 200.950343 
L 408.674587 200.949511 
L 413.614153 200.949511 
L 418.553719 200.961992 
L 423.493285 200.961992 
L 428.432851 200.961992 
L 433.372417 200.957416 
L 438.311983 200.957416 
L 443.25155 200.940823 
L 448.191116 200.944702 
L 453.130682 200.944702 
L 458.070248 200.94127 
L 463.009814 200.940825 
L 467.94938 200.945401 
L 472.888946 200.945401 
L 477.828512 200.98101 
L 482.768079 200.98101 
L 487.707645 200.98101 
L 492.647211 200.98101 
L 497.586777 200.98101 
L 502.526343 200.98101 
L 507.465909 200.98101 
" style="fill:none;stroke:#d62728;stroke-linecap:square;stroke-width:1.5;"/>
   </g>
   <g id="line2d_15">
    <path clip-path="url(#p26a2180f77)" d="M 72.784091 351.970909 
L 77.723657 338.985778 
L 82.663223 332.946182 
L 87.602789 328.114505 
L 92.542355 325.094707 
L 97.481921 323.282828 
L 102.421488 322.376889 
L 107.361054 321.772929 
L 112.30062 321.772929 
L 117.240186 321.772929 
L 122.179752 321.772929 
L 127.119318 321.772929 
L 132.058884 321.772929 
L 136.99845 321.772929 
L 141.938017 321.772929 
L 146.877583 321.772929 
L 151.817149 321.772929 
L 156.756715 321.772929 
L 161.696281 321.772929 
L 166.635847 321.772929 
L 171.575413 321.772929 
L 176.514979 321.772929 
L 181.454545 321.772929 
L 186.394112 321.772929 
L 191.333678 321.772929 
L 196.273244 321.772929 
L 201.21281 321.772929 
L 206.152376 321.772929 
L 211.091942 321.772929 
L 216.031508 321.772929 
L 220.971074 321.772929 
L 225.91064 321.772929 
L 230.850207 321.772929 
L 235.789773 321.772929 
L 240.729339 321.772929 
L 245.668905 321.772929 
L 250.608471 321.772929 
L 255.548037 321.772929 
L 260.487603 321.772929 
L 265.427169 321.772929 
L 270.366736 321.772929 
L 275.306302 321.772929 
L 280.245868 321.772929 
L 285.185434 321.772929 
L 290.125 321.772929 
L 295.064566 321.772929 
L 300.004132 321.772929 
L 304.943698 321.772929 
L 309.883264 321.772929 
L 314.822831 321.772929 
L 319.762397 321.772929 
L 324.701963 321.772929 
L 329.641529 321.772929 
L 334.581095 321.772929 
L 339.520661 321.772929 
L 344.460227 321.772929 
L 349.399793 321.772929 
L 354.33936 321.772929 
L 359.278926 321.772929 
L 364.218492 321.772929 
L 369.158058 321.772929 
L 374.097624 321.772929 
L 379.03719 321.772929 
L 383.976756 321.772929 
L 388.916322 321.772929 
L 393.855888 321.772929 
L 398.795455 321.772929 
L 403.735021 321.772929 
L 408.674587 321.772929 
L 413.614153 321.772929 
L 418.553719 321.772929 
L 423.493285 321.772929 
L 428.432851 321.772929 
L 433.372417 321.772929 
L 438.311983 321.772929 
L 443.25155 321.772929 
L 448.191116 321.772929 
L 453.130682 321.772929 
L 458.070248 321.772929 
L 463.009814 321.772929 
L 467.94938 321.772929 
L 472.888946 321.772929 
L 477.828512 321.772929 
L 482.768079 321.772929 
L 487.707645 321.772929 
L 492.647211 321.772929 
L 497.586777 321.772929 
L 502.526343 321.772929 
L 507.465909 321.772929 
" style="fill:none;stroke:#9467bd;stroke-linecap:square;stroke-width:1.5;"/>
   </g>
   <g id="line2d_16">
    <path clip-path="url(#p26a2180f77)" d="M 72.784091 351.970909 
L 77.723657 235.104727 
L 82.663223 180.748364 
L 87.602789 137.263273 
L 92.542355 110.085091 
L 97.481921 93.778182 
L 102.421488 85.624727 
L 107.361054 80.189091 
L 112.30062 80.190929 
L 117.240186 80.199168 
L 122.179752 80.199168 
L 127.119318 80.199168 
L 132.058884 80.202036 
L 136.99845 80.203645 
L 141.938017 80.212598 
L 146.877583 80.213981 
L 151.817149 80.232727 
L 156.756715 80.224038 
L 161.696281 80.224517 
L 166.635847 80.214414 
L 171.575413 80.210792 
L 176.514979 80.208719 
L 181.454545 80.212264 
L 186.394112 80.215699 
L 191.333678 80.229858 
L 196.273244 80.243291 
L 201.21281 80.242597 
L 206.152376 80.246388 
L 211.091942 80.247696 
L 216.031508 80.263156 
L 220.971074 80.256545 
L 225.91064 80.245626 
L 230.850207 80.222852 
L 235.789773 80.214284 
L 240.729339 80.210994 
L 245.668905 80.211333 
L 250.608471 80.207664 
L 255.548037 80.212882 
L 260.487603 80.19753 
L 265.427169 80.201477 
L 270.366736 80.200044 
L 275.306302 80.212433 
L 280.245868 80.206383 
L 285.185434 80.206156 
L 290.125 80.199382 
L 295.064566 80.203542 
L 300.004132 80.216654 
L 304.943698 80.206577 
L 309.883264 80.206694 
L 314.822831 80.206127 
L 319.762397 80.196855 
L 324.701963 80.202309 
L 329.641529 80.202817 
L 334.581095 80.189091 
L 339.520661 80.189091 
L 344.460227 80.303087 
L 349.399793 80.267354 
L 354.33936 80.348816 
L 359.278926 80.25079 
L 364.218492 80.297462 
L 369.158058 80.255233 
L 374.097624 80.242343 
L 379.03719 80.242326 
L 383.976756 80.242326 
L 388.916322 80.242326 
L 393.855888 80.242326 
L 398.795455 80.242326 
L 403.735021 80.190755 
L 408.674587 80.189091 
L 413.614153 80.189091 
L 418.553719 80.189091 
L 423.493285 80.189091 
L 428.432851 80.189091 
L 433.372417 80.189091 
L 438.311983 80.189091 
L 443.25155 80.198242 
L 448.191116 80.198242 
L 453.130682 80.198242 
L 458.070248 80.191379 
L 463.009814 80.190489 
L 467.94938 80.190489 
L 472.888946 80.229124 
L 477.828512 80.189091 
L 482.768079 80.189091 
L 487.707645 80.189091 
L 492.647211 80.189091 
L 497.586777 80.189091 
L 502.526343 80.189091 
L 507.465909 80.189091 
" style="fill:none;stroke:#8c564b;stroke-linecap:square;stroke-width:1.5;"/>
   </g>
   <g id="line2d_17">
    <path clip-path="url(#p26a2180f77)" d="M 72.784091 351.970909 
L 77.723657 287.045253 
L 82.663223 256.847273 
L 87.602789 232.688889 
L 92.542355 217.589899 
L 97.481921 208.530505 
L 102.421488 204.000808 
L 107.361054 200.98101 
L 112.30062 200.975494 
L 117.240186 200.98354 
L 122.179752 200.982088 
L 127.119318 200.981814 
L 132.058884 200.979188 
L 136.99845 200.985765 
L 141.938017 200.990549 
L 146.877583 200.993815 
L 151.817149 200.997217 
L 156.756715 200.998083 
L 161.696281 200.99489 
L 166.635847 200.991523 
L 171.575413 200.990959 
L 176.514979 200.999071 
L 181.454545 201.003335 
L 186.394112 200.995534 
L 191.333678 201.002615 
L 196.273244 201.009909 
L 201.21281 201.021966 
L 206.152376 201.036127 
L 211.091942 201.01429 
L 216.031508 201.007714 
L 220.971074 201.008711 
L 225.91064 201.016924 
L 230.850207 201.020688 
L 235.789773 201.016547 
L 240.729339 201.017068 
L 245.668905 201.020438 
L 250.608471 201.09108 
L 255.548037 201.083096 
L 260.487603 201.081058 
L 265.427169 201.095381 
L 270.366736 201.08219 
L 275.306302 201.073931 
L 280.245868 201.088233 
L 285.185434 201.090631 
L 290.125 201.069027 
L 295.064566 201.072827 
L 300.004132 201.093073 
L 304.943698 200.981223 
L 309.883264 200.980344 
L 314.822831 200.975713 
L 319.762397 200.981257 
L 324.701963 200.960976 
L 329.641529 200.980673 
L 334.581095 201.393358 
L 339.520661 200.994953 
L 344.460227 200.968806 
L 349.399793 200.950902 
L 354.33936 200.977654 
L 359.278926 200.977654 
L 364.218492 200.975315 
L 369.158058 200.978251 
L 374.097624 200.969361 
L 379.03719 200.959494 
L 383.976756 200.959494 
L 388.916322 201.036855 
L 393.855888 201.001776 
L 398.795455 201.001776 
L 403.735021 201.001776 
L 408.674587 201.000945 
L 413.614153 201.033385 
L 418.553719 201.045849 
L 423.493285 201.148906 
L 428.432851 201.054782 
L 433.372417 201.050207 
L 438.311983 201.050207 
L 443.25155 201.033642 
L 448.191116 201.037516 
L 453.130682 201.037516 
L 458.070248 201.034085 
L 463.009814 201.033639 
L 467.94938 200.967298 
L 472.888946 200.967298 
L 477.828512 201.001926 
L 482.768079 201.001926 
L 487.707645 201.001926 
L 492.647211 201.001926 
L 497.586777 201.001926 
L 502.526343 201.001926 
L 507.465909 201.001926 
" style="fill:none;stroke:#e377c2;stroke-linecap:square;stroke-width:1.5;"/>
   </g>
   <g id="line2d_18">
    <path clip-path="url(#p26a2180f77)" d="M 72.784091 351.970909 
L 77.723657 287.045253 
L 82.663223 256.847273 
L 87.602789 232.688889 
L 92.542355 217.589899 
L 97.481921 208.530505 
L 102.421488 204.005201 
L 107.361054 200.996384 
L 112.30062 200.98799 
L 117.240186 200.994534 
L 122.179752 200.988317 
L 127.119318 200.988775 
L 132.058884 201.008256 
L 136.99845 201.01454 
L 141.938017 201.00603 
L 146.877583 201.019812 
L 151.817149 201.02369 
L 156.756715 201.021263 
L 161.696281 201.005026 
L 166.635847 201.00212 
L 171.575413 200.991155 
L 176.514979 200.991639 
L 181.454545 200.990513 
L 186.394112 200.985641 
L 191.333678 200.99586 
L 196.273244 201.001954 
L 201.21281 201.014049 
L 206.152376 201.015066 
L 211.091942 201.015767 
L 216.031508 201.000978 
L 220.971074 200.986412 
L 225.91064 200.988267 
L 230.850207 200.995353 
L 235.789773 200.999062 
L 240.729339 201.007283 
L 245.668905 201.011727 
L 250.608471 200.996017 
L 255.548037 200.985262 
L 260.487603 200.97305 
L 265.427169 200.980929 
L 270.366736 200.978342 
L 275.306302 200.969666 
L 280.245868 200.977165 
L 285.185434 200.978703 
L 290.125 200.952999 
L 295.064566 200.956795 
L 300.004132 200.965121 
L 304.943698 200.973479 
L 309.883264 200.983895 
L 314.822831 201.018709 
L 319.762397 201.025941 
L 324.701963 201.011523 
L 329.641529 201.019234 
L 334.581095 201.040393 
L 339.520661 201.048361 
L 344.460227 201.039 
L 349.399793 201.021096 
L 354.33936 201.061842 
L 359.278926 201.091513 
L 364.218492 201.127127 
L 369.158058 201.035158 
L 374.097624 201.028715 
L 379.03719 201.009678 
L 383.976756 201.008569 
L 388.916322 201.008569 
L 393.855888 201.008569 
L 398.795455 201.008569 
L 403.735021 201.008569 
L 408.674587 201.007737 
L 413.614153 201.007737 
L 418.553719 201.020207 
L 423.493285 200.961992 
L 428.432851 200.961992 
L 433.372417 200.957416 
L 438.311983 200.966564 
L 443.25155 200.949974 
L 448.191116 200.953853 
L 453.130682 200.963003 
L 458.070248 200.950422 
L 463.009814 200.949977 
L 467.94938 200.954552 
L 472.888946 201.027756 
L 477.828512 200.999312 
L 482.768079 200.98101 
L 487.707645 200.98101 
L 492.647211 201.054217 
L 497.586777 201.005413 
L 502.526343 201.017614 
L 507.465909 201.017614 
" style="fill:none;stroke:#7f7f7f;stroke-linecap:square;stroke-width:1.5;"/>
   </g>
   <g id="patch_3">
    <path d="M 51.05 365.56 
L 51.05 66.6 
" style="fill:none;stroke:#000000;stroke-linecap:square;stroke-linejoin:miter;stroke-width:0.8;"/>
   </g>
   <g id="patch_4">
    <path d="M 529.2 365.56 
L 529.2 66.6 
" style="fill:none;stroke:#000000;stroke-linecap:square;stroke-linejoin:miter;stroke-width:0.8;"/>
   </g>
   <g id="patch_5">
    <path d="M 51.05 365.56 
L 529.2 365.56 
" style="fill:none;stroke:#000000;stroke-linecap:square;stroke-linejoin:miter;stroke-width:0.8;"/>
   </g>
   <g id="patch_6">
    <path d="M 51.05 66.6 
L 529.2 66.6 
" style="fill:none;stroke:#000000;stroke-linecap:square;stroke-linejoin:miter;stroke-width:0.8;"/>
   </g>
   <g id="legend_1">
    <g id="patch_7">
     <path d="M 61.55 59.1 
L 518.7 59.1 
Q 521.7 59.1 521.7 56.1 
L 521.7 13.565625 
Q 521.7 10.565625 518.7 10.565625 
L 61.55 10.565625 
Q 58.55 10.565625 58.55 13.565625 
L 58.55 56.1 
Q 58.55 59.1 61.55 59.1 
z
" style="fill:#ffffff;opacity:0.8;stroke:#cccccc;stroke-linejoin:miter;"/>
    </g>
    <g id="line2d_19">
     <path d="M 64.55 22.713281 
L 94.55 22.713281 
" style="fill:none;stroke:#1f77b4;stroke-linecap:square;stroke-width:1.5;"/>
    </g>
    <g id="line2d_20"/>
    <g id="text_13">
     <!-- Stra 1 -->
     <defs>
      <path d="M 53.515625 70.515625 
L 53.515625 60.890625 
Q 47.90625 63.578125 42.921875 64.890625 
Q 37.9375 66.21875 33.296875 66.21875 
Q 25.25 66.21875 20.875 63.09375 
Q 16.5 59.96875 16.5 54.203125 
Q 16.5 49.359375 19.40625 46.890625 
Q 22.3125 44.4375 30.421875 42.921875 
L 36.375 41.703125 
Q 47.40625 39.59375 52.65625 34.296875 
Q 57.90625 29 57.90625 20.125 
Q 57.90625 9.515625 50.796875 4.046875 
Q 43.703125 -1.421875 29.984375 -1.421875 
Q 24.8125 -1.421875 18.96875 -0.25 
Q 13.140625 0.921875 6.890625 3.21875 
L 6.890625 13.375 
Q 12.890625 10.015625 18.65625 8.296875 
Q 24.421875 6.59375 29.984375 6.59375 
Q 38.421875 6.59375 43.015625 9.90625 
Q 47.609375 13.234375 47.609375 19.390625 
Q 47.609375 24.75 44.3125 27.78125 
Q 41.015625 30.8125 33.5 32.328125 
L 27.484375 33.5 
Q 16.453125 35.6875 11.515625 40.375 
Q 6.59375 45.0625 6.59375 53.421875 
Q 6.59375 63.09375 13.40625 68.65625 
Q 20.21875 74.21875 32.171875 74.21875 
Q 37.3125 74.21875 42.625 73.28125 
Q 47.953125 72.359375 53.515625 70.515625 
z
" id="DejaVuSans-83"/>
      <path d="M 18.3125 70.21875 
L 18.3125 54.6875 
L 36.8125 54.6875 
L 36.8125 47.703125 
L 18.3125 47.703125 
L 18.3125 18.015625 
Q 18.3125 11.328125 20.140625 9.421875 
Q 21.96875 7.515625 27.59375 7.515625 
L 36.8125 7.515625 
L 36.8125 0 
L 27.59375 0 
Q 17.1875 0 13.234375 3.875 
Q 9.28125 7.765625 9.28125 18.015625 
L 9.28125 47.703125 
L 2.6875 47.703125 
L 2.6875 54.6875 
L 9.28125 54.6875 
L 9.28125 70.21875 
z
" id="DejaVuSans-116"/>
      <path d="M 41.109375 46.296875 
Q 39.59375 47.171875 37.8125 47.578125 
Q 36.03125 48 33.890625 48 
Q 26.265625 48 22.1875 43.046875 
Q 18.109375 38.09375 18.109375 28.8125 
L 18.109375 0 
L 9.078125 0 
L 9.078125 54.6875 
L 18.109375 54.6875 
L 18.109375 46.1875 
Q 20.953125 51.171875 25.484375 53.578125 
Q 30.03125 56 36.53125 56 
Q 37.453125 56 38.578125 55.875 
Q 39.703125 55.765625 41.0625 55.515625 
z
" id="DejaVuSans-114"/>
      <path d="M 12.40625 8.296875 
L 28.515625 8.296875 
L 28.515625 63.921875 
L 10.984375 60.40625 
L 10.984375 69.390625 
L 28.421875 72.90625 
L 38.28125 72.90625 
L 38.28125 8.296875 
L 54.390625 8.296875 
L 54.390625 0 
L 12.40625 0 
z
" id="DejaVuSans-49"/>
     </defs>
     <g transform="translate(106.55 27.963281)scale(0.15 -0.15)">
      <use xlink:href="#DejaVuSans-83"/>
      <use x="63.476562" xlink:href="#DejaVuSans-116"/>
      <use x="102.685547" xlink:href="#DejaVuSans-114"/>
      <use x="143.798828" xlink:href="#DejaVuSans-97"/>
      <use x="205.078125" xlink:href="#DejaVuSans-32"/>
      <use x="236.865234" xlink:href="#DejaVuSans-49"/>
     </g>
    </g>
    <g id="line2d_21">
     <path d="M 64.55 44.730469 
L 94.55 44.730469 
" style="fill:none;stroke:#ff7f0e;stroke-linecap:square;stroke-width:1.5;"/>
    </g>
    <g id="line2d_22"/>
    <g id="text_14">
     <!-- Stra 2 -->
     <g transform="translate(106.55 49.980469)scale(0.15 -0.15)">
      <use xlink:href="#DejaVuSans-83"/>
      <use x="63.476562" xlink:href="#DejaVuSans-116"/>
      <use x="102.685547" xlink:href="#DejaVuSans-114"/>
      <use x="143.798828" xlink:href="#DejaVuSans-97"/>
      <use x="205.078125" xlink:href="#DejaVuSans-32"/>
      <use x="236.865234" xlink:href="#DejaVuSans-50"/>
     </g>
    </g>
    <g id="line2d_23">
     <path d="M 185.909115 22.713281 
L 215.909115 22.713281 
" style="fill:none;stroke:#2ca02c;stroke-linecap:square;stroke-width:1.5;"/>
    </g>
    <g id="line2d_24"/>
    <g id="text_15">
     <!-- Stra 3 -->
     <defs>
      <path d="M 40.578125 39.3125 
Q 47.65625 37.796875 51.625 33 
Q 55.609375 28.21875 55.609375 21.1875 
Q 55.609375 10.40625 48.1875 4.484375 
Q 40.765625 -1.421875 27.09375 -1.421875 
Q 22.515625 -1.421875 17.65625 -0.515625 
Q 12.796875 0.390625 7.625 2.203125 
L 7.625 11.71875 
Q 11.71875 9.328125 16.59375 8.109375 
Q 21.484375 6.890625 26.8125 6.890625 
Q 36.078125 6.890625 40.9375 10.546875 
Q 45.796875 14.203125 45.796875 21.1875 
Q 45.796875 27.640625 41.28125 31.265625 
Q 36.765625 34.90625 28.71875 34.90625 
L 20.21875 34.90625 
L 20.21875 43.015625 
L 29.109375 43.015625 
Q 36.375 43.015625 40.234375 45.921875 
Q 44.09375 48.828125 44.09375 54.296875 
Q 44.09375 59.90625 40.109375 62.90625 
Q 36.140625 65.921875 28.71875 65.921875 
Q 24.65625 65.921875 20.015625 65.03125 
Q 15.375 64.15625 9.8125 62.3125 
L 9.8125 71.09375 
Q 15.4375 72.65625 20.34375 73.4375 
Q 25.25 74.21875 29.59375 74.21875 
Q 40.828125 74.21875 47.359375 69.109375 
Q 53.90625 64.015625 53.90625 55.328125 
Q 53.90625 49.265625 50.4375 45.09375 
Q 46.96875 40.921875 40.578125 39.3125 
z
" id="DejaVuSans-51"/>
     </defs>
     <g transform="translate(227.909115 27.963281)scale(0.15 -0.15)">
      <use xlink:href="#DejaVuSans-83"/>
      <use x="63.476562" xlink:href="#DejaVuSans-116"/>
      <use x="102.685547" xlink:href="#DejaVuSans-114"/>
      <use x="143.798828" xlink:href="#DejaVuSans-97"/>
      <use x="205.078125" xlink:href="#DejaVuSans-32"/>
      <use x="236.865234" xlink:href="#DejaVuSans-51"/>
     </g>
    </g>
    <g id="line2d_25">
     <path d="M 185.909115 44.730469 
L 215.909115 44.730469 
" style="fill:none;stroke:#d62728;stroke-linecap:square;stroke-width:1.5;"/>
    </g>
    <g id="line2d_26"/>
    <g id="text_16">
     <!-- Stra 4 -->
     <g transform="translate(227.909115 49.980469)scale(0.15 -0.15)">
      <use xlink:href="#DejaVuSans-83"/>
      <use x="63.476562" xlink:href="#DejaVuSans-116"/>
      <use x="102.685547" xlink:href="#DejaVuSans-114"/>
      <use x="143.798828" xlink:href="#DejaVuSans-97"/>
      <use x="205.078125" xlink:href="#DejaVuSans-32"/>
      <use x="236.865234" xlink:href="#DejaVuSans-52"/>
     </g>
    </g>
    <g id="line2d_27">
     <path d="M 307.268229 22.713281 
L 337.268229 22.713281 
" style="fill:none;stroke:#9467bd;stroke-linecap:square;stroke-width:1.5;"/>
    </g>
    <g id="line2d_28"/>
    <g id="text_17">
     <!-- Stra 5 -->
     <defs>
      <path d="M 10.796875 72.90625 
L 49.515625 72.90625 
L 49.515625 64.59375 
L 19.828125 64.59375 
L 19.828125 46.734375 
Q 21.96875 47.46875 24.109375 47.828125 
Q 26.265625 48.1875 28.421875 48.1875 
Q 40.625 48.1875 47.75 41.5 
Q 54.890625 34.8125 54.890625 23.390625 
Q 54.890625 11.625 47.5625 5.09375 
Q 40.234375 -1.421875 26.90625 -1.421875 
Q 22.3125 -1.421875 17.546875 -0.640625 
Q 12.796875 0.140625 7.71875 1.703125 
L 7.71875 11.625 
Q 12.109375 9.234375 16.796875 8.0625 
Q 21.484375 6.890625 26.703125 6.890625 
Q 35.15625 6.890625 40.078125 11.328125 
Q 45.015625 15.765625 45.015625 23.390625 
Q 45.015625 31 40.078125 35.4375 
Q 35.15625 39.890625 26.703125 39.890625 
Q 22.75 39.890625 18.8125 39.015625 
Q 14.890625 38.140625 10.796875 36.28125 
z
" id="DejaVuSans-53"/>
     </defs>
     <g transform="translate(349.268229 27.963281)scale(0.15 -0.15)">
      <use xlink:href="#DejaVuSans-83"/>
      <use x="63.476562" xlink:href="#DejaVuSans-116"/>
      <use x="102.685547" xlink:href="#DejaVuSans-114"/>
      <use x="143.798828" xlink:href="#DejaVuSans-97"/>
      <use x="205.078125" xlink:href="#DejaVuSans-32"/>
      <use x="236.865234" xlink:href="#DejaVuSans-53"/>
     </g>
    </g>
    <g id="line2d_29">
     <path d="M 307.268229 44.730469 
L 337.268229 44.730469 
" style="fill:none;stroke:#8c564b;stroke-linecap:square;stroke-width:1.5;"/>
    </g>
    <g id="line2d_30"/>
    <g id="text_18">
     <!-- Stra 6 -->
     <g transform="translate(349.268229 49.980469)scale(0.15 -0.15)">
      <use xlink:href="#DejaVuSans-83"/>
      <use x="63.476562" xlink:href="#DejaVuSans-116"/>
      <use x="102.685547" xlink:href="#DejaVuSans-114"/>
      <use x="143.798828" xlink:href="#DejaVuSans-97"/>
      <use x="205.078125" xlink:href="#DejaVuSans-32"/>
      <use x="236.865234" xlink:href="#DejaVuSans-54"/>
     </g>
    </g>
    <g id="line2d_31">
     <path d="M 428.627344 22.713281 
L 458.627344 22.713281 
" style="fill:none;stroke:#e377c2;stroke-linecap:square;stroke-width:1.5;"/>
    </g>
    <g id="line2d_32"/>
    <g id="text_19">
     <!-- Stra 7 -->
     <defs>
      <path d="M 8.203125 72.90625 
L 55.078125 72.90625 
L 55.078125 68.703125 
L 28.609375 0 
L 18.3125 0 
L 43.21875 64.59375 
L 8.203125 64.59375 
z
" id="DejaVuSans-55"/>
     </defs>
     <g transform="translate(470.627344 27.963281)scale(0.15 -0.15)">
      <use xlink:href="#DejaVuSans-83"/>
      <use x="63.476562" xlink:href="#DejaVuSans-116"/>
      <use x="102.685547" xlink:href="#DejaVuSans-114"/>
      <use x="143.798828" xlink:href="#DejaVuSans-97"/>
      <use x="205.078125" xlink:href="#DejaVuSans-32"/>
      <use x="236.865234" xlink:href="#DejaVuSans-55"/>
     </g>
    </g>
    <g id="line2d_33">
     <path d="M 428.627344 44.730469 
L 458.627344 44.730469 
" style="fill:none;stroke:#7f7f7f;stroke-linecap:square;stroke-width:1.5;"/>
    </g>
    <g id="line2d_34"/>
    <g id="text_20">
     <!-- Stra 8 -->
     <g transform="translate(470.627344 49.980469)scale(0.15 -0.15)">
      <use xlink:href="#DejaVuSans-83"/>
      <use x="63.476562" xlink:href="#DejaVuSans-116"/>
      <use x="102.685547" xlink:href="#DejaVuSans-114"/>
      <use x="143.798828" xlink:href="#DejaVuSans-97"/>
      <use x="205.078125" xlink:href="#DejaVuSans-32"/>
      <use x="236.865234" xlink:href="#DejaVuSans-56"/>
     </g>
    </g>
   </g>
  </g>
 </g>
 <defs>
  <clipPath id="p26a2180f77">
   <rect height="298.96" width="478.15" x="51.05" y="66.6"/>
  </clipPath>
 </defs>
</svg>
