<?xml version="1.0" encoding="utf-8" standalone="no"?>
<!DOCTYPE svg PUBLIC "-//W3C//DTD SVG 1.1//EN"
  "http://www.w3.org/Graphics/SVG/1.1/DTD/svg11.dtd">
<!-- Created with matplotlib (https://matplotlib.org/) -->
<svg height="432pt" version="1.1" viewBox="0 0 540 432" width="540pt" xmlns="http://www.w3.org/2000/svg" xmlns:xlink="http://www.w3.org/1999/xlink">
 <defs>
  <style type="text/css">
*{stroke-linecap:butt;stroke-linejoin:round;}
  </style>
 </defs>
 <g id="figure_1">
  <g id="patch_1">
   <path d="M 0 432 
L 540 432 
L 540 0 
L 0 0 
z
" style="fill:#ffffff;"/>
  </g>
  <g id="axes_1">
   <g id="patch_2">
    <path d="M 67.5 384.48 
L 486 384.48 
L 486 51.84 
L 67.5 51.84 
z
" style="fill:#ffffff;"/>
   </g>
   <g id="matplotlib.axis_1">
    <g id="xtick_1">
     <g id="line2d_1">
      <defs>
       <path d="M 0 0 
L 0 3.5 
" id="m74d717ae0b" style="stroke:#000000;stroke-width:0.8;"/>
      </defs>
      <g>
       <use style="stroke:#000000;stroke-width:0.8;" x="86.522727" xlink:href="#m74d717ae0b" y="384.48"/>
      </g>
     </g>
     <g id="text_1">
      <!-- 0 -->
      <defs>
       <path d="M 31.78125 66.40625 
Q 24.171875 66.40625 20.328125 58.90625 
Q 16.5 51.421875 16.5 36.375 
Q 16.5 21.390625 20.328125 13.890625 
Q 24.171875 6.390625 31.78125 6.390625 
Q 39.453125 6.390625 43.28125 13.890625 
Q 47.125 21.390625 47.125 36.375 
Q 47.125 51.421875 43.28125 58.90625 
Q 39.453125 66.40625 31.78125 66.40625 
z
M 31.78125 74.21875 
Q 44.046875 74.21875 50.515625 64.515625 
Q 56.984375 54.828125 56.984375 36.375 
Q 56.984375 17.96875 50.515625 8.265625 
Q 44.046875 -1.421875 31.78125 -1.421875 
Q 19.53125 -1.421875 13.0625 8.265625 
Q 6.59375 17.96875 6.59375 36.375 
Q 6.59375 54.828125 13.0625 64.515625 
Q 19.53125 74.21875 31.78125 74.21875 
z
" id="DejaVuSans-48"/>
      </defs>
      <g transform="translate(83.341477 399.078438)scale(0.1 -0.1)">
       <use xlink:href="#DejaVuSans-48"/>
      </g>
     </g>
    </g>
    <g id="xtick_2">
     <g id="line2d_2">
      <g>
       <use style="stroke:#000000;stroke-width:0.8;" x="162.00974" xlink:href="#m74d717ae0b" y="384.48"/>
      </g>
     </g>
     <g id="text_2">
      <!-- 50 -->
      <defs>
       <path d="M 10.796875 72.90625 
L 49.515625 72.90625 
L 49.515625 64.59375 
L 19.828125 64.59375 
L 19.828125 46.734375 
Q 21.96875 47.46875 24.109375 47.828125 
Q 26.265625 48.1875 28.421875 48.1875 
Q 40.625 48.1875 47.75 41.5 
Q 54.890625 34.8125 54.890625 23.390625 
Q 54.890625 11.625 47.5625 5.09375 
Q 40.234375 -1.421875 26.90625 -1.421875 
Q 22.3125 -1.421875 17.546875 -0.640625 
Q 12.796875 0.140625 7.71875 1.703125 
L 7.71875 11.625 
Q 12.109375 9.234375 16.796875 8.0625 
Q 21.484375 6.890625 26.703125 6.890625 
Q 35.15625 6.890625 40.078125 11.328125 
Q 45.015625 15.765625 45.015625 23.390625 
Q 45.015625 31 40.078125 35.4375 
Q 35.15625 39.890625 26.703125 39.890625 
Q 22.75 39.890625 18.8125 39.015625 
Q 14.890625 38.140625 10.796875 36.28125 
z
" id="DejaVuSans-53"/>
      </defs>
      <g transform="translate(155.64724 399.078438)scale(0.1 -0.1)">
       <use xlink:href="#DejaVuSans-53"/>
       <use x="63.623047" xlink:href="#DejaVuSans-48"/>
      </g>
     </g>
    </g>
    <g id="xtick_3">
     <g id="line2d_3">
      <g>
       <use style="stroke:#000000;stroke-width:0.8;" x="237.496753" xlink:href="#m74d717ae0b" y="384.48"/>
      </g>
     </g>
     <g id="text_3">
      <!-- 100 -->
      <defs>
       <path d="M 12.40625 8.296875 
L 28.515625 8.296875 
L 28.515625 63.921875 
L 10.984375 60.40625 
L 10.984375 69.390625 
L 28.421875 72.90625 
L 38.28125 72.90625 
L 38.28125 8.296875 
L 54.390625 8.296875 
L 54.390625 0 
L 12.40625 0 
z
" id="DejaVuSans-49"/>
      </defs>
      <g transform="translate(227.953003 399.078438)scale(0.1 -0.1)">
       <use xlink:href="#DejaVuSans-49"/>
       <use x="63.623047" xlink:href="#DejaVuSans-48"/>
       <use x="127.246094" xlink:href="#DejaVuSans-48"/>
      </g>
     </g>
    </g>
    <g id="xtick_4">
     <g id="line2d_4">
      <g>
       <use style="stroke:#000000;stroke-width:0.8;" x="312.983766" xlink:href="#m74d717ae0b" y="384.48"/>
      </g>
     </g>
     <g id="text_4">
      <!-- 150 -->
      <g transform="translate(303.440016 399.078438)scale(0.1 -0.1)">
       <use xlink:href="#DejaVuSans-49"/>
       <use x="63.623047" xlink:href="#DejaVuSans-53"/>
       <use x="127.246094" xlink:href="#DejaVuSans-48"/>
      </g>
     </g>
    </g>
    <g id="xtick_5">
     <g id="line2d_5">
      <g>
       <use style="stroke:#000000;stroke-width:0.8;" x="388.470779" xlink:href="#m74d717ae0b" y="384.48"/>
      </g>
     </g>
     <g id="text_5">
      <!-- 200 -->
      <defs>
       <path d="M 19.1875 8.296875 
L 53.609375 8.296875 
L 53.609375 0 
L 7.328125 0 
L 7.328125 8.296875 
Q 12.9375 14.109375 22.625 23.890625 
Q 32.328125 33.6875 34.8125 36.53125 
Q 39.546875 41.84375 41.421875 45.53125 
Q 43.3125 49.21875 43.3125 52.78125 
Q 43.3125 58.59375 39.234375 62.25 
Q 35.15625 65.921875 28.609375 65.921875 
Q 23.96875 65.921875 18.8125 64.3125 
Q 13.671875 62.703125 7.8125 59.421875 
L 7.8125 69.390625 
Q 13.765625 71.78125 18.9375 73 
Q 24.125 74.21875 28.421875 74.21875 
Q 39.75 74.21875 46.484375 68.546875 
Q 53.21875 62.890625 53.21875 53.421875 
Q 53.21875 48.921875 51.53125 44.890625 
Q 49.859375 40.875 45.40625 35.40625 
Q 44.1875 33.984375 37.640625 27.21875 
Q 31.109375 20.453125 19.1875 8.296875 
z
" id="DejaVuSans-50"/>
      </defs>
      <g transform="translate(378.927029 399.078438)scale(0.1 -0.1)">
       <use xlink:href="#DejaVuSans-50"/>
       <use x="63.623047" xlink:href="#DejaVuSans-48"/>
       <use x="127.246094" xlink:href="#DejaVuSans-48"/>
      </g>
     </g>
    </g>
    <g id="xtick_6">
     <g id="line2d_6">
      <g>
       <use style="stroke:#000000;stroke-width:0.8;" x="463.957792" xlink:href="#m74d717ae0b" y="384.48"/>
      </g>
     </g>
     <g id="text_6">
      <!-- 250 -->
      <g transform="translate(454.414042 399.078438)scale(0.1 -0.1)">
       <use xlink:href="#DejaVuSans-50"/>
       <use x="63.623047" xlink:href="#DejaVuSans-53"/>
       <use x="127.246094" xlink:href="#DejaVuSans-48"/>
      </g>
     </g>
    </g>
    <g id="text_7">
     <!-- number of games -->
     <defs>
      <path d="M 54.890625 33.015625 
L 54.890625 0 
L 45.90625 0 
L 45.90625 32.71875 
Q 45.90625 40.484375 42.875 44.328125 
Q 39.84375 48.1875 33.796875 48.1875 
Q 26.515625 48.1875 22.3125 43.546875 
Q 18.109375 38.921875 18.109375 30.90625 
L 18.109375 0 
L 9.078125 0 
L 9.078125 54.6875 
L 18.109375 54.6875 
L 18.109375 46.1875 
Q 21.34375 51.125 25.703125 53.5625 
Q 30.078125 56 35.796875 56 
Q 45.21875 56 50.046875 50.171875 
Q 54.890625 44.34375 54.890625 33.015625 
z
" id="DejaVuSans-110"/>
      <path d="M 8.5 21.578125 
L 8.5 54.6875 
L 17.484375 54.6875 
L 17.484375 21.921875 
Q 17.484375 14.15625 20.5 10.265625 
Q 23.53125 6.390625 29.59375 6.390625 
Q 36.859375 6.390625 41.078125 11.03125 
Q 45.3125 15.671875 45.3125 23.6875 
L 45.3125 54.6875 
L 54.296875 54.6875 
L 54.296875 0 
L 45.3125 0 
L 45.3125 8.40625 
Q 42.046875 3.421875 37.71875 1 
Q 33.40625 -1.421875 27.6875 -1.421875 
Q 18.265625 -1.421875 13.375 4.4375 
Q 8.5 10.296875 8.5 21.578125 
z
M 31.109375 56 
z
" id="DejaVuSans-117"/>
      <path d="M 52 44.1875 
Q 55.375 50.25 60.0625 53.125 
Q 64.75 56 71.09375 56 
Q 79.640625 56 84.28125 50.015625 
Q 88.921875 44.046875 88.921875 33.015625 
L 88.921875 0 
L 79.890625 0 
L 79.890625 32.71875 
Q 79.890625 40.578125 77.09375 44.375 
Q 74.3125 48.1875 68.609375 48.1875 
Q 61.625 48.1875 57.5625 43.546875 
Q 53.515625 38.921875 53.515625 30.90625 
L 53.515625 0 
L 44.484375 0 
L 44.484375 32.71875 
Q 44.484375 40.625 41.703125 44.40625 
Q 38.921875 48.1875 33.109375 48.1875 
Q 26.21875 48.1875 22.15625 43.53125 
Q 18.109375 38.875 18.109375 30.90625 
L 18.109375 0 
L 9.078125 0 
L 9.078125 54.6875 
L 18.109375 54.6875 
L 18.109375 46.1875 
Q 21.1875 51.21875 25.484375 53.609375 
Q 29.78125 56 35.6875 56 
Q 41.65625 56 45.828125 52.96875 
Q 50 49.953125 52 44.1875 
z
" id="DejaVuSans-109"/>
      <path d="M 48.6875 27.296875 
Q 48.6875 37.203125 44.609375 42.84375 
Q 40.53125 48.484375 33.40625 48.484375 
Q 26.265625 48.484375 22.1875 42.84375 
Q 18.109375 37.203125 18.109375 27.296875 
Q 18.109375 17.390625 22.1875 11.75 
Q 26.265625 6.109375 33.40625 6.109375 
Q 40.53125 6.109375 44.609375 11.75 
Q 48.6875 17.390625 48.6875 27.296875 
z
M 18.109375 46.390625 
Q 20.953125 51.265625 25.265625 53.625 
Q 29.59375 56 35.59375 56 
Q 45.5625 56 51.78125 48.09375 
Q 58.015625 40.1875 58.015625 27.296875 
Q 58.015625 14.40625 51.78125 6.484375 
Q 45.5625 -1.421875 35.59375 -1.421875 
Q 29.59375 -1.421875 25.265625 0.953125 
Q 20.953125 3.328125 18.109375 8.203125 
L 18.109375 0 
L 9.078125 0 
L 9.078125 75.984375 
L 18.109375 75.984375 
z
" id="DejaVuSans-98"/>
      <path d="M 56.203125 29.59375 
L 56.203125 25.203125 
L 14.890625 25.203125 
Q 15.484375 15.921875 20.484375 11.0625 
Q 25.484375 6.203125 34.421875 6.203125 
Q 39.59375 6.203125 44.453125 7.46875 
Q 49.3125 8.734375 54.109375 11.28125 
L 54.109375 2.78125 
Q 49.265625 0.734375 44.1875 -0.34375 
Q 39.109375 -1.421875 33.890625 -1.421875 
Q 20.796875 -1.421875 13.15625 6.1875 
Q 5.515625 13.8125 5.515625 26.8125 
Q 5.515625 40.234375 12.765625 48.109375 
Q 20.015625 56 32.328125 56 
Q 43.359375 56 49.78125 48.890625 
Q 56.203125 41.796875 56.203125 29.59375 
z
M 47.21875 32.234375 
Q 47.125 39.59375 43.09375 43.984375 
Q 39.0625 48.390625 32.421875 48.390625 
Q 24.90625 48.390625 20.390625 44.140625 
Q 15.875 39.890625 15.1875 32.171875 
z
" id="DejaVuSans-101"/>
      <path d="M 41.109375 46.296875 
Q 39.59375 47.171875 37.8125 47.578125 
Q 36.03125 48 33.890625 48 
Q 26.265625 48 22.1875 43.046875 
Q 18.109375 38.09375 18.109375 28.8125 
L 18.109375 0 
L 9.078125 0 
L 9.078125 54.6875 
L 18.109375 54.6875 
L 18.109375 46.1875 
Q 20.953125 51.171875 25.484375 53.578125 
Q 30.03125 56 36.53125 56 
Q 37.453125 56 38.578125 55.875 
Q 39.703125 55.765625 41.0625 55.515625 
z
" id="DejaVuSans-114"/>
      <path id="DejaVuSans-32"/>
      <path d="M 30.609375 48.390625 
Q 23.390625 48.390625 19.1875 42.75 
Q 14.984375 37.109375 14.984375 27.296875 
Q 14.984375 17.484375 19.15625 11.84375 
Q 23.34375 6.203125 30.609375 6.203125 
Q 37.796875 6.203125 41.984375 11.859375 
Q 46.1875 17.53125 46.1875 27.296875 
Q 46.1875 37.015625 41.984375 42.703125 
Q 37.796875 48.390625 30.609375 48.390625 
z
M 30.609375 56 
Q 42.328125 56 49.015625 48.375 
Q 55.71875 40.765625 55.71875 27.296875 
Q 55.71875 13.875 49.015625 6.21875 
Q 42.328125 -1.421875 30.609375 -1.421875 
Q 18.84375 -1.421875 12.171875 6.21875 
Q 5.515625 13.875 5.515625 27.296875 
Q 5.515625 40.765625 12.171875 48.375 
Q 18.84375 56 30.609375 56 
z
" id="DejaVuSans-111"/>
      <path d="M 37.109375 75.984375 
L 37.109375 68.5 
L 28.515625 68.5 
Q 23.6875 68.5 21.796875 66.546875 
Q 19.921875 64.59375 19.921875 59.515625 
L 19.921875 54.6875 
L 34.71875 54.6875 
L 34.71875 47.703125 
L 19.921875 47.703125 
L 19.921875 0 
L 10.890625 0 
L 10.890625 47.703125 
L 2.296875 47.703125 
L 2.296875 54.6875 
L 10.890625 54.6875 
L 10.890625 58.5 
Q 10.890625 67.625 15.140625 71.796875 
Q 19.390625 75.984375 28.609375 75.984375 
z
" id="DejaVuSans-102"/>
      <path d="M 45.40625 27.984375 
Q 45.40625 37.75 41.375 43.109375 
Q 37.359375 48.484375 30.078125 48.484375 
Q 22.859375 48.484375 18.828125 43.109375 
Q 14.796875 37.75 14.796875 27.984375 
Q 14.796875 18.265625 18.828125 12.890625 
Q 22.859375 7.515625 30.078125 7.515625 
Q 37.359375 7.515625 41.375 12.890625 
Q 45.40625 18.265625 45.40625 27.984375 
z
M 54.390625 6.78125 
Q 54.390625 -7.171875 48.1875 -13.984375 
Q 42 -20.796875 29.203125 -20.796875 
Q 24.46875 -20.796875 20.265625 -20.09375 
Q 16.0625 -19.390625 12.109375 -17.921875 
L 12.109375 -9.1875 
Q 16.0625 -11.328125 19.921875 -12.34375 
Q 23.78125 -13.375 27.78125 -13.375 
Q 36.625 -13.375 41.015625 -8.765625 
Q 45.40625 -4.15625 45.40625 5.171875 
L 45.40625 9.625 
Q 42.625 4.78125 38.28125 2.390625 
Q 33.9375 0 27.875 0 
Q 17.828125 0 11.671875 7.65625 
Q 5.515625 15.328125 5.515625 27.984375 
Q 5.515625 40.671875 11.671875 48.328125 
Q 17.828125 56 27.875 56 
Q 33.9375 56 38.28125 53.609375 
Q 42.625 51.21875 45.40625 46.390625 
L 45.40625 54.6875 
L 54.390625 54.6875 
z
" id="DejaVuSans-103"/>
      <path d="M 34.28125 27.484375 
Q 23.390625 27.484375 19.1875 25 
Q 14.984375 22.515625 14.984375 16.5 
Q 14.984375 11.71875 18.140625 8.90625 
Q 21.296875 6.109375 26.703125 6.109375 
Q 34.1875 6.109375 38.703125 11.40625 
Q 43.21875 16.703125 43.21875 25.484375 
L 43.21875 27.484375 
z
M 52.203125 31.203125 
L 52.203125 0 
L 43.21875 0 
L 43.21875 8.296875 
Q 40.140625 3.328125 35.546875 0.953125 
Q 30.953125 -1.421875 24.3125 -1.421875 
Q 15.921875 -1.421875 10.953125 3.296875 
Q 6 8.015625 6 15.921875 
Q 6 25.140625 12.171875 29.828125 
Q 18.359375 34.515625 30.609375 34.515625 
L 43.21875 34.515625 
L 43.21875 35.40625 
Q 43.21875 41.609375 39.140625 45 
Q 35.0625 48.390625 27.6875 48.390625 
Q 23 48.390625 18.546875 47.265625 
Q 14.109375 46.140625 10.015625 43.890625 
L 10.015625 52.203125 
Q 14.9375 54.109375 19.578125 55.046875 
Q 24.21875 56 28.609375 56 
Q 40.484375 56 46.34375 49.84375 
Q 52.203125 43.703125 52.203125 31.203125 
z
" id="DejaVuSans-97"/>
      <path d="M 44.28125 53.078125 
L 44.28125 44.578125 
Q 40.484375 46.53125 36.375 47.5 
Q 32.28125 48.484375 27.875 48.484375 
Q 21.1875 48.484375 17.84375 46.4375 
Q 14.5 44.390625 14.5 40.28125 
Q 14.5 37.15625 16.890625 35.375 
Q 19.28125 33.59375 26.515625 31.984375 
L 29.59375 31.296875 
Q 39.15625 29.25 43.1875 25.515625 
Q 47.21875 21.78125 47.21875 15.09375 
Q 47.21875 7.46875 41.1875 3.015625 
Q 35.15625 -1.421875 24.609375 -1.421875 
Q 20.21875 -1.421875 15.453125 -0.5625 
Q 10.6875 0.296875 5.421875 2 
L 5.421875 11.28125 
Q 10.40625 8.6875 15.234375 7.390625 
Q 20.0625 6.109375 24.8125 6.109375 
Q 31.15625 6.109375 34.5625 8.28125 
Q 37.984375 10.453125 37.984375 14.40625 
Q 37.984375 18.0625 35.515625 20.015625 
Q 33.0625 21.96875 24.703125 23.78125 
L 21.578125 24.515625 
Q 13.234375 26.265625 9.515625 29.90625 
Q 5.8125 33.546875 5.8125 39.890625 
Q 5.8125 47.609375 11.28125 51.796875 
Q 16.75 56 26.8125 56 
Q 31.78125 56 36.171875 55.265625 
Q 40.578125 54.546875 44.28125 53.078125 
z
" id="DejaVuSans-115"/>
     </defs>
     <g transform="translate(165.996094 424.154219)scale(0.25 -0.25)">
      <use xlink:href="#DejaVuSans-110"/>
      <use x="63.378906" xlink:href="#DejaVuSans-117"/>
      <use x="126.757812" xlink:href="#DejaVuSans-109"/>
      <use x="224.169922" xlink:href="#DejaVuSans-98"/>
      <use x="287.646484" xlink:href="#DejaVuSans-101"/>
      <use x="349.169922" xlink:href="#DejaVuSans-114"/>
      <use x="390.283203" xlink:href="#DejaVuSans-32"/>
      <use x="422.070312" xlink:href="#DejaVuSans-111"/>
      <use x="483.251953" xlink:href="#DejaVuSans-102"/>
      <use x="518.457031" xlink:href="#DejaVuSans-32"/>
      <use x="550.244141" xlink:href="#DejaVuSans-103"/>
      <use x="613.720703" xlink:href="#DejaVuSans-97"/>
      <use x="675" xlink:href="#DejaVuSans-109"/>
      <use x="772.412109" xlink:href="#DejaVuSans-101"/>
      <use x="833.935547" xlink:href="#DejaVuSans-115"/>
     </g>
    </g>
   </g>
   <g id="matplotlib.axis_2">
    <g id="ytick_1">
     <g id="line2d_7">
      <defs>
       <path d="M 0 0 
L -3.5 0 
" id="m3d33f46573" style="stroke:#000000;stroke-width:0.8;"/>
      </defs>
      <g>
       <use style="stroke:#000000;stroke-width:0.8;" x="67.5" xlink:href="#m3d33f46573" y="369.36"/>
      </g>
     </g>
     <g id="text_8">
      <!-- 0.0 -->
      <defs>
       <path d="M 10.6875 12.40625 
L 21 12.40625 
L 21 0 
L 10.6875 0 
z
" id="DejaVuSans-46"/>
      </defs>
      <g transform="translate(44.596875 373.159219)scale(0.1 -0.1)">
       <use xlink:href="#DejaVuSans-48"/>
       <use x="63.623047" xlink:href="#DejaVuSans-46"/>
       <use x="95.410156" xlink:href="#DejaVuSans-48"/>
      </g>
     </g>
    </g>
    <g id="ytick_2">
     <g id="line2d_8">
      <g>
       <use style="stroke:#000000;stroke-width:0.8;" x="67.5" xlink:href="#m3d33f46573" y="308.88"/>
      </g>
     </g>
     <g id="text_9">
      <!-- 0.2 -->
      <g transform="translate(44.596875 312.679219)scale(0.1 -0.1)">
       <use xlink:href="#DejaVuSans-48"/>
       <use x="63.623047" xlink:href="#DejaVuSans-46"/>
       <use x="95.410156" xlink:href="#DejaVuSans-50"/>
      </g>
     </g>
    </g>
    <g id="ytick_3">
     <g id="line2d_9">
      <g>
       <use style="stroke:#000000;stroke-width:0.8;" x="67.5" xlink:href="#m3d33f46573" y="248.4"/>
      </g>
     </g>
     <g id="text_10">
      <!-- 0.4 -->
      <defs>
       <path d="M 37.796875 64.3125 
L 12.890625 25.390625 
L 37.796875 25.390625 
z
M 35.203125 72.90625 
L 47.609375 72.90625 
L 47.609375 25.390625 
L 58.015625 25.390625 
L 58.015625 17.1875 
L 47.609375 17.1875 
L 47.609375 0 
L 37.796875 0 
L 37.796875 17.1875 
L 4.890625 17.1875 
L 4.890625 26.703125 
z
" id="DejaVuSans-52"/>
      </defs>
      <g transform="translate(44.596875 252.199219)scale(0.1 -0.1)">
       <use xlink:href="#DejaVuSans-48"/>
       <use x="63.623047" xlink:href="#DejaVuSans-46"/>
       <use x="95.410156" xlink:href="#DejaVuSans-52"/>
      </g>
     </g>
    </g>
    <g id="ytick_4">
     <g id="line2d_10">
      <g>
       <use style="stroke:#000000;stroke-width:0.8;" x="67.5" xlink:href="#m3d33f46573" y="187.92"/>
      </g>
     </g>
     <g id="text_11">
      <!-- 0.6 -->
      <defs>
       <path d="M 33.015625 40.375 
Q 26.375 40.375 22.484375 35.828125 
Q 18.609375 31.296875 18.609375 23.390625 
Q 18.609375 15.53125 22.484375 10.953125 
Q 26.375 6.390625 33.015625 6.390625 
Q 39.65625 6.390625 43.53125 10.953125 
Q 47.40625 15.53125 47.40625 23.390625 
Q 47.40625 31.296875 43.53125 35.828125 
Q 39.65625 40.375 33.015625 40.375 
z
M 52.59375 71.296875 
L 52.59375 62.3125 
Q 48.875 64.0625 45.09375 64.984375 
Q 41.3125 65.921875 37.59375 65.921875 
Q 27.828125 65.921875 22.671875 59.328125 
Q 17.53125 52.734375 16.796875 39.40625 
Q 19.671875 43.65625 24.015625 45.921875 
Q 28.375 48.1875 33.59375 48.1875 
Q 44.578125 48.1875 50.953125 41.515625 
Q 57.328125 34.859375 57.328125 23.390625 
Q 57.328125 12.15625 50.6875 5.359375 
Q 44.046875 -1.421875 33.015625 -1.421875 
Q 20.359375 -1.421875 13.671875 8.265625 
Q 6.984375 17.96875 6.984375 36.375 
Q 6.984375 53.65625 15.1875 63.9375 
Q 23.390625 74.21875 37.203125 74.21875 
Q 40.921875 74.21875 44.703125 73.484375 
Q 48.484375 72.75 52.59375 71.296875 
z
" id="DejaVuSans-54"/>
      </defs>
      <g transform="translate(44.596875 191.719219)scale(0.1 -0.1)">
       <use xlink:href="#DejaVuSans-48"/>
       <use x="63.623047" xlink:href="#DejaVuSans-46"/>
       <use x="95.410156" xlink:href="#DejaVuSans-54"/>
      </g>
     </g>
    </g>
    <g id="ytick_5">
     <g id="line2d_11">
      <g>
       <use style="stroke:#000000;stroke-width:0.8;" x="67.5" xlink:href="#m3d33f46573" y="127.44"/>
      </g>
     </g>
     <g id="text_12">
      <!-- 0.8 -->
      <defs>
       <path d="M 31.78125 34.625 
Q 24.75 34.625 20.71875 30.859375 
Q 16.703125 27.09375 16.703125 20.515625 
Q 16.703125 13.921875 20.71875 10.15625 
Q 24.75 6.390625 31.78125 6.390625 
Q 38.8125 6.390625 42.859375 10.171875 
Q 46.921875 13.96875 46.921875 20.515625 
Q 46.921875 27.09375 42.890625 30.859375 
Q 38.875 34.625 31.78125 34.625 
z
M 21.921875 38.8125 
Q 15.578125 40.375 12.03125 44.71875 
Q 8.5 49.078125 8.5 55.328125 
Q 8.5 64.0625 14.71875 69.140625 
Q 20.953125 74.21875 31.78125 74.21875 
Q 42.671875 74.21875 48.875 69.140625 
Q 55.078125 64.0625 55.078125 55.328125 
Q 55.078125 49.078125 51.53125 44.71875 
Q 48 40.375 41.703125 38.8125 
Q 48.828125 37.15625 52.796875 32.3125 
Q 56.78125 27.484375 56.78125 20.515625 
Q 56.78125 9.90625 50.3125 4.234375 
Q 43.84375 -1.421875 31.78125 -1.421875 
Q 19.734375 -1.421875 13.25 4.234375 
Q 6.78125 9.90625 6.78125 20.515625 
Q 6.78125 27.484375 10.78125 32.3125 
Q 14.796875 37.15625 21.921875 38.8125 
z
M 18.3125 54.390625 
Q 18.3125 48.734375 21.84375 45.5625 
Q 25.390625 42.390625 31.78125 42.390625 
Q 38.140625 42.390625 41.71875 45.5625 
Q 45.3125 48.734375 45.3125 54.390625 
Q 45.3125 60.0625 41.71875 63.234375 
Q 38.140625 66.40625 31.78125 66.40625 
Q 25.390625 66.40625 21.84375 63.234375 
Q 18.3125 60.0625 18.3125 54.390625 
z
" id="DejaVuSans-56"/>
      </defs>
      <g transform="translate(44.596875 131.239219)scale(0.1 -0.1)">
       <use xlink:href="#DejaVuSans-48"/>
       <use x="63.623047" xlink:href="#DejaVuSans-46"/>
       <use x="95.410156" xlink:href="#DejaVuSans-56"/>
      </g>
     </g>
    </g>
    <g id="ytick_6">
     <g id="line2d_12">
      <g>
       <use style="stroke:#000000;stroke-width:0.8;" x="67.5" xlink:href="#m3d33f46573" y="66.96"/>
      </g>
     </g>
     <g id="text_13">
      <!-- 1.0 -->
      <g transform="translate(44.596875 70.759219)scale(0.1 -0.1)">
       <use xlink:href="#DejaVuSans-49"/>
       <use x="63.623047" xlink:href="#DejaVuSans-46"/>
       <use x="95.410156" xlink:href="#DejaVuSans-48"/>
      </g>
     </g>
    </g>
    <g id="text_14">
     <!-- Att's impact in DD-PI -->
     <defs>
      <path d="M 34.1875 63.1875 
L 20.796875 26.90625 
L 47.609375 26.90625 
z
M 28.609375 72.90625 
L 39.796875 72.90625 
L 67.578125 0 
L 57.328125 0 
L 50.6875 18.703125 
L 17.828125 18.703125 
L 11.1875 0 
L 0.78125 0 
z
" id="DejaVuSans-65"/>
      <path d="M 18.3125 70.21875 
L 18.3125 54.6875 
L 36.8125 54.6875 
L 36.8125 47.703125 
L 18.3125 47.703125 
L 18.3125 18.015625 
Q 18.3125 11.328125 20.140625 9.421875 
Q 21.96875 7.515625 27.59375 7.515625 
L 36.8125 7.515625 
L 36.8125 0 
L 27.59375 0 
Q 17.1875 0 13.234375 3.875 
Q 9.28125 7.765625 9.28125 18.015625 
L 9.28125 47.703125 
L 2.6875 47.703125 
L 2.6875 54.6875 
L 9.28125 54.6875 
L 9.28125 70.21875 
z
" id="DejaVuSans-116"/>
      <path d="M 17.921875 72.90625 
L 17.921875 45.796875 
L 9.625 45.796875 
L 9.625 72.90625 
z
" id="DejaVuSans-39"/>
      <path d="M 9.421875 54.6875 
L 18.40625 54.6875 
L 18.40625 0 
L 9.421875 0 
z
M 9.421875 75.984375 
L 18.40625 75.984375 
L 18.40625 64.59375 
L 9.421875 64.59375 
z
" id="DejaVuSans-105"/>
      <path d="M 18.109375 8.203125 
L 18.109375 -20.796875 
L 9.078125 -20.796875 
L 9.078125 54.6875 
L 18.109375 54.6875 
L 18.109375 46.390625 
Q 20.953125 51.265625 25.265625 53.625 
Q 29.59375 56 35.59375 56 
Q 45.5625 56 51.78125 48.09375 
Q 58.015625 40.1875 58.015625 27.296875 
Q 58.015625 14.40625 51.78125 6.484375 
Q 45.5625 -1.421875 35.59375 -1.421875 
Q 29.59375 -1.421875 25.265625 0.953125 
Q 20.953125 3.328125 18.109375 8.203125 
z
M 48.6875 27.296875 
Q 48.6875 37.203125 44.609375 42.84375 
Q 40.53125 48.484375 33.40625 48.484375 
Q 26.265625 48.484375 22.1875 42.84375 
Q 18.109375 37.203125 18.109375 27.296875 
Q 18.109375 17.390625 22.1875 11.75 
Q 26.265625 6.109375 33.40625 6.109375 
Q 40.53125 6.109375 44.609375 11.75 
Q 48.6875 17.390625 48.6875 27.296875 
z
" id="DejaVuSans-112"/>
      <path d="M 48.78125 52.59375 
L 48.78125 44.1875 
Q 44.96875 46.296875 41.140625 47.34375 
Q 37.3125 48.390625 33.40625 48.390625 
Q 24.65625 48.390625 19.8125 42.84375 
Q 14.984375 37.3125 14.984375 27.296875 
Q 14.984375 17.28125 19.8125 11.734375 
Q 24.65625 6.203125 33.40625 6.203125 
Q 37.3125 6.203125 41.140625 7.25 
Q 44.96875 8.296875 48.78125 10.40625 
L 48.78125 2.09375 
Q 45.015625 0.34375 40.984375 -0.53125 
Q 36.96875 -1.421875 32.421875 -1.421875 
Q 20.0625 -1.421875 12.78125 6.34375 
Q 5.515625 14.109375 5.515625 27.296875 
Q 5.515625 40.671875 12.859375 48.328125 
Q 20.21875 56 33.015625 56 
Q 37.15625 56 41.109375 55.140625 
Q 45.0625 54.296875 48.78125 52.59375 
z
" id="DejaVuSans-99"/>
      <path d="M 19.671875 64.796875 
L 19.671875 8.109375 
L 31.59375 8.109375 
Q 46.6875 8.109375 53.6875 14.9375 
Q 60.6875 21.78125 60.6875 36.53125 
Q 60.6875 51.171875 53.6875 57.984375 
Q 46.6875 64.796875 31.59375 64.796875 
z
M 9.8125 72.90625 
L 30.078125 72.90625 
Q 51.265625 72.90625 61.171875 64.09375 
Q 71.09375 55.28125 71.09375 36.53125 
Q 71.09375 17.671875 61.125 8.828125 
Q 51.171875 0 30.078125 0 
L 9.8125 0 
z
" id="DejaVuSans-68"/>
      <path d="M 4.890625 31.390625 
L 31.203125 31.390625 
L 31.203125 23.390625 
L 4.890625 23.390625 
z
" id="DejaVuSans-45"/>
      <path d="M 19.671875 64.796875 
L 19.671875 37.40625 
L 32.078125 37.40625 
Q 38.96875 37.40625 42.71875 40.96875 
Q 46.484375 44.53125 46.484375 51.125 
Q 46.484375 57.671875 42.71875 61.234375 
Q 38.96875 64.796875 32.078125 64.796875 
z
M 9.8125 72.90625 
L 32.078125 72.90625 
Q 44.34375 72.90625 50.609375 67.359375 
Q 56.890625 61.8125 56.890625 51.125 
Q 56.890625 40.328125 50.609375 34.8125 
Q 44.34375 29.296875 32.078125 29.296875 
L 19.671875 29.296875 
L 19.671875 0 
L 9.8125 0 
z
" id="DejaVuSans-80"/>
      <path d="M 9.8125 72.90625 
L 19.671875 72.90625 
L 19.671875 0 
L 9.8125 0 
z
" id="DejaVuSans-73"/>
     </defs>
     <g transform="translate(35.397656 347.771328)rotate(-90)scale(0.25 -0.25)">
      <use xlink:href="#DejaVuSans-65"/>
      <use x="68.392578" xlink:href="#DejaVuSans-116"/>
      <use x="107.601562" xlink:href="#DejaVuSans-116"/>
      <use x="146.810547" xlink:href="#DejaVuSans-39"/>
      <use x="174.300781" xlink:href="#DejaVuSans-115"/>
      <use x="226.400391" xlink:href="#DejaVuSans-32"/>
      <use x="258.1875" xlink:href="#DejaVuSans-105"/>
      <use x="285.970703" xlink:href="#DejaVuSans-109"/>
      <use x="383.382812" xlink:href="#DejaVuSans-112"/>
      <use x="446.859375" xlink:href="#DejaVuSans-97"/>
      <use x="508.138672" xlink:href="#DejaVuSans-99"/>
      <use x="563.119141" xlink:href="#DejaVuSans-116"/>
      <use x="602.328125" xlink:href="#DejaVuSans-32"/>
      <use x="634.115234" xlink:href="#DejaVuSans-105"/>
      <use x="661.898438" xlink:href="#DejaVuSans-110"/>
      <use x="725.277344" xlink:href="#DejaVuSans-32"/>
      <use x="757.064453" xlink:href="#DejaVuSans-68"/>
      <use x="834.066406" xlink:href="#DejaVuSans-68"/>
      <use x="911.068359" xlink:href="#DejaVuSans-45"/>
      <use x="947.152344" xlink:href="#DejaVuSans-80"/>
      <use x="1007.455078" xlink:href="#DejaVuSans-73"/>
     </g>
    </g>
   </g>
   <g id="line2d_13">
    <path clip-path="url(#p6b5c48541d)" d="M 86.522727 369.36 
L 466.977273 369.36 
L 466.977273 369.36 
" style="fill:none;stroke:#1f77b4;stroke-linecap:square;stroke-width:1.5;"/>
   </g>
   <g id="line2d_14">
    <path clip-path="url(#p6b5c48541d)" d="M 86.522727 66.96 
L 88.032468 127.363636 
L 89.542208 172.717222 
L 91.051948 202.954473 
L 92.561688 224.078793 
L 95.581169 248.252465 
L 97.090909 245.238545 
L 98.600649 266.394327 
L 100.11039 260.347855 
L 101.62013 248.248189 
L 103.12987 262.318237 
L 104.63961 255.026182 
L 106.149351 264.287065 
L 107.659091 271.584955 
L 109.168831 274.885208 
L 110.678571 250.906055 
L 112.188312 290.324895 
L 113.698052 292.737566 
L 115.207792 296.039426 
L 116.717532 291.894691 
L 118.227273 307.934105 
L 119.737013 299.094652 
L 121.246753 288.073703 
L 122.756494 301.936377 
L 124.266234 302.364694 
L 125.775974 272.441716 
L 127.285714 299.661877 
L 128.795455 313.775877 
L 130.305195 261.213818 
L 131.814935 284.661947 
L 133.324675 295.863934 
L 134.834416 303.069205 
L 136.344156 300.928328 
L 137.853896 293.589455 
L 139.363636 307.725485 
L 140.873377 315.165273 
L 142.383117 325.999636 
L 143.892857 290.863273 
L 145.402597 321.720471 
L 146.912338 318.823182 
L 148.422078 300.513322 
L 149.931818 300.439736 
L 151.441558 333.187636 
L 152.951299 304.465455 
L 154.461039 346.488327 
L 155.970779 283.937678 
L 157.480519 334.683927 
L 158.99026 332.520331 
L 160.5 312.471 
L 162.00974 330.26773 
L 163.519481 359.108945 
L 165.029221 315.278182 
L 166.538961 335.701172 
L 168.048701 335.614061 
L 169.558442 358.092121 
L 171.068182 358.048 
L 172.577922 324.416323 
L 174.087662 346.89099 
L 175.597403 358.069495 
L 177.107143 346.799354 
L 178.616883 334.380755 
L 180.126623 345.97628 
L 181.636364 369.206098 
L 183.146104 333.025571 
L 184.655844 331.423818 
L 186.165584 356.019605 
L 187.675325 356.156395 
L 189.185065 356.096632 
L 190.694805 273.009917 
L 192.204545 305.598775 
L 193.714286 353.294699 
L 195.224026 369.160651 
L 196.733766 318.859879 
L 198.243506 285.259879 
L 199.753247 333.632599 
L 201.262987 369.207273 
L 202.772727 312.514909 
L 204.282468 293.719909 
L 205.792208 331.430182 
L 207.301948 293.618727 
L 208.811688 369.245455 
L 210.321429 293.718 
L 211.831169 308.621382 
L 213.340909 326.122909 
L 214.850649 261.316364 
L 216.36039 286.787306 
L 217.87013 341.721917 
L 219.37987 341.741355 
L 220.88961 314.280992 
L 222.399351 314.278215 
L 225.418831 259.357488 
L 226.928571 341.708033 
L 228.438312 369.137851 
L 231.457792 259.396364 
L 232.967532 231.805488 
L 234.477273 308.818909 
L 237.496753 308.754764 
L 240.516234 248.311418 
L 242.025974 248.338909 
L 243.535714 338.979491 
L 245.045455 339.025309 
L 246.555195 248.360291 
L 248.064935 248.311418 
L 249.574675 338.988655 
L 251.084416 278.499491 
L 252.594156 308.843345 
L 254.103896 302.146424 
L 255.613636 218.121818 
L 257.123377 326.042182 
L 258.633117 325.963636 
L 260.142857 326.068364 
L 261.652597 282.96 
L 263.162338 369.342545 
L 264.672078 369.194182 
L 267.691558 282.890182 
L 269.201299 167.76 
L 270.711039 318.853091 
L 272.220779 369.263273 
L 273.730519 369.161455 
L 276.75 268.371636 
L 278.25974 268.56 
L 279.769481 268.56 
L 281.279221 369.077455 
L 282.788961 293.76 
L 284.298701 293.599636 
L 285.808442 369.36 
L 287.318182 369.36 
L 290.337662 218.16 
L 293.357143 369.36 
L 294.866883 369.36 
L 296.376623 369.077455 
L 297.886364 293.614909 
L 299.396104 268.56 
L 300.905844 369.36 
L 302.415584 369.36 
L 303.925325 369.130909 
L 305.435065 369.069818 
L 306.944805 369.36 
L 308.454545 369.36 
L 309.964286 218.16 
L 311.474026 369.130909 
L 312.983766 369.069818 
L 314.493506 369.36 
L 317.512987 369.36 
L 319.022727 369.130909 
L 320.532468 217.869818 
L 322.042208 369.36 
L 325.061688 369.36 
L 326.571429 369.130909 
L 328.081169 369.069818 
L 329.590909 369.36 
L 331.100649 218.16 
L 332.61039 369.36 
L 334.12013 369.130909 
L 335.62987 369.069818 
L 337.13961 369.36 
L 340.159091 369.36 
L 341.668831 217.930909 
L 343.178571 369.069818 
L 344.688312 369.115636 
L 346.198052 369.36 
L 347.707792 369.36 
L 349.217532 369.130909 
L 350.727273 369.069818 
L 352.237013 217.915636 
L 353.746753 369.36 
L 355.256494 369.36 
L 356.766234 369.130909 
L 359.785714 369.115636 
L 361.295455 369.36 
L 362.805195 218.16 
L 364.314935 369.130909 
L 367.334416 369.115636 
L 368.844156 369.36 
L 370.353896 369.36 
L 371.863636 369.130909 
L 373.373377 369.069818 
L 374.883117 218.16 
L 376.392857 369.115636 
L 377.902597 369.36 
L 379.412338 369.36 
L 380.922078 369.130909 
L 382.431818 369.069818 
L 383.941558 218.16 
L 385.451299 369.115636 
L 386.961039 369.36 
L 388.470779 369.36 
L 389.980519 369.130909 
L 391.49026 369.069818 
L 393 218.16 
L 394.50974 369.36 
L 417.155844 369.36 
L 418.665584 66.96 
L 420.175325 369.36 
L 429.233766 369.36 
L 430.743506 66.96 
L 432.253247 369.36 
L 441.311688 369.36 
L 442.821429 66.96 
L 444.331169 369.36 
L 453.38961 369.36 
L 454.899351 66.96 
L 456.409091 369.36 
L 465.467532 369.36 
L 466.977273 66.96 
L 466.977273 66.96 
" style="fill:none;stroke:#ff7f0e;stroke-dasharray:5.55,2.4;stroke-dashoffset:0;stroke-width:1.5;"/>
   </g>
   <g id="line2d_15">
    <path clip-path="url(#p6b5c48541d)" d="M 86.522727 66.96 
L 88.032468 66.96 
L 91.051948 79.056 
L 92.561688 82.08 
L 94.071429 88.128 
L 95.581169 85.099113 
L 97.090909 109.296 
L 98.600649 112.295564 
L 100.11039 118.343564 
L 101.62013 130.439564 
L 103.12987 118.86259 
L 104.63961 116.326442 
L 106.149351 131.745039 
L 107.659091 114.187091 
L 109.168831 131.98963 
L 110.678571 116.259036 
L 112.188312 119.530719 
L 113.698052 116.806154 
L 115.207792 143.369958 
L 116.717532 124.08 
L 118.227273 146.157091 
L 119.737013 129.632568 
L 121.246753 144.400922 
L 122.756494 149.054114 
L 124.266234 145.475692 
L 125.775974 123.377862 
L 127.285714 156.808216 
L 128.795455 160.614503 
L 130.305195 110.142545 
L 131.814935 146.937882 
L 133.324675 158.561641 
L 134.834416 109.455886 
L 136.344156 130.307331 
L 137.853896 177.768218 
L 139.363636 133.590508 
L 140.873377 147.876 
L 142.383117 158.726182 
L 143.892857 139.734545 
L 145.402597 155.808941 
L 146.912338 186.618 
L 148.422078 115.026744 
L 149.931818 163.001851 
L 151.441558 196.493091 
L 152.951299 146.115636 
L 154.461039 172.6152 
L 155.970779 175.383832 
L 157.480519 161.921455 
L 158.99026 176.718149 
L 160.5 189.774682 
L 162.00974 154.53776 
L 163.519481 218.010327 
L 165.029221 142.56 
L 166.538961 156.459313 
L 168.048701 212.38804 
L 169.558442 178.96 
L 171.068182 134.059313 
L 172.577922 190.044606 
L 174.087662 178.894384 
L 175.597403 201.259313 
L 177.107143 190.042343 
L 178.616883 136.735217 
L 180.126623 194.725762 
L 181.636364 218.118881 
L 183.146104 139.523782 
L 184.655844 192.836545 
L 186.165584 237.835257 
L 187.675325 172.130656 
L 189.185065 198.204522 
L 190.694805 149.39524 
L 192.204545 130.623158 
L 193.714286 210.033301 
L 195.224026 226.07288 
L 196.733766 134.14303 
L 198.243506 150.781818 
L 199.753247 173.655273 
L 201.262987 173.689412 
L 202.772727 199.059545 
L 204.282468 142.523727 
L 205.792208 180.36 
L 207.301948 123.513 
L 208.811688 199.170273 
L 210.321429 142.56 
L 211.831169 187.7632 
L 213.340909 110.118545 
L 214.850649 131.698909 
L 216.36039 121.728 
L 217.87013 204.220165 
L 222.399351 121.941818 
L 223.909091 149.321653 
L 225.418831 121.800198 
L 226.928571 204.336793 
L 228.438312 259.271405 
L 229.948052 149.374413 
L 231.457792 66.96 
L 232.967532 176.782017 
L 234.477273 157.594473 
L 237.496753 217.9584 
L 239.006494 127.44 
L 240.516234 97.044218 
L 242.025974 187.834473 
L 243.535714 187.92 
L 245.045455 157.615855 
L 248.064935 157.524218 
L 249.574675 127.354473 
L 251.084416 218.16 
L 252.594156 127.375855 
L 254.103896 134.16 
L 255.613636 180.188182 
L 257.123377 153.36 
L 258.633117 153.268364 
L 260.142857 110.16 
L 261.652597 110.16 
L 263.162338 239.668364 
L 264.672078 196.56 
L 266.181818 110.16 
L 267.691558 66.96 
L 269.201299 66.96 
L 270.711039 117.36 
L 272.220779 268.56 
L 273.730519 218.16 
L 275.24026 66.96 
L 276.75 117.36 
L 278.25974 66.96 
L 279.769481 117.36 
L 281.279221 142.56 
L 282.788961 142.56 
L 284.298701 218.16 
L 285.808442 66.96 
L 287.318182 142.56 
L 288.827922 142.56 
L 290.337662 66.96 
L 291.847403 142.56 
L 293.357143 142.56 
L 294.866883 218.16 
L 297.886364 66.96 
L 300.905844 66.96 
L 303.925325 369.36 
L 306.944805 66.96 
L 308.454545 66.96 
L 309.964286 218.16 
L 311.474026 218.16 
L 312.983766 66.96 
L 314.493506 218.16 
L 319.022727 218.16 
L 320.532468 66.96 
L 323.551948 66.96 
L 325.061688 369.36 
L 326.571429 369.36 
L 329.590909 66.96 
L 331.100649 66.96 
L 332.61039 218.16 
L 334.12013 218.16 
L 335.62987 369.36 
L 338.649351 66.96 
L 340.159091 218.16 
L 343.178571 218.16 
L 344.688312 66.96 
L 347.707792 369.36 
L 349.217532 218.16 
L 350.727273 218.16 
L 352.237013 66.96 
L 353.746753 66.96 
L 356.766234 369.36 
L 358.275974 369.36 
L 359.785714 66.96 
L 361.295455 66.96 
L 362.805195 218.16 
L 373.373377 218.16 
L 374.883117 66.96 
L 376.392857 218.16 
L 377.902597 218.16 
L 379.412338 369.36 
L 380.922078 218.16 
L 382.431818 218.16 
L 383.941558 66.96 
L 385.451299 218.16 
L 386.961039 66.96 
L 388.470779 369.36 
L 389.980519 369.36 
L 393 66.96 
L 397.529221 66.96 
L 399.038961 369.36 
L 400.548701 369.36 
L 402.058442 66.96 
L 408.097403 66.96 
L 409.607143 369.36 
L 411.116883 369.36 
L 412.626623 66.96 
L 420.175325 66.96 
L 421.685065 369.36 
L 423.194805 369.36 
L 424.704545 66.96 
L 432.253247 66.96 
L 433.762987 369.36 
L 435.272727 369.36 
L 436.782468 66.96 
L 444.331169 66.96 
L 445.840909 369.36 
L 447.350649 369.36 
L 448.86039 66.96 
L 456.409091 66.96 
L 457.918831 369.36 
L 459.428571 369.36 
L 460.938312 66.96 
L 466.977273 66.96 
L 466.977273 66.96 
" style="fill:none;stroke:#2ca02c;stroke-dasharray:9.6,2.4,1.5,2.4;stroke-dashoffset:0;stroke-width:1.5;"/>
   </g>
   <g id="line2d_16">
    <path clip-path="url(#p6b5c48541d)" d="M 86.522727 66.96 
L 89.542208 66.96 
L 91.051948 69.984 
L 92.561688 85.085062 
L 94.071429 97.173731 
L 95.581169 106.240233 
L 97.090909 109.264233 
L 98.600649 106.251229 
L 100.11039 115.32048 
L 101.62013 118.353033 
L 103.12987 118.86259 
L 104.63961 116.308987 
L 106.149351 131.714526 
L 107.659091 120.491864 
L 109.168831 122.197677 
L 110.678571 116.24745 
L 112.188312 129.373992 
L 113.698052 123.430825 
L 115.207792 149.978553 
L 116.717532 127.421333 
L 118.227273 149.711273 
L 119.737013 122.271858 
L 121.246753 151.738576 
L 122.756494 122.94567 
L 124.266234 141.531769 
L 125.775974 123.405964 
L 127.285714 136.407198 
L 128.795455 139.326914 
L 130.305195 127.422982 
L 131.814935 129.193668 
L 133.324675 149.37585 
L 134.834416 128.371159 
L 136.344156 154.71315 
L 137.853896 167.716727 
L 139.363636 133.544486 
L 140.873377 164.127273 
L 142.383117 147.924 
L 143.892857 139.736808 
L 145.402597 179.59307 
L 146.912338 174.013545 
L 148.422078 115.056595 
L 149.931818 190.637851 
L 151.441558 182.121455 
L 152.951299 131.756364 
L 154.461039 187.881818 
L 155.970779 152.23351 
L 157.480519 153.337309 
L 158.99026 186.07524 
L 160.5 161.429455 
L 162.00974 174.240563 
L 163.519481 208.036218 
L 165.029221 131.76 
L 166.538961 156.532848 
L 168.048701 223.736242 
L 169.558442 190.114747 
L 171.068182 134.140768 
L 172.577922 190.127192 
L 175.597403 190.11701 
L 177.107143 178.937374 
L 178.616883 148.356587 
L 180.126623 183.248895 
L 181.636364 206.503385 
L 183.146104 127.425338 
L 184.655844 142.535818 
L 186.165584 237.865802 
L 187.675325 158.966893 
L 189.185065 145.817739 
L 190.694805 149.42162 
L 192.204545 130.616727 
L 193.714286 178.339981 
L 195.224026 194.246124 
L 196.733766 117.36 
L 198.243506 134.144727 
L 199.753247 173.66246 
L 201.262987 173.658866 
L 202.772727 180.337091 
L 204.282468 142.544727 
L 205.792208 180.339 
L 207.301948 123.627545 
L 208.811688 161.450455 
L 210.321429 142.552364 
L 211.831169 228.203345 
L 213.340909 110.133818 
L 214.850649 131.749091 
L 216.36039 121.941818 
L 217.87013 231.886017 
L 219.37987 176.879207 
L 222.399351 121.941818 
L 223.909091 149.432727 
L 225.418831 121.92238 
L 226.928571 204.356231 
L 228.438312 204.414545 
L 229.948052 121.92238 
L 231.457792 66.96 
L 232.967532 149.413289 
L 234.477273 157.628073 
L 235.987013 187.92 
L 240.516234 97.178618 
L 242.025974 187.868073 
L 243.535714 157.68 
L 245.045455 157.68 
L 246.555195 127.44 
L 248.064935 157.637236 
L 249.574675 157.628073 
L 251.084416 218.16 
L 252.594156 127.44 
L 254.103896 134.16 
L 255.613636 142.56 
L 257.123377 153.36 
L 258.633117 196.56 
L 260.142857 110.16 
L 261.652597 110.16 
L 263.162338 239.76 
L 266.181818 153.36 
L 267.691558 66.96 
L 269.201299 66.96 
L 270.711039 117.36 
L 272.220779 268.56 
L 273.730519 268.56 
L 275.24026 66.96 
L 276.75 117.36 
L 278.25974 66.96 
L 279.769481 117.36 
L 281.279221 218.16 
L 282.788961 142.56 
L 284.298701 218.16 
L 285.808442 66.96 
L 288.827922 218.007273 
L 290.337662 66.96 
L 291.847403 142.56 
L 293.357143 142.56 
L 294.866883 218.16 
L 296.376623 218.007273 
L 297.886364 66.96 
L 300.905844 66.96 
L 303.925325 369.054545 
L 306.944805 66.96 
L 308.454545 66.96 
L 309.964286 218.16 
L 311.474026 217.854545 
L 312.983766 66.96 
L 314.493506 218.16 
L 317.512987 218.16 
L 319.022727 217.854545 
L 320.532468 66.96 
L 323.551948 66.96 
L 325.061688 369.36 
L 326.571429 369.054545 
L 328.081169 66.96 
L 331.100649 66.96 
L 332.61039 218.16 
L 334.12013 217.854545 
L 335.62987 218.16 
L 337.13961 218.16 
L 338.649351 66.96 
L 340.159091 218.16 
L 341.668831 217.854545 
L 343.178571 218.16 
L 344.688312 66.96 
L 347.707792 369.36 
L 349.217532 217.854545 
L 350.727273 218.16 
L 352.237013 66.96 
L 353.746753 66.96 
L 356.766234 369.054545 
L 358.275974 369.36 
L 361.295455 66.96 
L 362.805195 218.16 
L 364.314935 217.854545 
L 365.824675 218.16 
L 367.334416 369.36 
L 368.844156 218.16 
L 370.353896 218.16 
L 371.863636 217.854545 
L 373.373377 218.16 
L 374.883117 66.96 
L 376.392857 218.16 
L 377.902597 218.16 
L 379.412338 369.36 
L 380.922078 217.854545 
L 382.431818 218.16 
L 383.941558 66.96 
L 385.451299 218.16 
L 386.961039 66.96 
L 388.470779 369.36 
L 389.980519 369.054545 
L 393 66.96 
L 397.529221 66.96 
L 399.038961 369.36 
L 400.548701 369.36 
L 402.058442 66.96 
L 408.097403 66.96 
L 409.607143 369.36 
L 411.116883 369.36 
L 412.626623 66.96 
L 420.175325 66.96 
L 421.685065 369.36 
L 423.194805 369.36 
L 424.704545 66.96 
L 432.253247 66.96 
L 433.762987 369.36 
L 435.272727 369.36 
L 436.782468 66.96 
L 444.331169 66.96 
L 445.840909 369.36 
L 447.350649 369.36 
L 448.86039 66.96 
L 456.409091 66.96 
L 457.918831 369.36 
L 459.428571 369.36 
L 460.938312 66.96 
L 466.977273 66.96 
L 466.977273 66.96 
" style="fill:none;stroke:#d62728;stroke-dasharray:1.5,2.475;stroke-dashoffset:0;stroke-width:1.5;"/>
   </g>
   <g id="line2d_17">
    <path clip-path="url(#p6b5c48541d)" d="M 86.522727 66.96 
L 88.032468 66.96 
L 89.542208 76.032 
L 91.051948 79.056 
L 92.561688 94.176 
L 94.071429 91.152 
L 95.581169 100.217891 
L 97.090909 103.241891 
L 98.600649 118.346007 
L 100.11039 130.439564 
L 101.62013 130.438342 
L 103.12987 124.970446 
L 104.63961 122.462961 
L 106.149351 134.820468 
L 107.659091 123.632 
L 109.168831 122.193736 
L 110.678571 116.253059 
L 112.188312 132.642356 
L 113.698052 130.07228 
L 115.207792 153.313343 
L 116.717532 130.764364 
L 118.227273 156.892 
L 119.737013 137.016745 
L 121.246753 144.342204 
L 122.756494 163.998761 
L 124.266234 169.028691 
L 125.775974 143.544292 
L 127.285714 160.892291 
L 128.795455 181.93214 
L 130.305195 136.044815 
L 131.814935 160.306815 
L 133.324675 181.437884 
L 134.834416 137.799205 
L 136.344156 149.851003 
L 137.853896 182.832145 
L 139.363636 159.198989 
L 140.873377 164.133818 
L 142.383117 174.926727 
L 143.892857 139.737374 
L 145.402597 179.589476 
L 146.912338 205.525 
L 148.422078 142.537785 
L 149.931818 190.646182 
L 151.441558 189.32 
L 152.951299 182.132364 
L 154.461039 187.868836 
L 155.970779 183.233231 
L 157.480519 170.5824 
L 158.99026 195.246281 
L 162.00974 164.44237 
L 163.519481 218.107055 
L 165.029221 142.553455 
L 166.538961 167.693014 
L 168.048701 212.510222 
L 171.068182 145.330348 
L 172.577922 178.91701 
L 174.087662 190.10004 
L 175.597403 223.674913 
L 177.107143 190.124929 
L 178.616883 183.225399 
L 180.126623 206.466718 
L 181.636364 218.115357 
L 183.146104 139.507898 
L 184.655844 218.106278 
L 186.165584 237.829945 
L 187.675325 158.9483 
L 189.185065 198.407436 
L 190.694805 176.870876 
L 192.204545 146.479464 
L 193.714286 210.166737 
L 195.224026 226.024651 
L 196.733766 134.136242 
L 198.243506 150.895515 
L 199.753247 173.619337 
L 201.262987 209.165262 
L 202.772727 199.170273 
L 204.282468 142.506545 
L 205.792208 199.200818 
L 207.301948 123.602727 
L 208.811688 199.132091 
L 210.321429 161.421818 
L 211.831169 228.1952 
L 213.340909 110.068364 
L 214.850649 131.668364 
L 216.36039 121.941818 
L 217.87013 231.819372 
L 219.37987 204.309025 
L 220.88961 149.329983 
L 222.399351 121.941818 
L 223.909091 149.310545 
L 225.418831 149.413289 
L 226.928571 231.827702 
L 228.438312 231.811041 
L 231.457792 66.96 
L 232.967532 176.904198 
L 234.477273 187.782545 
L 235.987013 187.877236 
L 237.496753 218.144727 
L 239.006494 127.314764 
L 240.516234 97.2 
L 242.025974 187.828364 
L 243.535714 218.043927 
L 245.045455 157.664727 
L 248.064935 157.591418 
L 249.574675 127.394182 
L 251.084416 218.068364 
L 252.594156 157.664727 
L 254.103896 134.16 
L 255.613636 180.36 
L 257.123377 153.268364 
L 258.633117 153.285818 
L 260.142857 110.16 
L 261.652597 110.16 
L 263.162338 239.738182 
L 266.181818 153.255273 
L 267.691558 66.96 
L 269.201299 66.96 
L 270.711039 117.36 
L 272.220779 268.483636 
L 273.730519 268.417455 
L 275.24026 66.96 
L 276.75 167.76 
L 278.25974 66.96 
L 279.769481 117.283636 
L 281.279221 217.976727 
L 282.788961 142.56 
L 284.298701 218.16 
L 285.808442 66.96 
L 288.827922 217.976727 
L 290.337662 66.96 
L 291.847403 142.56 
L 293.357143 142.56 
L 294.866883 218.106545 
L 296.376623 217.976727 
L 297.886364 66.96 
L 300.905844 66.96 
L 303.925325 369.115636 
L 305.435065 369.36 
L 306.944805 66.96 
L 308.454545 66.96 
L 309.964286 218.053091 
L 311.474026 217.915636 
L 312.983766 218.16 
L 317.512987 218.053091 
L 319.022727 217.915636 
L 320.532468 218.16 
L 322.042208 66.96 
L 323.551948 66.96 
L 325.061688 369.130909 
L 326.571429 369.115636 
L 329.590909 66.96 
L 331.100649 66.96 
L 332.61039 217.930909 
L 334.12013 217.915636 
L 335.62987 369.36 
L 338.649351 66.96 
L 340.159091 217.930909 
L 341.668831 218.16 
L 343.178571 218.16 
L 344.688312 66.96 
L 347.707792 369.130909 
L 349.217532 218.16 
L 352.237013 218.16 
L 353.746753 66.96 
L 356.766234 369.36 
L 358.275974 369.36 
L 361.295455 66.96 
L 362.805195 217.930909 
L 364.314935 218.16 
L 365.824675 218.16 
L 367.334416 369.36 
L 368.844156 218.16 
L 370.353896 217.930909 
L 371.863636 218.16 
L 373.373377 218.16 
L 374.883117 66.96 
L 376.392857 218.16 
L 377.902597 218.16 
L 379.412338 369.130909 
L 380.922078 218.16 
L 382.431818 218.16 
L 383.941558 66.96 
L 385.451299 218.16 
L 386.961039 66.96 
L 388.470779 369.130909 
L 389.980519 369.36 
L 393 66.96 
L 397.529221 66.96 
L 399.038961 369.36 
L 400.548701 369.36 
L 402.058442 66.96 
L 408.097403 66.96 
L 409.607143 369.36 
L 411.116883 369.298909 
L 412.626623 66.96 
L 420.175325 66.96 
L 421.685065 369.36 
L 423.194805 369.298909 
L 424.704545 66.96 
L 432.253247 66.96 
L 433.762987 369.36 
L 435.272727 369.36 
L 436.782468 66.96 
L 444.331169 66.96 
L 445.840909 369.36 
L 447.350649 369.36 
L 448.86039 66.96 
L 456.409091 66.96 
L 457.918831 369.36 
L 459.428571 369.36 
L 460.938312 66.96 
L 466.977273 66.96 
L 466.977273 66.96 
" style="fill:none;stroke:#9467bd;stroke-linecap:square;stroke-width:1.5;"/>
   </g>
   <g id="line2d_18">
    <path clip-path="url(#p6b5c48541d)" d="M 86.522727 66.96 
L 94.071429 66.96 
L 95.581169 76.029556 
L 97.090909 82.06992 
L 98.600649 79.052335 
L 100.11039 88.113338 
L 101.62013 88.111795 
L 103.12987 94.434248 
L 104.63961 91.611461 
L 106.149351 94.708364 
L 107.659091 85.837124 
L 109.168831 105.937314 
L 110.678571 86.661871 
L 112.188312 112.925579 
L 113.698052 93.524193 
L 115.207792 113.432727 
L 116.717532 97.186478 
L 118.227273 124.496364 
L 119.737013 107.506915 
L 121.246753 114.851548 
L 122.756494 115.456437 
L 124.266234 114.042843 
L 125.775974 107.258822 
L 127.285714 115.941287 
L 128.795455 122.276097 
L 130.305195 101.500364 
L 131.814935 115.826888 
L 133.324675 121.900165 
L 136.344156 96.20678 
L 137.853896 137.476218 
L 139.363636 107.932327 
L 140.873377 110.129455 
L 142.383117 120.925091 
L 143.892857 94.941899 
L 145.402597 114.362952 
L 146.912338 123.614182 
L 148.422078 101.319471 
L 149.931818 108.174149 
L 151.441558 131.685818 
L 152.951299 102.951273 
L 154.461039 127.398764 
L 155.970779 105.679105 
L 157.480519 118.759855 
L 158.99026 85.257653 
L 160.5 142.481727 
L 162.00974 105.967531 
L 163.519481 117.334545 
L 165.029221 88.510909 
L 166.538961 111.755475 
L 168.048701 111.746424 
L 169.558442 122.895515 
L 171.068182 89.355475 
L 172.577922 134.139636 
L 174.087662 100.528323 
L 175.597403 145.309091 
L 177.107143 111.741899 
L 178.616883 113.457231 
L 180.126623 125.099748 
L 181.636364 148.30842 
L 183.146104 103.223564 
L 184.655844 142.549818 
L 186.165584 158.968221 
L 187.675325 119.50615 
L 189.185065 132.693818 
L 190.694805 121.919603 
L 192.204545 114.668785 
L 193.714286 146.51644 
L 195.224026 130.597435 
L 196.733766 117.326061 
L 198.243506 117.339636 
L 199.753247 120.292364 
L 201.262987 138.077005 
L 202.772727 180.337091 
L 204.282468 142.529455 
L 205.792208 123.600818 
L 207.301948 123.66 
L 208.811688 199.183636 
L 210.321429 123.621818 
L 211.831169 167.755927 
L 213.340909 110.125091 
L 214.850649 131.716364 
L 216.36039 121.941818 
L 217.87013 176.845884 
L 219.37987 149.37719 
L 220.88961 149.432727 
L 222.399351 121.941818 
L 223.909091 121.841851 
L 225.418831 94.445355 
L 226.928571 204.386777 
L 228.438312 176.890314 
L 229.948052 94.450909 
L 231.457792 66.96 
L 232.967532 121.936264 
L 234.477273 157.643345 
L 235.987013 187.92 
L 237.496753 97.2 
L 239.006494 127.403345 
L 240.516234 97.193891 
L 242.025974 157.68 
L 245.045455 157.68 
L 246.555195 127.44 
L 248.064935 157.637236 
L 249.574675 127.44 
L 251.084416 157.68 
L 252.594156 97.2 
L 254.103896 134.16 
L 255.613636 142.56 
L 257.123377 153.36 
L 258.633117 110.16 
L 260.142857 110.16 
L 261.652597 66.96 
L 263.162338 196.56 
L 264.672078 153.36 
L 266.181818 66.96 
L 269.201299 66.96 
L 270.711039 117.36 
L 272.220779 218.16 
L 273.730519 117.36 
L 275.24026 66.96 
L 276.75 117.36 
L 278.25974 66.96 
L 279.769481 117.36 
L 281.279221 142.56 
L 282.788961 66.96 
L 284.298701 142.56 
L 285.808442 66.96 
L 287.318182 142.56 
L 288.827922 142.56 
L 290.337662 66.96 
L 291.847403 142.56 
L 293.357143 66.96 
L 296.376623 218.16 
L 297.886364 66.96 
L 300.905844 66.96 
L 302.415584 218.16 
L 303.925325 218.16 
L 305.435065 66.96 
L 308.454545 66.96 
L 309.964286 218.16 
L 311.474026 218.16 
L 312.983766 66.96 
L 316.003247 66.96 
L 317.512987 218.16 
L 319.022727 218.16 
L 320.532468 66.96 
L 323.551948 66.96 
L 325.061688 218.16 
L 326.571429 218.16 
L 328.081169 66.96 
L 331.100649 66.96 
L 332.61039 218.16 
L 334.12013 218.16 
L 335.62987 66.96 
L 337.13961 218.16 
L 338.649351 66.96 
L 340.159091 218.16 
L 341.668831 218.16 
L 343.178571 66.96 
L 346.198052 66.96 
L 347.707792 369.36 
L 350.727273 66.96 
L 353.746753 66.96 
L 355.256494 218.16 
L 358.275974 218.16 
L 359.785714 66.96 
L 361.295455 66.96 
L 362.805195 218.16 
L 364.314935 218.16 
L 365.824675 217.839273 
L 367.334416 66.96 
L 368.844156 218.16 
L 371.863636 218.16 
L 373.373377 217.839273 
L 374.883117 66.96 
L 377.902597 66.96 
L 379.412338 369.36 
L 380.922078 218.16 
L 382.431818 217.839273 
L 383.941558 66.96 
L 386.961039 66.96 
L 389.980519 369.36 
L 393 66.96 
L 399.038961 66.96 
L 400.548701 369.36 
L 402.058442 66.96 
L 409.607143 66.96 
L 411.116883 369.36 
L 412.626623 66.96 
L 421.685065 66.96 
L 423.194805 369.36 
L 424.704545 66.96 
L 433.762987 66.96 
L 435.272727 369.36 
L 436.782468 66.96 
L 445.840909 66.96 
L 447.350649 369.36 
L 448.86039 66.96 
L 457.918831 66.96 
L 459.428571 369.36 
L 460.938312 66.96 
L 466.977273 66.96 
L 466.977273 66.96 
" style="fill:none;stroke:#8c564b;stroke-dasharray:5.55,2.4;stroke-dashoffset:0;stroke-width:1.5;"/>
   </g>
   <g id="line2d_19">
    <path clip-path="url(#p6b5c48541d)" d="M 86.522727 66.96 
L 88.032468 66.96 
L 89.542208 69.984 
L 91.051948 85.069178 
L 92.561688 88.093178 
L 94.071429 100.165964 
L 97.090909 112.270516 
L 98.600649 109.23216 
L 100.11039 121.318385 
L 101.62013 115.273561 
L 103.12987 127.978215 
L 104.63961 122.450305 
L 106.149351 137.860798 
L 107.659091 120.463989 
L 109.168831 135.168985 
L 110.678571 109.6403 
L 112.188312 135.922008 
L 113.698052 130.026629 
L 115.207792 146.651077 
L 116.717532 160.957867 
L 118.227273 156.891636 
L 119.737013 148.017951 
L 121.246753 155.412186 
L 122.756494 145.298155 
L 124.266234 172.921785 
L 125.775974 131.434531 
L 127.285714 160.89883 
L 128.795455 173.378643 
L 130.305195 131.703273 
L 131.814935 138.083294 
L 133.324675 172.268231 
L 134.834416 128.356841 
L 136.344156 140.074979 
L 137.853896 182.834691 
L 139.363636 154.015063 
L 140.873377 158.718545 
L 142.383117 164.139818 
L 143.892857 145.296646 
L 145.402597 167.746225 
L 146.912338 180.311636 
L 148.422078 121.919603 
L 149.931818 183.77762 
L 151.441558 189.305455 
L 152.951299 160.521455 
L 154.461039 157.649455 
L 155.970779 175.498965 
L 157.480519 161.946764 
L 158.99026 167.756298 
L 160.5 170.894727 
L 162.00974 164.458135 
L 163.519481 208.052509 
L 165.029221 120.956727 
L 166.538961 156.519273 
L 168.048701 223.732848 
L 169.558442 167.723798 
L 171.068182 134.109091 
L 172.577922 190.131717 
L 174.087662 167.739636 
L 175.597403 190.11701 
L 177.107143 178.941899 
L 178.616883 148.370685 
L 180.126623 194.840895 
L 181.636364 218.129455 
L 183.146104 115.344 
L 184.655844 180.306545 
L 186.165584 237.833929 
L 187.675325 145.828364 
L 189.185065 158.953613 
L 190.694805 163.15319 
L 192.204545 146.532517 
L 193.714286 194.270239 
L 195.224026 210.124938 
L 196.733766 150.919273 
L 198.243506 150.94303 
L 199.753247 155.868834 
L 201.262987 191.423743 
L 202.772727 199.240909 
L 204.282468 142.56 
L 205.792208 161.425636 
L 207.301948 142.519909 
L 208.811688 199.223727 
L 210.321429 161.46 
L 211.831169 167.76 
L 213.340909 110.133818 
L 214.850649 131.76 
L 216.36039 121.941818 
L 217.87013 176.923636 
L 219.37987 204.414545 
L 220.88961 176.923636 
L 222.399351 121.941818 
L 225.418831 121.941818 
L 226.928571 204.414545 
L 228.438312 231.905455 
L 229.948052 121.941818 
L 231.457792 66.96 
L 232.967532 149.432727 
L 234.477273 157.68 
L 235.987013 187.92 
L 237.496753 187.846691 
L 239.006494 127.44 
L 240.516234 97.2 
L 242.025974 187.92 
L 243.535714 187.803927 
L 245.045455 127.44 
L 246.555195 157.68 
L 249.574675 157.667782 
L 251.084416 218.043927 
L 252.594156 66.96 
L 254.103896 134.16 
L 255.613636 180.36 
L 257.123377 153.36 
L 258.633117 153.168 
L 260.142857 110.16 
L 261.652597 110.16 
L 264.672078 196.56 
L 266.181818 153.168 
L 267.691558 66.96 
L 269.201299 66.96 
L 270.711039 117.36 
L 272.220779 268.56 
L 273.730519 217.936 
L 275.24026 66.96 
L 276.75 117.36 
L 278.25974 66.96 
L 279.769481 117.36 
L 281.279221 217.824 
L 282.788961 142.56 
L 284.298701 218.16 
L 285.808442 66.96 
L 288.827922 217.824 
L 290.337662 66.96 
L 291.847403 142.56 
L 293.357143 142.56 
L 294.866883 218.053091 
L 296.376623 217.824 
L 297.886364 66.96 
L 300.905844 66.96 
L 303.925325 369.054545 
L 306.944805 66.96 
L 308.454545 66.96 
L 309.964286 218.16 
L 311.474026 217.854545 
L 312.983766 218.16 
L 314.493506 218.16 
L 316.003247 217.946182 
L 317.512987 218.16 
L 320.532468 218.16 
L 322.042208 66.96 
L 323.551948 66.96 
L 325.061688 369.36 
L 326.571429 369.146182 
L 329.590909 66.96 
L 331.100649 66.96 
L 332.61039 218.037818 
L 334.12013 218.16 
L 335.62987 369.36 
L 338.649351 66.96 
L 340.159091 218.037818 
L 341.668831 218.16 
L 343.178571 218.16 
L 344.688312 66.96 
L 347.707792 369.024 
L 349.217532 218.16 
L 350.727273 218.16 
L 352.237013 66.96 
L 353.746753 66.96 
L 356.766234 369.36 
L 358.275974 369.054545 
L 359.785714 66.96 
L 361.295455 66.96 
L 362.805195 218.037818 
L 364.314935 218.16 
L 365.824675 218.068364 
L 367.334416 218.16 
L 368.844156 217.946182 
L 371.863636 218.16 
L 373.373377 218.068364 
L 374.883117 66.96 
L 376.392857 66.96 
L 379.412338 369.024 
L 380.922078 218.16 
L 382.431818 218.068364 
L 383.941558 66.96 
L 385.451299 218.16 
L 386.961039 66.96 
L 388.470779 369.237818 
L 389.980519 369.146182 
L 393 66.96 
L 397.529221 66.96 
L 399.038961 369.36 
L 400.548701 368.932364 
L 402.058442 66.96 
L 408.097403 66.96 
L 409.607143 369.36 
L 411.116883 368.932364 
L 412.626623 66.96 
L 420.175325 66.96 
L 421.685065 369.36 
L 423.194805 368.932364 
L 424.704545 66.96 
L 432.253247 66.96 
L 433.762987 369.36 
L 435.272727 368.932364 
L 436.782468 66.96 
L 444.331169 66.96 
L 445.840909 369.36 
L 447.350649 368.932364 
L 448.86039 66.96 
L 456.409091 66.96 
L 457.918831 369.36 
L 459.428571 369.36 
L 460.938312 66.96 
L 466.977273 66.96 
L 466.977273 66.96 
" style="fill:none;stroke:#e377c2;stroke-dasharray:9.6,2.4,1.5,2.4;stroke-dashoffset:0;stroke-width:1.5;"/>
   </g>
   <g id="line2d_20">
    <path clip-path="url(#p6b5c48541d)" d="M 86.522727 66.96 
L 98.600649 66.96 
L 100.11039 69.984 
L 101.62013 69.984 
L 103.12987 73.067857 
L 104.63961 70.045714 
L 106.149351 73.130182 
L 107.659091 70.108409 
L 109.168831 76.704328 
L 110.678571 70.243968 
L 113.698052 83.556923 
L 115.207792 80.235189 
L 116.717532 83.745067 
L 118.227273 88.531273 
L 119.737013 78.017082 
L 121.246753 85.379282 
L 122.756494 81.875987 
L 124.266234 86.58724 
L 125.775974 66.96 
L 127.285714 95.52743 
L 128.795455 92.489547 
L 130.305195 79.912145 
L 131.814935 75.832556 
L 133.324675 94.436099 
L 134.834416 71.675455 
L 136.344156 81.580927 
L 137.853896 107.224509 
L 139.363636 92.562268 
L 140.873377 88.529455 
L 142.383117 104.721818 
L 143.892857 83.728323 
L 145.402597 90.658481 
L 146.912338 111.007182 
L 148.422078 80.689488 
L 149.931818 87.564298 
L 151.441558 110.117091 
L 152.951299 81.354909 
L 154.461039 89.628545 
L 155.970779 105.701035 
L 157.480519 92.848582 
L 158.99026 85.287273 
L 160.5 114.180409 
L 162.00974 105.934029 
L 163.519481 117.322327 
L 165.029221 77.754545 
L 166.538961 89.322667 
L 168.048701 122.920404 
L 169.558442 122.888727 
L 171.068182 78.146424 
L 172.577922 89.336242 
L 174.087662 111.722667 
L 175.597403 145.260444 
L 177.107143 78.16 
L 178.616883 90.201566 
L 180.126623 125.05393 
L 181.636364 125.062154 
L 183.146104 79.049891 
L 184.655844 117.292545 
L 186.165584 119.504822 
L 190.694805 80.705455 
L 192.204545 114.673608 
L 193.714286 98.724057 
L 195.224026 130.578144 
L 196.733766 83.751515 
L 198.243506 83.753212 
L 199.753247 120.274396 
L 201.262987 120.240257 
L 202.772727 104.725636 
L 204.282468 123.633273 
L 205.792208 123.610364 
L 207.301948 85.825636 
L 210.321429 123.650455 
L 211.831169 127.389091 
L 213.340909 110.098909 
L 214.850649 110.138182 
L 216.36039 94.450909 
L 217.87013 149.329983 
L 219.37987 149.357752 
L 222.399351 94.450909 
L 223.909091 121.91405 
L 225.418831 94.442579 
L 226.928571 176.782017 
L 228.438312 121.927934 
L 231.457792 66.96 
L 232.967532 94.442579 
L 234.477273 157.594473 
L 235.987013 157.570036 
L 237.496753 66.96 
L 239.006494 127.369745 
L 240.516234 97.190836 
L 243.535714 157.628073 
L 245.045455 97.126691 
L 246.555195 66.96 
L 248.064935 157.600582 
L 249.574675 127.369745 
L 251.084416 127.403345 
L 252.594156 97.187782 
L 254.103896 100.478545 
L 255.613636 66.96 
L 257.123377 153.281455 
L 260.142857 66.96 
L 261.652597 66.96 
L 263.162338 153.237818 
L 264.672078 110.081455 
L 266.181818 110.055273 
L 267.691558 66.96 
L 270.711039 66.96 
L 272.220779 167.546182 
L 275.24026 66.96 
L 278.25974 66.96 
L 279.769481 117.268364 
L 281.279221 217.885091 
L 282.788961 66.96 
L 285.808442 66.96 
L 288.827922 217.885091 
L 290.337662 66.96 
L 293.357143 66.96 
L 296.376623 217.885091 
L 297.886364 66.96 
L 300.905844 66.96 
L 302.415584 217.885091 
L 303.925325 217.976727 
L 305.435065 66.96 
L 308.454545 66.96 
L 309.964286 217.930909 
L 311.474026 217.976727 
L 312.983766 66.96 
L 316.003247 66.96 
L 317.512987 217.930909 
L 319.022727 217.976727 
L 320.532468 66.96 
L 323.551948 66.96 
L 325.061688 217.930909 
L 326.571429 217.976727 
L 328.081169 66.96 
L 331.100649 66.96 
L 332.61039 217.930909 
L 334.12013 217.976727 
L 335.62987 66.96 
L 338.649351 66.96 
L 340.159091 217.930909 
L 341.668831 217.976727 
L 343.178571 66.96 
L 346.198052 66.96 
L 347.707792 217.930909 
L 349.217532 217.976727 
L 350.727273 66.96 
L 353.746753 66.96 
L 355.256494 217.930909 
L 356.766234 217.976727 
L 358.275974 66.96 
L 361.295455 66.96 
L 362.805195 217.930909 
L 364.314935 217.976727 
L 365.824675 66.96 
L 368.844156 66.96 
L 370.353896 217.930909 
L 371.863636 217.976727 
L 373.373377 66.96 
L 377.902597 66.96 
L 379.412338 217.930909 
L 380.922078 217.976727 
L 382.431818 66.96 
L 386.961039 66.96 
L 388.470779 217.930909 
L 389.980519 217.976727 
L 391.49026 66.96 
L 466.977273 66.96 
L 466.977273 66.96 
" style="fill:none;stroke:#7f7f7f;stroke-dasharray:1.5,2.475;stroke-dashoffset:0;stroke-width:1.5;"/>
   </g>
   <g id="patch_3">
    <path d="M 67.5 384.48 
L 67.5 51.84 
" style="fill:none;stroke:#000000;stroke-linecap:square;stroke-linejoin:miter;stroke-width:0.8;"/>
   </g>
   <g id="patch_4">
    <path d="M 486 384.48 
L 486 51.84 
" style="fill:none;stroke:#000000;stroke-linecap:square;stroke-linejoin:miter;stroke-width:0.8;"/>
   </g>
   <g id="patch_5">
    <path d="M 67.5 384.48 
L 486 384.48 
" style="fill:none;stroke:#000000;stroke-linecap:square;stroke-linejoin:miter;stroke-width:0.8;"/>
   </g>
   <g id="patch_6">
    <path d="M 67.5 51.84 
L 486 51.84 
" style="fill:none;stroke:#000000;stroke-linecap:square;stroke-linejoin:miter;stroke-width:0.8;"/>
   </g>
   <g id="text_15">
    <!-- DD-PI -->
    <g transform="translate(241.765625 45.84)scale(0.25 -0.25)">
     <use xlink:href="#DejaVuSans-68"/>
     <use x="77.001953" xlink:href="#DejaVuSans-68"/>
     <use x="154.003906" xlink:href="#DejaVuSans-45"/>
     <use x="190.087891" xlink:href="#DejaVuSans-80"/>
     <use x="250.390625" xlink:href="#DejaVuSans-73"/>
    </g>
   </g>
   <g id="legend_1">
    <g id="patch_7">
     <path d="M 382.427344 308.47875 
L 475.5 308.47875 
Q 478.5 308.47875 478.5 305.47875 
L 478.5 130.84125 
Q 478.5 127.84125 475.5 127.84125 
L 382.427344 127.84125 
Q 379.427344 127.84125 379.427344 130.84125 
L 379.427344 305.47875 
Q 379.427344 308.47875 382.427344 308.47875 
z
" style="fill:#ffffff;opacity:0.8;stroke:#cccccc;stroke-linejoin:miter;"/>
    </g>
    <g id="line2d_21">
     <path d="M 385.427344 139.988906 
L 415.427344 139.988906 
" style="fill:none;stroke:#1f77b4;stroke-linecap:square;stroke-width:1.5;"/>
    </g>
    <g id="line2d_22"/>
    <g id="text_16">
     <!-- Stra 1 -->
     <defs>
      <path d="M 53.515625 70.515625 
L 53.515625 60.890625 
Q 47.90625 63.578125 42.921875 64.890625 
Q 37.9375 66.21875 33.296875 66.21875 
Q 25.25 66.21875 20.875 63.09375 
Q 16.5 59.96875 16.5 54.203125 
Q 16.5 49.359375 19.40625 46.890625 
Q 22.3125 44.4375 30.421875 42.921875 
L 36.375 41.703125 
Q 47.40625 39.59375 52.65625 34.296875 
Q 57.90625 29 57.90625 20.125 
Q 57.90625 9.515625 50.796875 4.046875 
Q 43.703125 -1.421875 29.984375 -1.421875 
Q 24.8125 -1.421875 18.96875 -0.25 
Q 13.140625 0.921875 6.890625 3.21875 
L 6.890625 13.375 
Q 12.890625 10.015625 18.65625 8.296875 
Q 24.421875 6.59375 29.984375 6.59375 
Q 38.421875 6.59375 43.015625 9.90625 
Q 47.609375 13.234375 47.609375 19.390625 
Q 47.609375 24.75 44.3125 27.78125 
Q 41.015625 30.8125 33.5 32.328125 
L 27.484375 33.5 
Q 16.453125 35.6875 11.515625 40.375 
Q 6.59375 45.0625 6.59375 53.421875 
Q 6.59375 63.09375 13.40625 68.65625 
Q 20.21875 74.21875 32.171875 74.21875 
Q 37.3125 74.21875 42.625 73.28125 
Q 47.953125 72.359375 53.515625 70.515625 
z
" id="DejaVuSans-83"/>
     </defs>
     <g transform="translate(427.427344 145.238906)scale(0.15 -0.15)">
      <use xlink:href="#DejaVuSans-83"/>
      <use x="63.476562" xlink:href="#DejaVuSans-116"/>
      <use x="102.685547" xlink:href="#DejaVuSans-114"/>
      <use x="143.798828" xlink:href="#DejaVuSans-97"/>
      <use x="205.078125" xlink:href="#DejaVuSans-32"/>
      <use x="236.865234" xlink:href="#DejaVuSans-49"/>
     </g>
    </g>
    <g id="line2d_23">
     <path d="M 385.427344 162.006094 
L 415.427344 162.006094 
" style="fill:none;stroke:#ff7f0e;stroke-dasharray:5.55,2.4;stroke-dashoffset:0;stroke-width:1.5;"/>
    </g>
    <g id="line2d_24"/>
    <g id="text_17">
     <!-- Stra 2 -->
     <g transform="translate(427.427344 167.256094)scale(0.15 -0.15)">
      <use xlink:href="#DejaVuSans-83"/>
      <use x="63.476562" xlink:href="#DejaVuSans-116"/>
      <use x="102.685547" xlink:href="#DejaVuSans-114"/>
      <use x="143.798828" xlink:href="#DejaVuSans-97"/>
      <use x="205.078125" xlink:href="#DejaVuSans-32"/>
      <use x="236.865234" xlink:href="#DejaVuSans-50"/>
     </g>
    </g>
    <g id="line2d_25">
     <path d="M 385.427344 184.023281 
L 415.427344 184.023281 
" style="fill:none;stroke:#2ca02c;stroke-dasharray:9.6,2.4,1.5,2.4;stroke-dashoffset:0;stroke-width:1.5;"/>
    </g>
    <g id="line2d_26"/>
    <g id="text_18">
     <!-- Stra 3 -->
     <defs>
      <path d="M 40.578125 39.3125 
Q 47.65625 37.796875 51.625 33 
Q 55.609375 28.21875 55.609375 21.1875 
Q 55.609375 10.40625 48.1875 4.484375 
Q 40.765625 -1.421875 27.09375 -1.421875 
Q 22.515625 -1.421875 17.65625 -0.515625 
Q 12.796875 0.390625 7.625 2.203125 
L 7.625 11.71875 
Q 11.71875 9.328125 16.59375 8.109375 
Q 21.484375 6.890625 26.8125 6.890625 
Q 36.078125 6.890625 40.9375 10.546875 
Q 45.796875 14.203125 45.796875 21.1875 
Q 45.796875 27.640625 41.28125 31.265625 
Q 36.765625 34.90625 28.71875 34.90625 
L 20.21875 34.90625 
L 20.21875 43.015625 
L 29.109375 43.015625 
Q 36.375 43.015625 40.234375 45.921875 
Q 44.09375 48.828125 44.09375 54.296875 
Q 44.09375 59.90625 40.109375 62.90625 
Q 36.140625 65.921875 28.71875 65.921875 
Q 24.65625 65.921875 20.015625 65.03125 
Q 15.375 64.15625 9.8125 62.3125 
L 9.8125 71.09375 
Q 15.4375 72.65625 20.34375 73.4375 
Q 25.25 74.21875 29.59375 74.21875 
Q 40.828125 74.21875 47.359375 69.109375 
Q 53.90625 64.015625 53.90625 55.328125 
Q 53.90625 49.265625 50.4375 45.09375 
Q 46.96875 40.921875 40.578125 39.3125 
z
" id="DejaVuSans-51"/>
     </defs>
     <g transform="translate(427.427344 189.273281)scale(0.15 -0.15)">
      <use xlink:href="#DejaVuSans-83"/>
      <use x="63.476562" xlink:href="#DejaVuSans-116"/>
      <use x="102.685547" xlink:href="#DejaVuSans-114"/>
      <use x="143.798828" xlink:href="#DejaVuSans-97"/>
      <use x="205.078125" xlink:href="#DejaVuSans-32"/>
      <use x="236.865234" xlink:href="#DejaVuSans-51"/>
     </g>
    </g>
    <g id="line2d_27">
     <path d="M 385.427344 206.040469 
L 415.427344 206.040469 
" style="fill:none;stroke:#d62728;stroke-dasharray:1.5,2.475;stroke-dashoffset:0;stroke-width:1.5;"/>
    </g>
    <g id="line2d_28"/>
    <g id="text_19">
     <!-- Stra 4 -->
     <g transform="translate(427.427344 211.290469)scale(0.15 -0.15)">
      <use xlink:href="#DejaVuSans-83"/>
      <use x="63.476562" xlink:href="#DejaVuSans-116"/>
      <use x="102.685547" xlink:href="#DejaVuSans-114"/>
      <use x="143.798828" xlink:href="#DejaVuSans-97"/>
      <use x="205.078125" xlink:href="#DejaVuSans-32"/>
      <use x="236.865234" xlink:href="#DejaVuSans-52"/>
     </g>
    </g>
    <g id="line2d_29">
     <path d="M 385.427344 228.057656 
L 415.427344 228.057656 
" style="fill:none;stroke:#9467bd;stroke-linecap:square;stroke-width:1.5;"/>
    </g>
    <g id="line2d_30"/>
    <g id="text_20">
     <!-- Stra 5 -->
     <g transform="translate(427.427344 233.307656)scale(0.15 -0.15)">
      <use xlink:href="#DejaVuSans-83"/>
      <use x="63.476562" xlink:href="#DejaVuSans-116"/>
      <use x="102.685547" xlink:href="#DejaVuSans-114"/>
      <use x="143.798828" xlink:href="#DejaVuSans-97"/>
      <use x="205.078125" xlink:href="#DejaVuSans-32"/>
      <use x="236.865234" xlink:href="#DejaVuSans-53"/>
     </g>
    </g>
    <g id="line2d_31">
     <path d="M 385.427344 250.074844 
L 415.427344 250.074844 
" style="fill:none;stroke:#8c564b;stroke-dasharray:5.55,2.4;stroke-dashoffset:0;stroke-width:1.5;"/>
    </g>
    <g id="line2d_32"/>
    <g id="text_21">
     <!-- Stra 6 -->
     <g transform="translate(427.427344 255.324844)scale(0.15 -0.15)">
      <use xlink:href="#DejaVuSans-83"/>
      <use x="63.476562" xlink:href="#DejaVuSans-116"/>
      <use x="102.685547" xlink:href="#DejaVuSans-114"/>
      <use x="143.798828" xlink:href="#DejaVuSans-97"/>
      <use x="205.078125" xlink:href="#DejaVuSans-32"/>
      <use x="236.865234" xlink:href="#DejaVuSans-54"/>
     </g>
    </g>
    <g id="line2d_33">
     <path d="M 385.427344 272.092031 
L 415.427344 272.092031 
" style="fill:none;stroke:#e377c2;stroke-dasharray:9.6,2.4,1.5,2.4;stroke-dashoffset:0;stroke-width:1.5;"/>
    </g>
    <g id="line2d_34"/>
    <g id="text_22">
     <!-- Stra 7 -->
     <defs>
      <path d="M 8.203125 72.90625 
L 55.078125 72.90625 
L 55.078125 68.703125 
L 28.609375 0 
L 18.3125 0 
L 43.21875 64.59375 
L 8.203125 64.59375 
z
" id="DejaVuSans-55"/>
     </defs>
     <g transform="translate(427.427344 277.342031)scale(0.15 -0.15)">
      <use xlink:href="#DejaVuSans-83"/>
      <use x="63.476562" xlink:href="#DejaVuSans-116"/>
      <use x="102.685547" xlink:href="#DejaVuSans-114"/>
      <use x="143.798828" xlink:href="#DejaVuSans-97"/>
      <use x="205.078125" xlink:href="#DejaVuSans-32"/>
      <use x="236.865234" xlink:href="#DejaVuSans-55"/>
     </g>
    </g>
    <g id="line2d_35">
     <path d="M 385.427344 294.109219 
L 415.427344 294.109219 
" style="fill:none;stroke:#7f7f7f;stroke-dasharray:1.5,2.475;stroke-dashoffset:0;stroke-width:1.5;"/>
    </g>
    <g id="line2d_36"/>
    <g id="text_23">
     <!-- Stra 8 -->
     <g transform="translate(427.427344 299.359219)scale(0.15 -0.15)">
      <use xlink:href="#DejaVuSans-83"/>
      <use x="63.476562" xlink:href="#DejaVuSans-116"/>
      <use x="102.685547" xlink:href="#DejaVuSans-114"/>
      <use x="143.798828" xlink:href="#DejaVuSans-97"/>
      <use x="205.078125" xlink:href="#DejaVuSans-32"/>
      <use x="236.865234" xlink:href="#DejaVuSans-56"/>
     </g>
    </g>
   </g>
  </g>
 </g>
 <defs>
  <clipPath id="p6b5c48541d">
   <rect height="332.64" width="418.5" x="67.5" y="51.84"/>
  </clipPath>
 </defs>
</svg>
