<?xml version="1.0" encoding="utf-8" standalone="no"?>
<!DOCTYPE svg PUBLIC "-//W3C//DTD SVG 1.1//EN"
  "http://www.w3.org/Graphics/SVG/1.1/DTD/svg11.dtd">
<!-- Created with matplotlib (https://matplotlib.org/) -->
<svg height="414pt" version="1.1" viewBox="0 0 540 414" width="540pt" xmlns="http://www.w3.org/2000/svg" xmlns:xlink="http://www.w3.org/1999/xlink">
 <defs>
  <style type="text/css">
*{stroke-linecap:butt;stroke-linejoin:round;}
  </style>
 </defs>
 <g id="figure_1">
  <g id="patch_1">
   <path d="M 0 414 
L 540 414 
L 540 0 
L 0 0 
z
" style="fill:#ffffff;"/>
  </g>
  <g id="axes_1">
   <g id="patch_2">
    <path d="M 79.88 351.88 
L 516.51 351.88 
L 516.51 59.22 
L 79.88 59.22 
z
" style="fill:#ffffff;"/>
   </g>
   <g id="matplotlib.axis_1">
    <g id="xtick_1">
     <g id="line2d_1">
      <defs>
       <path d="M 0 0 
L 0 3.5 
" id="mdef3ebcfa8" style="stroke:#000000;stroke-width:0.8;"/>
      </defs>
      <g>
       <use style="stroke:#000000;stroke-width:0.8;" x="79.88" xlink:href="#mdef3ebcfa8" y="351.88"/>
      </g>
     </g>
     <g id="text_1">
      <!-- 0 -->
      <defs>
       <path d="M 31.78125 66.40625 
Q 24.171875 66.40625 20.328125 58.90625 
Q 16.5 51.421875 16.5 36.375 
Q 16.5 21.390625 20.328125 13.890625 
Q 24.171875 6.390625 31.78125 6.390625 
Q 39.453125 6.390625 43.28125 13.890625 
Q 47.125 21.390625 47.125 36.375 
Q 47.125 51.421875 43.28125 58.90625 
Q 39.453125 66.40625 31.78125 66.40625 
z
M 31.78125 74.21875 
Q 44.046875 74.21875 50.515625 64.515625 
Q 56.984375 54.828125 56.984375 36.375 
Q 56.984375 17.96875 50.515625 8.265625 
Q 44.046875 -1.421875 31.78125 -1.421875 
Q 19.53125 -1.421875 13.0625 8.265625 
Q 6.59375 17.96875 6.59375 36.375 
Q 6.59375 54.828125 13.0625 64.515625 
Q 19.53125 74.21875 31.78125 74.21875 
z
" id="DejaVuSans-48"/>
      </defs>
      <g transform="translate(73.5175 374.076875)scale(0.2 -0.2)">
       <use xlink:href="#DejaVuSans-48"/>
      </g>
     </g>
    </g>
    <g id="xtick_2">
     <g id="line2d_2">
      <g>
       <use style="stroke:#000000;stroke-width:0.8;" x="152.651667" xlink:href="#mdef3ebcfa8" y="351.88"/>
      </g>
     </g>
     <g id="text_2">
      <!-- 10 -->
      <defs>
       <path d="M 12.40625 8.296875 
L 28.515625 8.296875 
L 28.515625 63.921875 
L 10.984375 60.40625 
L 10.984375 69.390625 
L 28.421875 72.90625 
L 38.28125 72.90625 
L 38.28125 8.296875 
L 54.390625 8.296875 
L 54.390625 0 
L 12.40625 0 
z
" id="DejaVuSans-49"/>
      </defs>
      <g transform="translate(139.926667 374.076875)scale(0.2 -0.2)">
       <use xlink:href="#DejaVuSans-49"/>
       <use x="63.623047" xlink:href="#DejaVuSans-48"/>
      </g>
     </g>
    </g>
    <g id="xtick_3">
     <g id="line2d_3">
      <g>
       <use style="stroke:#000000;stroke-width:0.8;" x="225.423333" xlink:href="#mdef3ebcfa8" y="351.88"/>
      </g>
     </g>
     <g id="text_3">
      <!-- 20 -->
      <defs>
       <path d="M 19.1875 8.296875 
L 53.609375 8.296875 
L 53.609375 0 
L 7.328125 0 
L 7.328125 8.296875 
Q 12.9375 14.109375 22.625 23.890625 
Q 32.328125 33.6875 34.8125 36.53125 
Q 39.546875 41.84375 41.421875 45.53125 
Q 43.3125 49.21875 43.3125 52.78125 
Q 43.3125 58.59375 39.234375 62.25 
Q 35.15625 65.921875 28.609375 65.921875 
Q 23.96875 65.921875 18.8125 64.3125 
Q 13.671875 62.703125 7.8125 59.421875 
L 7.8125 69.390625 
Q 13.765625 71.78125 18.9375 73 
Q 24.125 74.21875 28.421875 74.21875 
Q 39.75 74.21875 46.484375 68.546875 
Q 53.21875 62.890625 53.21875 53.421875 
Q 53.21875 48.921875 51.53125 44.890625 
Q 49.859375 40.875 45.40625 35.40625 
Q 44.1875 33.984375 37.640625 27.21875 
Q 31.109375 20.453125 19.1875 8.296875 
z
" id="DejaVuSans-50"/>
      </defs>
      <g transform="translate(212.698333 374.076875)scale(0.2 -0.2)">
       <use xlink:href="#DejaVuSans-50"/>
       <use x="63.623047" xlink:href="#DejaVuSans-48"/>
      </g>
     </g>
    </g>
    <g id="xtick_4">
     <g id="line2d_4">
      <g>
       <use style="stroke:#000000;stroke-width:0.8;" x="298.195" xlink:href="#mdef3ebcfa8" y="351.88"/>
      </g>
     </g>
     <g id="text_4">
      <!-- 30 -->
      <defs>
       <path d="M 40.578125 39.3125 
Q 47.65625 37.796875 51.625 33 
Q 55.609375 28.21875 55.609375 21.1875 
Q 55.609375 10.40625 48.1875 4.484375 
Q 40.765625 -1.421875 27.09375 -1.421875 
Q 22.515625 -1.421875 17.65625 -0.515625 
Q 12.796875 0.390625 7.625 2.203125 
L 7.625 11.71875 
Q 11.71875 9.328125 16.59375 8.109375 
Q 21.484375 6.890625 26.8125 6.890625 
Q 36.078125 6.890625 40.9375 10.546875 
Q 45.796875 14.203125 45.796875 21.1875 
Q 45.796875 27.640625 41.28125 31.265625 
Q 36.765625 34.90625 28.71875 34.90625 
L 20.21875 34.90625 
L 20.21875 43.015625 
L 29.109375 43.015625 
Q 36.375 43.015625 40.234375 45.921875 
Q 44.09375 48.828125 44.09375 54.296875 
Q 44.09375 59.90625 40.109375 62.90625 
Q 36.140625 65.921875 28.71875 65.921875 
Q 24.65625 65.921875 20.015625 65.03125 
Q 15.375 64.15625 9.8125 62.3125 
L 9.8125 71.09375 
Q 15.4375 72.65625 20.34375 73.4375 
Q 25.25 74.21875 29.59375 74.21875 
Q 40.828125 74.21875 47.359375 69.109375 
Q 53.90625 64.015625 53.90625 55.328125 
Q 53.90625 49.265625 50.4375 45.09375 
Q 46.96875 40.921875 40.578125 39.3125 
z
" id="DejaVuSans-51"/>
      </defs>
      <g transform="translate(285.47 374.076875)scale(0.2 -0.2)">
       <use xlink:href="#DejaVuSans-51"/>
       <use x="63.623047" xlink:href="#DejaVuSans-48"/>
      </g>
     </g>
    </g>
    <g id="xtick_5">
     <g id="line2d_5">
      <g>
       <use style="stroke:#000000;stroke-width:0.8;" x="370.966667" xlink:href="#mdef3ebcfa8" y="351.88"/>
      </g>
     </g>
     <g id="text_5">
      <!-- 40 -->
      <defs>
       <path d="M 37.796875 64.3125 
L 12.890625 25.390625 
L 37.796875 25.390625 
z
M 35.203125 72.90625 
L 47.609375 72.90625 
L 47.609375 25.390625 
L 58.015625 25.390625 
L 58.015625 17.1875 
L 47.609375 17.1875 
L 47.609375 0 
L 37.796875 0 
L 37.796875 17.1875 
L 4.890625 17.1875 
L 4.890625 26.703125 
z
" id="DejaVuSans-52"/>
      </defs>
      <g transform="translate(358.241667 374.076875)scale(0.2 -0.2)">
       <use xlink:href="#DejaVuSans-52"/>
       <use x="63.623047" xlink:href="#DejaVuSans-48"/>
      </g>
     </g>
    </g>
    <g id="xtick_6">
     <g id="line2d_6">
      <g>
       <use style="stroke:#000000;stroke-width:0.8;" x="443.738333" xlink:href="#mdef3ebcfa8" y="351.88"/>
      </g>
     </g>
     <g id="text_6">
      <!-- 50 -->
      <defs>
       <path d="M 10.796875 72.90625 
L 49.515625 72.90625 
L 49.515625 64.59375 
L 19.828125 64.59375 
L 19.828125 46.734375 
Q 21.96875 47.46875 24.109375 47.828125 
Q 26.265625 48.1875 28.421875 48.1875 
Q 40.625 48.1875 47.75 41.5 
Q 54.890625 34.8125 54.890625 23.390625 
Q 54.890625 11.625 47.5625 5.09375 
Q 40.234375 -1.421875 26.90625 -1.421875 
Q 22.3125 -1.421875 17.546875 -0.640625 
Q 12.796875 0.140625 7.71875 1.703125 
L 7.71875 11.625 
Q 12.109375 9.234375 16.796875 8.0625 
Q 21.484375 6.890625 26.703125 6.890625 
Q 35.15625 6.890625 40.078125 11.328125 
Q 45.015625 15.765625 45.015625 23.390625 
Q 45.015625 31 40.078125 35.4375 
Q 35.15625 39.890625 26.703125 39.890625 
Q 22.75 39.890625 18.8125 39.015625 
Q 14.890625 38.140625 10.796875 36.28125 
z
" id="DejaVuSans-53"/>
      </defs>
      <g transform="translate(431.013333 374.076875)scale(0.2 -0.2)">
       <use xlink:href="#DejaVuSans-53"/>
       <use x="63.623047" xlink:href="#DejaVuSans-48"/>
      </g>
     </g>
    </g>
    <g id="xtick_7">
     <g id="line2d_7">
      <g>
       <use style="stroke:#000000;stroke-width:0.8;" x="516.51" xlink:href="#mdef3ebcfa8" y="351.88"/>
      </g>
     </g>
     <g id="text_7">
      <!-- 60 -->
      <defs>
       <path d="M 33.015625 40.375 
Q 26.375 40.375 22.484375 35.828125 
Q 18.609375 31.296875 18.609375 23.390625 
Q 18.609375 15.53125 22.484375 10.953125 
Q 26.375 6.390625 33.015625 6.390625 
Q 39.65625 6.390625 43.53125 10.953125 
Q 47.40625 15.53125 47.40625 23.390625 
Q 47.40625 31.296875 43.53125 35.828125 
Q 39.65625 40.375 33.015625 40.375 
z
M 52.59375 71.296875 
L 52.59375 62.3125 
Q 48.875 64.0625 45.09375 64.984375 
Q 41.3125 65.921875 37.59375 65.921875 
Q 27.828125 65.921875 22.671875 59.328125 
Q 17.53125 52.734375 16.796875 39.40625 
Q 19.671875 43.65625 24.015625 45.921875 
Q 28.375 48.1875 33.59375 48.1875 
Q 44.578125 48.1875 50.953125 41.515625 
Q 57.328125 34.859375 57.328125 23.390625 
Q 57.328125 12.15625 50.6875 5.359375 
Q 44.046875 -1.421875 33.015625 -1.421875 
Q 20.359375 -1.421875 13.671875 8.265625 
Q 6.984375 17.96875 6.984375 36.375 
Q 6.984375 53.65625 15.1875 63.9375 
Q 23.390625 74.21875 37.203125 74.21875 
Q 40.921875 74.21875 44.703125 73.484375 
Q 48.484375 72.75 52.59375 71.296875 
z
" id="DejaVuSans-54"/>
      </defs>
      <g transform="translate(503.785 374.076875)scale(0.2 -0.2)">
       <use xlink:href="#DejaVuSans-54"/>
       <use x="63.623047" xlink:href="#DejaVuSans-48"/>
      </g>
     </g>
    </g>
    <g id="text_8">
     <!-- number of games -->
     <defs>
      <path d="M 54.890625 33.015625 
L 54.890625 0 
L 45.90625 0 
L 45.90625 32.71875 
Q 45.90625 40.484375 42.875 44.328125 
Q 39.84375 48.1875 33.796875 48.1875 
Q 26.515625 48.1875 22.3125 43.546875 
Q 18.109375 38.921875 18.109375 30.90625 
L 18.109375 0 
L 9.078125 0 
L 9.078125 54.6875 
L 18.109375 54.6875 
L 18.109375 46.1875 
Q 21.34375 51.125 25.703125 53.5625 
Q 30.078125 56 35.796875 56 
Q 45.21875 56 50.046875 50.171875 
Q 54.890625 44.34375 54.890625 33.015625 
z
" id="DejaVuSans-110"/>
      <path d="M 8.5 21.578125 
L 8.5 54.6875 
L 17.484375 54.6875 
L 17.484375 21.921875 
Q 17.484375 14.15625 20.5 10.265625 
Q 23.53125 6.390625 29.59375 6.390625 
Q 36.859375 6.390625 41.078125 11.03125 
Q 45.3125 15.671875 45.3125 23.6875 
L 45.3125 54.6875 
L 54.296875 54.6875 
L 54.296875 0 
L 45.3125 0 
L 45.3125 8.40625 
Q 42.046875 3.421875 37.71875 1 
Q 33.40625 -1.421875 27.6875 -1.421875 
Q 18.265625 -1.421875 13.375 4.4375 
Q 8.5 10.296875 8.5 21.578125 
z
M 31.109375 56 
z
" id="DejaVuSans-117"/>
      <path d="M 52 44.1875 
Q 55.375 50.25 60.0625 53.125 
Q 64.75 56 71.09375 56 
Q 79.640625 56 84.28125 50.015625 
Q 88.921875 44.046875 88.921875 33.015625 
L 88.921875 0 
L 79.890625 0 
L 79.890625 32.71875 
Q 79.890625 40.578125 77.09375 44.375 
Q 74.3125 48.1875 68.609375 48.1875 
Q 61.625 48.1875 57.5625 43.546875 
Q 53.515625 38.921875 53.515625 30.90625 
L 53.515625 0 
L 44.484375 0 
L 44.484375 32.71875 
Q 44.484375 40.625 41.703125 44.40625 
Q 38.921875 48.1875 33.109375 48.1875 
Q 26.21875 48.1875 22.15625 43.53125 
Q 18.109375 38.875 18.109375 30.90625 
L 18.109375 0 
L 9.078125 0 
L 9.078125 54.6875 
L 18.109375 54.6875 
L 18.109375 46.1875 
Q 21.1875 51.21875 25.484375 53.609375 
Q 29.78125 56 35.6875 56 
Q 41.65625 56 45.828125 52.96875 
Q 50 49.953125 52 44.1875 
z
" id="DejaVuSans-109"/>
      <path d="M 48.6875 27.296875 
Q 48.6875 37.203125 44.609375 42.84375 
Q 40.53125 48.484375 33.40625 48.484375 
Q 26.265625 48.484375 22.1875 42.84375 
Q 18.109375 37.203125 18.109375 27.296875 
Q 18.109375 17.390625 22.1875 11.75 
Q 26.265625 6.109375 33.40625 6.109375 
Q 40.53125 6.109375 44.609375 11.75 
Q 48.6875 17.390625 48.6875 27.296875 
z
M 18.109375 46.390625 
Q 20.953125 51.265625 25.265625 53.625 
Q 29.59375 56 35.59375 56 
Q 45.5625 56 51.78125 48.09375 
Q 58.015625 40.1875 58.015625 27.296875 
Q 58.015625 14.40625 51.78125 6.484375 
Q 45.5625 -1.421875 35.59375 -1.421875 
Q 29.59375 -1.421875 25.265625 0.953125 
Q 20.953125 3.328125 18.109375 8.203125 
L 18.109375 0 
L 9.078125 0 
L 9.078125 75.984375 
L 18.109375 75.984375 
z
" id="DejaVuSans-98"/>
      <path d="M 56.203125 29.59375 
L 56.203125 25.203125 
L 14.890625 25.203125 
Q 15.484375 15.921875 20.484375 11.0625 
Q 25.484375 6.203125 34.421875 6.203125 
Q 39.59375 6.203125 44.453125 7.46875 
Q 49.3125 8.734375 54.109375 11.28125 
L 54.109375 2.78125 
Q 49.265625 0.734375 44.1875 -0.34375 
Q 39.109375 -1.421875 33.890625 -1.421875 
Q 20.796875 -1.421875 13.15625 6.1875 
Q 5.515625 13.8125 5.515625 26.8125 
Q 5.515625 40.234375 12.765625 48.109375 
Q 20.015625 56 32.328125 56 
Q 43.359375 56 49.78125 48.890625 
Q 56.203125 41.796875 56.203125 29.59375 
z
M 47.21875 32.234375 
Q 47.125 39.59375 43.09375 43.984375 
Q 39.0625 48.390625 32.421875 48.390625 
Q 24.90625 48.390625 20.390625 44.140625 
Q 15.875 39.890625 15.1875 32.171875 
z
" id="DejaVuSans-101"/>
      <path d="M 41.109375 46.296875 
Q 39.59375 47.171875 37.8125 47.578125 
Q 36.03125 48 33.890625 48 
Q 26.265625 48 22.1875 43.046875 
Q 18.109375 38.09375 18.109375 28.8125 
L 18.109375 0 
L 9.078125 0 
L 9.078125 54.6875 
L 18.109375 54.6875 
L 18.109375 46.1875 
Q 20.953125 51.171875 25.484375 53.578125 
Q 30.03125 56 36.53125 56 
Q 37.453125 56 38.578125 55.875 
Q 39.703125 55.765625 41.0625 55.515625 
z
" id="DejaVuSans-114"/>
      <path id="DejaVuSans-32"/>
      <path d="M 30.609375 48.390625 
Q 23.390625 48.390625 19.1875 42.75 
Q 14.984375 37.109375 14.984375 27.296875 
Q 14.984375 17.484375 19.15625 11.84375 
Q 23.34375 6.203125 30.609375 6.203125 
Q 37.796875 6.203125 41.984375 11.859375 
Q 46.1875 17.53125 46.1875 27.296875 
Q 46.1875 37.015625 41.984375 42.703125 
Q 37.796875 48.390625 30.609375 48.390625 
z
M 30.609375 56 
Q 42.328125 56 49.015625 48.375 
Q 55.71875 40.765625 55.71875 27.296875 
Q 55.71875 13.875 49.015625 6.21875 
Q 42.328125 -1.421875 30.609375 -1.421875 
Q 18.84375 -1.421875 12.171875 6.21875 
Q 5.515625 13.875 5.515625 27.296875 
Q 5.515625 40.765625 12.171875 48.375 
Q 18.84375 56 30.609375 56 
z
" id="DejaVuSans-111"/>
      <path d="M 37.109375 75.984375 
L 37.109375 68.5 
L 28.515625 68.5 
Q 23.6875 68.5 21.796875 66.546875 
Q 19.921875 64.59375 19.921875 59.515625 
L 19.921875 54.6875 
L 34.71875 54.6875 
L 34.71875 47.703125 
L 19.921875 47.703125 
L 19.921875 0 
L 10.890625 0 
L 10.890625 47.703125 
L 2.296875 47.703125 
L 2.296875 54.6875 
L 10.890625 54.6875 
L 10.890625 58.5 
Q 10.890625 67.625 15.140625 71.796875 
Q 19.390625 75.984375 28.609375 75.984375 
z
" id="DejaVuSans-102"/>
      <path d="M 45.40625 27.984375 
Q 45.40625 37.75 41.375 43.109375 
Q 37.359375 48.484375 30.078125 48.484375 
Q 22.859375 48.484375 18.828125 43.109375 
Q 14.796875 37.75 14.796875 27.984375 
Q 14.796875 18.265625 18.828125 12.890625 
Q 22.859375 7.515625 30.078125 7.515625 
Q 37.359375 7.515625 41.375 12.890625 
Q 45.40625 18.265625 45.40625 27.984375 
z
M 54.390625 6.78125 
Q 54.390625 -7.171875 48.1875 -13.984375 
Q 42 -20.796875 29.203125 -20.796875 
Q 24.46875 -20.796875 20.265625 -20.09375 
Q 16.0625 -19.390625 12.109375 -17.921875 
L 12.109375 -9.1875 
Q 16.0625 -11.328125 19.921875 -12.34375 
Q 23.78125 -13.375 27.78125 -13.375 
Q 36.625 -13.375 41.015625 -8.765625 
Q 45.40625 -4.15625 45.40625 5.171875 
L 45.40625 9.625 
Q 42.625 4.78125 38.28125 2.390625 
Q 33.9375 0 27.875 0 
Q 17.828125 0 11.671875 7.65625 
Q 5.515625 15.328125 5.515625 27.984375 
Q 5.515625 40.671875 11.671875 48.328125 
Q 17.828125 56 27.875 56 
Q 33.9375 56 38.28125 53.609375 
Q 42.625 51.21875 45.40625 46.390625 
L 45.40625 54.6875 
L 54.390625 54.6875 
z
" id="DejaVuSans-103"/>
      <path d="M 34.28125 27.484375 
Q 23.390625 27.484375 19.1875 25 
Q 14.984375 22.515625 14.984375 16.5 
Q 14.984375 11.71875 18.140625 8.90625 
Q 21.296875 6.109375 26.703125 6.109375 
Q 34.1875 6.109375 38.703125 11.40625 
Q 43.21875 16.703125 43.21875 25.484375 
L 43.21875 27.484375 
z
M 52.203125 31.203125 
L 52.203125 0 
L 43.21875 0 
L 43.21875 8.296875 
Q 40.140625 3.328125 35.546875 0.953125 
Q 30.953125 -1.421875 24.3125 -1.421875 
Q 15.921875 -1.421875 10.953125 3.296875 
Q 6 8.015625 6 15.921875 
Q 6 25.140625 12.171875 29.828125 
Q 18.359375 34.515625 30.609375 34.515625 
L 43.21875 34.515625 
L 43.21875 35.40625 
Q 43.21875 41.609375 39.140625 45 
Q 35.0625 48.390625 27.6875 48.390625 
Q 23 48.390625 18.546875 47.265625 
Q 14.109375 46.140625 10.015625 43.890625 
L 10.015625 52.203125 
Q 14.9375 54.109375 19.578125 55.046875 
Q 24.21875 56 28.609375 56 
Q 40.484375 56 46.34375 49.84375 
Q 52.203125 43.703125 52.203125 31.203125 
z
" id="DejaVuSans-97"/>
      <path d="M 44.28125 53.078125 
L 44.28125 44.578125 
Q 40.484375 46.53125 36.375 47.5 
Q 32.28125 48.484375 27.875 48.484375 
Q 21.1875 48.484375 17.84375 46.4375 
Q 14.5 44.390625 14.5 40.28125 
Q 14.5 37.15625 16.890625 35.375 
Q 19.28125 33.59375 26.515625 31.984375 
L 29.59375 31.296875 
Q 39.15625 29.25 43.1875 25.515625 
Q 47.21875 21.78125 47.21875 15.09375 
Q 47.21875 7.46875 41.1875 3.015625 
Q 35.15625 -1.421875 24.609375 -1.421875 
Q 20.21875 -1.421875 15.453125 -0.5625 
Q 10.6875 0.296875 5.421875 2 
L 5.421875 11.28125 
Q 10.40625 8.6875 15.234375 7.390625 
Q 20.0625 6.109375 24.8125 6.109375 
Q 31.15625 6.109375 34.5625 8.28125 
Q 37.984375 10.453125 37.984375 14.40625 
Q 37.984375 18.0625 35.515625 20.015625 
Q 33.0625 21.96875 24.703125 23.78125 
L 21.578125 24.515625 
Q 13.234375 26.265625 9.515625 29.90625 
Q 5.8125 33.546875 5.8125 39.890625 
Q 5.8125 47.609375 11.28125 51.796875 
Q 16.75 56 26.8125 56 
Q 31.78125 56 36.171875 55.265625 
Q 40.578125 54.546875 44.28125 53.078125 
z
" id="DejaVuSans-115"/>
     </defs>
     <g transform="translate(209.591875 397.433125)scale(0.2 -0.2)">
      <use xlink:href="#DejaVuSans-110"/>
      <use x="63.378906" xlink:href="#DejaVuSans-117"/>
      <use x="126.757812" xlink:href="#DejaVuSans-109"/>
      <use x="224.169922" xlink:href="#DejaVuSans-98"/>
      <use x="287.646484" xlink:href="#DejaVuSans-101"/>
      <use x="349.169922" xlink:href="#DejaVuSans-114"/>
      <use x="390.283203" xlink:href="#DejaVuSans-32"/>
      <use x="422.070312" xlink:href="#DejaVuSans-111"/>
      <use x="483.251953" xlink:href="#DejaVuSans-102"/>
      <use x="518.457031" xlink:href="#DejaVuSans-32"/>
      <use x="550.244141" xlink:href="#DejaVuSans-103"/>
      <use x="613.720703" xlink:href="#DejaVuSans-97"/>
      <use x="675" xlink:href="#DejaVuSans-109"/>
      <use x="772.412109" xlink:href="#DejaVuSans-101"/>
      <use x="833.935547" xlink:href="#DejaVuSans-115"/>
     </g>
    </g>
   </g>
   <g id="matplotlib.axis_2">
    <g id="ytick_1">
     <g id="line2d_8">
      <defs>
       <path d="M 0 0 
L -3.5 0 
" id="m7c816f9990" style="stroke:#000000;stroke-width:0.8;"/>
      </defs>
      <g>
       <use style="stroke:#000000;stroke-width:0.8;" x="79.88" xlink:href="#m7c816f9990" y="338.577273"/>
      </g>
     </g>
     <g id="text_9">
      <!-- 1.0 -->
      <defs>
       <path d="M 10.6875 12.40625 
L 21 12.40625 
L 21 0 
L 10.6875 0 
z
" id="DejaVuSans-46"/>
      </defs>
      <g transform="translate(41.07375 346.17571)scale(0.2 -0.2)">
       <use xlink:href="#DejaVuSans-49"/>
       <use x="63.623047" xlink:href="#DejaVuSans-46"/>
       <use x="95.410156" xlink:href="#DejaVuSans-48"/>
      </g>
     </g>
    </g>
    <g id="ytick_2">
     <g id="line2d_9">
      <g>
       <use style="stroke:#000000;stroke-width:0.8;" x="79.88" xlink:href="#m7c816f9990" y="290.203719"/>
      </g>
     </g>
     <g id="text_10">
      <!-- 1.2 -->
      <g transform="translate(41.07375 297.802157)scale(0.2 -0.2)">
       <use xlink:href="#DejaVuSans-49"/>
       <use x="63.623047" xlink:href="#DejaVuSans-46"/>
       <use x="95.410156" xlink:href="#DejaVuSans-50"/>
      </g>
     </g>
    </g>
    <g id="ytick_3">
     <g id="line2d_10">
      <g>
       <use style="stroke:#000000;stroke-width:0.8;" x="79.88" xlink:href="#m7c816f9990" y="241.830165"/>
      </g>
     </g>
     <g id="text_11">
      <!-- 1.4 -->
      <g transform="translate(41.07375 249.428603)scale(0.2 -0.2)">
       <use xlink:href="#DejaVuSans-49"/>
       <use x="63.623047" xlink:href="#DejaVuSans-46"/>
       <use x="95.410156" xlink:href="#DejaVuSans-52"/>
      </g>
     </g>
    </g>
    <g id="ytick_4">
     <g id="line2d_11">
      <g>
       <use style="stroke:#000000;stroke-width:0.8;" x="79.88" xlink:href="#m7c816f9990" y="193.456612"/>
      </g>
     </g>
     <g id="text_12">
      <!-- 1.6 -->
      <g transform="translate(41.07375 201.055049)scale(0.2 -0.2)">
       <use xlink:href="#DejaVuSans-49"/>
       <use x="63.623047" xlink:href="#DejaVuSans-46"/>
       <use x="95.410156" xlink:href="#DejaVuSans-54"/>
      </g>
     </g>
    </g>
    <g id="ytick_5">
     <g id="line2d_12">
      <g>
       <use style="stroke:#000000;stroke-width:0.8;" x="79.88" xlink:href="#m7c816f9990" y="145.083058"/>
      </g>
     </g>
     <g id="text_13">
      <!-- 1.8 -->
      <defs>
       <path d="M 31.78125 34.625 
Q 24.75 34.625 20.71875 30.859375 
Q 16.703125 27.09375 16.703125 20.515625 
Q 16.703125 13.921875 20.71875 10.15625 
Q 24.75 6.390625 31.78125 6.390625 
Q 38.8125 6.390625 42.859375 10.171875 
Q 46.921875 13.96875 46.921875 20.515625 
Q 46.921875 27.09375 42.890625 30.859375 
Q 38.875 34.625 31.78125 34.625 
z
M 21.921875 38.8125 
Q 15.578125 40.375 12.03125 44.71875 
Q 8.5 49.078125 8.5 55.328125 
Q 8.5 64.0625 14.71875 69.140625 
Q 20.953125 74.21875 31.78125 74.21875 
Q 42.671875 74.21875 48.875 69.140625 
Q 55.078125 64.0625 55.078125 55.328125 
Q 55.078125 49.078125 51.53125 44.71875 
Q 48 40.375 41.703125 38.8125 
Q 48.828125 37.15625 52.796875 32.3125 
Q 56.78125 27.484375 56.78125 20.515625 
Q 56.78125 9.90625 50.3125 4.234375 
Q 43.84375 -1.421875 31.78125 -1.421875 
Q 19.734375 -1.421875 13.25 4.234375 
Q 6.78125 9.90625 6.78125 20.515625 
Q 6.78125 27.484375 10.78125 32.3125 
Q 14.796875 37.15625 21.921875 38.8125 
z
M 18.3125 54.390625 
Q 18.3125 48.734375 21.84375 45.5625 
Q 25.390625 42.390625 31.78125 42.390625 
Q 38.140625 42.390625 41.71875 45.5625 
Q 45.3125 48.734375 45.3125 54.390625 
Q 45.3125 60.0625 41.71875 63.234375 
Q 38.140625 66.40625 31.78125 66.40625 
Q 25.390625 66.40625 21.84375 63.234375 
Q 18.3125 60.0625 18.3125 54.390625 
z
" id="DejaVuSans-56"/>
      </defs>
      <g transform="translate(41.07375 152.681495)scale(0.2 -0.2)">
       <use xlink:href="#DejaVuSans-49"/>
       <use x="63.623047" xlink:href="#DejaVuSans-46"/>
       <use x="95.410156" xlink:href="#DejaVuSans-56"/>
      </g>
     </g>
    </g>
    <g id="ytick_6">
     <g id="line2d_13">
      <g>
       <use style="stroke:#000000;stroke-width:0.8;" x="79.88" xlink:href="#m7c816f9990" y="96.709504"/>
      </g>
     </g>
     <g id="text_14">
      <!-- 2.0 -->
      <g transform="translate(41.07375 104.307942)scale(0.2 -0.2)">
       <use xlink:href="#DejaVuSans-50"/>
       <use x="63.623047" xlink:href="#DejaVuSans-46"/>
       <use x="95.410156" xlink:href="#DejaVuSans-48"/>
      </g>
     </g>
    </g>
    <g id="text_15">
     <!-- Defence cost -->
     <defs>
      <path d="M 19.671875 64.796875 
L 19.671875 8.109375 
L 31.59375 8.109375 
Q 46.6875 8.109375 53.6875 14.9375 
Q 60.6875 21.78125 60.6875 36.53125 
Q 60.6875 51.171875 53.6875 57.984375 
Q 46.6875 64.796875 31.59375 64.796875 
z
M 9.8125 72.90625 
L 30.078125 72.90625 
Q 51.265625 72.90625 61.171875 64.09375 
Q 71.09375 55.28125 71.09375 36.53125 
Q 71.09375 17.671875 61.125 8.828125 
Q 51.171875 0 30.078125 0 
L 9.8125 0 
z
" id="DejaVuSans-68"/>
      <path d="M 48.78125 52.59375 
L 48.78125 44.1875 
Q 44.96875 46.296875 41.140625 47.34375 
Q 37.3125 48.390625 33.40625 48.390625 
Q 24.65625 48.390625 19.8125 42.84375 
Q 14.984375 37.3125 14.984375 27.296875 
Q 14.984375 17.28125 19.8125 11.734375 
Q 24.65625 6.203125 33.40625 6.203125 
Q 37.3125 6.203125 41.140625 7.25 
Q 44.96875 8.296875 48.78125 10.40625 
L 48.78125 2.09375 
Q 45.015625 0.34375 40.984375 -0.53125 
Q 36.96875 -1.421875 32.421875 -1.421875 
Q 20.0625 -1.421875 12.78125 6.34375 
Q 5.515625 14.109375 5.515625 27.296875 
Q 5.515625 40.671875 12.859375 48.328125 
Q 20.21875 56 33.015625 56 
Q 37.15625 56 41.109375 55.140625 
Q 45.0625 54.296875 48.78125 52.59375 
z
" id="DejaVuSans-99"/>
      <path d="M 18.3125 70.21875 
L 18.3125 54.6875 
L 36.8125 54.6875 
L 36.8125 47.703125 
L 18.3125 47.703125 
L 18.3125 18.015625 
Q 18.3125 11.328125 20.140625 9.421875 
Q 21.96875 7.515625 27.59375 7.515625 
L 36.8125 7.515625 
L 36.8125 0 
L 27.59375 0 
Q 17.1875 0 13.234375 3.875 
Q 9.28125 7.765625 9.28125 18.015625 
L 9.28125 47.703125 
L 2.6875 47.703125 
L 2.6875 54.6875 
L 9.28125 54.6875 
L 9.28125 70.21875 
z
" id="DejaVuSans-116"/>
     </defs>
     <g transform="translate(32.914375 270.990625)rotate(-90)scale(0.2 -0.2)">
      <use xlink:href="#DejaVuSans-68"/>
      <use x="77.001953" xlink:href="#DejaVuSans-101"/>
      <use x="138.525391" xlink:href="#DejaVuSans-102"/>
      <use x="173.730469" xlink:href="#DejaVuSans-101"/>
      <use x="235.253906" xlink:href="#DejaVuSans-110"/>
      <use x="298.632812" xlink:href="#DejaVuSans-99"/>
      <use x="353.613281" xlink:href="#DejaVuSans-101"/>
      <use x="415.136719" xlink:href="#DejaVuSans-32"/>
      <use x="446.923828" xlink:href="#DejaVuSans-99"/>
      <use x="501.904297" xlink:href="#DejaVuSans-111"/>
      <use x="563.085938" xlink:href="#DejaVuSans-115"/>
      <use x="615.185547" xlink:href="#DejaVuSans-116"/>
     </g>
    </g>
   </g>
   <g id="line2d_14">
    <path clip-path="url(#p49fa0379a7)" d="M 87.157167 185.474975 
L 94.434333 204.582529 
L 101.7115 205.429066 
L 108.988667 200.591711 
L 116.265833 196.117157 
L 123.543 196.84276 
L 130.820167 192.731008 
L 138.097333 194.66595 
L 145.3745 192.342906 
L 152.651667 200.627566 
L 159.928833 197.344212 
L 167.206 188.735393 
L 174.483167 194.033736 
L 181.760333 195.20769 
L 189.0375 192.454967 
L 196.314667 192.316921 
L 203.591833 195.855021 
L 210.869 197.240432 
L 218.146167 202.915591 
L 225.423333 202.214675 
L 232.7005 202.619016 
L 239.977667 199.707127 
L 247.254833 199.658349 
L 254.532 202.352897 
L 261.809167 209.178017 
L 269.086333 185.724036 
L 276.3635 196.363177 
L 283.640667 202.601861 
L 290.917833 194.167987 
L 298.195 193.299555 
L 305.472167 199.968436 
L 312.749333 201.869404 
L 320.0265 174.007451 
L 327.303667 204.370157 
L 334.580833 201.637433 
L 341.858 187.409917 
L 349.135167 187.409917 
L 356.412333 184.66142 
L 363.6895 207.277627 
L 370.966667 179.85155 
L 378.243833 212.604477 
L 385.521 162.673441 
L 392.798167 174.960841 
L 400.075333 210.085021 
L 407.3525 195.655409 
L 414.629667 202.526653 
L 421.906833 252.195927 
L 429.184 217.643388 
L 436.461167 217.643388 
L 443.738333 193.456612 
L 451.0155 217.643388 
L 458.292667 217.643388 
L 465.569833 217.643388 
L 472.847 217.643388 
L 480.124167 217.643388 
L 487.401333 298.265978 
L 494.6785 177.332094 
L 501.955667 278.110331 
L 509.232833 157.176446 
L 516.51 157.176446 
L 523.787167 96.709504 
L 531.064333 217.643388 
L 538.3415 338.577273 
L 541 294.397615 
" style="fill:none;stroke:#1f77b4;stroke-linecap:square;stroke-width:1.5;"/>
   </g>
   <g id="line2d_15">
    <path clip-path="url(#p49fa0379a7)" d="M 87.157167 213.168835 
L 94.434333 206.638405 
L 101.7115 202.284785 
L 108.988667 199.987041 
L 116.265833 202.526653 
L 123.543 196.84276 
L 130.820167 198.173033 
L 138.097333 201.921983 
L 145.3745 198.255191 
L 152.651667 199.722742 
L 159.928833 205.72206 
L 167.206 194.391733 
L 174.483167 204.643981 
L 181.760333 202.14614 
L 189.0375 204.222499 
L 196.314667 203.617551 
L 203.591833 206.557782 
L 210.869 199.331061 
L 218.146167 206.523031 
L 225.423333 199.557781 
L 232.7005 203.246497 
L 239.977667 207.254795 
L 247.254833 202.923512 
L 254.532 208.190335 
L 261.809167 197.364841 
L 269.086333 203.689479 
L 276.3635 209.073271 
L 283.640667 204.628082 
L 290.917833 208.016811 
L 298.195 197.487741 
L 305.472167 213.218978 
L 312.749333 203.131322 
L 320.0265 214.995201 
L 327.303667 208.419618 
L 334.580833 190.373983 
L 341.858 184.920102 
L 349.135167 215.915762 
L 356.412333 192.286284 
L 363.6895 188.529676 
L 370.966667 214.955969 
L 378.243833 221.002663 
L 385.521 173.300964 
L 392.798167 174.10719 
L 400.075333 212.146394 
L 407.3525 196.302115 
L 414.629667 217.643388 
L 421.906833 217.643388 
L 429.184 197.487741 
L 436.461167 169.269835 
L 443.738333 120.896281 
L 451.0155 241.830165 
L 458.292667 177.332094 
L 465.569833 217.643388 
L 472.847 217.643388 
L 480.124167 217.643388 
L 487.401333 217.643388 
L 494.6785 217.643388 
L 501.955667 217.643388 
L 509.232833 217.643388 
L 516.51 217.643388 
L 523.787167 217.643388 
" style="fill:none;stroke:#ff7f0e;stroke-dasharray:5.55,2.4;stroke-dashoffset:0;stroke-width:1.5;"/>
   </g>
   <g id="line2d_16">
    <path clip-path="url(#p49fa0379a7)" d="M 87.157167 338.577273 
L 94.434333 259.123711 
L 101.7115 257.672504 
L 108.988667 256.825967 
L 116.265833 259.365579 
L 123.543 253.439818 
L 130.820167 251.504876 
L 138.097333 249.449 
L 145.3745 246.333409 
L 152.651667 245.194858 
L 159.928833 243.584262 
L 167.206 247.78345 
L 174.483167 240.768677 
L 181.760333 242.297292 
L 189.0375 244.636366 
L 196.314667 241.146923 
L 203.591833 243.878465 
L 210.869 241.830165 
L 218.146167 242.545927 
L 225.423333 241.089754 
L 232.7005 246.506275 
L 239.977667 241.329749 
L 247.254833 241.587256 
L 254.532 249.553979 
L 261.809167 242.136327 
L 269.086333 247.72544 
L 276.3635 245.38829 
L 283.640667 243.393569 
L 290.917833 242.570577 
L 298.195 245.450312 
L 305.472167 249.377812 
L 312.749333 245.830986 
L 320.0265 249.519983 
L 327.303667 246.014974 
L 334.580833 244.170821 
L 341.858 241.661616 
L 349.135167 248.107649 
L 356.412333 250.762212 
L 363.6895 246.777461 
L 370.966667 243.906808 
L 378.243833 249.538039 
L 385.521 248.241118 
L 392.798167 261.245401 
L 400.075333 246.309198 
L 407.3525 249.363752 
L 414.629667 250.625357 
L 421.906833 237.411427 
L 429.184 241.331469 
L 436.461167 236.455326 
L 443.738333 247.87686 
L 451.0155 250.775959 
L 458.292667 254.853814 
L 465.569833 252.824155 
L 472.847 238.984662 
L 480.124167 254.449353 
L 487.401333 245.767548 
L 494.6785 250.328222 
L 501.955667 238.984662 
L 509.232833 234.919658 
L 516.51 254.853814 
L 523.787167 280.989709 
L 531.064333 249.468095 
L 538.3415 271.391781 
L 541 262.151592 
" style="fill:none;stroke:#2ca02c;stroke-dasharray:9.6,2.4,1.5,2.4;stroke-dashoffset:0;stroke-width:1.5;"/>
   </g>
   <g id="line2d_17">
    <path clip-path="url(#p49fa0379a7)" d="M 87.157167 338.577273 
L 94.434333 312.455554 
L 101.7115 296.976017 
L 108.988667 284.398893 
L 116.265833 275.749759 
L 123.543 271.633891 
L 130.820167 269.610961 
L 138.097333 246.214326 
L 145.3745 261.68721 
L 152.651667 248.408368 
L 159.928833 243.675134 
L 167.206 240.407414 
L 174.483167 245.989337 
L 181.760333 244.758609 
L 189.0375 240.862694 
L 196.314667 244.32833 
L 203.591833 238.118187 
L 210.869 241.951707 
L 218.146167 240.514304 
L 225.423333 245.839564 
L 232.7005 244.404668 
L 239.977667 243.130908 
L 247.254833 245.077464 
L 254.532 245.776635 
L 261.809167 248.905209 
L 269.086333 243.480251 
L 276.3635 245.055069 
L 283.640667 249.843264 
L 290.917833 246.036561 
L 298.195 245.357404 
L 305.472167 249.358892 
L 312.749333 243.808503 
L 320.0265 250.189335 
L 327.303667 248.92597 
L 334.580833 257.402474 
L 341.858 254.645547 
L 349.135167 251.988612 
L 356.412333 253.212178 
L 363.6895 245.597955 
L 370.966667 241.028394 
L 378.243833 236.421942 
L 385.521 247.473747 
L 392.798167 248.996618 
L 400.075333 253.328797 
L 407.3525 245.224801 
L 414.629667 237.411427 
L 421.906833 237.799036 
L 429.184 231.080487 
L 436.461167 243.103154 
L 443.738333 245.686028 
L 451.0155 259.276365 
L 458.292667 241.398259 
L 465.569833 254.151731 
L 472.847 259.600042 
L 480.124167 251.820356 
L 487.401333 266.016942 
L 494.6785 247.059739 
L 501.955667 235.427783 
L 509.232833 249.892424 
L 516.51 240.038552 
L 523.787167 257.954683 
L 531.064333 224.361938 
L 538.3415 238.984662 
L 541 250.516852 
" style="fill:none;stroke:#d62728;stroke-dasharray:1.5,2.475;stroke-dashoffset:0;stroke-width:1.5;"/>
   </g>
   <g id="line2d_18">
    <path clip-path="url(#p49fa0379a7)" d="M 87.157167 187.047116 
L 94.434333 183.419099 
L 101.7115 189.465793 
L 108.988667 187.893653 
L 116.265833 186.684314 
L 123.543 184.749372 
L 130.820167 186.774379 
L 138.097333 181.084797 
L 145.3745 177.332094 
L 152.651667 189.754809 
L 159.928833 180.492915 
L 167.206 190.970904 
L 174.483167 186.459179 
L 181.760333 184.859099 
L 189.0375 185.709285 
L 196.314667 193.161136 
L 203.591833 188.377388 
L 210.869 176.597491 
L 218.146167 186.383716 
L 225.423333 175.499762 
L 232.7005 179.203689 
L 239.977667 177.669427 
L 247.254833 191.096926 
L 254.532 172.293182 
L 261.809167 188.081772 
L 269.086333 199.766206 
L 276.3635 175.634776 
L 283.640667 171.130356 
L 290.917833 167.847083 
L 298.195 185.818682 
L 305.472167 179.047468 
L 312.749333 196.479959 
L 320.0265 177.332094 
L 327.303667 233.417373 
L 334.580833 217.643388 
L 341.858 161.207576 
L 349.135167 83.272406 
L 356.412333 123.583701 
L 363.6895 177.332094 
L 370.966667 200.367119 
L 378.243833 197.487741 
L 385.521 177.332094 
L 392.798167 72.522727 
L 400.075333 177.332094 
L 407.3525 137.020799 
L 414.629667 177.332094 
L 421.906833 177.332094 
L 429.184 157.176446 
L 436.461167 278.110331 
L 443.738333 217.643388 
L 451.0155 96.709504 
" style="fill:none;stroke:#9467bd;stroke-linecap:square;stroke-width:1.5;"/>
   </g>
   <g id="line2d_19">
    <path clip-path="url(#p49fa0379a7)" d="M 87.157167 168.060496 
L 94.434333 218.852727 
L 101.7115 215.04266 
L 108.988667 239.920683 
L 116.265833 257.954683 
" style="fill:none;stroke:#8c564b;stroke-dasharray:5.55,2.4;stroke-dashoffset:0;stroke-width:1.5;"/>
   </g>
   <g id="line2d_20">
    <path clip-path="url(#p49fa0379a7)" d="M 87.157167 229.736777 
L 94.434333 227.318099 
L 101.7115 253.134854 
L 108.988667 226.492209 
L 116.265833 262.993595 
L 123.543 338.577273 
" style="fill:none;stroke:#e377c2;stroke-dasharray:9.6,2.4,1.5,2.4;stroke-dashoffset:0;stroke-width:1.5;"/>
   </g>
   <g id="line2d_21">
    <path clip-path="url(#p49fa0379a7)" d="M 87.157167 96.709504 
L 94.434333 157.176446 
L 101.7115 96.709504 
L 108.988667 96.709504 
" style="fill:none;stroke:#7f7f7f;stroke-dasharray:1.5,2.475;stroke-dashoffset:0;stroke-width:1.5;"/>
   </g>
   <g id="patch_3">
    <path d="M 79.88 351.88 
L 79.88 59.22 
" style="fill:none;stroke:#000000;stroke-linecap:square;stroke-linejoin:miter;stroke-width:0.8;"/>
   </g>
   <g id="patch_4">
    <path d="M 516.51 351.88 
L 516.51 59.22 
" style="fill:none;stroke:#000000;stroke-linecap:square;stroke-linejoin:miter;stroke-width:0.8;"/>
   </g>
   <g id="patch_5">
    <path d="M 79.88 351.88 
L 516.51 351.88 
" style="fill:none;stroke:#000000;stroke-linecap:square;stroke-linejoin:miter;stroke-width:0.8;"/>
   </g>
   <g id="patch_6">
    <path d="M 79.88 59.22 
L 516.51 59.22 
" style="fill:none;stroke:#000000;stroke-linecap:square;stroke-linejoin:miter;stroke-width:0.8;"/>
   </g>
   <g id="legend_1">
    <g id="patch_7">
     <path d="M 10.0366 52.97 
L 516.4926 52.97 
Q 518.9926 52.97 518.9926 50.47 
L 518.9926 15.024688 
Q 518.9926 12.524688 516.4926 12.524688 
L 10.0366 12.524688 
Q 7.5366 12.524688 7.5366 15.024688 
L 7.5366 50.47 
Q 7.5366 52.97 10.0366 52.97 
z
" style="fill:#ffffff;opacity:0.8;stroke:#cccccc;stroke-linejoin:miter;"/>
    </g>
    <g id="line2d_22">
     <path d="M 12.5366 22.647734 
L 37.5366 22.647734 
" style="fill:none;stroke:#1f77b4;stroke-linecap:square;stroke-width:1.5;"/>
    </g>
    <g id="line2d_23"/>
    <g id="text_16">
     <!-- HG-DD-IPI -->
     <defs>
      <path d="M 9.8125 72.90625 
L 19.671875 72.90625 
L 19.671875 43.015625 
L 55.515625 43.015625 
L 55.515625 72.90625 
L 65.375 72.90625 
L 65.375 0 
L 55.515625 0 
L 55.515625 34.71875 
L 19.671875 34.71875 
L 19.671875 0 
L 9.8125 0 
z
" id="DejaVuSans-72"/>
      <path d="M 59.515625 10.40625 
L 59.515625 29.984375 
L 43.40625 29.984375 
L 43.40625 38.09375 
L 69.28125 38.09375 
L 69.28125 6.78125 
Q 63.578125 2.734375 56.6875 0.65625 
Q 49.8125 -1.421875 42 -1.421875 
Q 24.90625 -1.421875 15.25 8.5625 
Q 5.609375 18.5625 5.609375 36.375 
Q 5.609375 54.25 15.25 64.234375 
Q 24.90625 74.21875 42 74.21875 
Q 49.125 74.21875 55.546875 72.453125 
Q 61.96875 70.703125 67.390625 67.28125 
L 67.390625 56.78125 
Q 61.921875 61.421875 55.765625 63.765625 
Q 49.609375 66.109375 42.828125 66.109375 
Q 29.4375 66.109375 22.71875 58.640625 
Q 16.015625 51.171875 16.015625 36.375 
Q 16.015625 21.625 22.71875 14.15625 
Q 29.4375 6.6875 42.828125 6.6875 
Q 48.046875 6.6875 52.140625 7.59375 
Q 56.25 8.5 59.515625 10.40625 
z
" id="DejaVuSans-71"/>
      <path d="M 4.890625 31.390625 
L 31.203125 31.390625 
L 31.203125 23.390625 
L 4.890625 23.390625 
z
" id="DejaVuSans-45"/>
      <path d="M 9.8125 72.90625 
L 19.671875 72.90625 
L 19.671875 0 
L 9.8125 0 
z
" id="DejaVuSans-73"/>
      <path d="M 19.671875 64.796875 
L 19.671875 37.40625 
L 32.078125 37.40625 
Q 38.96875 37.40625 42.71875 40.96875 
Q 46.484375 44.53125 46.484375 51.125 
Q 46.484375 57.671875 42.71875 61.234375 
Q 38.96875 64.796875 32.078125 64.796875 
z
M 9.8125 72.90625 
L 32.078125 72.90625 
Q 44.34375 72.90625 50.609375 67.359375 
Q 56.890625 61.8125 56.890625 51.125 
Q 56.890625 40.328125 50.609375 34.8125 
Q 44.34375 29.296875 32.078125 29.296875 
L 19.671875 29.296875 
L 19.671875 0 
L 9.8125 0 
z
" id="DejaVuSans-80"/>
     </defs>
     <g transform="translate(47.5366 27.022734)scale(0.125 -0.125)">
      <use xlink:href="#DejaVuSans-72"/>
      <use x="75.195312" xlink:href="#DejaVuSans-71"/>
      <use x="152.685547" xlink:href="#DejaVuSans-45"/>
      <use x="188.769531" xlink:href="#DejaVuSans-68"/>
      <use x="265.771484" xlink:href="#DejaVuSans-68"/>
      <use x="342.773438" xlink:href="#DejaVuSans-45"/>
      <use x="378.857422" xlink:href="#DejaVuSans-73"/>
      <use x="408.349609" xlink:href="#DejaVuSans-80"/>
      <use x="468.652344" xlink:href="#DejaVuSans-73"/>
     </g>
    </g>
    <g id="line2d_24">
     <path d="M 12.5366 40.995391 
L 37.5366 40.995391 
" style="fill:none;stroke:#ff7f0e;stroke-dasharray:5.55,2.4;stroke-dashoffset:0;stroke-width:1.5;"/>
    </g>
    <g id="line2d_25"/>
    <g id="text_17">
     <!-- G-DD-PI -->
     <g transform="translate(47.5366 45.370391)scale(0.125 -0.125)">
      <use xlink:href="#DejaVuSans-71"/>
      <use x="77.490234" xlink:href="#DejaVuSans-45"/>
      <use x="113.574219" xlink:href="#DejaVuSans-68"/>
      <use x="190.576172" xlink:href="#DejaVuSans-68"/>
      <use x="267.578125" xlink:href="#DejaVuSans-45"/>
      <use x="303.662109" xlink:href="#DejaVuSans-80"/>
      <use x="363.964844" xlink:href="#DejaVuSans-73"/>
     </g>
    </g>
    <g id="line2d_26">
     <path d="M 121.000449 22.647734 
L 146.000449 22.647734 
" style="fill:none;stroke:#2ca02c;stroke-dasharray:9.6,2.4,1.5,2.4;stroke-dashoffset:0;stroke-width:1.5;"/>
    </g>
    <g id="line2d_27"/>
    <g id="text_18">
     <!-- HG-DD-ML-IPI -->
     <defs>
      <path d="M 9.8125 72.90625 
L 24.515625 72.90625 
L 43.109375 23.296875 
L 61.8125 72.90625 
L 76.515625 72.90625 
L 76.515625 0 
L 66.890625 0 
L 66.890625 64.015625 
L 48.09375 14.015625 
L 38.1875 14.015625 
L 19.390625 64.015625 
L 19.390625 0 
L 9.8125 0 
z
" id="DejaVuSans-77"/>
      <path d="M 9.8125 72.90625 
L 19.671875 72.90625 
L 19.671875 8.296875 
L 55.171875 8.296875 
L 55.171875 0 
L 9.8125 0 
z
" id="DejaVuSans-76"/>
     </defs>
     <g transform="translate(156.000449 27.022734)scale(0.125 -0.125)">
      <use xlink:href="#DejaVuSans-72"/>
      <use x="75.195312" xlink:href="#DejaVuSans-71"/>
      <use x="152.685547" xlink:href="#DejaVuSans-45"/>
      <use x="188.769531" xlink:href="#DejaVuSans-68"/>
      <use x="265.771484" xlink:href="#DejaVuSans-68"/>
      <use x="342.773438" xlink:href="#DejaVuSans-45"/>
      <use x="378.857422" xlink:href="#DejaVuSans-77"/>
      <use x="465.136719" xlink:href="#DejaVuSans-76"/>
      <use x="520.833984" xlink:href="#DejaVuSans-45"/>
      <use x="556.917969" xlink:href="#DejaVuSans-73"/>
      <use x="586.410156" xlink:href="#DejaVuSans-80"/>
      <use x="646.712891" xlink:href="#DejaVuSans-73"/>
     </g>
    </g>
    <g id="line2d_28">
     <path d="M 121.000449 40.995391 
L 146.000449 40.995391 
" style="fill:none;stroke:#d62728;stroke-dasharray:1.5,2.475;stroke-dashoffset:0;stroke-width:1.5;"/>
    </g>
    <g id="line2d_29"/>
    <g id="text_19">
     <!-- G-DD-ML-PI -->
     <g transform="translate(156.000449 45.370391)scale(0.125 -0.125)">
      <use xlink:href="#DejaVuSans-71"/>
      <use x="77.490234" xlink:href="#DejaVuSans-45"/>
      <use x="113.574219" xlink:href="#DejaVuSans-68"/>
      <use x="190.576172" xlink:href="#DejaVuSans-68"/>
      <use x="267.578125" xlink:href="#DejaVuSans-45"/>
      <use x="303.662109" xlink:href="#DejaVuSans-77"/>
      <use x="389.941406" xlink:href="#DejaVuSans-76"/>
      <use x="445.638672" xlink:href="#DejaVuSans-45"/>
      <use x="481.722656" xlink:href="#DejaVuSans-80"/>
      <use x="542.025391" xlink:href="#DejaVuSans-73"/>
     </g>
    </g>
    <g id="line2d_30">
     <path d="M 251.72211 22.647734 
L 276.72211 22.647734 
" style="fill:none;stroke:#9467bd;stroke-linecap:square;stroke-width:1.5;"/>
    </g>
    <g id="line2d_31"/>
    <g id="text_20">
     <!-- DD-Random -->
     <defs>
      <path d="M 44.390625 34.1875 
Q 47.5625 33.109375 50.5625 29.59375 
Q 53.5625 26.078125 56.59375 19.921875 
L 66.609375 0 
L 56 0 
L 46.6875 18.703125 
Q 43.0625 26.03125 39.671875 28.421875 
Q 36.28125 30.8125 30.421875 30.8125 
L 19.671875 30.8125 
L 19.671875 0 
L 9.8125 0 
L 9.8125 72.90625 
L 32.078125 72.90625 
Q 44.578125 72.90625 50.734375 67.671875 
Q 56.890625 62.453125 56.890625 51.90625 
Q 56.890625 45.015625 53.6875 40.46875 
Q 50.484375 35.9375 44.390625 34.1875 
z
M 19.671875 64.796875 
L 19.671875 38.921875 
L 32.078125 38.921875 
Q 39.203125 38.921875 42.84375 42.21875 
Q 46.484375 45.515625 46.484375 51.90625 
Q 46.484375 58.296875 42.84375 61.546875 
Q 39.203125 64.796875 32.078125 64.796875 
z
" id="DejaVuSans-82"/>
      <path d="M 45.40625 46.390625 
L 45.40625 75.984375 
L 54.390625 75.984375 
L 54.390625 0 
L 45.40625 0 
L 45.40625 8.203125 
Q 42.578125 3.328125 38.25 0.953125 
Q 33.9375 -1.421875 27.875 -1.421875 
Q 17.96875 -1.421875 11.734375 6.484375 
Q 5.515625 14.40625 5.515625 27.296875 
Q 5.515625 40.1875 11.734375 48.09375 
Q 17.96875 56 27.875 56 
Q 33.9375 56 38.25 53.625 
Q 42.578125 51.265625 45.40625 46.390625 
z
M 14.796875 27.296875 
Q 14.796875 17.390625 18.875 11.75 
Q 22.953125 6.109375 30.078125 6.109375 
Q 37.203125 6.109375 41.296875 11.75 
Q 45.40625 17.390625 45.40625 27.296875 
Q 45.40625 37.203125 41.296875 42.84375 
Q 37.203125 48.484375 30.078125 48.484375 
Q 22.953125 48.484375 18.875 42.84375 
Q 14.796875 37.203125 14.796875 27.296875 
z
" id="DejaVuSans-100"/>
     </defs>
     <g transform="translate(286.72211 27.022734)scale(0.125 -0.125)">
      <use xlink:href="#DejaVuSans-68"/>
      <use x="77.001953" xlink:href="#DejaVuSans-68"/>
      <use x="154.003906" xlink:href="#DejaVuSans-45"/>
      <use x="190.087891" xlink:href="#DejaVuSans-82"/>
      <use x="259.539062" xlink:href="#DejaVuSans-97"/>
      <use x="320.818359" xlink:href="#DejaVuSans-110"/>
      <use x="384.197266" xlink:href="#DejaVuSans-100"/>
      <use x="447.673828" xlink:href="#DejaVuSans-111"/>
      <use x="508.855469" xlink:href="#DejaVuSans-109"/>
     </g>
    </g>
    <g id="line2d_32">
     <path d="M 251.72211 40.995391 
L 276.72211 40.995391 
" style="fill:none;stroke:#8c564b;stroke-dasharray:5.55,2.4;stroke-dashoffset:0;stroke-width:1.5;"/>
    </g>
    <g id="line2d_33"/>
    <g id="text_21">
     <!-- HG-No-DD-IPI -->
     <defs>
      <path d="M 9.8125 72.90625 
L 23.09375 72.90625 
L 55.421875 11.921875 
L 55.421875 72.90625 
L 64.984375 72.90625 
L 64.984375 0 
L 51.703125 0 
L 19.390625 60.984375 
L 19.390625 0 
L 9.8125 0 
z
" id="DejaVuSans-78"/>
     </defs>
     <g transform="translate(286.72211 45.370391)scale(0.125 -0.125)">
      <use xlink:href="#DejaVuSans-72"/>
      <use x="75.195312" xlink:href="#DejaVuSans-71"/>
      <use x="152.685547" xlink:href="#DejaVuSans-45"/>
      <use x="188.769531" xlink:href="#DejaVuSans-78"/>
      <use x="263.574219" xlink:href="#DejaVuSans-111"/>
      <use x="324.771484" xlink:href="#DejaVuSans-45"/>
      <use x="360.855469" xlink:href="#DejaVuSans-68"/>
      <use x="437.857422" xlink:href="#DejaVuSans-68"/>
      <use x="514.859375" xlink:href="#DejaVuSans-45"/>
      <use x="550.943359" xlink:href="#DejaVuSans-73"/>
      <use x="580.435547" xlink:href="#DejaVuSans-80"/>
      <use x="640.738281" xlink:href="#DejaVuSans-73"/>
     </g>
    </g>
    <g id="line2d_34">
     <path d="M 381.697678 22.647734 
L 406.697678 22.647734 
" style="fill:none;stroke:#e377c2;stroke-dasharray:9.6,2.4,1.5,2.4;stroke-dashoffset:0;stroke-width:1.5;"/>
    </g>
    <g id="line2d_35"/>
    <g id="text_22">
     <!-- G-No-DD-PI -->
     <g transform="translate(416.697678 27.022734)scale(0.125 -0.125)">
      <use xlink:href="#DejaVuSans-71"/>
      <use x="77.490234" xlink:href="#DejaVuSans-45"/>
      <use x="113.574219" xlink:href="#DejaVuSans-78"/>
      <use x="188.378906" xlink:href="#DejaVuSans-111"/>
      <use x="249.576172" xlink:href="#DejaVuSans-45"/>
      <use x="285.660156" xlink:href="#DejaVuSans-68"/>
      <use x="362.662109" xlink:href="#DejaVuSans-68"/>
      <use x="439.664062" xlink:href="#DejaVuSans-45"/>
      <use x="475.748047" xlink:href="#DejaVuSans-80"/>
      <use x="536.050781" xlink:href="#DejaVuSans-73"/>
     </g>
    </g>
    <g id="line2d_36">
     <path d="M 381.697678 40.995391 
L 406.697678 40.995391 
" style="fill:none;stroke:#7f7f7f;stroke-dasharray:1.5,2.475;stroke-dashoffset:0;stroke-width:1.5;"/>
    </g>
    <g id="line2d_37"/>
    <g id="text_23">
     <!-- No-DD-Random -->
     <g transform="translate(416.697678 45.370391)scale(0.125 -0.125)">
      <use xlink:href="#DejaVuSans-78"/>
      <use x="74.804688" xlink:href="#DejaVuSans-111"/>
      <use x="136.001953" xlink:href="#DejaVuSans-45"/>
      <use x="172.085938" xlink:href="#DejaVuSans-68"/>
      <use x="249.087891" xlink:href="#DejaVuSans-68"/>
      <use x="326.089844" xlink:href="#DejaVuSans-45"/>
      <use x="362.173828" xlink:href="#DejaVuSans-82"/>
      <use x="431.625" xlink:href="#DejaVuSans-97"/>
      <use x="492.904297" xlink:href="#DejaVuSans-110"/>
      <use x="556.283203" xlink:href="#DejaVuSans-100"/>
      <use x="619.759766" xlink:href="#DejaVuSans-111"/>
      <use x="680.941406" xlink:href="#DejaVuSans-109"/>
     </g>
    </g>
   </g>
  </g>
 </g>
 <defs>
  <clipPath id="p49fa0379a7">
   <rect height="292.66" width="436.63" x="79.88" y="59.22"/>
  </clipPath>
 </defs>
</svg>
