<?xml version="1.0" encoding="utf-8" standalone="no"?>
<!DOCTYPE svg PUBLIC "-//W3C//DTD SVG 1.1//EN"
  "http://www.w3.org/Graphics/SVG/1.1/DTD/svg11.dtd">
<!-- Created with matplotlib (https://matplotlib.org/) -->
<svg height="360pt" version="1.1" viewBox="0 0 540 360" width="540pt" xmlns="http://www.w3.org/2000/svg" xmlns:xlink="http://www.w3.org/1999/xlink">
 <defs>
  <style type="text/css">
*{stroke-linecap:butt;stroke-linejoin:round;}
  </style>
 </defs>
 <g id="figure_1">
  <g id="patch_1">
   <path d="M 0 360 
L 540 360 
L 540 0 
L 0 0 
z
" style="fill:#ffffff;"/>
  </g>
  <g id="axes_1">
   <g id="patch_2">
    <path d="M 48.17 297.88 
L 516.51 297.88 
L 516.51 16.695 
L 48.17 16.695 
z
" style="fill:#ffffff;"/>
   </g>
   <g id="matplotlib.axis_1">
    <g id="xtick_1">
     <g id="line2d_1">
      <defs>
       <path d="M 0 0 
L 0 3.5 
" id="me30b555f32" style="stroke:#000000;stroke-width:0.8;"/>
      </defs>
      <g>
       <use style="stroke:#000000;stroke-width:0.8;" x="48.17" xlink:href="#me30b555f32" y="297.88"/>
      </g>
     </g>
     <g id="text_1">
      <!-- 0 -->
      <defs>
       <path d="M 31.78125 66.40625 
Q 24.171875 66.40625 20.328125 58.90625 
Q 16.5 51.421875 16.5 36.375 
Q 16.5 21.390625 20.328125 13.890625 
Q 24.171875 6.390625 31.78125 6.390625 
Q 39.453125 6.390625 43.28125 13.890625 
Q 47.125 21.390625 47.125 36.375 
Q 47.125 51.421875 43.28125 58.90625 
Q 39.453125 66.40625 31.78125 66.40625 
z
M 31.78125 74.21875 
Q 44.046875 74.21875 50.515625 64.515625 
Q 56.984375 54.828125 56.984375 36.375 
Q 56.984375 17.96875 50.515625 8.265625 
Q 44.046875 -1.421875 31.78125 -1.421875 
Q 19.53125 -1.421875 13.0625 8.265625 
Q 6.59375 17.96875 6.59375 36.375 
Q 6.59375 54.828125 13.0625 64.515625 
Q 19.53125 74.21875 31.78125 74.21875 
z
" id="DejaVuSans-48"/>
      </defs>
      <g transform="translate(41.8075 320.076875)scale(0.2 -0.2)">
       <use xlink:href="#DejaVuSans-48"/>
      </g>
     </g>
    </g>
    <g id="xtick_2">
     <g id="line2d_2">
      <g>
       <use style="stroke:#000000;stroke-width:0.8;" x="126.226667" xlink:href="#me30b555f32" y="297.88"/>
      </g>
     </g>
     <g id="text_2">
      <!-- 10 -->
      <defs>
       <path d="M 12.40625 8.296875 
L 28.515625 8.296875 
L 28.515625 63.921875 
L 10.984375 60.40625 
L 10.984375 69.390625 
L 28.421875 72.90625 
L 38.28125 72.90625 
L 38.28125 8.296875 
L 54.390625 8.296875 
L 54.390625 0 
L 12.40625 0 
z
" id="DejaVuSans-49"/>
      </defs>
      <g transform="translate(113.501667 320.076875)scale(0.2 -0.2)">
       <use xlink:href="#DejaVuSans-49"/>
       <use x="63.623047" xlink:href="#DejaVuSans-48"/>
      </g>
     </g>
    </g>
    <g id="xtick_3">
     <g id="line2d_3">
      <g>
       <use style="stroke:#000000;stroke-width:0.8;" x="204.283333" xlink:href="#me30b555f32" y="297.88"/>
      </g>
     </g>
     <g id="text_3">
      <!-- 20 -->
      <defs>
       <path d="M 19.1875 8.296875 
L 53.609375 8.296875 
L 53.609375 0 
L 7.328125 0 
L 7.328125 8.296875 
Q 12.9375 14.109375 22.625 23.890625 
Q 32.328125 33.6875 34.8125 36.53125 
Q 39.546875 41.84375 41.421875 45.53125 
Q 43.3125 49.21875 43.3125 52.78125 
Q 43.3125 58.59375 39.234375 62.25 
Q 35.15625 65.921875 28.609375 65.921875 
Q 23.96875 65.921875 18.8125 64.3125 
Q 13.671875 62.703125 7.8125 59.421875 
L 7.8125 69.390625 
Q 13.765625 71.78125 18.9375 73 
Q 24.125 74.21875 28.421875 74.21875 
Q 39.75 74.21875 46.484375 68.546875 
Q 53.21875 62.890625 53.21875 53.421875 
Q 53.21875 48.921875 51.53125 44.890625 
Q 49.859375 40.875 45.40625 35.40625 
Q 44.1875 33.984375 37.640625 27.21875 
Q 31.109375 20.453125 19.1875 8.296875 
z
" id="DejaVuSans-50"/>
      </defs>
      <g transform="translate(191.558333 320.076875)scale(0.2 -0.2)">
       <use xlink:href="#DejaVuSans-50"/>
       <use x="63.623047" xlink:href="#DejaVuSans-48"/>
      </g>
     </g>
    </g>
    <g id="xtick_4">
     <g id="line2d_4">
      <g>
       <use style="stroke:#000000;stroke-width:0.8;" x="282.34" xlink:href="#me30b555f32" y="297.88"/>
      </g>
     </g>
     <g id="text_4">
      <!-- 30 -->
      <defs>
       <path d="M 40.578125 39.3125 
Q 47.65625 37.796875 51.625 33 
Q 55.609375 28.21875 55.609375 21.1875 
Q 55.609375 10.40625 48.1875 4.484375 
Q 40.765625 -1.421875 27.09375 -1.421875 
Q 22.515625 -1.421875 17.65625 -0.515625 
Q 12.796875 0.390625 7.625 2.203125 
L 7.625 11.71875 
Q 11.71875 9.328125 16.59375 8.109375 
Q 21.484375 6.890625 26.8125 6.890625 
Q 36.078125 6.890625 40.9375 10.546875 
Q 45.796875 14.203125 45.796875 21.1875 
Q 45.796875 27.640625 41.28125 31.265625 
Q 36.765625 34.90625 28.71875 34.90625 
L 20.21875 34.90625 
L 20.21875 43.015625 
L 29.109375 43.015625 
Q 36.375 43.015625 40.234375 45.921875 
Q 44.09375 48.828125 44.09375 54.296875 
Q 44.09375 59.90625 40.109375 62.90625 
Q 36.140625 65.921875 28.71875 65.921875 
Q 24.65625 65.921875 20.015625 65.03125 
Q 15.375 64.15625 9.8125 62.3125 
L 9.8125 71.09375 
Q 15.4375 72.65625 20.34375 73.4375 
Q 25.25 74.21875 29.59375 74.21875 
Q 40.828125 74.21875 47.359375 69.109375 
Q 53.90625 64.015625 53.90625 55.328125 
Q 53.90625 49.265625 50.4375 45.09375 
Q 46.96875 40.921875 40.578125 39.3125 
z
" id="DejaVuSans-51"/>
      </defs>
      <g transform="translate(269.615 320.076875)scale(0.2 -0.2)">
       <use xlink:href="#DejaVuSans-51"/>
       <use x="63.623047" xlink:href="#DejaVuSans-48"/>
      </g>
     </g>
    </g>
    <g id="xtick_5">
     <g id="line2d_5">
      <g>
       <use style="stroke:#000000;stroke-width:0.8;" x="360.396667" xlink:href="#me30b555f32" y="297.88"/>
      </g>
     </g>
     <g id="text_5">
      <!-- 40 -->
      <defs>
       <path d="M 37.796875 64.3125 
L 12.890625 25.390625 
L 37.796875 25.390625 
z
M 35.203125 72.90625 
L 47.609375 72.90625 
L 47.609375 25.390625 
L 58.015625 25.390625 
L 58.015625 17.1875 
L 47.609375 17.1875 
L 47.609375 0 
L 37.796875 0 
L 37.796875 17.1875 
L 4.890625 17.1875 
L 4.890625 26.703125 
z
" id="DejaVuSans-52"/>
      </defs>
      <g transform="translate(347.671667 320.076875)scale(0.2 -0.2)">
       <use xlink:href="#DejaVuSans-52"/>
       <use x="63.623047" xlink:href="#DejaVuSans-48"/>
      </g>
     </g>
    </g>
    <g id="xtick_6">
     <g id="line2d_6">
      <g>
       <use style="stroke:#000000;stroke-width:0.8;" x="438.453333" xlink:href="#me30b555f32" y="297.88"/>
      </g>
     </g>
     <g id="text_6">
      <!-- 50 -->
      <defs>
       <path d="M 10.796875 72.90625 
L 49.515625 72.90625 
L 49.515625 64.59375 
L 19.828125 64.59375 
L 19.828125 46.734375 
Q 21.96875 47.46875 24.109375 47.828125 
Q 26.265625 48.1875 28.421875 48.1875 
Q 40.625 48.1875 47.75 41.5 
Q 54.890625 34.8125 54.890625 23.390625 
Q 54.890625 11.625 47.5625 5.09375 
Q 40.234375 -1.421875 26.90625 -1.421875 
Q 22.3125 -1.421875 17.546875 -0.640625 
Q 12.796875 0.140625 7.71875 1.703125 
L 7.71875 11.625 
Q 12.109375 9.234375 16.796875 8.0625 
Q 21.484375 6.890625 26.703125 6.890625 
Q 35.15625 6.890625 40.078125 11.328125 
Q 45.015625 15.765625 45.015625 23.390625 
Q 45.015625 31 40.078125 35.4375 
Q 35.15625 39.890625 26.703125 39.890625 
Q 22.75 39.890625 18.8125 39.015625 
Q 14.890625 38.140625 10.796875 36.28125 
z
" id="DejaVuSans-53"/>
      </defs>
      <g transform="translate(425.728333 320.076875)scale(0.2 -0.2)">
       <use xlink:href="#DejaVuSans-53"/>
       <use x="63.623047" xlink:href="#DejaVuSans-48"/>
      </g>
     </g>
    </g>
    <g id="xtick_7">
     <g id="line2d_7">
      <g>
       <use style="stroke:#000000;stroke-width:0.8;" x="516.51" xlink:href="#me30b555f32" y="297.88"/>
      </g>
     </g>
     <g id="text_7">
      <!-- 60 -->
      <defs>
       <path d="M 33.015625 40.375 
Q 26.375 40.375 22.484375 35.828125 
Q 18.609375 31.296875 18.609375 23.390625 
Q 18.609375 15.53125 22.484375 10.953125 
Q 26.375 6.390625 33.015625 6.390625 
Q 39.65625 6.390625 43.53125 10.953125 
Q 47.40625 15.53125 47.40625 23.390625 
Q 47.40625 31.296875 43.53125 35.828125 
Q 39.65625 40.375 33.015625 40.375 
z
M 52.59375 71.296875 
L 52.59375 62.3125 
Q 48.875 64.0625 45.09375 64.984375 
Q 41.3125 65.921875 37.59375 65.921875 
Q 27.828125 65.921875 22.671875 59.328125 
Q 17.53125 52.734375 16.796875 39.40625 
Q 19.671875 43.65625 24.015625 45.921875 
Q 28.375 48.1875 33.59375 48.1875 
Q 44.578125 48.1875 50.953125 41.515625 
Q 57.328125 34.859375 57.328125 23.390625 
Q 57.328125 12.15625 50.6875 5.359375 
Q 44.046875 -1.421875 33.015625 -1.421875 
Q 20.359375 -1.421875 13.671875 8.265625 
Q 6.984375 17.96875 6.984375 36.375 
Q 6.984375 53.65625 15.1875 63.9375 
Q 23.390625 74.21875 37.203125 74.21875 
Q 40.921875 74.21875 44.703125 73.484375 
Q 48.484375 72.75 52.59375 71.296875 
z
" id="DejaVuSans-54"/>
      </defs>
      <g transform="translate(503.785 320.076875)scale(0.2 -0.2)">
       <use xlink:href="#DejaVuSans-54"/>
       <use x="63.623047" xlink:href="#DejaVuSans-48"/>
      </g>
     </g>
    </g>
    <g id="text_8">
     <!-- # of game -->
     <defs>
      <path d="M 51.125 44 
L 36.921875 44 
L 32.8125 27.6875 
L 47.125 27.6875 
z
M 43.796875 71.78125 
L 38.71875 51.515625 
L 52.984375 51.515625 
L 58.109375 71.78125 
L 65.921875 71.78125 
L 60.890625 51.515625 
L 76.125 51.515625 
L 76.125 44 
L 58.984375 44 
L 54.984375 27.6875 
L 70.515625 27.6875 
L 70.515625 20.21875 
L 53.078125 20.21875 
L 48 0 
L 40.1875 0 
L 45.21875 20.21875 
L 30.90625 20.21875 
L 25.875 0 
L 18.015625 0 
L 23.09375 20.21875 
L 7.71875 20.21875 
L 7.71875 27.6875 
L 24.90625 27.6875 
L 29 44 
L 13.28125 44 
L 13.28125 51.515625 
L 30.90625 51.515625 
L 35.890625 71.78125 
z
" id="DejaVuSans-35"/>
      <path id="DejaVuSans-32"/>
      <path d="M 30.609375 48.390625 
Q 23.390625 48.390625 19.1875 42.75 
Q 14.984375 37.109375 14.984375 27.296875 
Q 14.984375 17.484375 19.15625 11.84375 
Q 23.34375 6.203125 30.609375 6.203125 
Q 37.796875 6.203125 41.984375 11.859375 
Q 46.1875 17.53125 46.1875 27.296875 
Q 46.1875 37.015625 41.984375 42.703125 
Q 37.796875 48.390625 30.609375 48.390625 
z
M 30.609375 56 
Q 42.328125 56 49.015625 48.375 
Q 55.71875 40.765625 55.71875 27.296875 
Q 55.71875 13.875 49.015625 6.21875 
Q 42.328125 -1.421875 30.609375 -1.421875 
Q 18.84375 -1.421875 12.171875 6.21875 
Q 5.515625 13.875 5.515625 27.296875 
Q 5.515625 40.765625 12.171875 48.375 
Q 18.84375 56 30.609375 56 
z
" id="DejaVuSans-111"/>
      <path d="M 37.109375 75.984375 
L 37.109375 68.5 
L 28.515625 68.5 
Q 23.6875 68.5 21.796875 66.546875 
Q 19.921875 64.59375 19.921875 59.515625 
L 19.921875 54.6875 
L 34.71875 54.6875 
L 34.71875 47.703125 
L 19.921875 47.703125 
L 19.921875 0 
L 10.890625 0 
L 10.890625 47.703125 
L 2.296875 47.703125 
L 2.296875 54.6875 
L 10.890625 54.6875 
L 10.890625 58.5 
Q 10.890625 67.625 15.140625 71.796875 
Q 19.390625 75.984375 28.609375 75.984375 
z
" id="DejaVuSans-102"/>
      <path d="M 45.40625 27.984375 
Q 45.40625 37.75 41.375 43.109375 
Q 37.359375 48.484375 30.078125 48.484375 
Q 22.859375 48.484375 18.828125 43.109375 
Q 14.796875 37.75 14.796875 27.984375 
Q 14.796875 18.265625 18.828125 12.890625 
Q 22.859375 7.515625 30.078125 7.515625 
Q 37.359375 7.515625 41.375 12.890625 
Q 45.40625 18.265625 45.40625 27.984375 
z
M 54.390625 6.78125 
Q 54.390625 -7.171875 48.1875 -13.984375 
Q 42 -20.796875 29.203125 -20.796875 
Q 24.46875 -20.796875 20.265625 -20.09375 
Q 16.0625 -19.390625 12.109375 -17.921875 
L 12.109375 -9.1875 
Q 16.0625 -11.328125 19.921875 -12.34375 
Q 23.78125 -13.375 27.78125 -13.375 
Q 36.625 -13.375 41.015625 -8.765625 
Q 45.40625 -4.15625 45.40625 5.171875 
L 45.40625 9.625 
Q 42.625 4.78125 38.28125 2.390625 
Q 33.9375 0 27.875 0 
Q 17.828125 0 11.671875 7.65625 
Q 5.515625 15.328125 5.515625 27.984375 
Q 5.515625 40.671875 11.671875 48.328125 
Q 17.828125 56 27.875 56 
Q 33.9375 56 38.28125 53.609375 
Q 42.625 51.21875 45.40625 46.390625 
L 45.40625 54.6875 
L 54.390625 54.6875 
z
" id="DejaVuSans-103"/>
      <path d="M 34.28125 27.484375 
Q 23.390625 27.484375 19.1875 25 
Q 14.984375 22.515625 14.984375 16.5 
Q 14.984375 11.71875 18.140625 8.90625 
Q 21.296875 6.109375 26.703125 6.109375 
Q 34.1875 6.109375 38.703125 11.40625 
Q 43.21875 16.703125 43.21875 25.484375 
L 43.21875 27.484375 
z
M 52.203125 31.203125 
L 52.203125 0 
L 43.21875 0 
L 43.21875 8.296875 
Q 40.140625 3.328125 35.546875 0.953125 
Q 30.953125 -1.421875 24.3125 -1.421875 
Q 15.921875 -1.421875 10.953125 3.296875 
Q 6 8.015625 6 15.921875 
Q 6 25.140625 12.171875 29.828125 
Q 18.359375 34.515625 30.609375 34.515625 
L 43.21875 34.515625 
L 43.21875 35.40625 
Q 43.21875 41.609375 39.140625 45 
Q 35.0625 48.390625 27.6875 48.390625 
Q 23 48.390625 18.546875 47.265625 
Q 14.109375 46.140625 10.015625 43.890625 
L 10.015625 52.203125 
Q 14.9375 54.109375 19.578125 55.046875 
Q 24.21875 56 28.609375 56 
Q 40.484375 56 46.34375 49.84375 
Q 52.203125 43.703125 52.203125 31.203125 
z
" id="DejaVuSans-97"/>
      <path d="M 52 44.1875 
Q 55.375 50.25 60.0625 53.125 
Q 64.75 56 71.09375 56 
Q 79.640625 56 84.28125 50.015625 
Q 88.921875 44.046875 88.921875 33.015625 
L 88.921875 0 
L 79.890625 0 
L 79.890625 32.71875 
Q 79.890625 40.578125 77.09375 44.375 
Q 74.3125 48.1875 68.609375 48.1875 
Q 61.625 48.1875 57.5625 43.546875 
Q 53.515625 38.921875 53.515625 30.90625 
L 53.515625 0 
L 44.484375 0 
L 44.484375 32.71875 
Q 44.484375 40.625 41.703125 44.40625 
Q 38.921875 48.1875 33.109375 48.1875 
Q 26.21875 48.1875 22.15625 43.53125 
Q 18.109375 38.875 18.109375 30.90625 
L 18.109375 0 
L 9.078125 0 
L 9.078125 54.6875 
L 18.109375 54.6875 
L 18.109375 46.1875 
Q 21.1875 51.21875 25.484375 53.609375 
Q 29.78125 56 35.6875 56 
Q 41.65625 56 45.828125 52.96875 
Q 50 49.953125 52 44.1875 
z
" id="DejaVuSans-109"/>
      <path d="M 56.203125 29.59375 
L 56.203125 25.203125 
L 14.890625 25.203125 
Q 15.484375 15.921875 20.484375 11.0625 
Q 25.484375 6.203125 34.421875 6.203125 
Q 39.59375 6.203125 44.453125 7.46875 
Q 49.3125 8.734375 54.109375 11.28125 
L 54.109375 2.78125 
Q 49.265625 0.734375 44.1875 -0.34375 
Q 39.109375 -1.421875 33.890625 -1.421875 
Q 20.796875 -1.421875 13.15625 6.1875 
Q 5.515625 13.8125 5.515625 26.8125 
Q 5.515625 40.234375 12.765625 48.109375 
Q 20.015625 56 32.328125 56 
Q 43.359375 56 49.78125 48.890625 
Q 56.203125 41.796875 56.203125 29.59375 
z
M 47.21875 32.234375 
Q 47.125 39.59375 43.09375 43.984375 
Q 39.0625 48.390625 32.421875 48.390625 
Q 24.90625 48.390625 20.390625 44.140625 
Q 15.875 39.890625 15.1875 32.171875 
z
" id="DejaVuSans-101"/>
     </defs>
     <g transform="translate(229.594688 343.433125)scale(0.2 -0.2)">
      <use xlink:href="#DejaVuSans-35"/>
      <use x="83.789062" xlink:href="#DejaVuSans-32"/>
      <use x="115.576172" xlink:href="#DejaVuSans-111"/>
      <use x="176.757812" xlink:href="#DejaVuSans-102"/>
      <use x="211.962891" xlink:href="#DejaVuSans-32"/>
      <use x="243.75" xlink:href="#DejaVuSans-103"/>
      <use x="307.226562" xlink:href="#DejaVuSans-97"/>
      <use x="368.505859" xlink:href="#DejaVuSans-109"/>
      <use x="465.917969" xlink:href="#DejaVuSans-101"/>
     </g>
    </g>
   </g>
   <g id="matplotlib.axis_2">
    <g id="ytick_1">
     <g id="line2d_8">
      <defs>
       <path d="M 0 0 
L -3.5 0 
" id="me0aa124777" style="stroke:#000000;stroke-width:0.8;"/>
      </defs>
      <g>
       <use style="stroke:#000000;stroke-width:0.8;" x="48.17" xlink:href="#me0aa124777" y="285.098864"/>
      </g>
     </g>
     <g id="text_9">
      <!-- 0 -->
      <g transform="translate(28.445 292.697301)scale(0.2 -0.2)">
       <use xlink:href="#DejaVuSans-48"/>
      </g>
     </g>
    </g>
    <g id="ytick_2">
     <g id="line2d_9">
      <g>
       <use style="stroke:#000000;stroke-width:0.8;" x="48.17" xlink:href="#me0aa124777" y="228.293813"/>
      </g>
     </g>
     <g id="text_10">
      <!-- 1 -->
      <g transform="translate(28.445 235.892251)scale(0.2 -0.2)">
       <use xlink:href="#DejaVuSans-49"/>
      </g>
     </g>
    </g>
    <g id="ytick_3">
     <g id="line2d_10">
      <g>
       <use style="stroke:#000000;stroke-width:0.8;" x="48.17" xlink:href="#me0aa124777" y="171.488763"/>
      </g>
     </g>
     <g id="text_11">
      <!-- 2 -->
      <g transform="translate(28.445 179.0872)scale(0.2 -0.2)">
       <use xlink:href="#DejaVuSans-50"/>
      </g>
     </g>
    </g>
    <g id="ytick_4">
     <g id="line2d_11">
      <g>
       <use style="stroke:#000000;stroke-width:0.8;" x="48.17" xlink:href="#me0aa124777" y="114.683712"/>
      </g>
     </g>
     <g id="text_12">
      <!-- 3 -->
      <g transform="translate(28.445 122.28215)scale(0.2 -0.2)">
       <use xlink:href="#DejaVuSans-51"/>
      </g>
     </g>
    </g>
    <g id="ytick_5">
     <g id="line2d_12">
      <g>
       <use style="stroke:#000000;stroke-width:0.8;" x="48.17" xlink:href="#me0aa124777" y="57.878662"/>
      </g>
     </g>
     <g id="text_13">
      <!-- 4 -->
      <g transform="translate(28.445 65.477099)scale(0.2 -0.2)">
       <use xlink:href="#DejaVuSans-52"/>
      </g>
     </g>
    </g>
    <g id="text_14">
     <!-- # of attacker (top is total, bottom is inside) -->
     <defs>
      <path d="M 18.3125 70.21875 
L 18.3125 54.6875 
L 36.8125 54.6875 
L 36.8125 47.703125 
L 18.3125 47.703125 
L 18.3125 18.015625 
Q 18.3125 11.328125 20.140625 9.421875 
Q 21.96875 7.515625 27.59375 7.515625 
L 36.8125 7.515625 
L 36.8125 0 
L 27.59375 0 
Q 17.1875 0 13.234375 3.875 
Q 9.28125 7.765625 9.28125 18.015625 
L 9.28125 47.703125 
L 2.6875 47.703125 
L 2.6875 54.6875 
L 9.28125 54.6875 
L 9.28125 70.21875 
z
" id="DejaVuSans-116"/>
      <path d="M 48.78125 52.59375 
L 48.78125 44.1875 
Q 44.96875 46.296875 41.140625 47.34375 
Q 37.3125 48.390625 33.40625 48.390625 
Q 24.65625 48.390625 19.8125 42.84375 
Q 14.984375 37.3125 14.984375 27.296875 
Q 14.984375 17.28125 19.8125 11.734375 
Q 24.65625 6.203125 33.40625 6.203125 
Q 37.3125 6.203125 41.140625 7.25 
Q 44.96875 8.296875 48.78125 10.40625 
L 48.78125 2.09375 
Q 45.015625 0.34375 40.984375 -0.53125 
Q 36.96875 -1.421875 32.421875 -1.421875 
Q 20.0625 -1.421875 12.78125 6.34375 
Q 5.515625 14.109375 5.515625 27.296875 
Q 5.515625 40.671875 12.859375 48.328125 
Q 20.21875 56 33.015625 56 
Q 37.15625 56 41.109375 55.140625 
Q 45.0625 54.296875 48.78125 52.59375 
z
" id="DejaVuSans-99"/>
      <path d="M 9.078125 75.984375 
L 18.109375 75.984375 
L 18.109375 31.109375 
L 44.921875 54.6875 
L 56.390625 54.6875 
L 27.390625 29.109375 
L 57.625 0 
L 45.90625 0 
L 18.109375 26.703125 
L 18.109375 0 
L 9.078125 0 
z
" id="DejaVuSans-107"/>
      <path d="M 41.109375 46.296875 
Q 39.59375 47.171875 37.8125 47.578125 
Q 36.03125 48 33.890625 48 
Q 26.265625 48 22.1875 43.046875 
Q 18.109375 38.09375 18.109375 28.8125 
L 18.109375 0 
L 9.078125 0 
L 9.078125 54.6875 
L 18.109375 54.6875 
L 18.109375 46.1875 
Q 20.953125 51.171875 25.484375 53.578125 
Q 30.03125 56 36.53125 56 
Q 37.453125 56 38.578125 55.875 
Q 39.703125 55.765625 41.0625 55.515625 
z
" id="DejaVuSans-114"/>
      <path d="M 31 75.875 
Q 24.46875 64.65625 21.28125 53.65625 
Q 18.109375 42.671875 18.109375 31.390625 
Q 18.109375 20.125 21.3125 9.0625 
Q 24.515625 -2 31 -13.1875 
L 23.1875 -13.1875 
Q 15.875 -1.703125 12.234375 9.375 
Q 8.59375 20.453125 8.59375 31.390625 
Q 8.59375 42.28125 12.203125 53.3125 
Q 15.828125 64.359375 23.1875 75.875 
z
" id="DejaVuSans-40"/>
      <path d="M 18.109375 8.203125 
L 18.109375 -20.796875 
L 9.078125 -20.796875 
L 9.078125 54.6875 
L 18.109375 54.6875 
L 18.109375 46.390625 
Q 20.953125 51.265625 25.265625 53.625 
Q 29.59375 56 35.59375 56 
Q 45.5625 56 51.78125 48.09375 
Q 58.015625 40.1875 58.015625 27.296875 
Q 58.015625 14.40625 51.78125 6.484375 
Q 45.5625 -1.421875 35.59375 -1.421875 
Q 29.59375 -1.421875 25.265625 0.953125 
Q 20.953125 3.328125 18.109375 8.203125 
z
M 48.6875 27.296875 
Q 48.6875 37.203125 44.609375 42.84375 
Q 40.53125 48.484375 33.40625 48.484375 
Q 26.265625 48.484375 22.1875 42.84375 
Q 18.109375 37.203125 18.109375 27.296875 
Q 18.109375 17.390625 22.1875 11.75 
Q 26.265625 6.109375 33.40625 6.109375 
Q 40.53125 6.109375 44.609375 11.75 
Q 48.6875 17.390625 48.6875 27.296875 
z
" id="DejaVuSans-112"/>
      <path d="M 9.421875 54.6875 
L 18.40625 54.6875 
L 18.40625 0 
L 9.421875 0 
z
M 9.421875 75.984375 
L 18.40625 75.984375 
L 18.40625 64.59375 
L 9.421875 64.59375 
z
" id="DejaVuSans-105"/>
      <path d="M 44.28125 53.078125 
L 44.28125 44.578125 
Q 40.484375 46.53125 36.375 47.5 
Q 32.28125 48.484375 27.875 48.484375 
Q 21.1875 48.484375 17.84375 46.4375 
Q 14.5 44.390625 14.5 40.28125 
Q 14.5 37.15625 16.890625 35.375 
Q 19.28125 33.59375 26.515625 31.984375 
L 29.59375 31.296875 
Q 39.15625 29.25 43.1875 25.515625 
Q 47.21875 21.78125 47.21875 15.09375 
Q 47.21875 7.46875 41.1875 3.015625 
Q 35.15625 -1.421875 24.609375 -1.421875 
Q 20.21875 -1.421875 15.453125 -0.5625 
Q 10.6875 0.296875 5.421875 2 
L 5.421875 11.28125 
Q 10.40625 8.6875 15.234375 7.390625 
Q 20.0625 6.109375 24.8125 6.109375 
Q 31.15625 6.109375 34.5625 8.28125 
Q 37.984375 10.453125 37.984375 14.40625 
Q 37.984375 18.0625 35.515625 20.015625 
Q 33.0625 21.96875 24.703125 23.78125 
L 21.578125 24.515625 
Q 13.234375 26.265625 9.515625 29.90625 
Q 5.8125 33.546875 5.8125 39.890625 
Q 5.8125 47.609375 11.28125 51.796875 
Q 16.75 56 26.8125 56 
Q 31.78125 56 36.171875 55.265625 
Q 40.578125 54.546875 44.28125 53.078125 
z
" id="DejaVuSans-115"/>
      <path d="M 9.421875 75.984375 
L 18.40625 75.984375 
L 18.40625 0 
L 9.421875 0 
z
" id="DejaVuSans-108"/>
      <path d="M 11.71875 12.40625 
L 22.015625 12.40625 
L 22.015625 4 
L 14.015625 -11.625 
L 7.71875 -11.625 
L 11.71875 4 
z
" id="DejaVuSans-44"/>
      <path d="M 48.6875 27.296875 
Q 48.6875 37.203125 44.609375 42.84375 
Q 40.53125 48.484375 33.40625 48.484375 
Q 26.265625 48.484375 22.1875 42.84375 
Q 18.109375 37.203125 18.109375 27.296875 
Q 18.109375 17.390625 22.1875 11.75 
Q 26.265625 6.109375 33.40625 6.109375 
Q 40.53125 6.109375 44.609375 11.75 
Q 48.6875 17.390625 48.6875 27.296875 
z
M 18.109375 46.390625 
Q 20.953125 51.265625 25.265625 53.625 
Q 29.59375 56 35.59375 56 
Q 45.5625 56 51.78125 48.09375 
Q 58.015625 40.1875 58.015625 27.296875 
Q 58.015625 14.40625 51.78125 6.484375 
Q 45.5625 -1.421875 35.59375 -1.421875 
Q 29.59375 -1.421875 25.265625 0.953125 
Q 20.953125 3.328125 18.109375 8.203125 
L 18.109375 0 
L 9.078125 0 
L 9.078125 75.984375 
L 18.109375 75.984375 
z
" id="DejaVuSans-98"/>
      <path d="M 54.890625 33.015625 
L 54.890625 0 
L 45.90625 0 
L 45.90625 32.71875 
Q 45.90625 40.484375 42.875 44.328125 
Q 39.84375 48.1875 33.796875 48.1875 
Q 26.515625 48.1875 22.3125 43.546875 
Q 18.109375 38.921875 18.109375 30.90625 
L 18.109375 0 
L 9.078125 0 
L 9.078125 54.6875 
L 18.109375 54.6875 
L 18.109375 46.1875 
Q 21.34375 51.125 25.703125 53.5625 
Q 30.078125 56 35.796875 56 
Q 45.21875 56 50.046875 50.171875 
Q 54.890625 44.34375 54.890625 33.015625 
z
" id="DejaVuSans-110"/>
      <path d="M 45.40625 46.390625 
L 45.40625 75.984375 
L 54.390625 75.984375 
L 54.390625 0 
L 45.40625 0 
L 45.40625 8.203125 
Q 42.578125 3.328125 38.25 0.953125 
Q 33.9375 -1.421875 27.875 -1.421875 
Q 17.96875 -1.421875 11.734375 6.484375 
Q 5.515625 14.40625 5.515625 27.296875 
Q 5.515625 40.1875 11.734375 48.09375 
Q 17.96875 56 27.875 56 
Q 33.9375 56 38.25 53.625 
Q 42.578125 51.265625 45.40625 46.390625 
z
M 14.796875 27.296875 
Q 14.796875 17.390625 18.875 11.75 
Q 22.953125 6.109375 30.078125 6.109375 
Q 37.203125 6.109375 41.296875 11.75 
Q 45.40625 17.390625 45.40625 27.296875 
Q 45.40625 37.203125 41.296875 42.84375 
Q 37.203125 48.484375 30.078125 48.484375 
Q 22.953125 48.484375 18.875 42.84375 
Q 14.796875 37.203125 14.796875 27.296875 
z
" id="DejaVuSans-100"/>
      <path d="M 8.015625 75.875 
L 15.828125 75.875 
Q 23.140625 64.359375 26.78125 53.3125 
Q 30.421875 42.28125 30.421875 31.390625 
Q 30.421875 20.453125 26.78125 9.375 
Q 23.140625 -1.703125 15.828125 -13.1875 
L 8.015625 -13.1875 
Q 14.5 -2 17.703125 9.0625 
Q 20.90625 20.125 20.90625 31.390625 
Q 20.90625 42.671875 17.703125 53.65625 
Q 14.5 64.65625 8.015625 75.875 
z
" id="DejaVuSans-41"/>
     </defs>
     <g transform="translate(21.672083 302.001042)rotate(-90)scale(0.133333 -0.133333)">
      <use xlink:href="#DejaVuSans-35"/>
      <use x="83.789062" xlink:href="#DejaVuSans-32"/>
      <use x="115.576172" xlink:href="#DejaVuSans-111"/>
      <use x="176.757812" xlink:href="#DejaVuSans-102"/>
      <use x="211.962891" xlink:href="#DejaVuSans-32"/>
      <use x="243.75" xlink:href="#DejaVuSans-97"/>
      <use x="305.029297" xlink:href="#DejaVuSans-116"/>
      <use x="344.238281" xlink:href="#DejaVuSans-116"/>
      <use x="383.447266" xlink:href="#DejaVuSans-97"/>
      <use x="444.726562" xlink:href="#DejaVuSans-99"/>
      <use x="499.707031" xlink:href="#DejaVuSans-107"/>
      <use x="557.570312" xlink:href="#DejaVuSans-101"/>
      <use x="619.09375" xlink:href="#DejaVuSans-114"/>
      <use x="660.207031" xlink:href="#DejaVuSans-32"/>
      <use x="691.994141" xlink:href="#DejaVuSans-40"/>
      <use x="731.007812" xlink:href="#DejaVuSans-116"/>
      <use x="770.216797" xlink:href="#DejaVuSans-111"/>
      <use x="831.398438" xlink:href="#DejaVuSans-112"/>
      <use x="894.875" xlink:href="#DejaVuSans-32"/>
      <use x="926.662109" xlink:href="#DejaVuSans-105"/>
      <use x="954.445312" xlink:href="#DejaVuSans-115"/>
      <use x="1006.544922" xlink:href="#DejaVuSans-32"/>
      <use x="1038.332031" xlink:href="#DejaVuSans-116"/>
      <use x="1077.541016" xlink:href="#DejaVuSans-111"/>
      <use x="1138.722656" xlink:href="#DejaVuSans-116"/>
      <use x="1177.931641" xlink:href="#DejaVuSans-97"/>
      <use x="1239.210938" xlink:href="#DejaVuSans-108"/>
      <use x="1266.994141" xlink:href="#DejaVuSans-44"/>
      <use x="1298.78125" xlink:href="#DejaVuSans-32"/>
      <use x="1330.568359" xlink:href="#DejaVuSans-98"/>
      <use x="1394.044922" xlink:href="#DejaVuSans-111"/>
      <use x="1455.226562" xlink:href="#DejaVuSans-116"/>
      <use x="1494.435547" xlink:href="#DejaVuSans-116"/>
      <use x="1533.644531" xlink:href="#DejaVuSans-111"/>
      <use x="1594.826172" xlink:href="#DejaVuSans-109"/>
      <use x="1692.238281" xlink:href="#DejaVuSans-32"/>
      <use x="1724.025391" xlink:href="#DejaVuSans-105"/>
      <use x="1751.808594" xlink:href="#DejaVuSans-115"/>
      <use x="1803.908203" xlink:href="#DejaVuSans-32"/>
      <use x="1835.695312" xlink:href="#DejaVuSans-105"/>
      <use x="1863.478516" xlink:href="#DejaVuSans-110"/>
      <use x="1926.857422" xlink:href="#DejaVuSans-115"/>
      <use x="1978.957031" xlink:href="#DejaVuSans-105"/>
      <use x="2006.740234" xlink:href="#DejaVuSans-100"/>
      <use x="2070.216797" xlink:href="#DejaVuSans-101"/>
      <use x="2131.740234" xlink:href="#DejaVuSans-41"/>
     </g>
    </g>
   </g>
   <g id="line2d_13">
    <path clip-path="url(#p36e1a7da79)" d="M 48.17 228.293813 
L 55.975667 221.590817 
L 63.781333 215.058236 
L 71.587 209.548146 
L 79.392667 203.640421 
L 87.198333 198.698382 
L 95.004 193.813147 
L 102.809667 189.439159 
L 110.615333 185.349195 
L 118.421 181.041564 
L 126.226667 177.083632 
L 134.032333 173.395748 
L 141.838 169.472717 
L 149.643667 164.773198 
L 157.449333 163.263597 
L 165.255 159.034549 
L 173.060667 153.718596 
L 180.866333 150.86123 
L 188.672 147.79095 
L 196.477667 144.499056 
L 204.283333 141.754036 
L 212.089 138.053611 
L 219.894667 136.767473 
L 227.700333 135.803539 
L 235.506 134.761359 
L 243.311667 133.997429 
L 251.117333 132.633263 
L 258.923 132.237204 
L 266.728667 130.792607 
L 274.534333 131.39108 
L 282.34 127.225087 
L 290.145667 122.985989 
L 297.951333 124.068894 
L 305.757 125.810475 
L 313.562667 126.460369 
L 321.368333 133.061817 
L 329.174 134.97123 
L 336.979667 127.701536 
L 344.785333 127.593951 
L 352.591 121.175718 
L 360.396667 121.784343 
L 368.202333 105.216204 
L 376.008 101.773473 
L 383.813667 84.61045 
L 391.619333 75.63024 
L 399.425 88.863235 
L 407.230667 100.482449 
L 415.036333 90.33869 
L 422.842 105.216204 
L 430.647667 103.322702 
L 438.453333 91.961692 
L 446.259 91.961692 
L 454.064667 128.884975 
L 461.870333 114.683712 
L 469.676 114.683712 
L 477.481667 114.683712 
L 485.287333 76.813678 
L 493.093 57.878662 
L 500.898667 86.281187 
L 508.704333 57.878662 
L 516.51 57.878662 
L 524.315667 114.683712 
L 532.121333 114.683712 
L 539.927 114.683712 
L 541 114.683712 
" style="fill:none;stroke:#1f77b4;stroke-linecap:square;stroke-width:1.5;"/>
   </g>
   <g id="line2d_14">
    <path clip-path="url(#p36e1a7da79)" d="M 48.17 285.098864 
L 55.975667 285.098864 
L 63.781333 284.644423 
L 71.587 281.576951 
L 79.392667 277.657402 
L 87.198333 272.317727 
L 95.004 267.716518 
L 102.809667 264.819461 
L 110.615333 261.695183 
L 118.421 257.293388 
L 126.226667 253.356544 
L 134.032333 250.137464 
L 141.838 246.201042 
L 149.643667 243.450041 
L 157.449333 239.410639 
L 165.255 238.049614 
L 173.060667 233.795873 
L 180.866333 230.03922 
L 188.672 228.990808 
L 196.477667 227.611763 
L 204.283333 225.309683 
L 212.089 224.244573 
L 219.894667 222.038875 
L 227.700333 222.030692 
L 235.506 220.458634 
L 243.311667 219.015655 
L 251.117333 219.213452 
L 258.923 219.273269 
L 266.728667 218.684999 
L 274.534333 220.608424 
L 282.34 217.965622 
L 290.145667 216.932803 
L 297.951333 212.48719 
L 305.757 211.31086 
L 313.562667 219.980879 
L 321.368333 215.763287 
L 329.174 217.135678 
L 336.979667 218.826305 
L 344.785333 214.092551 
L 352.591 203.948791 
L 360.396667 205.216761 
L 368.202333 202.258165 
L 376.008 189.563097 
L 383.813667 184.854657 
L 391.619333 175.039078 
L 399.425 181.816954 
L 407.230667 185.690025 
L 415.036333 195.833784 
L 422.842 209.358796 
L 430.647667 216.932803 
L 438.453333 216.932803 
L 446.259 216.932803 
L 454.064667 242.495076 
L 461.870333 228.293813 
L 469.676 247.22883 
L 477.481667 228.293813 
L 485.287333 228.293813 
L 493.093 209.358796 
L 500.898667 256.696338 
L 508.704333 228.293813 
L 516.51 199.891288 
L 524.315667 228.293813 
L 532.121333 228.293813 
L 539.927 171.488763 
L 541 171.488763 
" style="fill:none;stroke:#1f77b4;stroke-linecap:square;stroke-width:1.5;"/>
   </g>
   <g id="line2d_15">
    <path clip-path="url(#p36e1a7da79)" d="M 48.17 228.293813 
L 55.975667 223.976629 
L 63.781333 218.182514 
L 71.587 212.502009 
L 79.392667 207.275944 
L 87.198333 202.39071 
L 95.004 196.99423 
L 102.809667 192.677046 
L 110.615333 187.848617 
L 118.421 184.238594 
L 126.226667 180.536341 
L 134.032333 176.280246 
L 141.838 174.100489 
L 149.643667 170.255211 
L 157.449333 167.84908 
L 165.255 165.321749 
L 173.060667 161.094024 
L 180.866333 157.997563 
L 188.672 156.670054 
L 196.477667 152.92685 
L 204.283333 150.916123 
L 212.089 150.637702 
L 219.894667 151.219119 
L 227.700333 148.57694 
L 235.506 146.837514 
L 243.311667 144.644913 
L 251.117333 146.264142 
L 258.923 144.651731 
L 266.728667 142.958872 
L 274.534333 144.357992 
L 282.34 142.139487 
L 290.145667 140.661632 
L 297.951333 136.648332 
L 305.757 137.903295 
L 313.562667 134.902459 
L 321.368333 130.277255 
L 329.174 128.049606 
L 336.979667 121.175718 
L 344.785333 123.845817 
L 352.591 124.151221 
L 360.396667 117.208381 
L 368.202333 117.839548 
L 376.008 110.896709 
L 383.813667 110.139308 
L 391.619333 112.101664 
L 399.425 111.342239 
L 407.230667 114.683712 
L 415.036333 126.044722 
L 422.842 86.281187 
L 430.647667 103.322702 
L 438.453333 91.961692 
L 446.259 91.961692 
L 454.064667 152.553746 
L 461.870333 143.086237 
L 469.676 143.086237 
L 477.481667 171.488763 
L 485.287333 171.488763 
L 493.093 171.488763 
L 500.898667 228.293813 
L 508.704333 228.293813 
L 516.51 171.488763 
L 524.315667 171.488763 
" style="fill:none;stroke:#ff7f0e;stroke-linecap:square;stroke-width:1.5;"/>
   </g>
   <g id="line2d_16">
    <path clip-path="url(#p36e1a7da79)" d="M 48.17 285.098864 
L 55.975667 285.098864 
L 63.781333 280.497655 
L 71.587 277.089352 
L 79.392667 273.510633 
L 87.198333 268.739009 
L 95.004 265.444316 
L 102.809667 261.127132 
L 110.615333 258.5141 
L 118.421 254.818015 
L 126.226667 251.141812 
L 134.032333 247.402016 
L 141.838 244.557746 
L 149.643667 241.554493 
L 157.449333 240.057788 
L 165.255 236.996155 
L 173.060667 235.614052 
L 180.866333 234.289902 
L 188.672 232.466898 
L 196.477667 230.718988 
L 204.283333 228.907922 
L 212.089 228.51923 
L 219.894667 229.545026 
L 227.700333 227.344803 
L 235.506 224.619093 
L 243.311667 220.673623 
L 251.117333 221.739384 
L 258.923 222.031839 
L 266.728667 223.963383 
L 274.534333 226.59814 
L 282.34 227.031479 
L 290.145667 222.751857 
L 297.951333 219.583705 
L 305.757 222.074282 
L 313.562667 225.405421 
L 321.368333 224.395427 
L 329.174 221.610866 
L 336.979667 225.04781 
L 344.785333 223.712761 
L 352.591 221.982141 
L 360.396667 220.719806 
L 368.202333 220.404223 
L 376.008 209.358796 
L 383.813667 210.116197 
L 391.619333 212.801527 
L 399.425 204.903498 
L 407.230667 210.815336 
L 415.036333 211.252298 
L 422.842 218.826305 
L 430.647667 205.571793 
L 438.453333 205.571793 
L 446.259 194.210783 
L 454.064667 247.22883 
L 461.870333 228.293813 
L 469.676 199.891288 
L 477.481667 228.293813 
L 485.287333 228.293813 
L 493.093 228.293813 
L 500.898667 285.098864 
L 508.704333 285.098864 
L 516.51 285.098864 
L 524.315667 228.293813 
" style="fill:none;stroke:#ff7f0e;stroke-linecap:square;stroke-width:1.5;"/>
   </g>
   <g id="line2d_17">
    <path clip-path="url(#p36e1a7da79)" d="M 48.17 228.293813 
L 55.975667 222.329283 
L 63.781333 216.421558 
L 71.587 210.911468 
L 79.392667 205.855818 
L 87.198333 200.686559 
L 95.004 194.949248 
L 102.809667 190.57526 
L 110.615333 186.258076 
L 118.421 182.235664 
L 126.226667 178.474868 
L 134.032333 174.331916 
L 141.838 170.728242 
L 149.643667 167.393101 
L 157.449333 162.590117 
L 165.255 157.554264 
L 173.060667 153.131424 
L 180.866333 150.203343 
L 188.672 146.385692 
L 196.477667 144.311994 
L 204.283333 141.78204 
L 212.089 139.223494 
L 219.894667 135.681993 
L 227.700333 132.043075 
L 235.506 129.246926 
L 243.311667 128.705212 
L 251.117333 127.29652 
L 258.923 125.925342 
L 266.728667 124.079224 
L 274.534333 119.784574 
L 282.34 119.119681 
L 290.145667 120.458221 
L 297.951333 117.81582 
L 305.757 116.072966 
L 313.562667 115.183463 
L 321.368333 114.317228 
L 329.174 110.725172 
L 336.979667 108.39613 
L 344.785333 107.84825 
L 352.591 107.970388 
L 360.396667 107.798251 
L 368.202333 110.314093 
L 376.008 109.550726 
L 383.813667 109.273707 
L 391.619333 106.688927 
L 399.425 104.905794 
L 407.230667 107.970388 
L 415.036333 105.944474 
L 422.842 108.241902 
L 430.647667 102.691535 
L 438.453333 101.902576 
L 446.259 102.23329 
L 454.064667 102.448778 
L 461.870333 98.158607 
L 469.676 97.976344 
L 477.481667 103.569681 
L 485.287333 93.546949 
L 493.093 96.260452 
L 500.898667 89.62266 
L 508.704333 96.424946 
L 516.51 101.574854 
L 524.315667 122.798719 
L 532.121333 123.652931 
L 539.927 120.995384 
L 541 121.046421 
" style="fill:none;stroke:#2ca02c;stroke-linecap:square;stroke-width:1.5;"/>
   </g>
   <g id="line2d_18">
    <path clip-path="url(#p36e1a7da79)" d="M 48.17 285.098864 
L 55.975667 285.098864 
L 63.781333 284.814838 
L 71.587 281.46334 
L 79.392667 277.714207 
L 87.198333 272.772168 
L 95.004 268.114154 
L 102.809667 263.91058 
L 110.615333 260.331862 
L 118.421 255.814979 
L 126.226667 253.546865 
L 134.032333 250.400784 
L 141.838 246.838819 
L 149.643667 243.251883 
L 157.449333 240.544688 
L 165.255 238.148391 
L 173.060667 234.198971 
L 180.866333 229.677695 
L 188.672 226.729123 
L 196.477667 223.110615 
L 204.283333 220.975816 
L 212.089 218.523344 
L 219.894667 215.91423 
L 227.700333 213.297932 
L 235.506 210.83499 
L 243.311667 209.238954 
L 251.117333 207.715022 
L 258.923 206.407454 
L 266.728667 204.103069 
L 274.534333 202.093933 
L 282.34 199.952899 
L 290.145667 201.167051 
L 297.951333 199.677735 
L 305.757 198.038949 
L 313.562667 196.809489 
L 321.368333 197.692383 
L 329.174 196.427565 
L 336.979667 193.603706 
L 344.785333 192.937973 
L 352.591 193.694373 
L 360.396667 196.735452 
L 368.202333 200.203404 
L 376.008 200.917885 
L 383.813667 200.084502 
L 391.619333 200.943233 
L 399.425 204.081824 
L 407.230667 204.022564 
L 415.036333 198.252681 
L 422.842 200.769716 
L 430.647667 196.735452 
L 438.453333 192.790657 
L 446.259 190.942547 
L 454.064667 188.093316 
L 461.870333 179.751315 
L 469.676 181.513183 
L 477.481667 185.072579 
L 485.287333 188.662383 
L 493.093 192.982566 
L 500.898667 193.208341 
L 508.704333 189.747529 
L 516.51 191.152049 
L 524.315667 203.948791 
L 532.121333 201.386158 
L 539.927 199.891288 
L 541 200.120954 
" style="fill:none;stroke:#2ca02c;stroke-linecap:square;stroke-width:1.5;"/>
   </g>
   <g id="line2d_19">
    <path clip-path="url(#p36e1a7da79)" d="M 48.17 228.293813 
L 55.975667 222.897333 
L 63.781333 216.875998 
L 71.587 211.536323 
L 79.392667 206.423869 
L 87.198333 201.45499 
L 95.004 197.360933 
L 102.809667 192.59104 
L 110.615333 188.784801 
L 118.421 184.170549 
L 126.226667 179.30166 
L 134.032333 174.931493 
L 141.838 171.367254 
L 149.643667 167.071283 
L 157.449333 163.464731 
L 165.255 158.374911 
L 173.060667 154.953959 
L 180.866333 151.077691 
L 188.672 146.368941 
L 196.477667 143.012656 
L 204.283333 139.641187 
L 212.089 136.323731 
L 219.894667 133.260945 
L 227.700333 130.024582 
L 235.506 128.265534 
L 243.311667 126.27658 
L 251.117333 123.760282 
L 258.923 122.474119 
L 266.728667 123.112104 
L 274.534333 122.093067 
L 282.34 122.310316 
L 290.145667 122.480484 
L 297.951333 120.079443 
L 305.757 119.994099 
L 313.562667 121.313955 
L 321.368333 122.854302 
L 329.174 122.73816 
L 336.979667 123.09086 
L 344.785333 127.278497 
L 352.591 127.529075 
L 360.396667 129.434195 
L 368.202333 126.67981 
L 376.008 123.39382 
L 383.813667 122.678497 
L 391.619333 122.59917 
L 399.425 128.13754 
L 407.230667 126.700165 
L 415.036333 126.518098 
L 422.842 125.904463 
L 430.647667 126.64267 
L 438.453333 130.325683 
L 446.259 135.17078 
L 454.064667 128.884975 
L 461.870333 118.970886 
L 469.676 119.320859 
L 477.481667 114.683712 
L 485.287333 118.944091 
L 493.093 113.14844 
L 500.898667 106.330028 
L 508.704333 114.683712 
L 516.51 116.787603 
L 524.315667 117.388715 
L 532.121333 105.216204 
L 539.927 104.659291 
L 541 103.109042 
" style="fill:none;stroke:#d62728;stroke-linecap:square;stroke-width:1.5;"/>
   </g>
   <g id="line2d_20">
    <path clip-path="url(#p36e1a7da79)" d="M 48.17 285.098864 
L 55.975667 285.098864 
L 63.781333 279.588774 
L 71.587 275.953251 
L 79.392667 272.260922 
L 87.198333 268.950081 
L 95.004 266.732466 
L 102.809667 262.627789 
L 110.615333 258.778805 
L 118.421 255.235303 
L 126.226667 251.556274 
L 134.032333 247.169473 
L 141.838 242.753281 
L 149.643667 239.119748 
L 157.449333 235.235237 
L 165.255 232.383777 
L 173.060667 228.893866 
L 180.866333 225.5954 
L 188.672 221.657042 
L 196.477667 217.992379 
L 204.283333 215.202622 
L 212.089 213.177623 
L 219.894667 211.120193 
L 227.700333 208.657499 
L 235.506 207.278698 
L 243.311667 205.3979 
L 251.117333 203.715685 
L 258.923 201.89299 
L 266.728667 202.084979 
L 274.534333 198.409417 
L 282.34 197.787397 
L 290.145667 196.410586 
L 297.951333 195.020142 
L 305.757 193.856757 
L 313.562667 194.425818 
L 321.368333 194.444228 
L 329.174 192.684677 
L 336.979667 193.074682 
L 344.785333 196.935369 
L 352.591 197.179489 
L 360.396667 198.165168 
L 368.202333 194.069652 
L 376.008 193.453382 
L 383.813667 193.369227 
L 391.619333 194.303906 
L 399.425 195.904969 
L 407.230667 196.067871 
L 415.036333 195.157534 
L 422.842 196.735452 
L 430.647667 195.406679 
L 438.453333 199.479657 
L 446.259 201.288133 
L 454.064667 197.862536 
L 461.870333 191.852837 
L 469.676 190.037351 
L 477.481667 191.247041 
L 485.287333 185.690025 
L 493.093 185.306207 
L 500.898667 179.842447 
L 508.704333 188.530278 
L 516.51 186.215998 
L 524.315667 190.423779 
L 532.121333 196.735452 
L 539.927 191.537604 
L 541 190.24573 
" style="fill:none;stroke:#d62728;stroke-linecap:square;stroke-width:1.5;"/>
   </g>
   <g id="line2d_21">
    <path clip-path="url(#p36e1a7da79)" d="M 48.17 228.293813 
L 55.975667 223.578994 
L 63.781333 217.671269 
L 71.587 212.729229 
L 79.392667 206.594284 
L 87.198333 200.516143 
L 95.004 195.801324 
L 102.809667 189.85516 
L 110.615333 184.680726 
L 118.421 178.775875 
L 126.226667 174.543429 
L 134.032333 170.512521 
L 141.838 165.913209 
L 149.643667 162.199886 
L 157.449333 158.367817 
L 165.255 152.760848 
L 173.060667 149.282251 
L 180.866333 144.449559 
L 188.672 137.84568 
L 196.477667 134.113116 
L 204.283333 130.864545 
L 212.089 128.479224 
L 219.894667 127.993682 
L 227.700333 128.538602 
L 235.506 122.798719 
L 243.311667 120.995384 
L 251.117333 117.647454 
L 258.923 112.291921 
L 266.728667 111.770633 
L 274.534333 110.50687 
L 282.34 112.690552 
L 290.145667 113.475094 
L 297.951333 113.263586 
L 305.757 129.831726 
L 313.562667 151.730484 
L 321.368333 149.39791 
L 329.174 152.553746 
L 336.979667 146.242074 
L 344.785333 146.242074 
L 352.591 139.930401 
L 360.396667 163.373755 
L 368.202333 143.086237 
L 376.008 133.618729 
L 383.813667 114.683712 
L 391.619333 171.488763 
L 399.425 152.553746 
L 407.230667 152.553746 
L 415.036333 152.553746 
L 422.842 143.086237 
L 430.647667 143.086237 
L 438.453333 143.086237 
L 446.259 114.683712 
" style="fill:none;stroke:#9467bd;stroke-linecap:square;stroke-width:1.5;"/>
   </g>
   <g id="line2d_22">
    <path clip-path="url(#p36e1a7da79)" d="M 48.17 285.098864 
L 55.975667 285.098864 
L 63.781333 284.303593 
L 71.587 283.508322 
L 79.392667 282.031391 
L 87.198333 280.78168 
L 95.004 278.963918 
L 102.809667 277.422505 
L 110.615333 274.806857 
L 118.421 272.073867 
L 126.226667 269.884274 
L 134.032333 267.709562 
L 141.838 264.239734 
L 149.643667 262.305391 
L 157.449333 258.306993 
L 165.255 256.252549 
L 173.060667 253.276139 
L 180.866333 251.924714 
L 188.672 248.997248 
L 196.477667 245.35016 
L 204.283333 242.581144 
L 212.089 240.263449 
L 219.894667 238.276291 
L 227.700333 241.040312 
L 235.506 235.73257 
L 243.311667 235.026264 
L 251.117333 233.72734 
L 258.923 231.283553 
L 266.728667 234.119972 
L 274.534333 227.458445 
L 282.34 231.283553 
L 290.145667 230.711049 
L 297.951333 224.033434 
L 305.757 222.613308 
L 313.562667 233.233383 
L 321.368333 231.449649 
L 329.174 243.441827 
L 336.979667 247.22883 
L 344.785333 253.540502 
L 352.591 253.540502 
L 360.396667 260.753842 
L 368.202333 266.163847 
L 376.008 266.163847 
L 383.813667 273.737854 
L 391.619333 228.293813 
L 399.425 228.293813 
L 407.230667 228.293813 
L 415.036333 228.293813 
L 422.842 199.891288 
L 430.647667 171.488763 
L 438.453333 171.488763 
L 446.259 171.488763 
" style="fill:none;stroke:#9467bd;stroke-linecap:square;stroke-width:1.5;"/>
   </g>
   <g id="line2d_23">
    <path clip-path="url(#p36e1a7da79)" d="M 48.17 228.293813 
L 55.975667 221.477207 
L 63.781333 216.932803 
L 71.587 210.58041 
L 79.392667 202.881027 
L 87.198333 171.488763 
" style="fill:none;stroke:#8c564b;stroke-linecap:square;stroke-width:1.5;"/>
   </g>
   <g id="line2d_24">
    <path clip-path="url(#p36e1a7da79)" d="M 48.17 285.098864 
L 55.975667 285.098864 
L 63.781333 285.098864 
L 71.587 285.098864 
L 79.392667 283.603994 
L 87.198333 285.098864 
" style="fill:none;stroke:#8c564b;stroke-linecap:square;stroke-width:1.5;"/>
   </g>
   <g id="line2d_25">
    <path clip-path="url(#p36e1a7da79)" d="M 48.17 228.293813 
L 55.975667 224.31746 
L 63.781333 216.364753 
L 71.587 213.475104 
L 79.392667 218.59539 
L 87.198333 214.092551 
L 95.004 171.488763 
" style="fill:none;stroke:#e377c2;stroke-linecap:square;stroke-width:1.5;"/>
   </g>
   <g id="line2d_26">
    <path clip-path="url(#p36e1a7da79)" d="M 48.17 285.098864 
L 55.975667 285.098864 
L 63.781333 283.962763 
L 71.587 285.098864 
L 79.392667 285.098864 
L 87.198333 285.098864 
L 95.004 285.098864 
" style="fill:none;stroke:#e377c2;stroke-linecap:square;stroke-width:1.5;"/>
   </g>
   <g id="line2d_27">
    <path clip-path="url(#p36e1a7da79)" d="M 48.17 228.293813 
L 55.975667 228.293813 
L 63.781333 228.293813 
L 71.587 228.293813 
L 79.392667 228.293813 
" style="fill:none;stroke:#7f7f7f;stroke-linecap:square;stroke-width:1.5;"/>
   </g>
   <g id="line2d_28">
    <path clip-path="url(#p36e1a7da79)" d="M 48.17 285.098864 
L 55.975667 285.098864 
L 63.781333 285.098864 
L 71.587 285.098864 
L 79.392667 285.098864 
" style="fill:none;stroke:#7f7f7f;stroke-linecap:square;stroke-width:1.5;"/>
   </g>
   <g id="patch_3">
    <path d="M 48.17 297.88 
L 48.17 16.695 
" style="fill:none;stroke:#000000;stroke-linecap:square;stroke-linejoin:miter;stroke-width:0.8;"/>
   </g>
   <g id="patch_4">
    <path d="M 516.51 297.88 
L 516.51 16.695 
" style="fill:none;stroke:#000000;stroke-linecap:square;stroke-linejoin:miter;stroke-width:0.8;"/>
   </g>
   <g id="patch_5">
    <path d="M 48.17 297.88 
L 516.51 297.88 
" style="fill:none;stroke:#000000;stroke-linecap:square;stroke-linejoin:miter;stroke-width:0.8;"/>
   </g>
   <g id="patch_6">
    <path d="M 48.17 16.695 
L 516.51 16.695 
" style="fill:none;stroke:#000000;stroke-linecap:square;stroke-linejoin:miter;stroke-width:0.8;"/>
   </g>
   <g id="legend_1">
    <g id="patch_7">
     <path d="M 54.7325 134.280937 
L 157.703691 134.280937 
Q 159.578691 134.280937 159.578691 132.405937 
L 159.578691 23.2575 
Q 159.578691 21.3825 157.703691 21.3825 
L 54.7325 21.3825 
Q 52.8575 21.3825 52.8575 23.2575 
L 52.8575 132.405937 
Q 52.8575 134.280937 54.7325 134.280937 
z
" style="fill:#ffffff;opacity:0.8;stroke:#cccccc;stroke-linejoin:miter;"/>
    </g>
    <g id="line2d_29">
     <path d="M 56.6075 28.974785 
L 75.3575 28.974785 
" style="fill:none;stroke:#1f77b4;stroke-linecap:square;stroke-width:1.5;"/>
    </g>
    <g id="line2d_30"/>
    <g id="text_15">
     <!-- HG-DD-IPI -->
     <defs>
      <path d="M 9.8125 72.90625 
L 19.671875 72.90625 
L 19.671875 43.015625 
L 55.515625 43.015625 
L 55.515625 72.90625 
L 65.375 72.90625 
L 65.375 0 
L 55.515625 0 
L 55.515625 34.71875 
L 19.671875 34.71875 
L 19.671875 0 
L 9.8125 0 
z
" id="DejaVuSans-72"/>
      <path d="M 59.515625 10.40625 
L 59.515625 29.984375 
L 43.40625 29.984375 
L 43.40625 38.09375 
L 69.28125 38.09375 
L 69.28125 6.78125 
Q 63.578125 2.734375 56.6875 0.65625 
Q 49.8125 -1.421875 42 -1.421875 
Q 24.90625 -1.421875 15.25 8.5625 
Q 5.609375 18.5625 5.609375 36.375 
Q 5.609375 54.25 15.25 64.234375 
Q 24.90625 74.21875 42 74.21875 
Q 49.125 74.21875 55.546875 72.453125 
Q 61.96875 70.703125 67.390625 67.28125 
L 67.390625 56.78125 
Q 61.921875 61.421875 55.765625 63.765625 
Q 49.609375 66.109375 42.828125 66.109375 
Q 29.4375 66.109375 22.71875 58.640625 
Q 16.015625 51.171875 16.015625 36.375 
Q 16.015625 21.625 22.71875 14.15625 
Q 29.4375 6.6875 42.828125 6.6875 
Q 48.046875 6.6875 52.140625 7.59375 
Q 56.25 8.5 59.515625 10.40625 
z
" id="DejaVuSans-71"/>
      <path d="M 4.890625 31.390625 
L 31.203125 31.390625 
L 31.203125 23.390625 
L 4.890625 23.390625 
z
" id="DejaVuSans-45"/>
      <path d="M 19.671875 64.796875 
L 19.671875 8.109375 
L 31.59375 8.109375 
Q 46.6875 8.109375 53.6875 14.9375 
Q 60.6875 21.78125 60.6875 36.53125 
Q 60.6875 51.171875 53.6875 57.984375 
Q 46.6875 64.796875 31.59375 64.796875 
z
M 9.8125 72.90625 
L 30.078125 72.90625 
Q 51.265625 72.90625 61.171875 64.09375 
Q 71.09375 55.28125 71.09375 36.53125 
Q 71.09375 17.671875 61.125 8.828125 
Q 51.171875 0 30.078125 0 
L 9.8125 0 
z
" id="DejaVuSans-68"/>
      <path d="M 9.8125 72.90625 
L 19.671875 72.90625 
L 19.671875 0 
L 9.8125 0 
z
" id="DejaVuSans-73"/>
      <path d="M 19.671875 64.796875 
L 19.671875 37.40625 
L 32.078125 37.40625 
Q 38.96875 37.40625 42.71875 40.96875 
Q 46.484375 44.53125 46.484375 51.125 
Q 46.484375 57.671875 42.71875 61.234375 
Q 38.96875 64.796875 32.078125 64.796875 
z
M 9.8125 72.90625 
L 32.078125 72.90625 
Q 44.34375 72.90625 50.609375 67.359375 
Q 56.890625 61.8125 56.890625 51.125 
Q 56.890625 40.328125 50.609375 34.8125 
Q 44.34375 29.296875 32.078125 29.296875 
L 19.671875 29.296875 
L 19.671875 0 
L 9.8125 0 
z
" id="DejaVuSans-80"/>
     </defs>
     <g transform="translate(82.8575 32.256035)scale(0.09375 -0.09375)">
      <use xlink:href="#DejaVuSans-72"/>
      <use x="75.195312" xlink:href="#DejaVuSans-71"/>
      <use x="152.685547" xlink:href="#DejaVuSans-45"/>
      <use x="188.769531" xlink:href="#DejaVuSans-68"/>
      <use x="265.771484" xlink:href="#DejaVuSans-68"/>
      <use x="342.773438" xlink:href="#DejaVuSans-45"/>
      <use x="378.857422" xlink:href="#DejaVuSans-73"/>
      <use x="408.349609" xlink:href="#DejaVuSans-80"/>
      <use x="468.652344" xlink:href="#DejaVuSans-73"/>
     </g>
    </g>
    <g id="line2d_31">
     <path d="M 56.6075 42.735527 
L 75.3575 42.735527 
" style="fill:none;stroke:#ff7f0e;stroke-linecap:square;stroke-width:1.5;"/>
    </g>
    <g id="line2d_32"/>
    <g id="text_16">
     <!-- G-DD-PI -->
     <g transform="translate(82.8575 46.016777)scale(0.09375 -0.09375)">
      <use xlink:href="#DejaVuSans-71"/>
      <use x="77.490234" xlink:href="#DejaVuSans-45"/>
      <use x="113.574219" xlink:href="#DejaVuSans-68"/>
      <use x="190.576172" xlink:href="#DejaVuSans-68"/>
      <use x="267.578125" xlink:href="#DejaVuSans-45"/>
      <use x="303.662109" xlink:href="#DejaVuSans-80"/>
      <use x="363.964844" xlink:href="#DejaVuSans-73"/>
     </g>
    </g>
    <g id="line2d_33">
     <path d="M 56.6075 56.49627 
L 75.3575 56.49627 
" style="fill:none;stroke:#2ca02c;stroke-linecap:square;stroke-width:1.5;"/>
    </g>
    <g id="line2d_34"/>
    <g id="text_17">
     <!-- HG-DD-ML-IPI -->
     <defs>
      <path d="M 9.8125 72.90625 
L 24.515625 72.90625 
L 43.109375 23.296875 
L 61.8125 72.90625 
L 76.515625 72.90625 
L 76.515625 0 
L 66.890625 0 
L 66.890625 64.015625 
L 48.09375 14.015625 
L 38.1875 14.015625 
L 19.390625 64.015625 
L 19.390625 0 
L 9.8125 0 
z
" id="DejaVuSans-77"/>
      <path d="M 9.8125 72.90625 
L 19.671875 72.90625 
L 19.671875 8.296875 
L 55.171875 8.296875 
L 55.171875 0 
L 9.8125 0 
z
" id="DejaVuSans-76"/>
     </defs>
     <g transform="translate(82.8575 59.77752)scale(0.09375 -0.09375)">
      <use xlink:href="#DejaVuSans-72"/>
      <use x="75.195312" xlink:href="#DejaVuSans-71"/>
      <use x="152.685547" xlink:href="#DejaVuSans-45"/>
      <use x="188.769531" xlink:href="#DejaVuSans-68"/>
      <use x="265.771484" xlink:href="#DejaVuSans-68"/>
      <use x="342.773438" xlink:href="#DejaVuSans-45"/>
      <use x="378.857422" xlink:href="#DejaVuSans-77"/>
      <use x="465.136719" xlink:href="#DejaVuSans-76"/>
      <use x="520.833984" xlink:href="#DejaVuSans-45"/>
      <use x="556.917969" xlink:href="#DejaVuSans-73"/>
      <use x="586.410156" xlink:href="#DejaVuSans-80"/>
      <use x="646.712891" xlink:href="#DejaVuSans-73"/>
     </g>
    </g>
    <g id="line2d_35">
     <path d="M 56.6075 70.257012 
L 75.3575 70.257012 
" style="fill:none;stroke:#d62728;stroke-linecap:square;stroke-width:1.5;"/>
    </g>
    <g id="line2d_36"/>
    <g id="text_18">
     <!-- G-DD-ML-PI -->
     <g transform="translate(82.8575 73.538262)scale(0.09375 -0.09375)">
      <use xlink:href="#DejaVuSans-71"/>
      <use x="77.490234" xlink:href="#DejaVuSans-45"/>
      <use x="113.574219" xlink:href="#DejaVuSans-68"/>
      <use x="190.576172" xlink:href="#DejaVuSans-68"/>
      <use x="267.578125" xlink:href="#DejaVuSans-45"/>
      <use x="303.662109" xlink:href="#DejaVuSans-77"/>
      <use x="389.941406" xlink:href="#DejaVuSans-76"/>
      <use x="445.638672" xlink:href="#DejaVuSans-45"/>
      <use x="481.722656" xlink:href="#DejaVuSans-80"/>
      <use x="542.025391" xlink:href="#DejaVuSans-73"/>
     </g>
    </g>
    <g id="line2d_37">
     <path d="M 56.6075 84.017754 
L 75.3575 84.017754 
" style="fill:none;stroke:#9467bd;stroke-linecap:square;stroke-width:1.5;"/>
    </g>
    <g id="line2d_38"/>
    <g id="text_19">
     <!-- DD-Random -->
     <defs>
      <path d="M 44.390625 34.1875 
Q 47.5625 33.109375 50.5625 29.59375 
Q 53.5625 26.078125 56.59375 19.921875 
L 66.609375 0 
L 56 0 
L 46.6875 18.703125 
Q 43.0625 26.03125 39.671875 28.421875 
Q 36.28125 30.8125 30.421875 30.8125 
L 19.671875 30.8125 
L 19.671875 0 
L 9.8125 0 
L 9.8125 72.90625 
L 32.078125 72.90625 
Q 44.578125 72.90625 50.734375 67.671875 
Q 56.890625 62.453125 56.890625 51.90625 
Q 56.890625 45.015625 53.6875 40.46875 
Q 50.484375 35.9375 44.390625 34.1875 
z
M 19.671875 64.796875 
L 19.671875 38.921875 
L 32.078125 38.921875 
Q 39.203125 38.921875 42.84375 42.21875 
Q 46.484375 45.515625 46.484375 51.90625 
Q 46.484375 58.296875 42.84375 61.546875 
Q 39.203125 64.796875 32.078125 64.796875 
z
" id="DejaVuSans-82"/>
     </defs>
     <g transform="translate(82.8575 87.299004)scale(0.09375 -0.09375)">
      <use xlink:href="#DejaVuSans-68"/>
      <use x="77.001953" xlink:href="#DejaVuSans-68"/>
      <use x="154.003906" xlink:href="#DejaVuSans-45"/>
      <use x="190.087891" xlink:href="#DejaVuSans-82"/>
      <use x="259.539062" xlink:href="#DejaVuSans-97"/>
      <use x="320.818359" xlink:href="#DejaVuSans-110"/>
      <use x="384.197266" xlink:href="#DejaVuSans-100"/>
      <use x="447.673828" xlink:href="#DejaVuSans-111"/>
      <use x="508.855469" xlink:href="#DejaVuSans-109"/>
     </g>
    </g>
    <g id="line2d_39">
     <path d="M 56.6075 97.778496 
L 75.3575 97.778496 
" style="fill:none;stroke:#8c564b;stroke-linecap:square;stroke-width:1.5;"/>
    </g>
    <g id="line2d_40"/>
    <g id="text_20">
     <!-- HG-No-DD-IPI -->
     <defs>
      <path d="M 9.8125 72.90625 
L 23.09375 72.90625 
L 55.421875 11.921875 
L 55.421875 72.90625 
L 64.984375 72.90625 
L 64.984375 0 
L 51.703125 0 
L 19.390625 60.984375 
L 19.390625 0 
L 9.8125 0 
z
" id="DejaVuSans-78"/>
     </defs>
     <g transform="translate(82.8575 101.059746)scale(0.09375 -0.09375)">
      <use xlink:href="#DejaVuSans-72"/>
      <use x="75.195312" xlink:href="#DejaVuSans-71"/>
      <use x="152.685547" xlink:href="#DejaVuSans-45"/>
      <use x="188.769531" xlink:href="#DejaVuSans-78"/>
      <use x="263.574219" xlink:href="#DejaVuSans-111"/>
      <use x="324.771484" xlink:href="#DejaVuSans-45"/>
      <use x="360.855469" xlink:href="#DejaVuSans-68"/>
      <use x="437.857422" xlink:href="#DejaVuSans-68"/>
      <use x="514.859375" xlink:href="#DejaVuSans-45"/>
      <use x="550.943359" xlink:href="#DejaVuSans-73"/>
      <use x="580.435547" xlink:href="#DejaVuSans-80"/>
      <use x="640.738281" xlink:href="#DejaVuSans-73"/>
     </g>
    </g>
    <g id="line2d_41">
     <path d="M 56.6075 111.539238 
L 75.3575 111.539238 
" style="fill:none;stroke:#e377c2;stroke-linecap:square;stroke-width:1.5;"/>
    </g>
    <g id="line2d_42"/>
    <g id="text_21">
     <!-- G-No-DD-PI -->
     <g transform="translate(82.8575 114.820488)scale(0.09375 -0.09375)">
      <use xlink:href="#DejaVuSans-71"/>
      <use x="77.490234" xlink:href="#DejaVuSans-45"/>
      <use x="113.574219" xlink:href="#DejaVuSans-78"/>
      <use x="188.378906" xlink:href="#DejaVuSans-111"/>
      <use x="249.576172" xlink:href="#DejaVuSans-45"/>
      <use x="285.660156" xlink:href="#DejaVuSans-68"/>
      <use x="362.662109" xlink:href="#DejaVuSans-68"/>
      <use x="439.664062" xlink:href="#DejaVuSans-45"/>
      <use x="475.748047" xlink:href="#DejaVuSans-80"/>
      <use x="536.050781" xlink:href="#DejaVuSans-73"/>
     </g>
    </g>
    <g id="line2d_43">
     <path d="M 56.6075 125.29998 
L 75.3575 125.29998 
" style="fill:none;stroke:#7f7f7f;stroke-linecap:square;stroke-width:1.5;"/>
    </g>
    <g id="line2d_44"/>
    <g id="text_22">
     <!-- No-DD-Random -->
     <g transform="translate(82.8575 128.58123)scale(0.09375 -0.09375)">
      <use xlink:href="#DejaVuSans-78"/>
      <use x="74.804688" xlink:href="#DejaVuSans-111"/>
      <use x="136.001953" xlink:href="#DejaVuSans-45"/>
      <use x="172.085938" xlink:href="#DejaVuSans-68"/>
      <use x="249.087891" xlink:href="#DejaVuSans-68"/>
      <use x="326.089844" xlink:href="#DejaVuSans-45"/>
      <use x="362.173828" xlink:href="#DejaVuSans-82"/>
      <use x="431.625" xlink:href="#DejaVuSans-97"/>
      <use x="492.904297" xlink:href="#DejaVuSans-110"/>
      <use x="556.283203" xlink:href="#DejaVuSans-100"/>
      <use x="619.759766" xlink:href="#DejaVuSans-111"/>
      <use x="680.941406" xlink:href="#DejaVuSans-109"/>
     </g>
    </g>
   </g>
  </g>
 </g>
 <defs>
  <clipPath id="p36e1a7da79">
   <rect height="281.185" width="468.34" x="48.17" y="16.695"/>
  </clipPath>
 </defs>
</svg>
