<?xml version="1.0" encoding="utf-8" standalone="no"?>
<!DOCTYPE svg PUBLIC "-//W3C//DTD SVG 1.1//EN"
  "http://www.w3.org/Graphics/SVG/1.1/DTD/svg11.dtd">
<!-- Created with matplotlib (https://matplotlib.org/) -->
<svg height="36pt" version="1.1" viewBox="0 0 1281.6 36" width="1281.6pt" xmlns="http://www.w3.org/2000/svg" xmlns:xlink="http://www.w3.org/1999/xlink">
 <defs>
  <style type="text/css">
*{stroke-linecap:butt;stroke-linejoin:round;}
  </style>
 </defs>
 <g id="figure_1">
  <g id="patch_1">
   <path d="M 0 36 
L 1281.6 36 
L 1281.6 0 
L 0 0 
z
" style="fill:#ffffff;"/>
  </g>
  <g id="legend_1">
   <g id="patch_2">
    <path d="M 5.149219 34.017187 
L 1271.1 34.017187 
Q 1274.1 34.017187 1274.1 31.017187 
L 1274.1 10.5 
Q 1274.1 7.5 1271.1 7.5 
L 5.149219 7.5 
Q 2.149219 7.5 2.149219 10.5 
L 2.149219 31.017187 
Q 2.149219 34.017187 5.149219 34.017187 
z
" style="fill:#ffffff;opacity:0.8;stroke:#cccccc;stroke-linejoin:miter;"/>
   </g>
   <g id="line2d_1">
    <path d="M 8.149219 19.647656 
L 38.149219 19.647656 
" style="fill:none;stroke:#1f77b4;stroke-linecap:square;stroke-width:1.5;"/>
   </g>
   <g id="line2d_2">
    <defs>
     <path d="M 0 -4 
L -3.804226 -1.236068 
L -2.351141 3.236068 
L 2.351141 3.236068 
L 3.804226 -1.236068 
z
" id="m902e4956ae" style="stroke:#1f77b4;stroke-linejoin:miter;"/>
    </defs>
    <g>
     <use style="fill:#1f77b4;stroke:#1f77b4;stroke-linejoin:miter;" x="23.149219" xlink:href="#m902e4956ae" y="19.647656"/>
    </g>
   </g>
   <g id="text_1">
    <!-- HG-DD-IPI -->
    <defs>
     <path d="M 9.8125 72.90625 
L 19.671875 72.90625 
L 19.671875 43.015625 
L 55.515625 43.015625 
L 55.515625 72.90625 
L 65.375 72.90625 
L 65.375 0 
L 55.515625 0 
L 55.515625 34.71875 
L 19.671875 34.71875 
L 19.671875 0 
L 9.8125 0 
z
" id="DejaVuSans-72"/>
     <path d="M 59.515625 10.40625 
L 59.515625 29.984375 
L 43.40625 29.984375 
L 43.40625 38.09375 
L 69.28125 38.09375 
L 69.28125 6.78125 
Q 63.578125 2.734375 56.6875 0.65625 
Q 49.8125 -1.421875 42 -1.421875 
Q 24.90625 -1.421875 15.25 8.5625 
Q 5.609375 18.5625 5.609375 36.375 
Q 5.609375 54.25 15.25 64.234375 
Q 24.90625 74.21875 42 74.21875 
Q 49.125 74.21875 55.546875 72.453125 
Q 61.96875 70.703125 67.390625 67.28125 
L 67.390625 56.78125 
Q 61.921875 61.421875 55.765625 63.765625 
Q 49.609375 66.109375 42.828125 66.109375 
Q 29.4375 66.109375 22.71875 58.640625 
Q 16.015625 51.171875 16.015625 36.375 
Q 16.015625 21.625 22.71875 14.15625 
Q 29.4375 6.6875 42.828125 6.6875 
Q 48.046875 6.6875 52.140625 7.59375 
Q 56.25 8.5 59.515625 10.40625 
z
" id="DejaVuSans-71"/>
     <path d="M 4.890625 31.390625 
L 31.203125 31.390625 
L 31.203125 23.390625 
L 4.890625 23.390625 
z
" id="DejaVuSans-45"/>
     <path d="M 19.671875 64.796875 
L 19.671875 8.109375 
L 31.59375 8.109375 
Q 46.6875 8.109375 53.6875 14.9375 
Q 60.6875 21.78125 60.6875 36.53125 
Q 60.6875 51.171875 53.6875 57.984375 
Q 46.6875 64.796875 31.59375 64.796875 
z
M 9.8125 72.90625 
L 30.078125 72.90625 
Q 51.265625 72.90625 61.171875 64.09375 
Q 71.09375 55.28125 71.09375 36.53125 
Q 71.09375 17.671875 61.125 8.828125 
Q 51.171875 0 30.078125 0 
L 9.8125 0 
z
" id="DejaVuSans-68"/>
     <path d="M 9.8125 72.90625 
L 19.671875 72.90625 
L 19.671875 0 
L 9.8125 0 
z
" id="DejaVuSans-73"/>
     <path d="M 19.671875 64.796875 
L 19.671875 37.40625 
L 32.078125 37.40625 
Q 38.96875 37.40625 42.71875 40.96875 
Q 46.484375 44.53125 46.484375 51.125 
Q 46.484375 57.671875 42.71875 61.234375 
Q 38.96875 64.796875 32.078125 64.796875 
z
M 9.8125 72.90625 
L 32.078125 72.90625 
Q 44.34375 72.90625 50.609375 67.359375 
Q 56.890625 61.8125 56.890625 51.125 
Q 56.890625 40.328125 50.609375 34.8125 
Q 44.34375 29.296875 32.078125 29.296875 
L 19.671875 29.296875 
L 19.671875 0 
L 9.8125 0 
z
" id="DejaVuSans-80"/>
    </defs>
    <g transform="translate(50.149219 24.897656)scale(0.15 -0.15)">
     <use xlink:href="#DejaVuSans-72"/>
     <use x="75.195312" xlink:href="#DejaVuSans-71"/>
     <use x="152.685547" xlink:href="#DejaVuSans-45"/>
     <use x="188.769531" xlink:href="#DejaVuSans-68"/>
     <use x="265.771484" xlink:href="#DejaVuSans-68"/>
     <use x="342.773438" xlink:href="#DejaVuSans-45"/>
     <use x="378.857422" xlink:href="#DejaVuSans-73"/>
     <use x="408.349609" xlink:href="#DejaVuSans-80"/>
     <use x="468.652344" xlink:href="#DejaVuSans-73"/>
    </g>
   </g>
   <g id="line2d_3">
    <path d="M 154.870313 19.647656 
L 184.870313 19.647656 
" style="fill:none;stroke:#ff7f0e;stroke-dasharray:5.55,2.4;stroke-dashoffset:0;stroke-width:1.5;"/>
   </g>
   <g id="line2d_4">
    <defs>
     <path d="M -0 5.656854 
L 3.394113 0 
L 0 -5.656854 
L -3.394113 -0 
z
" id="m8500352d5a" style="stroke:#ff7f0e;stroke-linejoin:miter;"/>
    </defs>
    <g>
     <use style="fill:#ff7f0e;stroke:#ff7f0e;stroke-linejoin:miter;" x="169.870313" xlink:href="#m8500352d5a" y="19.647656"/>
    </g>
   </g>
   <g id="text_2">
    <!-- G-DD-PI -->
    <g transform="translate(196.870313 24.897656)scale(0.15 -0.15)">
     <use xlink:href="#DejaVuSans-71"/>
     <use x="77.490234" xlink:href="#DejaVuSans-45"/>
     <use x="113.574219" xlink:href="#DejaVuSans-68"/>
     <use x="190.576172" xlink:href="#DejaVuSans-68"/>
     <use x="267.578125" xlink:href="#DejaVuSans-45"/>
     <use x="303.662109" xlink:href="#DejaVuSans-80"/>
     <use x="363.964844" xlink:href="#DejaVuSans-73"/>
    </g>
   </g>
   <g id="line2d_5">
    <path d="M 285.885938 19.647656 
L 315.885938 19.647656 
" style="fill:none;stroke:#2ca02c;stroke-dasharray:9.6,2.4,1.5,2.4;stroke-dashoffset:0;stroke-width:1.5;"/>
   </g>
   <g id="line2d_6">
    <defs>
     <path d="M -0 4 
L 4 -4 
L -4 -4 
z
" id="mfbf471cc8f" style="stroke:#2ca02c;stroke-linejoin:miter;"/>
    </defs>
    <g>
     <use style="fill:#2ca02c;stroke:#2ca02c;stroke-linejoin:miter;" x="300.885938" xlink:href="#mfbf471cc8f" y="19.647656"/>
    </g>
   </g>
   <g id="text_3">
    <!-- HG-DD-ML-IPI -->
    <defs>
     <path d="M 9.8125 72.90625 
L 24.515625 72.90625 
L 43.109375 23.296875 
L 61.8125 72.90625 
L 76.515625 72.90625 
L 76.515625 0 
L 66.890625 0 
L 66.890625 64.015625 
L 48.09375 14.015625 
L 38.1875 14.015625 
L 19.390625 64.015625 
L 19.390625 0 
L 9.8125 0 
z
" id="DejaVuSans-77"/>
     <path d="M 9.8125 72.90625 
L 19.671875 72.90625 
L 19.671875 8.296875 
L 55.171875 8.296875 
L 55.171875 0 
L 9.8125 0 
z
" id="DejaVuSans-76"/>
    </defs>
    <g transform="translate(327.885938 24.897656)scale(0.15 -0.15)">
     <use xlink:href="#DejaVuSans-72"/>
     <use x="75.195312" xlink:href="#DejaVuSans-71"/>
     <use x="152.685547" xlink:href="#DejaVuSans-45"/>
     <use x="188.769531" xlink:href="#DejaVuSans-68"/>
     <use x="265.771484" xlink:href="#DejaVuSans-68"/>
     <use x="342.773438" xlink:href="#DejaVuSans-45"/>
     <use x="378.857422" xlink:href="#DejaVuSans-77"/>
     <use x="465.136719" xlink:href="#DejaVuSans-76"/>
     <use x="520.833984" xlink:href="#DejaVuSans-45"/>
     <use x="556.917969" xlink:href="#DejaVuSans-73"/>
     <use x="586.410156" xlink:href="#DejaVuSans-80"/>
     <use x="646.712891" xlink:href="#DejaVuSans-73"/>
    </g>
   </g>
   <g id="line2d_7">
    <path d="M 459.316406 19.647656 
L 489.316406 19.647656 
" style="fill:none;stroke:#d62728;stroke-dasharray:1.5,2.475;stroke-dashoffset:0;stroke-width:1.5;"/>
   </g>
   <g id="line2d_8">
    <defs>
     <path d="M -4 4 
L 4 -4 
M -4 -4 
L 4 4 
" id="m348c5ef9d4" style="stroke:#d62728;"/>
    </defs>
    <g>
     <use style="fill:#d62728;stroke:#d62728;" x="474.316406" xlink:href="#m348c5ef9d4" y="19.647656"/>
    </g>
   </g>
   <g id="text_4">
    <!-- G-DD-ML-PI -->
    <g transform="translate(501.316406 24.897656)scale(0.15 -0.15)">
     <use xlink:href="#DejaVuSans-71"/>
     <use x="77.490234" xlink:href="#DejaVuSans-45"/>
     <use x="113.574219" xlink:href="#DejaVuSans-68"/>
     <use x="190.576172" xlink:href="#DejaVuSans-68"/>
     <use x="267.578125" xlink:href="#DejaVuSans-45"/>
     <use x="303.662109" xlink:href="#DejaVuSans-77"/>
     <use x="389.941406" xlink:href="#DejaVuSans-76"/>
     <use x="445.638672" xlink:href="#DejaVuSans-45"/>
     <use x="481.722656" xlink:href="#DejaVuSans-80"/>
     <use x="542.025391" xlink:href="#DejaVuSans-73"/>
    </g>
   </g>
   <g id="line2d_9">
    <path d="M 617.041406 19.647656 
L 647.041406 19.647656 
" style="fill:none;stroke:#9467bd;stroke-linecap:square;stroke-width:1.5;"/>
   </g>
   <g id="line2d_10">
    <defs>
     <path d="M -4 4 
L 4 4 
L 4 -4 
L -4 -4 
z
" id="m1166ca021e" style="stroke:#9467bd;stroke-linejoin:miter;"/>
    </defs>
    <g>
     <use style="fill:#9467bd;stroke:#9467bd;stroke-linejoin:miter;" x="632.041406" xlink:href="#m1166ca021e" y="19.647656"/>
    </g>
   </g>
   <g id="text_5">
    <!-- DD-Random -->
    <defs>
     <path d="M 44.390625 34.1875 
Q 47.5625 33.109375 50.5625 29.59375 
Q 53.5625 26.078125 56.59375 19.921875 
L 66.609375 0 
L 56 0 
L 46.6875 18.703125 
Q 43.0625 26.03125 39.671875 28.421875 
Q 36.28125 30.8125 30.421875 30.8125 
L 19.671875 30.8125 
L 19.671875 0 
L 9.8125 0 
L 9.8125 72.90625 
L 32.078125 72.90625 
Q 44.578125 72.90625 50.734375 67.671875 
Q 56.890625 62.453125 56.890625 51.90625 
Q 56.890625 45.015625 53.6875 40.46875 
Q 50.484375 35.9375 44.390625 34.1875 
z
M 19.671875 64.796875 
L 19.671875 38.921875 
L 32.078125 38.921875 
Q 39.203125 38.921875 42.84375 42.21875 
Q 46.484375 45.515625 46.484375 51.90625 
Q 46.484375 58.296875 42.84375 61.546875 
Q 39.203125 64.796875 32.078125 64.796875 
z
" id="DejaVuSans-82"/>
     <path d="M 34.28125 27.484375 
Q 23.390625 27.484375 19.1875 25 
Q 14.984375 22.515625 14.984375 16.5 
Q 14.984375 11.71875 18.140625 8.90625 
Q 21.296875 6.109375 26.703125 6.109375 
Q 34.1875 6.109375 38.703125 11.40625 
Q 43.21875 16.703125 43.21875 25.484375 
L 43.21875 27.484375 
z
M 52.203125 31.203125 
L 52.203125 0 
L 43.21875 0 
L 43.21875 8.296875 
Q 40.140625 3.328125 35.546875 0.953125 
Q 30.953125 -1.421875 24.3125 -1.421875 
Q 15.921875 -1.421875 10.953125 3.296875 
Q 6 8.015625 6 15.921875 
Q 6 25.140625 12.171875 29.828125 
Q 18.359375 34.515625 30.609375 34.515625 
L 43.21875 34.515625 
L 43.21875 35.40625 
Q 43.21875 41.609375 39.140625 45 
Q 35.0625 48.390625 27.6875 48.390625 
Q 23 48.390625 18.546875 47.265625 
Q 14.109375 46.140625 10.015625 43.890625 
L 10.015625 52.203125 
Q 14.9375 54.109375 19.578125 55.046875 
Q 24.21875 56 28.609375 56 
Q 40.484375 56 46.34375 49.84375 
Q 52.203125 43.703125 52.203125 31.203125 
z
" id="DejaVuSans-97"/>
     <path d="M 54.890625 33.015625 
L 54.890625 0 
L 45.90625 0 
L 45.90625 32.71875 
Q 45.90625 40.484375 42.875 44.328125 
Q 39.84375 48.1875 33.796875 48.1875 
Q 26.515625 48.1875 22.3125 43.546875 
Q 18.109375 38.921875 18.109375 30.90625 
L 18.109375 0 
L 9.078125 0 
L 9.078125 54.6875 
L 18.109375 54.6875 
L 18.109375 46.1875 
Q 21.34375 51.125 25.703125 53.5625 
Q 30.078125 56 35.796875 56 
Q 45.21875 56 50.046875 50.171875 
Q 54.890625 44.34375 54.890625 33.015625 
z
" id="DejaVuSans-110"/>
     <path d="M 45.40625 46.390625 
L 45.40625 75.984375 
L 54.390625 75.984375 
L 54.390625 0 
L 45.40625 0 
L 45.40625 8.203125 
Q 42.578125 3.328125 38.25 0.953125 
Q 33.9375 -1.421875 27.875 -1.421875 
Q 17.96875 -1.421875 11.734375 6.484375 
Q 5.515625 14.40625 5.515625 27.296875 
Q 5.515625 40.1875 11.734375 48.09375 
Q 17.96875 56 27.875 56 
Q 33.9375 56 38.25 53.625 
Q 42.578125 51.265625 45.40625 46.390625 
z
M 14.796875 27.296875 
Q 14.796875 17.390625 18.875 11.75 
Q 22.953125 6.109375 30.078125 6.109375 
Q 37.203125 6.109375 41.296875 11.75 
Q 45.40625 17.390625 45.40625 27.296875 
Q 45.40625 37.203125 41.296875 42.84375 
Q 37.203125 48.484375 30.078125 48.484375 
Q 22.953125 48.484375 18.875 42.84375 
Q 14.796875 37.203125 14.796875 27.296875 
z
" id="DejaVuSans-100"/>
     <path d="M 30.609375 48.390625 
Q 23.390625 48.390625 19.1875 42.75 
Q 14.984375 37.109375 14.984375 27.296875 
Q 14.984375 17.484375 19.15625 11.84375 
Q 23.34375 6.203125 30.609375 6.203125 
Q 37.796875 6.203125 41.984375 11.859375 
Q 46.1875 17.53125 46.1875 27.296875 
Q 46.1875 37.015625 41.984375 42.703125 
Q 37.796875 48.390625 30.609375 48.390625 
z
M 30.609375 56 
Q 42.328125 56 49.015625 48.375 
Q 55.71875 40.765625 55.71875 27.296875 
Q 55.71875 13.875 49.015625 6.21875 
Q 42.328125 -1.421875 30.609375 -1.421875 
Q 18.84375 -1.421875 12.171875 6.21875 
Q 5.515625 13.875 5.515625 27.296875 
Q 5.515625 40.765625 12.171875 48.375 
Q 18.84375 56 30.609375 56 
z
" id="DejaVuSans-111"/>
     <path d="M 52 44.1875 
Q 55.375 50.25 60.0625 53.125 
Q 64.75 56 71.09375 56 
Q 79.640625 56 84.28125 50.015625 
Q 88.921875 44.046875 88.921875 33.015625 
L 88.921875 0 
L 79.890625 0 
L 79.890625 32.71875 
Q 79.890625 40.578125 77.09375 44.375 
Q 74.3125 48.1875 68.609375 48.1875 
Q 61.625 48.1875 57.5625 43.546875 
Q 53.515625 38.921875 53.515625 30.90625 
L 53.515625 0 
L 44.484375 0 
L 44.484375 32.71875 
Q 44.484375 40.625 41.703125 44.40625 
Q 38.921875 48.1875 33.109375 48.1875 
Q 26.21875 48.1875 22.15625 43.53125 
Q 18.109375 38.875 18.109375 30.90625 
L 18.109375 0 
L 9.078125 0 
L 9.078125 54.6875 
L 18.109375 54.6875 
L 18.109375 46.1875 
Q 21.1875 51.21875 25.484375 53.609375 
Q 29.78125 56 35.6875 56 
Q 41.65625 56 45.828125 52.96875 
Q 50 49.953125 52 44.1875 
z
" id="DejaVuSans-109"/>
    </defs>
    <g transform="translate(659.041406 24.897656)scale(0.15 -0.15)">
     <use xlink:href="#DejaVuSans-68"/>
     <use x="77.001953" xlink:href="#DejaVuSans-68"/>
     <use x="154.003906" xlink:href="#DejaVuSans-45"/>
     <use x="190.087891" xlink:href="#DejaVuSans-82"/>
     <use x="259.539062" xlink:href="#DejaVuSans-97"/>
     <use x="320.818359" xlink:href="#DejaVuSans-110"/>
     <use x="384.197266" xlink:href="#DejaVuSans-100"/>
     <use x="447.673828" xlink:href="#DejaVuSans-111"/>
     <use x="508.855469" xlink:href="#DejaVuSans-109"/>
    </g>
   </g>
   <g id="line2d_11">
    <path d="M 779.98125 19.647656 
L 809.98125 19.647656 
" style="fill:none;stroke:#8c564b;stroke-dasharray:5.55,2.4;stroke-dashoffset:0;stroke-width:1.5;"/>
   </g>
   <g id="line2d_12">
    <defs>
     <path d="M 0 -4 
L -0.898056 -1.236068 
L -3.804226 -1.236068 
L -1.453085 0.472136 
L -2.351141 3.236068 
L -0 1.527864 
L 2.351141 3.236068 
L 1.453085 0.472136 
L 3.804226 -1.236068 
L 0.898056 -1.236068 
z
" id="me1a6f4627e" style="stroke:#8c564b;stroke-linejoin:bevel;"/>
    </defs>
    <g>
     <use style="fill:#8c564b;stroke:#8c564b;stroke-linejoin:bevel;" x="794.98125" xlink:href="#me1a6f4627e" y="19.647656"/>
    </g>
   </g>
   <g id="text_6">
    <!-- HG-No-DD-IPI -->
    <defs>
     <path d="M 9.8125 72.90625 
L 23.09375 72.90625 
L 55.421875 11.921875 
L 55.421875 72.90625 
L 64.984375 72.90625 
L 64.984375 0 
L 51.703125 0 
L 19.390625 60.984375 
L 19.390625 0 
L 9.8125 0 
z
" id="DejaVuSans-78"/>
    </defs>
    <g transform="translate(821.98125 24.897656)scale(0.15 -0.15)">
     <use xlink:href="#DejaVuSans-72"/>
     <use x="75.195312" xlink:href="#DejaVuSans-71"/>
     <use x="152.685547" xlink:href="#DejaVuSans-45"/>
     <use x="188.769531" xlink:href="#DejaVuSans-78"/>
     <use x="263.574219" xlink:href="#DejaVuSans-111"/>
     <use x="324.771484" xlink:href="#DejaVuSans-45"/>
     <use x="360.855469" xlink:href="#DejaVuSans-68"/>
     <use x="437.857422" xlink:href="#DejaVuSans-68"/>
     <use x="514.859375" xlink:href="#DejaVuSans-45"/>
     <use x="550.943359" xlink:href="#DejaVuSans-73"/>
     <use x="580.435547" xlink:href="#DejaVuSans-80"/>
     <use x="640.738281" xlink:href="#DejaVuSans-73"/>
    </g>
   </g>
   <g id="line2d_13">
    <path d="M 952.516406 19.647656 
L 982.516406 19.647656 
" style="fill:none;stroke:#e377c2;stroke-dasharray:9.6,2.4,1.5,2.4;stroke-dashoffset:0;stroke-width:1.5;"/>
   </g>
   <g id="line2d_14">
    <defs>
     <path d="M 0 0 
L 0 4 
M 0 0 
L 3.2 -2 
M 0 0 
L -3.2 -2 
" id="mcfe1d38d83" style="stroke:#e377c2;"/>
    </defs>
    <g>
     <use style="fill:#e377c2;stroke:#e377c2;" x="967.516406" xlink:href="#mcfe1d38d83" y="19.647656"/>
    </g>
   </g>
   <g id="text_7">
    <!-- G-No-DD-PI -->
    <g transform="translate(994.516406 24.897656)scale(0.15 -0.15)">
     <use xlink:href="#DejaVuSans-71"/>
     <use x="77.490234" xlink:href="#DejaVuSans-45"/>
     <use x="113.574219" xlink:href="#DejaVuSans-78"/>
     <use x="188.378906" xlink:href="#DejaVuSans-111"/>
     <use x="249.576172" xlink:href="#DejaVuSans-45"/>
     <use x="285.660156" xlink:href="#DejaVuSans-68"/>
     <use x="362.662109" xlink:href="#DejaVuSans-68"/>
     <use x="439.664062" xlink:href="#DejaVuSans-45"/>
     <use x="475.748047" xlink:href="#DejaVuSans-80"/>
     <use x="536.050781" xlink:href="#DejaVuSans-73"/>
    </g>
   </g>
   <g id="line2d_15">
    <path d="M 1109.346094 19.647656 
L 1139.346094 19.647656 
" style="fill:none;stroke:#7f7f7f;stroke-dasharray:1.5,2.475;stroke-dashoffset:0;stroke-width:1.5;"/>
   </g>
   <g id="line2d_16">
    <defs>
     <path d="M 0 2 
C 0.530406 2 1.03916 1.789267 1.414214 1.414214 
C 1.789267 1.03916 2 0.530406 2 0 
C 2 -0.530406 1.789267 -1.03916 1.414214 -1.414214 
C 1.03916 -1.789267 0.530406 -2 0 -2 
C -0.530406 -2 -1.03916 -1.789267 -1.414214 -1.414214 
C -1.789267 -1.03916 -2 -0.530406 -2 0 
C -2 0.530406 -1.789267 1.03916 -1.414214 1.414214 
C -1.03916 1.789267 -0.530406 2 0 2 
z
" id="m65c1794552" style="stroke:#7f7f7f;"/>
    </defs>
    <g>
     <use style="fill:#7f7f7f;stroke:#7f7f7f;" x="1124.346094" xlink:href="#m65c1794552" y="19.647656"/>
    </g>
   </g>
   <g id="text_8">
    <!-- No-DD-Random -->
    <g transform="translate(1151.346094 24.897656)scale(0.15 -0.15)">
     <use xlink:href="#DejaVuSans-78"/>
     <use x="74.804688" xlink:href="#DejaVuSans-111"/>
     <use x="136.001953" xlink:href="#DejaVuSans-45"/>
     <use x="172.085938" xlink:href="#DejaVuSans-68"/>
     <use x="249.087891" xlink:href="#DejaVuSans-68"/>
     <use x="326.089844" xlink:href="#DejaVuSans-45"/>
     <use x="362.173828" xlink:href="#DejaVuSans-82"/>
     <use x="431.625" xlink:href="#DejaVuSans-97"/>
     <use x="492.904297" xlink:href="#DejaVuSans-110"/>
     <use x="556.283203" xlink:href="#DejaVuSans-100"/>
     <use x="619.759766" xlink:href="#DejaVuSans-111"/>
     <use x="680.941406" xlink:href="#DejaVuSans-109"/>
    </g>
   </g>
  </g>
 </g>
</svg>
