<?xml version="1.0" encoding="utf-8" standalone="no"?>
<!DOCTYPE svg PUBLIC "-//W3C//DTD SVG 1.1//EN"
  "http://www.w3.org/Graphics/SVG/1.1/DTD/svg11.dtd">
<!-- Created with matplotlib (https://matplotlib.org/) -->
<svg height="360pt" version="1.1" viewBox="0 0 540 360" width="540pt" xmlns="http://www.w3.org/2000/svg" xmlns:xlink="http://www.w3.org/1999/xlink">
 <defs>
  <style type="text/css">
*{stroke-linecap:butt;stroke-linejoin:round;}
  </style>
 </defs>
 <g id="figure_1">
  <g id="patch_1">
   <path d="M 0 360 
L 540 360 
L 540 0 
L 0 0 
z
" style="fill:#ffffff;"/>
  </g>
  <g id="axes_1">
   <g id="patch_2">
    <path d="M 109.175 297.88 
L 516.51 297.88 
L 516.51 61.992 
L 109.175 61.992 
z
" style="fill:#ffffff;"/>
   </g>
   <g id="matplotlib.axis_1">
    <g id="xtick_1">
     <g id="line2d_1">
      <defs>
       <path d="M 0 0 
L 0 3.5 
" id="m6919d3d1a8" style="stroke:#000000;stroke-width:0.8;"/>
      </defs>
      <g>
       <use style="stroke:#000000;stroke-width:0.8;" x="109.175" xlink:href="#m6919d3d1a8" y="297.88"/>
      </g>
     </g>
     <g id="text_1">
      <!-- 0 -->
      <defs>
       <path d="M 31.78125 66.40625 
Q 24.171875 66.40625 20.328125 58.90625 
Q 16.5 51.421875 16.5 36.375 
Q 16.5 21.390625 20.328125 13.890625 
Q 24.171875 6.390625 31.78125 6.390625 
Q 39.453125 6.390625 43.28125 13.890625 
Q 47.125 21.390625 47.125 36.375 
Q 47.125 51.421875 43.28125 58.90625 
Q 39.453125 66.40625 31.78125 66.40625 
z
M 31.78125 74.21875 
Q 44.046875 74.21875 50.515625 64.515625 
Q 56.984375 54.828125 56.984375 36.375 
Q 56.984375 17.96875 50.515625 8.265625 
Q 44.046875 -1.421875 31.78125 -1.421875 
Q 19.53125 -1.421875 13.0625 8.265625 
Q 6.59375 17.96875 6.59375 36.375 
Q 6.59375 54.828125 13.0625 64.515625 
Q 19.53125 74.21875 31.78125 74.21875 
z
" id="DejaVuSans-48"/>
      </defs>
      <g transform="translate(102.8125 320.076875)scale(0.2 -0.2)">
       <use xlink:href="#DejaVuSans-48"/>
      </g>
     </g>
    </g>
    <g id="xtick_2">
     <g id="line2d_2">
      <g>
       <use style="stroke:#000000;stroke-width:0.8;" x="177.064167" xlink:href="#m6919d3d1a8" y="297.88"/>
      </g>
     </g>
     <g id="text_2">
      <!-- 10 -->
      <defs>
       <path d="M 12.40625 8.296875 
L 28.515625 8.296875 
L 28.515625 63.921875 
L 10.984375 60.40625 
L 10.984375 69.390625 
L 28.421875 72.90625 
L 38.28125 72.90625 
L 38.28125 8.296875 
L 54.390625 8.296875 
L 54.390625 0 
L 12.40625 0 
z
" id="DejaVuSans-49"/>
      </defs>
      <g transform="translate(164.339167 320.076875)scale(0.2 -0.2)">
       <use xlink:href="#DejaVuSans-49"/>
       <use x="63.623047" xlink:href="#DejaVuSans-48"/>
      </g>
     </g>
    </g>
    <g id="xtick_3">
     <g id="line2d_3">
      <g>
       <use style="stroke:#000000;stroke-width:0.8;" x="244.953333" xlink:href="#m6919d3d1a8" y="297.88"/>
      </g>
     </g>
     <g id="text_3">
      <!-- 20 -->
      <defs>
       <path d="M 19.1875 8.296875 
L 53.609375 8.296875 
L 53.609375 0 
L 7.328125 0 
L 7.328125 8.296875 
Q 12.9375 14.109375 22.625 23.890625 
Q 32.328125 33.6875 34.8125 36.53125 
Q 39.546875 41.84375 41.421875 45.53125 
Q 43.3125 49.21875 43.3125 52.78125 
Q 43.3125 58.59375 39.234375 62.25 
Q 35.15625 65.921875 28.609375 65.921875 
Q 23.96875 65.921875 18.8125 64.3125 
Q 13.671875 62.703125 7.8125 59.421875 
L 7.8125 69.390625 
Q 13.765625 71.78125 18.9375 73 
Q 24.125 74.21875 28.421875 74.21875 
Q 39.75 74.21875 46.484375 68.546875 
Q 53.21875 62.890625 53.21875 53.421875 
Q 53.21875 48.921875 51.53125 44.890625 
Q 49.859375 40.875 45.40625 35.40625 
Q 44.1875 33.984375 37.640625 27.21875 
Q 31.109375 20.453125 19.1875 8.296875 
z
" id="DejaVuSans-50"/>
      </defs>
      <g transform="translate(232.228333 320.076875)scale(0.2 -0.2)">
       <use xlink:href="#DejaVuSans-50"/>
       <use x="63.623047" xlink:href="#DejaVuSans-48"/>
      </g>
     </g>
    </g>
    <g id="xtick_4">
     <g id="line2d_4">
      <g>
       <use style="stroke:#000000;stroke-width:0.8;" x="312.8425" xlink:href="#m6919d3d1a8" y="297.88"/>
      </g>
     </g>
     <g id="text_4">
      <!-- 30 -->
      <defs>
       <path d="M 40.578125 39.3125 
Q 47.65625 37.796875 51.625 33 
Q 55.609375 28.21875 55.609375 21.1875 
Q 55.609375 10.40625 48.1875 4.484375 
Q 40.765625 -1.421875 27.09375 -1.421875 
Q 22.515625 -1.421875 17.65625 -0.515625 
Q 12.796875 0.390625 7.625 2.203125 
L 7.625 11.71875 
Q 11.71875 9.328125 16.59375 8.109375 
Q 21.484375 6.890625 26.8125 6.890625 
Q 36.078125 6.890625 40.9375 10.546875 
Q 45.796875 14.203125 45.796875 21.1875 
Q 45.796875 27.640625 41.28125 31.265625 
Q 36.765625 34.90625 28.71875 34.90625 
L 20.21875 34.90625 
L 20.21875 43.015625 
L 29.109375 43.015625 
Q 36.375 43.015625 40.234375 45.921875 
Q 44.09375 48.828125 44.09375 54.296875 
Q 44.09375 59.90625 40.109375 62.90625 
Q 36.140625 65.921875 28.71875 65.921875 
Q 24.65625 65.921875 20.015625 65.03125 
Q 15.375 64.15625 9.8125 62.3125 
L 9.8125 71.09375 
Q 15.4375 72.65625 20.34375 73.4375 
Q 25.25 74.21875 29.59375 74.21875 
Q 40.828125 74.21875 47.359375 69.109375 
Q 53.90625 64.015625 53.90625 55.328125 
Q 53.90625 49.265625 50.4375 45.09375 
Q 46.96875 40.921875 40.578125 39.3125 
z
" id="DejaVuSans-51"/>
      </defs>
      <g transform="translate(300.1175 320.076875)scale(0.2 -0.2)">
       <use xlink:href="#DejaVuSans-51"/>
       <use x="63.623047" xlink:href="#DejaVuSans-48"/>
      </g>
     </g>
    </g>
    <g id="xtick_5">
     <g id="line2d_5">
      <g>
       <use style="stroke:#000000;stroke-width:0.8;" x="380.731667" xlink:href="#m6919d3d1a8" y="297.88"/>
      </g>
     </g>
     <g id="text_5">
      <!-- 40 -->
      <defs>
       <path d="M 37.796875 64.3125 
L 12.890625 25.390625 
L 37.796875 25.390625 
z
M 35.203125 72.90625 
L 47.609375 72.90625 
L 47.609375 25.390625 
L 58.015625 25.390625 
L 58.015625 17.1875 
L 47.609375 17.1875 
L 47.609375 0 
L 37.796875 0 
L 37.796875 17.1875 
L 4.890625 17.1875 
L 4.890625 26.703125 
z
" id="DejaVuSans-52"/>
      </defs>
      <g transform="translate(368.006667 320.076875)scale(0.2 -0.2)">
       <use xlink:href="#DejaVuSans-52"/>
       <use x="63.623047" xlink:href="#DejaVuSans-48"/>
      </g>
     </g>
    </g>
    <g id="xtick_6">
     <g id="line2d_6">
      <g>
       <use style="stroke:#000000;stroke-width:0.8;" x="448.620833" xlink:href="#m6919d3d1a8" y="297.88"/>
      </g>
     </g>
     <g id="text_6">
      <!-- 50 -->
      <defs>
       <path d="M 10.796875 72.90625 
L 49.515625 72.90625 
L 49.515625 64.59375 
L 19.828125 64.59375 
L 19.828125 46.734375 
Q 21.96875 47.46875 24.109375 47.828125 
Q 26.265625 48.1875 28.421875 48.1875 
Q 40.625 48.1875 47.75 41.5 
Q 54.890625 34.8125 54.890625 23.390625 
Q 54.890625 11.625 47.5625 5.09375 
Q 40.234375 -1.421875 26.90625 -1.421875 
Q 22.3125 -1.421875 17.546875 -0.640625 
Q 12.796875 0.140625 7.71875 1.703125 
L 7.71875 11.625 
Q 12.109375 9.234375 16.796875 8.0625 
Q 21.484375 6.890625 26.703125 6.890625 
Q 35.15625 6.890625 40.078125 11.328125 
Q 45.015625 15.765625 45.015625 23.390625 
Q 45.015625 31 40.078125 35.4375 
Q 35.15625 39.890625 26.703125 39.890625 
Q 22.75 39.890625 18.8125 39.015625 
Q 14.890625 38.140625 10.796875 36.28125 
z
" id="DejaVuSans-53"/>
      </defs>
      <g transform="translate(435.895833 320.076875)scale(0.2 -0.2)">
       <use xlink:href="#DejaVuSans-53"/>
       <use x="63.623047" xlink:href="#DejaVuSans-48"/>
      </g>
     </g>
    </g>
    <g id="xtick_7">
     <g id="line2d_7">
      <g>
       <use style="stroke:#000000;stroke-width:0.8;" x="516.51" xlink:href="#m6919d3d1a8" y="297.88"/>
      </g>
     </g>
     <g id="text_7">
      <!-- 60 -->
      <defs>
       <path d="M 33.015625 40.375 
Q 26.375 40.375 22.484375 35.828125 
Q 18.609375 31.296875 18.609375 23.390625 
Q 18.609375 15.53125 22.484375 10.953125 
Q 26.375 6.390625 33.015625 6.390625 
Q 39.65625 6.390625 43.53125 10.953125 
Q 47.40625 15.53125 47.40625 23.390625 
Q 47.40625 31.296875 43.53125 35.828125 
Q 39.65625 40.375 33.015625 40.375 
z
M 52.59375 71.296875 
L 52.59375 62.3125 
Q 48.875 64.0625 45.09375 64.984375 
Q 41.3125 65.921875 37.59375 65.921875 
Q 27.828125 65.921875 22.671875 59.328125 
Q 17.53125 52.734375 16.796875 39.40625 
Q 19.671875 43.65625 24.015625 45.921875 
Q 28.375 48.1875 33.59375 48.1875 
Q 44.578125 48.1875 50.953125 41.515625 
Q 57.328125 34.859375 57.328125 23.390625 
Q 57.328125 12.15625 50.6875 5.359375 
Q 44.046875 -1.421875 33.015625 -1.421875 
Q 20.359375 -1.421875 13.671875 8.265625 
Q 6.984375 17.96875 6.984375 36.375 
Q 6.984375 53.65625 15.1875 63.9375 
Q 23.390625 74.21875 37.203125 74.21875 
Q 40.921875 74.21875 44.703125 73.484375 
Q 48.484375 72.75 52.59375 71.296875 
z
" id="DejaVuSans-54"/>
      </defs>
      <g transform="translate(503.785 320.076875)scale(0.2 -0.2)">
       <use xlink:href="#DejaVuSans-54"/>
       <use x="63.623047" xlink:href="#DejaVuSans-48"/>
      </g>
     </g>
    </g>
    <g id="text_8">
     <!-- number of games -->
     <defs>
      <path d="M 54.890625 33.015625 
L 54.890625 0 
L 45.90625 0 
L 45.90625 32.71875 
Q 45.90625 40.484375 42.875 44.328125 
Q 39.84375 48.1875 33.796875 48.1875 
Q 26.515625 48.1875 22.3125 43.546875 
Q 18.109375 38.921875 18.109375 30.90625 
L 18.109375 0 
L 9.078125 0 
L 9.078125 54.6875 
L 18.109375 54.6875 
L 18.109375 46.1875 
Q 21.34375 51.125 25.703125 53.5625 
Q 30.078125 56 35.796875 56 
Q 45.21875 56 50.046875 50.171875 
Q 54.890625 44.34375 54.890625 33.015625 
z
" id="DejaVuSans-110"/>
      <path d="M 8.5 21.578125 
L 8.5 54.6875 
L 17.484375 54.6875 
L 17.484375 21.921875 
Q 17.484375 14.15625 20.5 10.265625 
Q 23.53125 6.390625 29.59375 6.390625 
Q 36.859375 6.390625 41.078125 11.03125 
Q 45.3125 15.671875 45.3125 23.6875 
L 45.3125 54.6875 
L 54.296875 54.6875 
L 54.296875 0 
L 45.3125 0 
L 45.3125 8.40625 
Q 42.046875 3.421875 37.71875 1 
Q 33.40625 -1.421875 27.6875 -1.421875 
Q 18.265625 -1.421875 13.375 4.4375 
Q 8.5 10.296875 8.5 21.578125 
z
M 31.109375 56 
z
" id="DejaVuSans-117"/>
      <path d="M 52 44.1875 
Q 55.375 50.25 60.0625 53.125 
Q 64.75 56 71.09375 56 
Q 79.640625 56 84.28125 50.015625 
Q 88.921875 44.046875 88.921875 33.015625 
L 88.921875 0 
L 79.890625 0 
L 79.890625 32.71875 
Q 79.890625 40.578125 77.09375 44.375 
Q 74.3125 48.1875 68.609375 48.1875 
Q 61.625 48.1875 57.5625 43.546875 
Q 53.515625 38.921875 53.515625 30.90625 
L 53.515625 0 
L 44.484375 0 
L 44.484375 32.71875 
Q 44.484375 40.625 41.703125 44.40625 
Q 38.921875 48.1875 33.109375 48.1875 
Q 26.21875 48.1875 22.15625 43.53125 
Q 18.109375 38.875 18.109375 30.90625 
L 18.109375 0 
L 9.078125 0 
L 9.078125 54.6875 
L 18.109375 54.6875 
L 18.109375 46.1875 
Q 21.1875 51.21875 25.484375 53.609375 
Q 29.78125 56 35.6875 56 
Q 41.65625 56 45.828125 52.96875 
Q 50 49.953125 52 44.1875 
z
" id="DejaVuSans-109"/>
      <path d="M 48.6875 27.296875 
Q 48.6875 37.203125 44.609375 42.84375 
Q 40.53125 48.484375 33.40625 48.484375 
Q 26.265625 48.484375 22.1875 42.84375 
Q 18.109375 37.203125 18.109375 27.296875 
Q 18.109375 17.390625 22.1875 11.75 
Q 26.265625 6.109375 33.40625 6.109375 
Q 40.53125 6.109375 44.609375 11.75 
Q 48.6875 17.390625 48.6875 27.296875 
z
M 18.109375 46.390625 
Q 20.953125 51.265625 25.265625 53.625 
Q 29.59375 56 35.59375 56 
Q 45.5625 56 51.78125 48.09375 
Q 58.015625 40.1875 58.015625 27.296875 
Q 58.015625 14.40625 51.78125 6.484375 
Q 45.5625 -1.421875 35.59375 -1.421875 
Q 29.59375 -1.421875 25.265625 0.953125 
Q 20.953125 3.328125 18.109375 8.203125 
L 18.109375 0 
L 9.078125 0 
L 9.078125 75.984375 
L 18.109375 75.984375 
z
" id="DejaVuSans-98"/>
      <path d="M 56.203125 29.59375 
L 56.203125 25.203125 
L 14.890625 25.203125 
Q 15.484375 15.921875 20.484375 11.0625 
Q 25.484375 6.203125 34.421875 6.203125 
Q 39.59375 6.203125 44.453125 7.46875 
Q 49.3125 8.734375 54.109375 11.28125 
L 54.109375 2.78125 
Q 49.265625 0.734375 44.1875 -0.34375 
Q 39.109375 -1.421875 33.890625 -1.421875 
Q 20.796875 -1.421875 13.15625 6.1875 
Q 5.515625 13.8125 5.515625 26.8125 
Q 5.515625 40.234375 12.765625 48.109375 
Q 20.015625 56 32.328125 56 
Q 43.359375 56 49.78125 48.890625 
Q 56.203125 41.796875 56.203125 29.59375 
z
M 47.21875 32.234375 
Q 47.125 39.59375 43.09375 43.984375 
Q 39.0625 48.390625 32.421875 48.390625 
Q 24.90625 48.390625 20.390625 44.140625 
Q 15.875 39.890625 15.1875 32.171875 
z
" id="DejaVuSans-101"/>
      <path d="M 41.109375 46.296875 
Q 39.59375 47.171875 37.8125 47.578125 
Q 36.03125 48 33.890625 48 
Q 26.265625 48 22.1875 43.046875 
Q 18.109375 38.09375 18.109375 28.8125 
L 18.109375 0 
L 9.078125 0 
L 9.078125 54.6875 
L 18.109375 54.6875 
L 18.109375 46.1875 
Q 20.953125 51.171875 25.484375 53.578125 
Q 30.03125 56 36.53125 56 
Q 37.453125 56 38.578125 55.875 
Q 39.703125 55.765625 41.0625 55.515625 
z
" id="DejaVuSans-114"/>
      <path id="DejaVuSans-32"/>
      <path d="M 30.609375 48.390625 
Q 23.390625 48.390625 19.1875 42.75 
Q 14.984375 37.109375 14.984375 27.296875 
Q 14.984375 17.484375 19.15625 11.84375 
Q 23.34375 6.203125 30.609375 6.203125 
Q 37.796875 6.203125 41.984375 11.859375 
Q 46.1875 17.53125 46.1875 27.296875 
Q 46.1875 37.015625 41.984375 42.703125 
Q 37.796875 48.390625 30.609375 48.390625 
z
M 30.609375 56 
Q 42.328125 56 49.015625 48.375 
Q 55.71875 40.765625 55.71875 27.296875 
Q 55.71875 13.875 49.015625 6.21875 
Q 42.328125 -1.421875 30.609375 -1.421875 
Q 18.84375 -1.421875 12.171875 6.21875 
Q 5.515625 13.875 5.515625 27.296875 
Q 5.515625 40.765625 12.171875 48.375 
Q 18.84375 56 30.609375 56 
z
" id="DejaVuSans-111"/>
      <path d="M 37.109375 75.984375 
L 37.109375 68.5 
L 28.515625 68.5 
Q 23.6875 68.5 21.796875 66.546875 
Q 19.921875 64.59375 19.921875 59.515625 
L 19.921875 54.6875 
L 34.71875 54.6875 
L 34.71875 47.703125 
L 19.921875 47.703125 
L 19.921875 0 
L 10.890625 0 
L 10.890625 47.703125 
L 2.296875 47.703125 
L 2.296875 54.6875 
L 10.890625 54.6875 
L 10.890625 58.5 
Q 10.890625 67.625 15.140625 71.796875 
Q 19.390625 75.984375 28.609375 75.984375 
z
" id="DejaVuSans-102"/>
      <path d="M 45.40625 27.984375 
Q 45.40625 37.75 41.375 43.109375 
Q 37.359375 48.484375 30.078125 48.484375 
Q 22.859375 48.484375 18.828125 43.109375 
Q 14.796875 37.75 14.796875 27.984375 
Q 14.796875 18.265625 18.828125 12.890625 
Q 22.859375 7.515625 30.078125 7.515625 
Q 37.359375 7.515625 41.375 12.890625 
Q 45.40625 18.265625 45.40625 27.984375 
z
M 54.390625 6.78125 
Q 54.390625 -7.171875 48.1875 -13.984375 
Q 42 -20.796875 29.203125 -20.796875 
Q 24.46875 -20.796875 20.265625 -20.09375 
Q 16.0625 -19.390625 12.109375 -17.921875 
L 12.109375 -9.1875 
Q 16.0625 -11.328125 19.921875 -12.34375 
Q 23.78125 -13.375 27.78125 -13.375 
Q 36.625 -13.375 41.015625 -8.765625 
Q 45.40625 -4.15625 45.40625 5.171875 
L 45.40625 9.625 
Q 42.625 4.78125 38.28125 2.390625 
Q 33.9375 0 27.875 0 
Q 17.828125 0 11.671875 7.65625 
Q 5.515625 15.328125 5.515625 27.984375 
Q 5.515625 40.671875 11.671875 48.328125 
Q 17.828125 56 27.875 56 
Q 33.9375 56 38.28125 53.609375 
Q 42.625 51.21875 45.40625 46.390625 
L 45.40625 54.6875 
L 54.390625 54.6875 
z
" id="DejaVuSans-103"/>
      <path d="M 34.28125 27.484375 
Q 23.390625 27.484375 19.1875 25 
Q 14.984375 22.515625 14.984375 16.5 
Q 14.984375 11.71875 18.140625 8.90625 
Q 21.296875 6.109375 26.703125 6.109375 
Q 34.1875 6.109375 38.703125 11.40625 
Q 43.21875 16.703125 43.21875 25.484375 
L 43.21875 27.484375 
z
M 52.203125 31.203125 
L 52.203125 0 
L 43.21875 0 
L 43.21875 8.296875 
Q 40.140625 3.328125 35.546875 0.953125 
Q 30.953125 -1.421875 24.3125 -1.421875 
Q 15.921875 -1.421875 10.953125 3.296875 
Q 6 8.015625 6 15.921875 
Q 6 25.140625 12.171875 29.828125 
Q 18.359375 34.515625 30.609375 34.515625 
L 43.21875 34.515625 
L 43.21875 35.40625 
Q 43.21875 41.609375 39.140625 45 
Q 35.0625 48.390625 27.6875 48.390625 
Q 23 48.390625 18.546875 47.265625 
Q 14.109375 46.140625 10.015625 43.890625 
L 10.015625 52.203125 
Q 14.9375 54.109375 19.578125 55.046875 
Q 24.21875 56 28.609375 56 
Q 40.484375 56 46.34375 49.84375 
Q 52.203125 43.703125 52.203125 31.203125 
z
" id="DejaVuSans-97"/>
      <path d="M 44.28125 53.078125 
L 44.28125 44.578125 
Q 40.484375 46.53125 36.375 47.5 
Q 32.28125 48.484375 27.875 48.484375 
Q 21.1875 48.484375 17.84375 46.4375 
Q 14.5 44.390625 14.5 40.28125 
Q 14.5 37.15625 16.890625 35.375 
Q 19.28125 33.59375 26.515625 31.984375 
L 29.59375 31.296875 
Q 39.15625 29.25 43.1875 25.515625 
Q 47.21875 21.78125 47.21875 15.09375 
Q 47.21875 7.46875 41.1875 3.015625 
Q 35.15625 -1.421875 24.609375 -1.421875 
Q 20.21875 -1.421875 15.453125 -0.5625 
Q 10.6875 0.296875 5.421875 2 
L 5.421875 11.28125 
Q 10.40625 8.6875 15.234375 7.390625 
Q 20.0625 6.109375 24.8125 6.109375 
Q 31.15625 6.109375 34.5625 8.28125 
Q 37.984375 10.453125 37.984375 14.40625 
Q 37.984375 18.0625 35.515625 20.015625 
Q 33.0625 21.96875 24.703125 23.78125 
L 21.578125 24.515625 
Q 13.234375 26.265625 9.515625 29.90625 
Q 5.8125 33.546875 5.8125 39.890625 
Q 5.8125 47.609375 11.28125 51.796875 
Q 16.75 56 26.8125 56 
Q 31.78125 56 36.171875 55.265625 
Q 40.578125 54.546875 44.28125 53.078125 
z
" id="DejaVuSans-115"/>
     </defs>
     <g transform="translate(224.239375 343.433125)scale(0.2 -0.2)">
      <use xlink:href="#DejaVuSans-110"/>
      <use x="63.378906" xlink:href="#DejaVuSans-117"/>
      <use x="126.757812" xlink:href="#DejaVuSans-109"/>
      <use x="224.169922" xlink:href="#DejaVuSans-98"/>
      <use x="287.646484" xlink:href="#DejaVuSans-101"/>
      <use x="349.169922" xlink:href="#DejaVuSans-114"/>
      <use x="390.283203" xlink:href="#DejaVuSans-32"/>
      <use x="422.070312" xlink:href="#DejaVuSans-111"/>
      <use x="483.251953" xlink:href="#DejaVuSans-102"/>
      <use x="518.457031" xlink:href="#DejaVuSans-32"/>
      <use x="550.244141" xlink:href="#DejaVuSans-103"/>
      <use x="613.720703" xlink:href="#DejaVuSans-97"/>
      <use x="675" xlink:href="#DejaVuSans-109"/>
      <use x="772.412109" xlink:href="#DejaVuSans-101"/>
      <use x="833.935547" xlink:href="#DejaVuSans-115"/>
     </g>
    </g>
   </g>
   <g id="matplotlib.axis_2">
    <g id="ytick_1">
     <g id="line2d_8">
      <defs>
       <path d="M 0 0 
L -3.5 0 
" id="me25922b854" style="stroke:#000000;stroke-width:0.8;"/>
      </defs>
      <g>
       <use style="stroke:#000000;stroke-width:0.8;" x="109.175" xlink:href="#me25922b854" y="291.327556"/>
      </g>
     </g>
     <g id="text_9">
      <!-- 0.900 -->
      <defs>
       <path d="M 10.6875 12.40625 
L 21 12.40625 
L 21 0 
L 10.6875 0 
z
" id="DejaVuSans-46"/>
       <path d="M 10.984375 1.515625 
L 10.984375 10.5 
Q 14.703125 8.734375 18.5 7.8125 
Q 22.3125 6.890625 25.984375 6.890625 
Q 35.75 6.890625 40.890625 13.453125 
Q 46.046875 20.015625 46.78125 33.40625 
Q 43.953125 29.203125 39.59375 26.953125 
Q 35.25 24.703125 29.984375 24.703125 
Q 19.046875 24.703125 12.671875 31.3125 
Q 6.296875 37.9375 6.296875 49.421875 
Q 6.296875 60.640625 12.9375 67.421875 
Q 19.578125 74.21875 30.609375 74.21875 
Q 43.265625 74.21875 49.921875 64.515625 
Q 56.59375 54.828125 56.59375 36.375 
Q 56.59375 19.140625 48.40625 8.859375 
Q 40.234375 -1.421875 26.421875 -1.421875 
Q 22.703125 -1.421875 18.890625 -0.6875 
Q 15.09375 0.046875 10.984375 1.515625 
z
M 30.609375 32.421875 
Q 37.25 32.421875 41.125 36.953125 
Q 45.015625 41.5 45.015625 49.421875 
Q 45.015625 57.28125 41.125 61.84375 
Q 37.25 66.40625 30.609375 66.40625 
Q 23.96875 66.40625 20.09375 61.84375 
Q 16.21875 57.28125 16.21875 49.421875 
Q 16.21875 41.5 20.09375 36.953125 
Q 23.96875 32.421875 30.609375 32.421875 
z
" id="DejaVuSans-57"/>
      </defs>
      <g transform="translate(44.91875 298.925993)scale(0.2 -0.2)">
       <use xlink:href="#DejaVuSans-48"/>
       <use x="63.623047" xlink:href="#DejaVuSans-46"/>
       <use x="95.410156" xlink:href="#DejaVuSans-57"/>
       <use x="159.033203" xlink:href="#DejaVuSans-48"/>
       <use x="222.65625" xlink:href="#DejaVuSans-48"/>
      </g>
     </g>
    </g>
    <g id="ytick_2">
     <g id="line2d_9">
      <g>
       <use style="stroke:#000000;stroke-width:0.8;" x="109.175" xlink:href="#me25922b854" y="258.565333"/>
      </g>
     </g>
     <g id="text_10">
      <!-- 0.905 -->
      <g transform="translate(44.91875 266.163771)scale(0.2 -0.2)">
       <use xlink:href="#DejaVuSans-48"/>
       <use x="63.623047" xlink:href="#DejaVuSans-46"/>
       <use x="95.410156" xlink:href="#DejaVuSans-57"/>
       <use x="159.033203" xlink:href="#DejaVuSans-48"/>
       <use x="222.65625" xlink:href="#DejaVuSans-53"/>
      </g>
     </g>
    </g>
    <g id="ytick_3">
     <g id="line2d_10">
      <g>
       <use style="stroke:#000000;stroke-width:0.8;" x="109.175" xlink:href="#me25922b854" y="225.803111"/>
      </g>
     </g>
     <g id="text_11">
      <!-- 0.910 -->
      <g transform="translate(44.91875 233.401549)scale(0.2 -0.2)">
       <use xlink:href="#DejaVuSans-48"/>
       <use x="63.623047" xlink:href="#DejaVuSans-46"/>
       <use x="95.410156" xlink:href="#DejaVuSans-57"/>
       <use x="159.033203" xlink:href="#DejaVuSans-49"/>
       <use x="222.65625" xlink:href="#DejaVuSans-48"/>
      </g>
     </g>
    </g>
    <g id="ytick_4">
     <g id="line2d_11">
      <g>
       <use style="stroke:#000000;stroke-width:0.8;" x="109.175" xlink:href="#me25922b854" y="193.040889"/>
      </g>
     </g>
     <g id="text_12">
      <!-- 0.915 -->
      <g transform="translate(44.91875 200.639326)scale(0.2 -0.2)">
       <use xlink:href="#DejaVuSans-48"/>
       <use x="63.623047" xlink:href="#DejaVuSans-46"/>
       <use x="95.410156" xlink:href="#DejaVuSans-57"/>
       <use x="159.033203" xlink:href="#DejaVuSans-49"/>
       <use x="222.65625" xlink:href="#DejaVuSans-53"/>
      </g>
     </g>
    </g>
    <g id="ytick_5">
     <g id="line2d_12">
      <g>
       <use style="stroke:#000000;stroke-width:0.8;" x="109.175" xlink:href="#me25922b854" y="160.278667"/>
      </g>
     </g>
     <g id="text_13">
      <!-- 0.920 -->
      <g transform="translate(44.91875 167.877104)scale(0.2 -0.2)">
       <use xlink:href="#DejaVuSans-48"/>
       <use x="63.623047" xlink:href="#DejaVuSans-46"/>
       <use x="95.410156" xlink:href="#DejaVuSans-57"/>
       <use x="159.033203" xlink:href="#DejaVuSans-50"/>
       <use x="222.65625" xlink:href="#DejaVuSans-48"/>
      </g>
     </g>
    </g>
    <g id="ytick_6">
     <g id="line2d_13">
      <g>
       <use style="stroke:#000000;stroke-width:0.8;" x="109.175" xlink:href="#me25922b854" y="127.516444"/>
      </g>
     </g>
     <g id="text_14">
      <!-- 0.925 -->
      <g transform="translate(44.91875 135.114882)scale(0.2 -0.2)">
       <use xlink:href="#DejaVuSans-48"/>
       <use x="63.623047" xlink:href="#DejaVuSans-46"/>
       <use x="95.410156" xlink:href="#DejaVuSans-57"/>
       <use x="159.033203" xlink:href="#DejaVuSans-50"/>
       <use x="222.65625" xlink:href="#DejaVuSans-53"/>
      </g>
     </g>
    </g>
    <g id="ytick_7">
     <g id="line2d_14">
      <g>
       <use style="stroke:#000000;stroke-width:0.8;" x="109.175" xlink:href="#me25922b854" y="94.754222"/>
      </g>
     </g>
     <g id="text_15">
      <!-- 0.930 -->
      <g transform="translate(44.91875 102.35266)scale(0.2 -0.2)">
       <use xlink:href="#DejaVuSans-48"/>
       <use x="63.623047" xlink:href="#DejaVuSans-46"/>
       <use x="95.410156" xlink:href="#DejaVuSans-57"/>
       <use x="159.033203" xlink:href="#DejaVuSans-51"/>
       <use x="222.65625" xlink:href="#DejaVuSans-48"/>
      </g>
     </g>
    </g>
    <g id="ytick_8">
     <g id="line2d_15">
      <g>
       <use style="stroke:#000000;stroke-width:0.8;" x="109.175" xlink:href="#me25922b854" y="61.992"/>
      </g>
     </g>
     <g id="text_16">
      <!-- 0.935 -->
      <g transform="translate(44.91875 69.590438)scale(0.2 -0.2)">
       <use xlink:href="#DejaVuSans-48"/>
       <use x="63.623047" xlink:href="#DejaVuSans-46"/>
       <use x="95.410156" xlink:href="#DejaVuSans-57"/>
       <use x="159.033203" xlink:href="#DejaVuSans-51"/>
       <use x="222.65625" xlink:href="#DejaVuSans-53"/>
      </g>
     </g>
    </g>
    <g id="text_17">
     <!-- TPR -->
     <defs>
      <path d="M -0.296875 72.90625 
L 61.375 72.90625 
L 61.375 64.59375 
L 35.5 64.59375 
L 35.5 0 
L 25.59375 0 
L 25.59375 64.59375 
L -0.296875 64.59375 
z
" id="DejaVuSans-84"/>
      <path d="M 19.671875 64.796875 
L 19.671875 37.40625 
L 32.078125 37.40625 
Q 38.96875 37.40625 42.71875 40.96875 
Q 46.484375 44.53125 46.484375 51.125 
Q 46.484375 57.671875 42.71875 61.234375 
Q 38.96875 64.796875 32.078125 64.796875 
z
M 9.8125 72.90625 
L 32.078125 72.90625 
Q 44.34375 72.90625 50.609375 67.359375 
Q 56.890625 61.8125 56.890625 51.125 
Q 56.890625 40.328125 50.609375 34.8125 
Q 44.34375 29.296875 32.078125 29.296875 
L 19.671875 29.296875 
L 19.671875 0 
L 9.8125 0 
z
" id="DejaVuSans-80"/>
      <path d="M 44.390625 34.1875 
Q 47.5625 33.109375 50.5625 29.59375 
Q 53.5625 26.078125 56.59375 19.921875 
L 66.609375 0 
L 56 0 
L 46.6875 18.703125 
Q 43.0625 26.03125 39.671875 28.421875 
Q 36.28125 30.8125 30.421875 30.8125 
L 19.671875 30.8125 
L 19.671875 0 
L 9.8125 0 
L 9.8125 72.90625 
L 32.078125 72.90625 
Q 44.578125 72.90625 50.734375 67.671875 
Q 56.890625 62.453125 56.890625 51.90625 
Q 56.890625 45.015625 53.6875 40.46875 
Q 50.484375 35.9375 44.390625 34.1875 
z
M 19.671875 64.796875 
L 19.671875 38.921875 
L 32.078125 38.921875 
Q 39.203125 38.921875 42.84375 42.21875 
Q 46.484375 45.515625 46.484375 51.90625 
Q 46.484375 58.296875 42.84375 61.546875 
Q 39.203125 64.796875 32.078125 64.796875 
z
" id="DejaVuSans-82"/>
     </defs>
     <g transform="translate(36.759375 199.021938)rotate(-90)scale(0.2 -0.2)">
      <use xlink:href="#DejaVuSans-84"/>
      <use x="61.083984" xlink:href="#DejaVuSans-80"/>
      <use x="121.386719" xlink:href="#DejaVuSans-82"/>
     </g>
    </g>
   </g>
   <g id="line2d_16">
    <path clip-path="url(#p7a0fb2c008)" d="M 109.175 291.327556 
L 115.963917 287.169024 
L 122.752833 282.920811 
L 129.54175 279.184205 
L 136.330667 275.776988 
L 143.119583 272.504109 
L 149.9085 269.23802 
L 156.697417 266.088695 
L 163.486333 262.921941 
L 170.27525 259.70233 
L 177.064167 256.540297 
L 183.853083 253.389887 
L 190.642 250.310455 
L 197.430917 246.823756 
L 204.219833 243.740227 
L 211.00875 240.717111 
L 217.797667 237.461263 
L 224.586583 234.407956 
L 231.3755 231.448518 
L 238.164417 228.18866 
L 244.953333 225.531191 
L 251.74225 222.617625 
L 258.531167 219.912187 
L 265.320083 217.017922 
L 272.109 213.977959 
L 278.897917 211.335719 
L 285.686833 208.175104 
L 292.47575 205.142959 
L 299.264667 202.348353 
L 306.053583 199.6721 
L 312.8425 197.130573 
L 319.631417 194.500284 
L 326.420333 190.867036 
L 333.20925 189.268718 
L 339.998167 186.877343 
L 346.787083 182.792453 
L 353.576 180.181776 
L 360.364917 178.207897 
L 367.153833 176.265151 
L 373.94275 173.479326 
L 380.731667 168.549704 
L 387.520583 167.64917 
L 394.3095 166.516883 
L 401.098417 164.235758 
L 407.887333 162.872194 
L 414.67625 159.831324 
L 421.465167 157.338953 
L 428.254083 155.141634 
L 435.043 155.577933 
L 441.831917 152.165326 
L 448.620833 148.963295 
L 455.40975 145.760146 
L 462.198667 140.222761 
L 468.987583 137.380463 
L 475.7765 137.670217 
L 482.565417 136.347453 
L 489.354333 132.556406 
L 496.14325 130.029773 
L 502.932167 125.098737 
L 509.721083 125.098737 
L 516.51 121.476 
L 523.298917 117.880497 
L 530.087833 117.880497 
L 536.87675 114.363727 
L 541 112.258772 
" style="fill:none;stroke:#1f77b4;stroke-linecap:square;stroke-width:3;"/>
    <defs>
     <path d="M 0 -6 
L -5.706339 -1.854102 
L -3.526712 4.854102 
L 3.526712 4.854102 
L 5.706339 -1.854102 
z
" id="mb21e54700b" style="stroke:#1f77b4;stroke-linejoin:miter;"/>
    </defs>
    <g clip-path="url(#p7a0fb2c008)">
     <use style="fill:#1f77b4;stroke:#1f77b4;stroke-linejoin:miter;" x="109.175" xlink:href="#mb21e54700b" y="291.327556"/>
     <use style="fill:#1f77b4;stroke:#1f77b4;stroke-linejoin:miter;" x="244.953333" xlink:href="#mb21e54700b" y="225.531191"/>
     <use style="fill:#1f77b4;stroke:#1f77b4;stroke-linejoin:miter;" x="380.731667" xlink:href="#mb21e54700b" y="168.549704"/>
     <use style="fill:#1f77b4;stroke:#1f77b4;stroke-linejoin:miter;" x="516.51" xlink:href="#mb21e54700b" y="121.476"/>
    </g>
   </g>
   <g id="line2d_17">
    <path clip-path="url(#p7a0fb2c008)" d="M 109.175 291.327556 
L 115.963917 286.455391 
L 122.752833 283.970271 
L 129.54175 281.369049 
L 136.330667 278.758465 
L 143.119583 275.942942 
L 149.9085 273.24609 
L 156.697417 270.242439 
L 163.486333 267.220502 
L 170.27525 264.334696 
L 177.064167 261.238702 
L 183.853083 258.08248 
L 190.642 255.015408 
L 197.430917 252.077731 
L 204.219833 249.214276 
L 211.00875 246.079185 
L 217.797667 243.119061 
L 224.586583 240.319541 
L 231.3755 237.513628 
L 238.164417 234.770984 
L 244.953333 232.069199 
L 251.74225 228.920938 
L 258.531167 226.049324 
L 265.320083 223.206884 
L 272.109 220.61887 
L 278.897917 218.347368 
L 285.686833 215.59368 
L 292.47575 213.707212 
L 299.264667 210.987061 
L 306.053583 208.777475 
L 312.8425 206.791802 
L 319.631417 204.29221 
L 326.420333 201.727619 
L 333.20925 199.884568 
L 339.998167 198.175931 
L 346.787083 195.550428 
L 353.576 193.687448 
L 360.364917 190.116385 
L 367.153833 189.317097 
L 373.94275 187.83188 
L 380.731667 187.132064 
L 387.520583 185.887517 
L 394.3095 184.57493 
L 401.098417 179.399796 
L 407.887333 176.817371 
L 414.67625 175.464284 
L 421.465167 168.571104 
L 428.254083 164.932586 
L 435.043 166.816563 
L 441.831917 166.405355 
L 448.620833 162.95231 
L 455.40975 160.412931 
L 462.198667 161.733074 
L 468.987583 154.071002 
L 475.7765 150.008226 
L 482.565417 147.992833 
L 489.354333 147.992833 
L 496.14325 144.024541 
L 502.932167 140.117299 
L 509.721083 140.117299 
L 516.51 140.117299 
L 523.298917 136.26971 
" style="fill:none;stroke:#ff7f0e;stroke-dasharray:11.1,4.8;stroke-dashoffset:0;stroke-width:3;"/>
    <defs>
     <path d="M -0 8.485281 
L 5.091169 0 
L 0 -8.485281 
L -5.091169 -0 
z
" id="madb5185769" style="stroke:#ff7f0e;stroke-linejoin:miter;"/>
    </defs>
    <g clip-path="url(#p7a0fb2c008)">
     <use style="fill:#ff7f0e;stroke:#ff7f0e;stroke-linejoin:miter;" x="109.175" xlink:href="#madb5185769" y="291.327556"/>
     <use style="fill:#ff7f0e;stroke:#ff7f0e;stroke-linejoin:miter;" x="244.953333" xlink:href="#madb5185769" y="232.069199"/>
     <use style="fill:#ff7f0e;stroke:#ff7f0e;stroke-linejoin:miter;" x="380.731667" xlink:href="#madb5185769" y="187.132064"/>
     <use style="fill:#ff7f0e;stroke:#ff7f0e;stroke-linejoin:miter;" x="516.51" xlink:href="#madb5185769" y="140.117299"/>
    </g>
   </g>
   <g id="line2d_18">
    <path clip-path="url(#p7a0fb2c008)" d="M 109.175 291.327556 
L 115.963917 284.839987 
L 122.752833 278.479625 
L 129.54175 273.808218 
L 136.330667 269.301127 
L 143.119583 264.827939 
L 149.9085 260.314347 
L 156.697417 255.936053 
L 163.486333 251.549426 
L 170.27525 247.43797 
L 177.064167 243.390787 
L 183.853083 239.319898 
L 190.642 235.237247 
L 197.430917 231.28114 
L 204.219833 227.446789 
L 211.00875 223.527739 
L 217.797667 219.737917 
L 224.586583 215.94765 
L 231.3755 212.14868 
L 238.164417 208.366483 
L 244.953333 204.573857 
L 251.74225 201.004561 
L 258.531167 197.341055 
L 265.320083 193.822201 
L 272.109 190.165902 
L 278.897917 186.991341 
L 285.686833 183.595298 
L 292.47575 180.341742 
L 299.264667 177.251511 
L 306.053583 173.282523 
L 312.8425 170.120634 
L 319.631417 166.816459 
L 326.420333 163.556612 
L 333.20925 160.347121 
L 339.998167 157.223192 
L 346.787083 154.019589 
L 353.576 151.030421 
L 360.364917 147.726109 
L 367.153833 144.044683 
L 373.94275 141.706681 
L 380.731667 139.231199 
L 387.520583 136.330232 
L 394.3095 133.150526 
L 401.098417 130.518055 
L 407.887333 127.463308 
L 414.67625 124.724241 
L 421.465167 121.295789 
L 428.254083 118.907455 
L 435.043 116.127191 
L 441.831917 113.608122 
L 448.620833 111.408547 
L 455.40975 107.991008 
L 462.198667 106.081078 
L 468.987583 103.422415 
L 475.7765 100.433439 
L 482.565417 98.548025 
L 489.354333 95.68268 
L 496.14325 94.243162 
L 502.932167 91.713678 
L 509.721083 89.753694 
L 516.51 86.804497 
L 523.298917 85.534505 
L 530.087833 83.157568 
L 536.87675 81.666877 
L 541 80.273327 
" style="fill:none;stroke:#2ca02c;stroke-dasharray:19.2,4.8,3,4.8;stroke-dashoffset:0;stroke-width:3;"/>
    <defs>
     <path d="M -0 6 
L 6 -6 
L -6 -6 
z
" id="m316fd66c0b" style="stroke:#2ca02c;stroke-linejoin:miter;"/>
    </defs>
    <g clip-path="url(#p7a0fb2c008)">
     <use style="fill:#2ca02c;stroke:#2ca02c;stroke-linejoin:miter;" x="109.175" xlink:href="#m316fd66c0b" y="291.327556"/>
     <use style="fill:#2ca02c;stroke:#2ca02c;stroke-linejoin:miter;" x="244.953333" xlink:href="#m316fd66c0b" y="204.573857"/>
     <use style="fill:#2ca02c;stroke:#2ca02c;stroke-linejoin:miter;" x="380.731667" xlink:href="#m316fd66c0b" y="139.231199"/>
     <use style="fill:#2ca02c;stroke:#2ca02c;stroke-linejoin:miter;" x="516.51" xlink:href="#m316fd66c0b" y="86.804497"/>
     <use style="fill:#2ca02c;stroke:#2ca02c;stroke-linejoin:miter;" x="652.288333" xlink:href="#m316fd66c0b" y="28.445054"/>
    </g>
   </g>
   <g id="line2d_19">
    <path clip-path="url(#p7a0fb2c008)" d="M 109.175 291.327556 
L 115.963917 284.839987 
L 122.752833 278.479625 
L 129.54175 272.735478 
L 136.330667 267.394927 
L 143.119583 262.191107 
L 149.9085 257.336509 
L 156.697417 252.688968 
L 163.486333 247.98204 
L 170.27525 244.035241 
L 177.064167 239.716059 
L 183.853083 235.822139 
L 190.642 232.01664 
L 197.430917 228.160483 
L 204.219833 224.118543 
L 211.00875 220.091541 
L 217.797667 216.092451 
L 224.586583 212.222314 
L 231.3755 208.376476 
L 238.164417 204.555074 
L 244.953333 200.992431 
L 251.74225 197.448219 
L 258.531167 193.860919 
L 265.320083 190.191715 
L 272.109 186.59045 
L 278.897917 183.128062 
L 285.686833 179.534504 
L 292.47575 176.072257 
L 299.264667 173.072461 
L 306.053583 169.863519 
L 312.8425 166.649665 
L 319.631417 163.30462 
L 326.420333 160.027024 
L 333.20925 156.513085 
L 339.998167 153.247664 
L 346.787083 150.371747 
L 353.576 147.615504 
L 360.364917 144.749971 
L 367.153833 141.38163 
L 373.94275 138.936329 
L 380.731667 135.97484 
L 387.520583 133.163526 
L 394.3095 130.244589 
L 401.098417 127.767972 
L 407.887333 125.585573 
L 414.67625 122.721903 
L 421.465167 119.852191 
L 428.254083 117.07261 
L 435.043 114.545823 
L 441.831917 112.09176 
L 448.620833 108.805056 
L 455.40975 106.769139 
L 462.198667 103.862026 
L 468.987583 101.355703 
L 475.7765 96.824705 
L 482.565417 94.729717 
L 489.354333 92.485162 
L 496.14325 90.029672 
L 502.932167 88.252929 
L 509.721083 85.883755 
L 516.51 83.086693 
L 523.298917 82.779225 
L 530.087833 77.272932 
L 536.87675 72.916138 
L 541 71.485164 
" style="fill:none;stroke:#d62728;stroke-dasharray:3,4.95;stroke-dashoffset:0;stroke-width:3;"/>
    <defs>
     <path d="M -6 6 
L 6 -6 
M -6 -6 
L 6 6 
" id="m11ecb074fa" style="stroke:#d62728;"/>
    </defs>
    <g clip-path="url(#p7a0fb2c008)">
     <use style="fill:#d62728;stroke:#d62728;" x="109.175" xlink:href="#m11ecb074fa" y="291.327556"/>
     <use style="fill:#d62728;stroke:#d62728;" x="244.953333" xlink:href="#m11ecb074fa" y="200.992431"/>
     <use style="fill:#d62728;stroke:#d62728;" x="380.731667" xlink:href="#m11ecb074fa" y="135.97484"/>
     <use style="fill:#d62728;stroke:#d62728;" x="516.51" xlink:href="#m11ecb074fa" y="83.086693"/>
     <use style="fill:#d62728;stroke:#d62728;" x="652.288333" xlink:href="#m11ecb074fa" y="61.477122"/>
    </g>
   </g>
   <g id="line2d_20">
    <path clip-path="url(#p7a0fb2c008)" d="M 109.175 291.327556 
L 115.963917 287.350676 
L 122.752833 283.311719 
L 129.54175 279.450244 
L 136.330667 275.534452 
L 143.119583 271.563668 
L 149.9085 267.876216 
L 156.697417 263.976884 
L 163.486333 260.286191 
L 170.27525 256.593185 
L 177.064167 252.91361 
L 183.853083 248.788735 
L 190.642 244.808543 
L 197.430917 240.956945 
L 204.219833 237.361964 
L 211.00875 233.297223 
L 217.797667 229.525832 
L 224.586583 225.793463 
L 231.3755 222.286898 
L 238.164417 218.750723 
L 244.953333 215.688295 
L 251.74225 211.697365 
L 258.531167 208.653215 
L 265.320083 204.838788 
L 272.109 201.795381 
L 278.897917 198.120779 
L 285.686833 194.529093 
L 292.47575 189.942379 
L 299.264667 186.142082 
L 306.053583 181.665659 
L 312.8425 177.351718 
L 319.631417 174.636924 
L 326.420333 170.924707 
L 333.20925 168.104146 
L 339.998167 165.637529 
L 346.787083 161.351465 
L 353.576 159.531052 
L 360.364917 155.412584 
L 367.153833 152.231095 
L 373.94275 149.050644 
L 380.731667 147.640339 
L 387.520583 146.16377 
L 394.3095 143.547362 
L 401.098417 142.704913 
L 407.887333 136.404448 
L 414.67625 133.819504 
L 421.465167 131.329595 
L 428.254083 127.613777 
L 435.043 121.555917 
L 441.831917 119.823016 
L 448.620833 118.115049 
L 455.40975 107.481992 
" style="fill:none;stroke:#9467bd;stroke-linecap:square;stroke-width:3;"/>
    <defs>
     <path d="M -6 6 
L 6 6 
L 6 -6 
L -6 -6 
z
" id="m24a58612c9" style="stroke:#9467bd;stroke-linejoin:miter;"/>
    </defs>
    <g clip-path="url(#p7a0fb2c008)">
     <use style="fill:#9467bd;stroke:#9467bd;stroke-linejoin:miter;" x="109.175" xlink:href="#m24a58612c9" y="291.327556"/>
     <use style="fill:#9467bd;stroke:#9467bd;stroke-linejoin:miter;" x="244.953333" xlink:href="#m24a58612c9" y="215.688295"/>
     <use style="fill:#9467bd;stroke:#9467bd;stroke-linejoin:miter;" x="380.731667" xlink:href="#m24a58612c9" y="147.640339"/>
    </g>
   </g>
   <g id="line2d_21">
    <path clip-path="url(#p7a0fb2c008)" d="M 109.175 291.327556 
L 115.963917 291.327556 
L 122.752833 291.327556 
L 129.54175 291.327556 
L 136.330667 291.327556 
L 143.119583 291.327556 
" style="fill:none;stroke:#8c564b;stroke-dasharray:11.1,4.8;stroke-dashoffset:0;stroke-width:3;"/>
    <defs>
     <path d="M 0 -6 
L -1.347084 -1.854102 
L -5.706339 -1.854102 
L -2.179628 0.708204 
L -3.526712 4.854102 
L -0 2.291796 
L 3.526712 4.854102 
L 2.179628 0.708204 
L 5.706339 -1.854102 
L 1.347084 -1.854102 
z
" id="m6a6c39f777" style="stroke:#8c564b;stroke-linejoin:bevel;"/>
    </defs>
    <g clip-path="url(#p7a0fb2c008)">
     <use style="fill:#8c564b;stroke:#8c564b;stroke-linejoin:bevel;" x="109.175" xlink:href="#m6a6c39f777" y="291.327556"/>
    </g>
   </g>
   <g id="line2d_22">
    <path clip-path="url(#p7a0fb2c008)" d="M 109.175 291.327556 
L 115.963917 291.327556 
L 122.752833 291.327556 
L 129.54175 291.327556 
L 136.330667 291.327556 
L 143.119583 291.327556 
L 149.9085 291.327556 
" style="fill:none;stroke:#e377c2;stroke-dasharray:19.2,4.8,3,4.8;stroke-dashoffset:0;stroke-width:3;"/>
    <defs>
     <path d="M 0 0 
L 0 6 
M 0 0 
L 4.8 -3 
M 0 0 
L -4.8 -3 
" id="m6be781149d" style="stroke:#e377c2;"/>
    </defs>
    <g clip-path="url(#p7a0fb2c008)">
     <use style="fill:#e377c2;stroke:#e377c2;" x="109.175" xlink:href="#m6be781149d" y="291.327556"/>
    </g>
   </g>
   <g id="line2d_23">
    <path clip-path="url(#p7a0fb2c008)" d="M 109.175 291.327556 
L 115.963917 291.327556 
L 122.752833 291.327556 
L 129.54175 291.327556 
L 136.330667 291.327556 
" style="fill:none;stroke:#7f7f7f;stroke-dasharray:3,4.95;stroke-dashoffset:0;stroke-width:3;"/>
    <defs>
     <path d="M 0 3 
C 0.795609 3 1.55874 2.683901 2.12132 2.12132 
C 2.683901 1.55874 3 0.795609 3 0 
C 3 -0.795609 2.683901 -1.55874 2.12132 -2.12132 
C 1.55874 -2.683901 0.795609 -3 0 -3 
C -0.795609 -3 -1.55874 -2.683901 -2.12132 -2.12132 
C -2.683901 -1.55874 -3 -0.795609 -3 0 
C -3 0.795609 -2.683901 1.55874 -2.12132 2.12132 
C -1.55874 2.683901 -0.795609 3 0 3 
z
" id="md7f1b55c79" style="stroke:#7f7f7f;"/>
    </defs>
    <g clip-path="url(#p7a0fb2c008)">
     <use style="fill:#7f7f7f;stroke:#7f7f7f;" x="109.175" xlink:href="#md7f1b55c79" y="291.327556"/>
    </g>
   </g>
   <g id="patch_3">
    <path d="M 109.175 297.88 
L 109.175 61.992 
" style="fill:none;stroke:#000000;stroke-linecap:square;stroke-linejoin:miter;stroke-width:0.8;"/>
   </g>
   <g id="patch_4">
    <path d="M 516.51 297.88 
L 516.51 61.992 
" style="fill:none;stroke:#000000;stroke-linecap:square;stroke-linejoin:miter;stroke-width:0.8;"/>
   </g>
   <g id="patch_5">
    <path d="M 109.175 297.88 
L 516.51 297.88 
" style="fill:none;stroke:#000000;stroke-linecap:square;stroke-linejoin:miter;stroke-width:0.8;"/>
   </g>
   <g id="patch_6">
    <path d="M 109.175 61.992 
L 516.51 61.992 
" style="fill:none;stroke:#000000;stroke-linecap:square;stroke-linejoin:miter;stroke-width:0.8;"/>
   </g>
   <g id="legend_1">
    <g id="patch_7">
     <path d="M 16.09125 53.38312 
L 507.76 53.38312 
Q 510.26 53.38312 510.26 50.88312 
L 510.26 15.437808 
Q 510.26 12.937808 507.76 12.937808 
L 16.09125 12.937808 
Q 13.59125 12.937808 13.59125 15.437808 
L 13.59125 50.88312 
Q 13.59125 53.38312 16.09125 53.38312 
z
" style="fill:#ffffff;opacity:0.8;stroke:#cccccc;stroke-linejoin:miter;"/>
    </g>
    <g id="line2d_24">
     <path d="M 18.59125 23.060854 
L 43.59125 23.060854 
" style="fill:none;stroke:#1f77b4;stroke-linecap:square;stroke-width:3;"/>
    </g>
    <g id="line2d_25">
     <g>
      <use style="fill:#1f77b4;stroke:#1f77b4;stroke-linejoin:miter;" x="31.09125" xlink:href="#mb21e54700b" y="23.060854"/>
     </g>
    </g>
    <g id="text_18">
     <!-- HG-DD-IPI -->
     <defs>
      <path d="M 9.8125 72.90625 
L 19.671875 72.90625 
L 19.671875 43.015625 
L 55.515625 43.015625 
L 55.515625 72.90625 
L 65.375 72.90625 
L 65.375 0 
L 55.515625 0 
L 55.515625 34.71875 
L 19.671875 34.71875 
L 19.671875 0 
L 9.8125 0 
z
" id="DejaVuSans-72"/>
      <path d="M 59.515625 10.40625 
L 59.515625 29.984375 
L 43.40625 29.984375 
L 43.40625 38.09375 
L 69.28125 38.09375 
L 69.28125 6.78125 
Q 63.578125 2.734375 56.6875 0.65625 
Q 49.8125 -1.421875 42 -1.421875 
Q 24.90625 -1.421875 15.25 8.5625 
Q 5.609375 18.5625 5.609375 36.375 
Q 5.609375 54.25 15.25 64.234375 
Q 24.90625 74.21875 42 74.21875 
Q 49.125 74.21875 55.546875 72.453125 
Q 61.96875 70.703125 67.390625 67.28125 
L 67.390625 56.78125 
Q 61.921875 61.421875 55.765625 63.765625 
Q 49.609375 66.109375 42.828125 66.109375 
Q 29.4375 66.109375 22.71875 58.640625 
Q 16.015625 51.171875 16.015625 36.375 
Q 16.015625 21.625 22.71875 14.15625 
Q 29.4375 6.6875 42.828125 6.6875 
Q 48.046875 6.6875 52.140625 7.59375 
Q 56.25 8.5 59.515625 10.40625 
z
" id="DejaVuSans-71"/>
      <path d="M 4.890625 31.390625 
L 31.203125 31.390625 
L 31.203125 23.390625 
L 4.890625 23.390625 
z
" id="DejaVuSans-45"/>
      <path d="M 19.671875 64.796875 
L 19.671875 8.109375 
L 31.59375 8.109375 
Q 46.6875 8.109375 53.6875 14.9375 
Q 60.6875 21.78125 60.6875 36.53125 
Q 60.6875 51.171875 53.6875 57.984375 
Q 46.6875 64.796875 31.59375 64.796875 
z
M 9.8125 72.90625 
L 30.078125 72.90625 
Q 51.265625 72.90625 61.171875 64.09375 
Q 71.09375 55.28125 71.09375 36.53125 
Q 71.09375 17.671875 61.125 8.828125 
Q 51.171875 0 30.078125 0 
L 9.8125 0 
z
" id="DejaVuSans-68"/>
      <path d="M 9.8125 72.90625 
L 19.671875 72.90625 
L 19.671875 0 
L 9.8125 0 
z
" id="DejaVuSans-73"/>
     </defs>
     <g transform="translate(53.59125 27.435854)scale(0.125 -0.125)">
      <use xlink:href="#DejaVuSans-72"/>
      <use x="75.195312" xlink:href="#DejaVuSans-71"/>
      <use x="152.685547" xlink:href="#DejaVuSans-45"/>
      <use x="188.769531" xlink:href="#DejaVuSans-68"/>
      <use x="265.771484" xlink:href="#DejaVuSans-68"/>
      <use x="342.773438" xlink:href="#DejaVuSans-45"/>
      <use x="378.857422" xlink:href="#DejaVuSans-73"/>
      <use x="408.349609" xlink:href="#DejaVuSans-80"/>
      <use x="468.652344" xlink:href="#DejaVuSans-73"/>
     </g>
    </g>
    <g id="line2d_26">
     <path d="M 18.59125 41.408511 
L 43.59125 41.408511 
" style="fill:none;stroke:#ff7f0e;stroke-dasharray:11.1,4.8;stroke-dashoffset:0;stroke-width:3;"/>
    </g>
    <g id="line2d_27">
     <g>
      <use style="fill:#ff7f0e;stroke:#ff7f0e;stroke-linejoin:miter;" x="31.09125" xlink:href="#madb5185769" y="41.408511"/>
     </g>
    </g>
    <g id="text_19">
     <!-- G-DD-PI -->
     <g transform="translate(53.59125 45.783511)scale(0.125 -0.125)">
      <use xlink:href="#DejaVuSans-71"/>
      <use x="77.490234" xlink:href="#DejaVuSans-45"/>
      <use x="113.574219" xlink:href="#DejaVuSans-68"/>
      <use x="190.576172" xlink:href="#DejaVuSans-68"/>
      <use x="267.578125" xlink:href="#DejaVuSans-45"/>
      <use x="303.662109" xlink:href="#DejaVuSans-80"/>
      <use x="363.964844" xlink:href="#DejaVuSans-73"/>
     </g>
    </g>
    <g id="line2d_28">
     <path d="M 122.126016 23.060854 
L 147.126016 23.060854 
" style="fill:none;stroke:#2ca02c;stroke-dasharray:19.2,4.8,3,4.8;stroke-dashoffset:0;stroke-width:3;"/>
    </g>
    <g id="line2d_29">
     <g>
      <use style="fill:#2ca02c;stroke:#2ca02c;stroke-linejoin:miter;" x="134.626016" xlink:href="#m316fd66c0b" y="23.060854"/>
     </g>
    </g>
    <g id="text_20">
     <!-- HG-DD-ML-IPI -->
     <defs>
      <path d="M 9.8125 72.90625 
L 24.515625 72.90625 
L 43.109375 23.296875 
L 61.8125 72.90625 
L 76.515625 72.90625 
L 76.515625 0 
L 66.890625 0 
L 66.890625 64.015625 
L 48.09375 14.015625 
L 38.1875 14.015625 
L 19.390625 64.015625 
L 19.390625 0 
L 9.8125 0 
z
" id="DejaVuSans-77"/>
      <path d="M 9.8125 72.90625 
L 19.671875 72.90625 
L 19.671875 8.296875 
L 55.171875 8.296875 
L 55.171875 0 
L 9.8125 0 
z
" id="DejaVuSans-76"/>
     </defs>
     <g transform="translate(157.126016 27.435854)scale(0.125 -0.125)">
      <use xlink:href="#DejaVuSans-72"/>
      <use x="75.195312" xlink:href="#DejaVuSans-71"/>
      <use x="152.685547" xlink:href="#DejaVuSans-45"/>
      <use x="188.769531" xlink:href="#DejaVuSans-68"/>
      <use x="265.771484" xlink:href="#DejaVuSans-68"/>
      <use x="342.773438" xlink:href="#DejaVuSans-45"/>
      <use x="378.857422" xlink:href="#DejaVuSans-77"/>
      <use x="465.136719" xlink:href="#DejaVuSans-76"/>
      <use x="520.833984" xlink:href="#DejaVuSans-45"/>
      <use x="556.917969" xlink:href="#DejaVuSans-73"/>
      <use x="586.410156" xlink:href="#DejaVuSans-80"/>
      <use x="646.712891" xlink:href="#DejaVuSans-73"/>
     </g>
    </g>
    <g id="line2d_30">
     <path d="M 122.126016 41.408511 
L 147.126016 41.408511 
" style="fill:none;stroke:#d62728;stroke-dasharray:3,4.95;stroke-dashoffset:0;stroke-width:3;"/>
    </g>
    <g id="line2d_31">
     <g>
      <use style="fill:#d62728;stroke:#d62728;" x="134.626016" xlink:href="#m11ecb074fa" y="41.408511"/>
     </g>
    </g>
    <g id="text_21">
     <!-- G-DD-ML-PI -->
     <g transform="translate(157.126016 45.783511)scale(0.125 -0.125)">
      <use xlink:href="#DejaVuSans-71"/>
      <use x="77.490234" xlink:href="#DejaVuSans-45"/>
      <use x="113.574219" xlink:href="#DejaVuSans-68"/>
      <use x="190.576172" xlink:href="#DejaVuSans-68"/>
      <use x="267.578125" xlink:href="#DejaVuSans-45"/>
      <use x="303.662109" xlink:href="#DejaVuSans-77"/>
      <use x="389.941406" xlink:href="#DejaVuSans-76"/>
      <use x="445.638672" xlink:href="#DejaVuSans-45"/>
      <use x="481.722656" xlink:href="#DejaVuSans-80"/>
      <use x="542.025391" xlink:href="#DejaVuSans-73"/>
     </g>
    </g>
    <g id="line2d_32">
     <path d="M 247.918594 23.060854 
L 272.918594 23.060854 
" style="fill:none;stroke:#9467bd;stroke-linecap:square;stroke-width:3;"/>
    </g>
    <g id="line2d_33">
     <g>
      <use style="fill:#9467bd;stroke:#9467bd;stroke-linejoin:miter;" x="260.418594" xlink:href="#m24a58612c9" y="23.060854"/>
     </g>
    </g>
    <g id="text_22">
     <!-- DD-Random -->
     <defs>
      <path d="M 45.40625 46.390625 
L 45.40625 75.984375 
L 54.390625 75.984375 
L 54.390625 0 
L 45.40625 0 
L 45.40625 8.203125 
Q 42.578125 3.328125 38.25 0.953125 
Q 33.9375 -1.421875 27.875 -1.421875 
Q 17.96875 -1.421875 11.734375 6.484375 
Q 5.515625 14.40625 5.515625 27.296875 
Q 5.515625 40.1875 11.734375 48.09375 
Q 17.96875 56 27.875 56 
Q 33.9375 56 38.25 53.625 
Q 42.578125 51.265625 45.40625 46.390625 
z
M 14.796875 27.296875 
Q 14.796875 17.390625 18.875 11.75 
Q 22.953125 6.109375 30.078125 6.109375 
Q 37.203125 6.109375 41.296875 11.75 
Q 45.40625 17.390625 45.40625 27.296875 
Q 45.40625 37.203125 41.296875 42.84375 
Q 37.203125 48.484375 30.078125 48.484375 
Q 22.953125 48.484375 18.875 42.84375 
Q 14.796875 37.203125 14.796875 27.296875 
z
" id="DejaVuSans-100"/>
     </defs>
     <g transform="translate(282.918594 27.435854)scale(0.125 -0.125)">
      <use xlink:href="#DejaVuSans-68"/>
      <use x="77.001953" xlink:href="#DejaVuSans-68"/>
      <use x="154.003906" xlink:href="#DejaVuSans-45"/>
      <use x="190.087891" xlink:href="#DejaVuSans-82"/>
      <use x="259.539062" xlink:href="#DejaVuSans-97"/>
      <use x="320.818359" xlink:href="#DejaVuSans-110"/>
      <use x="384.197266" xlink:href="#DejaVuSans-100"/>
      <use x="447.673828" xlink:href="#DejaVuSans-111"/>
      <use x="508.855469" xlink:href="#DejaVuSans-109"/>
     </g>
    </g>
    <g id="line2d_34">
     <path d="M 247.918594 41.408511 
L 272.918594 41.408511 
" style="fill:none;stroke:#8c564b;stroke-dasharray:11.1,4.8;stroke-dashoffset:0;stroke-width:3;"/>
    </g>
    <g id="line2d_35">
     <g>
      <use style="fill:#8c564b;stroke:#8c564b;stroke-linejoin:bevel;" x="260.418594" xlink:href="#m6a6c39f777" y="41.408511"/>
     </g>
    </g>
    <g id="text_23">
     <!-- HG-No-DD-IPI -->
     <defs>
      <path d="M 9.8125 72.90625 
L 23.09375 72.90625 
L 55.421875 11.921875 
L 55.421875 72.90625 
L 64.984375 72.90625 
L 64.984375 0 
L 51.703125 0 
L 19.390625 60.984375 
L 19.390625 0 
L 9.8125 0 
z
" id="DejaVuSans-78"/>
     </defs>
     <g transform="translate(282.918594 45.783511)scale(0.125 -0.125)">
      <use xlink:href="#DejaVuSans-72"/>
      <use x="75.195312" xlink:href="#DejaVuSans-71"/>
      <use x="152.685547" xlink:href="#DejaVuSans-45"/>
      <use x="188.769531" xlink:href="#DejaVuSans-78"/>
      <use x="263.574219" xlink:href="#DejaVuSans-111"/>
      <use x="324.771484" xlink:href="#DejaVuSans-45"/>
      <use x="360.855469" xlink:href="#DejaVuSans-68"/>
      <use x="437.857422" xlink:href="#DejaVuSans-68"/>
      <use x="514.859375" xlink:href="#DejaVuSans-45"/>
      <use x="550.943359" xlink:href="#DejaVuSans-73"/>
      <use x="580.435547" xlink:href="#DejaVuSans-80"/>
      <use x="640.738281" xlink:href="#DejaVuSans-73"/>
     </g>
    </g>
    <g id="line2d_36">
     <path d="M 372.965078 23.060854 
L 397.965078 23.060854 
" style="fill:none;stroke:#e377c2;stroke-dasharray:19.2,4.8,3,4.8;stroke-dashoffset:0;stroke-width:3;"/>
    </g>
    <g id="line2d_37">
     <g>
      <use style="fill:#e377c2;stroke:#e377c2;" x="385.465078" xlink:href="#m6be781149d" y="23.060854"/>
     </g>
    </g>
    <g id="text_24">
     <!-- G-No-DD-PI -->
     <g transform="translate(407.965078 27.435854)scale(0.125 -0.125)">
      <use xlink:href="#DejaVuSans-71"/>
      <use x="77.490234" xlink:href="#DejaVuSans-45"/>
      <use x="113.574219" xlink:href="#DejaVuSans-78"/>
      <use x="188.378906" xlink:href="#DejaVuSans-111"/>
      <use x="249.576172" xlink:href="#DejaVuSans-45"/>
      <use x="285.660156" xlink:href="#DejaVuSans-68"/>
      <use x="362.662109" xlink:href="#DejaVuSans-68"/>
      <use x="439.664062" xlink:href="#DejaVuSans-45"/>
      <use x="475.748047" xlink:href="#DejaVuSans-80"/>
      <use x="536.050781" xlink:href="#DejaVuSans-73"/>
     </g>
    </g>
    <g id="line2d_38">
     <path d="M 372.965078 41.408511 
L 397.965078 41.408511 
" style="fill:none;stroke:#7f7f7f;stroke-dasharray:3,4.95;stroke-dashoffset:0;stroke-width:3;"/>
    </g>
    <g id="line2d_39">
     <g>
      <use style="fill:#7f7f7f;stroke:#7f7f7f;" x="385.465078" xlink:href="#md7f1b55c79" y="41.408511"/>
     </g>
    </g>
    <g id="text_25">
     <!-- No-DD-Random -->
     <g transform="translate(407.965078 45.783511)scale(0.125 -0.125)">
      <use xlink:href="#DejaVuSans-78"/>
      <use x="74.804688" xlink:href="#DejaVuSans-111"/>
      <use x="136.001953" xlink:href="#DejaVuSans-45"/>
      <use x="172.085938" xlink:href="#DejaVuSans-68"/>
      <use x="249.087891" xlink:href="#DejaVuSans-68"/>
      <use x="326.089844" xlink:href="#DejaVuSans-45"/>
      <use x="362.173828" xlink:href="#DejaVuSans-82"/>
      <use x="431.625" xlink:href="#DejaVuSans-97"/>
      <use x="492.904297" xlink:href="#DejaVuSans-110"/>
      <use x="556.283203" xlink:href="#DejaVuSans-100"/>
      <use x="619.759766" xlink:href="#DejaVuSans-111"/>
      <use x="680.941406" xlink:href="#DejaVuSans-109"/>
     </g>
    </g>
   </g>
  </g>
 </g>
 <defs>
  <clipPath id="p7a0fb2c008">
   <rect height="235.888" width="407.335" x="109.175" y="61.992"/>
  </clipPath>
 </defs>
</svg>
