<?xml version="1.0" encoding="utf-8" standalone="no"?>
<!DOCTYPE svg PUBLIC "-//W3C//DTD SVG 1.1//EN"
  "http://www.w3.org/Graphics/SVG/1.1/DTD/svg11.dtd">
<!-- Created with matplotlib (https://matplotlib.org/) -->
<svg height="432pt" version="1.1" viewBox="0 0 540 432" width="540pt" xmlns="http://www.w3.org/2000/svg" xmlns:xlink="http://www.w3.org/1999/xlink">
 <defs>
  <style type="text/css">
*{stroke-linecap:butt;stroke-linejoin:round;}
  </style>
 </defs>
 <g id="figure_1">
  <g id="patch_1">
   <path d="M 0 432 
L 540 432 
L 540 0 
L 0 0 
z
" style="fill:#ffffff;"/>
  </g>
  <g id="axes_1">
   <g id="patch_2">
    <path d="M 51.05 365.56 
L 529.2 365.56 
L 529.2 66.6 
L 51.05 66.6 
z
" style="fill:#ffffff;"/>
   </g>
   <g id="matplotlib.axis_1">
    <g id="xtick_1">
     <g id="line2d_1">
      <defs>
       <path d="M 0 0 
L 0 3.5 
" id="mea02996af6" style="stroke:#000000;stroke-width:0.8;"/>
      </defs>
      <g>
       <use style="stroke:#000000;stroke-width:0.8;" x="72.784091" xlink:href="#mea02996af6" y="365.56"/>
      </g>
     </g>
     <g id="text_1">
      <!-- 0 -->
      <defs>
       <path d="M 31.78125 66.40625 
Q 24.171875 66.40625 20.328125 58.90625 
Q 16.5 51.421875 16.5 36.375 
Q 16.5 21.390625 20.328125 13.890625 
Q 24.171875 6.390625 31.78125 6.390625 
Q 39.453125 6.390625 43.28125 13.890625 
Q 47.125 21.390625 47.125 36.375 
Q 47.125 51.421875 43.28125 58.90625 
Q 39.453125 66.40625 31.78125 66.40625 
z
M 31.78125 74.21875 
Q 44.046875 74.21875 50.515625 64.515625 
Q 56.984375 54.828125 56.984375 36.375 
Q 56.984375 17.96875 50.515625 8.265625 
Q 44.046875 -1.421875 31.78125 -1.421875 
Q 19.53125 -1.421875 13.0625 8.265625 
Q 6.59375 17.96875 6.59375 36.375 
Q 6.59375 54.828125 13.0625 64.515625 
Q 19.53125 74.21875 31.78125 74.21875 
z
" id="DejaVuSans-48"/>
      </defs>
      <g transform="translate(66.421591 387.756875)scale(0.2 -0.2)">
       <use xlink:href="#DejaVuSans-48"/>
      </g>
     </g>
    </g>
    <g id="xtick_2">
     <g id="line2d_2">
      <g>
       <use style="stroke:#000000;stroke-width:0.8;" x="126.448513" xlink:href="#mea02996af6" y="365.56"/>
      </g>
     </g>
     <g id="text_2">
      <!-- 10 -->
      <defs>
       <path d="M 12.40625 8.296875 
L 28.515625 8.296875 
L 28.515625 63.921875 
L 10.984375 60.40625 
L 10.984375 69.390625 
L 28.421875 72.90625 
L 38.28125 72.90625 
L 38.28125 8.296875 
L 54.390625 8.296875 
L 54.390625 0 
L 12.40625 0 
z
" id="DejaVuSans-49"/>
      </defs>
      <g transform="translate(113.723513 387.756875)scale(0.2 -0.2)">
       <use xlink:href="#DejaVuSans-49"/>
       <use x="63.623047" xlink:href="#DejaVuSans-48"/>
      </g>
     </g>
    </g>
    <g id="xtick_3">
     <g id="line2d_3">
      <g>
       <use style="stroke:#000000;stroke-width:0.8;" x="180.112935" xlink:href="#mea02996af6" y="365.56"/>
      </g>
     </g>
     <g id="text_3">
      <!-- 20 -->
      <defs>
       <path d="M 19.1875 8.296875 
L 53.609375 8.296875 
L 53.609375 0 
L 7.328125 0 
L 7.328125 8.296875 
Q 12.9375 14.109375 22.625 23.890625 
Q 32.328125 33.6875 34.8125 36.53125 
Q 39.546875 41.84375 41.421875 45.53125 
Q 43.3125 49.21875 43.3125 52.78125 
Q 43.3125 58.59375 39.234375 62.25 
Q 35.15625 65.921875 28.609375 65.921875 
Q 23.96875 65.921875 18.8125 64.3125 
Q 13.671875 62.703125 7.8125 59.421875 
L 7.8125 69.390625 
Q 13.765625 71.78125 18.9375 73 
Q 24.125 74.21875 28.421875 74.21875 
Q 39.75 74.21875 46.484375 68.546875 
Q 53.21875 62.890625 53.21875 53.421875 
Q 53.21875 48.921875 51.53125 44.890625 
Q 49.859375 40.875 45.40625 35.40625 
Q 44.1875 33.984375 37.640625 27.21875 
Q 31.109375 20.453125 19.1875 8.296875 
z
" id="DejaVuSans-50"/>
      </defs>
      <g transform="translate(167.387935 387.756875)scale(0.2 -0.2)">
       <use xlink:href="#DejaVuSans-50"/>
       <use x="63.623047" xlink:href="#DejaVuSans-48"/>
      </g>
     </g>
    </g>
    <g id="xtick_4">
     <g id="line2d_4">
      <g>
       <use style="stroke:#000000;stroke-width:0.8;" x="233.777357" xlink:href="#mea02996af6" y="365.56"/>
      </g>
     </g>
     <g id="text_4">
      <!-- 30 -->
      <defs>
       <path d="M 40.578125 39.3125 
Q 47.65625 37.796875 51.625 33 
Q 55.609375 28.21875 55.609375 21.1875 
Q 55.609375 10.40625 48.1875 4.484375 
Q 40.765625 -1.421875 27.09375 -1.421875 
Q 22.515625 -1.421875 17.65625 -0.515625 
Q 12.796875 0.390625 7.625 2.203125 
L 7.625 11.71875 
Q 11.71875 9.328125 16.59375 8.109375 
Q 21.484375 6.890625 26.8125 6.890625 
Q 36.078125 6.890625 40.9375 10.546875 
Q 45.796875 14.203125 45.796875 21.1875 
Q 45.796875 27.640625 41.28125 31.265625 
Q 36.765625 34.90625 28.71875 34.90625 
L 20.21875 34.90625 
L 20.21875 43.015625 
L 29.109375 43.015625 
Q 36.375 43.015625 40.234375 45.921875 
Q 44.09375 48.828125 44.09375 54.296875 
Q 44.09375 59.90625 40.109375 62.90625 
Q 36.140625 65.921875 28.71875 65.921875 
Q 24.65625 65.921875 20.015625 65.03125 
Q 15.375 64.15625 9.8125 62.3125 
L 9.8125 71.09375 
Q 15.4375 72.65625 20.34375 73.4375 
Q 25.25 74.21875 29.59375 74.21875 
Q 40.828125 74.21875 47.359375 69.109375 
Q 53.90625 64.015625 53.90625 55.328125 
Q 53.90625 49.265625 50.4375 45.09375 
Q 46.96875 40.921875 40.578125 39.3125 
z
" id="DejaVuSans-51"/>
      </defs>
      <g transform="translate(221.052357 387.756875)scale(0.2 -0.2)">
       <use xlink:href="#DejaVuSans-51"/>
       <use x="63.623047" xlink:href="#DejaVuSans-48"/>
      </g>
     </g>
    </g>
    <g id="xtick_5">
     <g id="line2d_5">
      <g>
       <use style="stroke:#000000;stroke-width:0.8;" x="287.441779" xlink:href="#mea02996af6" y="365.56"/>
      </g>
     </g>
     <g id="text_5">
      <!-- 40 -->
      <defs>
       <path d="M 37.796875 64.3125 
L 12.890625 25.390625 
L 37.796875 25.390625 
z
M 35.203125 72.90625 
L 47.609375 72.90625 
L 47.609375 25.390625 
L 58.015625 25.390625 
L 58.015625 17.1875 
L 47.609375 17.1875 
L 47.609375 0 
L 37.796875 0 
L 37.796875 17.1875 
L 4.890625 17.1875 
L 4.890625 26.703125 
z
" id="DejaVuSans-52"/>
      </defs>
      <g transform="translate(274.716779 387.756875)scale(0.2 -0.2)">
       <use xlink:href="#DejaVuSans-52"/>
       <use x="63.623047" xlink:href="#DejaVuSans-48"/>
      </g>
     </g>
    </g>
    <g id="xtick_6">
     <g id="line2d_6">
      <g>
       <use style="stroke:#000000;stroke-width:0.8;" x="341.106201" xlink:href="#mea02996af6" y="365.56"/>
      </g>
     </g>
     <g id="text_6">
      <!-- 50 -->
      <defs>
       <path d="M 10.796875 72.90625 
L 49.515625 72.90625 
L 49.515625 64.59375 
L 19.828125 64.59375 
L 19.828125 46.734375 
Q 21.96875 47.46875 24.109375 47.828125 
Q 26.265625 48.1875 28.421875 48.1875 
Q 40.625 48.1875 47.75 41.5 
Q 54.890625 34.8125 54.890625 23.390625 
Q 54.890625 11.625 47.5625 5.09375 
Q 40.234375 -1.421875 26.90625 -1.421875 
Q 22.3125 -1.421875 17.546875 -0.640625 
Q 12.796875 0.140625 7.71875 1.703125 
L 7.71875 11.625 
Q 12.109375 9.234375 16.796875 8.0625 
Q 21.484375 6.890625 26.703125 6.890625 
Q 35.15625 6.890625 40.078125 11.328125 
Q 45.015625 15.765625 45.015625 23.390625 
Q 45.015625 31 40.078125 35.4375 
Q 35.15625 39.890625 26.703125 39.890625 
Q 22.75 39.890625 18.8125 39.015625 
Q 14.890625 38.140625 10.796875 36.28125 
z
" id="DejaVuSans-53"/>
      </defs>
      <g transform="translate(328.381201 387.756875)scale(0.2 -0.2)">
       <use xlink:href="#DejaVuSans-53"/>
       <use x="63.623047" xlink:href="#DejaVuSans-48"/>
      </g>
     </g>
    </g>
    <g id="xtick_7">
     <g id="line2d_7">
      <g>
       <use style="stroke:#000000;stroke-width:0.8;" x="394.770623" xlink:href="#mea02996af6" y="365.56"/>
      </g>
     </g>
     <g id="text_7">
      <!-- 60 -->
      <defs>
       <path d="M 33.015625 40.375 
Q 26.375 40.375 22.484375 35.828125 
Q 18.609375 31.296875 18.609375 23.390625 
Q 18.609375 15.53125 22.484375 10.953125 
Q 26.375 6.390625 33.015625 6.390625 
Q 39.65625 6.390625 43.53125 10.953125 
Q 47.40625 15.53125 47.40625 23.390625 
Q 47.40625 31.296875 43.53125 35.828125 
Q 39.65625 40.375 33.015625 40.375 
z
M 52.59375 71.296875 
L 52.59375 62.3125 
Q 48.875 64.0625 45.09375 64.984375 
Q 41.3125 65.921875 37.59375 65.921875 
Q 27.828125 65.921875 22.671875 59.328125 
Q 17.53125 52.734375 16.796875 39.40625 
Q 19.671875 43.65625 24.015625 45.921875 
Q 28.375 48.1875 33.59375 48.1875 
Q 44.578125 48.1875 50.953125 41.515625 
Q 57.328125 34.859375 57.328125 23.390625 
Q 57.328125 12.15625 50.6875 5.359375 
Q 44.046875 -1.421875 33.015625 -1.421875 
Q 20.359375 -1.421875 13.671875 8.265625 
Q 6.984375 17.96875 6.984375 36.375 
Q 6.984375 53.65625 15.1875 63.9375 
Q 23.390625 74.21875 37.203125 74.21875 
Q 40.921875 74.21875 44.703125 73.484375 
Q 48.484375 72.75 52.59375 71.296875 
z
" id="DejaVuSans-54"/>
      </defs>
      <g transform="translate(382.045623 387.756875)scale(0.2 -0.2)">
       <use xlink:href="#DejaVuSans-54"/>
       <use x="63.623047" xlink:href="#DejaVuSans-48"/>
      </g>
     </g>
    </g>
    <g id="xtick_8">
     <g id="line2d_8">
      <g>
       <use style="stroke:#000000;stroke-width:0.8;" x="448.435045" xlink:href="#mea02996af6" y="365.56"/>
      </g>
     </g>
     <g id="text_8">
      <!-- 70 -->
      <defs>
       <path d="M 8.203125 72.90625 
L 55.078125 72.90625 
L 55.078125 68.703125 
L 28.609375 0 
L 18.3125 0 
L 43.21875 64.59375 
L 8.203125 64.59375 
z
" id="DejaVuSans-55"/>
      </defs>
      <g transform="translate(435.710045 387.756875)scale(0.2 -0.2)">
       <use xlink:href="#DejaVuSans-55"/>
       <use x="63.623047" xlink:href="#DejaVuSans-48"/>
      </g>
     </g>
    </g>
    <g id="xtick_9">
     <g id="line2d_9">
      <g>
       <use style="stroke:#000000;stroke-width:0.8;" x="502.099467" xlink:href="#mea02996af6" y="365.56"/>
      </g>
     </g>
     <g id="text_9">
      <!-- 80 -->
      <defs>
       <path d="M 31.78125 34.625 
Q 24.75 34.625 20.71875 30.859375 
Q 16.703125 27.09375 16.703125 20.515625 
Q 16.703125 13.921875 20.71875 10.15625 
Q 24.75 6.390625 31.78125 6.390625 
Q 38.8125 6.390625 42.859375 10.171875 
Q 46.921875 13.96875 46.921875 20.515625 
Q 46.921875 27.09375 42.890625 30.859375 
Q 38.875 34.625 31.78125 34.625 
z
M 21.921875 38.8125 
Q 15.578125 40.375 12.03125 44.71875 
Q 8.5 49.078125 8.5 55.328125 
Q 8.5 64.0625 14.71875 69.140625 
Q 20.953125 74.21875 31.78125 74.21875 
Q 42.671875 74.21875 48.875 69.140625 
Q 55.078125 64.0625 55.078125 55.328125 
Q 55.078125 49.078125 51.53125 44.71875 
Q 48 40.375 41.703125 38.8125 
Q 48.828125 37.15625 52.796875 32.3125 
Q 56.78125 27.484375 56.78125 20.515625 
Q 56.78125 9.90625 50.3125 4.234375 
Q 43.84375 -1.421875 31.78125 -1.421875 
Q 19.734375 -1.421875 13.25 4.234375 
Q 6.78125 9.90625 6.78125 20.515625 
Q 6.78125 27.484375 10.78125 32.3125 
Q 14.796875 37.15625 21.921875 38.8125 
z
M 18.3125 54.390625 
Q 18.3125 48.734375 21.84375 45.5625 
Q 25.390625 42.390625 31.78125 42.390625 
Q 38.140625 42.390625 41.71875 45.5625 
Q 45.3125 48.734375 45.3125 54.390625 
Q 45.3125 60.0625 41.71875 63.234375 
Q 38.140625 66.40625 31.78125 66.40625 
Q 25.390625 66.40625 21.84375 63.234375 
Q 18.3125 60.0625 18.3125 54.390625 
z
" id="DejaVuSans-56"/>
      </defs>
      <g transform="translate(489.374467 387.756875)scale(0.2 -0.2)">
       <use xlink:href="#DejaVuSans-56"/>
       <use x="63.623047" xlink:href="#DejaVuSans-48"/>
      </g>
     </g>
    </g>
    <g id="text_10">
     <!-- # of games -->
     <defs>
      <path d="M 51.125 44 
L 36.921875 44 
L 32.8125 27.6875 
L 47.125 27.6875 
z
M 43.796875 71.78125 
L 38.71875 51.515625 
L 52.984375 51.515625 
L 58.109375 71.78125 
L 65.921875 71.78125 
L 60.890625 51.515625 
L 76.125 51.515625 
L 76.125 44 
L 58.984375 44 
L 54.984375 27.6875 
L 70.515625 27.6875 
L 70.515625 20.21875 
L 53.078125 20.21875 
L 48 0 
L 40.1875 0 
L 45.21875 20.21875 
L 30.90625 20.21875 
L 25.875 0 
L 18.015625 0 
L 23.09375 20.21875 
L 7.71875 20.21875 
L 7.71875 27.6875 
L 24.90625 27.6875 
L 29 44 
L 13.28125 44 
L 13.28125 51.515625 
L 30.90625 51.515625 
L 35.890625 71.78125 
z
" id="DejaVuSans-35"/>
      <path id="DejaVuSans-32"/>
      <path d="M 30.609375 48.390625 
Q 23.390625 48.390625 19.1875 42.75 
Q 14.984375 37.109375 14.984375 27.296875 
Q 14.984375 17.484375 19.15625 11.84375 
Q 23.34375 6.203125 30.609375 6.203125 
Q 37.796875 6.203125 41.984375 11.859375 
Q 46.1875 17.53125 46.1875 27.296875 
Q 46.1875 37.015625 41.984375 42.703125 
Q 37.796875 48.390625 30.609375 48.390625 
z
M 30.609375 56 
Q 42.328125 56 49.015625 48.375 
Q 55.71875 40.765625 55.71875 27.296875 
Q 55.71875 13.875 49.015625 6.21875 
Q 42.328125 -1.421875 30.609375 -1.421875 
Q 18.84375 -1.421875 12.171875 6.21875 
Q 5.515625 13.875 5.515625 27.296875 
Q 5.515625 40.765625 12.171875 48.375 
Q 18.84375 56 30.609375 56 
z
" id="DejaVuSans-111"/>
      <path d="M 37.109375 75.984375 
L 37.109375 68.5 
L 28.515625 68.5 
Q 23.6875 68.5 21.796875 66.546875 
Q 19.921875 64.59375 19.921875 59.515625 
L 19.921875 54.6875 
L 34.71875 54.6875 
L 34.71875 47.703125 
L 19.921875 47.703125 
L 19.921875 0 
L 10.890625 0 
L 10.890625 47.703125 
L 2.296875 47.703125 
L 2.296875 54.6875 
L 10.890625 54.6875 
L 10.890625 58.5 
Q 10.890625 67.625 15.140625 71.796875 
Q 19.390625 75.984375 28.609375 75.984375 
z
" id="DejaVuSans-102"/>
      <path d="M 45.40625 27.984375 
Q 45.40625 37.75 41.375 43.109375 
Q 37.359375 48.484375 30.078125 48.484375 
Q 22.859375 48.484375 18.828125 43.109375 
Q 14.796875 37.75 14.796875 27.984375 
Q 14.796875 18.265625 18.828125 12.890625 
Q 22.859375 7.515625 30.078125 7.515625 
Q 37.359375 7.515625 41.375 12.890625 
Q 45.40625 18.265625 45.40625 27.984375 
z
M 54.390625 6.78125 
Q 54.390625 -7.171875 48.1875 -13.984375 
Q 42 -20.796875 29.203125 -20.796875 
Q 24.46875 -20.796875 20.265625 -20.09375 
Q 16.0625 -19.390625 12.109375 -17.921875 
L 12.109375 -9.1875 
Q 16.0625 -11.328125 19.921875 -12.34375 
Q 23.78125 -13.375 27.78125 -13.375 
Q 36.625 -13.375 41.015625 -8.765625 
Q 45.40625 -4.15625 45.40625 5.171875 
L 45.40625 9.625 
Q 42.625 4.78125 38.28125 2.390625 
Q 33.9375 0 27.875 0 
Q 17.828125 0 11.671875 7.65625 
Q 5.515625 15.328125 5.515625 27.984375 
Q 5.515625 40.671875 11.671875 48.328125 
Q 17.828125 56 27.875 56 
Q 33.9375 56 38.28125 53.609375 
Q 42.625 51.21875 45.40625 46.390625 
L 45.40625 54.6875 
L 54.390625 54.6875 
z
" id="DejaVuSans-103"/>
      <path d="M 34.28125 27.484375 
Q 23.390625 27.484375 19.1875 25 
Q 14.984375 22.515625 14.984375 16.5 
Q 14.984375 11.71875 18.140625 8.90625 
Q 21.296875 6.109375 26.703125 6.109375 
Q 34.1875 6.109375 38.703125 11.40625 
Q 43.21875 16.703125 43.21875 25.484375 
L 43.21875 27.484375 
z
M 52.203125 31.203125 
L 52.203125 0 
L 43.21875 0 
L 43.21875 8.296875 
Q 40.140625 3.328125 35.546875 0.953125 
Q 30.953125 -1.421875 24.3125 -1.421875 
Q 15.921875 -1.421875 10.953125 3.296875 
Q 6 8.015625 6 15.921875 
Q 6 25.140625 12.171875 29.828125 
Q 18.359375 34.515625 30.609375 34.515625 
L 43.21875 34.515625 
L 43.21875 35.40625 
Q 43.21875 41.609375 39.140625 45 
Q 35.0625 48.390625 27.6875 48.390625 
Q 23 48.390625 18.546875 47.265625 
Q 14.109375 46.140625 10.015625 43.890625 
L 10.015625 52.203125 
Q 14.9375 54.109375 19.578125 55.046875 
Q 24.21875 56 28.609375 56 
Q 40.484375 56 46.34375 49.84375 
Q 52.203125 43.703125 52.203125 31.203125 
z
" id="DejaVuSans-97"/>
      <path d="M 52 44.1875 
Q 55.375 50.25 60.0625 53.125 
Q 64.75 56 71.09375 56 
Q 79.640625 56 84.28125 50.015625 
Q 88.921875 44.046875 88.921875 33.015625 
L 88.921875 0 
L 79.890625 0 
L 79.890625 32.71875 
Q 79.890625 40.578125 77.09375 44.375 
Q 74.3125 48.1875 68.609375 48.1875 
Q 61.625 48.1875 57.5625 43.546875 
Q 53.515625 38.921875 53.515625 30.90625 
L 53.515625 0 
L 44.484375 0 
L 44.484375 32.71875 
Q 44.484375 40.625 41.703125 44.40625 
Q 38.921875 48.1875 33.109375 48.1875 
Q 26.21875 48.1875 22.15625 43.53125 
Q 18.109375 38.875 18.109375 30.90625 
L 18.109375 0 
L 9.078125 0 
L 9.078125 54.6875 
L 18.109375 54.6875 
L 18.109375 46.1875 
Q 21.1875 51.21875 25.484375 53.609375 
Q 29.78125 56 35.6875 56 
Q 41.65625 56 45.828125 52.96875 
Q 50 49.953125 52 44.1875 
z
" id="DejaVuSans-109"/>
      <path d="M 56.203125 29.59375 
L 56.203125 25.203125 
L 14.890625 25.203125 
Q 15.484375 15.921875 20.484375 11.0625 
Q 25.484375 6.203125 34.421875 6.203125 
Q 39.59375 6.203125 44.453125 7.46875 
Q 49.3125 8.734375 54.109375 11.28125 
L 54.109375 2.78125 
Q 49.265625 0.734375 44.1875 -0.34375 
Q 39.109375 -1.421875 33.890625 -1.421875 
Q 20.796875 -1.421875 13.15625 6.1875 
Q 5.515625 13.8125 5.515625 26.8125 
Q 5.515625 40.234375 12.765625 48.109375 
Q 20.015625 56 32.328125 56 
Q 43.359375 56 49.78125 48.890625 
Q 56.203125 41.796875 56.203125 29.59375 
z
M 47.21875 32.234375 
Q 47.125 39.59375 43.09375 43.984375 
Q 39.0625 48.390625 32.421875 48.390625 
Q 24.90625 48.390625 20.390625 44.140625 
Q 15.875 39.890625 15.1875 32.171875 
z
" id="DejaVuSans-101"/>
      <path d="M 44.28125 53.078125 
L 44.28125 44.578125 
Q 40.484375 46.53125 36.375 47.5 
Q 32.28125 48.484375 27.875 48.484375 
Q 21.1875 48.484375 17.84375 46.4375 
Q 14.5 44.390625 14.5 40.28125 
Q 14.5 37.15625 16.890625 35.375 
Q 19.28125 33.59375 26.515625 31.984375 
L 29.59375 31.296875 
Q 39.15625 29.25 43.1875 25.515625 
Q 47.21875 21.78125 47.21875 15.09375 
Q 47.21875 7.46875 41.1875 3.015625 
Q 35.15625 -1.421875 24.609375 -1.421875 
Q 20.21875 -1.421875 15.453125 -0.5625 
Q 10.6875 0.296875 5.421875 2 
L 5.421875 11.28125 
Q 10.40625 8.6875 15.234375 7.390625 
Q 20.0625 6.109375 24.8125 6.109375 
Q 31.15625 6.109375 34.5625 8.28125 
Q 37.984375 10.453125 37.984375 14.40625 
Q 37.984375 18.0625 35.515625 20.015625 
Q 33.0625 21.96875 24.703125 23.78125 
L 21.578125 24.515625 
Q 13.234375 26.265625 9.515625 29.90625 
Q 5.8125 33.546875 5.8125 39.890625 
Q 5.8125 47.609375 11.28125 51.796875 
Q 16.75 56 26.8125 56 
Q 31.78125 56 36.171875 55.265625 
Q 40.578125 54.546875 44.28125 53.078125 
z
" id="DejaVuSans-115"/>
     </defs>
     <g transform="translate(217.681641 414.912344)scale(0.25 -0.25)">
      <use xlink:href="#DejaVuSans-35"/>
      <use x="83.789062" xlink:href="#DejaVuSans-32"/>
      <use x="115.576172" xlink:href="#DejaVuSans-111"/>
      <use x="176.757812" xlink:href="#DejaVuSans-102"/>
      <use x="211.962891" xlink:href="#DejaVuSans-32"/>
      <use x="243.75" xlink:href="#DejaVuSans-103"/>
      <use x="307.226562" xlink:href="#DejaVuSans-97"/>
      <use x="368.505859" xlink:href="#DejaVuSans-109"/>
      <use x="465.917969" xlink:href="#DejaVuSans-101"/>
      <use x="527.441406" xlink:href="#DejaVuSans-115"/>
     </g>
    </g>
   </g>
   <g id="matplotlib.axis_2">
    <g id="ytick_1">
     <g id="line2d_10">
      <defs>
       <path d="M 0 0 
L -3.5 0 
" id="m2b404d08d8" style="stroke:#000000;stroke-width:0.8;"/>
      </defs>
      <g>
       <use style="stroke:#000000;stroke-width:0.8;" x="51.05" xlink:href="#m2b404d08d8" y="351.970909"/>
      </g>
     </g>
     <g id="text_11">
      <!-- 1 -->
      <g transform="translate(31.325 359.569347)scale(0.2 -0.2)">
       <use xlink:href="#DejaVuSans-49"/>
      </g>
     </g>
    </g>
    <g id="ytick_2">
     <g id="line2d_11">
      <g>
       <use style="stroke:#000000;stroke-width:0.8;" x="51.05" xlink:href="#m2b404d08d8" y="317.998182"/>
      </g>
     </g>
     <g id="text_12">
      <!-- 2 -->
      <g transform="translate(31.325 325.596619)scale(0.2 -0.2)">
       <use xlink:href="#DejaVuSans-50"/>
      </g>
     </g>
    </g>
    <g id="ytick_3">
     <g id="line2d_12">
      <g>
       <use style="stroke:#000000;stroke-width:0.8;" x="51.05" xlink:href="#m2b404d08d8" y="284.025455"/>
      </g>
     </g>
     <g id="text_13">
      <!-- 3 -->
      <g transform="translate(31.325 291.623892)scale(0.2 -0.2)">
       <use xlink:href="#DejaVuSans-51"/>
      </g>
     </g>
    </g>
    <g id="ytick_4">
     <g id="line2d_13">
      <g>
       <use style="stroke:#000000;stroke-width:0.8;" x="51.05" xlink:href="#m2b404d08d8" y="250.052727"/>
      </g>
     </g>
     <g id="text_14">
      <!-- 4 -->
      <g transform="translate(31.325 257.651165)scale(0.2 -0.2)">
       <use xlink:href="#DejaVuSans-52"/>
      </g>
     </g>
    </g>
    <g id="ytick_5">
     <g id="line2d_14">
      <g>
       <use style="stroke:#000000;stroke-width:0.8;" x="51.05" xlink:href="#m2b404d08d8" y="216.08"/>
      </g>
     </g>
     <g id="text_15">
      <!-- 5 -->
      <g transform="translate(31.325 223.678437)scale(0.2 -0.2)">
       <use xlink:href="#DejaVuSans-53"/>
      </g>
     </g>
    </g>
    <g id="ytick_6">
     <g id="line2d_15">
      <g>
       <use style="stroke:#000000;stroke-width:0.8;" x="51.05" xlink:href="#m2b404d08d8" y="182.107273"/>
      </g>
     </g>
     <g id="text_16">
      <!-- 6 -->
      <g transform="translate(31.325 189.70571)scale(0.2 -0.2)">
       <use xlink:href="#DejaVuSans-54"/>
      </g>
     </g>
    </g>
    <g id="ytick_7">
     <g id="line2d_16">
      <g>
       <use style="stroke:#000000;stroke-width:0.8;" x="51.05" xlink:href="#m2b404d08d8" y="148.134545"/>
      </g>
     </g>
     <g id="text_17">
      <!-- 7 -->
      <g transform="translate(31.325 155.732983)scale(0.2 -0.2)">
       <use xlink:href="#DejaVuSans-55"/>
      </g>
     </g>
    </g>
    <g id="ytick_8">
     <g id="line2d_17">
      <g>
       <use style="stroke:#000000;stroke-width:0.8;" x="51.05" xlink:href="#m2b404d08d8" y="114.161818"/>
      </g>
     </g>
     <g id="text_18">
      <!-- 8 -->
      <g transform="translate(31.325 121.760256)scale(0.2 -0.2)">
       <use xlink:href="#DejaVuSans-56"/>
      </g>
     </g>
    </g>
    <g id="ytick_9">
     <g id="line2d_18">
      <g>
       <use style="stroke:#000000;stroke-width:0.8;" x="51.05" xlink:href="#m2b404d08d8" y="80.189091"/>
      </g>
     </g>
     <g id="text_19">
      <!-- 9 -->
      <defs>
       <path d="M 10.984375 1.515625 
L 10.984375 10.5 
Q 14.703125 8.734375 18.5 7.8125 
Q 22.3125 6.890625 25.984375 6.890625 
Q 35.75 6.890625 40.890625 13.453125 
Q 46.046875 20.015625 46.78125 33.40625 
Q 43.953125 29.203125 39.59375 26.953125 
Q 35.25 24.703125 29.984375 24.703125 
Q 19.046875 24.703125 12.671875 31.3125 
Q 6.296875 37.9375 6.296875 49.421875 
Q 6.296875 60.640625 12.9375 67.421875 
Q 19.578125 74.21875 30.609375 74.21875 
Q 43.265625 74.21875 49.921875 64.515625 
Q 56.59375 54.828125 56.59375 36.375 
Q 56.59375 19.140625 48.40625 8.859375 
Q 40.234375 -1.421875 26.421875 -1.421875 
Q 22.703125 -1.421875 18.890625 -0.6875 
Q 15.09375 0.046875 10.984375 1.515625 
z
M 30.609375 32.421875 
Q 37.25 32.421875 41.125 36.953125 
Q 45.015625 41.5 45.015625 49.421875 
Q 45.015625 57.28125 41.125 61.84375 
Q 37.25 66.40625 30.609375 66.40625 
Q 23.96875 66.40625 20.09375 61.84375 
Q 16.21875 57.28125 16.21875 49.421875 
Q 16.21875 41.5 20.09375 36.953125 
Q 23.96875 32.421875 30.609375 32.421875 
z
" id="DejaVuSans-57"/>
      </defs>
      <g transform="translate(31.325 87.787528)scale(0.2 -0.2)">
       <use xlink:href="#DejaVuSans-57"/>
      </g>
     </g>
    </g>
    <g id="text_20">
     <!-- AHEU Value -->
     <defs>
      <path d="M 34.1875 63.1875 
L 20.796875 26.90625 
L 47.609375 26.90625 
z
M 28.609375 72.90625 
L 39.796875 72.90625 
L 67.578125 0 
L 57.328125 0 
L 50.6875 18.703125 
L 17.828125 18.703125 
L 11.1875 0 
L 0.78125 0 
z
" id="DejaVuSans-65"/>
      <path d="M 9.8125 72.90625 
L 19.671875 72.90625 
L 19.671875 43.015625 
L 55.515625 43.015625 
L 55.515625 72.90625 
L 65.375 72.90625 
L 65.375 0 
L 55.515625 0 
L 55.515625 34.71875 
L 19.671875 34.71875 
L 19.671875 0 
L 9.8125 0 
z
" id="DejaVuSans-72"/>
      <path d="M 9.8125 72.90625 
L 55.90625 72.90625 
L 55.90625 64.59375 
L 19.671875 64.59375 
L 19.671875 43.015625 
L 54.390625 43.015625 
L 54.390625 34.71875 
L 19.671875 34.71875 
L 19.671875 8.296875 
L 56.78125 8.296875 
L 56.78125 0 
L 9.8125 0 
z
" id="DejaVuSans-69"/>
      <path d="M 8.6875 72.90625 
L 18.609375 72.90625 
L 18.609375 28.609375 
Q 18.609375 16.890625 22.84375 11.734375 
Q 27.09375 6.59375 36.625 6.59375 
Q 46.09375 6.59375 50.34375 11.734375 
Q 54.59375 16.890625 54.59375 28.609375 
L 54.59375 72.90625 
L 64.5 72.90625 
L 64.5 27.390625 
Q 64.5 13.140625 57.4375 5.859375 
Q 50.390625 -1.421875 36.625 -1.421875 
Q 22.796875 -1.421875 15.734375 5.859375 
Q 8.6875 13.140625 8.6875 27.390625 
z
" id="DejaVuSans-85"/>
      <path d="M 28.609375 0 
L 0.78125 72.90625 
L 11.078125 72.90625 
L 34.1875 11.53125 
L 57.328125 72.90625 
L 67.578125 72.90625 
L 39.796875 0 
z
" id="DejaVuSans-86"/>
      <path d="M 9.421875 75.984375 
L 18.40625 75.984375 
L 18.40625 0 
L 9.421875 0 
z
" id="DejaVuSans-108"/>
      <path d="M 8.5 21.578125 
L 8.5 54.6875 
L 17.484375 54.6875 
L 17.484375 21.921875 
Q 17.484375 14.15625 20.5 10.265625 
Q 23.53125 6.390625 29.59375 6.390625 
Q 36.859375 6.390625 41.078125 11.03125 
Q 45.3125 15.671875 45.3125 23.6875 
L 45.3125 54.6875 
L 54.296875 54.6875 
L 54.296875 0 
L 45.3125 0 
L 45.3125 8.40625 
Q 42.046875 3.421875 37.71875 1 
Q 33.40625 -1.421875 27.6875 -1.421875 
Q 18.265625 -1.421875 13.375 4.4375 
Q 8.5 10.296875 8.5 21.578125 
z
M 31.109375 56 
z
" id="DejaVuSans-117"/>
     </defs>
     <g transform="translate(23.858854 265.582604)rotate(-90)scale(0.166667 -0.166667)">
      <use xlink:href="#DejaVuSans-65"/>
      <use x="68.408203" xlink:href="#DejaVuSans-72"/>
      <use x="143.603516" xlink:href="#DejaVuSans-69"/>
      <use x="206.787109" xlink:href="#DejaVuSans-85"/>
      <use x="279.980469" xlink:href="#DejaVuSans-32"/>
      <use x="311.767578" xlink:href="#DejaVuSans-86"/>
      <use x="380.066406" xlink:href="#DejaVuSans-97"/>
      <use x="441.345703" xlink:href="#DejaVuSans-108"/>
      <use x="469.128906" xlink:href="#DejaVuSans-117"/>
      <use x="532.507812" xlink:href="#DejaVuSans-101"/>
     </g>
    </g>
   </g>
   <g id="line2d_19">
    <path clip-path="url(#p2f5005a67d)" d="M 72.784091 80.189091 
L 78.150533 320.703974 
L 83.516975 322.987697 
L 88.883418 312.821525 
L 94.24986 291.614025 
L 99.616302 276.404768 
L 104.982744 261.335736 
L 110.349186 262.439692 
L 115.715629 261.227673 
L 121.082071 251.169651 
L 126.448513 241.488506 
L 131.814955 256.385974 
L 137.181397 241.439187 
L 142.54784 250.116427 
L 147.914282 248.260914 
L 153.280724 244.491572 
L 158.647166 245.696357 
L 164.013608 237.265551 
L 169.380051 232.555333 
L 174.746493 229.81619 
L 180.112935 220.211353 
L 185.479377 218.502039 
L 190.845819 219.65151 
L 196.212262 221.573752 
L 201.578704 222.281398 
L 206.945146 224.921143 
L 212.311588 220.69202 
L 217.67803 216.198986 
L 223.044473 221.71726 
L 228.410915 221.140868 
L 233.777357 211.520324 
L 239.143799 211.371295 
L 244.510241 212.090441 
L 249.876684 205.778053 
L 255.243126 210.383193 
L 260.609568 202.477124 
L 265.97601 200.992335 
L 271.342452 204.297374 
L 276.708895 200.532561 
L 282.075337 202.691428 
L 287.441779 207.780236 
L 292.808221 208.365373 
L 298.174663 201.395662 
L 303.541105 199.786358 
L 308.907548 195.15334 
L 314.27399 194.221449 
L 319.640432 191.26047 
L 325.006874 177.521235 
L 330.373316 189.504166 
L 335.739759 203.655519 
L 341.106201 200.879296 
L 346.472643 185.968266 
L 351.839085 192.000833 
L 357.205527 189.609576 
L 362.57197 171.389987 
L 367.938412 164.377925 
L 373.304854 164.058531 
L 378.671296 177.30602 
L 384.037738 177.30602 
L 389.404181 171.910635 
L 394.770623 187.009624 
L 400.137065 202.031026 
L 405.503507 197.025432 
L 410.869949 197.025432 
L 416.236392 190.978976 
L 421.602834 179.404567 
L 426.969276 193.71536 
L 432.335718 188.014384 
L 437.70216 203.223442 
L 443.068603 203.233858 
L 448.435045 203.223442 
L 453.801487 203.223442 
L 459.167929 191.636088 
L 464.534371 181.160126 
L 469.900814 200.573113 
L 475.267256 200.57898 
L 480.633698 200.57898 
L 486.00014 192.547511 
L 491.366582 203.420761 
L 496.733025 195.718782 
L 502.099467 204.298175 
L 507.465909 204.291366 
" style="fill:none;stroke:#1f77b4;stroke-linecap:square;stroke-width:1.5;"/>
   </g>
   <g id="line2d_20">
    <path clip-path="url(#p2f5005a67d)" d="M 72.784091 351.970909 
L 78.150533 271.799281 
L 83.516975 276.47596 
L 88.883418 284.203789 
L 94.24986 300.581405 
L 99.616302 311.192871 
L 104.982744 321.553787 
L 110.349186 324.066269 
L 115.715629 326.615192 
L 121.082071 329.013129 
L 126.448513 331.517901 
L 131.814955 328.053961 
L 137.181397 332.499075 
L 142.54784 328.332849 
L 147.914282 328.588838 
L 153.280724 328.291371 
L 158.647166 330.015717 
L 164.013608 334.919816 
L 169.380051 335.049681 
L 174.746493 337.266493 
L 180.112935 339.025347 
L 185.479377 338.457831 
L 190.845819 336.100352 
L 196.212262 334.665629 
L 201.578704 335.542858 
L 206.945146 335.569478 
L 212.311588 337.383933 
L 217.67803 338.824939 
L 223.044473 336.528831 
L 228.410915 336.517453 
L 233.777357 340.160781 
L 239.143799 340.544976 
L 244.510241 341.318451 
L 249.876684 344.111653 
L 255.243126 344.07988 
L 260.609568 345.783245 
L 265.97601 343.024236 
L 271.342452 340.978967 
L 276.708895 341.785255 
L 282.075337 340.877899 
L 287.441779 339.674785 
L 292.808221 339.294849 
L 298.174663 341.61712 
L 303.541105 341.615592 
L 308.907548 345.656318 
L 314.27399 345.766444 
L 319.640432 347.740174 
L 325.006874 347.630212 
L 330.373316 344.967312 
L 335.739759 340.13972 
L 341.106201 342.460128 
L 346.472643 342.629604 
L 351.839085 339.58372 
L 357.205527 339.604369 
L 362.57197 343.33725 
L 367.938412 347.455132 
L 373.304854 347.339735 
L 378.671296 351.728922 
L 384.037738 351.728922 
L 389.404181 351.742365 
L 394.770623 346.764274 
L 400.137065 341.731164 
L 405.503507 341.722063 
L 410.869949 341.722063 
L 416.236392 346.755056 
L 421.602834 351.797594 
L 426.969276 347.029504 
L 432.335718 347.27653 
L 437.70216 342.287327 
L 443.068603 342.287327 
L 448.435045 342.269989 
L 453.801487 342.295997 
L 459.167929 347.309439 
L 464.534371 345.346963 
L 469.900814 338.875967 
L 475.267256 338.875967 
L 480.633698 338.875967 
L 486.00014 339.748963 
L 491.366582 339.748963 
L 496.733025 340.512835 
L 502.099467 340.513026 
L 507.465909 340.501694 
" style="fill:none;stroke:#ff7f0e;stroke-linecap:square;stroke-width:1.5;"/>
   </g>
   <g id="line2d_21">
    <path clip-path="url(#p2f5005a67d)" d="M 72.784091 351.970909 
L 78.150533 271.799281 
L 83.516975 260.173616 
L 88.883418 254.35908 
L 94.24986 241.679712 
L 99.616302 237.734487 
L 104.982744 232.294492 
L 110.349186 224.015966 
L 115.715629 225.960575 
L 121.082071 228.582614 
L 126.448513 233.752145 
L 131.814955 232.691021 
L 137.181397 240.566729 
L 142.54784 236.673766 
L 147.914282 236.547722 
L 153.280724 239.085286 
L 158.647166 237.577344 
L 164.013608 237.656966 
L 169.380051 243.009704 
L 174.746493 246.135103 
L 180.112935 253.3003 
L 185.479377 257.40427 
L 190.845819 265.797219 
L 196.212262 265.908304 
L 201.578704 261.595644 
L 206.945146 257.501798 
L 212.311588 252.509088 
L 217.67803 254.579458 
L 223.044473 255.031324 
L 228.410915 255.012651 
L 233.777357 254.907358 
L 239.143799 257.115517 
L 244.510241 259.945216 
L 249.876684 257.945944 
L 255.243126 255.560205 
L 260.609568 257.536115 
L 265.97601 257.160181 
L 271.342452 253.253598 
L 276.708895 252.732991 
L 282.075337 252.194722 
L 287.441779 251.527486 
L 292.808221 256.384 
L 298.174663 260.157346 
L 303.541105 254.016438 
L 308.907548 246.926904 
L 314.27399 249.255715 
L 319.640432 256.365798 
L 325.006874 277.664379 
L 330.373316 267.960665 
L 335.739759 258.371123 
L 341.106201 256.504537 
L 346.472643 278.021827 
L 351.839085 284.059937 
L 357.205527 284.022601 
L 362.57197 291.613792 
L 367.938412 288.319467 
L 373.304854 285.222026 
L 378.671296 265.393364 
L 384.037738 265.393364 
L 389.404181 270.203228 
L 394.770623 265.170231 
L 400.137065 260.137234 
L 405.503507 260.137234 
L 410.869949 260.137234 
L 416.236392 256.110837 
L 421.602834 257.341622 
L 426.969276 252.57362 
L 432.335718 257.543485 
L 437.70216 248.026284 
L 443.068603 248.033228 
L 448.435045 256.608868 
L 453.801487 256.608868 
L 459.167929 257.753212 
L 464.534371 263.965368 
L 469.900814 257.494372 
L 475.267256 257.385542 
L 480.633698 257.385542 
L 486.00014 263.691233 
L 491.366582 252.821278 
L 496.733025 259.01813 
L 502.099467 246.287572 
L 507.465909 258.92273 
" style="fill:none;stroke:#2ca02c;stroke-linecap:square;stroke-width:1.5;"/>
   </g>
   <g id="line2d_22">
    <path clip-path="url(#p2f5005a67d)" d="M 72.784091 351.970909 
L 78.150533 271.799281 
L 83.516975 260.173616 
L 88.883418 254.35908 
L 94.24986 242.896646 
L 99.616302 235.404928 
L 104.982744 229.922312 
L 110.349186 224.624845 
L 115.715629 223.602319 
L 121.082071 224.990477 
L 126.448513 231.669998 
L 131.814955 227.507206 
L 137.181397 231.688537 
L 142.54784 225.715384 
L 147.914282 231.77764 
L 153.280724 232.458968 
L 158.647166 229.77636 
L 164.013608 238.749626 
L 169.380051 241.572019 
L 174.746493 242.424088 
L 180.112935 247.344913 
L 185.479377 256.385372 
L 190.845819 253.86564 
L 196.212262 260.618601 
L 201.578704 257.193431 
L 206.945146 252.564275 
L 212.311588 254.185199 
L 217.67803 260.35871 
L 223.044473 264.496919 
L 228.410915 259.537644 
L 233.777357 266.317094 
L 239.143799 267.358272 
L 244.510241 256.30414 
L 249.876684 261.488575 
L 255.243126 253.854502 
L 260.609568 260.646028 
L 265.97601 257.265789 
L 271.342452 253.373119 
L 276.708895 258.836596 
L 282.075337 259.4389 
L 287.441779 261.097405 
L 292.808221 256.422416 
L 298.174663 263.9226 
L 303.541105 256.685422 
L 308.907548 253.113404 
L 314.27399 251.673642 
L 319.640432 257.600854 
L 325.006874 255.758041 
L 330.373316 250.683837 
L 335.739759 239.614462 
L 341.106201 242.983585 
L 346.472643 254.522028 
L 351.839085 260.560144 
L 357.205527 263.730932 
L 362.57197 267.05968 
L 367.938412 276.119074 
L 373.304854 285.425553 
L 378.671296 265.519131 
L 384.037738 265.557888 
L 389.404181 270.358611 
L 394.770623 265.389653 
L 400.137065 260.356656 
L 405.503507 260.356656 
L 410.869949 260.356656 
L 416.236392 256.330259 
L 421.602834 257.549496 
L 426.969276 252.7814 
L 432.335718 257.740875 
L 437.70216 248.026284 
L 443.068603 248.033228 
L 448.435045 248.026284 
L 453.801487 256.608868 
L 459.167929 257.753212 
L 464.534371 263.965368 
L 469.900814 257.494372 
L 475.267256 257.494372 
L 480.633698 257.494372 
L 486.00014 263.792808 
L 491.366582 252.922853 
L 496.733025 259.06703 
L 502.099467 246.336556 
L 507.465909 256.51889 
" style="fill:none;stroke:#d62728;stroke-linecap:square;stroke-width:1.5;"/>
   </g>
   <g id="line2d_23">
    <path clip-path="url(#p2f5005a67d)" d="M 72.784091 80.189091 
L 78.150533 80.189091 
L 83.516975 80.189091 
L 88.883418 81.259666 
L 94.24986 83.909781 
L 99.616302 85.36867 
L 104.982744 90.224676 
L 110.349186 88.902487 
L 115.715629 90.038013 
L 121.082071 95.102892 
L 126.448513 99.599248 
L 131.814955 97.962774 
L 137.181397 99.138814 
L 142.54784 102.818528 
L 147.914282 106.406811 
L 153.280724 106.36978 
L 158.647166 107.536641 
L 164.013608 107.622028 
L 169.380051 111.459553 
L 174.746493 110.102529 
L 180.112935 112.669485 
L 185.479377 110.625778 
L 190.845819 108.937834 
L 196.212262 107.119096 
L 201.578704 109.16085 
L 206.945146 105.5834 
L 212.311588 104.083933 
L 217.67803 105.118096 
L 223.044473 105.121317 
L 228.410915 103.626505 
L 233.777357 103.205206 
L 239.143799 103.951486 
L 244.510241 104.3486 
L 249.876684 104.753297 
L 255.243126 104.503384 
L 260.609568 107.119279 
L 265.97601 102.795063 
L 271.342452 97.659994 
L 276.708895 97.766258 
L 282.075337 97.994736 
L 287.441779 95.712164 
L 292.808221 100.384556 
L 298.174663 96.986979 
L 303.541105 100.611536 
L 308.907548 98.693052 
L 314.27399 96.250352 
L 319.640432 99.279321 
L 325.006874 94.564962 
L 330.373316 91.503736 
L 335.739759 97.603978 
L 341.106201 97.614526 
L 346.472643 104.351142 
L 351.839085 101.314866 
L 357.205527 104.320022 
L 362.57197 94.594276 
L 367.938412 92.535323 
L 373.304854 88.817085 
L 378.671296 90.818134 
L 384.037738 90.818134 
L 389.404181 90.227631 
L 394.770623 90.236782 
L 400.137065 90.236782 
L 405.503507 85.217512 
L 410.869949 85.217512 
L 416.236392 85.217512 
L 421.602834 84.952858 
L 426.969276 84.952858 
L 432.335718 84.707807 
L 437.70216 80.189091 
L 443.068603 80.189091 
L 448.435045 80.189091 
L 453.801487 80.189091 
L 459.167929 80.189091 
L 464.534371 80.189091 
L 469.900814 80.189091 
L 475.267256 80.189091 
L 480.633698 80.189091 
L 486.00014 80.189091 
L 491.366582 80.189091 
L 496.733025 80.189091 
L 502.099467 88.603114 
L 507.465909 88.603114 
" style="fill:none;stroke:#9467bd;stroke-linecap:square;stroke-width:1.5;"/>
   </g>
   <g id="line2d_24">
    <path clip-path="url(#p2f5005a67d)" d="M 72.784091 351.970909 
L 78.150533 271.799281 
L 83.516975 260.173616 
L 88.883418 254.35908 
L 94.24986 240.462779 
L 99.616302 234.722727 
L 104.982744 225.724266 
L 110.349186 217.826612 
L 115.715629 214.313346 
L 121.082071 214.34613 
L 126.448513 223.219957 
L 131.814955 216.540675 
L 137.181397 218.298918 
L 142.54784 209.002595 
L 147.914282 212.057054 
L 153.280724 217.436369 
L 158.647166 208.160917 
L 164.013608 207.531834 
L 169.380051 206.381655 
L 174.746493 203.420508 
L 180.112935 208.384648 
L 185.479377 209.735254 
L 190.845819 212.585276 
L 196.212262 216.723363 
L 201.578704 215.493942 
L 206.945146 211.682487 
L 212.311588 214.81383 
L 217.67803 222.337327 
L 223.044473 221.412221 
L 228.410915 219.587249 
L 233.777357 223.992981 
L 239.143799 223.274511 
L 244.510241 220.515307 
L 249.876684 217.335732 
L 255.243126 216.444666 
L 260.609568 224.155758 
L 265.97601 242.011151 
L 271.342452 239.780269 
L 276.708895 238.625903 
L 282.075337 243.976202 
L 287.441779 239.364541 
L 292.808221 241.343105 
L 298.174663 241.100222 
L 303.541105 233.863051 
L 308.907548 234.547638 
L 314.27399 245.604211 
L 319.640432 239.45075 
L 325.006874 249.545699 
L 330.373316 254.727681 
L 335.739759 250.730767 
L 341.106201 248.873338 
L 346.472643 253.139872 
L 351.839085 250.111735 
L 357.205527 259.171134 
L 362.57197 270.153849 
L 367.938412 263.771094 
L 373.304854 259.580863 
L 378.671296 233.578785 
L 384.037738 249.565951 
L 389.404181 255.255115 
L 394.770623 250.277024 
L 400.137065 245.243928 
L 405.503507 245.243928 
L 410.869949 260.342918 
L 416.236392 256.31652 
L 421.602834 257.53648 
L 426.969276 252.768378 
L 432.335718 257.728505 
L 437.70216 248.000276 
L 443.068603 248.00722 
L 448.435045 248.000276 
L 453.801487 248.000276 
L 459.167929 249.57505 
L 464.534371 263.930072 
L 469.900814 257.459076 
L 475.267256 257.459076 
L 480.633698 257.459076 
L 486.00014 263.759865 
L 491.366582 252.856967 
L 496.733025 259.051588 
L 502.099467 246.32116 
L 507.465909 246.316621 
" style="fill:none;stroke:#8c564b;stroke-linecap:square;stroke-width:1.5;"/>
   </g>
   <g id="line2d_25">
    <path clip-path="url(#p2f5005a67d)" d="M 72.784091 216.08 
L 78.150533 175.994186 
L 83.516975 170.181354 
L 88.883418 169.575061 
L 94.24986 162.13048 
L 99.616302 160.429341 
L 104.982744 158.015147 
L 110.349186 162.593777 
L 115.715629 164.531044 
L 121.082071 164.105545 
L 126.448513 162.251763 
L 131.814955 165.451445 
L 137.181397 169.245391 
L 142.54784 170.673947 
L 147.914282 170.089583 
L 153.280724 172.526665 
L 158.647166 171.725822 
L 164.013608 171.68718 
L 169.380051 177.875868 
L 174.746493 180.842704 
L 180.112935 180.976722 
L 185.479377 189.613329 
L 190.845819 190.329878 
L 196.212262 192.946912 
L 201.578704 189.760336 
L 206.945146 184.246789 
L 212.311588 181.639181 
L 217.67803 177.443985 
L 223.044473 179.745309 
L 228.410915 181.531075 
L 233.777357 184.828693 
L 239.143799 185.271418 
L 244.510241 179.745401 
L 249.876684 179.052395 
L 255.243126 179.628894 
L 260.609568 180.223468 
L 265.97601 181.697603 
L 271.342452 181.891481 
L 276.708895 180.205418 
L 282.075337 182.461779 
L 287.441779 184.291829 
L 292.808221 182.888821 
L 298.174663 192.38093 
L 303.541105 192.257977 
L 308.907548 190.748975 
L 314.27399 188.482405 
L 319.640432 186.491234 
L 325.006874 184.132832 
L 330.373316 181.667884 
L 335.739759 176.124415 
L 341.106201 175.209133 
L 346.472643 188.24875 
L 351.839085 185.202806 
L 357.205527 189.434441 
L 362.57197 183.917764 
L 367.938412 190.511826 
L 373.304854 187.132095 
L 378.671296 178.191626 
L 384.037738 178.202908 
L 389.404181 180.333148 
L 394.770623 177.871493 
L 400.137065 175.316134 
L 405.503507 172.813337 
L 410.869949 172.813337 
L 416.236392 170.796708 
L 421.602834 171.261978 
L 426.969276 168.881171 
L 432.335718 171.228781 
L 437.70216 164.099008 
L 443.068603 164.10248 
L 448.435045 164.099008 
L 453.801487 164.099008 
L 459.167929 164.886178 
L 464.534371 172.088981 
L 469.900814 168.853483 
L 475.267256 168.856416 
L 480.633698 168.856416 
L 486.00014 171.944267 
L 491.366582 166.509289 
L 496.733025 169.607459 
L 502.099467 161.154453 
L 507.465909 161.152184 
" style="fill:none;stroke:#e377c2;stroke-linecap:square;stroke-width:1.5;"/>
   </g>
   <g id="line2d_26">
    <path clip-path="url(#p2f5005a67d)" d="M 72.784091 351.970909 
L 78.150533 271.799281 
L 83.516975 260.173616 
L 88.883418 254.35908 
L 94.24986 240.462779 
L 99.616302 232.784175 
L 104.982744 223.903912 
L 110.349186 213.30149 
L 115.715629 208.241864 
L 121.082071 204.209211 
L 126.448513 211.359401 
L 131.814955 203.841386 
L 137.181397 209.504723 
L 142.54784 202.421929 
L 147.914282 203.99289 
L 153.280724 207.016399 
L 158.647166 196.225241 
L 164.013608 196.697838 
L 169.380051 191.687565 
L 174.746493 193.124578 
L 180.112935 196.726896 
L 185.479377 199.935039 
L 190.845819 201.928238 
L 196.212262 203.925966 
L 201.578704 201.727548 
L 206.945146 204.637709 
L 212.311588 207.846379 
L 217.67803 210.003675 
L 223.044473 209.085651 
L 228.410915 211.820415 
L 233.777357 213.213595 
L 239.143799 212.287161 
L 244.510241 209.95671 
L 249.876684 209.550603 
L 255.243126 210.124069 
L 260.609568 214.95322 
L 265.97601 214.295526 
L 271.342452 220.890039 
L 276.708895 225.92719 
L 282.075337 229.106219 
L 287.441779 224.725939 
L 292.808221 226.236347 
L 298.174663 229.652035 
L 303.541105 220.662757 
L 308.907548 218.465664 
L 314.27399 223.835456 
L 319.640432 221.296976 
L 325.006874 249.481255 
L 330.373316 243.808152 
L 335.739759 232.564579 
L 341.106201 237.669572 
L 346.472643 238.558416 
L 351.839085 240.943395 
L 357.205527 240.941357 
L 362.57197 269.995037 
L 367.938412 263.612254 
L 373.304854 259.459387 
L 378.671296 233.5183 
L 384.037738 233.5183 
L 389.404181 240.099001 
L 394.770623 235.084306 
L 400.137065 230.051172 
L 405.503507 245.122759 
L 410.869949 245.122759 
L 416.236392 241.096343 
L 421.602834 243.117365 
L 426.969276 238.349269 
L 432.335718 244.030306 
L 437.70216 247.889753 
L 443.068603 247.896697 
L 448.435045 247.889753 
L 453.801487 247.889753 
L 459.167929 249.470053 
L 464.534371 263.833021 
L 469.900814 257.362025 
L 475.267256 257.362029 
L 480.633698 257.362029 
L 486.00014 263.669284 
L 491.366582 252.799329 
L 496.733025 258.997553 
L 502.099467 246.267051 
L 507.465909 246.262511 
" style="fill:none;stroke:#7f7f7f;stroke-linecap:square;stroke-width:1.5;"/>
   </g>
   <g id="patch_3">
    <path d="M 51.05 365.56 
L 51.05 66.6 
" style="fill:none;stroke:#000000;stroke-linecap:square;stroke-linejoin:miter;stroke-width:0.8;"/>
   </g>
   <g id="patch_4">
    <path d="M 529.2 365.56 
L 529.2 66.6 
" style="fill:none;stroke:#000000;stroke-linecap:square;stroke-linejoin:miter;stroke-width:0.8;"/>
   </g>
   <g id="patch_5">
    <path d="M 51.05 365.56 
L 529.2 365.56 
" style="fill:none;stroke:#000000;stroke-linecap:square;stroke-linejoin:miter;stroke-width:0.8;"/>
   </g>
   <g id="patch_6">
    <path d="M 51.05 66.6 
L 529.2 66.6 
" style="fill:none;stroke:#000000;stroke-linecap:square;stroke-linejoin:miter;stroke-width:0.8;"/>
   </g>
   <g id="legend_1">
    <g id="patch_7">
     <path d="M 61.55 59.1 
L 518.7 59.1 
Q 521.7 59.1 521.7 56.1 
L 521.7 13.565625 
Q 521.7 10.565625 518.7 10.565625 
L 61.55 10.565625 
Q 58.55 10.565625 58.55 13.565625 
L 58.55 56.1 
Q 58.55 59.1 61.55 59.1 
z
" style="fill:#ffffff;opacity:0.8;stroke:#cccccc;stroke-linejoin:miter;"/>
    </g>
    <g id="line2d_27">
     <path d="M 64.55 22.713281 
L 94.55 22.713281 
" style="fill:none;stroke:#1f77b4;stroke-linecap:square;stroke-width:1.5;"/>
    </g>
    <g id="line2d_28"/>
    <g id="text_21">
     <!-- Stra 1 -->
     <defs>
      <path d="M 53.515625 70.515625 
L 53.515625 60.890625 
Q 47.90625 63.578125 42.921875 64.890625 
Q 37.9375 66.21875 33.296875 66.21875 
Q 25.25 66.21875 20.875 63.09375 
Q 16.5 59.96875 16.5 54.203125 
Q 16.5 49.359375 19.40625 46.890625 
Q 22.3125 44.4375 30.421875 42.921875 
L 36.375 41.703125 
Q 47.40625 39.59375 52.65625 34.296875 
Q 57.90625 29 57.90625 20.125 
Q 57.90625 9.515625 50.796875 4.046875 
Q 43.703125 -1.421875 29.984375 -1.421875 
Q 24.8125 -1.421875 18.96875 -0.25 
Q 13.140625 0.921875 6.890625 3.21875 
L 6.890625 13.375 
Q 12.890625 10.015625 18.65625 8.296875 
Q 24.421875 6.59375 29.984375 6.59375 
Q 38.421875 6.59375 43.015625 9.90625 
Q 47.609375 13.234375 47.609375 19.390625 
Q 47.609375 24.75 44.3125 27.78125 
Q 41.015625 30.8125 33.5 32.328125 
L 27.484375 33.5 
Q 16.453125 35.6875 11.515625 40.375 
Q 6.59375 45.0625 6.59375 53.421875 
Q 6.59375 63.09375 13.40625 68.65625 
Q 20.21875 74.21875 32.171875 74.21875 
Q 37.3125 74.21875 42.625 73.28125 
Q 47.953125 72.359375 53.515625 70.515625 
z
" id="DejaVuSans-83"/>
      <path d="M 18.3125 70.21875 
L 18.3125 54.6875 
L 36.8125 54.6875 
L 36.8125 47.703125 
L 18.3125 47.703125 
L 18.3125 18.015625 
Q 18.3125 11.328125 20.140625 9.421875 
Q 21.96875 7.515625 27.59375 7.515625 
L 36.8125 7.515625 
L 36.8125 0 
L 27.59375 0 
Q 17.1875 0 13.234375 3.875 
Q 9.28125 7.765625 9.28125 18.015625 
L 9.28125 47.703125 
L 2.6875 47.703125 
L 2.6875 54.6875 
L 9.28125 54.6875 
L 9.28125 70.21875 
z
" id="DejaVuSans-116"/>
      <path d="M 41.109375 46.296875 
Q 39.59375 47.171875 37.8125 47.578125 
Q 36.03125 48 33.890625 48 
Q 26.265625 48 22.1875 43.046875 
Q 18.109375 38.09375 18.109375 28.8125 
L 18.109375 0 
L 9.078125 0 
L 9.078125 54.6875 
L 18.109375 54.6875 
L 18.109375 46.1875 
Q 20.953125 51.171875 25.484375 53.578125 
Q 30.03125 56 36.53125 56 
Q 37.453125 56 38.578125 55.875 
Q 39.703125 55.765625 41.0625 55.515625 
z
" id="DejaVuSans-114"/>
     </defs>
     <g transform="translate(106.55 27.963281)scale(0.15 -0.15)">
      <use xlink:href="#DejaVuSans-83"/>
      <use x="63.476562" xlink:href="#DejaVuSans-116"/>
      <use x="102.685547" xlink:href="#DejaVuSans-114"/>
      <use x="143.798828" xlink:href="#DejaVuSans-97"/>
      <use x="205.078125" xlink:href="#DejaVuSans-32"/>
      <use x="236.865234" xlink:href="#DejaVuSans-49"/>
     </g>
    </g>
    <g id="line2d_29">
     <path d="M 64.55 44.730469 
L 94.55 44.730469 
" style="fill:none;stroke:#ff7f0e;stroke-linecap:square;stroke-width:1.5;"/>
    </g>
    <g id="line2d_30"/>
    <g id="text_22">
     <!-- Stra 2 -->
     <g transform="translate(106.55 49.980469)scale(0.15 -0.15)">
      <use xlink:href="#DejaVuSans-83"/>
      <use x="63.476562" xlink:href="#DejaVuSans-116"/>
      <use x="102.685547" xlink:href="#DejaVuSans-114"/>
      <use x="143.798828" xlink:href="#DejaVuSans-97"/>
      <use x="205.078125" xlink:href="#DejaVuSans-32"/>
      <use x="236.865234" xlink:href="#DejaVuSans-50"/>
     </g>
    </g>
    <g id="line2d_31">
     <path d="M 185.909115 22.713281 
L 215.909115 22.713281 
" style="fill:none;stroke:#2ca02c;stroke-linecap:square;stroke-width:1.5;"/>
    </g>
    <g id="line2d_32"/>
    <g id="text_23">
     <!-- Stra 3 -->
     <g transform="translate(227.909115 27.963281)scale(0.15 -0.15)">
      <use xlink:href="#DejaVuSans-83"/>
      <use x="63.476562" xlink:href="#DejaVuSans-116"/>
      <use x="102.685547" xlink:href="#DejaVuSans-114"/>
      <use x="143.798828" xlink:href="#DejaVuSans-97"/>
      <use x="205.078125" xlink:href="#DejaVuSans-32"/>
      <use x="236.865234" xlink:href="#DejaVuSans-51"/>
     </g>
    </g>
    <g id="line2d_33">
     <path d="M 185.909115 44.730469 
L 215.909115 44.730469 
" style="fill:none;stroke:#d62728;stroke-linecap:square;stroke-width:1.5;"/>
    </g>
    <g id="line2d_34"/>
    <g id="text_24">
     <!-- Stra 4 -->
     <g transform="translate(227.909115 49.980469)scale(0.15 -0.15)">
      <use xlink:href="#DejaVuSans-83"/>
      <use x="63.476562" xlink:href="#DejaVuSans-116"/>
      <use x="102.685547" xlink:href="#DejaVuSans-114"/>
      <use x="143.798828" xlink:href="#DejaVuSans-97"/>
      <use x="205.078125" xlink:href="#DejaVuSans-32"/>
      <use x="236.865234" xlink:href="#DejaVuSans-52"/>
     </g>
    </g>
    <g id="line2d_35">
     <path d="M 307.268229 22.713281 
L 337.268229 22.713281 
" style="fill:none;stroke:#9467bd;stroke-linecap:square;stroke-width:1.5;"/>
    </g>
    <g id="line2d_36"/>
    <g id="text_25">
     <!-- Stra 5 -->
     <g transform="translate(349.268229 27.963281)scale(0.15 -0.15)">
      <use xlink:href="#DejaVuSans-83"/>
      <use x="63.476562" xlink:href="#DejaVuSans-116"/>
      <use x="102.685547" xlink:href="#DejaVuSans-114"/>
      <use x="143.798828" xlink:href="#DejaVuSans-97"/>
      <use x="205.078125" xlink:href="#DejaVuSans-32"/>
      <use x="236.865234" xlink:href="#DejaVuSans-53"/>
     </g>
    </g>
    <g id="line2d_37">
     <path d="M 307.268229 44.730469 
L 337.268229 44.730469 
" style="fill:none;stroke:#8c564b;stroke-linecap:square;stroke-width:1.5;"/>
    </g>
    <g id="line2d_38"/>
    <g id="text_26">
     <!-- Stra 6 -->
     <g transform="translate(349.268229 49.980469)scale(0.15 -0.15)">
      <use xlink:href="#DejaVuSans-83"/>
      <use x="63.476562" xlink:href="#DejaVuSans-116"/>
      <use x="102.685547" xlink:href="#DejaVuSans-114"/>
      <use x="143.798828" xlink:href="#DejaVuSans-97"/>
      <use x="205.078125" xlink:href="#DejaVuSans-32"/>
      <use x="236.865234" xlink:href="#DejaVuSans-54"/>
     </g>
    </g>
    <g id="line2d_39">
     <path d="M 428.627344 22.713281 
L 458.627344 22.713281 
" style="fill:none;stroke:#e377c2;stroke-linecap:square;stroke-width:1.5;"/>
    </g>
    <g id="line2d_40"/>
    <g id="text_27">
     <!-- Stra 7 -->
     <g transform="translate(470.627344 27.963281)scale(0.15 -0.15)">
      <use xlink:href="#DejaVuSans-83"/>
      <use x="63.476562" xlink:href="#DejaVuSans-116"/>
      <use x="102.685547" xlink:href="#DejaVuSans-114"/>
      <use x="143.798828" xlink:href="#DejaVuSans-97"/>
      <use x="205.078125" xlink:href="#DejaVuSans-32"/>
      <use x="236.865234" xlink:href="#DejaVuSans-55"/>
     </g>
    </g>
    <g id="line2d_41">
     <path d="M 428.627344 44.730469 
L 458.627344 44.730469 
" style="fill:none;stroke:#7f7f7f;stroke-linecap:square;stroke-width:1.5;"/>
    </g>
    <g id="line2d_42"/>
    <g id="text_28">
     <!-- Stra 8 -->
     <g transform="translate(470.627344 49.980469)scale(0.15 -0.15)">
      <use xlink:href="#DejaVuSans-83"/>
      <use x="63.476562" xlink:href="#DejaVuSans-116"/>
      <use x="102.685547" xlink:href="#DejaVuSans-114"/>
      <use x="143.798828" xlink:href="#DejaVuSans-97"/>
      <use x="205.078125" xlink:href="#DejaVuSans-32"/>
      <use x="236.865234" xlink:href="#DejaVuSans-56"/>
     </g>
    </g>
   </g>
  </g>
 </g>
 <defs>
  <clipPath id="p2f5005a67d">
   <rect height="298.96" width="478.15" x="51.05" y="66.6"/>
  </clipPath>
 </defs>
</svg>
