<?xml version="1.0" encoding="utf-8" standalone="no"?>
<!DOCTYPE svg PUBLIC "-//W3C//DTD SVG 1.1//EN"
  "http://www.w3.org/Graphics/SVG/1.1/DTD/svg11.dtd">
<!-- Created with matplotlib (https://matplotlib.org/) -->
<svg height="432pt" version="1.1" viewBox="0 0 540 432" width="540pt" xmlns="http://www.w3.org/2000/svg" xmlns:xlink="http://www.w3.org/1999/xlink">
 <defs>
  <style type="text/css">
*{stroke-linecap:butt;stroke-linejoin:round;}
  </style>
 </defs>
 <g id="figure_1">
  <g id="patch_1">
   <path d="M 0 432 
L 540 432 
L 540 0 
L 0 0 
z
" style="fill:#ffffff;"/>
  </g>
  <g id="axes_1">
   <g id="patch_2">
    <path d="M 70.13 365.56 
L 529.2 365.56 
L 529.2 66.6 
L 70.13 66.6 
z
" style="fill:#ffffff;"/>
   </g>
   <g id="matplotlib.axis_1">
    <g id="xtick_1">
     <g id="line2d_1">
      <defs>
       <path d="M 0 0 
L 0 3.5 
" id="mb1d3bdc883" style="stroke:#000000;stroke-width:0.8;"/>
      </defs>
      <g>
       <use style="stroke:#000000;stroke-width:0.8;" x="90.996818" xlink:href="#mb1d3bdc883" y="365.56"/>
      </g>
     </g>
     <g id="text_1">
      <!-- 0 -->
      <defs>
       <path d="M 31.78125 66.40625 
Q 24.171875 66.40625 20.328125 58.90625 
Q 16.5 51.421875 16.5 36.375 
Q 16.5 21.390625 20.328125 13.890625 
Q 24.171875 6.390625 31.78125 6.390625 
Q 39.453125 6.390625 43.28125 13.890625 
Q 47.125 21.390625 47.125 36.375 
Q 47.125 51.421875 43.28125 58.90625 
Q 39.453125 66.40625 31.78125 66.40625 
z
M 31.78125 74.21875 
Q 44.046875 74.21875 50.515625 64.515625 
Q 56.984375 54.828125 56.984375 36.375 
Q 56.984375 17.96875 50.515625 8.265625 
Q 44.046875 -1.421875 31.78125 -1.421875 
Q 19.53125 -1.421875 13.0625 8.265625 
Q 6.59375 17.96875 6.59375 36.375 
Q 6.59375 54.828125 13.0625 64.515625 
Q 19.53125 74.21875 31.78125 74.21875 
z
" id="DejaVuSans-48"/>
      </defs>
      <g transform="translate(84.634318 387.756875)scale(0.2 -0.2)">
       <use xlink:href="#DejaVuSans-48"/>
      </g>
     </g>
    </g>
    <g id="xtick_2">
     <g id="line2d_2">
      <g>
       <use style="stroke:#000000;stroke-width:0.8;" x="142.519826" xlink:href="#mb1d3bdc883" y="365.56"/>
      </g>
     </g>
     <g id="text_2">
      <!-- 10 -->
      <defs>
       <path d="M 12.40625 8.296875 
L 28.515625 8.296875 
L 28.515625 63.921875 
L 10.984375 60.40625 
L 10.984375 69.390625 
L 28.421875 72.90625 
L 38.28125 72.90625 
L 38.28125 8.296875 
L 54.390625 8.296875 
L 54.390625 0 
L 12.40625 0 
z
" id="DejaVuSans-49"/>
      </defs>
      <g transform="translate(129.794826 387.756875)scale(0.2 -0.2)">
       <use xlink:href="#DejaVuSans-49"/>
       <use x="63.623047" xlink:href="#DejaVuSans-48"/>
      </g>
     </g>
    </g>
    <g id="xtick_3">
     <g id="line2d_3">
      <g>
       <use style="stroke:#000000;stroke-width:0.8;" x="194.042834" xlink:href="#mb1d3bdc883" y="365.56"/>
      </g>
     </g>
     <g id="text_3">
      <!-- 20 -->
      <defs>
       <path d="M 19.1875 8.296875 
L 53.609375 8.296875 
L 53.609375 0 
L 7.328125 0 
L 7.328125 8.296875 
Q 12.9375 14.109375 22.625 23.890625 
Q 32.328125 33.6875 34.8125 36.53125 
Q 39.546875 41.84375 41.421875 45.53125 
Q 43.3125 49.21875 43.3125 52.78125 
Q 43.3125 58.59375 39.234375 62.25 
Q 35.15625 65.921875 28.609375 65.921875 
Q 23.96875 65.921875 18.8125 64.3125 
Q 13.671875 62.703125 7.8125 59.421875 
L 7.8125 69.390625 
Q 13.765625 71.78125 18.9375 73 
Q 24.125 74.21875 28.421875 74.21875 
Q 39.75 74.21875 46.484375 68.546875 
Q 53.21875 62.890625 53.21875 53.421875 
Q 53.21875 48.921875 51.53125 44.890625 
Q 49.859375 40.875 45.40625 35.40625 
Q 44.1875 33.984375 37.640625 27.21875 
Q 31.109375 20.453125 19.1875 8.296875 
z
" id="DejaVuSans-50"/>
      </defs>
      <g transform="translate(181.317834 387.756875)scale(0.2 -0.2)">
       <use xlink:href="#DejaVuSans-50"/>
       <use x="63.623047" xlink:href="#DejaVuSans-48"/>
      </g>
     </g>
    </g>
    <g id="xtick_4">
     <g id="line2d_4">
      <g>
       <use style="stroke:#000000;stroke-width:0.8;" x="245.565842" xlink:href="#mb1d3bdc883" y="365.56"/>
      </g>
     </g>
     <g id="text_4">
      <!-- 30 -->
      <defs>
       <path d="M 40.578125 39.3125 
Q 47.65625 37.796875 51.625 33 
Q 55.609375 28.21875 55.609375 21.1875 
Q 55.609375 10.40625 48.1875 4.484375 
Q 40.765625 -1.421875 27.09375 -1.421875 
Q 22.515625 -1.421875 17.65625 -0.515625 
Q 12.796875 0.390625 7.625 2.203125 
L 7.625 11.71875 
Q 11.71875 9.328125 16.59375 8.109375 
Q 21.484375 6.890625 26.8125 6.890625 
Q 36.078125 6.890625 40.9375 10.546875 
Q 45.796875 14.203125 45.796875 21.1875 
Q 45.796875 27.640625 41.28125 31.265625 
Q 36.765625 34.90625 28.71875 34.90625 
L 20.21875 34.90625 
L 20.21875 43.015625 
L 29.109375 43.015625 
Q 36.375 43.015625 40.234375 45.921875 
Q 44.09375 48.828125 44.09375 54.296875 
Q 44.09375 59.90625 40.109375 62.90625 
Q 36.140625 65.921875 28.71875 65.921875 
Q 24.65625 65.921875 20.015625 65.03125 
Q 15.375 64.15625 9.8125 62.3125 
L 9.8125 71.09375 
Q 15.4375 72.65625 20.34375 73.4375 
Q 25.25 74.21875 29.59375 74.21875 
Q 40.828125 74.21875 47.359375 69.109375 
Q 53.90625 64.015625 53.90625 55.328125 
Q 53.90625 49.265625 50.4375 45.09375 
Q 46.96875 40.921875 40.578125 39.3125 
z
" id="DejaVuSans-51"/>
      </defs>
      <g transform="translate(232.840842 387.756875)scale(0.2 -0.2)">
       <use xlink:href="#DejaVuSans-51"/>
       <use x="63.623047" xlink:href="#DejaVuSans-48"/>
      </g>
     </g>
    </g>
    <g id="xtick_5">
     <g id="line2d_5">
      <g>
       <use style="stroke:#000000;stroke-width:0.8;" x="297.08885" xlink:href="#mb1d3bdc883" y="365.56"/>
      </g>
     </g>
     <g id="text_5">
      <!-- 40 -->
      <defs>
       <path d="M 37.796875 64.3125 
L 12.890625 25.390625 
L 37.796875 25.390625 
z
M 35.203125 72.90625 
L 47.609375 72.90625 
L 47.609375 25.390625 
L 58.015625 25.390625 
L 58.015625 17.1875 
L 47.609375 17.1875 
L 47.609375 0 
L 37.796875 0 
L 37.796875 17.1875 
L 4.890625 17.1875 
L 4.890625 26.703125 
z
" id="DejaVuSans-52"/>
      </defs>
      <g transform="translate(284.36385 387.756875)scale(0.2 -0.2)">
       <use xlink:href="#DejaVuSans-52"/>
       <use x="63.623047" xlink:href="#DejaVuSans-48"/>
      </g>
     </g>
    </g>
    <g id="xtick_6">
     <g id="line2d_6">
      <g>
       <use style="stroke:#000000;stroke-width:0.8;" x="348.611857" xlink:href="#mb1d3bdc883" y="365.56"/>
      </g>
     </g>
     <g id="text_6">
      <!-- 50 -->
      <defs>
       <path d="M 10.796875 72.90625 
L 49.515625 72.90625 
L 49.515625 64.59375 
L 19.828125 64.59375 
L 19.828125 46.734375 
Q 21.96875 47.46875 24.109375 47.828125 
Q 26.265625 48.1875 28.421875 48.1875 
Q 40.625 48.1875 47.75 41.5 
Q 54.890625 34.8125 54.890625 23.390625 
Q 54.890625 11.625 47.5625 5.09375 
Q 40.234375 -1.421875 26.90625 -1.421875 
Q 22.3125 -1.421875 17.546875 -0.640625 
Q 12.796875 0.140625 7.71875 1.703125 
L 7.71875 11.625 
Q 12.109375 9.234375 16.796875 8.0625 
Q 21.484375 6.890625 26.703125 6.890625 
Q 35.15625 6.890625 40.078125 11.328125 
Q 45.015625 15.765625 45.015625 23.390625 
Q 45.015625 31 40.078125 35.4375 
Q 35.15625 39.890625 26.703125 39.890625 
Q 22.75 39.890625 18.8125 39.015625 
Q 14.890625 38.140625 10.796875 36.28125 
z
" id="DejaVuSans-53"/>
      </defs>
      <g transform="translate(335.886857 387.756875)scale(0.2 -0.2)">
       <use xlink:href="#DejaVuSans-53"/>
       <use x="63.623047" xlink:href="#DejaVuSans-48"/>
      </g>
     </g>
    </g>
    <g id="xtick_7">
     <g id="line2d_7">
      <g>
       <use style="stroke:#000000;stroke-width:0.8;" x="400.134865" xlink:href="#mb1d3bdc883" y="365.56"/>
      </g>
     </g>
     <g id="text_7">
      <!-- 60 -->
      <defs>
       <path d="M 33.015625 40.375 
Q 26.375 40.375 22.484375 35.828125 
Q 18.609375 31.296875 18.609375 23.390625 
Q 18.609375 15.53125 22.484375 10.953125 
Q 26.375 6.390625 33.015625 6.390625 
Q 39.65625 6.390625 43.53125 10.953125 
Q 47.40625 15.53125 47.40625 23.390625 
Q 47.40625 31.296875 43.53125 35.828125 
Q 39.65625 40.375 33.015625 40.375 
z
M 52.59375 71.296875 
L 52.59375 62.3125 
Q 48.875 64.0625 45.09375 64.984375 
Q 41.3125 65.921875 37.59375 65.921875 
Q 27.828125 65.921875 22.671875 59.328125 
Q 17.53125 52.734375 16.796875 39.40625 
Q 19.671875 43.65625 24.015625 45.921875 
Q 28.375 48.1875 33.59375 48.1875 
Q 44.578125 48.1875 50.953125 41.515625 
Q 57.328125 34.859375 57.328125 23.390625 
Q 57.328125 12.15625 50.6875 5.359375 
Q 44.046875 -1.421875 33.015625 -1.421875 
Q 20.359375 -1.421875 13.671875 8.265625 
Q 6.984375 17.96875 6.984375 36.375 
Q 6.984375 53.65625 15.1875 63.9375 
Q 23.390625 74.21875 37.203125 74.21875 
Q 40.921875 74.21875 44.703125 73.484375 
Q 48.484375 72.75 52.59375 71.296875 
z
" id="DejaVuSans-54"/>
      </defs>
      <g transform="translate(387.409865 387.756875)scale(0.2 -0.2)">
       <use xlink:href="#DejaVuSans-54"/>
       <use x="63.623047" xlink:href="#DejaVuSans-48"/>
      </g>
     </g>
    </g>
    <g id="xtick_8">
     <g id="line2d_8">
      <g>
       <use style="stroke:#000000;stroke-width:0.8;" x="451.657873" xlink:href="#mb1d3bdc883" y="365.56"/>
      </g>
     </g>
     <g id="text_8">
      <!-- 70 -->
      <defs>
       <path d="M 8.203125 72.90625 
L 55.078125 72.90625 
L 55.078125 68.703125 
L 28.609375 0 
L 18.3125 0 
L 43.21875 64.59375 
L 8.203125 64.59375 
z
" id="DejaVuSans-55"/>
      </defs>
      <g transform="translate(438.932873 387.756875)scale(0.2 -0.2)">
       <use xlink:href="#DejaVuSans-55"/>
       <use x="63.623047" xlink:href="#DejaVuSans-48"/>
      </g>
     </g>
    </g>
    <g id="xtick_9">
     <g id="line2d_9">
      <g>
       <use style="stroke:#000000;stroke-width:0.8;" x="503.180881" xlink:href="#mb1d3bdc883" y="365.56"/>
      </g>
     </g>
     <g id="text_9">
      <!-- 80 -->
      <defs>
       <path d="M 31.78125 34.625 
Q 24.75 34.625 20.71875 30.859375 
Q 16.703125 27.09375 16.703125 20.515625 
Q 16.703125 13.921875 20.71875 10.15625 
Q 24.75 6.390625 31.78125 6.390625 
Q 38.8125 6.390625 42.859375 10.171875 
Q 46.921875 13.96875 46.921875 20.515625 
Q 46.921875 27.09375 42.890625 30.859375 
Q 38.875 34.625 31.78125 34.625 
z
M 21.921875 38.8125 
Q 15.578125 40.375 12.03125 44.71875 
Q 8.5 49.078125 8.5 55.328125 
Q 8.5 64.0625 14.71875 69.140625 
Q 20.953125 74.21875 31.78125 74.21875 
Q 42.671875 74.21875 48.875 69.140625 
Q 55.078125 64.0625 55.078125 55.328125 
Q 55.078125 49.078125 51.53125 44.71875 
Q 48 40.375 41.703125 38.8125 
Q 48.828125 37.15625 52.796875 32.3125 
Q 56.78125 27.484375 56.78125 20.515625 
Q 56.78125 9.90625 50.3125 4.234375 
Q 43.84375 -1.421875 31.78125 -1.421875 
Q 19.734375 -1.421875 13.25 4.234375 
Q 6.78125 9.90625 6.78125 20.515625 
Q 6.78125 27.484375 10.78125 32.3125 
Q 14.796875 37.15625 21.921875 38.8125 
z
M 18.3125 54.390625 
Q 18.3125 48.734375 21.84375 45.5625 
Q 25.390625 42.390625 31.78125 42.390625 
Q 38.140625 42.390625 41.71875 45.5625 
Q 45.3125 48.734375 45.3125 54.390625 
Q 45.3125 60.0625 41.71875 63.234375 
Q 38.140625 66.40625 31.78125 66.40625 
Q 25.390625 66.40625 21.84375 63.234375 
Q 18.3125 60.0625 18.3125 54.390625 
z
" id="DejaVuSans-56"/>
      </defs>
      <g transform="translate(490.455881 387.756875)scale(0.2 -0.2)">
       <use xlink:href="#DejaVuSans-56"/>
       <use x="63.623047" xlink:href="#DejaVuSans-48"/>
      </g>
     </g>
    </g>
    <g id="text_10">
     <!-- # of games -->
     <defs>
      <path d="M 51.125 44 
L 36.921875 44 
L 32.8125 27.6875 
L 47.125 27.6875 
z
M 43.796875 71.78125 
L 38.71875 51.515625 
L 52.984375 51.515625 
L 58.109375 71.78125 
L 65.921875 71.78125 
L 60.890625 51.515625 
L 76.125 51.515625 
L 76.125 44 
L 58.984375 44 
L 54.984375 27.6875 
L 70.515625 27.6875 
L 70.515625 20.21875 
L 53.078125 20.21875 
L 48 0 
L 40.1875 0 
L 45.21875 20.21875 
L 30.90625 20.21875 
L 25.875 0 
L 18.015625 0 
L 23.09375 20.21875 
L 7.71875 20.21875 
L 7.71875 27.6875 
L 24.90625 27.6875 
L 29 44 
L 13.28125 44 
L 13.28125 51.515625 
L 30.90625 51.515625 
L 35.890625 71.78125 
z
" id="DejaVuSans-35"/>
      <path id="DejaVuSans-32"/>
      <path d="M 30.609375 48.390625 
Q 23.390625 48.390625 19.1875 42.75 
Q 14.984375 37.109375 14.984375 27.296875 
Q 14.984375 17.484375 19.15625 11.84375 
Q 23.34375 6.203125 30.609375 6.203125 
Q 37.796875 6.203125 41.984375 11.859375 
Q 46.1875 17.53125 46.1875 27.296875 
Q 46.1875 37.015625 41.984375 42.703125 
Q 37.796875 48.390625 30.609375 48.390625 
z
M 30.609375 56 
Q 42.328125 56 49.015625 48.375 
Q 55.71875 40.765625 55.71875 27.296875 
Q 55.71875 13.875 49.015625 6.21875 
Q 42.328125 -1.421875 30.609375 -1.421875 
Q 18.84375 -1.421875 12.171875 6.21875 
Q 5.515625 13.875 5.515625 27.296875 
Q 5.515625 40.765625 12.171875 48.375 
Q 18.84375 56 30.609375 56 
z
" id="DejaVuSans-111"/>
      <path d="M 37.109375 75.984375 
L 37.109375 68.5 
L 28.515625 68.5 
Q 23.6875 68.5 21.796875 66.546875 
Q 19.921875 64.59375 19.921875 59.515625 
L 19.921875 54.6875 
L 34.71875 54.6875 
L 34.71875 47.703125 
L 19.921875 47.703125 
L 19.921875 0 
L 10.890625 0 
L 10.890625 47.703125 
L 2.296875 47.703125 
L 2.296875 54.6875 
L 10.890625 54.6875 
L 10.890625 58.5 
Q 10.890625 67.625 15.140625 71.796875 
Q 19.390625 75.984375 28.609375 75.984375 
z
" id="DejaVuSans-102"/>
      <path d="M 45.40625 27.984375 
Q 45.40625 37.75 41.375 43.109375 
Q 37.359375 48.484375 30.078125 48.484375 
Q 22.859375 48.484375 18.828125 43.109375 
Q 14.796875 37.75 14.796875 27.984375 
Q 14.796875 18.265625 18.828125 12.890625 
Q 22.859375 7.515625 30.078125 7.515625 
Q 37.359375 7.515625 41.375 12.890625 
Q 45.40625 18.265625 45.40625 27.984375 
z
M 54.390625 6.78125 
Q 54.390625 -7.171875 48.1875 -13.984375 
Q 42 -20.796875 29.203125 -20.796875 
Q 24.46875 -20.796875 20.265625 -20.09375 
Q 16.0625 -19.390625 12.109375 -17.921875 
L 12.109375 -9.1875 
Q 16.0625 -11.328125 19.921875 -12.34375 
Q 23.78125 -13.375 27.78125 -13.375 
Q 36.625 -13.375 41.015625 -8.765625 
Q 45.40625 -4.15625 45.40625 5.171875 
L 45.40625 9.625 
Q 42.625 4.78125 38.28125 2.390625 
Q 33.9375 0 27.875 0 
Q 17.828125 0 11.671875 7.65625 
Q 5.515625 15.328125 5.515625 27.984375 
Q 5.515625 40.671875 11.671875 48.328125 
Q 17.828125 56 27.875 56 
Q 33.9375 56 38.28125 53.609375 
Q 42.625 51.21875 45.40625 46.390625 
L 45.40625 54.6875 
L 54.390625 54.6875 
z
" id="DejaVuSans-103"/>
      <path d="M 34.28125 27.484375 
Q 23.390625 27.484375 19.1875 25 
Q 14.984375 22.515625 14.984375 16.5 
Q 14.984375 11.71875 18.140625 8.90625 
Q 21.296875 6.109375 26.703125 6.109375 
Q 34.1875 6.109375 38.703125 11.40625 
Q 43.21875 16.703125 43.21875 25.484375 
L 43.21875 27.484375 
z
M 52.203125 31.203125 
L 52.203125 0 
L 43.21875 0 
L 43.21875 8.296875 
Q 40.140625 3.328125 35.546875 0.953125 
Q 30.953125 -1.421875 24.3125 -1.421875 
Q 15.921875 -1.421875 10.953125 3.296875 
Q 6 8.015625 6 15.921875 
Q 6 25.140625 12.171875 29.828125 
Q 18.359375 34.515625 30.609375 34.515625 
L 43.21875 34.515625 
L 43.21875 35.40625 
Q 43.21875 41.609375 39.140625 45 
Q 35.0625 48.390625 27.6875 48.390625 
Q 23 48.390625 18.546875 47.265625 
Q 14.109375 46.140625 10.015625 43.890625 
L 10.015625 52.203125 
Q 14.9375 54.109375 19.578125 55.046875 
Q 24.21875 56 28.609375 56 
Q 40.484375 56 46.34375 49.84375 
Q 52.203125 43.703125 52.203125 31.203125 
z
" id="DejaVuSans-97"/>
      <path d="M 52 44.1875 
Q 55.375 50.25 60.0625 53.125 
Q 64.75 56 71.09375 56 
Q 79.640625 56 84.28125 50.015625 
Q 88.921875 44.046875 88.921875 33.015625 
L 88.921875 0 
L 79.890625 0 
L 79.890625 32.71875 
Q 79.890625 40.578125 77.09375 44.375 
Q 74.3125 48.1875 68.609375 48.1875 
Q 61.625 48.1875 57.5625 43.546875 
Q 53.515625 38.921875 53.515625 30.90625 
L 53.515625 0 
L 44.484375 0 
L 44.484375 32.71875 
Q 44.484375 40.625 41.703125 44.40625 
Q 38.921875 48.1875 33.109375 48.1875 
Q 26.21875 48.1875 22.15625 43.53125 
Q 18.109375 38.875 18.109375 30.90625 
L 18.109375 0 
L 9.078125 0 
L 9.078125 54.6875 
L 18.109375 54.6875 
L 18.109375 46.1875 
Q 21.1875 51.21875 25.484375 53.609375 
Q 29.78125 56 35.6875 56 
Q 41.65625 56 45.828125 52.96875 
Q 50 49.953125 52 44.1875 
z
" id="DejaVuSans-109"/>
      <path d="M 56.203125 29.59375 
L 56.203125 25.203125 
L 14.890625 25.203125 
Q 15.484375 15.921875 20.484375 11.0625 
Q 25.484375 6.203125 34.421875 6.203125 
Q 39.59375 6.203125 44.453125 7.46875 
Q 49.3125 8.734375 54.109375 11.28125 
L 54.109375 2.78125 
Q 49.265625 0.734375 44.1875 -0.34375 
Q 39.109375 -1.421875 33.890625 -1.421875 
Q 20.796875 -1.421875 13.15625 6.1875 
Q 5.515625 13.8125 5.515625 26.8125 
Q 5.515625 40.234375 12.765625 48.109375 
Q 20.015625 56 32.328125 56 
Q 43.359375 56 49.78125 48.890625 
Q 56.203125 41.796875 56.203125 29.59375 
z
M 47.21875 32.234375 
Q 47.125 39.59375 43.09375 43.984375 
Q 39.0625 48.390625 32.421875 48.390625 
Q 24.90625 48.390625 20.390625 44.140625 
Q 15.875 39.890625 15.1875 32.171875 
z
" id="DejaVuSans-101"/>
      <path d="M 44.28125 53.078125 
L 44.28125 44.578125 
Q 40.484375 46.53125 36.375 47.5 
Q 32.28125 48.484375 27.875 48.484375 
Q 21.1875 48.484375 17.84375 46.4375 
Q 14.5 44.390625 14.5 40.28125 
Q 14.5 37.15625 16.890625 35.375 
Q 19.28125 33.59375 26.515625 31.984375 
L 29.59375 31.296875 
Q 39.15625 29.25 43.1875 25.515625 
Q 47.21875 21.78125 47.21875 15.09375 
Q 47.21875 7.46875 41.1875 3.015625 
Q 35.15625 -1.421875 24.609375 -1.421875 
Q 20.21875 -1.421875 15.453125 -0.5625 
Q 10.6875 0.296875 5.421875 2 
L 5.421875 11.28125 
Q 10.40625 8.6875 15.234375 7.390625 
Q 20.0625 6.109375 24.8125 6.109375 
Q 31.15625 6.109375 34.5625 8.28125 
Q 37.984375 10.453125 37.984375 14.40625 
Q 37.984375 18.0625 35.515625 20.015625 
Q 33.0625 21.96875 24.703125 23.78125 
L 21.578125 24.515625 
Q 13.234375 26.265625 9.515625 29.90625 
Q 5.8125 33.546875 5.8125 39.890625 
Q 5.8125 47.609375 11.28125 51.796875 
Q 16.75 56 26.8125 56 
Q 31.78125 56 36.171875 55.265625 
Q 40.578125 54.546875 44.28125 53.078125 
z
" id="DejaVuSans-115"/>
     </defs>
     <g transform="translate(227.221641 414.912344)scale(0.25 -0.25)">
      <use xlink:href="#DejaVuSans-35"/>
      <use x="83.789062" xlink:href="#DejaVuSans-32"/>
      <use x="115.576172" xlink:href="#DejaVuSans-111"/>
      <use x="176.757812" xlink:href="#DejaVuSans-102"/>
      <use x="211.962891" xlink:href="#DejaVuSans-32"/>
      <use x="243.75" xlink:href="#DejaVuSans-103"/>
      <use x="307.226562" xlink:href="#DejaVuSans-97"/>
      <use x="368.505859" xlink:href="#DejaVuSans-109"/>
      <use x="465.917969" xlink:href="#DejaVuSans-101"/>
      <use x="527.441406" xlink:href="#DejaVuSans-115"/>
     </g>
    </g>
   </g>
   <g id="matplotlib.axis_2">
    <g id="ytick_1">
     <g id="line2d_10">
      <defs>
       <path d="M 0 0 
L -3.5 0 
" id="m0d5a7ebd6f" style="stroke:#000000;stroke-width:0.8;"/>
      </defs>
      <g>
       <use style="stroke:#000000;stroke-width:0.8;" x="70.13" xlink:href="#m0d5a7ebd6f" y="351.970909"/>
      </g>
     </g>
     <g id="text_11">
      <!-- 0.0 -->
      <defs>
       <path d="M 10.6875 12.40625 
L 21 12.40625 
L 21 0 
L 10.6875 0 
z
" id="DejaVuSans-46"/>
      </defs>
      <g transform="translate(31.32375 359.569347)scale(0.2 -0.2)">
       <use xlink:href="#DejaVuSans-48"/>
       <use x="63.623047" xlink:href="#DejaVuSans-46"/>
       <use x="95.410156" xlink:href="#DejaVuSans-48"/>
      </g>
     </g>
    </g>
    <g id="ytick_2">
     <g id="line2d_11">
      <g>
       <use style="stroke:#000000;stroke-width:0.8;" x="70.13" xlink:href="#m0d5a7ebd6f" y="288.022246"/>
      </g>
     </g>
     <g id="text_12">
      <!-- 0.2 -->
      <g transform="translate(31.32375 295.620683)scale(0.2 -0.2)">
       <use xlink:href="#DejaVuSans-48"/>
       <use x="63.623047" xlink:href="#DejaVuSans-46"/>
       <use x="95.410156" xlink:href="#DejaVuSans-50"/>
      </g>
     </g>
    </g>
    <g id="ytick_3">
     <g id="line2d_12">
      <g>
       <use style="stroke:#000000;stroke-width:0.8;" x="70.13" xlink:href="#m0d5a7ebd6f" y="224.073583"/>
      </g>
     </g>
     <g id="text_13">
      <!-- 0.4 -->
      <g transform="translate(31.32375 231.67202)scale(0.2 -0.2)">
       <use xlink:href="#DejaVuSans-48"/>
       <use x="63.623047" xlink:href="#DejaVuSans-46"/>
       <use x="95.410156" xlink:href="#DejaVuSans-52"/>
      </g>
     </g>
    </g>
    <g id="ytick_4">
     <g id="line2d_13">
      <g>
       <use style="stroke:#000000;stroke-width:0.8;" x="70.13" xlink:href="#m0d5a7ebd6f" y="160.12492"/>
      </g>
     </g>
     <g id="text_14">
      <!-- 0.6 -->
      <g transform="translate(31.32375 167.723357)scale(0.2 -0.2)">
       <use xlink:href="#DejaVuSans-48"/>
       <use x="63.623047" xlink:href="#DejaVuSans-46"/>
       <use x="95.410156" xlink:href="#DejaVuSans-54"/>
      </g>
     </g>
    </g>
    <g id="ytick_5">
     <g id="line2d_14">
      <g>
       <use style="stroke:#000000;stroke-width:0.8;" x="70.13" xlink:href="#m0d5a7ebd6f" y="96.176257"/>
      </g>
     </g>
     <g id="text_15">
      <!-- 0.8 -->
      <g transform="translate(31.32375 103.774694)scale(0.2 -0.2)">
       <use xlink:href="#DejaVuSans-48"/>
       <use x="63.623047" xlink:href="#DejaVuSans-46"/>
       <use x="95.410156" xlink:href="#DejaVuSans-56"/>
      </g>
     </g>
    </g>
    <g id="text_16">
     <!-- Percentage of Attacker in CKC -->
     <defs>
      <path d="M 19.671875 64.796875 
L 19.671875 37.40625 
L 32.078125 37.40625 
Q 38.96875 37.40625 42.71875 40.96875 
Q 46.484375 44.53125 46.484375 51.125 
Q 46.484375 57.671875 42.71875 61.234375 
Q 38.96875 64.796875 32.078125 64.796875 
z
M 9.8125 72.90625 
L 32.078125 72.90625 
Q 44.34375 72.90625 50.609375 67.359375 
Q 56.890625 61.8125 56.890625 51.125 
Q 56.890625 40.328125 50.609375 34.8125 
Q 44.34375 29.296875 32.078125 29.296875 
L 19.671875 29.296875 
L 19.671875 0 
L 9.8125 0 
z
" id="DejaVuSans-80"/>
      <path d="M 41.109375 46.296875 
Q 39.59375 47.171875 37.8125 47.578125 
Q 36.03125 48 33.890625 48 
Q 26.265625 48 22.1875 43.046875 
Q 18.109375 38.09375 18.109375 28.8125 
L 18.109375 0 
L 9.078125 0 
L 9.078125 54.6875 
L 18.109375 54.6875 
L 18.109375 46.1875 
Q 20.953125 51.171875 25.484375 53.578125 
Q 30.03125 56 36.53125 56 
Q 37.453125 56 38.578125 55.875 
Q 39.703125 55.765625 41.0625 55.515625 
z
" id="DejaVuSans-114"/>
      <path d="M 48.78125 52.59375 
L 48.78125 44.1875 
Q 44.96875 46.296875 41.140625 47.34375 
Q 37.3125 48.390625 33.40625 48.390625 
Q 24.65625 48.390625 19.8125 42.84375 
Q 14.984375 37.3125 14.984375 27.296875 
Q 14.984375 17.28125 19.8125 11.734375 
Q 24.65625 6.203125 33.40625 6.203125 
Q 37.3125 6.203125 41.140625 7.25 
Q 44.96875 8.296875 48.78125 10.40625 
L 48.78125 2.09375 
Q 45.015625 0.34375 40.984375 -0.53125 
Q 36.96875 -1.421875 32.421875 -1.421875 
Q 20.0625 -1.421875 12.78125 6.34375 
Q 5.515625 14.109375 5.515625 27.296875 
Q 5.515625 40.671875 12.859375 48.328125 
Q 20.21875 56 33.015625 56 
Q 37.15625 56 41.109375 55.140625 
Q 45.0625 54.296875 48.78125 52.59375 
z
" id="DejaVuSans-99"/>
      <path d="M 54.890625 33.015625 
L 54.890625 0 
L 45.90625 0 
L 45.90625 32.71875 
Q 45.90625 40.484375 42.875 44.328125 
Q 39.84375 48.1875 33.796875 48.1875 
Q 26.515625 48.1875 22.3125 43.546875 
Q 18.109375 38.921875 18.109375 30.90625 
L 18.109375 0 
L 9.078125 0 
L 9.078125 54.6875 
L 18.109375 54.6875 
L 18.109375 46.1875 
Q 21.34375 51.125 25.703125 53.5625 
Q 30.078125 56 35.796875 56 
Q 45.21875 56 50.046875 50.171875 
Q 54.890625 44.34375 54.890625 33.015625 
z
" id="DejaVuSans-110"/>
      <path d="M 18.3125 70.21875 
L 18.3125 54.6875 
L 36.8125 54.6875 
L 36.8125 47.703125 
L 18.3125 47.703125 
L 18.3125 18.015625 
Q 18.3125 11.328125 20.140625 9.421875 
Q 21.96875 7.515625 27.59375 7.515625 
L 36.8125 7.515625 
L 36.8125 0 
L 27.59375 0 
Q 17.1875 0 13.234375 3.875 
Q 9.28125 7.765625 9.28125 18.015625 
L 9.28125 47.703125 
L 2.6875 47.703125 
L 2.6875 54.6875 
L 9.28125 54.6875 
L 9.28125 70.21875 
z
" id="DejaVuSans-116"/>
      <path d="M 34.1875 63.1875 
L 20.796875 26.90625 
L 47.609375 26.90625 
z
M 28.609375 72.90625 
L 39.796875 72.90625 
L 67.578125 0 
L 57.328125 0 
L 50.6875 18.703125 
L 17.828125 18.703125 
L 11.1875 0 
L 0.78125 0 
z
" id="DejaVuSans-65"/>
      <path d="M 9.078125 75.984375 
L 18.109375 75.984375 
L 18.109375 31.109375 
L 44.921875 54.6875 
L 56.390625 54.6875 
L 27.390625 29.109375 
L 57.625 0 
L 45.90625 0 
L 18.109375 26.703125 
L 18.109375 0 
L 9.078125 0 
z
" id="DejaVuSans-107"/>
      <path d="M 9.421875 54.6875 
L 18.40625 54.6875 
L 18.40625 0 
L 9.421875 0 
z
M 9.421875 75.984375 
L 18.40625 75.984375 
L 18.40625 64.59375 
L 9.421875 64.59375 
z
" id="DejaVuSans-105"/>
      <path d="M 64.40625 67.28125 
L 64.40625 56.890625 
Q 59.421875 61.53125 53.78125 63.8125 
Q 48.140625 66.109375 41.796875 66.109375 
Q 29.296875 66.109375 22.65625 58.46875 
Q 16.015625 50.828125 16.015625 36.375 
Q 16.015625 21.96875 22.65625 14.328125 
Q 29.296875 6.6875 41.796875 6.6875 
Q 48.140625 6.6875 53.78125 8.984375 
Q 59.421875 11.28125 64.40625 15.921875 
L 64.40625 5.609375 
Q 59.234375 2.09375 53.4375 0.328125 
Q 47.65625 -1.421875 41.21875 -1.421875 
Q 24.65625 -1.421875 15.125 8.703125 
Q 5.609375 18.84375 5.609375 36.375 
Q 5.609375 53.953125 15.125 64.078125 
Q 24.65625 74.21875 41.21875 74.21875 
Q 47.75 74.21875 53.53125 72.484375 
Q 59.328125 70.75 64.40625 67.28125 
z
" id="DejaVuSans-67"/>
      <path d="M 9.8125 72.90625 
L 19.671875 72.90625 
L 19.671875 42.09375 
L 52.390625 72.90625 
L 65.09375 72.90625 
L 28.90625 38.921875 
L 67.671875 0 
L 54.6875 0 
L 19.671875 35.109375 
L 19.671875 0 
L 9.8125 0 
z
" id="DejaVuSans-75"/>
     </defs>
     <g transform="translate(23.857604 342.050052)rotate(-90)scale(0.166667 -0.166667)">
      <use xlink:href="#DejaVuSans-80"/>
      <use x="60.255859" xlink:href="#DejaVuSans-101"/>
      <use x="121.779297" xlink:href="#DejaVuSans-114"/>
      <use x="162.861328" xlink:href="#DejaVuSans-99"/>
      <use x="217.841797" xlink:href="#DejaVuSans-101"/>
      <use x="279.365234" xlink:href="#DejaVuSans-110"/>
      <use x="342.744141" xlink:href="#DejaVuSans-116"/>
      <use x="381.953125" xlink:href="#DejaVuSans-97"/>
      <use x="443.232422" xlink:href="#DejaVuSans-103"/>
      <use x="506.708984" xlink:href="#DejaVuSans-101"/>
      <use x="568.232422" xlink:href="#DejaVuSans-32"/>
      <use x="600.019531" xlink:href="#DejaVuSans-111"/>
      <use x="661.201172" xlink:href="#DejaVuSans-102"/>
      <use x="696.40625" xlink:href="#DejaVuSans-32"/>
      <use x="728.193359" xlink:href="#DejaVuSans-65"/>
      <use x="796.585938" xlink:href="#DejaVuSans-116"/>
      <use x="835.794922" xlink:href="#DejaVuSans-116"/>
      <use x="875.003906" xlink:href="#DejaVuSans-97"/>
      <use x="936.283203" xlink:href="#DejaVuSans-99"/>
      <use x="991.263672" xlink:href="#DejaVuSans-107"/>
      <use x="1049.126953" xlink:href="#DejaVuSans-101"/>
      <use x="1110.650391" xlink:href="#DejaVuSans-114"/>
      <use x="1151.763672" xlink:href="#DejaVuSans-32"/>
      <use x="1183.550781" xlink:href="#DejaVuSans-105"/>
      <use x="1211.333984" xlink:href="#DejaVuSans-110"/>
      <use x="1274.712891" xlink:href="#DejaVuSans-32"/>
      <use x="1306.5" xlink:href="#DejaVuSans-67"/>
      <use x="1376.324219" xlink:href="#DejaVuSans-75"/>
      <use x="1441.822266" xlink:href="#DejaVuSans-67"/>
     </g>
    </g>
   </g>
   <g id="line2d_15">
    <path clip-path="url(#p0d659789b3)" d="M 90.996818 80.189091 
L 96.149119 119.944786 
L 101.30142 184.105668 
L 106.453721 231.123042 
L 111.606021 273.228152 
L 116.758322 292.590008 
L 121.910623 291.884917 
L 127.062924 288.432173 
L 132.215224 298.349359 
L 137.367525 295.545618 
L 142.519826 293.995473 
L 147.672127 300.399407 
L 152.824428 285.085828 
L 157.976728 286.717171 
L 163.129029 291.821176 
L 168.28133 298.932918 
L 173.433631 302.541991 
L 178.585932 312.593653 
L 183.738232 314.063196 
L 188.890533 320.73162 
L 194.042834 312.228802 
L 199.195135 299.553972 
L 204.347435 306.019774 
L 209.499736 305.994746 
L 214.652037 305.075223 
L 219.804338 312.865612 
L 224.956639 313.601711 
L 230.108939 308.615883 
L 235.26124 322.164329 
L 240.413541 329.132101 
L 245.565842 335.432462 
L 250.718143 333.319216 
L 255.870443 327.136477 
L 261.022744 324.564339 
L 266.175045 338.218508 
L 271.327346 326.822558 
L 276.479646 320.776439 
L 281.631947 322.1282 
L 286.784248 325.325633 
L 291.936549 313.214144 
L 297.08885 318.564891 
L 302.24115 322.456142 
L 307.393451 326.185158 
L 312.545752 336.499458 
L 317.698053 344.704016 
L 322.850354 337.760095 
L 328.002654 344.865502 
L 333.154955 330.170228 
L 338.307256 319.996578 
L 343.459557 319.176723 
L 348.611857 327.375269 
L 353.764158 309.338467 
L 358.916459 319.996578 
L 364.06876 319.996578 
L 369.221061 337.437122 
L 374.373361 351.970909 
L 379.525662 351.970909 
L 384.677963 351.970909 
L 389.830264 351.970909 
L 394.982565 334.207392 
L 400.134865 316.443874 
L 405.287166 316.443874 
L 410.439467 334.207392 
L 415.591768 351.970909 
L 420.744068 351.970909 
L 425.896369 335.142314 
L 431.04867 335.142314 
L 436.200971 319.996578 
L 441.353272 318.313718 
L 446.505572 335.142314 
L 451.657873 335.142314 
L 456.810174 335.142314 
L 461.962475 319.996578 
L 467.114776 306.293293 
L 472.267076 306.293293 
L 477.419377 306.293293 
L 482.571678 329.132101 
L 487.723979 309.338467 
L 492.876279 330.654688 
L 498.02858 312.002995 
L 503.180881 312.002995 
L 508.333182 312.002995 
" style="fill:none;stroke:#1f77b4;stroke-linecap:square;stroke-width:1.5;"/>
   </g>
   <g id="line2d_16">
    <path clip-path="url(#p0d659789b3)" d="M 90.996818 304.009412 
L 96.149119 278.401651 
L 101.30142 234.731693 
L 106.453721 208.464067 
L 111.606021 173.010098 
L 116.758322 164.692681 
L 121.910623 163.129219 
L 127.062924 175.702158 
L 132.215224 189.120276 
L 137.367525 203.38431 
L 142.519826 199.126577 
L 147.672127 211.008802 
L 152.824428 216.569403 
L 157.976728 218.200746 
L 163.129029 219.008342 
L 168.28133 223.16436 
L 173.433631 233.032574 
L 178.585932 232.264052 
L 183.738232 239.895933 
L 188.890533 241.714593 
L 194.042834 247.196263 
L 199.195135 254.12596 
L 204.347435 240.922332 
L 209.499736 234.940676 
L 214.652037 232.600071 
L 219.804338 213.952212 
L 224.956639 218.95769 
L 230.108939 224.615521 
L 235.26124 216.486453 
L 240.413541 206.373506 
L 245.565842 203.124883 
L 250.718143 210.750945 
L 255.870443 212.277228 
L 261.022744 211.892885 
L 266.175045 200.694502 
L 271.327346 208.266048 
L 276.479646 211.595795 
L 281.631947 211.28385 
L 286.784248 214.303648 
L 291.936549 226.011421 
L 297.08885 227.891414 
L 302.24115 228.992711 
L 307.393451 228.199303 
L 312.545752 217.885003 
L 317.698053 228.433719 
L 322.850354 231.17899 
L 328.002654 238.284397 
L 333.154955 242.967506 
L 338.307256 224.073583 
L 343.459557 220.794164 
L 348.611857 212.595618 
L 353.764158 266.706025 
L 358.916459 256.047914 
L 364.06876 256.047914 
L 369.221061 235.700613 
L 374.373361 221.166825 
L 379.525662 214.93806 
L 384.677963 182.695036 
L 389.830264 182.695036 
L 394.982565 192.099251 
L 400.134865 192.099251 
L 405.287166 192.099251 
L 410.439467 174.335734 
L 415.591768 156.572216 
L 420.744068 156.572216 
L 425.896369 166.856358 
L 431.04867 166.856358 
L 436.200971 176.112086 
L 441.353272 183.684954 
L 446.505572 166.856358 
L 451.657873 166.856358 
L 456.810174 166.856358 
L 461.962475 192.099251 
L 467.114776 192.099251 
L 472.267076 192.099251 
L 477.419377 192.099251 
L 482.571678 169.260443 
L 487.723979 202.757362 
L 492.876279 181.441141 
L 498.02858 212.083209 
L 503.180881 212.083209 
L 508.333182 212.083209 
" style="fill:none;stroke:#ff7f0e;stroke-linecap:square;stroke-width:1.5;"/>
   </g>
   <g id="line2d_17">
    <path clip-path="url(#p0d659789b3)" d="M 90.996818 351.970909 
L 96.149119 337.822975 
L 101.30142 322.661105 
L 106.453721 301.617631 
L 111.606021 306.63417 
L 116.758322 297.157769 
L 121.910623 304.760487 
L 127.062924 306.878903 
L 132.215224 288.419443 
L 137.367525 282.379717 
L 142.519826 286.968147 
L 147.672127 272.894605 
L 152.824428 286.717171 
L 157.976728 293.242545 
L 163.129029 293.404064 
L 168.28133 280.748464 
L 173.433631 271.648917 
L 178.585932 271.641308 
L 183.738232 269.562838 
L 188.890533 263.765857 
L 194.042834 272.486695 
L 199.195135 280.334429 
L 204.347435 286.873468 
L 209.499736 289.276141 
L 214.652037 296.548734 
L 219.804338 296.76343 
L 224.956639 290.580193 
L 230.108939 308.615883 
L 235.26124 303.196505 
L 240.413541 306.293293 
L 245.565842 305.111975 
L 250.718143 298.680357 
L 255.870443 299.197741 
L 261.022744 315.428816 
L 266.175045 314.151807 
L 271.327346 319.637315 
L 276.479646 320.776439 
L 281.631947 317.864955 
L 286.784248 320.884753 
L 291.936549 313.214144 
L 297.08885 304.248026 
L 302.24115 317.537014 
L 307.393451 321.028008 
L 312.545752 326.185158 
L 317.698053 301.102654 
L 322.850354 316.443874 
L 328.002654 302.23306 
L 333.154955 315.636441 
L 338.307256 319.996578 
L 343.459557 319.176723 
L 348.611857 327.375269 
L 353.764158 309.338467 
L 358.916459 319.996578 
L 364.06876 319.996578 
L 369.221061 322.903335 
L 374.373361 322.903335 
L 379.525662 336.745037 
L 384.677963 351.970909 
L 389.830264 351.970909 
L 394.982565 351.970909 
L 400.134865 351.970909 
L 405.287166 351.970909 
L 410.439467 351.970909 
L 415.591768 351.970909 
L 420.744068 351.970909 
L 425.896369 351.970909 
L 431.04867 351.970909 
L 436.200971 351.970909 
L 441.353272 335.142314 
L 446.505572 335.142314 
L 451.657873 335.142314 
L 456.810174 335.142314 
L 461.962475 319.996578 
L 467.114776 351.970909 
L 472.267076 351.970909 
L 477.419377 351.970909 
L 482.571678 351.970909 
L 487.723979 330.654688 
L 492.876279 330.654688 
L 498.02858 331.986952 
L 503.180881 351.970909 
L 508.333182 351.970909 
" style="fill:none;stroke:#2ca02c;stroke-linecap:square;stroke-width:1.5;"/>
   </g>
   <g id="line2d_18">
    <path clip-path="url(#p0d659789b3)" d="M 90.996818 351.970909 
L 96.149119 351.970909 
L 101.30142 346.641854 
L 106.453721 349.453245 
L 111.606021 337.654044 
L 116.758322 340.551505 
L 121.910623 334.803483 
L 127.062924 331.474543 
L 132.215224 336.083042 
L 137.367525 338.805008 
L 142.519826 334.402595 
L 147.672127 339.937559 
L 152.824428 337.288818 
L 157.976728 330.763444 
L 163.129029 331.393369 
L 168.28133 335.301826 
L 173.433631 334.979718 
L 178.585932 331.494736 
L 183.738232 325.600326 
L 188.890533 331.757251 
L 194.042834 330.293396 
L 199.195135 329.256903 
L 204.347435 334.739233 
L 209.499736 337.34213 
L 214.652037 337.049554 
L 219.804338 335.868728 
L 224.956639 336.62323 
L 230.108939 327.583707 
L 235.26124 341.132153 
L 240.413541 343.406356 
L 245.565842 340.945278 
L 250.718143 338.648271 
L 255.870443 339.553693 
L 261.022744 333.699862 
L 266.175045 338.218508 
L 271.327346 344.785666 
L 276.479646 344.172292 
L 281.631947 343.444421 
L 286.784248 338.648271 
L 291.936549 332.592526 
L 297.08885 332.881756 
L 302.24115 322.456142 
L 307.393451 336.499458 
L 312.545752 331.342308 
L 317.698053 337.437122 
L 322.850354 323.549281 
L 328.002654 337.760095 
L 333.154955 337.437122 
L 338.307256 343.977326 
L 343.459557 351.970909 
L 348.611857 343.772363 
L 353.764158 351.970909 
L 358.916459 341.312799 
L 364.06876 341.312799 
L 369.221061 351.970909 
L 374.373361 351.970909 
L 379.525662 336.745037 
L 384.677963 314.354048 
L 389.830264 333.162479 
L 394.982565 334.207392 
L 400.134865 334.207392 
L 405.287166 351.970909 
L 410.439467 351.970909 
L 415.591768 351.970909 
L 420.744068 351.970909 
L 425.896369 351.970909 
L 431.04867 351.970909 
L 436.200971 351.970909 
L 441.353272 351.970909 
L 446.505572 351.970909 
L 451.657873 351.970909 
L 456.810174 351.970909 
L 461.962475 351.970909 
L 467.114776 351.970909 
L 472.267076 351.970909 
L 477.419377 351.970909 
L 482.571678 351.970909 
L 487.723979 351.970909 
L 492.876279 351.970909 
L 498.02858 331.986952 
L 503.180881 331.986952 
L 508.333182 331.986952 
" style="fill:none;stroke:#d62728;stroke-linecap:square;stroke-width:1.5;"/>
   </g>
   <g id="line2d_19">
    <path clip-path="url(#p0d659789b3)" d="M 90.996818 351.970909 
L 96.149119 351.970909 
L 101.30142 351.970909 
L 106.453721 349.453245 
L 111.606021 351.970909 
L 116.758322 347.403147 
L 121.910623 349.824981 
L 127.062924 343.772363 
L 132.215224 340.055009 
L 137.367525 336.924165 
L 142.519826 350.214078 
L 147.672127 341.656609 
L 152.824428 340.551505 
L 157.976728 337.288818 
L 163.129029 337.72492 
L 168.28133 336.817197 
L 173.433631 334.979718 
L 178.585932 336.220007 
L 183.738232 340.433779 
L 188.890533 331.757251 
L 194.042834 330.293396 
L 199.195135 336.245828 
L 204.347435 336.653864 
L 209.499736 335.252304 
L 214.652037 337.049554 
L 219.804338 338.169039 
L 224.956639 339.181176 
L 230.108939 335.712774 
L 235.26124 322.164329 
L 240.413541 334.841803 
L 245.565842 340.945278 
L 250.718143 341.312799 
L 255.870443 348.866605 
L 261.022744 339.790211 
L 266.175045 345.094709 
L 271.327346 337.600423 
L 276.479646 336.373674 
L 281.631947 343.444421 
L 286.784248 343.08915 
L 291.936549 342.281718 
L 297.08885 342.426333 
L 302.24115 337.213525 
L 307.393451 315.870857 
L 312.545752 336.499458 
L 317.698053 337.437122 
L 322.850354 351.970909 
L 328.002654 337.760095 
L 333.154955 337.437122 
L 338.307256 335.983743 
L 343.459557 327.375269 
L 348.611857 343.772363 
L 353.764158 330.654688 
L 358.916459 341.312799 
L 364.06876 341.312799 
L 369.221061 351.970909 
L 374.373361 351.970909 
L 379.525662 351.970909 
L 384.677963 351.970909 
L 389.830264 333.162479 
L 394.982565 351.970909 
L 400.134865 351.970909 
L 405.287166 334.207392 
L 410.439467 334.207392 
L 415.591768 334.207392 
L 420.744068 334.207392 
L 425.896369 335.142314 
L 431.04867 351.970909 
L 436.200971 351.970909 
L 441.353272 351.970909 
L 446.505572 351.970909 
L 451.657873 351.970909 
L 456.810174 351.970909 
L 461.962475 351.970909 
L 467.114776 351.970909 
L 472.267076 351.970909 
L 477.419377 351.970909 
L 482.571678 351.970909 
L 487.723979 351.970909 
L 492.876279 351.970909 
L 498.02858 351.970909 
L 503.180881 331.986952 
L 508.333182 331.986952 
" style="fill:none;stroke:#9467bd;stroke-linecap:square;stroke-width:1.5;"/>
   </g>
   <g id="line2d_20">
    <path clip-path="url(#p0d659789b3)" d="M 90.996818 351.970909 
L 96.149119 351.970909 
L 101.30142 351.970909 
L 106.453721 351.970909 
L 111.606021 349.584765 
L 116.758322 349.687028 
L 121.910623 347.679053 
L 127.062924 345.821999 
L 132.215224 340.055009 
L 137.367525 335.043322 
L 142.519826 327.375269 
L 147.672127 326.185158 
L 152.824428 325.869414 
L 157.976728 325.869414 
L 163.129029 318.730267 
L 168.28133 317.117372 
L 173.433631 314.89922 
L 178.585932 307.868383 
L 183.738232 302.526066 
L 188.890533 302.355567 
L 194.042834 299.583586 
L 199.195135 292.565047 
L 204.347435 286.873468 
L 209.499736 289.276141 
L 214.652037 283.759002 
L 219.804338 294.463119 
L 224.956639 293.138139 
L 230.108939 286.93837 
L 235.26124 286.93837 
L 240.413541 272.03508 
L 245.565842 266.522264 
L 250.718143 269.370553 
L 255.870443 265.050396 
L 261.022744 266.706025 
L 266.175045 255.704104 
L 271.327346 254.970128 
L 276.479646 258.3875 
L 281.631947 253.916292 
L 286.784248 249.830683 
L 291.936549 264.768187 
L 297.08885 266.06972 
L 302.24115 263.426606 
L 307.393451 264.299355 
L 312.545752 243.670754 
L 317.698053 242.967506 
L 322.850354 231.17899 
L 328.002654 231.17899 
L 333.154955 228.433719 
L 338.307256 248.054332 
L 343.459557 253.58835 
L 348.611857 237.191257 
L 353.764158 224.073583 
L 358.916459 213.415472 
L 364.06876 213.415472 
L 369.221061 192.099251 
L 374.373361 192.099251 
L 379.525662 199.712187 
L 384.677963 239.120327 
L 389.830264 239.120327 
L 394.982565 227.626286 
L 400.134865 245.389804 
L 405.287166 245.389804 
L 410.439467 245.389804 
L 415.591768 245.389804 
L 420.744068 245.389804 
L 425.896369 250.999336 
L 431.04867 234.17074 
L 436.200971 240.060749 
L 441.353272 250.999336 
L 446.505572 250.999336 
L 451.657873 250.999336 
L 456.810174 250.999336 
L 461.962475 256.047914 
L 467.114776 237.776868 
L 472.267076 237.776868 
L 477.419377 237.776868 
L 482.571678 237.776868 
L 487.723979 245.389804 
L 492.876279 245.389804 
L 498.02858 252.051123 
L 503.180881 252.051123 
L 508.333182 252.051123 
" style="fill:none;stroke:#8c564b;stroke-linecap:square;stroke-width:1.5;"/>
   </g>
   <g id="patch_3">
    <path d="M 70.13 365.56 
L 70.13 66.6 
" style="fill:none;stroke:#000000;stroke-linecap:square;stroke-linejoin:miter;stroke-width:0.8;"/>
   </g>
   <g id="patch_4">
    <path d="M 529.2 365.56 
L 529.2 66.6 
" style="fill:none;stroke:#000000;stroke-linecap:square;stroke-linejoin:miter;stroke-width:0.8;"/>
   </g>
   <g id="patch_5">
    <path d="M 70.13 365.56 
L 529.2 365.56 
" style="fill:none;stroke:#000000;stroke-linecap:square;stroke-linejoin:miter;stroke-width:0.8;"/>
   </g>
   <g id="patch_6">
    <path d="M 70.13 66.6 
L 529.2 66.6 
" style="fill:none;stroke:#000000;stroke-linecap:square;stroke-linejoin:miter;stroke-width:0.8;"/>
   </g>
   <g id="legend_1">
    <g id="patch_7">
     <path d="M 80.63 59.1 
L 518.7 59.1 
Q 521.7 59.1 521.7 56.1 
L 521.7 13.565625 
Q 521.7 10.565625 518.7 10.565625 
L 80.63 10.565625 
Q 77.63 10.565625 77.63 13.565625 
L 77.63 56.1 
Q 77.63 59.1 80.63 59.1 
z
" style="fill:#ffffff;opacity:0.8;stroke:#cccccc;stroke-linejoin:miter;"/>
    </g>
    <g id="line2d_21">
     <path d="M 83.63 22.713281 
L 113.63 22.713281 
" style="fill:none;stroke:#1f77b4;stroke-linecap:square;stroke-width:1.5;"/>
    </g>
    <g id="line2d_22"/>
    <g id="text_17">
     <!-- CKC #0 -->
     <g transform="translate(125.63 27.963281)scale(0.15 -0.15)">
      <use xlink:href="#DejaVuSans-67"/>
      <use x="69.824219" xlink:href="#DejaVuSans-75"/>
      <use x="135.322266" xlink:href="#DejaVuSans-67"/>
      <use x="205.146484" xlink:href="#DejaVuSans-32"/>
      <use x="236.933594" xlink:href="#DejaVuSans-35"/>
      <use x="320.722656" xlink:href="#DejaVuSans-48"/>
     </g>
    </g>
    <g id="line2d_23">
     <path d="M 83.63 44.730469 
L 113.63 44.730469 
" style="fill:none;stroke:#ff7f0e;stroke-linecap:square;stroke-width:1.5;"/>
    </g>
    <g id="line2d_24"/>
    <g id="text_18">
     <!-- CKC #1 -->
     <g transform="translate(125.63 49.980469)scale(0.15 -0.15)">
      <use xlink:href="#DejaVuSans-67"/>
      <use x="69.824219" xlink:href="#DejaVuSans-75"/>
      <use x="135.322266" xlink:href="#DejaVuSans-67"/>
      <use x="205.146484" xlink:href="#DejaVuSans-32"/>
      <use x="236.933594" xlink:href="#DejaVuSans-35"/>
      <use x="320.722656" xlink:href="#DejaVuSans-49"/>
     </g>
    </g>
    <g id="line2d_25">
     <path d="M 194.435365 22.713281 
L 224.435365 22.713281 
" style="fill:none;stroke:#2ca02c;stroke-linecap:square;stroke-width:1.5;"/>
    </g>
    <g id="line2d_26"/>
    <g id="text_19">
     <!-- CKC #2 -->
     <g transform="translate(236.435365 27.963281)scale(0.15 -0.15)">
      <use xlink:href="#DejaVuSans-67"/>
      <use x="69.824219" xlink:href="#DejaVuSans-75"/>
      <use x="135.322266" xlink:href="#DejaVuSans-67"/>
      <use x="205.146484" xlink:href="#DejaVuSans-32"/>
      <use x="236.933594" xlink:href="#DejaVuSans-35"/>
      <use x="320.722656" xlink:href="#DejaVuSans-50"/>
     </g>
    </g>
    <g id="line2d_27">
     <path d="M 194.435365 44.730469 
L 224.435365 44.730469 
" style="fill:none;stroke:#d62728;stroke-linecap:square;stroke-width:1.5;"/>
    </g>
    <g id="line2d_28"/>
    <g id="text_20">
     <!-- CKC #3 -->
     <g transform="translate(236.435365 49.980469)scale(0.15 -0.15)">
      <use xlink:href="#DejaVuSans-67"/>
      <use x="69.824219" xlink:href="#DejaVuSans-75"/>
      <use x="135.322266" xlink:href="#DejaVuSans-67"/>
      <use x="205.146484" xlink:href="#DejaVuSans-32"/>
      <use x="236.933594" xlink:href="#DejaVuSans-35"/>
      <use x="320.722656" xlink:href="#DejaVuSans-51"/>
     </g>
    </g>
    <g id="line2d_29">
     <path d="M 305.240729 22.713281 
L 335.240729 22.713281 
" style="fill:none;stroke:#9467bd;stroke-linecap:square;stroke-width:1.5;"/>
    </g>
    <g id="line2d_30"/>
    <g id="text_21">
     <!-- CKC #4 -->
     <g transform="translate(347.240729 27.963281)scale(0.15 -0.15)">
      <use xlink:href="#DejaVuSans-67"/>
      <use x="69.824219" xlink:href="#DejaVuSans-75"/>
      <use x="135.322266" xlink:href="#DejaVuSans-67"/>
      <use x="205.146484" xlink:href="#DejaVuSans-32"/>
      <use x="236.933594" xlink:href="#DejaVuSans-35"/>
      <use x="320.722656" xlink:href="#DejaVuSans-52"/>
     </g>
    </g>
    <g id="line2d_31">
     <path d="M 416.046094 22.713281 
L 446.046094 22.713281 
" style="fill:none;stroke:#8c564b;stroke-linecap:square;stroke-width:1.5;"/>
    </g>
    <g id="line2d_32"/>
    <g id="text_22">
     <!-- CKC #5 -->
     <g transform="translate(458.046094 27.963281)scale(0.15 -0.15)">
      <use xlink:href="#DejaVuSans-67"/>
      <use x="69.824219" xlink:href="#DejaVuSans-75"/>
      <use x="135.322266" xlink:href="#DejaVuSans-67"/>
      <use x="205.146484" xlink:href="#DejaVuSans-32"/>
      <use x="236.933594" xlink:href="#DejaVuSans-35"/>
      <use x="320.722656" xlink:href="#DejaVuSans-53"/>
     </g>
    </g>
   </g>
  </g>
 </g>
 <defs>
  <clipPath id="p0d659789b3">
   <rect height="298.96" width="459.07" x="70.13" y="66.6"/>
  </clipPath>
 </defs>
</svg>
