<?xml version="1.0" encoding="utf-8" standalone="no"?>
<!DOCTYPE svg PUBLIC "-//W3C//DTD SVG 1.1//EN"
  "http://www.w3.org/Graphics/SVG/1.1/DTD/svg11.dtd">
<!-- Created with matplotlib (https://matplotlib.org/) -->
<svg height="432pt" version="1.1" viewBox="0 0 540 432" width="540pt" xmlns="http://www.w3.org/2000/svg" xmlns:xlink="http://www.w3.org/1999/xlink">
 <defs>
  <style type="text/css">
*{stroke-linecap:butt;stroke-linejoin:round;}
  </style>
 </defs>
 <g id="figure_1">
  <g id="patch_1">
   <path d="M 0 432 
L 540 432 
L 540 0 
L 0 0 
z
" style="fill:#ffffff;"/>
  </g>
  <g id="axes_1">
   <g id="patch_2">
    <path d="M 70.13 365.56 
L 529.2 365.56 
L 529.2 66.6 
L 70.13 66.6 
z
" style="fill:#ffffff;"/>
   </g>
   <g id="matplotlib.axis_1">
    <g id="xtick_1">
     <g id="line2d_1">
      <defs>
       <path d="M 0 0 
L 0 3.5 
" id="m8406385ff1" style="stroke:#000000;stroke-width:0.8;"/>
      </defs>
      <g>
       <use style="stroke:#000000;stroke-width:0.8;" x="90.996818" xlink:href="#m8406385ff1" y="365.56"/>
      </g>
     </g>
     <g id="text_1">
      <!-- 0 -->
      <defs>
       <path d="M 31.78125 66.40625 
Q 24.171875 66.40625 20.328125 58.90625 
Q 16.5 51.421875 16.5 36.375 
Q 16.5 21.390625 20.328125 13.890625 
Q 24.171875 6.390625 31.78125 6.390625 
Q 39.453125 6.390625 43.28125 13.890625 
Q 47.125 21.390625 47.125 36.375 
Q 47.125 51.421875 43.28125 58.90625 
Q 39.453125 66.40625 31.78125 66.40625 
z
M 31.78125 74.21875 
Q 44.046875 74.21875 50.515625 64.515625 
Q 56.984375 54.828125 56.984375 36.375 
Q 56.984375 17.96875 50.515625 8.265625 
Q 44.046875 -1.421875 31.78125 -1.421875 
Q 19.53125 -1.421875 13.0625 8.265625 
Q 6.59375 17.96875 6.59375 36.375 
Q 6.59375 54.828125 13.0625 64.515625 
Q 19.53125 74.21875 31.78125 74.21875 
z
" id="DejaVuSans-48"/>
      </defs>
      <g transform="translate(84.634318 387.756875)scale(0.2 -0.2)">
       <use xlink:href="#DejaVuSans-48"/>
      </g>
     </g>
    </g>
    <g id="xtick_2">
     <g id="line2d_2">
      <g>
       <use style="stroke:#000000;stroke-width:0.8;" x="142.519826" xlink:href="#m8406385ff1" y="365.56"/>
      </g>
     </g>
     <g id="text_2">
      <!-- 10 -->
      <defs>
       <path d="M 12.40625 8.296875 
L 28.515625 8.296875 
L 28.515625 63.921875 
L 10.984375 60.40625 
L 10.984375 69.390625 
L 28.421875 72.90625 
L 38.28125 72.90625 
L 38.28125 8.296875 
L 54.390625 8.296875 
L 54.390625 0 
L 12.40625 0 
z
" id="DejaVuSans-49"/>
      </defs>
      <g transform="translate(129.794826 387.756875)scale(0.2 -0.2)">
       <use xlink:href="#DejaVuSans-49"/>
       <use x="63.623047" xlink:href="#DejaVuSans-48"/>
      </g>
     </g>
    </g>
    <g id="xtick_3">
     <g id="line2d_3">
      <g>
       <use style="stroke:#000000;stroke-width:0.8;" x="194.042834" xlink:href="#m8406385ff1" y="365.56"/>
      </g>
     </g>
     <g id="text_3">
      <!-- 20 -->
      <defs>
       <path d="M 19.1875 8.296875 
L 53.609375 8.296875 
L 53.609375 0 
L 7.328125 0 
L 7.328125 8.296875 
Q 12.9375 14.109375 22.625 23.890625 
Q 32.328125 33.6875 34.8125 36.53125 
Q 39.546875 41.84375 41.421875 45.53125 
Q 43.3125 49.21875 43.3125 52.78125 
Q 43.3125 58.59375 39.234375 62.25 
Q 35.15625 65.921875 28.609375 65.921875 
Q 23.96875 65.921875 18.8125 64.3125 
Q 13.671875 62.703125 7.8125 59.421875 
L 7.8125 69.390625 
Q 13.765625 71.78125 18.9375 73 
Q 24.125 74.21875 28.421875 74.21875 
Q 39.75 74.21875 46.484375 68.546875 
Q 53.21875 62.890625 53.21875 53.421875 
Q 53.21875 48.921875 51.53125 44.890625 
Q 49.859375 40.875 45.40625 35.40625 
Q 44.1875 33.984375 37.640625 27.21875 
Q 31.109375 20.453125 19.1875 8.296875 
z
" id="DejaVuSans-50"/>
      </defs>
      <g transform="translate(181.317834 387.756875)scale(0.2 -0.2)">
       <use xlink:href="#DejaVuSans-50"/>
       <use x="63.623047" xlink:href="#DejaVuSans-48"/>
      </g>
     </g>
    </g>
    <g id="xtick_4">
     <g id="line2d_4">
      <g>
       <use style="stroke:#000000;stroke-width:0.8;" x="245.565842" xlink:href="#m8406385ff1" y="365.56"/>
      </g>
     </g>
     <g id="text_4">
      <!-- 30 -->
      <defs>
       <path d="M 40.578125 39.3125 
Q 47.65625 37.796875 51.625 33 
Q 55.609375 28.21875 55.609375 21.1875 
Q 55.609375 10.40625 48.1875 4.484375 
Q 40.765625 -1.421875 27.09375 -1.421875 
Q 22.515625 -1.421875 17.65625 -0.515625 
Q 12.796875 0.390625 7.625 2.203125 
L 7.625 11.71875 
Q 11.71875 9.328125 16.59375 8.109375 
Q 21.484375 6.890625 26.8125 6.890625 
Q 36.078125 6.890625 40.9375 10.546875 
Q 45.796875 14.203125 45.796875 21.1875 
Q 45.796875 27.640625 41.28125 31.265625 
Q 36.765625 34.90625 28.71875 34.90625 
L 20.21875 34.90625 
L 20.21875 43.015625 
L 29.109375 43.015625 
Q 36.375 43.015625 40.234375 45.921875 
Q 44.09375 48.828125 44.09375 54.296875 
Q 44.09375 59.90625 40.109375 62.90625 
Q 36.140625 65.921875 28.71875 65.921875 
Q 24.65625 65.921875 20.015625 65.03125 
Q 15.375 64.15625 9.8125 62.3125 
L 9.8125 71.09375 
Q 15.4375 72.65625 20.34375 73.4375 
Q 25.25 74.21875 29.59375 74.21875 
Q 40.828125 74.21875 47.359375 69.109375 
Q 53.90625 64.015625 53.90625 55.328125 
Q 53.90625 49.265625 50.4375 45.09375 
Q 46.96875 40.921875 40.578125 39.3125 
z
" id="DejaVuSans-51"/>
      </defs>
      <g transform="translate(232.840842 387.756875)scale(0.2 -0.2)">
       <use xlink:href="#DejaVuSans-51"/>
       <use x="63.623047" xlink:href="#DejaVuSans-48"/>
      </g>
     </g>
    </g>
    <g id="xtick_5">
     <g id="line2d_5">
      <g>
       <use style="stroke:#000000;stroke-width:0.8;" x="297.08885" xlink:href="#m8406385ff1" y="365.56"/>
      </g>
     </g>
     <g id="text_5">
      <!-- 40 -->
      <defs>
       <path d="M 37.796875 64.3125 
L 12.890625 25.390625 
L 37.796875 25.390625 
z
M 35.203125 72.90625 
L 47.609375 72.90625 
L 47.609375 25.390625 
L 58.015625 25.390625 
L 58.015625 17.1875 
L 47.609375 17.1875 
L 47.609375 0 
L 37.796875 0 
L 37.796875 17.1875 
L 4.890625 17.1875 
L 4.890625 26.703125 
z
" id="DejaVuSans-52"/>
      </defs>
      <g transform="translate(284.36385 387.756875)scale(0.2 -0.2)">
       <use xlink:href="#DejaVuSans-52"/>
       <use x="63.623047" xlink:href="#DejaVuSans-48"/>
      </g>
     </g>
    </g>
    <g id="xtick_6">
     <g id="line2d_6">
      <g>
       <use style="stroke:#000000;stroke-width:0.8;" x="348.611857" xlink:href="#m8406385ff1" y="365.56"/>
      </g>
     </g>
     <g id="text_6">
      <!-- 50 -->
      <defs>
       <path d="M 10.796875 72.90625 
L 49.515625 72.90625 
L 49.515625 64.59375 
L 19.828125 64.59375 
L 19.828125 46.734375 
Q 21.96875 47.46875 24.109375 47.828125 
Q 26.265625 48.1875 28.421875 48.1875 
Q 40.625 48.1875 47.75 41.5 
Q 54.890625 34.8125 54.890625 23.390625 
Q 54.890625 11.625 47.5625 5.09375 
Q 40.234375 -1.421875 26.90625 -1.421875 
Q 22.3125 -1.421875 17.546875 -0.640625 
Q 12.796875 0.140625 7.71875 1.703125 
L 7.71875 11.625 
Q 12.109375 9.234375 16.796875 8.0625 
Q 21.484375 6.890625 26.703125 6.890625 
Q 35.15625 6.890625 40.078125 11.328125 
Q 45.015625 15.765625 45.015625 23.390625 
Q 45.015625 31 40.078125 35.4375 
Q 35.15625 39.890625 26.703125 39.890625 
Q 22.75 39.890625 18.8125 39.015625 
Q 14.890625 38.140625 10.796875 36.28125 
z
" id="DejaVuSans-53"/>
      </defs>
      <g transform="translate(335.886857 387.756875)scale(0.2 -0.2)">
       <use xlink:href="#DejaVuSans-53"/>
       <use x="63.623047" xlink:href="#DejaVuSans-48"/>
      </g>
     </g>
    </g>
    <g id="xtick_7">
     <g id="line2d_7">
      <g>
       <use style="stroke:#000000;stroke-width:0.8;" x="400.134865" xlink:href="#m8406385ff1" y="365.56"/>
      </g>
     </g>
     <g id="text_7">
      <!-- 60 -->
      <defs>
       <path d="M 33.015625 40.375 
Q 26.375 40.375 22.484375 35.828125 
Q 18.609375 31.296875 18.609375 23.390625 
Q 18.609375 15.53125 22.484375 10.953125 
Q 26.375 6.390625 33.015625 6.390625 
Q 39.65625 6.390625 43.53125 10.953125 
Q 47.40625 15.53125 47.40625 23.390625 
Q 47.40625 31.296875 43.53125 35.828125 
Q 39.65625 40.375 33.015625 40.375 
z
M 52.59375 71.296875 
L 52.59375 62.3125 
Q 48.875 64.0625 45.09375 64.984375 
Q 41.3125 65.921875 37.59375 65.921875 
Q 27.828125 65.921875 22.671875 59.328125 
Q 17.53125 52.734375 16.796875 39.40625 
Q 19.671875 43.65625 24.015625 45.921875 
Q 28.375 48.1875 33.59375 48.1875 
Q 44.578125 48.1875 50.953125 41.515625 
Q 57.328125 34.859375 57.328125 23.390625 
Q 57.328125 12.15625 50.6875 5.359375 
Q 44.046875 -1.421875 33.015625 -1.421875 
Q 20.359375 -1.421875 13.671875 8.265625 
Q 6.984375 17.96875 6.984375 36.375 
Q 6.984375 53.65625 15.1875 63.9375 
Q 23.390625 74.21875 37.203125 74.21875 
Q 40.921875 74.21875 44.703125 73.484375 
Q 48.484375 72.75 52.59375 71.296875 
z
" id="DejaVuSans-54"/>
      </defs>
      <g transform="translate(387.409865 387.756875)scale(0.2 -0.2)">
       <use xlink:href="#DejaVuSans-54"/>
       <use x="63.623047" xlink:href="#DejaVuSans-48"/>
      </g>
     </g>
    </g>
    <g id="xtick_8">
     <g id="line2d_8">
      <g>
       <use style="stroke:#000000;stroke-width:0.8;" x="451.657873" xlink:href="#m8406385ff1" y="365.56"/>
      </g>
     </g>
     <g id="text_8">
      <!-- 70 -->
      <defs>
       <path d="M 8.203125 72.90625 
L 55.078125 72.90625 
L 55.078125 68.703125 
L 28.609375 0 
L 18.3125 0 
L 43.21875 64.59375 
L 8.203125 64.59375 
z
" id="DejaVuSans-55"/>
      </defs>
      <g transform="translate(438.932873 387.756875)scale(0.2 -0.2)">
       <use xlink:href="#DejaVuSans-55"/>
       <use x="63.623047" xlink:href="#DejaVuSans-48"/>
      </g>
     </g>
    </g>
    <g id="xtick_9">
     <g id="line2d_9">
      <g>
       <use style="stroke:#000000;stroke-width:0.8;" x="503.180881" xlink:href="#m8406385ff1" y="365.56"/>
      </g>
     </g>
     <g id="text_9">
      <!-- 80 -->
      <defs>
       <path d="M 31.78125 34.625 
Q 24.75 34.625 20.71875 30.859375 
Q 16.703125 27.09375 16.703125 20.515625 
Q 16.703125 13.921875 20.71875 10.15625 
Q 24.75 6.390625 31.78125 6.390625 
Q 38.8125 6.390625 42.859375 10.171875 
Q 46.921875 13.96875 46.921875 20.515625 
Q 46.921875 27.09375 42.890625 30.859375 
Q 38.875 34.625 31.78125 34.625 
z
M 21.921875 38.8125 
Q 15.578125 40.375 12.03125 44.71875 
Q 8.5 49.078125 8.5 55.328125 
Q 8.5 64.0625 14.71875 69.140625 
Q 20.953125 74.21875 31.78125 74.21875 
Q 42.671875 74.21875 48.875 69.140625 
Q 55.078125 64.0625 55.078125 55.328125 
Q 55.078125 49.078125 51.53125 44.71875 
Q 48 40.375 41.703125 38.8125 
Q 48.828125 37.15625 52.796875 32.3125 
Q 56.78125 27.484375 56.78125 20.515625 
Q 56.78125 9.90625 50.3125 4.234375 
Q 43.84375 -1.421875 31.78125 -1.421875 
Q 19.734375 -1.421875 13.25 4.234375 
Q 6.78125 9.90625 6.78125 20.515625 
Q 6.78125 27.484375 10.78125 32.3125 
Q 14.796875 37.15625 21.921875 38.8125 
z
M 18.3125 54.390625 
Q 18.3125 48.734375 21.84375 45.5625 
Q 25.390625 42.390625 31.78125 42.390625 
Q 38.140625 42.390625 41.71875 45.5625 
Q 45.3125 48.734375 45.3125 54.390625 
Q 45.3125 60.0625 41.71875 63.234375 
Q 38.140625 66.40625 31.78125 66.40625 
Q 25.390625 66.40625 21.84375 63.234375 
Q 18.3125 60.0625 18.3125 54.390625 
z
" id="DejaVuSans-56"/>
      </defs>
      <g transform="translate(490.455881 387.756875)scale(0.2 -0.2)">
       <use xlink:href="#DejaVuSans-56"/>
       <use x="63.623047" xlink:href="#DejaVuSans-48"/>
      </g>
     </g>
    </g>
    <g id="text_10">
     <!-- number of games (DD-ML-PI) -->
     <defs>
      <path d="M 54.890625 33.015625 
L 54.890625 0 
L 45.90625 0 
L 45.90625 32.71875 
Q 45.90625 40.484375 42.875 44.328125 
Q 39.84375 48.1875 33.796875 48.1875 
Q 26.515625 48.1875 22.3125 43.546875 
Q 18.109375 38.921875 18.109375 30.90625 
L 18.109375 0 
L 9.078125 0 
L 9.078125 54.6875 
L 18.109375 54.6875 
L 18.109375 46.1875 
Q 21.34375 51.125 25.703125 53.5625 
Q 30.078125 56 35.796875 56 
Q 45.21875 56 50.046875 50.171875 
Q 54.890625 44.34375 54.890625 33.015625 
z
" id="DejaVuSans-110"/>
      <path d="M 8.5 21.578125 
L 8.5 54.6875 
L 17.484375 54.6875 
L 17.484375 21.921875 
Q 17.484375 14.15625 20.5 10.265625 
Q 23.53125 6.390625 29.59375 6.390625 
Q 36.859375 6.390625 41.078125 11.03125 
Q 45.3125 15.671875 45.3125 23.6875 
L 45.3125 54.6875 
L 54.296875 54.6875 
L 54.296875 0 
L 45.3125 0 
L 45.3125 8.40625 
Q 42.046875 3.421875 37.71875 1 
Q 33.40625 -1.421875 27.6875 -1.421875 
Q 18.265625 -1.421875 13.375 4.4375 
Q 8.5 10.296875 8.5 21.578125 
z
M 31.109375 56 
z
" id="DejaVuSans-117"/>
      <path d="M 52 44.1875 
Q 55.375 50.25 60.0625 53.125 
Q 64.75 56 71.09375 56 
Q 79.640625 56 84.28125 50.015625 
Q 88.921875 44.046875 88.921875 33.015625 
L 88.921875 0 
L 79.890625 0 
L 79.890625 32.71875 
Q 79.890625 40.578125 77.09375 44.375 
Q 74.3125 48.1875 68.609375 48.1875 
Q 61.625 48.1875 57.5625 43.546875 
Q 53.515625 38.921875 53.515625 30.90625 
L 53.515625 0 
L 44.484375 0 
L 44.484375 32.71875 
Q 44.484375 40.625 41.703125 44.40625 
Q 38.921875 48.1875 33.109375 48.1875 
Q 26.21875 48.1875 22.15625 43.53125 
Q 18.109375 38.875 18.109375 30.90625 
L 18.109375 0 
L 9.078125 0 
L 9.078125 54.6875 
L 18.109375 54.6875 
L 18.109375 46.1875 
Q 21.1875 51.21875 25.484375 53.609375 
Q 29.78125 56 35.6875 56 
Q 41.65625 56 45.828125 52.96875 
Q 50 49.953125 52 44.1875 
z
" id="DejaVuSans-109"/>
      <path d="M 48.6875 27.296875 
Q 48.6875 37.203125 44.609375 42.84375 
Q 40.53125 48.484375 33.40625 48.484375 
Q 26.265625 48.484375 22.1875 42.84375 
Q 18.109375 37.203125 18.109375 27.296875 
Q 18.109375 17.390625 22.1875 11.75 
Q 26.265625 6.109375 33.40625 6.109375 
Q 40.53125 6.109375 44.609375 11.75 
Q 48.6875 17.390625 48.6875 27.296875 
z
M 18.109375 46.390625 
Q 20.953125 51.265625 25.265625 53.625 
Q 29.59375 56 35.59375 56 
Q 45.5625 56 51.78125 48.09375 
Q 58.015625 40.1875 58.015625 27.296875 
Q 58.015625 14.40625 51.78125 6.484375 
Q 45.5625 -1.421875 35.59375 -1.421875 
Q 29.59375 -1.421875 25.265625 0.953125 
Q 20.953125 3.328125 18.109375 8.203125 
L 18.109375 0 
L 9.078125 0 
L 9.078125 75.984375 
L 18.109375 75.984375 
z
" id="DejaVuSans-98"/>
      <path d="M 56.203125 29.59375 
L 56.203125 25.203125 
L 14.890625 25.203125 
Q 15.484375 15.921875 20.484375 11.0625 
Q 25.484375 6.203125 34.421875 6.203125 
Q 39.59375 6.203125 44.453125 7.46875 
Q 49.3125 8.734375 54.109375 11.28125 
L 54.109375 2.78125 
Q 49.265625 0.734375 44.1875 -0.34375 
Q 39.109375 -1.421875 33.890625 -1.421875 
Q 20.796875 -1.421875 13.15625 6.1875 
Q 5.515625 13.8125 5.515625 26.8125 
Q 5.515625 40.234375 12.765625 48.109375 
Q 20.015625 56 32.328125 56 
Q 43.359375 56 49.78125 48.890625 
Q 56.203125 41.796875 56.203125 29.59375 
z
M 47.21875 32.234375 
Q 47.125 39.59375 43.09375 43.984375 
Q 39.0625 48.390625 32.421875 48.390625 
Q 24.90625 48.390625 20.390625 44.140625 
Q 15.875 39.890625 15.1875 32.171875 
z
" id="DejaVuSans-101"/>
      <path d="M 41.109375 46.296875 
Q 39.59375 47.171875 37.8125 47.578125 
Q 36.03125 48 33.890625 48 
Q 26.265625 48 22.1875 43.046875 
Q 18.109375 38.09375 18.109375 28.8125 
L 18.109375 0 
L 9.078125 0 
L 9.078125 54.6875 
L 18.109375 54.6875 
L 18.109375 46.1875 
Q 20.953125 51.171875 25.484375 53.578125 
Q 30.03125 56 36.53125 56 
Q 37.453125 56 38.578125 55.875 
Q 39.703125 55.765625 41.0625 55.515625 
z
" id="DejaVuSans-114"/>
      <path id="DejaVuSans-32"/>
      <path d="M 30.609375 48.390625 
Q 23.390625 48.390625 19.1875 42.75 
Q 14.984375 37.109375 14.984375 27.296875 
Q 14.984375 17.484375 19.15625 11.84375 
Q 23.34375 6.203125 30.609375 6.203125 
Q 37.796875 6.203125 41.984375 11.859375 
Q 46.1875 17.53125 46.1875 27.296875 
Q 46.1875 37.015625 41.984375 42.703125 
Q 37.796875 48.390625 30.609375 48.390625 
z
M 30.609375 56 
Q 42.328125 56 49.015625 48.375 
Q 55.71875 40.765625 55.71875 27.296875 
Q 55.71875 13.875 49.015625 6.21875 
Q 42.328125 -1.421875 30.609375 -1.421875 
Q 18.84375 -1.421875 12.171875 6.21875 
Q 5.515625 13.875 5.515625 27.296875 
Q 5.515625 40.765625 12.171875 48.375 
Q 18.84375 56 30.609375 56 
z
" id="DejaVuSans-111"/>
      <path d="M 37.109375 75.984375 
L 37.109375 68.5 
L 28.515625 68.5 
Q 23.6875 68.5 21.796875 66.546875 
Q 19.921875 64.59375 19.921875 59.515625 
L 19.921875 54.6875 
L 34.71875 54.6875 
L 34.71875 47.703125 
L 19.921875 47.703125 
L 19.921875 0 
L 10.890625 0 
L 10.890625 47.703125 
L 2.296875 47.703125 
L 2.296875 54.6875 
L 10.890625 54.6875 
L 10.890625 58.5 
Q 10.890625 67.625 15.140625 71.796875 
Q 19.390625 75.984375 28.609375 75.984375 
z
" id="DejaVuSans-102"/>
      <path d="M 45.40625 27.984375 
Q 45.40625 37.75 41.375 43.109375 
Q 37.359375 48.484375 30.078125 48.484375 
Q 22.859375 48.484375 18.828125 43.109375 
Q 14.796875 37.75 14.796875 27.984375 
Q 14.796875 18.265625 18.828125 12.890625 
Q 22.859375 7.515625 30.078125 7.515625 
Q 37.359375 7.515625 41.375 12.890625 
Q 45.40625 18.265625 45.40625 27.984375 
z
M 54.390625 6.78125 
Q 54.390625 -7.171875 48.1875 -13.984375 
Q 42 -20.796875 29.203125 -20.796875 
Q 24.46875 -20.796875 20.265625 -20.09375 
Q 16.0625 -19.390625 12.109375 -17.921875 
L 12.109375 -9.1875 
Q 16.0625 -11.328125 19.921875 -12.34375 
Q 23.78125 -13.375 27.78125 -13.375 
Q 36.625 -13.375 41.015625 -8.765625 
Q 45.40625 -4.15625 45.40625 5.171875 
L 45.40625 9.625 
Q 42.625 4.78125 38.28125 2.390625 
Q 33.9375 0 27.875 0 
Q 17.828125 0 11.671875 7.65625 
Q 5.515625 15.328125 5.515625 27.984375 
Q 5.515625 40.671875 11.671875 48.328125 
Q 17.828125 56 27.875 56 
Q 33.9375 56 38.28125 53.609375 
Q 42.625 51.21875 45.40625 46.390625 
L 45.40625 54.6875 
L 54.390625 54.6875 
z
" id="DejaVuSans-103"/>
      <path d="M 34.28125 27.484375 
Q 23.390625 27.484375 19.1875 25 
Q 14.984375 22.515625 14.984375 16.5 
Q 14.984375 11.71875 18.140625 8.90625 
Q 21.296875 6.109375 26.703125 6.109375 
Q 34.1875 6.109375 38.703125 11.40625 
Q 43.21875 16.703125 43.21875 25.484375 
L 43.21875 27.484375 
z
M 52.203125 31.203125 
L 52.203125 0 
L 43.21875 0 
L 43.21875 8.296875 
Q 40.140625 3.328125 35.546875 0.953125 
Q 30.953125 -1.421875 24.3125 -1.421875 
Q 15.921875 -1.421875 10.953125 3.296875 
Q 6 8.015625 6 15.921875 
Q 6 25.140625 12.171875 29.828125 
Q 18.359375 34.515625 30.609375 34.515625 
L 43.21875 34.515625 
L 43.21875 35.40625 
Q 43.21875 41.609375 39.140625 45 
Q 35.0625 48.390625 27.6875 48.390625 
Q 23 48.390625 18.546875 47.265625 
Q 14.109375 46.140625 10.015625 43.890625 
L 10.015625 52.203125 
Q 14.9375 54.109375 19.578125 55.046875 
Q 24.21875 56 28.609375 56 
Q 40.484375 56 46.34375 49.84375 
Q 52.203125 43.703125 52.203125 31.203125 
z
" id="DejaVuSans-97"/>
      <path d="M 44.28125 53.078125 
L 44.28125 44.578125 
Q 40.484375 46.53125 36.375 47.5 
Q 32.28125 48.484375 27.875 48.484375 
Q 21.1875 48.484375 17.84375 46.4375 
Q 14.5 44.390625 14.5 40.28125 
Q 14.5 37.15625 16.890625 35.375 
Q 19.28125 33.59375 26.515625 31.984375 
L 29.59375 31.296875 
Q 39.15625 29.25 43.1875 25.515625 
Q 47.21875 21.78125 47.21875 15.09375 
Q 47.21875 7.46875 41.1875 3.015625 
Q 35.15625 -1.421875 24.609375 -1.421875 
Q 20.21875 -1.421875 15.453125 -0.5625 
Q 10.6875 0.296875 5.421875 2 
L 5.421875 11.28125 
Q 10.40625 8.6875 15.234375 7.390625 
Q 20.0625 6.109375 24.8125 6.109375 
Q 31.15625 6.109375 34.5625 8.28125 
Q 37.984375 10.453125 37.984375 14.40625 
Q 37.984375 18.0625 35.515625 20.015625 
Q 33.0625 21.96875 24.703125 23.78125 
L 21.578125 24.515625 
Q 13.234375 26.265625 9.515625 29.90625 
Q 5.8125 33.546875 5.8125 39.890625 
Q 5.8125 47.609375 11.28125 51.796875 
Q 16.75 56 26.8125 56 
Q 31.78125 56 36.171875 55.265625 
Q 40.578125 54.546875 44.28125 53.078125 
z
" id="DejaVuSans-115"/>
      <path d="M 31 75.875 
Q 24.46875 64.65625 21.28125 53.65625 
Q 18.109375 42.671875 18.109375 31.390625 
Q 18.109375 20.125 21.3125 9.0625 
Q 24.515625 -2 31 -13.1875 
L 23.1875 -13.1875 
Q 15.875 -1.703125 12.234375 9.375 
Q 8.59375 20.453125 8.59375 31.390625 
Q 8.59375 42.28125 12.203125 53.3125 
Q 15.828125 64.359375 23.1875 75.875 
z
" id="DejaVuSans-40"/>
      <path d="M 19.671875 64.796875 
L 19.671875 8.109375 
L 31.59375 8.109375 
Q 46.6875 8.109375 53.6875 14.9375 
Q 60.6875 21.78125 60.6875 36.53125 
Q 60.6875 51.171875 53.6875 57.984375 
Q 46.6875 64.796875 31.59375 64.796875 
z
M 9.8125 72.90625 
L 30.078125 72.90625 
Q 51.265625 72.90625 61.171875 64.09375 
Q 71.09375 55.28125 71.09375 36.53125 
Q 71.09375 17.671875 61.125 8.828125 
Q 51.171875 0 30.078125 0 
L 9.8125 0 
z
" id="DejaVuSans-68"/>
      <path d="M 4.890625 31.390625 
L 31.203125 31.390625 
L 31.203125 23.390625 
L 4.890625 23.390625 
z
" id="DejaVuSans-45"/>
      <path d="M 9.8125 72.90625 
L 24.515625 72.90625 
L 43.109375 23.296875 
L 61.8125 72.90625 
L 76.515625 72.90625 
L 76.515625 0 
L 66.890625 0 
L 66.890625 64.015625 
L 48.09375 14.015625 
L 38.1875 14.015625 
L 19.390625 64.015625 
L 19.390625 0 
L 9.8125 0 
z
" id="DejaVuSans-77"/>
      <path d="M 9.8125 72.90625 
L 19.671875 72.90625 
L 19.671875 8.296875 
L 55.171875 8.296875 
L 55.171875 0 
L 9.8125 0 
z
" id="DejaVuSans-76"/>
      <path d="M 19.671875 64.796875 
L 19.671875 37.40625 
L 32.078125 37.40625 
Q 38.96875 37.40625 42.71875 40.96875 
Q 46.484375 44.53125 46.484375 51.125 
Q 46.484375 57.671875 42.71875 61.234375 
Q 38.96875 64.796875 32.078125 64.796875 
z
M 9.8125 72.90625 
L 32.078125 72.90625 
Q 44.34375 72.90625 50.609375 67.359375 
Q 56.890625 61.8125 56.890625 51.125 
Q 56.890625 40.328125 50.609375 34.8125 
Q 44.34375 29.296875 32.078125 29.296875 
L 19.671875 29.296875 
L 19.671875 0 
L 9.8125 0 
z
" id="DejaVuSans-80"/>
      <path d="M 9.8125 72.90625 
L 19.671875 72.90625 
L 19.671875 0 
L 9.8125 0 
z
" id="DejaVuSans-73"/>
      <path d="M 8.015625 75.875 
L 15.828125 75.875 
Q 23.140625 64.359375 26.78125 53.3125 
Q 30.421875 42.28125 30.421875 31.390625 
Q 30.421875 20.453125 26.78125 9.375 
Q 23.140625 -1.703125 15.828125 -13.1875 
L 8.015625 -13.1875 
Q 14.5 -2 17.703125 9.0625 
Q 20.90625 20.125 20.90625 31.390625 
Q 20.90625 42.671875 17.703125 53.65625 
Q 14.5 64.65625 8.015625 75.875 
z
" id="DejaVuSans-41"/>
     </defs>
     <g transform="translate(117.942344 414.912344)scale(0.25 -0.25)">
      <use xlink:href="#DejaVuSans-110"/>
      <use x="63.378906" xlink:href="#DejaVuSans-117"/>
      <use x="126.757812" xlink:href="#DejaVuSans-109"/>
      <use x="224.169922" xlink:href="#DejaVuSans-98"/>
      <use x="287.646484" xlink:href="#DejaVuSans-101"/>
      <use x="349.169922" xlink:href="#DejaVuSans-114"/>
      <use x="390.283203" xlink:href="#DejaVuSans-32"/>
      <use x="422.070312" xlink:href="#DejaVuSans-111"/>
      <use x="483.251953" xlink:href="#DejaVuSans-102"/>
      <use x="518.457031" xlink:href="#DejaVuSans-32"/>
      <use x="550.244141" xlink:href="#DejaVuSans-103"/>
      <use x="613.720703" xlink:href="#DejaVuSans-97"/>
      <use x="675" xlink:href="#DejaVuSans-109"/>
      <use x="772.412109" xlink:href="#DejaVuSans-101"/>
      <use x="833.935547" xlink:href="#DejaVuSans-115"/>
      <use x="886.035156" xlink:href="#DejaVuSans-32"/>
      <use x="917.822266" xlink:href="#DejaVuSans-40"/>
      <use x="956.835938" xlink:href="#DejaVuSans-68"/>
      <use x="1033.837891" xlink:href="#DejaVuSans-68"/>
      <use x="1110.839844" xlink:href="#DejaVuSans-45"/>
      <use x="1146.923828" xlink:href="#DejaVuSans-77"/>
      <use x="1233.203125" xlink:href="#DejaVuSans-76"/>
      <use x="1288.900391" xlink:href="#DejaVuSans-45"/>
      <use x="1324.984375" xlink:href="#DejaVuSans-80"/>
      <use x="1385.287109" xlink:href="#DejaVuSans-73"/>
      <use x="1414.779297" xlink:href="#DejaVuSans-41"/>
     </g>
    </g>
   </g>
   <g id="matplotlib.axis_2">
    <g id="ytick_1">
     <g id="line2d_10">
      <defs>
       <path d="M 0 0 
L -3.5 0 
" id="m3756f1583f" style="stroke:#000000;stroke-width:0.8;"/>
      </defs>
      <g>
       <use style="stroke:#000000;stroke-width:0.8;" x="70.13" xlink:href="#m3756f1583f" y="351.970909"/>
      </g>
     </g>
     <g id="text_11">
      <!-- 0.0 -->
      <defs>
       <path d="M 10.6875 12.40625 
L 21 12.40625 
L 21 0 
L 10.6875 0 
z
" id="DejaVuSans-46"/>
      </defs>
      <g transform="translate(31.32375 359.569347)scale(0.2 -0.2)">
       <use xlink:href="#DejaVuSans-48"/>
       <use x="63.623047" xlink:href="#DejaVuSans-46"/>
       <use x="95.410156" xlink:href="#DejaVuSans-48"/>
      </g>
     </g>
    </g>
    <g id="ytick_2">
     <g id="line2d_11">
      <g>
       <use style="stroke:#000000;stroke-width:0.8;" x="70.13" xlink:href="#m3756f1583f" y="297.614545"/>
      </g>
     </g>
     <g id="text_12">
      <!-- 0.2 -->
      <g transform="translate(31.32375 305.212983)scale(0.2 -0.2)">
       <use xlink:href="#DejaVuSans-48"/>
       <use x="63.623047" xlink:href="#DejaVuSans-46"/>
       <use x="95.410156" xlink:href="#DejaVuSans-50"/>
      </g>
     </g>
    </g>
    <g id="ytick_3">
     <g id="line2d_12">
      <g>
       <use style="stroke:#000000;stroke-width:0.8;" x="70.13" xlink:href="#m3756f1583f" y="243.258182"/>
      </g>
     </g>
     <g id="text_13">
      <!-- 0.4 -->
      <g transform="translate(31.32375 250.856619)scale(0.2 -0.2)">
       <use xlink:href="#DejaVuSans-48"/>
       <use x="63.623047" xlink:href="#DejaVuSans-46"/>
       <use x="95.410156" xlink:href="#DejaVuSans-52"/>
      </g>
     </g>
    </g>
    <g id="ytick_4">
     <g id="line2d_13">
      <g>
       <use style="stroke:#000000;stroke-width:0.8;" x="70.13" xlink:href="#m3756f1583f" y="188.901818"/>
      </g>
     </g>
     <g id="text_14">
      <!-- 0.6 -->
      <g transform="translate(31.32375 196.500256)scale(0.2 -0.2)">
       <use xlink:href="#DejaVuSans-48"/>
       <use x="63.623047" xlink:href="#DejaVuSans-46"/>
       <use x="95.410156" xlink:href="#DejaVuSans-54"/>
      </g>
     </g>
    </g>
    <g id="ytick_5">
     <g id="line2d_14">
      <g>
       <use style="stroke:#000000;stroke-width:0.8;" x="70.13" xlink:href="#m3756f1583f" y="134.545455"/>
      </g>
     </g>
     <g id="text_15">
      <!-- 0.8 -->
      <g transform="translate(31.32375 142.143892)scale(0.2 -0.2)">
       <use xlink:href="#DejaVuSans-48"/>
       <use x="63.623047" xlink:href="#DejaVuSans-46"/>
       <use x="95.410156" xlink:href="#DejaVuSans-56"/>
      </g>
     </g>
    </g>
    <g id="ytick_6">
     <g id="line2d_15">
      <g>
       <use style="stroke:#000000;stroke-width:0.8;" x="70.13" xlink:href="#m3756f1583f" y="80.189091"/>
      </g>
     </g>
     <g id="text_16">
      <!-- 1.0 -->
      <g transform="translate(31.32375 87.787528)scale(0.2 -0.2)">
       <use xlink:href="#DejaVuSans-49"/>
       <use x="63.623047" xlink:href="#DejaVuSans-46"/>
       <use x="95.410156" xlink:href="#DejaVuSans-48"/>
      </g>
     </g>
    </g>
    <g id="text_17">
     <!-- Percentage of Def strategy used -->
     <defs>
      <path d="M 48.78125 52.59375 
L 48.78125 44.1875 
Q 44.96875 46.296875 41.140625 47.34375 
Q 37.3125 48.390625 33.40625 48.390625 
Q 24.65625 48.390625 19.8125 42.84375 
Q 14.984375 37.3125 14.984375 27.296875 
Q 14.984375 17.28125 19.8125 11.734375 
Q 24.65625 6.203125 33.40625 6.203125 
Q 37.3125 6.203125 41.140625 7.25 
Q 44.96875 8.296875 48.78125 10.40625 
L 48.78125 2.09375 
Q 45.015625 0.34375 40.984375 -0.53125 
Q 36.96875 -1.421875 32.421875 -1.421875 
Q 20.0625 -1.421875 12.78125 6.34375 
Q 5.515625 14.109375 5.515625 27.296875 
Q 5.515625 40.671875 12.859375 48.328125 
Q 20.21875 56 33.015625 56 
Q 37.15625 56 41.109375 55.140625 
Q 45.0625 54.296875 48.78125 52.59375 
z
" id="DejaVuSans-99"/>
      <path d="M 18.3125 70.21875 
L 18.3125 54.6875 
L 36.8125 54.6875 
L 36.8125 47.703125 
L 18.3125 47.703125 
L 18.3125 18.015625 
Q 18.3125 11.328125 20.140625 9.421875 
Q 21.96875 7.515625 27.59375 7.515625 
L 36.8125 7.515625 
L 36.8125 0 
L 27.59375 0 
Q 17.1875 0 13.234375 3.875 
Q 9.28125 7.765625 9.28125 18.015625 
L 9.28125 47.703125 
L 2.6875 47.703125 
L 2.6875 54.6875 
L 9.28125 54.6875 
L 9.28125 70.21875 
z
" id="DejaVuSans-116"/>
      <path d="M 32.171875 -5.078125 
Q 28.375 -14.84375 24.75 -17.8125 
Q 21.140625 -20.796875 15.09375 -20.796875 
L 7.90625 -20.796875 
L 7.90625 -13.28125 
L 13.1875 -13.28125 
Q 16.890625 -13.28125 18.9375 -11.515625 
Q 21 -9.765625 23.484375 -3.21875 
L 25.09375 0.875 
L 2.984375 54.6875 
L 12.5 54.6875 
L 29.59375 11.921875 
L 46.6875 54.6875 
L 56.203125 54.6875 
z
" id="DejaVuSans-121"/>
      <path d="M 45.40625 46.390625 
L 45.40625 75.984375 
L 54.390625 75.984375 
L 54.390625 0 
L 45.40625 0 
L 45.40625 8.203125 
Q 42.578125 3.328125 38.25 0.953125 
Q 33.9375 -1.421875 27.875 -1.421875 
Q 17.96875 -1.421875 11.734375 6.484375 
Q 5.515625 14.40625 5.515625 27.296875 
Q 5.515625 40.1875 11.734375 48.09375 
Q 17.96875 56 27.875 56 
Q 33.9375 56 38.25 53.625 
Q 42.578125 51.265625 45.40625 46.390625 
z
M 14.796875 27.296875 
Q 14.796875 17.390625 18.875 11.75 
Q 22.953125 6.109375 30.078125 6.109375 
Q 37.203125 6.109375 41.296875 11.75 
Q 45.40625 17.390625 45.40625 27.296875 
Q 45.40625 37.203125 41.296875 42.84375 
Q 37.203125 48.484375 30.078125 48.484375 
Q 22.953125 48.484375 18.875 42.84375 
Q 14.796875 37.203125 14.796875 27.296875 
z
" id="DejaVuSans-100"/>
     </defs>
     <g transform="translate(23.857604 351.33651)rotate(-90)scale(0.166667 -0.166667)">
      <use xlink:href="#DejaVuSans-80"/>
      <use x="60.255859" xlink:href="#DejaVuSans-101"/>
      <use x="121.779297" xlink:href="#DejaVuSans-114"/>
      <use x="162.861328" xlink:href="#DejaVuSans-99"/>
      <use x="217.841797" xlink:href="#DejaVuSans-101"/>
      <use x="279.365234" xlink:href="#DejaVuSans-110"/>
      <use x="342.744141" xlink:href="#DejaVuSans-116"/>
      <use x="381.953125" xlink:href="#DejaVuSans-97"/>
      <use x="443.232422" xlink:href="#DejaVuSans-103"/>
      <use x="506.708984" xlink:href="#DejaVuSans-101"/>
      <use x="568.232422" xlink:href="#DejaVuSans-32"/>
      <use x="600.019531" xlink:href="#DejaVuSans-111"/>
      <use x="661.201172" xlink:href="#DejaVuSans-102"/>
      <use x="696.40625" xlink:href="#DejaVuSans-32"/>
      <use x="728.193359" xlink:href="#DejaVuSans-68"/>
      <use x="805.195312" xlink:href="#DejaVuSans-101"/>
      <use x="866.71875" xlink:href="#DejaVuSans-102"/>
      <use x="901.923828" xlink:href="#DejaVuSans-32"/>
      <use x="933.710938" xlink:href="#DejaVuSans-115"/>
      <use x="985.810547" xlink:href="#DejaVuSans-116"/>
      <use x="1025.019531" xlink:href="#DejaVuSans-114"/>
      <use x="1066.132812" xlink:href="#DejaVuSans-97"/>
      <use x="1127.412109" xlink:href="#DejaVuSans-116"/>
      <use x="1166.621094" xlink:href="#DejaVuSans-101"/>
      <use x="1228.144531" xlink:href="#DejaVuSans-103"/>
      <use x="1291.621094" xlink:href="#DejaVuSans-121"/>
      <use x="1350.800781" xlink:href="#DejaVuSans-32"/>
      <use x="1382.587891" xlink:href="#DejaVuSans-117"/>
      <use x="1445.966797" xlink:href="#DejaVuSans-115"/>
      <use x="1498.066406" xlink:href="#DejaVuSans-101"/>
      <use x="1559.589844" xlink:href="#DejaVuSans-100"/>
     </g>
    </g>
   </g>
   <g id="line2d_16">
    <path clip-path="url(#p30f73a9d9d)" d="M 90.996818 182.703285 
L 96.149119 192.819394 
L 101.30142 201.775694 
L 106.453721 229.078261 
L 111.606021 232.20265 
L 116.758322 223.232153 
L 121.910623 243.258182 
L 127.062924 242.793598 
L 132.215224 257.633418 
L 137.367525 255.235008 
L 142.519826 272.181751 
L 147.672127 279.339561 
L 152.824428 280.570601 
L 157.976728 262.185844 
L 163.129029 286.452078 
L 168.28133 280.449378 
L 173.433631 273.230382 
L 178.585932 285.930467 
L 183.738232 282.638813 
L 188.890533 301.750356 
L 194.042834 280.292188 
L 199.195135 303.111256 
L 204.347435 293.207273 
L 209.499736 289.849351 
L 214.652037 285.010171 
L 219.804338 270.004964 
L 224.956639 288.362398 
L 230.108939 303.654141 
L 235.26124 302.0518 
L 240.413541 287.260952 
L 245.565842 269.804313 
L 250.718143 274.318961 
L 255.870443 256.047914 
L 261.022744 261.37697 
L 266.175045 309.505 
L 271.327346 297.614545 
L 276.479646 272.701212 
L 281.631947 284.025455 
L 286.784248 284.025455 
L 291.936549 251.840766 
L 297.08885 261.37697 
L 302.24115 276.47596 
L 307.393451 301.011818 
L 312.545752 319.996578 
L 317.698053 310.158322 
L 322.850354 306.673939 
L 328.002654 253.141157 
L 333.154955 302.556033 
L 338.307256 250.052727 
L 343.459557 306.673939 
L 348.611857 291.574949 
L 353.764158 243.258182 
L 358.916459 274.318961 
L 364.06876 351.970909 
L 369.221061 351.970909 
L 374.373361 351.970909 
L 379.525662 351.970909 
L 384.677963 216.08 
L 389.830264 170.78303 
L 394.982565 261.37697 
L 400.134865 170.78303 
L 405.287166 216.08 
L 410.439467 261.37697 
L 415.591768 351.970909 
L 420.744068 351.970909 
L 425.896369 351.970909 
L 431.04867 261.37697 
L 436.200971 261.37697 
L 441.353272 351.970909 
L 446.505572 216.08 
L 451.657873 261.37697 
L 456.810174 216.08 
L 461.962475 261.37697 
L 467.114776 351.970909 
L 472.267076 80.189091 
L 477.419377 351.970909 
L 482.571678 351.970909 
L 487.723979 80.189091 
L 492.876279 351.970909 
L 498.02858 351.970909 
L 503.180881 351.970909 
L 508.333182 351.970909 
" style="fill:none;stroke:#1f77b4;stroke-linecap:square;stroke-width:1.5;"/>
   </g>
   <g id="line2d_17">
    <path clip-path="url(#p30f73a9d9d)" d="M 90.996818 351.970909 
L 96.149119 329.934545 
L 101.30142 316.210144 
L 106.453721 323.611067 
L 111.606021 287.480308 
L 116.758322 306.673939 
L 121.910623 304.409091 
L 127.062924 305.512479 
L 132.215224 293.57151 
L 137.367525 298.996487 
L 142.519826 319.556564 
L 147.672127 298.083135 
L 152.824428 301.299723 
L 157.976728 293.731948 
L 163.129029 305.865065 
L 168.28133 299.521786 
L 173.433631 313.870654 
L 178.585932 313.870654 
L 183.738232 313.144935 
L 188.890533 310.612806 
L 194.042834 331.064615 
L 199.195135 312.272441 
L 204.347435 307.898182 
L 209.499736 328.675325 
L 214.652037 316.521107 
L 219.804338 313.144935 
L 224.956639 294.14499 
L 230.108939 303.654141 
L 235.26124 335.331206 
L 240.413541 313.144935 
L 245.565842 320.368372 
L 250.718143 313.144935 
L 255.870443 335.983743 
L 261.022744 314.223434 
L 266.175045 292.518636 
L 271.327346 324.792727 
L 276.479646 317.998182 
L 281.631947 272.701212 
L 286.784248 324.792727 
L 291.936549 337.666603 
L 297.08885 326.086926 
L 302.24115 351.970909 
L 307.393451 317.998182 
L 312.545752 335.983743 
L 317.698053 310.158322 
L 322.850354 306.673939 
L 328.002654 327.263471 
L 333.154955 327.263471 
L 338.307256 284.025455 
L 343.459557 351.970909 
L 348.611857 321.772929 
L 353.764158 351.970909 
L 358.916459 351.970909 
L 364.06876 284.025455 
L 369.221061 261.37697 
L 374.373361 351.970909 
L 379.525662 284.025455 
L 384.677963 351.970909 
L 389.830264 351.970909 
L 394.982565 351.970909 
L 400.134865 351.970909 
L 405.287166 351.970909 
L 410.439467 351.970909 
L 415.591768 261.37697 
L 420.744068 216.08 
L 425.896369 351.970909 
L 431.04867 261.37697 
L 436.200971 261.37697 
L 441.353272 351.970909 
L 446.505572 351.970909 
L 451.657873 351.970909 
L 456.810174 216.08 
L 461.962475 351.970909 
L 467.114776 351.970909 
L 472.267076 351.970909 
L 477.419377 216.08 
L 482.571678 351.970909 
L 487.723979 351.970909 
L 492.876279 351.970909 
L 498.02858 351.970909 
L 503.180881 351.970909 
L 508.333182 351.970909 
" style="fill:none;stroke:#ff7f0e;stroke-linecap:square;stroke-width:1.5;"/>
   </g>
   <g id="line2d_18">
    <path clip-path="url(#p30f73a9d9d)" d="M 90.996818 351.970909 
L 96.149119 351.970909 
L 101.30142 349.586858 
L 106.453721 351.970909 
L 111.606021 345.061202 
L 116.758322 337.666603 
L 121.910623 347.441212 
L 127.062924 335.710458 
L 132.215224 334.001863 
L 137.367525 335.848259 
L 142.519826 332.02362 
L 147.672127 344.942069 
L 152.824428 333.545023 
L 157.976728 330.131299 
L 163.129029 315.571558 
L 168.28133 330.51445 
L 173.433631 334.19079 
L 178.585932 331.650773 
L 183.738232 313.144935 
L 188.890533 325.383557 
L 194.042834 316.131548 
L 199.195135 330.594811 
L 204.347435 322.589091 
L 209.499736 317.027532 
L 214.652037 332.276574 
L 219.804338 339.028918 
L 224.956639 323.05795 
L 230.108939 315.733333 
L 235.26124 324.238071 
L 240.413541 339.028918 
L 245.565842 345.650402 
L 250.718143 332.557922 
L 255.870443 319.996578 
L 261.022744 321.772929 
L 266.175045 334.984545 
L 271.327346 324.792727 
L 276.479646 329.322424 
L 281.631947 340.646667 
L 286.784248 311.203636 
L 291.936549 294.753684 
L 297.08885 287.260952 
L 302.24115 291.574949 
L 307.393451 317.998182 
L 312.545752 335.983743 
L 317.698053 331.064615 
L 322.850354 306.673939 
L 328.002654 351.970909 
L 333.154955 277.848595 
L 338.307256 250.052727 
L 343.459557 306.673939 
L 348.611857 351.970909 
L 353.764158 243.258182 
L 358.916459 313.144935 
L 364.06876 351.970909 
L 369.221061 261.37697 
L 374.373361 261.37697 
L 379.525662 351.970909 
L 384.677963 351.970909 
L 389.830264 351.970909 
L 394.982565 351.970909 
L 400.134865 351.970909 
L 405.287166 351.970909 
L 410.439467 351.970909 
L 415.591768 351.970909 
L 420.744068 351.970909 
L 425.896369 216.08 
L 431.04867 261.37697 
L 436.200971 351.970909 
L 441.353272 351.970909 
L 446.505572 351.970909 
L 451.657873 261.37697 
L 456.810174 351.970909 
L 461.962475 351.970909 
L 467.114776 80.189091 
L 472.267076 351.970909 
L 477.419377 351.970909 
L 482.571678 351.970909 
L 487.723979 351.970909 
L 492.876279 80.189091 
L 498.02858 351.970909 
L 503.180881 351.970909 
L 508.333182 351.970909 
" style="fill:none;stroke:#2ca02c;stroke-linecap:square;stroke-width:1.5;"/>
   </g>
   <g id="line2d_19">
    <path clip-path="url(#p30f73a9d9d)" d="M 90.996818 351.970909 
L 96.149119 351.970909 
L 101.30142 349.586858 
L 106.453721 342.517628 
L 111.606021 347.364438 
L 116.758322 347.202807 
L 121.910623 340.646667 
L 127.062924 335.710458 
L 132.215224 345.232517 
L 137.367525 335.848259 
L 142.519826 329.530209 
L 147.672127 328.541442 
L 152.824428 324.33208 
L 157.976728 342.264416 
L 163.129029 342.264416 
L 168.28133 323.362297 
L 173.433631 329.110756 
L 178.585932 331.650773 
L 183.738232 327.011354 
L 188.890533 328.337708 
L 194.042834 343.011069 
L 199.195135 321.433626 
L 204.347435 318.916364 
L 209.499736 340.323117 
L 214.652037 316.521107 
L 219.804338 304.516941 
L 224.956639 323.05795 
L 230.108939 345.931313 
L 235.26124 335.331206 
L 240.413541 345.499913 
L 245.565842 351.970909 
L 250.718143 313.144935 
L 255.870443 327.99016 
L 261.022744 329.322424 
L 266.175045 326.491364 
L 271.327346 324.792727 
L 276.479646 306.673939 
L 281.631947 340.646667 
L 286.784248 311.203636 
L 291.936549 351.970909 
L 297.08885 339.028918 
L 302.24115 336.871919 
L 307.393451 351.970909 
L 312.545752 288.022246 
L 317.698053 331.064615 
L 322.850354 351.970909 
L 328.002654 327.263471 
L 333.154955 302.556033 
L 338.307256 351.970909 
L 343.459557 351.970909 
L 348.611857 291.574949 
L 353.764158 351.970909 
L 358.916459 351.970909 
L 364.06876 284.025455 
L 369.221061 351.970909 
L 374.373361 351.970909 
L 379.525662 284.025455 
L 384.677963 351.970909 
L 389.830264 351.970909 
L 394.982565 261.37697 
L 400.134865 351.970909 
L 405.287166 351.970909 
L 410.439467 351.970909 
L 415.591768 351.970909 
L 420.744068 351.970909 
L 425.896369 351.970909 
L 431.04867 351.970909 
L 436.200971 351.970909 
L 441.353272 351.970909 
L 446.505572 351.970909 
L 451.657873 351.970909 
L 456.810174 351.970909 
L 461.962475 261.37697 
L 467.114776 351.970909 
L 472.267076 351.970909 
L 477.419377 351.970909 
L 482.571678 351.970909 
L 487.723979 351.970909 
L 492.876279 351.970909 
L 498.02858 351.970909 
L 503.180881 351.970909 
L 508.333182 80.189091 
" style="fill:none;stroke:#d62728;stroke-linecap:square;stroke-width:1.5;"/>
   </g>
   <g id="line2d_20">
    <path clip-path="url(#p30f73a9d9d)" d="M 90.996818 351.970909 
L 96.149119 351.970909 
L 101.30142 351.970909 
L 106.453721 349.607589 
L 111.606021 349.667673 
L 116.758322 347.202807 
L 121.910623 349.706061 
L 127.062924 347.325066 
L 132.215224 347.478648 
L 137.367525 345.061202 
L 142.519826 351.970909 
L 147.672127 351.970909 
L 152.824428 349.667673 
L 157.976728 349.544286 
L 163.129029 347.117662 
L 168.28133 351.970909 
L 173.433631 344.350858 
L 178.585932 346.890875 
L 183.738232 343.651058 
L 188.890533 346.062609 
L 194.042834 348.984296 
L 199.195135 351.970909 
L 204.347435 351.970909 
L 209.499736 344.205714 
L 214.652037 340.154308 
L 219.804338 343.342915 
L 224.956639 346.188317 
L 230.108939 345.931313 
L 235.26124 351.970909 
L 240.413541 351.970909 
L 245.565842 345.650402 
L 250.718143 351.970909 
L 255.870443 351.970909 
L 261.022744 351.970909 
L 266.175045 343.477727 
L 271.327346 351.970909 
L 276.479646 351.970909 
L 281.631947 351.970909 
L 286.784248 351.970909 
L 291.936549 351.970909 
L 297.08885 351.970909 
L 302.24115 351.970909 
L 307.393451 351.970909 
L 312.545752 351.970909 
L 317.698053 351.970909 
L 322.850354 351.970909 
L 328.002654 351.970909 
L 333.154955 351.970909 
L 338.307256 351.970909 
L 343.459557 351.970909 
L 348.611857 351.970909 
L 353.764158 351.970909 
L 358.916459 351.970909 
L 364.06876 284.025455 
L 369.221061 351.970909 
L 374.373361 351.970909 
L 379.525662 284.025455 
L 384.677963 351.970909 
L 389.830264 351.970909 
L 394.982565 351.970909 
L 400.134865 351.970909 
L 405.287166 351.970909 
L 410.439467 351.970909 
L 415.591768 351.970909 
L 420.744068 351.970909 
L 425.896369 351.970909 
L 431.04867 351.970909 
L 436.200971 351.970909 
L 441.353272 351.970909 
L 446.505572 351.970909 
L 451.657873 351.970909 
L 456.810174 351.970909 
L 461.962475 351.970909 
L 467.114776 351.970909 
L 472.267076 351.970909 
L 477.419377 351.970909 
L 482.571678 351.970909 
L 487.723979 351.970909 
L 492.876279 351.970909 
L 498.02858 351.970909 
L 503.180881 351.970909 
L 508.333182 351.970909 
" style="fill:none;stroke:#9467bd;stroke-linecap:square;stroke-width:1.5;"/>
   </g>
   <g id="line2d_21">
    <path clip-path="url(#p30f73a9d9d)" d="M 90.996818 351.970909 
L 96.149119 351.970909 
L 101.30142 351.970909 
L 106.453721 349.607589 
L 111.606021 351.970909 
L 116.758322 349.586858 
L 121.910623 342.911515 
L 127.062924 340.356301 
L 132.215224 338.494125 
L 137.367525 328.938552 
L 142.519826 329.530209 
L 147.672127 326.198495 
L 152.824428 328.938552 
L 157.976728 322.851429 
L 163.129029 327.704675 
L 168.28133 320.978246 
L 173.433631 329.110756 
L 178.585932 308.79062 
L 183.738232 318.691503 
L 188.890533 310.612806 
L 194.042834 301.198482 
L 199.195135 293.950072 
L 204.347435 300.552727 
L 209.499736 305.37974 
L 214.652037 312.58224 
L 219.804338 317.458932 
L 224.956639 317.275358 
L 230.108939 279.495758 
L 235.26124 285.412096 
L 240.413541 280.789957 
L 245.565842 301.40685 
L 250.718143 293.731948 
L 255.870443 272.03508 
L 261.022744 291.574949 
L 266.175045 284.025455 
L 271.327346 270.436364 
L 276.479646 306.673939 
L 281.631947 295.349697 
L 286.784248 297.614545 
L 291.936549 294.753684 
L 297.08885 313.144935 
L 302.24115 291.574949 
L 307.393451 250.052727 
L 312.545752 224.073583 
L 317.698053 247.439441 
L 322.850354 261.37697 
L 328.002654 277.848595 
L 333.154955 327.263471 
L 338.307256 351.970909 
L 343.459557 306.673939 
L 348.611857 261.37697 
L 353.764158 297.614545 
L 358.916459 274.318961 
L 364.06876 284.025455 
L 369.221061 351.970909 
L 374.373361 261.37697 
L 379.525662 284.025455 
L 384.677963 216.08 
L 389.830264 351.970909 
L 394.982565 261.37697 
L 400.134865 351.970909 
L 405.287166 284.025455 
L 410.439467 261.37697 
L 415.591768 261.37697 
L 420.744068 216.08 
L 425.896369 351.970909 
L 431.04867 351.970909 
L 436.200971 351.970909 
L 441.353272 80.189091 
L 446.505572 216.08 
L 451.657873 261.37697 
L 456.810174 351.970909 
L 461.962475 351.970909 
L 467.114776 351.970909 
L 472.267076 351.970909 
L 477.419377 216.08 
L 482.571678 351.970909 
L 487.723979 351.970909 
L 492.876279 351.970909 
L 498.02858 351.970909 
L 503.180881 216.08 
L 508.333182 351.970909 
" style="fill:none;stroke:#8c564b;stroke-linecap:square;stroke-width:1.5;"/>
   </g>
   <g id="line2d_22">
    <path clip-path="url(#p30f73a9d9d)" d="M 90.996818 351.970909 
L 96.149119 351.970909 
L 101.30142 349.586858 
L 106.453721 347.244269 
L 111.606021 345.061202 
L 116.758322 342.434705 
L 121.910623 342.911515 
L 127.062924 349.647988 
L 132.215224 340.740255 
L 137.367525 335.848259 
L 142.519826 324.543386 
L 147.672127 326.198495 
L 152.824428 328.938552 
L 157.976728 334.984545 
L 163.129029 330.131299 
L 168.28133 335.282552 
L 173.433631 326.570739 
L 178.585932 329.110756 
L 183.738232 327.011354 
L 188.890533 322.429407 
L 194.042834 319.118162 
L 199.195135 318.379898 
L 204.347435 322.589091 
L 209.499736 328.675325 
L 214.652037 332.276574 
L 219.804338 334.714921 
L 224.956639 328.840542 
L 230.108939 333.852121 
L 235.26124 318.691503 
L 240.413541 326.086926 
L 245.565842 307.727357 
L 250.718143 332.557922 
L 255.870443 335.983743 
L 261.022744 336.871919 
L 266.175045 343.477727 
L 271.327346 324.792727 
L 276.479646 329.322424 
L 281.631947 317.998182 
L 286.784248 324.792727 
L 291.936549 323.362297 
L 297.08885 339.028918 
L 302.24115 336.871919 
L 307.393451 317.998182 
L 312.545752 351.970909 
L 317.698053 351.970909 
L 322.850354 329.322424 
L 328.002654 302.556033 
L 333.154955 327.263471 
L 338.307256 351.970909 
L 343.459557 351.970909 
L 348.611857 351.970909 
L 353.764158 351.970909 
L 358.916459 274.318961 
L 364.06876 351.970909 
L 369.221061 261.37697 
L 374.373361 351.970909 
L 379.525662 351.970909 
L 384.677963 351.970909 
L 389.830264 351.970909 
L 394.982565 351.970909 
L 400.134865 351.970909 
L 405.287166 284.025455 
L 410.439467 351.970909 
L 415.591768 261.37697 
L 420.744068 351.970909 
L 425.896369 216.08 
L 431.04867 351.970909 
L 436.200971 351.970909 
L 441.353272 351.970909 
L 446.505572 351.970909 
L 451.657873 351.970909 
L 456.810174 351.970909 
L 461.962475 351.970909 
L 467.114776 351.970909 
L 472.267076 351.970909 
L 477.419377 351.970909 
L 482.571678 80.189091 
L 487.723979 351.970909 
L 492.876279 351.970909 
L 498.02858 80.189091 
L 503.180881 351.970909 
L 508.333182 351.970909 
" style="fill:none;stroke:#e377c2;stroke-linecap:square;stroke-width:1.5;"/>
   </g>
   <g id="line2d_23">
    <path clip-path="url(#p30f73a9d9d)" d="M 90.996818 249.456715 
L 96.149119 261.37697 
L 101.30142 273.297225 
L 106.453721 250.348142 
L 111.606021 285.177072 
L 116.758322 289.985582 
L 121.910623 272.701212 
L 127.062924 286.929106 
L 132.215224 286.833118 
L 137.367525 308.20943 
L 142.519826 284.648807 
L 147.672127 288.711348 
L 152.824428 296.693251 
L 157.976728 308.291688 
L 163.129029 288.878701 
L 168.28133 301.905837 
L 173.433631 293.550518 
L 178.585932 296.090535 
L 183.738232 318.691503 
L 188.890533 298.796206 
L 194.042834 304.185095 
L 199.195135 312.272441 
L 204.347435 326.261818 
L 209.499736 289.849351 
L 214.652037 308.643373 
L 219.804338 321.772929 
L 224.956639 323.05795 
L 230.108939 315.733333 
L 235.26124 290.958664 
L 240.413541 300.202944 
L 245.565842 301.40685 
L 250.718143 332.557922 
L 255.870443 343.977326 
L 261.022744 336.871919 
L 266.175045 309.505 
L 271.327346 324.792727 
L 276.479646 329.322424 
L 281.631947 340.646667 
L 286.784248 338.381818 
L 291.936549 337.666603 
L 297.08885 326.086926 
L 302.24115 306.673939 
L 307.393451 334.984545 
L 312.545752 335.983743 
L 317.698053 310.158322 
L 322.850354 329.322424 
L 328.002654 351.970909 
L 333.154955 327.263471 
L 338.307256 351.970909 
L 343.459557 216.08 
L 348.611857 321.772929 
L 353.764158 351.970909 
L 358.916459 351.970909 
L 364.06876 351.970909 
L 369.221061 351.970909 
L 374.373361 261.37697 
L 379.525662 351.970909 
L 384.677963 351.970909 
L 389.830264 261.37697 
L 394.982565 351.970909 
L 400.134865 261.37697 
L 405.287166 351.970909 
L 410.439467 261.37697 
L 415.591768 351.970909 
L 420.744068 351.970909 
L 425.896369 351.970909 
L 431.04867 351.970909 
L 436.200971 261.37697 
L 441.353272 351.970909 
L 446.505572 351.970909 
L 451.657873 351.970909 
L 456.810174 351.970909 
L 461.962475 261.37697 
L 467.114776 351.970909 
L 472.267076 351.970909 
L 477.419377 351.970909 
L 482.571678 351.970909 
L 487.723979 351.970909 
L 492.876279 351.970909 
L 498.02858 351.970909 
L 503.180881 216.08 
L 508.333182 351.970909 
" style="fill:none;stroke:#7f7f7f;stroke-linecap:square;stroke-width:1.5;"/>
   </g>
   <g id="patch_3">
    <path d="M 70.13 365.56 
L 70.13 66.6 
" style="fill:none;stroke:#000000;stroke-linecap:square;stroke-linejoin:miter;stroke-width:0.8;"/>
   </g>
   <g id="patch_4">
    <path d="M 529.2 365.56 
L 529.2 66.6 
" style="fill:none;stroke:#000000;stroke-linecap:square;stroke-linejoin:miter;stroke-width:0.8;"/>
   </g>
   <g id="patch_5">
    <path d="M 70.13 365.56 
L 529.2 365.56 
" style="fill:none;stroke:#000000;stroke-linecap:square;stroke-linejoin:miter;stroke-width:0.8;"/>
   </g>
   <g id="patch_6">
    <path d="M 70.13 66.6 
L 529.2 66.6 
" style="fill:none;stroke:#000000;stroke-linecap:square;stroke-linejoin:miter;stroke-width:0.8;"/>
   </g>
   <g id="legend_1">
    <g id="patch_7">
     <path d="M 80.63 59.1 
L 518.7 59.1 
Q 521.7 59.1 521.7 56.1 
L 521.7 13.565625 
Q 521.7 10.565625 518.7 10.565625 
L 80.63 10.565625 
Q 77.63 10.565625 77.63 13.565625 
L 77.63 56.1 
Q 77.63 59.1 80.63 59.1 
z
" style="fill:#ffffff;opacity:0.8;stroke:#cccccc;stroke-linejoin:miter;"/>
    </g>
    <g id="line2d_24">
     <path d="M 83.63 22.713281 
L 113.63 22.713281 
" style="fill:none;stroke:#1f77b4;stroke-linecap:square;stroke-width:1.5;"/>
    </g>
    <g id="line2d_25"/>
    <g id="text_18">
     <!-- Stra 1 -->
     <defs>
      <path d="M 53.515625 70.515625 
L 53.515625 60.890625 
Q 47.90625 63.578125 42.921875 64.890625 
Q 37.9375 66.21875 33.296875 66.21875 
Q 25.25 66.21875 20.875 63.09375 
Q 16.5 59.96875 16.5 54.203125 
Q 16.5 49.359375 19.40625 46.890625 
Q 22.3125 44.4375 30.421875 42.921875 
L 36.375 41.703125 
Q 47.40625 39.59375 52.65625 34.296875 
Q 57.90625 29 57.90625 20.125 
Q 57.90625 9.515625 50.796875 4.046875 
Q 43.703125 -1.421875 29.984375 -1.421875 
Q 24.8125 -1.421875 18.96875 -0.25 
Q 13.140625 0.921875 6.890625 3.21875 
L 6.890625 13.375 
Q 12.890625 10.015625 18.65625 8.296875 
Q 24.421875 6.59375 29.984375 6.59375 
Q 38.421875 6.59375 43.015625 9.90625 
Q 47.609375 13.234375 47.609375 19.390625 
Q 47.609375 24.75 44.3125 27.78125 
Q 41.015625 30.8125 33.5 32.328125 
L 27.484375 33.5 
Q 16.453125 35.6875 11.515625 40.375 
Q 6.59375 45.0625 6.59375 53.421875 
Q 6.59375 63.09375 13.40625 68.65625 
Q 20.21875 74.21875 32.171875 74.21875 
Q 37.3125 74.21875 42.625 73.28125 
Q 47.953125 72.359375 53.515625 70.515625 
z
" id="DejaVuSans-83"/>
     </defs>
     <g transform="translate(125.63 27.963281)scale(0.15 -0.15)">
      <use xlink:href="#DejaVuSans-83"/>
      <use x="63.476562" xlink:href="#DejaVuSans-116"/>
      <use x="102.685547" xlink:href="#DejaVuSans-114"/>
      <use x="143.798828" xlink:href="#DejaVuSans-97"/>
      <use x="205.078125" xlink:href="#DejaVuSans-32"/>
      <use x="236.865234" xlink:href="#DejaVuSans-49"/>
     </g>
    </g>
    <g id="line2d_26">
     <path d="M 83.63 44.730469 
L 113.63 44.730469 
" style="fill:none;stroke:#ff7f0e;stroke-linecap:square;stroke-width:1.5;"/>
    </g>
    <g id="line2d_27"/>
    <g id="text_19">
     <!-- Stra 2 -->
     <g transform="translate(125.63 49.980469)scale(0.15 -0.15)">
      <use xlink:href="#DejaVuSans-83"/>
      <use x="63.476562" xlink:href="#DejaVuSans-116"/>
      <use x="102.685547" xlink:href="#DejaVuSans-114"/>
      <use x="143.798828" xlink:href="#DejaVuSans-97"/>
      <use x="205.078125" xlink:href="#DejaVuSans-32"/>
      <use x="236.865234" xlink:href="#DejaVuSans-50"/>
     </g>
    </g>
    <g id="line2d_28">
     <path d="M 198.629115 22.713281 
L 228.629115 22.713281 
" style="fill:none;stroke:#2ca02c;stroke-linecap:square;stroke-width:1.5;"/>
    </g>
    <g id="line2d_29"/>
    <g id="text_20">
     <!-- Stra 3 -->
     <g transform="translate(240.629115 27.963281)scale(0.15 -0.15)">
      <use xlink:href="#DejaVuSans-83"/>
      <use x="63.476562" xlink:href="#DejaVuSans-116"/>
      <use x="102.685547" xlink:href="#DejaVuSans-114"/>
      <use x="143.798828" xlink:href="#DejaVuSans-97"/>
      <use x="205.078125" xlink:href="#DejaVuSans-32"/>
      <use x="236.865234" xlink:href="#DejaVuSans-51"/>
     </g>
    </g>
    <g id="line2d_30">
     <path d="M 198.629115 44.730469 
L 228.629115 44.730469 
" style="fill:none;stroke:#d62728;stroke-linecap:square;stroke-width:1.5;"/>
    </g>
    <g id="line2d_31"/>
    <g id="text_21">
     <!-- Stra 4 -->
     <g transform="translate(240.629115 49.980469)scale(0.15 -0.15)">
      <use xlink:href="#DejaVuSans-83"/>
      <use x="63.476562" xlink:href="#DejaVuSans-116"/>
      <use x="102.685547" xlink:href="#DejaVuSans-114"/>
      <use x="143.798828" xlink:href="#DejaVuSans-97"/>
      <use x="205.078125" xlink:href="#DejaVuSans-32"/>
      <use x="236.865234" xlink:href="#DejaVuSans-52"/>
     </g>
    </g>
    <g id="line2d_32">
     <path d="M 313.628229 22.713281 
L 343.628229 22.713281 
" style="fill:none;stroke:#9467bd;stroke-linecap:square;stroke-width:1.5;"/>
    </g>
    <g id="line2d_33"/>
    <g id="text_22">
     <!-- Stra 5 -->
     <g transform="translate(355.628229 27.963281)scale(0.15 -0.15)">
      <use xlink:href="#DejaVuSans-83"/>
      <use x="63.476562" xlink:href="#DejaVuSans-116"/>
      <use x="102.685547" xlink:href="#DejaVuSans-114"/>
      <use x="143.798828" xlink:href="#DejaVuSans-97"/>
      <use x="205.078125" xlink:href="#DejaVuSans-32"/>
      <use x="236.865234" xlink:href="#DejaVuSans-53"/>
     </g>
    </g>
    <g id="line2d_34">
     <path d="M 313.628229 44.730469 
L 343.628229 44.730469 
" style="fill:none;stroke:#8c564b;stroke-linecap:square;stroke-width:1.5;"/>
    </g>
    <g id="line2d_35"/>
    <g id="text_23">
     <!-- Stra 6 -->
     <g transform="translate(355.628229 49.980469)scale(0.15 -0.15)">
      <use xlink:href="#DejaVuSans-83"/>
      <use x="63.476562" xlink:href="#DejaVuSans-116"/>
      <use x="102.685547" xlink:href="#DejaVuSans-114"/>
      <use x="143.798828" xlink:href="#DejaVuSans-97"/>
      <use x="205.078125" xlink:href="#DejaVuSans-32"/>
      <use x="236.865234" xlink:href="#DejaVuSans-54"/>
     </g>
    </g>
    <g id="line2d_36">
     <path d="M 428.627344 22.713281 
L 458.627344 22.713281 
" style="fill:none;stroke:#e377c2;stroke-linecap:square;stroke-width:1.5;"/>
    </g>
    <g id="line2d_37"/>
    <g id="text_24">
     <!-- Stra 7 -->
     <g transform="translate(470.627344 27.963281)scale(0.15 -0.15)">
      <use xlink:href="#DejaVuSans-83"/>
      <use x="63.476562" xlink:href="#DejaVuSans-116"/>
      <use x="102.685547" xlink:href="#DejaVuSans-114"/>
      <use x="143.798828" xlink:href="#DejaVuSans-97"/>
      <use x="205.078125" xlink:href="#DejaVuSans-32"/>
      <use x="236.865234" xlink:href="#DejaVuSans-55"/>
     </g>
    </g>
    <g id="line2d_38">
     <path d="M 428.627344 44.730469 
L 458.627344 44.730469 
" style="fill:none;stroke:#7f7f7f;stroke-linecap:square;stroke-width:1.5;"/>
    </g>
    <g id="line2d_39"/>
    <g id="text_25">
     <!-- Stra 8 -->
     <g transform="translate(470.627344 49.980469)scale(0.15 -0.15)">
      <use xlink:href="#DejaVuSans-83"/>
      <use x="63.476562" xlink:href="#DejaVuSans-116"/>
      <use x="102.685547" xlink:href="#DejaVuSans-114"/>
      <use x="143.798828" xlink:href="#DejaVuSans-97"/>
      <use x="205.078125" xlink:href="#DejaVuSans-32"/>
      <use x="236.865234" xlink:href="#DejaVuSans-56"/>
     </g>
    </g>
   </g>
  </g>
 </g>
 <defs>
  <clipPath id="p30f73a9d9d">
   <rect height="298.96" width="459.07" x="70.13" y="66.6"/>
  </clipPath>
 </defs>
</svg>
