<?xml version="1.0" encoding="utf-8" standalone="no"?>
<!DOCTYPE svg PUBLIC "-//W3C//DTD SVG 1.1//EN"
  "http://www.w3.org/Graphics/SVG/1.1/DTD/svg11.dtd">
<!-- Created with matplotlib (https://matplotlib.org/) -->
<svg height="432pt" version="1.1" viewBox="0 0 540 432" width="540pt" xmlns="http://www.w3.org/2000/svg" xmlns:xlink="http://www.w3.org/1999/xlink">
 <defs>
  <style type="text/css">
*{stroke-linecap:butt;stroke-linejoin:round;}
  </style>
 </defs>
 <g id="figure_1">
  <g id="patch_1">
   <path d="M 0 432 
L 540 432 
L 540 0 
L 0 0 
z
" style="fill:#ffffff;"/>
  </g>
  <g id="axes_1">
   <g id="patch_2">
    <path d="M 108.2 365.56 
L 529.2 365.56 
L 529.2 66.6 
L 108.2 66.6 
z
" style="fill:#ffffff;"/>
   </g>
   <g id="matplotlib.axis_1">
    <g id="xtick_1">
     <g id="line2d_1">
      <defs>
       <path d="M 0 0 
L 0 3.5 
" id="m1402e807fd" style="stroke:#000000;stroke-width:0.8;"/>
      </defs>
      <g>
       <use style="stroke:#000000;stroke-width:0.8;" x="127.336364" xlink:href="#m1402e807fd" y="365.56"/>
      </g>
     </g>
     <g id="text_1">
      <!-- 0 -->
      <defs>
       <path d="M 31.78125 66.40625 
Q 24.171875 66.40625 20.328125 58.90625 
Q 16.5 51.421875 16.5 36.375 
Q 16.5 21.390625 20.328125 13.890625 
Q 24.171875 6.390625 31.78125 6.390625 
Q 39.453125 6.390625 43.28125 13.890625 
Q 47.125 21.390625 47.125 36.375 
Q 47.125 51.421875 43.28125 58.90625 
Q 39.453125 66.40625 31.78125 66.40625 
z
M 31.78125 74.21875 
Q 44.046875 74.21875 50.515625 64.515625 
Q 56.984375 54.828125 56.984375 36.375 
Q 56.984375 17.96875 50.515625 8.265625 
Q 44.046875 -1.421875 31.78125 -1.421875 
Q 19.53125 -1.421875 13.0625 8.265625 
Q 6.59375 17.96875 6.59375 36.375 
Q 6.59375 54.828125 13.0625 64.515625 
Q 19.53125 74.21875 31.78125 74.21875 
z
" id="DejaVuSans-48"/>
      </defs>
      <g transform="translate(120.973864 387.756875)scale(0.2 -0.2)">
       <use xlink:href="#DejaVuSans-48"/>
      </g>
     </g>
    </g>
    <g id="xtick_2">
     <g id="line2d_2">
      <g>
       <use style="stroke:#000000;stroke-width:0.8;" x="174.586644" xlink:href="#m1402e807fd" y="365.56"/>
      </g>
     </g>
     <g id="text_2">
      <!-- 10 -->
      <defs>
       <path d="M 12.40625 8.296875 
L 28.515625 8.296875 
L 28.515625 63.921875 
L 10.984375 60.40625 
L 10.984375 69.390625 
L 28.421875 72.90625 
L 38.28125 72.90625 
L 38.28125 8.296875 
L 54.390625 8.296875 
L 54.390625 0 
L 12.40625 0 
z
" id="DejaVuSans-49"/>
      </defs>
      <g transform="translate(161.861644 387.756875)scale(0.2 -0.2)">
       <use xlink:href="#DejaVuSans-49"/>
       <use x="63.623047" xlink:href="#DejaVuSans-48"/>
      </g>
     </g>
    </g>
    <g id="xtick_3">
     <g id="line2d_3">
      <g>
       <use style="stroke:#000000;stroke-width:0.8;" x="221.836925" xlink:href="#m1402e807fd" y="365.56"/>
      </g>
     </g>
     <g id="text_3">
      <!-- 20 -->
      <defs>
       <path d="M 19.1875 8.296875 
L 53.609375 8.296875 
L 53.609375 0 
L 7.328125 0 
L 7.328125 8.296875 
Q 12.9375 14.109375 22.625 23.890625 
Q 32.328125 33.6875 34.8125 36.53125 
Q 39.546875 41.84375 41.421875 45.53125 
Q 43.3125 49.21875 43.3125 52.78125 
Q 43.3125 58.59375 39.234375 62.25 
Q 35.15625 65.921875 28.609375 65.921875 
Q 23.96875 65.921875 18.8125 64.3125 
Q 13.671875 62.703125 7.8125 59.421875 
L 7.8125 69.390625 
Q 13.765625 71.78125 18.9375 73 
Q 24.125 74.21875 28.421875 74.21875 
Q 39.75 74.21875 46.484375 68.546875 
Q 53.21875 62.890625 53.21875 53.421875 
Q 53.21875 48.921875 51.53125 44.890625 
Q 49.859375 40.875 45.40625 35.40625 
Q 44.1875 33.984375 37.640625 27.21875 
Q 31.109375 20.453125 19.1875 8.296875 
z
" id="DejaVuSans-50"/>
      </defs>
      <g transform="translate(209.111925 387.756875)scale(0.2 -0.2)">
       <use xlink:href="#DejaVuSans-50"/>
       <use x="63.623047" xlink:href="#DejaVuSans-48"/>
      </g>
     </g>
    </g>
    <g id="xtick_4">
     <g id="line2d_4">
      <g>
       <use style="stroke:#000000;stroke-width:0.8;" x="269.087205" xlink:href="#m1402e807fd" y="365.56"/>
      </g>
     </g>
     <g id="text_4">
      <!-- 30 -->
      <defs>
       <path d="M 40.578125 39.3125 
Q 47.65625 37.796875 51.625 33 
Q 55.609375 28.21875 55.609375 21.1875 
Q 55.609375 10.40625 48.1875 4.484375 
Q 40.765625 -1.421875 27.09375 -1.421875 
Q 22.515625 -1.421875 17.65625 -0.515625 
Q 12.796875 0.390625 7.625 2.203125 
L 7.625 11.71875 
Q 11.71875 9.328125 16.59375 8.109375 
Q 21.484375 6.890625 26.8125 6.890625 
Q 36.078125 6.890625 40.9375 10.546875 
Q 45.796875 14.203125 45.796875 21.1875 
Q 45.796875 27.640625 41.28125 31.265625 
Q 36.765625 34.90625 28.71875 34.90625 
L 20.21875 34.90625 
L 20.21875 43.015625 
L 29.109375 43.015625 
Q 36.375 43.015625 40.234375 45.921875 
Q 44.09375 48.828125 44.09375 54.296875 
Q 44.09375 59.90625 40.109375 62.90625 
Q 36.140625 65.921875 28.71875 65.921875 
Q 24.65625 65.921875 20.015625 65.03125 
Q 15.375 64.15625 9.8125 62.3125 
L 9.8125 71.09375 
Q 15.4375 72.65625 20.34375 73.4375 
Q 25.25 74.21875 29.59375 74.21875 
Q 40.828125 74.21875 47.359375 69.109375 
Q 53.90625 64.015625 53.90625 55.328125 
Q 53.90625 49.265625 50.4375 45.09375 
Q 46.96875 40.921875 40.578125 39.3125 
z
" id="DejaVuSans-51"/>
      </defs>
      <g transform="translate(256.362205 387.756875)scale(0.2 -0.2)">
       <use xlink:href="#DejaVuSans-51"/>
       <use x="63.623047" xlink:href="#DejaVuSans-48"/>
      </g>
     </g>
    </g>
    <g id="xtick_5">
     <g id="line2d_5">
      <g>
       <use style="stroke:#000000;stroke-width:0.8;" x="316.337486" xlink:href="#m1402e807fd" y="365.56"/>
      </g>
     </g>
     <g id="text_5">
      <!-- 40 -->
      <defs>
       <path d="M 37.796875 64.3125 
L 12.890625 25.390625 
L 37.796875 25.390625 
z
M 35.203125 72.90625 
L 47.609375 72.90625 
L 47.609375 25.390625 
L 58.015625 25.390625 
L 58.015625 17.1875 
L 47.609375 17.1875 
L 47.609375 0 
L 37.796875 0 
L 37.796875 17.1875 
L 4.890625 17.1875 
L 4.890625 26.703125 
z
" id="DejaVuSans-52"/>
      </defs>
      <g transform="translate(303.612486 387.756875)scale(0.2 -0.2)">
       <use xlink:href="#DejaVuSans-52"/>
       <use x="63.623047" xlink:href="#DejaVuSans-48"/>
      </g>
     </g>
    </g>
    <g id="xtick_6">
     <g id="line2d_6">
      <g>
       <use style="stroke:#000000;stroke-width:0.8;" x="363.587767" xlink:href="#m1402e807fd" y="365.56"/>
      </g>
     </g>
     <g id="text_6">
      <!-- 50 -->
      <defs>
       <path d="M 10.796875 72.90625 
L 49.515625 72.90625 
L 49.515625 64.59375 
L 19.828125 64.59375 
L 19.828125 46.734375 
Q 21.96875 47.46875 24.109375 47.828125 
Q 26.265625 48.1875 28.421875 48.1875 
Q 40.625 48.1875 47.75 41.5 
Q 54.890625 34.8125 54.890625 23.390625 
Q 54.890625 11.625 47.5625 5.09375 
Q 40.234375 -1.421875 26.90625 -1.421875 
Q 22.3125 -1.421875 17.546875 -0.640625 
Q 12.796875 0.140625 7.71875 1.703125 
L 7.71875 11.625 
Q 12.109375 9.234375 16.796875 8.0625 
Q 21.484375 6.890625 26.703125 6.890625 
Q 35.15625 6.890625 40.078125 11.328125 
Q 45.015625 15.765625 45.015625 23.390625 
Q 45.015625 31 40.078125 35.4375 
Q 35.15625 39.890625 26.703125 39.890625 
Q 22.75 39.890625 18.8125 39.015625 
Q 14.890625 38.140625 10.796875 36.28125 
z
" id="DejaVuSans-53"/>
      </defs>
      <g transform="translate(350.862767 387.756875)scale(0.2 -0.2)">
       <use xlink:href="#DejaVuSans-53"/>
       <use x="63.623047" xlink:href="#DejaVuSans-48"/>
      </g>
     </g>
    </g>
    <g id="xtick_7">
     <g id="line2d_7">
      <g>
       <use style="stroke:#000000;stroke-width:0.8;" x="410.838047" xlink:href="#m1402e807fd" y="365.56"/>
      </g>
     </g>
     <g id="text_7">
      <!-- 60 -->
      <defs>
       <path d="M 33.015625 40.375 
Q 26.375 40.375 22.484375 35.828125 
Q 18.609375 31.296875 18.609375 23.390625 
Q 18.609375 15.53125 22.484375 10.953125 
Q 26.375 6.390625 33.015625 6.390625 
Q 39.65625 6.390625 43.53125 10.953125 
Q 47.40625 15.53125 47.40625 23.390625 
Q 47.40625 31.296875 43.53125 35.828125 
Q 39.65625 40.375 33.015625 40.375 
z
M 52.59375 71.296875 
L 52.59375 62.3125 
Q 48.875 64.0625 45.09375 64.984375 
Q 41.3125 65.921875 37.59375 65.921875 
Q 27.828125 65.921875 22.671875 59.328125 
Q 17.53125 52.734375 16.796875 39.40625 
Q 19.671875 43.65625 24.015625 45.921875 
Q 28.375 48.1875 33.59375 48.1875 
Q 44.578125 48.1875 50.953125 41.515625 
Q 57.328125 34.859375 57.328125 23.390625 
Q 57.328125 12.15625 50.6875 5.359375 
Q 44.046875 -1.421875 33.015625 -1.421875 
Q 20.359375 -1.421875 13.671875 8.265625 
Q 6.984375 17.96875 6.984375 36.375 
Q 6.984375 53.65625 15.1875 63.9375 
Q 23.390625 74.21875 37.203125 74.21875 
Q 40.921875 74.21875 44.703125 73.484375 
Q 48.484375 72.75 52.59375 71.296875 
z
" id="DejaVuSans-54"/>
      </defs>
      <g transform="translate(398.113047 387.756875)scale(0.2 -0.2)">
       <use xlink:href="#DejaVuSans-54"/>
       <use x="63.623047" xlink:href="#DejaVuSans-48"/>
      </g>
     </g>
    </g>
    <g id="xtick_8">
     <g id="line2d_8">
      <g>
       <use style="stroke:#000000;stroke-width:0.8;" x="458.088328" xlink:href="#m1402e807fd" y="365.56"/>
      </g>
     </g>
     <g id="text_8">
      <!-- 70 -->
      <defs>
       <path d="M 8.203125 72.90625 
L 55.078125 72.90625 
L 55.078125 68.703125 
L 28.609375 0 
L 18.3125 0 
L 43.21875 64.59375 
L 8.203125 64.59375 
z
" id="DejaVuSans-55"/>
      </defs>
      <g transform="translate(445.363328 387.756875)scale(0.2 -0.2)">
       <use xlink:href="#DejaVuSans-55"/>
       <use x="63.623047" xlink:href="#DejaVuSans-48"/>
      </g>
     </g>
    </g>
    <g id="xtick_9">
     <g id="line2d_9">
      <g>
       <use style="stroke:#000000;stroke-width:0.8;" x="505.338608" xlink:href="#m1402e807fd" y="365.56"/>
      </g>
     </g>
     <g id="text_9">
      <!-- 80 -->
      <defs>
       <path d="M 31.78125 34.625 
Q 24.75 34.625 20.71875 30.859375 
Q 16.703125 27.09375 16.703125 20.515625 
Q 16.703125 13.921875 20.71875 10.15625 
Q 24.75 6.390625 31.78125 6.390625 
Q 38.8125 6.390625 42.859375 10.171875 
Q 46.921875 13.96875 46.921875 20.515625 
Q 46.921875 27.09375 42.890625 30.859375 
Q 38.875 34.625 31.78125 34.625 
z
M 21.921875 38.8125 
Q 15.578125 40.375 12.03125 44.71875 
Q 8.5 49.078125 8.5 55.328125 
Q 8.5 64.0625 14.71875 69.140625 
Q 20.953125 74.21875 31.78125 74.21875 
Q 42.671875 74.21875 48.875 69.140625 
Q 55.078125 64.0625 55.078125 55.328125 
Q 55.078125 49.078125 51.53125 44.71875 
Q 48 40.375 41.703125 38.8125 
Q 48.828125 37.15625 52.796875 32.3125 
Q 56.78125 27.484375 56.78125 20.515625 
Q 56.78125 9.90625 50.3125 4.234375 
Q 43.84375 -1.421875 31.78125 -1.421875 
Q 19.734375 -1.421875 13.25 4.234375 
Q 6.78125 9.90625 6.78125 20.515625 
Q 6.78125 27.484375 10.78125 32.3125 
Q 14.796875 37.15625 21.921875 38.8125 
z
M 18.3125 54.390625 
Q 18.3125 48.734375 21.84375 45.5625 
Q 25.390625 42.390625 31.78125 42.390625 
Q 38.140625 42.390625 41.71875 45.5625 
Q 45.3125 48.734375 45.3125 54.390625 
Q 45.3125 60.0625 41.71875 63.234375 
Q 38.140625 66.40625 31.78125 66.40625 
Q 25.390625 66.40625 21.84375 63.234375 
Q 18.3125 60.0625 18.3125 54.390625 
z
" id="DejaVuSans-56"/>
      </defs>
      <g transform="translate(492.613608 387.756875)scale(0.2 -0.2)">
       <use xlink:href="#DejaVuSans-56"/>
       <use x="63.623047" xlink:href="#DejaVuSans-48"/>
      </g>
     </g>
    </g>
    <g id="text_10">
     <!-- # of games -->
     <defs>
      <path d="M 51.125 44 
L 36.921875 44 
L 32.8125 27.6875 
L 47.125 27.6875 
z
M 43.796875 71.78125 
L 38.71875 51.515625 
L 52.984375 51.515625 
L 58.109375 71.78125 
L 65.921875 71.78125 
L 60.890625 51.515625 
L 76.125 51.515625 
L 76.125 44 
L 58.984375 44 
L 54.984375 27.6875 
L 70.515625 27.6875 
L 70.515625 20.21875 
L 53.078125 20.21875 
L 48 0 
L 40.1875 0 
L 45.21875 20.21875 
L 30.90625 20.21875 
L 25.875 0 
L 18.015625 0 
L 23.09375 20.21875 
L 7.71875 20.21875 
L 7.71875 27.6875 
L 24.90625 27.6875 
L 29 44 
L 13.28125 44 
L 13.28125 51.515625 
L 30.90625 51.515625 
L 35.890625 71.78125 
z
" id="DejaVuSans-35"/>
      <path id="DejaVuSans-32"/>
      <path d="M 30.609375 48.390625 
Q 23.390625 48.390625 19.1875 42.75 
Q 14.984375 37.109375 14.984375 27.296875 
Q 14.984375 17.484375 19.15625 11.84375 
Q 23.34375 6.203125 30.609375 6.203125 
Q 37.796875 6.203125 41.984375 11.859375 
Q 46.1875 17.53125 46.1875 27.296875 
Q 46.1875 37.015625 41.984375 42.703125 
Q 37.796875 48.390625 30.609375 48.390625 
z
M 30.609375 56 
Q 42.328125 56 49.015625 48.375 
Q 55.71875 40.765625 55.71875 27.296875 
Q 55.71875 13.875 49.015625 6.21875 
Q 42.328125 -1.421875 30.609375 -1.421875 
Q 18.84375 -1.421875 12.171875 6.21875 
Q 5.515625 13.875 5.515625 27.296875 
Q 5.515625 40.765625 12.171875 48.375 
Q 18.84375 56 30.609375 56 
z
" id="DejaVuSans-111"/>
      <path d="M 37.109375 75.984375 
L 37.109375 68.5 
L 28.515625 68.5 
Q 23.6875 68.5 21.796875 66.546875 
Q 19.921875 64.59375 19.921875 59.515625 
L 19.921875 54.6875 
L 34.71875 54.6875 
L 34.71875 47.703125 
L 19.921875 47.703125 
L 19.921875 0 
L 10.890625 0 
L 10.890625 47.703125 
L 2.296875 47.703125 
L 2.296875 54.6875 
L 10.890625 54.6875 
L 10.890625 58.5 
Q 10.890625 67.625 15.140625 71.796875 
Q 19.390625 75.984375 28.609375 75.984375 
z
" id="DejaVuSans-102"/>
      <path d="M 45.40625 27.984375 
Q 45.40625 37.75 41.375 43.109375 
Q 37.359375 48.484375 30.078125 48.484375 
Q 22.859375 48.484375 18.828125 43.109375 
Q 14.796875 37.75 14.796875 27.984375 
Q 14.796875 18.265625 18.828125 12.890625 
Q 22.859375 7.515625 30.078125 7.515625 
Q 37.359375 7.515625 41.375 12.890625 
Q 45.40625 18.265625 45.40625 27.984375 
z
M 54.390625 6.78125 
Q 54.390625 -7.171875 48.1875 -13.984375 
Q 42 -20.796875 29.203125 -20.796875 
Q 24.46875 -20.796875 20.265625 -20.09375 
Q 16.0625 -19.390625 12.109375 -17.921875 
L 12.109375 -9.1875 
Q 16.0625 -11.328125 19.921875 -12.34375 
Q 23.78125 -13.375 27.78125 -13.375 
Q 36.625 -13.375 41.015625 -8.765625 
Q 45.40625 -4.15625 45.40625 5.171875 
L 45.40625 9.625 
Q 42.625 4.78125 38.28125 2.390625 
Q 33.9375 0 27.875 0 
Q 17.828125 0 11.671875 7.65625 
Q 5.515625 15.328125 5.515625 27.984375 
Q 5.515625 40.671875 11.671875 48.328125 
Q 17.828125 56 27.875 56 
Q 33.9375 56 38.28125 53.609375 
Q 42.625 51.21875 45.40625 46.390625 
L 45.40625 54.6875 
L 54.390625 54.6875 
z
" id="DejaVuSans-103"/>
      <path d="M 34.28125 27.484375 
Q 23.390625 27.484375 19.1875 25 
Q 14.984375 22.515625 14.984375 16.5 
Q 14.984375 11.71875 18.140625 8.90625 
Q 21.296875 6.109375 26.703125 6.109375 
Q 34.1875 6.109375 38.703125 11.40625 
Q 43.21875 16.703125 43.21875 25.484375 
L 43.21875 27.484375 
z
M 52.203125 31.203125 
L 52.203125 0 
L 43.21875 0 
L 43.21875 8.296875 
Q 40.140625 3.328125 35.546875 0.953125 
Q 30.953125 -1.421875 24.3125 -1.421875 
Q 15.921875 -1.421875 10.953125 3.296875 
Q 6 8.015625 6 15.921875 
Q 6 25.140625 12.171875 29.828125 
Q 18.359375 34.515625 30.609375 34.515625 
L 43.21875 34.515625 
L 43.21875 35.40625 
Q 43.21875 41.609375 39.140625 45 
Q 35.0625 48.390625 27.6875 48.390625 
Q 23 48.390625 18.546875 47.265625 
Q 14.109375 46.140625 10.015625 43.890625 
L 10.015625 52.203125 
Q 14.9375 54.109375 19.578125 55.046875 
Q 24.21875 56 28.609375 56 
Q 40.484375 56 46.34375 49.84375 
Q 52.203125 43.703125 52.203125 31.203125 
z
" id="DejaVuSans-97"/>
      <path d="M 52 44.1875 
Q 55.375 50.25 60.0625 53.125 
Q 64.75 56 71.09375 56 
Q 79.640625 56 84.28125 50.015625 
Q 88.921875 44.046875 88.921875 33.015625 
L 88.921875 0 
L 79.890625 0 
L 79.890625 32.71875 
Q 79.890625 40.578125 77.09375 44.375 
Q 74.3125 48.1875 68.609375 48.1875 
Q 61.625 48.1875 57.5625 43.546875 
Q 53.515625 38.921875 53.515625 30.90625 
L 53.515625 0 
L 44.484375 0 
L 44.484375 32.71875 
Q 44.484375 40.625 41.703125 44.40625 
Q 38.921875 48.1875 33.109375 48.1875 
Q 26.21875 48.1875 22.15625 43.53125 
Q 18.109375 38.875 18.109375 30.90625 
L 18.109375 0 
L 9.078125 0 
L 9.078125 54.6875 
L 18.109375 54.6875 
L 18.109375 46.1875 
Q 21.1875 51.21875 25.484375 53.609375 
Q 29.78125 56 35.6875 56 
Q 41.65625 56 45.828125 52.96875 
Q 50 49.953125 52 44.1875 
z
" id="DejaVuSans-109"/>
      <path d="M 56.203125 29.59375 
L 56.203125 25.203125 
L 14.890625 25.203125 
Q 15.484375 15.921875 20.484375 11.0625 
Q 25.484375 6.203125 34.421875 6.203125 
Q 39.59375 6.203125 44.453125 7.46875 
Q 49.3125 8.734375 54.109375 11.28125 
L 54.109375 2.78125 
Q 49.265625 0.734375 44.1875 -0.34375 
Q 39.109375 -1.421875 33.890625 -1.421875 
Q 20.796875 -1.421875 13.15625 6.1875 
Q 5.515625 13.8125 5.515625 26.8125 
Q 5.515625 40.234375 12.765625 48.109375 
Q 20.015625 56 32.328125 56 
Q 43.359375 56 49.78125 48.890625 
Q 56.203125 41.796875 56.203125 29.59375 
z
M 47.21875 32.234375 
Q 47.125 39.59375 43.09375 43.984375 
Q 39.0625 48.390625 32.421875 48.390625 
Q 24.90625 48.390625 20.390625 44.140625 
Q 15.875 39.890625 15.1875 32.171875 
z
" id="DejaVuSans-101"/>
      <path d="M 44.28125 53.078125 
L 44.28125 44.578125 
Q 40.484375 46.53125 36.375 47.5 
Q 32.28125 48.484375 27.875 48.484375 
Q 21.1875 48.484375 17.84375 46.4375 
Q 14.5 44.390625 14.5 40.28125 
Q 14.5 37.15625 16.890625 35.375 
Q 19.28125 33.59375 26.515625 31.984375 
L 29.59375 31.296875 
Q 39.15625 29.25 43.1875 25.515625 
Q 47.21875 21.78125 47.21875 15.09375 
Q 47.21875 7.46875 41.1875 3.015625 
Q 35.15625 -1.421875 24.609375 -1.421875 
Q 20.21875 -1.421875 15.453125 -0.5625 
Q 10.6875 0.296875 5.421875 2 
L 5.421875 11.28125 
Q 10.40625 8.6875 15.234375 7.390625 
Q 20.0625 6.109375 24.8125 6.109375 
Q 31.15625 6.109375 34.5625 8.28125 
Q 37.984375 10.453125 37.984375 14.40625 
Q 37.984375 18.0625 35.515625 20.015625 
Q 33.0625 21.96875 24.703125 23.78125 
L 21.578125 24.515625 
Q 13.234375 26.265625 9.515625 29.90625 
Q 5.8125 33.546875 5.8125 39.890625 
Q 5.8125 47.609375 11.28125 51.796875 
Q 16.75 56 26.8125 56 
Q 31.78125 56 36.171875 55.265625 
Q 40.578125 54.546875 44.28125 53.078125 
z
" id="DejaVuSans-115"/>
     </defs>
     <g transform="translate(246.256641 414.912344)scale(0.25 -0.25)">
      <use xlink:href="#DejaVuSans-35"/>
      <use x="83.789062" xlink:href="#DejaVuSans-32"/>
      <use x="115.576172" xlink:href="#DejaVuSans-111"/>
      <use x="176.757812" xlink:href="#DejaVuSans-102"/>
      <use x="211.962891" xlink:href="#DejaVuSans-32"/>
      <use x="243.75" xlink:href="#DejaVuSans-103"/>
      <use x="307.226562" xlink:href="#DejaVuSans-97"/>
      <use x="368.505859" xlink:href="#DejaVuSans-109"/>
      <use x="465.917969" xlink:href="#DejaVuSans-101"/>
      <use x="527.441406" xlink:href="#DejaVuSans-115"/>
     </g>
    </g>
   </g>
   <g id="matplotlib.axis_2">
    <g id="ytick_1">
     <g id="line2d_10">
      <defs>
       <path d="M 0 0 
L -3.5 0 
" id="m2675497f49" style="stroke:#000000;stroke-width:0.8;"/>
      </defs>
      <g>
       <use style="stroke:#000000;stroke-width:0.8;" x="108.2" xlink:href="#m2675497f49" y="338.950551"/>
      </g>
     </g>
     <g id="text_11">
      <!-- 0.9994 -->
      <defs>
       <path d="M 10.6875 12.40625 
L 21 12.40625 
L 21 0 
L 10.6875 0 
z
" id="DejaVuSans-46"/>
       <path d="M 10.984375 1.515625 
L 10.984375 10.5 
Q 14.703125 8.734375 18.5 7.8125 
Q 22.3125 6.890625 25.984375 6.890625 
Q 35.75 6.890625 40.890625 13.453125 
Q 46.046875 20.015625 46.78125 33.40625 
Q 43.953125 29.203125 39.59375 26.953125 
Q 35.25 24.703125 29.984375 24.703125 
Q 19.046875 24.703125 12.671875 31.3125 
Q 6.296875 37.9375 6.296875 49.421875 
Q 6.296875 60.640625 12.9375 67.421875 
Q 19.578125 74.21875 30.609375 74.21875 
Q 43.265625 74.21875 49.921875 64.515625 
Q 56.59375 54.828125 56.59375 36.375 
Q 56.59375 19.140625 48.40625 8.859375 
Q 40.234375 -1.421875 26.421875 -1.421875 
Q 22.703125 -1.421875 18.890625 -0.6875 
Q 15.09375 0.046875 10.984375 1.515625 
z
M 30.609375 32.421875 
Q 37.25 32.421875 41.125 36.953125 
Q 45.015625 41.5 45.015625 49.421875 
Q 45.015625 57.28125 41.125 61.84375 
Q 37.25 66.40625 30.609375 66.40625 
Q 23.96875 66.40625 20.09375 61.84375 
Q 16.21875 57.28125 16.21875 49.421875 
Q 16.21875 41.5 20.09375 36.953125 
Q 23.96875 32.421875 30.609375 32.421875 
z
" id="DejaVuSans-57"/>
      </defs>
      <g transform="translate(31.21875 346.548989)scale(0.2 -0.2)">
       <use xlink:href="#DejaVuSans-48"/>
       <use x="63.623047" xlink:href="#DejaVuSans-46"/>
       <use x="95.410156" xlink:href="#DejaVuSans-57"/>
       <use x="159.033203" xlink:href="#DejaVuSans-57"/>
       <use x="222.65625" xlink:href="#DejaVuSans-57"/>
       <use x="286.279297" xlink:href="#DejaVuSans-52"/>
      </g>
     </g>
    </g>
    <g id="ytick_2">
     <g id="line2d_11">
      <g>
       <use style="stroke:#000000;stroke-width:0.8;" x="108.2" xlink:href="#m2675497f49" y="295.823641"/>
      </g>
     </g>
     <g id="text_12">
      <!-- 0.9995 -->
      <g transform="translate(31.21875 303.422079)scale(0.2 -0.2)">
       <use xlink:href="#DejaVuSans-48"/>
       <use x="63.623047" xlink:href="#DejaVuSans-46"/>
       <use x="95.410156" xlink:href="#DejaVuSans-57"/>
       <use x="159.033203" xlink:href="#DejaVuSans-57"/>
       <use x="222.65625" xlink:href="#DejaVuSans-57"/>
       <use x="286.279297" xlink:href="#DejaVuSans-53"/>
      </g>
     </g>
    </g>
    <g id="ytick_3">
     <g id="line2d_12">
      <g>
       <use style="stroke:#000000;stroke-width:0.8;" x="108.2" xlink:href="#m2675497f49" y="252.696731"/>
      </g>
     </g>
     <g id="text_13">
      <!-- 0.9996 -->
      <g transform="translate(31.21875 260.295169)scale(0.2 -0.2)">
       <use xlink:href="#DejaVuSans-48"/>
       <use x="63.623047" xlink:href="#DejaVuSans-46"/>
       <use x="95.410156" xlink:href="#DejaVuSans-57"/>
       <use x="159.033203" xlink:href="#DejaVuSans-57"/>
       <use x="222.65625" xlink:href="#DejaVuSans-57"/>
       <use x="286.279297" xlink:href="#DejaVuSans-54"/>
      </g>
     </g>
    </g>
    <g id="ytick_4">
     <g id="line2d_13">
      <g>
       <use style="stroke:#000000;stroke-width:0.8;" x="108.2" xlink:href="#m2675497f49" y="209.569821"/>
      </g>
     </g>
     <g id="text_14">
      <!-- 0.9997 -->
      <g transform="translate(31.21875 217.168259)scale(0.2 -0.2)">
       <use xlink:href="#DejaVuSans-48"/>
       <use x="63.623047" xlink:href="#DejaVuSans-46"/>
       <use x="95.410156" xlink:href="#DejaVuSans-57"/>
       <use x="159.033203" xlink:href="#DejaVuSans-57"/>
       <use x="222.65625" xlink:href="#DejaVuSans-57"/>
       <use x="286.279297" xlink:href="#DejaVuSans-55"/>
      </g>
     </g>
    </g>
    <g id="ytick_5">
     <g id="line2d_14">
      <g>
       <use style="stroke:#000000;stroke-width:0.8;" x="108.2" xlink:href="#m2675497f49" y="166.442911"/>
      </g>
     </g>
     <g id="text_15">
      <!-- 0.9998 -->
      <g transform="translate(31.21875 174.041349)scale(0.2 -0.2)">
       <use xlink:href="#DejaVuSans-48"/>
       <use x="63.623047" xlink:href="#DejaVuSans-46"/>
       <use x="95.410156" xlink:href="#DejaVuSans-57"/>
       <use x="159.033203" xlink:href="#DejaVuSans-57"/>
       <use x="222.65625" xlink:href="#DejaVuSans-57"/>
       <use x="286.279297" xlink:href="#DejaVuSans-56"/>
      </g>
     </g>
    </g>
    <g id="ytick_6">
     <g id="line2d_15">
      <g>
       <use style="stroke:#000000;stroke-width:0.8;" x="108.2" xlink:href="#m2675497f49" y="123.316001"/>
      </g>
     </g>
     <g id="text_16">
      <!-- 0.9999 -->
      <g transform="translate(31.21875 130.914438)scale(0.2 -0.2)">
       <use xlink:href="#DejaVuSans-48"/>
       <use x="63.623047" xlink:href="#DejaVuSans-46"/>
       <use x="95.410156" xlink:href="#DejaVuSans-57"/>
       <use x="159.033203" xlink:href="#DejaVuSans-57"/>
       <use x="222.65625" xlink:href="#DejaVuSans-57"/>
       <use x="286.279297" xlink:href="#DejaVuSans-57"/>
      </g>
     </g>
    </g>
    <g id="ytick_7">
     <g id="line2d_16">
      <g>
       <use style="stroke:#000000;stroke-width:0.8;" x="108.2" xlink:href="#m2675497f49" y="80.189091"/>
      </g>
     </g>
     <g id="text_17">
      <!-- 1.0000 -->
      <g transform="translate(31.21875 87.787528)scale(0.2 -0.2)">
       <use xlink:href="#DejaVuSans-49"/>
       <use x="63.623047" xlink:href="#DejaVuSans-46"/>
       <use x="95.410156" xlink:href="#DejaVuSans-48"/>
       <use x="159.033203" xlink:href="#DejaVuSans-48"/>
       <use x="222.65625" xlink:href="#DejaVuSans-48"/>
       <use x="286.279297" xlink:href="#DejaVuSans-48"/>
      </g>
     </g>
    </g>
    <g id="text_18">
     <!-- defense impact Value -->
     <defs>
      <path d="M 45.40625 46.390625 
L 45.40625 75.984375 
L 54.390625 75.984375 
L 54.390625 0 
L 45.40625 0 
L 45.40625 8.203125 
Q 42.578125 3.328125 38.25 0.953125 
Q 33.9375 -1.421875 27.875 -1.421875 
Q 17.96875 -1.421875 11.734375 6.484375 
Q 5.515625 14.40625 5.515625 27.296875 
Q 5.515625 40.1875 11.734375 48.09375 
Q 17.96875 56 27.875 56 
Q 33.9375 56 38.25 53.625 
Q 42.578125 51.265625 45.40625 46.390625 
z
M 14.796875 27.296875 
Q 14.796875 17.390625 18.875 11.75 
Q 22.953125 6.109375 30.078125 6.109375 
Q 37.203125 6.109375 41.296875 11.75 
Q 45.40625 17.390625 45.40625 27.296875 
Q 45.40625 37.203125 41.296875 42.84375 
Q 37.203125 48.484375 30.078125 48.484375 
Q 22.953125 48.484375 18.875 42.84375 
Q 14.796875 37.203125 14.796875 27.296875 
z
" id="DejaVuSans-100"/>
      <path d="M 54.890625 33.015625 
L 54.890625 0 
L 45.90625 0 
L 45.90625 32.71875 
Q 45.90625 40.484375 42.875 44.328125 
Q 39.84375 48.1875 33.796875 48.1875 
Q 26.515625 48.1875 22.3125 43.546875 
Q 18.109375 38.921875 18.109375 30.90625 
L 18.109375 0 
L 9.078125 0 
L 9.078125 54.6875 
L 18.109375 54.6875 
L 18.109375 46.1875 
Q 21.34375 51.125 25.703125 53.5625 
Q 30.078125 56 35.796875 56 
Q 45.21875 56 50.046875 50.171875 
Q 54.890625 44.34375 54.890625 33.015625 
z
" id="DejaVuSans-110"/>
      <path d="M 9.421875 54.6875 
L 18.40625 54.6875 
L 18.40625 0 
L 9.421875 0 
z
M 9.421875 75.984375 
L 18.40625 75.984375 
L 18.40625 64.59375 
L 9.421875 64.59375 
z
" id="DejaVuSans-105"/>
      <path d="M 18.109375 8.203125 
L 18.109375 -20.796875 
L 9.078125 -20.796875 
L 9.078125 54.6875 
L 18.109375 54.6875 
L 18.109375 46.390625 
Q 20.953125 51.265625 25.265625 53.625 
Q 29.59375 56 35.59375 56 
Q 45.5625 56 51.78125 48.09375 
Q 58.015625 40.1875 58.015625 27.296875 
Q 58.015625 14.40625 51.78125 6.484375 
Q 45.5625 -1.421875 35.59375 -1.421875 
Q 29.59375 -1.421875 25.265625 0.953125 
Q 20.953125 3.328125 18.109375 8.203125 
z
M 48.6875 27.296875 
Q 48.6875 37.203125 44.609375 42.84375 
Q 40.53125 48.484375 33.40625 48.484375 
Q 26.265625 48.484375 22.1875 42.84375 
Q 18.109375 37.203125 18.109375 27.296875 
Q 18.109375 17.390625 22.1875 11.75 
Q 26.265625 6.109375 33.40625 6.109375 
Q 40.53125 6.109375 44.609375 11.75 
Q 48.6875 17.390625 48.6875 27.296875 
z
" id="DejaVuSans-112"/>
      <path d="M 48.78125 52.59375 
L 48.78125 44.1875 
Q 44.96875 46.296875 41.140625 47.34375 
Q 37.3125 48.390625 33.40625 48.390625 
Q 24.65625 48.390625 19.8125 42.84375 
Q 14.984375 37.3125 14.984375 27.296875 
Q 14.984375 17.28125 19.8125 11.734375 
Q 24.65625 6.203125 33.40625 6.203125 
Q 37.3125 6.203125 41.140625 7.25 
Q 44.96875 8.296875 48.78125 10.40625 
L 48.78125 2.09375 
Q 45.015625 0.34375 40.984375 -0.53125 
Q 36.96875 -1.421875 32.421875 -1.421875 
Q 20.0625 -1.421875 12.78125 6.34375 
Q 5.515625 14.109375 5.515625 27.296875 
Q 5.515625 40.671875 12.859375 48.328125 
Q 20.21875 56 33.015625 56 
Q 37.15625 56 41.109375 55.140625 
Q 45.0625 54.296875 48.78125 52.59375 
z
" id="DejaVuSans-99"/>
      <path d="M 18.3125 70.21875 
L 18.3125 54.6875 
L 36.8125 54.6875 
L 36.8125 47.703125 
L 18.3125 47.703125 
L 18.3125 18.015625 
Q 18.3125 11.328125 20.140625 9.421875 
Q 21.96875 7.515625 27.59375 7.515625 
L 36.8125 7.515625 
L 36.8125 0 
L 27.59375 0 
Q 17.1875 0 13.234375 3.875 
Q 9.28125 7.765625 9.28125 18.015625 
L 9.28125 47.703125 
L 2.6875 47.703125 
L 2.6875 54.6875 
L 9.28125 54.6875 
L 9.28125 70.21875 
z
" id="DejaVuSans-116"/>
      <path d="M 28.609375 0 
L 0.78125 72.90625 
L 11.078125 72.90625 
L 34.1875 11.53125 
L 57.328125 72.90625 
L 67.578125 72.90625 
L 39.796875 0 
z
" id="DejaVuSans-86"/>
      <path d="M 9.421875 75.984375 
L 18.40625 75.984375 
L 18.40625 0 
L 9.421875 0 
z
" id="DejaVuSans-108"/>
      <path d="M 8.5 21.578125 
L 8.5 54.6875 
L 17.484375 54.6875 
L 17.484375 21.921875 
Q 17.484375 14.15625 20.5 10.265625 
Q 23.53125 6.390625 29.59375 6.390625 
Q 36.859375 6.390625 41.078125 11.03125 
Q 45.3125 15.671875 45.3125 23.6875 
L 45.3125 54.6875 
L 54.296875 54.6875 
L 54.296875 0 
L 45.3125 0 
L 45.3125 8.40625 
Q 42.046875 3.421875 37.71875 1 
Q 33.40625 -1.421875 27.6875 -1.421875 
Q 18.265625 -1.421875 13.375 4.4375 
Q 8.5 10.296875 8.5 21.578125 
z
M 31.109375 56 
z
" id="DejaVuSans-117"/>
     </defs>
     <g transform="translate(23.752604 306.806562)rotate(-90)scale(0.166667 -0.166667)">
      <use xlink:href="#DejaVuSans-100"/>
      <use x="63.476562" xlink:href="#DejaVuSans-101"/>
      <use x="125" xlink:href="#DejaVuSans-102"/>
      <use x="160.205078" xlink:href="#DejaVuSans-101"/>
      <use x="221.728516" xlink:href="#DejaVuSans-110"/>
      <use x="285.107422" xlink:href="#DejaVuSans-115"/>
      <use x="337.207031" xlink:href="#DejaVuSans-101"/>
      <use x="398.730469" xlink:href="#DejaVuSans-32"/>
      <use x="430.517578" xlink:href="#DejaVuSans-105"/>
      <use x="458.300781" xlink:href="#DejaVuSans-109"/>
      <use x="555.712891" xlink:href="#DejaVuSans-112"/>
      <use x="619.189453" xlink:href="#DejaVuSans-97"/>
      <use x="680.46875" xlink:href="#DejaVuSans-99"/>
      <use x="735.449219" xlink:href="#DejaVuSans-116"/>
      <use x="774.658203" xlink:href="#DejaVuSans-32"/>
      <use x="806.445312" xlink:href="#DejaVuSans-86"/>
      <use x="874.744141" xlink:href="#DejaVuSans-97"/>
      <use x="936.023438" xlink:href="#DejaVuSans-108"/>
      <use x="963.806641" xlink:href="#DejaVuSans-117"/>
      <use x="1027.185547" xlink:href="#DejaVuSans-101"/>
     </g>
    </g>
   </g>
   <g id="line2d_17">
    <path clip-path="url(#pbb91b618a3)" d="M 127.336364 80.189091 
L 132.061392 80.189091 
L 136.78642 98.04973 
L 141.511448 115.801464 
L 146.236476 157.621498 
L 150.961504 167.640881 
L 155.686532 185.610427 
L 160.41156 187.062511 
L 165.136588 208.916383 
L 169.861616 220.89608 
L 174.586644 222.856394 
L 179.311672 227.575669 
L 184.0367 250.772352 
L 188.761728 201.990242 
L 193.486756 205.603338 
L 198.211785 191.103631 
L 202.936813 200.82259 
L 207.661841 206.586447 
L 212.386869 203.350649 
L 217.111897 207.246486 
L 221.836925 207.125479 
L 226.561953 237.545968 
L 231.286981 253.069121 
L 236.012009 246.701151 
L 240.737037 245.8679 
L 245.462065 241.779836 
L 250.187093 195.647961 
L 254.912121 194.03655 
L 259.637149 153.7268 
L 264.362177 172.374456 
L 269.087205 165.664066 
L 273.812233 174.398574 
L 278.537262 148.437063 
L 283.26229 160.268863 
L 287.987318 181.320727 
L 292.712346 182.92407 
L 297.437374 120.302926 
L 302.162402 114.434084 
L 306.88743 116.106828 
L 311.612458 120.508638 
L 316.337486 129.234974 
L 321.062514 138.442869 
L 325.787542 121.222446 
L 330.51257 137.259204 
L 335.237598 115.35028 
L 339.962626 115.35028 
L 344.687654 121.803989 
L 349.412682 158.329389 
L 354.13771 149.337893 
L 358.862738 95.688993 
L 363.587767 105.369556 
L 368.312795 121.771511 
L 373.037823 114.44921 
L 377.762851 136.911142 
L 382.487879 106.81064 
L 387.212907 106.81064 
L 391.937935 106.81064 
L 396.662963 103.785464 
L 401.387991 99.990243 
L 406.113019 97.35009 
L 410.838047 97.35009 
L 415.563075 91.079725 
L 420.288103 107.415676 
L 425.013131 107.415676 
L 429.738159 107.415676 
L 434.463187 107.415676 
L 439.188215 107.415676 
L 443.913244 83.540055 
L 448.638272 83.540055 
L 453.3633 83.540055 
L 458.088328 83.540055 
L 462.813356 80.189091 
L 467.538384 80.189091 
L 472.263412 80.189091 
L 476.98844 80.189091 
L 481.713468 210.876697 
L 486.438496 210.876697 
L 491.163524 210.876697 
L 495.888552 119.395373 
L 500.61358 119.395373 
L 505.338608 119.395373 
L 510.063636 119.395373 
" style="fill:none;stroke:#1f77b4;stroke-linecap:square;stroke-width:1.5;"/>
   </g>
   <g id="line2d_18">
    <path clip-path="url(#pbb91b618a3)" d="M 127.336364 80.189091 
L 132.061392 80.189091 
L 136.78642 83.238468 
L 141.511448 111.009585 
L 146.236476 122.335844 
L 150.961504 136.058043 
L 155.686532 163.284627 
L 160.41156 152.285087 
L 165.136588 153.156338 
L 169.861616 185.828239 
L 174.586644 169.710101 
L 179.311672 169.710101 
L 184.0367 168.964258 
L 188.761728 175.935914 
L 193.486756 173.581053 
L 198.211785 173.570483 
L 202.936813 171.654632 
L 207.661841 197.593424 
L 212.386869 201.544398 
L 217.111897 219.22121 
L 221.836925 233.192413 
L 226.561953 225.121442 
L 231.286981 236.463832 
L 236.012009 223.232153 
L 240.737037 188.019811 
L 245.462065 178.127557 
L 250.187093 177.297243 
L 254.912121 123.852466 
L 259.637149 124.353204 
L 264.362177 131.430073 
L 269.087205 137.326416 
L 273.812233 138.7565 
L 278.537262 112.188731 
L 283.26229 117.029013 
L 287.987318 138.877507 
L 292.712346 169.459287 
L 297.437374 147.819927 
L 302.162402 143.23376 
L 306.88743 145.020394 
L 311.612458 144.226018 
L 316.337486 144.226018 
L 321.062514 260.818032 
L 325.787542 274.712566 
L 330.51257 251.255817 
L 335.237598 312.764627 
L 339.962626 321.369572 
L 344.687654 327.823281 
L 349.412682 351.970909 
L 354.13771 181.189636 
L 358.862738 152.147946 
L 363.587767 152.147946 
L 368.312795 248.933412 
L 373.037823 248.933412 
L 377.762851 248.933412 
L 382.487879 192.241613 
L 387.212907 135.368302 
L 391.937935 135.368302 
L 396.662963 109.494797 
L 401.387991 109.494797 
L 406.113019 109.494797 
L 410.838047 109.494797 
L 415.563075 109.494797 
L 420.288103 109.494797 
L 425.013131 109.494797 
L 429.738159 92.069782 
L 434.463187 80.189091 
L 439.188215 80.189091 
L 443.913244 83.540055 
L 448.638272 83.540055 
L 453.3633 83.540055 
L 458.088328 83.540055 
L 462.813356 83.540055 
L 467.538384 83.540055 
L 472.263412 86.891019 
L 476.98844 86.891019 
L 481.713468 86.891019 
L 486.438496 80.189091 
L 491.163524 80.189091 
L 495.888552 80.189091 
L 500.61358 80.189091 
L 505.338608 80.189091 
L 510.063636 80.189091 
" style="fill:none;stroke:#ff7f0e;stroke-linecap:square;stroke-width:1.5;"/>
   </g>
   <g id="line2d_19">
    <path clip-path="url(#pbb91b618a3)" d="M 127.336364 80.189091 
L 132.061392 80.189091 
L 136.78642 80.189091 
L 141.511448 80.189091 
L 146.236476 80.189091 
L 150.961504 80.189091 
L 155.686532 82.367218 
L 160.41156 84.109719 
L 165.136588 107.052654 
L 169.861616 118.378914 
L 174.586644 117.943288 
L 179.311672 111.408908 
L 184.0367 111.72426 
L 188.761728 116.415574 
L 193.486756 135.368302 
L 198.211785 141.284774 
L 202.936813 139.771907 
L 207.661841 149.41062 
L 212.386869 159.433947 
L 217.111897 171.839494 
L 221.836925 174.826682 
L 226.561953 187.663797 
L 231.286981 174.223274 
L 236.012009 162.028065 
L 240.737037 162.810011 
L 245.462065 135.672107 
L 250.187093 139.664052 
L 254.912121 158.64199 
L 259.637149 176.275598 
L 264.362177 182.759061 
L 269.087205 182.759061 
L 273.812233 188.369387 
L 278.537262 231.851251 
L 283.26229 223.784115 
L 287.987318 213.901873 
L 292.712346 226.057581 
L 297.437374 224.961917 
L 302.162402 241.8545 
L 306.88743 202.42044 
L 311.612458 197.06576 
L 316.337486 265.81159 
L 321.062514 167.521602 
L 325.787542 197.305292 
L 330.51257 135.684782 
L 335.237598 145.506004 
L 339.962626 155.186567 
L 344.687654 164.86713 
L 349.412682 175.451885 
L 354.13771 99.68467 
L 358.862738 95.51665 
L 363.587767 95.51665 
L 368.312795 103.180429 
L 373.037823 137.364919 
L 377.762851 137.364919 
L 382.487879 154.003387 
L 387.212907 138.272471 
L 391.937935 146.192932 
L 396.662963 92.069782 
L 401.387991 92.069782 
L 406.113019 92.069782 
L 410.838047 92.069782 
L 415.563075 92.069782 
L 420.288103 92.069782 
L 425.013131 92.069782 
L 429.738159 92.069782 
L 434.463187 92.069782 
L 439.188215 92.069782 
L 443.913244 92.069782 
L 448.638272 92.069782 
L 453.3633 92.069782 
L 458.088328 92.069782 
L 462.813356 92.069782 
L 467.538384 92.069782 
L 472.263412 103.950474 
L 476.98844 80.189091 
L 481.713468 80.189091 
L 486.438496 80.189091 
L 491.163524 80.189091 
L 495.888552 80.189091 
L 500.61358 132.464133 
L 505.338608 132.464133 
L 510.063636 132.464133 
" style="fill:none;stroke:#2ca02c;stroke-linecap:square;stroke-width:1.5;"/>
   </g>
   <g id="line2d_20">
    <path clip-path="url(#pbb91b618a3)" d="M 127.336364 80.189091 
L 132.061392 80.189091 
L 136.78642 80.189091 
L 141.511448 80.189091 
L 146.236476 80.189091 
L 150.961504 80.189091 
L 155.686532 85.416595 
L 160.41156 85.416595 
L 165.136588 83.674094 
L 169.861616 99.501815 
L 174.586644 99.501815 
L 179.311672 106.907446 
L 184.0367 121.258148 
L 188.761728 131.617084 
L 193.486756 134.909749 
L 198.211785 136.882178 
L 202.936813 135.98386 
L 207.661841 141.490159 
L 212.386869 127.647463 
L 217.111897 128.724518 
L 221.836925 136.659044 
L 226.561953 143.436575 
L 231.286981 143.834892 
L 236.012009 152.98438 
L 240.737037 152.591638 
L 245.462065 150.398922 
L 250.187093 149.798392 
L 254.912121 158.74283 
L 259.637149 159.742578 
L 264.362177 165.620063 
L 269.087205 165.620063 
L 273.812233 165.620063 
L 278.537262 173.633418 
L 283.26229 173.633418 
L 287.987318 159.90248 
L 292.712346 161.208806 
L 297.437374 138.817003 
L 302.162402 131.173392 
L 306.88743 134.172468 
L 311.612458 150.082759 
L 316.337486 150.082759 
L 321.062514 142.110123 
L 325.787542 136.820387 
L 330.51257 136.820387 
L 335.237598 114.071063 
L 339.962626 143.112753 
L 344.687654 143.112753 
L 349.412682 150.978211 
L 354.13771 131.012049 
L 358.862738 131.012049 
L 363.587767 131.012049 
L 368.312795 145.532894 
L 373.037823 145.532894 
L 377.762851 145.532894 
L 382.487879 167.314162 
L 387.212907 167.314162 
L 391.937935 167.314162 
L 396.662963 80.189091 
L 401.387991 80.189091 
L 406.113019 80.189091 
L 410.838047 98.010128 
L 415.563075 98.010128 
L 420.288103 98.010128 
L 425.013131 98.010128 
L 429.738159 98.010128 
L 434.463187 98.010128 
L 439.188215 98.010128 
L 443.913244 98.010128 
L 448.638272 98.010128 
L 453.3633 98.010128 
L 458.088328 98.010128 
L 462.813356 98.010128 
L 467.538384 98.010128 
L 472.263412 115.831165 
L 476.98844 115.831165 
L 481.713468 115.831165 
L 486.438496 115.831165 
L 491.163524 115.831165 
L 495.888552 115.831165 
L 500.61358 115.831165 
L 505.338608 115.831165 
L 510.063636 115.831165 
" style="fill:none;stroke:#d62728;stroke-linecap:square;stroke-width:1.5;"/>
   </g>
   <g id="line2d_21">
    <path clip-path="url(#pbb91b618a3)" d="M 127.336364 80.189091 
L 132.061392 80.189091 
L 136.78642 80.189091 
L 141.511448 80.189091 
L 146.236476 80.189091 
L 150.961504 80.189091 
L 155.686532 80.189091 
L 160.41156 84.728766 
L 165.136588 85.485378 
L 169.861616 85.485378 
L 174.586644 101.752546 
L 179.311672 101.752546 
L 184.0367 101.970359 
L 188.761728 97.922195 
L 193.486756 98.10886 
L 198.211785 98.299495 
L 202.936813 98.6932 
L 207.661841 100.53738 
L 212.386869 104.333025 
L 217.111897 117.501486 
L 221.836925 128.703362 
L 226.561953 130.80753 
L 231.286981 127.782455 
L 236.012009 131.957312 
L 240.737037 139.970816 
L 245.462065 147.264663 
L 250.187093 100.365423 
L 254.912121 106.547928 
L 259.637149 107.301037 
L 264.362177 108.944186 
L 269.087205 108.944186 
L 273.812233 108.944186 
L 278.537262 115.334207 
L 283.26229 115.334207 
L 287.987318 98.710333 
L 292.712346 93.945681 
L 297.437374 94.060319 
L 302.162402 95.601567 
L 306.88743 96.508183 
L 311.612458 85.233174 
L 316.337486 85.233174 
L 321.062514 85.593466 
L 325.787542 86.009187 
L 330.51257 86.009187 
L 335.237598 88.595896 
L 339.962626 88.595896 
L 344.687654 88.595896 
L 349.412682 89.646747 
L 354.13771 92.799299 
L 358.862738 92.799299 
L 363.587767 92.799299 
L 368.312795 80.189091 
L 373.037823 80.189091 
L 377.762851 80.189091 
L 382.487879 123.273967 
L 387.212907 123.273967 
L 391.937935 123.273967 
L 396.662963 127.477369 
L 401.387991 127.477369 
L 406.113019 127.477369 
L 410.838047 127.477369 
L 415.563075 127.477369 
L 420.288103 127.477369 
L 425.013131 127.477369 
L 429.738159 127.477369 
L 434.463187 127.477369 
L 439.188215 127.477369 
L 443.913244 127.477369 
L 448.638272 127.477369 
L 453.3633 127.477369 
L 458.088328 127.477369 
L 462.813356 127.477369 
L 467.538384 127.477369 
L 472.263412 80.189091 
L 476.98844 80.189091 
L 481.713468 80.189091 
L 486.438496 80.189091 
L 491.163524 80.189091 
L 495.888552 80.189091 
L 500.61358 80.189091 
L 505.338608 80.189091 
L 510.063636 80.189091 
" style="fill:none;stroke:#9467bd;stroke-linecap:square;stroke-width:1.5;"/>
   </g>
   <g id="line2d_22">
    <path clip-path="url(#pbb91b618a3)" d="M 127.336364 80.189091 
L 132.061392 80.189091 
L 136.78642 80.189091 
L 141.511448 80.189091 
L 146.236476 81.931592 
L 150.961504 81.931592 
L 155.686532 81.931592 
L 160.41156 80.189091 
L 165.136588 114.603494 
L 169.861616 104.801923 
L 174.586644 115.256932 
L 179.311672 133.335384 
L 184.0367 128.261889 
L 188.761728 131.428011 
L 193.486756 125.677549 
L 198.211785 155.017786 
L 202.936813 116.727957 
L 207.661841 144.278821 
L 212.386869 150.597481 
L 217.111897 156.393691 
L 221.836925 173.687199 
L 226.561953 180.055692 
L 231.286981 177.923747 
L 236.012009 151.532296 
L 240.737037 158.722662 
L 245.462065 154.773198 
L 250.187093 159.717945 
L 254.912121 144.31274 
L 259.637149 179.677624 
L 264.362177 218.753156 
L 269.087205 165.500628 
L 273.812233 198.01852 
L 278.537262 178.70419 
L 283.26229 170.944373 
L 287.987318 142.749732 
L 292.712346 158.00762 
L 297.437374 179.935196 
L 302.162402 168.161211 
L 306.88743 167.228745 
L 311.612458 201.615625 
L 316.337486 233.997109 
L 321.062514 218.949596 
L 325.787542 183.547722 
L 330.51257 139.836255 
L 335.237598 148.360233 
L 339.962626 173.63726 
L 344.687654 160.215082 
L 349.412682 184.557665 
L 354.13771 142.386711 
L 358.862738 142.386711 
L 363.587767 138.030457 
L 368.312795 188.93042 
L 373.037823 221.602321 
L 377.762851 147.953035 
L 382.487879 94.306579 
L 387.212907 94.306579 
L 391.937935 199.582706 
L 396.662963 101.365323 
L 401.387991 101.365323 
L 406.113019 101.365323 
L 410.838047 98.010128 
L 415.563075 98.010128 
L 420.288103 107.415676 
L 425.013131 80.189091 
L 429.738159 80.189091 
L 434.463187 80.189091 
L 439.188215 80.189091 
L 443.913244 80.189091 
L 448.638272 80.189091 
L 453.3633 129.895061 
L 458.088328 116.491204 
L 462.813356 80.189091 
L 467.538384 80.189091 
L 472.263412 80.189091 
L 476.98844 80.189091 
L 481.713468 80.189091 
L 486.438496 80.189091 
L 491.163524 80.189091 
L 495.888552 80.189091 
L 500.61358 80.189091 
L 505.338608 80.189091 
L 510.063636 330.67367 
" style="fill:none;stroke:#8c564b;stroke-linecap:square;stroke-width:1.5;"/>
   </g>
   <g id="line2d_23">
    <path clip-path="url(#pbb91b618a3)" d="M 127.336364 80.189091 
L 132.061392 80.189091 
L 136.78642 80.189091 
L 141.511448 80.189091 
L 146.236476 80.189091 
L 150.961504 80.189091 
L 155.686532 80.189091 
L 160.41156 85.416595 
L 165.136588 85.416595 
L 169.861616 89.337223 
L 174.586644 97.614105 
L 179.311672 96.307229 
L 184.0367 103.950474 
L 188.761728 108.09634 
L 193.486756 110.682866 
L 198.211785 122.902002 
L 202.936813 127.855343 
L 207.661841 139.675053 
L 212.386869 135.262052 
L 217.111897 138.769761 
L 221.836925 153.499191 
L 226.561953 160.667296 
L 231.286981 174.867343 
L 236.012009 161.900689 
L 240.737037 162.608332 
L 245.462065 163.761189 
L 250.187093 173.703334 
L 254.912121 192.564298 
L 259.637149 189.178406 
L 264.362177 162.517883 
L 269.087205 161.197806 
L 273.812233 164.894021 
L 278.537262 132.625476 
L 283.26229 105.735022 
L 287.987318 136.154848 
L 292.712346 136.292356 
L 297.437374 161.566327 
L 302.162402 133.015388 
L 306.88743 136.008928 
L 311.612458 139.579348 
L 316.337486 139.579348 
L 321.062514 143.821509 
L 325.787542 127.772783 
L 330.51257 135.5917 
L 335.237598 80.189091 
L 339.962626 80.189091 
L 344.687654 181.835007 
L 349.412682 105.237549 
L 354.13771 88.901598 
L 358.862738 88.901598 
L 363.587767 88.901598 
L 368.312795 93.257852 
L 373.037823 93.257852 
L 377.762851 127.533096 
L 382.487879 94.306579 
L 387.212907 94.306579 
L 391.937935 94.306579 
L 396.662963 101.365323 
L 401.387991 101.365323 
L 406.113019 101.365323 
L 410.838047 101.365323 
L 415.563075 101.365323 
L 420.288103 101.365323 
L 425.013131 101.365323 
L 429.738159 80.189091 
L 434.463187 80.189091 
L 439.188215 85.215537 
L 443.913244 85.215537 
L 448.638272 85.215537 
L 453.3633 85.215537 
L 458.088328 85.215537 
L 462.813356 85.215537 
L 467.538384 85.215537 
L 472.263412 90.241984 
L 476.98844 90.241984 
L 481.713468 90.241984 
L 486.438496 90.241984 
L 491.163524 125.307431 
L 495.888552 125.307431 
L 500.61358 125.307431 
L 505.338608 178.88546 
L 510.063636 178.88546 
" style="fill:none;stroke:#e377c2;stroke-linecap:square;stroke-width:1.5;"/>
   </g>
   <g id="line2d_24">
    <path clip-path="url(#pbb91b618a3)" d="M 127.336364 80.189091 
L 132.061392 80.189091 
L 136.78642 98.04973 
L 141.511448 110.682866 
L 146.236476 102.405984 
L 150.961504 109.37599 
L 155.686532 132.464133 
L 160.41156 153.664567 
L 165.136588 160.634573 
L 169.861616 176.38969 
L 174.586644 177.986983 
L 179.311672 170.799165 
L 184.0367 198.922668 
L 188.761728 206.913717 
L 193.486756 227.27761 
L 198.211785 217.565555 
L 202.936813 211.902626 
L 207.661841 192.18936 
L 212.386869 157.618841 
L 217.111897 168.358469 
L 221.836925 173.314094 
L 226.561953 179.943207 
L 231.286981 187.221772 
L 236.012009 179.796994 
L 240.737037 170.070433 
L 245.462065 164.610813 
L 250.187093 159.418452 
L 254.912121 147.045482 
L 259.637149 173.32994 
L 264.362177 203.440264 
L 269.087205 174.398574 
L 273.812233 177.133019 
L 278.537262 210.459895 
L 283.26229 212.880036 
L 287.987318 227.159707 
L 292.712346 189.532705 
L 297.437374 240.762412 
L 302.162402 201.125546 
L 306.88743 201.406117 
L 311.612458 135.283598 
L 316.337486 141.721172 
L 321.062514 132.632679 
L 325.787542 161.894775 
L 330.51257 232.265024 
L 335.237598 277.508361 
L 339.962626 291.769905 
L 344.687654 291.104367 
L 349.412682 301.132825 
L 354.13771 179.47537 
L 358.862738 179.47537 
L 363.587767 153.53586 
L 368.312795 185.753985 
L 373.037823 185.753985 
L 377.762851 185.753985 
L 382.487879 171.934431 
L 387.212907 171.934431 
L 391.937935 157.413586 
L 396.662963 98.010128 
L 401.387991 98.010128 
L 406.113019 98.010128 
L 410.838047 98.010128 
L 415.563075 80.189091 
L 420.288103 80.189091 
L 425.013131 80.189091 
L 429.738159 80.189091 
L 434.463187 80.189091 
L 439.188215 80.189091 
L 443.913244 80.189091 
L 448.638272 86.891019 
L 453.3633 86.891019 
L 458.088328 86.891019 
L 462.813356 86.891019 
L 467.538384 86.891019 
L 472.263412 80.189091 
L 476.98844 80.189091 
L 481.713468 80.189091 
L 486.438496 80.189091 
L 491.163524 80.189091 
L 495.888552 80.189091 
L 500.61358 80.189091 
L 505.338608 80.189091 
L 510.063636 330.67367 
" style="fill:none;stroke:#7f7f7f;stroke-linecap:square;stroke-width:1.5;"/>
   </g>
   <g id="patch_3">
    <path d="M 108.2 365.56 
L 108.2 66.6 
" style="fill:none;stroke:#000000;stroke-linecap:square;stroke-linejoin:miter;stroke-width:0.8;"/>
   </g>
   <g id="patch_4">
    <path d="M 529.2 365.56 
L 529.2 66.6 
" style="fill:none;stroke:#000000;stroke-linecap:square;stroke-linejoin:miter;stroke-width:0.8;"/>
   </g>
   <g id="patch_5">
    <path d="M 108.2 365.56 
L 529.2 365.56 
" style="fill:none;stroke:#000000;stroke-linecap:square;stroke-linejoin:miter;stroke-width:0.8;"/>
   </g>
   <g id="patch_6">
    <path d="M 108.2 66.6 
L 529.2 66.6 
" style="fill:none;stroke:#000000;stroke-linecap:square;stroke-linejoin:miter;stroke-width:0.8;"/>
   </g>
   <g id="legend_1">
    <g id="patch_7">
     <path d="M 118.7 59.1 
L 518.7 59.1 
Q 521.7 59.1 521.7 56.1 
L 521.7 13.565625 
Q 521.7 10.565625 518.7 10.565625 
L 118.7 10.565625 
Q 115.7 10.565625 115.7 13.565625 
L 115.7 56.1 
Q 115.7 59.1 118.7 59.1 
z
" style="fill:#ffffff;opacity:0.8;stroke:#cccccc;stroke-linejoin:miter;"/>
    </g>
    <g id="line2d_25">
     <path d="M 121.7 22.713281 
L 151.7 22.713281 
" style="fill:none;stroke:#1f77b4;stroke-linecap:square;stroke-width:1.5;"/>
    </g>
    <g id="line2d_26"/>
    <g id="text_19">
     <!-- Stra 1 -->
     <defs>
      <path d="M 53.515625 70.515625 
L 53.515625 60.890625 
Q 47.90625 63.578125 42.921875 64.890625 
Q 37.9375 66.21875 33.296875 66.21875 
Q 25.25 66.21875 20.875 63.09375 
Q 16.5 59.96875 16.5 54.203125 
Q 16.5 49.359375 19.40625 46.890625 
Q 22.3125 44.4375 30.421875 42.921875 
L 36.375 41.703125 
Q 47.40625 39.59375 52.65625 34.296875 
Q 57.90625 29 57.90625 20.125 
Q 57.90625 9.515625 50.796875 4.046875 
Q 43.703125 -1.421875 29.984375 -1.421875 
Q 24.8125 -1.421875 18.96875 -0.25 
Q 13.140625 0.921875 6.890625 3.21875 
L 6.890625 13.375 
Q 12.890625 10.015625 18.65625 8.296875 
Q 24.421875 6.59375 29.984375 6.59375 
Q 38.421875 6.59375 43.015625 9.90625 
Q 47.609375 13.234375 47.609375 19.390625 
Q 47.609375 24.75 44.3125 27.78125 
Q 41.015625 30.8125 33.5 32.328125 
L 27.484375 33.5 
Q 16.453125 35.6875 11.515625 40.375 
Q 6.59375 45.0625 6.59375 53.421875 
Q 6.59375 63.09375 13.40625 68.65625 
Q 20.21875 74.21875 32.171875 74.21875 
Q 37.3125 74.21875 42.625 73.28125 
Q 47.953125 72.359375 53.515625 70.515625 
z
" id="DejaVuSans-83"/>
      <path d="M 41.109375 46.296875 
Q 39.59375 47.171875 37.8125 47.578125 
Q 36.03125 48 33.890625 48 
Q 26.265625 48 22.1875 43.046875 
Q 18.109375 38.09375 18.109375 28.8125 
L 18.109375 0 
L 9.078125 0 
L 9.078125 54.6875 
L 18.109375 54.6875 
L 18.109375 46.1875 
Q 20.953125 51.171875 25.484375 53.578125 
Q 30.03125 56 36.53125 56 
Q 37.453125 56 38.578125 55.875 
Q 39.703125 55.765625 41.0625 55.515625 
z
" id="DejaVuSans-114"/>
     </defs>
     <g transform="translate(163.7 27.963281)scale(0.15 -0.15)">
      <use xlink:href="#DejaVuSans-83"/>
      <use x="63.476562" xlink:href="#DejaVuSans-116"/>
      <use x="102.685547" xlink:href="#DejaVuSans-114"/>
      <use x="143.798828" xlink:href="#DejaVuSans-97"/>
      <use x="205.078125" xlink:href="#DejaVuSans-32"/>
      <use x="236.865234" xlink:href="#DejaVuSans-49"/>
     </g>
    </g>
    <g id="line2d_27">
     <path d="M 121.7 44.730469 
L 151.7 44.730469 
" style="fill:none;stroke:#ff7f0e;stroke-linecap:square;stroke-width:1.5;"/>
    </g>
    <g id="line2d_28"/>
    <g id="text_20">
     <!-- Stra 2 -->
     <g transform="translate(163.7 49.980469)scale(0.15 -0.15)">
      <use xlink:href="#DejaVuSans-83"/>
      <use x="63.476562" xlink:href="#DejaVuSans-116"/>
      <use x="102.685547" xlink:href="#DejaVuSans-114"/>
      <use x="143.798828" xlink:href="#DejaVuSans-97"/>
      <use x="205.078125" xlink:href="#DejaVuSans-32"/>
      <use x="236.865234" xlink:href="#DejaVuSans-50"/>
     </g>
    </g>
    <g id="line2d_29">
     <path d="M 224.009115 22.713281 
L 254.009115 22.713281 
" style="fill:none;stroke:#2ca02c;stroke-linecap:square;stroke-width:1.5;"/>
    </g>
    <g id="line2d_30"/>
    <g id="text_21">
     <!-- Stra 3 -->
     <g transform="translate(266.009115 27.963281)scale(0.15 -0.15)">
      <use xlink:href="#DejaVuSans-83"/>
      <use x="63.476562" xlink:href="#DejaVuSans-116"/>
      <use x="102.685547" xlink:href="#DejaVuSans-114"/>
      <use x="143.798828" xlink:href="#DejaVuSans-97"/>
      <use x="205.078125" xlink:href="#DejaVuSans-32"/>
      <use x="236.865234" xlink:href="#DejaVuSans-51"/>
     </g>
    </g>
    <g id="line2d_31">
     <path d="M 224.009115 44.730469 
L 254.009115 44.730469 
" style="fill:none;stroke:#d62728;stroke-linecap:square;stroke-width:1.5;"/>
    </g>
    <g id="line2d_32"/>
    <g id="text_22">
     <!-- Stra 4 -->
     <g transform="translate(266.009115 49.980469)scale(0.15 -0.15)">
      <use xlink:href="#DejaVuSans-83"/>
      <use x="63.476562" xlink:href="#DejaVuSans-116"/>
      <use x="102.685547" xlink:href="#DejaVuSans-114"/>
      <use x="143.798828" xlink:href="#DejaVuSans-97"/>
      <use x="205.078125" xlink:href="#DejaVuSans-32"/>
      <use x="236.865234" xlink:href="#DejaVuSans-52"/>
     </g>
    </g>
    <g id="line2d_33">
     <path d="M 326.318229 22.713281 
L 356.318229 22.713281 
" style="fill:none;stroke:#9467bd;stroke-linecap:square;stroke-width:1.5;"/>
    </g>
    <g id="line2d_34"/>
    <g id="text_23">
     <!-- Stra 5 -->
     <g transform="translate(368.318229 27.963281)scale(0.15 -0.15)">
      <use xlink:href="#DejaVuSans-83"/>
      <use x="63.476562" xlink:href="#DejaVuSans-116"/>
      <use x="102.685547" xlink:href="#DejaVuSans-114"/>
      <use x="143.798828" xlink:href="#DejaVuSans-97"/>
      <use x="205.078125" xlink:href="#DejaVuSans-32"/>
      <use x="236.865234" xlink:href="#DejaVuSans-53"/>
     </g>
    </g>
    <g id="line2d_35">
     <path d="M 326.318229 44.730469 
L 356.318229 44.730469 
" style="fill:none;stroke:#8c564b;stroke-linecap:square;stroke-width:1.5;"/>
    </g>
    <g id="line2d_36"/>
    <g id="text_24">
     <!-- Stra 6 -->
     <g transform="translate(368.318229 49.980469)scale(0.15 -0.15)">
      <use xlink:href="#DejaVuSans-83"/>
      <use x="63.476562" xlink:href="#DejaVuSans-116"/>
      <use x="102.685547" xlink:href="#DejaVuSans-114"/>
      <use x="143.798828" xlink:href="#DejaVuSans-97"/>
      <use x="205.078125" xlink:href="#DejaVuSans-32"/>
      <use x="236.865234" xlink:href="#DejaVuSans-54"/>
     </g>
    </g>
    <g id="line2d_37">
     <path d="M 428.627344 22.713281 
L 458.627344 22.713281 
" style="fill:none;stroke:#e377c2;stroke-linecap:square;stroke-width:1.5;"/>
    </g>
    <g id="line2d_38"/>
    <g id="text_25">
     <!-- Stra 7 -->
     <g transform="translate(470.627344 27.963281)scale(0.15 -0.15)">
      <use xlink:href="#DejaVuSans-83"/>
      <use x="63.476562" xlink:href="#DejaVuSans-116"/>
      <use x="102.685547" xlink:href="#DejaVuSans-114"/>
      <use x="143.798828" xlink:href="#DejaVuSans-97"/>
      <use x="205.078125" xlink:href="#DejaVuSans-32"/>
      <use x="236.865234" xlink:href="#DejaVuSans-55"/>
     </g>
    </g>
    <g id="line2d_39">
     <path d="M 428.627344 44.730469 
L 458.627344 44.730469 
" style="fill:none;stroke:#7f7f7f;stroke-linecap:square;stroke-width:1.5;"/>
    </g>
    <g id="line2d_40"/>
    <g id="text_26">
     <!-- Stra 8 -->
     <g transform="translate(470.627344 49.980469)scale(0.15 -0.15)">
      <use xlink:href="#DejaVuSans-83"/>
      <use x="63.476562" xlink:href="#DejaVuSans-116"/>
      <use x="102.685547" xlink:href="#DejaVuSans-114"/>
      <use x="143.798828" xlink:href="#DejaVuSans-97"/>
      <use x="205.078125" xlink:href="#DejaVuSans-32"/>
      <use x="236.865234" xlink:href="#DejaVuSans-56"/>
     </g>
    </g>
   </g>
  </g>
 </g>
 <defs>
  <clipPath id="pbb91b618a3">
   <rect height="298.96" width="421" x="108.2" y="66.6"/>
  </clipPath>
 </defs>
</svg>
