<?xml version="1.0" encoding="utf-8" standalone="no"?>
<!DOCTYPE svg PUBLIC "-//W3C//DTD SVG 1.1//EN"
  "http://www.w3.org/Graphics/SVG/1.1/DTD/svg11.dtd">
<!-- Created with matplotlib (https://matplotlib.org/) -->
<svg height="432pt" version="1.1" viewBox="0 0 540 432" width="540pt" xmlns="http://www.w3.org/2000/svg" xmlns:xlink="http://www.w3.org/1999/xlink">
 <defs>
  <style type="text/css">
*{stroke-linecap:butt;stroke-linejoin:round;}
  </style>
 </defs>
 <g id="figure_1">
  <g id="patch_1">
   <path d="M 0 432 
L 540 432 
L 540 0 
L 0 0 
z
" style="fill:#ffffff;"/>
  </g>
  <g id="axes_1">
   <g id="patch_2">
    <path d="M 67.5 384.48 
L 486 384.48 
L 486 51.84 
L 67.5 51.84 
z
" style="fill:#ffffff;"/>
   </g>
   <g id="matplotlib.axis_1">
    <g id="xtick_1">
     <g id="line2d_1">
      <defs>
       <path d="M 0 0 
L 0 3.5 
" id="mc434a3a446" style="stroke:#000000;stroke-width:0.8;"/>
      </defs>
      <g>
       <use style="stroke:#000000;stroke-width:0.8;" x="86.522727" xlink:href="#mc434a3a446" y="384.48"/>
      </g>
     </g>
     <g id="text_1">
      <!-- 0 -->
      <defs>
       <path d="M 31.78125 66.40625 
Q 24.171875 66.40625 20.328125 58.90625 
Q 16.5 51.421875 16.5 36.375 
Q 16.5 21.390625 20.328125 13.890625 
Q 24.171875 6.390625 31.78125 6.390625 
Q 39.453125 6.390625 43.28125 13.890625 
Q 47.125 21.390625 47.125 36.375 
Q 47.125 51.421875 43.28125 58.90625 
Q 39.453125 66.40625 31.78125 66.40625 
z
M 31.78125 74.21875 
Q 44.046875 74.21875 50.515625 64.515625 
Q 56.984375 54.828125 56.984375 36.375 
Q 56.984375 17.96875 50.515625 8.265625 
Q 44.046875 -1.421875 31.78125 -1.421875 
Q 19.53125 -1.421875 13.0625 8.265625 
Q 6.59375 17.96875 6.59375 36.375 
Q 6.59375 54.828125 13.0625 64.515625 
Q 19.53125 74.21875 31.78125 74.21875 
z
" id="DejaVuSans-48"/>
      </defs>
      <g transform="translate(83.341477 399.078438)scale(0.1 -0.1)">
       <use xlink:href="#DejaVuSans-48"/>
      </g>
     </g>
    </g>
    <g id="xtick_2">
     <g id="line2d_2">
      <g>
       <use style="stroke:#000000;stroke-width:0.8;" x="139.658837" xlink:href="#mc434a3a446" y="384.48"/>
      </g>
     </g>
     <g id="text_2">
      <!-- 25 -->
      <defs>
       <path d="M 19.1875 8.296875 
L 53.609375 8.296875 
L 53.609375 0 
L 7.328125 0 
L 7.328125 8.296875 
Q 12.9375 14.109375 22.625 23.890625 
Q 32.328125 33.6875 34.8125 36.53125 
Q 39.546875 41.84375 41.421875 45.53125 
Q 43.3125 49.21875 43.3125 52.78125 
Q 43.3125 58.59375 39.234375 62.25 
Q 35.15625 65.921875 28.609375 65.921875 
Q 23.96875 65.921875 18.8125 64.3125 
Q 13.671875 62.703125 7.8125 59.421875 
L 7.8125 69.390625 
Q 13.765625 71.78125 18.9375 73 
Q 24.125 74.21875 28.421875 74.21875 
Q 39.75 74.21875 46.484375 68.546875 
Q 53.21875 62.890625 53.21875 53.421875 
Q 53.21875 48.921875 51.53125 44.890625 
Q 49.859375 40.875 45.40625 35.40625 
Q 44.1875 33.984375 37.640625 27.21875 
Q 31.109375 20.453125 19.1875 8.296875 
z
" id="DejaVuSans-50"/>
       <path d="M 10.796875 72.90625 
L 49.515625 72.90625 
L 49.515625 64.59375 
L 19.828125 64.59375 
L 19.828125 46.734375 
Q 21.96875 47.46875 24.109375 47.828125 
Q 26.265625 48.1875 28.421875 48.1875 
Q 40.625 48.1875 47.75 41.5 
Q 54.890625 34.8125 54.890625 23.390625 
Q 54.890625 11.625 47.5625 5.09375 
Q 40.234375 -1.421875 26.90625 -1.421875 
Q 22.3125 -1.421875 17.546875 -0.640625 
Q 12.796875 0.140625 7.71875 1.703125 
L 7.71875 11.625 
Q 12.109375 9.234375 16.796875 8.0625 
Q 21.484375 6.890625 26.703125 6.890625 
Q 35.15625 6.890625 40.078125 11.328125 
Q 45.015625 15.765625 45.015625 23.390625 
Q 45.015625 31 40.078125 35.4375 
Q 35.15625 39.890625 26.703125 39.890625 
Q 22.75 39.890625 18.8125 39.015625 
Q 14.890625 38.140625 10.796875 36.28125 
z
" id="DejaVuSans-53"/>
      </defs>
      <g transform="translate(133.296337 399.078438)scale(0.1 -0.1)">
       <use xlink:href="#DejaVuSans-50"/>
       <use x="63.623047" xlink:href="#DejaVuSans-53"/>
      </g>
     </g>
    </g>
    <g id="xtick_3">
     <g id="line2d_3">
      <g>
       <use style="stroke:#000000;stroke-width:0.8;" x="192.794947" xlink:href="#mc434a3a446" y="384.48"/>
      </g>
     </g>
     <g id="text_3">
      <!-- 50 -->
      <g transform="translate(186.432447 399.078438)scale(0.1 -0.1)">
       <use xlink:href="#DejaVuSans-53"/>
       <use x="63.623047" xlink:href="#DejaVuSans-48"/>
      </g>
     </g>
    </g>
    <g id="xtick_4">
     <g id="line2d_4">
      <g>
       <use style="stroke:#000000;stroke-width:0.8;" x="245.931056" xlink:href="#mc434a3a446" y="384.48"/>
      </g>
     </g>
     <g id="text_4">
      <!-- 75 -->
      <defs>
       <path d="M 8.203125 72.90625 
L 55.078125 72.90625 
L 55.078125 68.703125 
L 28.609375 0 
L 18.3125 0 
L 43.21875 64.59375 
L 8.203125 64.59375 
z
" id="DejaVuSans-55"/>
      </defs>
      <g transform="translate(239.568556 399.078438)scale(0.1 -0.1)">
       <use xlink:href="#DejaVuSans-55"/>
       <use x="63.623047" xlink:href="#DejaVuSans-53"/>
      </g>
     </g>
    </g>
    <g id="xtick_5">
     <g id="line2d_5">
      <g>
       <use style="stroke:#000000;stroke-width:0.8;" x="299.067166" xlink:href="#mc434a3a446" y="384.48"/>
      </g>
     </g>
     <g id="text_5">
      <!-- 100 -->
      <defs>
       <path d="M 12.40625 8.296875 
L 28.515625 8.296875 
L 28.515625 63.921875 
L 10.984375 60.40625 
L 10.984375 69.390625 
L 28.421875 72.90625 
L 38.28125 72.90625 
L 38.28125 8.296875 
L 54.390625 8.296875 
L 54.390625 0 
L 12.40625 0 
z
" id="DejaVuSans-49"/>
      </defs>
      <g transform="translate(289.523416 399.078438)scale(0.1 -0.1)">
       <use xlink:href="#DejaVuSans-49"/>
       <use x="63.623047" xlink:href="#DejaVuSans-48"/>
       <use x="127.246094" xlink:href="#DejaVuSans-48"/>
      </g>
     </g>
    </g>
    <g id="xtick_6">
     <g id="line2d_6">
      <g>
       <use style="stroke:#000000;stroke-width:0.8;" x="352.203276" xlink:href="#mc434a3a446" y="384.48"/>
      </g>
     </g>
     <g id="text_6">
      <!-- 125 -->
      <g transform="translate(342.659526 399.078438)scale(0.1 -0.1)">
       <use xlink:href="#DejaVuSans-49"/>
       <use x="63.623047" xlink:href="#DejaVuSans-50"/>
       <use x="127.246094" xlink:href="#DejaVuSans-53"/>
      </g>
     </g>
    </g>
    <g id="xtick_7">
     <g id="line2d_7">
      <g>
       <use style="stroke:#000000;stroke-width:0.8;" x="405.339385" xlink:href="#mc434a3a446" y="384.48"/>
      </g>
     </g>
     <g id="text_7">
      <!-- 150 -->
      <g transform="translate(395.795635 399.078438)scale(0.1 -0.1)">
       <use xlink:href="#DejaVuSans-49"/>
       <use x="63.623047" xlink:href="#DejaVuSans-53"/>
       <use x="127.246094" xlink:href="#DejaVuSans-48"/>
      </g>
     </g>
    </g>
    <g id="xtick_8">
     <g id="line2d_8">
      <g>
       <use style="stroke:#000000;stroke-width:0.8;" x="458.475495" xlink:href="#mc434a3a446" y="384.48"/>
      </g>
     </g>
     <g id="text_8">
      <!-- 175 -->
      <g transform="translate(448.931745 399.078438)scale(0.1 -0.1)">
       <use xlink:href="#DejaVuSans-49"/>
       <use x="63.623047" xlink:href="#DejaVuSans-55"/>
       <use x="127.246094" xlink:href="#DejaVuSans-53"/>
      </g>
     </g>
    </g>
    <g id="text_9">
     <!-- number of games -->
     <defs>
      <path d="M 54.890625 33.015625 
L 54.890625 0 
L 45.90625 0 
L 45.90625 32.71875 
Q 45.90625 40.484375 42.875 44.328125 
Q 39.84375 48.1875 33.796875 48.1875 
Q 26.515625 48.1875 22.3125 43.546875 
Q 18.109375 38.921875 18.109375 30.90625 
L 18.109375 0 
L 9.078125 0 
L 9.078125 54.6875 
L 18.109375 54.6875 
L 18.109375 46.1875 
Q 21.34375 51.125 25.703125 53.5625 
Q 30.078125 56 35.796875 56 
Q 45.21875 56 50.046875 50.171875 
Q 54.890625 44.34375 54.890625 33.015625 
z
" id="DejaVuSans-110"/>
      <path d="M 8.5 21.578125 
L 8.5 54.6875 
L 17.484375 54.6875 
L 17.484375 21.921875 
Q 17.484375 14.15625 20.5 10.265625 
Q 23.53125 6.390625 29.59375 6.390625 
Q 36.859375 6.390625 41.078125 11.03125 
Q 45.3125 15.671875 45.3125 23.6875 
L 45.3125 54.6875 
L 54.296875 54.6875 
L 54.296875 0 
L 45.3125 0 
L 45.3125 8.40625 
Q 42.046875 3.421875 37.71875 1 
Q 33.40625 -1.421875 27.6875 -1.421875 
Q 18.265625 -1.421875 13.375 4.4375 
Q 8.5 10.296875 8.5 21.578125 
z
M 31.109375 56 
z
" id="DejaVuSans-117"/>
      <path d="M 52 44.1875 
Q 55.375 50.25 60.0625 53.125 
Q 64.75 56 71.09375 56 
Q 79.640625 56 84.28125 50.015625 
Q 88.921875 44.046875 88.921875 33.015625 
L 88.921875 0 
L 79.890625 0 
L 79.890625 32.71875 
Q 79.890625 40.578125 77.09375 44.375 
Q 74.3125 48.1875 68.609375 48.1875 
Q 61.625 48.1875 57.5625 43.546875 
Q 53.515625 38.921875 53.515625 30.90625 
L 53.515625 0 
L 44.484375 0 
L 44.484375 32.71875 
Q 44.484375 40.625 41.703125 44.40625 
Q 38.921875 48.1875 33.109375 48.1875 
Q 26.21875 48.1875 22.15625 43.53125 
Q 18.109375 38.875 18.109375 30.90625 
L 18.109375 0 
L 9.078125 0 
L 9.078125 54.6875 
L 18.109375 54.6875 
L 18.109375 46.1875 
Q 21.1875 51.21875 25.484375 53.609375 
Q 29.78125 56 35.6875 56 
Q 41.65625 56 45.828125 52.96875 
Q 50 49.953125 52 44.1875 
z
" id="DejaVuSans-109"/>
      <path d="M 48.6875 27.296875 
Q 48.6875 37.203125 44.609375 42.84375 
Q 40.53125 48.484375 33.40625 48.484375 
Q 26.265625 48.484375 22.1875 42.84375 
Q 18.109375 37.203125 18.109375 27.296875 
Q 18.109375 17.390625 22.1875 11.75 
Q 26.265625 6.109375 33.40625 6.109375 
Q 40.53125 6.109375 44.609375 11.75 
Q 48.6875 17.390625 48.6875 27.296875 
z
M 18.109375 46.390625 
Q 20.953125 51.265625 25.265625 53.625 
Q 29.59375 56 35.59375 56 
Q 45.5625 56 51.78125 48.09375 
Q 58.015625 40.1875 58.015625 27.296875 
Q 58.015625 14.40625 51.78125 6.484375 
Q 45.5625 -1.421875 35.59375 -1.421875 
Q 29.59375 -1.421875 25.265625 0.953125 
Q 20.953125 3.328125 18.109375 8.203125 
L 18.109375 0 
L 9.078125 0 
L 9.078125 75.984375 
L 18.109375 75.984375 
z
" id="DejaVuSans-98"/>
      <path d="M 56.203125 29.59375 
L 56.203125 25.203125 
L 14.890625 25.203125 
Q 15.484375 15.921875 20.484375 11.0625 
Q 25.484375 6.203125 34.421875 6.203125 
Q 39.59375 6.203125 44.453125 7.46875 
Q 49.3125 8.734375 54.109375 11.28125 
L 54.109375 2.78125 
Q 49.265625 0.734375 44.1875 -0.34375 
Q 39.109375 -1.421875 33.890625 -1.421875 
Q 20.796875 -1.421875 13.15625 6.1875 
Q 5.515625 13.8125 5.515625 26.8125 
Q 5.515625 40.234375 12.765625 48.109375 
Q 20.015625 56 32.328125 56 
Q 43.359375 56 49.78125 48.890625 
Q 56.203125 41.796875 56.203125 29.59375 
z
M 47.21875 32.234375 
Q 47.125 39.59375 43.09375 43.984375 
Q 39.0625 48.390625 32.421875 48.390625 
Q 24.90625 48.390625 20.390625 44.140625 
Q 15.875 39.890625 15.1875 32.171875 
z
" id="DejaVuSans-101"/>
      <path d="M 41.109375 46.296875 
Q 39.59375 47.171875 37.8125 47.578125 
Q 36.03125 48 33.890625 48 
Q 26.265625 48 22.1875 43.046875 
Q 18.109375 38.09375 18.109375 28.8125 
L 18.109375 0 
L 9.078125 0 
L 9.078125 54.6875 
L 18.109375 54.6875 
L 18.109375 46.1875 
Q 20.953125 51.171875 25.484375 53.578125 
Q 30.03125 56 36.53125 56 
Q 37.453125 56 38.578125 55.875 
Q 39.703125 55.765625 41.0625 55.515625 
z
" id="DejaVuSans-114"/>
      <path id="DejaVuSans-32"/>
      <path d="M 30.609375 48.390625 
Q 23.390625 48.390625 19.1875 42.75 
Q 14.984375 37.109375 14.984375 27.296875 
Q 14.984375 17.484375 19.15625 11.84375 
Q 23.34375 6.203125 30.609375 6.203125 
Q 37.796875 6.203125 41.984375 11.859375 
Q 46.1875 17.53125 46.1875 27.296875 
Q 46.1875 37.015625 41.984375 42.703125 
Q 37.796875 48.390625 30.609375 48.390625 
z
M 30.609375 56 
Q 42.328125 56 49.015625 48.375 
Q 55.71875 40.765625 55.71875 27.296875 
Q 55.71875 13.875 49.015625 6.21875 
Q 42.328125 -1.421875 30.609375 -1.421875 
Q 18.84375 -1.421875 12.171875 6.21875 
Q 5.515625 13.875 5.515625 27.296875 
Q 5.515625 40.765625 12.171875 48.375 
Q 18.84375 56 30.609375 56 
z
" id="DejaVuSans-111"/>
      <path d="M 37.109375 75.984375 
L 37.109375 68.5 
L 28.515625 68.5 
Q 23.6875 68.5 21.796875 66.546875 
Q 19.921875 64.59375 19.921875 59.515625 
L 19.921875 54.6875 
L 34.71875 54.6875 
L 34.71875 47.703125 
L 19.921875 47.703125 
L 19.921875 0 
L 10.890625 0 
L 10.890625 47.703125 
L 2.296875 47.703125 
L 2.296875 54.6875 
L 10.890625 54.6875 
L 10.890625 58.5 
Q 10.890625 67.625 15.140625 71.796875 
Q 19.390625 75.984375 28.609375 75.984375 
z
" id="DejaVuSans-102"/>
      <path d="M 45.40625 27.984375 
Q 45.40625 37.75 41.375 43.109375 
Q 37.359375 48.484375 30.078125 48.484375 
Q 22.859375 48.484375 18.828125 43.109375 
Q 14.796875 37.75 14.796875 27.984375 
Q 14.796875 18.265625 18.828125 12.890625 
Q 22.859375 7.515625 30.078125 7.515625 
Q 37.359375 7.515625 41.375 12.890625 
Q 45.40625 18.265625 45.40625 27.984375 
z
M 54.390625 6.78125 
Q 54.390625 -7.171875 48.1875 -13.984375 
Q 42 -20.796875 29.203125 -20.796875 
Q 24.46875 -20.796875 20.265625 -20.09375 
Q 16.0625 -19.390625 12.109375 -17.921875 
L 12.109375 -9.1875 
Q 16.0625 -11.328125 19.921875 -12.34375 
Q 23.78125 -13.375 27.78125 -13.375 
Q 36.625 -13.375 41.015625 -8.765625 
Q 45.40625 -4.15625 45.40625 5.171875 
L 45.40625 9.625 
Q 42.625 4.78125 38.28125 2.390625 
Q 33.9375 0 27.875 0 
Q 17.828125 0 11.671875 7.65625 
Q 5.515625 15.328125 5.515625 27.984375 
Q 5.515625 40.671875 11.671875 48.328125 
Q 17.828125 56 27.875 56 
Q 33.9375 56 38.28125 53.609375 
Q 42.625 51.21875 45.40625 46.390625 
L 45.40625 54.6875 
L 54.390625 54.6875 
z
" id="DejaVuSans-103"/>
      <path d="M 34.28125 27.484375 
Q 23.390625 27.484375 19.1875 25 
Q 14.984375 22.515625 14.984375 16.5 
Q 14.984375 11.71875 18.140625 8.90625 
Q 21.296875 6.109375 26.703125 6.109375 
Q 34.1875 6.109375 38.703125 11.40625 
Q 43.21875 16.703125 43.21875 25.484375 
L 43.21875 27.484375 
z
M 52.203125 31.203125 
L 52.203125 0 
L 43.21875 0 
L 43.21875 8.296875 
Q 40.140625 3.328125 35.546875 0.953125 
Q 30.953125 -1.421875 24.3125 -1.421875 
Q 15.921875 -1.421875 10.953125 3.296875 
Q 6 8.015625 6 15.921875 
Q 6 25.140625 12.171875 29.828125 
Q 18.359375 34.515625 30.609375 34.515625 
L 43.21875 34.515625 
L 43.21875 35.40625 
Q 43.21875 41.609375 39.140625 45 
Q 35.0625 48.390625 27.6875 48.390625 
Q 23 48.390625 18.546875 47.265625 
Q 14.109375 46.140625 10.015625 43.890625 
L 10.015625 52.203125 
Q 14.9375 54.109375 19.578125 55.046875 
Q 24.21875 56 28.609375 56 
Q 40.484375 56 46.34375 49.84375 
Q 52.203125 43.703125 52.203125 31.203125 
z
" id="DejaVuSans-97"/>
      <path d="M 44.28125 53.078125 
L 44.28125 44.578125 
Q 40.484375 46.53125 36.375 47.5 
Q 32.28125 48.484375 27.875 48.484375 
Q 21.1875 48.484375 17.84375 46.4375 
Q 14.5 44.390625 14.5 40.28125 
Q 14.5 37.15625 16.890625 35.375 
Q 19.28125 33.59375 26.515625 31.984375 
L 29.59375 31.296875 
Q 39.15625 29.25 43.1875 25.515625 
Q 47.21875 21.78125 47.21875 15.09375 
Q 47.21875 7.46875 41.1875 3.015625 
Q 35.15625 -1.421875 24.609375 -1.421875 
Q 20.21875 -1.421875 15.453125 -0.5625 
Q 10.6875 0.296875 5.421875 2 
L 5.421875 11.28125 
Q 10.40625 8.6875 15.234375 7.390625 
Q 20.0625 6.109375 24.8125 6.109375 
Q 31.15625 6.109375 34.5625 8.28125 
Q 37.984375 10.453125 37.984375 14.40625 
Q 37.984375 18.0625 35.515625 20.015625 
Q 33.0625 21.96875 24.703125 23.78125 
L 21.578125 24.515625 
Q 13.234375 26.265625 9.515625 29.90625 
Q 5.8125 33.546875 5.8125 39.890625 
Q 5.8125 47.609375 11.28125 51.796875 
Q 16.75 56 26.8125 56 
Q 31.78125 56 36.171875 55.265625 
Q 40.578125 54.546875 44.28125 53.078125 
z
" id="DejaVuSans-115"/>
     </defs>
     <g transform="translate(165.996094 424.154219)scale(0.25 -0.25)">
      <use xlink:href="#DejaVuSans-110"/>
      <use x="63.378906" xlink:href="#DejaVuSans-117"/>
      <use x="126.757812" xlink:href="#DejaVuSans-109"/>
      <use x="224.169922" xlink:href="#DejaVuSans-98"/>
      <use x="287.646484" xlink:href="#DejaVuSans-101"/>
      <use x="349.169922" xlink:href="#DejaVuSans-114"/>
      <use x="390.283203" xlink:href="#DejaVuSans-32"/>
      <use x="422.070312" xlink:href="#DejaVuSans-111"/>
      <use x="483.251953" xlink:href="#DejaVuSans-102"/>
      <use x="518.457031" xlink:href="#DejaVuSans-32"/>
      <use x="550.244141" xlink:href="#DejaVuSans-103"/>
      <use x="613.720703" xlink:href="#DejaVuSans-97"/>
      <use x="675" xlink:href="#DejaVuSans-109"/>
      <use x="772.412109" xlink:href="#DejaVuSans-101"/>
      <use x="833.935547" xlink:href="#DejaVuSans-115"/>
     </g>
    </g>
   </g>
   <g id="matplotlib.axis_2">
    <g id="ytick_1">
     <g id="line2d_9">
      <defs>
       <path d="M 0 0 
L -3.5 0 
" id="m4986331478" style="stroke:#000000;stroke-width:0.8;"/>
      </defs>
      <g>
       <use style="stroke:#000000;stroke-width:0.8;" x="67.5" xlink:href="#m4986331478" y="369.36"/>
      </g>
     </g>
     <g id="text_10">
      <!-- 0.0 -->
      <defs>
       <path d="M 10.6875 12.40625 
L 21 12.40625 
L 21 0 
L 10.6875 0 
z
" id="DejaVuSans-46"/>
      </defs>
      <g transform="translate(44.596875 373.159219)scale(0.1 -0.1)">
       <use xlink:href="#DejaVuSans-48"/>
       <use x="63.623047" xlink:href="#DejaVuSans-46"/>
       <use x="95.410156" xlink:href="#DejaVuSans-48"/>
      </g>
     </g>
    </g>
    <g id="ytick_2">
     <g id="line2d_10">
      <g>
       <use style="stroke:#000000;stroke-width:0.8;" x="67.5" xlink:href="#m4986331478" y="308.88"/>
      </g>
     </g>
     <g id="text_11">
      <!-- 0.2 -->
      <g transform="translate(44.596875 312.679219)scale(0.1 -0.1)">
       <use xlink:href="#DejaVuSans-48"/>
       <use x="63.623047" xlink:href="#DejaVuSans-46"/>
       <use x="95.410156" xlink:href="#DejaVuSans-50"/>
      </g>
     </g>
    </g>
    <g id="ytick_3">
     <g id="line2d_11">
      <g>
       <use style="stroke:#000000;stroke-width:0.8;" x="67.5" xlink:href="#m4986331478" y="248.4"/>
      </g>
     </g>
     <g id="text_12">
      <!-- 0.4 -->
      <defs>
       <path d="M 37.796875 64.3125 
L 12.890625 25.390625 
L 37.796875 25.390625 
z
M 35.203125 72.90625 
L 47.609375 72.90625 
L 47.609375 25.390625 
L 58.015625 25.390625 
L 58.015625 17.1875 
L 47.609375 17.1875 
L 47.609375 0 
L 37.796875 0 
L 37.796875 17.1875 
L 4.890625 17.1875 
L 4.890625 26.703125 
z
" id="DejaVuSans-52"/>
      </defs>
      <g transform="translate(44.596875 252.199219)scale(0.1 -0.1)">
       <use xlink:href="#DejaVuSans-48"/>
       <use x="63.623047" xlink:href="#DejaVuSans-46"/>
       <use x="95.410156" xlink:href="#DejaVuSans-52"/>
      </g>
     </g>
    </g>
    <g id="ytick_4">
     <g id="line2d_12">
      <g>
       <use style="stroke:#000000;stroke-width:0.8;" x="67.5" xlink:href="#m4986331478" y="187.92"/>
      </g>
     </g>
     <g id="text_13">
      <!-- 0.6 -->
      <defs>
       <path d="M 33.015625 40.375 
Q 26.375 40.375 22.484375 35.828125 
Q 18.609375 31.296875 18.609375 23.390625 
Q 18.609375 15.53125 22.484375 10.953125 
Q 26.375 6.390625 33.015625 6.390625 
Q 39.65625 6.390625 43.53125 10.953125 
Q 47.40625 15.53125 47.40625 23.390625 
Q 47.40625 31.296875 43.53125 35.828125 
Q 39.65625 40.375 33.015625 40.375 
z
M 52.59375 71.296875 
L 52.59375 62.3125 
Q 48.875 64.0625 45.09375 64.984375 
Q 41.3125 65.921875 37.59375 65.921875 
Q 27.828125 65.921875 22.671875 59.328125 
Q 17.53125 52.734375 16.796875 39.40625 
Q 19.671875 43.65625 24.015625 45.921875 
Q 28.375 48.1875 33.59375 48.1875 
Q 44.578125 48.1875 50.953125 41.515625 
Q 57.328125 34.859375 57.328125 23.390625 
Q 57.328125 12.15625 50.6875 5.359375 
Q 44.046875 -1.421875 33.015625 -1.421875 
Q 20.359375 -1.421875 13.671875 8.265625 
Q 6.984375 17.96875 6.984375 36.375 
Q 6.984375 53.65625 15.1875 63.9375 
Q 23.390625 74.21875 37.203125 74.21875 
Q 40.921875 74.21875 44.703125 73.484375 
Q 48.484375 72.75 52.59375 71.296875 
z
" id="DejaVuSans-54"/>
      </defs>
      <g transform="translate(44.596875 191.719219)scale(0.1 -0.1)">
       <use xlink:href="#DejaVuSans-48"/>
       <use x="63.623047" xlink:href="#DejaVuSans-46"/>
       <use x="95.410156" xlink:href="#DejaVuSans-54"/>
      </g>
     </g>
    </g>
    <g id="ytick_5">
     <g id="line2d_13">
      <g>
       <use style="stroke:#000000;stroke-width:0.8;" x="67.5" xlink:href="#m4986331478" y="127.44"/>
      </g>
     </g>
     <g id="text_14">
      <!-- 0.8 -->
      <defs>
       <path d="M 31.78125 34.625 
Q 24.75 34.625 20.71875 30.859375 
Q 16.703125 27.09375 16.703125 20.515625 
Q 16.703125 13.921875 20.71875 10.15625 
Q 24.75 6.390625 31.78125 6.390625 
Q 38.8125 6.390625 42.859375 10.171875 
Q 46.921875 13.96875 46.921875 20.515625 
Q 46.921875 27.09375 42.890625 30.859375 
Q 38.875 34.625 31.78125 34.625 
z
M 21.921875 38.8125 
Q 15.578125 40.375 12.03125 44.71875 
Q 8.5 49.078125 8.5 55.328125 
Q 8.5 64.0625 14.71875 69.140625 
Q 20.953125 74.21875 31.78125 74.21875 
Q 42.671875 74.21875 48.875 69.140625 
Q 55.078125 64.0625 55.078125 55.328125 
Q 55.078125 49.078125 51.53125 44.71875 
Q 48 40.375 41.703125 38.8125 
Q 48.828125 37.15625 52.796875 32.3125 
Q 56.78125 27.484375 56.78125 20.515625 
Q 56.78125 9.90625 50.3125 4.234375 
Q 43.84375 -1.421875 31.78125 -1.421875 
Q 19.734375 -1.421875 13.25 4.234375 
Q 6.78125 9.90625 6.78125 20.515625 
Q 6.78125 27.484375 10.78125 32.3125 
Q 14.796875 37.15625 21.921875 38.8125 
z
M 18.3125 54.390625 
Q 18.3125 48.734375 21.84375 45.5625 
Q 25.390625 42.390625 31.78125 42.390625 
Q 38.140625 42.390625 41.71875 45.5625 
Q 45.3125 48.734375 45.3125 54.390625 
Q 45.3125 60.0625 41.71875 63.234375 
Q 38.140625 66.40625 31.78125 66.40625 
Q 25.390625 66.40625 21.84375 63.234375 
Q 18.3125 60.0625 18.3125 54.390625 
z
" id="DejaVuSans-56"/>
      </defs>
      <g transform="translate(44.596875 131.239219)scale(0.1 -0.1)">
       <use xlink:href="#DejaVuSans-48"/>
       <use x="63.623047" xlink:href="#DejaVuSans-46"/>
       <use x="95.410156" xlink:href="#DejaVuSans-56"/>
      </g>
     </g>
    </g>
    <g id="ytick_6">
     <g id="line2d_14">
      <g>
       <use style="stroke:#000000;stroke-width:0.8;" x="67.5" xlink:href="#m4986331478" y="66.96"/>
      </g>
     </g>
     <g id="text_15">
      <!-- 1.0 -->
      <g transform="translate(44.596875 70.759219)scale(0.1 -0.1)">
       <use xlink:href="#DejaVuSans-49"/>
       <use x="63.623047" xlink:href="#DejaVuSans-46"/>
       <use x="95.410156" xlink:href="#DejaVuSans-48"/>
      </g>
     </g>
    </g>
    <g id="text_16">
     <!-- Att's impact in DD-Random -->
     <defs>
      <path d="M 34.1875 63.1875 
L 20.796875 26.90625 
L 47.609375 26.90625 
z
M 28.609375 72.90625 
L 39.796875 72.90625 
L 67.578125 0 
L 57.328125 0 
L 50.6875 18.703125 
L 17.828125 18.703125 
L 11.1875 0 
L 0.78125 0 
z
" id="DejaVuSans-65"/>
      <path d="M 18.3125 70.21875 
L 18.3125 54.6875 
L 36.8125 54.6875 
L 36.8125 47.703125 
L 18.3125 47.703125 
L 18.3125 18.015625 
Q 18.3125 11.328125 20.140625 9.421875 
Q 21.96875 7.515625 27.59375 7.515625 
L 36.8125 7.515625 
L 36.8125 0 
L 27.59375 0 
Q 17.1875 0 13.234375 3.875 
Q 9.28125 7.765625 9.28125 18.015625 
L 9.28125 47.703125 
L 2.6875 47.703125 
L 2.6875 54.6875 
L 9.28125 54.6875 
L 9.28125 70.21875 
z
" id="DejaVuSans-116"/>
      <path d="M 17.921875 72.90625 
L 17.921875 45.796875 
L 9.625 45.796875 
L 9.625 72.90625 
z
" id="DejaVuSans-39"/>
      <path d="M 9.421875 54.6875 
L 18.40625 54.6875 
L 18.40625 0 
L 9.421875 0 
z
M 9.421875 75.984375 
L 18.40625 75.984375 
L 18.40625 64.59375 
L 9.421875 64.59375 
z
" id="DejaVuSans-105"/>
      <path d="M 18.109375 8.203125 
L 18.109375 -20.796875 
L 9.078125 -20.796875 
L 9.078125 54.6875 
L 18.109375 54.6875 
L 18.109375 46.390625 
Q 20.953125 51.265625 25.265625 53.625 
Q 29.59375 56 35.59375 56 
Q 45.5625 56 51.78125 48.09375 
Q 58.015625 40.1875 58.015625 27.296875 
Q 58.015625 14.40625 51.78125 6.484375 
Q 45.5625 -1.421875 35.59375 -1.421875 
Q 29.59375 -1.421875 25.265625 0.953125 
Q 20.953125 3.328125 18.109375 8.203125 
z
M 48.6875 27.296875 
Q 48.6875 37.203125 44.609375 42.84375 
Q 40.53125 48.484375 33.40625 48.484375 
Q 26.265625 48.484375 22.1875 42.84375 
Q 18.109375 37.203125 18.109375 27.296875 
Q 18.109375 17.390625 22.1875 11.75 
Q 26.265625 6.109375 33.40625 6.109375 
Q 40.53125 6.109375 44.609375 11.75 
Q 48.6875 17.390625 48.6875 27.296875 
z
" id="DejaVuSans-112"/>
      <path d="M 48.78125 52.59375 
L 48.78125 44.1875 
Q 44.96875 46.296875 41.140625 47.34375 
Q 37.3125 48.390625 33.40625 48.390625 
Q 24.65625 48.390625 19.8125 42.84375 
Q 14.984375 37.3125 14.984375 27.296875 
Q 14.984375 17.28125 19.8125 11.734375 
Q 24.65625 6.203125 33.40625 6.203125 
Q 37.3125 6.203125 41.140625 7.25 
Q 44.96875 8.296875 48.78125 10.40625 
L 48.78125 2.09375 
Q 45.015625 0.34375 40.984375 -0.53125 
Q 36.96875 -1.421875 32.421875 -1.421875 
Q 20.0625 -1.421875 12.78125 6.34375 
Q 5.515625 14.109375 5.515625 27.296875 
Q 5.515625 40.671875 12.859375 48.328125 
Q 20.21875 56 33.015625 56 
Q 37.15625 56 41.109375 55.140625 
Q 45.0625 54.296875 48.78125 52.59375 
z
" id="DejaVuSans-99"/>
      <path d="M 19.671875 64.796875 
L 19.671875 8.109375 
L 31.59375 8.109375 
Q 46.6875 8.109375 53.6875 14.9375 
Q 60.6875 21.78125 60.6875 36.53125 
Q 60.6875 51.171875 53.6875 57.984375 
Q 46.6875 64.796875 31.59375 64.796875 
z
M 9.8125 72.90625 
L 30.078125 72.90625 
Q 51.265625 72.90625 61.171875 64.09375 
Q 71.09375 55.28125 71.09375 36.53125 
Q 71.09375 17.671875 61.125 8.828125 
Q 51.171875 0 30.078125 0 
L 9.8125 0 
z
" id="DejaVuSans-68"/>
      <path d="M 4.890625 31.390625 
L 31.203125 31.390625 
L 31.203125 23.390625 
L 4.890625 23.390625 
z
" id="DejaVuSans-45"/>
      <path d="M 44.390625 34.1875 
Q 47.5625 33.109375 50.5625 29.59375 
Q 53.5625 26.078125 56.59375 19.921875 
L 66.609375 0 
L 56 0 
L 46.6875 18.703125 
Q 43.0625 26.03125 39.671875 28.421875 
Q 36.28125 30.8125 30.421875 30.8125 
L 19.671875 30.8125 
L 19.671875 0 
L 9.8125 0 
L 9.8125 72.90625 
L 32.078125 72.90625 
Q 44.578125 72.90625 50.734375 67.671875 
Q 56.890625 62.453125 56.890625 51.90625 
Q 56.890625 45.015625 53.6875 40.46875 
Q 50.484375 35.9375 44.390625 34.1875 
z
M 19.671875 64.796875 
L 19.671875 38.921875 
L 32.078125 38.921875 
Q 39.203125 38.921875 42.84375 42.21875 
Q 46.484375 45.515625 46.484375 51.90625 
Q 46.484375 58.296875 42.84375 61.546875 
Q 39.203125 64.796875 32.078125 64.796875 
z
" id="DejaVuSans-82"/>
      <path d="M 45.40625 46.390625 
L 45.40625 75.984375 
L 54.390625 75.984375 
L 54.390625 0 
L 45.40625 0 
L 45.40625 8.203125 
Q 42.578125 3.328125 38.25 0.953125 
Q 33.9375 -1.421875 27.875 -1.421875 
Q 17.96875 -1.421875 11.734375 6.484375 
Q 5.515625 14.40625 5.515625 27.296875 
Q 5.515625 40.1875 11.734375 48.09375 
Q 17.96875 56 27.875 56 
Q 33.9375 56 38.25 53.625 
Q 42.578125 51.265625 45.40625 46.390625 
z
M 14.796875 27.296875 
Q 14.796875 17.390625 18.875 11.75 
Q 22.953125 6.109375 30.078125 6.109375 
Q 37.203125 6.109375 41.296875 11.75 
Q 45.40625 17.390625 45.40625 27.296875 
Q 45.40625 37.203125 41.296875 42.84375 
Q 37.203125 48.484375 30.078125 48.484375 
Q 22.953125 48.484375 18.875 42.84375 
Q 14.796875 37.203125 14.796875 27.296875 
z
" id="DejaVuSans-100"/>
     </defs>
     <g transform="translate(35.397656 388.570156)rotate(-90)scale(0.25 -0.25)">
      <use xlink:href="#DejaVuSans-65"/>
      <use x="68.392578" xlink:href="#DejaVuSans-116"/>
      <use x="107.601562" xlink:href="#DejaVuSans-116"/>
      <use x="146.810547" xlink:href="#DejaVuSans-39"/>
      <use x="174.300781" xlink:href="#DejaVuSans-115"/>
      <use x="226.400391" xlink:href="#DejaVuSans-32"/>
      <use x="258.1875" xlink:href="#DejaVuSans-105"/>
      <use x="285.970703" xlink:href="#DejaVuSans-109"/>
      <use x="383.382812" xlink:href="#DejaVuSans-112"/>
      <use x="446.859375" xlink:href="#DejaVuSans-97"/>
      <use x="508.138672" xlink:href="#DejaVuSans-99"/>
      <use x="563.119141" xlink:href="#DejaVuSans-116"/>
      <use x="602.328125" xlink:href="#DejaVuSans-32"/>
      <use x="634.115234" xlink:href="#DejaVuSans-105"/>
      <use x="661.898438" xlink:href="#DejaVuSans-110"/>
      <use x="725.277344" xlink:href="#DejaVuSans-32"/>
      <use x="757.064453" xlink:href="#DejaVuSans-68"/>
      <use x="834.066406" xlink:href="#DejaVuSans-68"/>
      <use x="911.068359" xlink:href="#DejaVuSans-45"/>
      <use x="947.152344" xlink:href="#DejaVuSans-82"/>
      <use x="1016.603516" xlink:href="#DejaVuSans-97"/>
      <use x="1077.882812" xlink:href="#DejaVuSans-110"/>
      <use x="1141.261719" xlink:href="#DejaVuSans-100"/>
      <use x="1204.738281" xlink:href="#DejaVuSans-111"/>
      <use x="1265.919922" xlink:href="#DejaVuSans-109"/>
     </g>
    </g>
   </g>
   <g id="line2d_15">
    <path clip-path="url(#p319600cd47)" d="M 86.522727 109.296 
L 88.648172 154.656 
L 90.773616 184.896 
L 92.89906 206.064 
L 95.024505 218.16 
L 97.149949 233.28 
L 99.275394 245.376 
L 101.400838 251.424 
L 103.526282 245.376 
L 105.651727 251.424 
L 107.777171 251.424 
L 109.902616 241.069091 
L 112.02806 261.36 
L 114.153504 253.547234 
L 116.278949 264.177391 
L 118.404393 258.132414 
L 120.529837 273.303529 
L 122.655282 249.893333 
L 124.780726 264.683077 
L 126.906171 285.802105 
L 129.031615 253.370959 
L 131.157059 285.36 
L 133.282504 299.238261 
L 135.407948 285.618462 
L 137.533393 262.056774 
L 139.658837 291.153103 
L 141.784281 290.96 
L 143.909726 257.36 
L 146.03517 276.313846 
L 148.160615 299.575385 
L 150.286059 293.76 
L 152.411503 270.498462 
L 154.536948 290.736 
L 156.662392 272.849362 
L 158.787836 308.88 
L 160.913281 266.101463 
L 163.038725 257.949474 
L 165.16417 287.63027 
L 167.289614 298.207059 
L 169.415058 286.887273 
L 171.540503 277.723636 
L 173.665947 255.96 
L 175.791392 315.36 
L 177.916836 311.206154 
L 180.04228 281.16 
L 182.167725 243.36 
L 184.293169 251.029565 
L 186.418614 314.378182 
L 188.544058 354.96 
L 190.669502 257.949474 
L 192.794947 218.16 
L 194.920391 255.96 
L 197.045835 304.56 
L 199.17128 304.56 
L 201.296724 299.575385 
L 203.422169 276.313846 
L 205.547613 218.16 
L 207.673057 318.96 
L 209.798502 318.96 
L 211.923946 293.76 
L 214.049391 318.96 
L 216.174835 218.16 
L 218.300279 268.56 
L 220.425724 344.16 
L 222.551168 286.887273 
L 224.676612 259.396364 
L 226.802057 248.4 
L 228.927501 248.4 
L 231.052946 308.88 
L 233.17839 308.88 
L 235.303834 278.64 
L 237.429279 218.16 
L 239.554723 308.88 
L 241.680168 248.4 
L 243.805612 339.12 
L 245.931056 339.12 
L 248.056501 248.4 
L 250.181945 218.16 
L 252.30739 302.16 
L 254.432834 335.76 
L 256.558278 302.16 
L 258.683723 293.76 
L 260.809167 282.96 
L 262.934611 239.76 
L 265.060056 369.36 
L 267.1855 268.56 
L 271.436389 369.36 
L 273.561833 268.56 
L 275.687278 318.96 
L 277.812722 318.96 
L 279.938167 268.56 
L 282.063611 369.36 
L 284.189055 369.36 
L 288.439944 268.56 
L 290.565389 318.96 
L 292.690833 308.88 
L 294.816277 369.36 
L 296.941722 369.36 
L 299.067166 248.4 
L 303.318055 369.36 
L 307.568944 369.36 
L 309.694388 293.76 
L 311.819832 293.76 
L 313.945277 369.36 
L 318.196166 369.36 
L 320.32161 293.76 
L 322.447054 369.36 
L 324.572499 293.76 
L 326.697943 369.36 
L 337.325165 369.36 
L 339.450609 268.56 
L 341.576054 369.36 
L 352.203276 369.36 
L 354.32872 218.16 
L 356.454165 369.36 
L 367.081386 369.36 
L 369.206831 218.16 
L 371.332275 369.36 
L 381.959497 369.36 
L 384.084942 66.96 
L 386.210386 369.36 
L 428.719274 369.36 
L 430.844718 66.96 
L 432.970163 369.36 
L 445.722829 369.36 
L 447.848273 66.96 
L 449.973718 369.36 
L 462.726384 369.36 
L 464.851828 66.96 
L 466.977273 66.96 
L 466.977273 66.96 
" style="fill:none;stroke:#1f77b4;stroke-linecap:square;stroke-width:1.5;"/>
   </g>
   <g id="line2d_16">
    <path clip-path="url(#p319600cd47)" d="M 86.522727 100.224 
L 90.773616 148.608 
L 92.89906 175.824 
L 95.024505 196.992 
L 97.149949 203.04 
L 99.275394 215.136 
L 101.400838 212.112 
L 103.526282 233.277556 
L 105.651727 236.300945 
L 107.777171 245.376 
L 109.902616 228.848441 
L 112.02806 264.442597 
L 114.153504 259.981277 
L 116.278949 260.880474 
L 118.404393 247.693592 
L 120.529837 269.733664 
L 122.655282 257.350949 
L 124.780726 241.405091 
L 126.906171 269.881493 
L 129.031615 274.074082 
L 131.157059 276.954909 
L 133.282504 259.77619 
L 135.407948 280.960515 
L 137.533393 242.52739 
L 139.658837 285.929831 
L 141.784281 268.54303 
L 143.909726 279.753212 
L 146.03517 253.042909 
L 148.160615 293.752951 
L 150.286059 270.498462 
L 152.411503 293.756476 
L 154.536948 260.488669 
L 156.662392 298.585532 
L 158.787836 281.995927 
L 160.913281 288.228293 
L 163.038725 305.687196 
L 165.16417 287.63027 
L 167.289614 280.413433 
L 169.415058 286.887273 
L 171.540503 314.367074 
L 173.665947 255.96 
L 175.791392 315.353455 
L 177.916836 311.206154 
L 180.04228 281.16 
L 182.167725 255.96 
L 184.293169 316.760727 
L 186.418614 300.632727 
L 188.544058 311.76 
L 190.669502 273.865263 
L 192.794947 302.16 
L 194.920391 312.66 
L 197.045835 282.96 
L 199.17128 326.138182 
L 201.296724 322.836923 
L 203.422169 299.575385 
L 205.547613 268.56 
L 209.798502 369.36 
L 211.923946 293.76 
L 214.049391 268.56 
L 216.174835 318.934545 
L 218.300279 268.56 
L 220.425724 318.96 
L 222.551168 286.887273 
L 224.676612 286.859504 
L 226.802057 308.88 
L 228.927501 278.64 
L 231.052946 278.64 
L 235.303834 339.12 
L 237.429279 339.12 
L 239.554723 218.16 
L 241.680168 308.88 
L 243.805612 278.64 
L 245.931056 339.12 
L 248.056501 369.36 
L 250.181945 248.4 
L 252.30739 302.16 
L 254.432834 335.76 
L 256.558278 268.56 
L 258.683723 331.56 
L 260.809167 369.36 
L 262.934611 282.96 
L 265.060056 268.56 
L 267.1855 268.56 
L 271.436389 369.36 
L 273.561833 369.36 
L 275.687278 318.96 
L 277.812722 218.16 
L 279.938167 318.96 
L 282.063611 318.96 
L 284.189055 369.36 
L 288.439944 369.36 
L 290.565389 268.56 
L 292.690833 308.88 
L 294.816277 308.88 
L 296.941722 369.36 
L 301.19261 369.36 
L 303.318055 308.88 
L 305.443499 293.76 
L 307.568944 293.76 
L 309.694388 369.36 
L 313.945277 369.36 
L 316.070721 293.76 
L 320.32161 293.76 
L 322.447054 369.36 
L 324.572499 293.76 
L 326.697943 369.36 
L 328.823388 293.76 
L 330.948832 293.76 
L 333.074276 268.56 
L 335.199721 369.36 
L 337.325165 268.56 
L 339.450609 268.56 
L 341.576054 369.36 
L 343.701498 369.36 
L 345.826943 268.56 
L 347.952387 369.36 
L 350.077831 369.36 
L 352.203276 218.16 
L 354.32872 218.16 
L 356.454165 369.36 
L 364.955942 369.36 
L 367.081386 218.16 
L 369.206831 369.36 
L 379.834053 369.36 
L 381.959497 66.96 
L 384.084942 369.36 
L 394.712164 369.36 
L 396.837608 66.96 
L 398.963052 369.36 
L 409.590274 369.36 
L 411.715719 66.96 
L 413.841163 369.36 
L 464.851828 369.36 
L 466.977273 66.96 
L 466.977273 66.96 
" style="fill:none;stroke:#ff7f0e;stroke-dasharray:5.55,2.4;stroke-dashoffset:0;stroke-width:1.5;"/>
   </g>
   <g id="line2d_17">
    <path clip-path="url(#p319600cd47)" d="M 86.522727 94.176 
L 88.648172 115.344 
L 90.773616 130.464 
L 92.89906 175.816669 
L 95.024505 187.912669 
L 97.149949 215.136 
L 99.275394 230.233396 
L 101.400838 218.16 
L 103.526282 251.401396 
L 105.651727 242.352 
L 107.777171 263.497091 
L 109.902616 234.96 
L 112.02806 286.031688 
L 114.153504 237.462128 
L 116.278949 267.457708 
L 118.404393 254.656552 
L 120.529837 273.303529 
L 122.655282 238.685791 
L 124.780726 284.067692 
L 126.906171 265.907368 
L 129.031615 245.06929 
L 131.157059 281.156606 
L 133.282504 281.691004 
L 135.407948 253.041499 
L 137.533393 242.528375 
L 139.658837 280.719724 
L 141.784281 257.330586 
L 143.909726 251.76 
L 146.03517 258.858881 
L 150.286059 247.228112 
L 152.411503 276.296224 
L 154.536948 260.488669 
L 156.662392 259.979327 
L 158.787836 275.259636 
L 160.913281 251.341304 
L 163.038725 297.738947 
L 165.16417 246.753022 
L 167.289614 262.617112 
L 169.415058 250.232727 
L 171.540503 296.037025 
L 173.665947 246.51 
L 175.791392 250.543636 
L 177.916836 264.665455 
L 180.04228 255.96 
L 182.167725 268.56 
L 184.293169 277.325217 
L 186.418614 300.632727 
L 188.544058 239.754182 
L 190.669502 242.033684 
L 192.794947 285.36 
L 194.920391 237.06 
L 197.045835 261.318545 
L 199.17128 218.16 
L 201.296724 299.575385 
L 203.422169 276.313846 
L 205.547613 268.56 
L 207.673057 293.683636 
L 209.798502 293.76 
L 211.923946 318.96 
L 214.049391 318.96 
L 216.174835 243.36 
L 218.300279 293.683636 
L 220.425724 318.96 
L 222.551168 286.887273 
L 224.676612 314.378182 
L 226.802057 278.64 
L 231.052946 278.64 
L 233.17839 308.88 
L 235.303834 369.36 
L 237.429279 339.12 
L 239.554723 278.64 
L 241.680168 248.4 
L 245.931056 369.36 
L 248.056501 308.88 
L 250.181945 308.88 
L 252.30739 302.16 
L 254.432834 268.56 
L 256.558278 335.76 
L 258.683723 255.96 
L 260.809167 369.36 
L 262.934611 326.16 
L 265.060056 218.16 
L 267.1855 318.96 
L 269.310945 218.16 
L 271.436389 369.36 
L 273.561833 369.36 
L 275.687278 268.56 
L 277.812722 318.96 
L 279.938167 218.16 
L 282.063611 318.949818 
L 284.189055 369.36 
L 286.3145 318.96 
L 288.439944 318.96 
L 290.565389 268.56 
L 292.690833 308.88 
L 296.941722 308.88 
L 299.067166 369.36 
L 301.19261 248.4 
L 303.318055 369.36 
L 307.568944 218.16 
L 309.694388 369.36 
L 311.819832 293.76 
L 313.945277 369.36 
L 316.070721 369.36 
L 318.196166 218.16 
L 320.32161 293.76 
L 324.572499 293.76 
L 326.697943 369.36 
L 328.823388 293.76 
L 330.948832 293.76 
L 333.074276 369.36 
L 335.199721 268.56 
L 339.450609 268.56 
L 341.576054 369.36 
L 343.701498 268.56 
L 345.826943 369.36 
L 347.952387 369.36 
L 350.077831 218.16 
L 354.32872 218.16 
L 356.454165 369.36 
L 362.830498 369.36 
L 364.955942 218.16 
L 369.206831 218.16 
L 371.332275 369.36 
L 377.708608 369.36 
L 379.834053 66.96 
L 384.084942 66.96 
L 386.210386 369.36 
L 392.586719 369.36 
L 394.712164 66.96 
L 398.963052 66.96 
L 401.088497 369.36 
L 407.46483 369.36 
L 409.590274 66.96 
L 413.841163 66.96 
L 415.966607 369.36 
L 422.342941 369.36 
L 424.468385 66.96 
L 430.844718 66.96 
L 432.970163 369.36 
L 439.346496 369.36 
L 441.47194 66.96 
L 443.597384 369.36 
L 445.722829 66.96 
L 447.848273 66.96 
L 449.973718 369.36 
L 456.350051 369.36 
L 458.475495 66.96 
L 460.60094 369.36 
L 462.726384 66.96 
L 464.851828 369.36 
L 466.977273 66.96 
L 466.977273 66.96 
" style="fill:none;stroke:#2ca02c;stroke-dasharray:9.6,2.4,1.5,2.4;stroke-dashoffset:0;stroke-width:1.5;"/>
   </g>
   <g id="line2d_18">
    <path clip-path="url(#p319600cd47)" d="M 86.522727 109.296 
L 88.648172 139.536 
L 90.773616 160.704 
L 92.89906 166.752 
L 95.024505 206.064 
L 97.149949 206.064 
L 99.275394 218.16 
L 101.400838 233.28 
L 103.526282 233.28 
L 105.651727 239.328 
L 107.777171 251.424 
L 109.902616 222.741818 
L 112.02806 242.841974 
L 114.153504 253.547234 
L 116.278949 234.594783 
L 118.404393 247.700614 
L 120.529837 266.183923 
L 122.655282 249.893333 
L 124.780726 249.175385 
L 126.906171 277.839388 
L 129.031615 257.508403 
L 131.157059 260.16 
L 133.282504 255.412174 
L 135.407948 285.612822 
L 137.533393 252.296023 
L 139.658837 270.297931 
L 141.784281 257.36 
L 143.909726 268.56 
L 146.03517 264.671329 
L 148.160615 282.129231 
L 150.286059 258.867692 
L 152.411503 282.124531 
L 154.536948 260.496 
L 156.662392 272.849362 
L 158.787836 281.99457 
L 160.913281 266.101463 
L 163.038725 265.907368 
L 165.16417 271.284324 
L 167.289614 271.517519 
L 169.415058 296.050909 
L 171.540503 305.214545 
L 173.665947 255.96 
L 175.791392 261.36 
L 177.916836 264.683077 
L 180.04228 306.36 
L 182.167725 268.56 
L 184.293169 303.62087 
L 186.418614 259.396364 
L 188.544058 254.16 
L 190.669502 289.781053 
L 192.794947 285.36 
L 194.920391 274.86 
L 197.045835 282.96 
L 199.17128 239.76 
L 201.296724 369.36 
L 203.422169 299.575385 
L 205.547613 243.36 
L 207.673057 268.56 
L 209.798502 318.96 
L 211.923946 344.16 
L 214.049391 318.96 
L 218.300279 218.16 
L 220.425724 318.96 
L 222.551168 369.36 
L 224.676612 231.886163 
L 226.802057 308.88 
L 228.927501 248.4 
L 231.052946 218.16 
L 233.17839 339.12 
L 235.303834 339.12 
L 237.429279 278.64 
L 239.554723 278.64 
L 241.680168 248.4 
L 245.931056 369.36 
L 248.056501 339.12 
L 250.181945 278.64 
L 252.30739 268.56 
L 254.432834 335.76 
L 256.558278 335.76 
L 258.683723 331.56 
L 260.809167 326.16 
L 262.934611 282.96 
L 265.060056 318.96 
L 267.1855 369.36 
L 269.310945 318.96 
L 277.812722 318.96 
L 279.938167 369.36 
L 282.063611 268.56 
L 284.189055 369.36 
L 286.3145 369.36 
L 288.439944 318.96 
L 290.565389 369.36 
L 292.690833 308.88 
L 294.816277 308.88 
L 296.941722 369.36 
L 299.067166 369.36 
L 301.19261 308.88 
L 303.318055 308.88 
L 305.443499 369.36 
L 307.568944 293.76 
L 309.694388 369.36 
L 311.819832 369.36 
L 313.945277 218.16 
L 316.070721 369.36 
L 318.196166 369.36 
L 320.32161 293.76 
L 322.447054 369.36 
L 324.572499 218.16 
L 326.697943 369.36 
L 330.948832 369.36 
L 333.074276 268.56 
L 339.450609 268.56 
L 341.576054 369.36 
L 343.701498 369.36 
L 345.826943 268.56 
L 347.952387 369.36 
L 350.077831 369.36 
L 352.203276 218.16 
L 354.32872 218.16 
L 356.454165 369.36 
L 364.955942 369.36 
L 367.081386 218.16 
L 369.206831 218.16 
L 371.332275 369.36 
L 379.834053 369.36 
L 381.959497 66.96 
L 384.084942 66.96 
L 386.210386 369.36 
L 394.712164 369.36 
L 396.837608 66.96 
L 398.963052 66.96 
L 401.088497 369.36 
L 409.590274 369.36 
L 411.715719 66.96 
L 413.841163 66.96 
L 415.966607 369.36 
L 424.468385 369.36 
L 426.593829 66.96 
L 430.844718 66.96 
L 432.970163 369.36 
L 441.47194 369.36 
L 443.597384 66.96 
L 445.722829 369.36 
L 447.848273 66.96 
L 449.973718 369.36 
L 458.475495 369.36 
L 460.60094 66.96 
L 462.726384 369.36 
L 464.851828 66.96 
L 466.977273 66.96 
L 466.977273 66.96 
" style="fill:none;stroke:#d62728;stroke-dasharray:1.5,2.475;stroke-dashoffset:0;stroke-width:1.5;"/>
   </g>
   <g id="line2d_19">
    <path clip-path="url(#p319600cd47)" d="M 86.522727 97.2 
L 88.648172 142.56 
L 90.773616 166.752 
L 92.89906 175.824 
L 95.024505 181.872 
L 97.149949 215.136 
L 99.275394 196.992 
L 101.400838 230.256 
L 103.526282 215.136 
L 105.651727 230.256 
L 107.777171 239.328 
L 109.902616 231.905455 
L 112.02806 249.017143 
L 114.153504 234.245106 
L 116.278949 277.325217 
L 118.404393 233.801379 
L 120.529837 262.630588 
L 122.655282 261.093333 
L 124.780726 233.667692 
L 126.906171 261.928421 
L 129.031615 274.078267 
L 131.157059 255.96 
L 133.282504 259.794783 
L 135.407948 276.313846 
L 137.533393 266.934194 
L 139.658837 259.870345 
L 141.784281 279.76 
L 143.909726 262.96 
L 146.03517 258.867692 
L 148.160615 287.944615 
L 150.286059 247.236923 
L 152.411503 293.76 
L 154.536948 290.736 
L 156.662392 253.547234 
L 158.787836 282 
L 160.913281 273.477073 
L 163.038725 265.907368 
L 165.16417 254.938378 
L 167.289614 244.842353 
L 169.415058 268.56 
L 171.540503 286.887273 
L 173.665947 237.06 
L 175.791392 228.96 
L 177.916836 276.299748 
L 180.04228 293.76 
L 182.167725 268.56 
L 184.293169 251.029565 
L 186.418614 259.396364 
L 188.544058 282.96 
L 190.669502 321.612632 
L 192.794947 251.76 
L 194.920391 293.76 
L 197.045835 261.36 
L 199.17128 326.16 
L 201.296724 276.313846 
L 203.422169 299.575385 
L 205.547613 318.96 
L 209.798502 318.96 
L 211.923946 344.16 
L 214.049391 318.96 
L 216.174835 369.36 
L 218.300279 243.36 
L 220.425724 344.16 
L 222.551168 314.378182 
L 224.676612 314.378182 
L 226.802057 369.36 
L 228.927501 248.4 
L 231.052946 278.64 
L 233.17839 339.12 
L 235.303834 369.36 
L 237.429279 308.88 
L 239.554723 278.64 
L 241.680168 308.88 
L 243.805612 369.36 
L 245.931056 369.36 
L 250.181945 308.88 
L 252.30739 302.16 
L 254.432834 335.76 
L 256.558278 335.76 
L 258.683723 331.56 
L 260.809167 326.16 
L 262.934611 326.16 
L 265.060056 318.96 
L 267.1855 268.56 
L 271.436389 369.36 
L 273.561833 318.96 
L 275.687278 369.36 
L 277.812722 268.56 
L 279.938167 268.56 
L 282.063611 369.36 
L 284.189055 318.96 
L 286.3145 369.36 
L 290.565389 268.56 
L 292.690833 308.88 
L 294.816277 308.88 
L 296.941722 369.36 
L 301.19261 369.36 
L 303.318055 308.88 
L 305.443499 218.16 
L 307.568944 369.36 
L 316.070721 369.36 
L 318.196166 293.76 
L 320.32161 369.36 
L 322.447054 369.36 
L 324.572499 293.76 
L 326.697943 369.36 
L 335.199721 369.36 
L 337.325165 268.56 
L 339.450609 268.56 
L 341.576054 369.36 
L 350.077831 369.36 
L 352.203276 218.16 
L 354.32872 218.16 
L 356.454165 369.36 
L 364.955942 369.36 
L 367.081386 218.16 
L 369.206831 218.16 
L 371.332275 369.36 
L 381.959497 369.36 
L 384.084942 66.96 
L 386.210386 369.36 
L 396.837608 369.36 
L 398.963052 66.96 
L 401.088497 369.36 
L 428.719274 369.36 
L 430.844718 66.96 
L 432.970163 369.36 
L 445.722829 369.36 
L 447.848273 66.96 
L 449.973718 369.36 
L 462.726384 369.36 
L 464.851828 66.96 
L 466.977273 66.96 
L 466.977273 66.96 
" style="fill:none;stroke:#9467bd;stroke-linecap:square;stroke-width:1.5;"/>
   </g>
   <g id="line2d_20">
    <path clip-path="url(#p319600cd47)" d="M 86.522727 121.392 
L 88.648172 166.752 
L 90.773616 166.752 
L 92.89906 203.04 
L 95.024505 200.016 
L 97.149949 239.328 
L 101.400838 227.232 
L 103.526282 248.4 
L 105.651727 239.328 
L 107.777171 251.424 
L 112.02806 273.702857 
L 114.153504 276.066383 
L 116.278949 274.038261 
L 118.404393 282.463448 
L 120.529837 262.630588 
L 122.655282 264.817616 
L 124.780726 256.929231 
L 126.906171 281.813512 
L 129.031615 253.370959 
L 131.157059 293.749818 
L 133.282504 264.177391 
L 135.407948 271.65026 
L 137.533393 257.179355 
L 139.658837 317.209429 
L 141.784281 268.56 
L 143.909726 296.56 
L 146.03517 270.498462 
L 148.160615 317.021538 
L 150.286059 293.76 
L 152.411503 293.76 
L 154.536948 278.64 
L 156.662392 317.88766 
L 158.787836 275.275927 
L 160.913281 280.842331 
L 163.038725 297.738947 
L 165.16417 312.149189 
L 167.289614 289.299465 
L 169.415058 286.874411 
L 171.540503 286.887273 
L 173.665947 303.21 
L 175.791392 293.743636 
L 177.916836 311.196755 
L 180.04228 281.16 
L 182.167725 281.16 
L 184.293169 329.896601 
L 186.418614 314.367074 
L 188.544058 340.56 
L 190.669502 257.949474 
L 192.794947 285.36 
L 194.920391 331.56 
L 197.045835 304.56 
L 199.17128 304.56 
L 201.296724 346.098462 
L 203.422169 276.313846 
L 205.547613 318.96 
L 207.673057 318.96 
L 209.798502 369.36 
L 211.923946 344.16 
L 214.049391 344.16 
L 216.174835 318.96 
L 218.300279 268.56 
L 220.425724 344.16 
L 222.551168 369.36 
L 224.676612 314.378182 
L 226.802057 339.12 
L 228.927501 278.64 
L 231.052946 308.88 
L 233.17839 369.36 
L 237.429279 308.88 
L 239.554723 339.12 
L 241.680168 339.12 
L 243.805612 308.88 
L 245.931056 339.12 
L 250.181945 339.12 
L 252.30739 335.76 
L 256.558278 335.76 
L 258.683723 331.56 
L 260.809167 369.36 
L 262.934611 369.36 
L 265.060056 318.96 
L 269.310945 318.96 
L 271.436389 369.36 
L 275.687278 369.36 
L 277.812722 318.96 
L 279.938167 318.96 
L 282.063611 369.36 
L 288.439944 369.36 
L 290.565389 318.96 
L 292.690833 308.88 
L 294.816277 369.36 
L 301.19261 369.36 
L 303.318055 308.88 
L 305.443499 293.76 
L 307.568944 369.36 
L 316.070721 369.36 
L 318.196166 293.76 
L 320.32161 369.36 
L 322.447054 369.36 
L 324.572499 293.76 
L 326.697943 369.36 
L 328.823388 369.36 
L 330.948832 293.76 
L 333.074276 369.36 
L 337.325165 369.36 
L 339.450609 268.56 
L 341.576054 369.36 
L 428.719274 369.36 
L 430.844718 66.96 
L 432.970163 369.36 
L 445.722829 369.36 
L 447.848273 66.96 
L 449.973718 369.36 
L 462.726384 369.36 
L 464.851828 66.96 
L 466.977273 66.96 
L 466.977273 66.96 
" style="fill:none;stroke:#8c564b;stroke-dasharray:5.55,2.4;stroke-dashoffset:0;stroke-width:1.5;"/>
   </g>
   <g id="line2d_21">
    <path clip-path="url(#p319600cd47)" d="M 86.522727 106.272 
L 88.648172 121.392 
L 90.773616 139.536 
L 92.89906 142.56 
L 95.024505 163.728 
L 97.149949 169.776 
L 99.275394 200.016 
L 101.400838 212.112 
L 103.526282 209.088 
L 105.651727 227.232 
L 107.777171 227.232 
L 109.902616 219.687273 
L 112.02806 255.183584 
L 114.153504 237.462128 
L 116.278949 257.603478 
L 118.404393 244.228966 
L 120.529837 262.630588 
L 122.655282 234.96 
L 124.780726 264.683077 
L 126.906171 246.012632 
L 129.031615 257.513425 
L 131.157059 260.16 
L 133.282504 264.177391 
L 135.407948 248.390601 
L 137.533393 257.179355 
L 139.658837 312.008276 
L 141.784281 257.348687 
L 143.909726 279.76 
L 146.03517 287.93228 
L 148.160615 305.379021 
L 150.286059 270.498462 
L 152.411503 276.313846 
L 154.536948 272.579782 
L 156.662392 272.849362 
L 158.787836 268.56 
L 160.913281 266.101463 
L 163.038725 289.781053 
L 165.16417 254.938378 
L 167.289614 271.524706 
L 169.415058 250.232727 
L 171.540503 296.050909 
L 173.665947 218.16 
L 175.791392 239.76 
L 177.916836 264.683077 
L 180.04228 306.36 
L 182.167725 230.76 
L 184.293169 277.325217 
L 186.418614 273.141818 
L 188.544058 268.56 
L 190.669502 257.949474 
L 192.794947 268.56 
L 194.920391 293.76 
L 197.045835 304.56 
L 199.17128 239.76 
L 201.296724 322.836923 
L 203.422169 276.313846 
L 205.547613 293.76 
L 207.673057 293.729455 
L 209.798502 344.16 
L 211.923946 293.76 
L 214.049391 293.76 
L 216.174835 268.529455 
L 220.425724 318.96 
L 222.551168 314.378182 
L 224.676612 259.363041 
L 226.802057 278.64 
L 231.052946 278.64 
L 233.17839 339.12 
L 235.303834 369.36 
L 237.429279 248.4 
L 239.554723 308.88 
L 241.680168 278.64 
L 243.805612 339.12 
L 245.931056 339.12 
L 250.181945 278.64 
L 252.30739 335.76 
L 254.432834 302.16 
L 256.558278 335.76 
L 258.683723 255.96 
L 260.809167 326.16 
L 262.934611 326.16 
L 265.060056 369.36 
L 269.310945 268.56 
L 271.436389 369.36 
L 273.561833 318.96 
L 275.687278 369.36 
L 277.812722 369.36 
L 279.938167 218.16 
L 282.063611 369.36 
L 284.189055 318.96 
L 286.3145 369.36 
L 288.439944 369.36 
L 290.565389 268.56 
L 292.690833 369.36 
L 294.816277 308.88 
L 296.941722 369.36 
L 299.067166 369.36 
L 301.19261 308.88 
L 303.318055 369.36 
L 305.443499 293.76 
L 307.568944 369.36 
L 309.694388 369.36 
L 311.819832 293.76 
L 313.945277 369.36 
L 316.070721 293.76 
L 318.196166 369.36 
L 320.32161 369.36 
L 322.447054 293.76 
L 324.572499 293.76 
L 326.697943 369.36 
L 328.823388 293.76 
L 330.948832 369.36 
L 333.074276 369.36 
L 335.199721 268.56 
L 339.450609 268.56 
L 341.576054 369.36 
L 343.701498 268.56 
L 345.826943 369.36 
L 347.952387 369.36 
L 350.077831 218.16 
L 354.32872 218.16 
L 356.454165 369.36 
L 362.830498 369.36 
L 364.955942 218.16 
L 369.206831 218.16 
L 371.332275 369.36 
L 377.708608 369.36 
L 379.834053 66.96 
L 384.084942 66.96 
L 386.210386 369.36 
L 392.586719 369.36 
L 394.712164 66.96 
L 396.837608 369.36 
L 398.963052 66.96 
L 401.088497 369.36 
L 407.46483 369.36 
L 409.590274 66.96 
L 411.715719 369.36 
L 413.841163 66.96 
L 415.966607 369.36 
L 426.593829 369.36 
L 428.719274 66.96 
L 430.844718 66.96 
L 432.970163 369.36 
L 443.597384 369.36 
L 445.722829 66.96 
L 447.848273 369.36 
L 460.60094 369.36 
L 462.726384 66.96 
L 464.851828 369.36 
L 466.977273 66.96 
L 466.977273 66.96 
" style="fill:none;stroke:#e377c2;stroke-dasharray:9.6,2.4,1.5,2.4;stroke-dashoffset:0;stroke-width:1.5;"/>
   </g>
   <g id="line2d_22">
    <path clip-path="url(#p319600cd47)" d="M 86.522727 100.224 
L 88.648172 136.512 
L 90.773616 163.728 
L 92.89906 203.04 
L 95.024505 187.92 
L 97.149949 221.184 
L 99.275394 206.064 
L 101.400838 224.208 
L 103.526282 221.184 
L 105.651727 236.304 
L 107.777171 236.304 
L 109.902616 250.232727 
L 112.02806 255.188571 
L 114.153504 256.764255 
L 116.278949 241.168696 
L 118.404393 265.084138 
L 120.529837 251.954772 
L 122.655282 246.16 
L 124.780726 260.806154 
L 126.906171 257.949474 
L 129.031615 261.648777 
L 131.157059 276.96 
L 133.282504 251.029565 
L 135.407948 290.26654 
L 137.533393 281.56251 
L 139.658837 280.725517 
L 141.784281 285.354909 
L 143.909726 274.16 
L 146.03517 276.313846 
L 148.160615 282.123944 
L 150.286059 293.76 
L 152.411503 276.313846 
L 154.536948 284.682502 
L 156.662392 292.151489 
L 158.787836 288.705745 
L 160.913281 266.094758 
L 163.038725 297.738947 
L 165.16417 287.617887 
L 167.289614 262.625198 
L 169.415058 268.550744 
L 171.540503 259.382479 
L 173.665947 274.86 
L 175.791392 315.353455 
L 177.916836 287.915245 
L 180.04228 268.56 
L 182.167725 255.96 
L 184.293169 303.612901 
L 186.418614 300.618843 
L 188.544058 282.96 
L 190.669502 257.949474 
L 192.794947 285.349818 
L 194.920391 293.76 
L 197.045835 347.76 
L 199.17128 304.56 
L 201.296724 322.827524 
L 203.422169 322.836923 
L 205.547613 192.96 
L 207.673057 369.36 
L 209.798502 369.349818 
L 211.923946 344.16 
L 214.049391 344.16 
L 216.174835 293.76 
L 218.300279 293.749818 
L 220.425724 369.36 
L 222.551168 314.378182 
L 224.676612 341.835769 
L 226.802057 278.64 
L 228.927501 308.88 
L 231.052946 308.88 
L 235.303834 369.36 
L 237.429279 278.64 
L 239.554723 308.88 
L 241.680168 369.36 
L 243.805612 308.88 
L 245.931056 369.36 
L 248.056501 308.88 
L 250.181945 339.12 
L 252.30739 302.16 
L 254.432834 369.36 
L 256.558278 369.36 
L 258.683723 293.76 
L 260.809167 369.36 
L 262.934611 326.16 
L 265.060056 268.56 
L 267.1855 369.36 
L 269.310945 268.56 
L 271.436389 369.36 
L 273.561833 369.36 
L 277.812722 268.56 
L 279.938167 268.56 
L 282.063611 369.36 
L 286.3145 369.36 
L 288.439944 318.96 
L 290.565389 167.76 
L 292.690833 369.36 
L 299.067166 369.36 
L 303.318055 248.4 
L 305.443499 369.36 
L 313.945277 369.36 
L 316.070721 293.76 
L 318.196166 369.36 
L 322.447054 369.36 
L 324.572499 293.76 
L 326.697943 369.36 
L 328.823388 293.76 
L 330.948832 369.36 
L 335.199721 369.36 
L 337.325165 268.56 
L 339.450609 369.36 
L 350.077831 369.36 
L 352.203276 218.16 
L 354.32872 369.36 
L 364.955942 369.36 
L 367.081386 218.16 
L 369.206831 369.36 
L 379.834053 369.36 
L 381.959497 66.96 
L 384.084942 369.36 
L 394.712164 369.36 
L 396.837608 66.96 
L 398.963052 369.36 
L 409.590274 369.36 
L 411.715719 66.96 
L 413.841163 369.36 
L 424.468385 369.36 
L 426.593829 66.96 
L 428.719274 369.36 
L 430.844718 66.96 
L 432.970163 369.36 
L 441.47194 369.36 
L 443.597384 66.96 
L 445.722829 369.36 
L 447.848273 66.96 
L 449.973718 369.36 
L 458.475495 369.36 
L 460.60094 66.96 
L 462.726384 369.36 
L 464.851828 66.96 
L 466.977273 369.36 
L 466.977273 369.36 
" style="fill:none;stroke:#7f7f7f;stroke-dasharray:1.5,2.475;stroke-dashoffset:0;stroke-width:1.5;"/>
   </g>
   <g id="patch_3">
    <path d="M 67.5 384.48 
L 67.5 51.84 
" style="fill:none;stroke:#000000;stroke-linecap:square;stroke-linejoin:miter;stroke-width:0.8;"/>
   </g>
   <g id="patch_4">
    <path d="M 486 384.48 
L 486 51.84 
" style="fill:none;stroke:#000000;stroke-linecap:square;stroke-linejoin:miter;stroke-width:0.8;"/>
   </g>
   <g id="patch_5">
    <path d="M 67.5 384.48 
L 486 384.48 
" style="fill:none;stroke:#000000;stroke-linecap:square;stroke-linejoin:miter;stroke-width:0.8;"/>
   </g>
   <g id="patch_6">
    <path d="M 67.5 51.84 
L 486 51.84 
" style="fill:none;stroke:#000000;stroke-linecap:square;stroke-linejoin:miter;stroke-width:0.8;"/>
   </g>
   <g id="text_17">
    <!-- DD-Random -->
    <g transform="translate(200.966797 45.84)scale(0.25 -0.25)">
     <use xlink:href="#DejaVuSans-68"/>
     <use x="77.001953" xlink:href="#DejaVuSans-68"/>
     <use x="154.003906" xlink:href="#DejaVuSans-45"/>
     <use x="190.087891" xlink:href="#DejaVuSans-82"/>
     <use x="259.539062" xlink:href="#DejaVuSans-97"/>
     <use x="320.818359" xlink:href="#DejaVuSans-110"/>
     <use x="384.197266" xlink:href="#DejaVuSans-100"/>
     <use x="447.673828" xlink:href="#DejaVuSans-111"/>
     <use x="508.855469" xlink:href="#DejaVuSans-109"/>
    </g>
   </g>
   <g id="legend_1">
    <g id="patch_7">
     <path d="M 382.427344 308.47875 
L 475.5 308.47875 
Q 478.5 308.47875 478.5 305.47875 
L 478.5 130.84125 
Q 478.5 127.84125 475.5 127.84125 
L 382.427344 127.84125 
Q 379.427344 127.84125 379.427344 130.84125 
L 379.427344 305.47875 
Q 379.427344 308.47875 382.427344 308.47875 
z
" style="fill:#ffffff;opacity:0.8;stroke:#cccccc;stroke-linejoin:miter;"/>
    </g>
    <g id="line2d_23">
     <path d="M 385.427344 139.988906 
L 415.427344 139.988906 
" style="fill:none;stroke:#1f77b4;stroke-linecap:square;stroke-width:1.5;"/>
    </g>
    <g id="line2d_24"/>
    <g id="text_18">
     <!-- Stra 1 -->
     <defs>
      <path d="M 53.515625 70.515625 
L 53.515625 60.890625 
Q 47.90625 63.578125 42.921875 64.890625 
Q 37.9375 66.21875 33.296875 66.21875 
Q 25.25 66.21875 20.875 63.09375 
Q 16.5 59.96875 16.5 54.203125 
Q 16.5 49.359375 19.40625 46.890625 
Q 22.3125 44.4375 30.421875 42.921875 
L 36.375 41.703125 
Q 47.40625 39.59375 52.65625 34.296875 
Q 57.90625 29 57.90625 20.125 
Q 57.90625 9.515625 50.796875 4.046875 
Q 43.703125 -1.421875 29.984375 -1.421875 
Q 24.8125 -1.421875 18.96875 -0.25 
Q 13.140625 0.921875 6.890625 3.21875 
L 6.890625 13.375 
Q 12.890625 10.015625 18.65625 8.296875 
Q 24.421875 6.59375 29.984375 6.59375 
Q 38.421875 6.59375 43.015625 9.90625 
Q 47.609375 13.234375 47.609375 19.390625 
Q 47.609375 24.75 44.3125 27.78125 
Q 41.015625 30.8125 33.5 32.328125 
L 27.484375 33.5 
Q 16.453125 35.6875 11.515625 40.375 
Q 6.59375 45.0625 6.59375 53.421875 
Q 6.59375 63.09375 13.40625 68.65625 
Q 20.21875 74.21875 32.171875 74.21875 
Q 37.3125 74.21875 42.625 73.28125 
Q 47.953125 72.359375 53.515625 70.515625 
z
" id="DejaVuSans-83"/>
     </defs>
     <g transform="translate(427.427344 145.238906)scale(0.15 -0.15)">
      <use xlink:href="#DejaVuSans-83"/>
      <use x="63.476562" xlink:href="#DejaVuSans-116"/>
      <use x="102.685547" xlink:href="#DejaVuSans-114"/>
      <use x="143.798828" xlink:href="#DejaVuSans-97"/>
      <use x="205.078125" xlink:href="#DejaVuSans-32"/>
      <use x="236.865234" xlink:href="#DejaVuSans-49"/>
     </g>
    </g>
    <g id="line2d_25">
     <path d="M 385.427344 162.006094 
L 415.427344 162.006094 
" style="fill:none;stroke:#ff7f0e;stroke-dasharray:5.55,2.4;stroke-dashoffset:0;stroke-width:1.5;"/>
    </g>
    <g id="line2d_26"/>
    <g id="text_19">
     <!-- Stra 2 -->
     <g transform="translate(427.427344 167.256094)scale(0.15 -0.15)">
      <use xlink:href="#DejaVuSans-83"/>
      <use x="63.476562" xlink:href="#DejaVuSans-116"/>
      <use x="102.685547" xlink:href="#DejaVuSans-114"/>
      <use x="143.798828" xlink:href="#DejaVuSans-97"/>
      <use x="205.078125" xlink:href="#DejaVuSans-32"/>
      <use x="236.865234" xlink:href="#DejaVuSans-50"/>
     </g>
    </g>
    <g id="line2d_27">
     <path d="M 385.427344 184.023281 
L 415.427344 184.023281 
" style="fill:none;stroke:#2ca02c;stroke-dasharray:9.6,2.4,1.5,2.4;stroke-dashoffset:0;stroke-width:1.5;"/>
    </g>
    <g id="line2d_28"/>
    <g id="text_20">
     <!-- Stra 3 -->
     <defs>
      <path d="M 40.578125 39.3125 
Q 47.65625 37.796875 51.625 33 
Q 55.609375 28.21875 55.609375 21.1875 
Q 55.609375 10.40625 48.1875 4.484375 
Q 40.765625 -1.421875 27.09375 -1.421875 
Q 22.515625 -1.421875 17.65625 -0.515625 
Q 12.796875 0.390625 7.625 2.203125 
L 7.625 11.71875 
Q 11.71875 9.328125 16.59375 8.109375 
Q 21.484375 6.890625 26.8125 6.890625 
Q 36.078125 6.890625 40.9375 10.546875 
Q 45.796875 14.203125 45.796875 21.1875 
Q 45.796875 27.640625 41.28125 31.265625 
Q 36.765625 34.90625 28.71875 34.90625 
L 20.21875 34.90625 
L 20.21875 43.015625 
L 29.109375 43.015625 
Q 36.375 43.015625 40.234375 45.921875 
Q 44.09375 48.828125 44.09375 54.296875 
Q 44.09375 59.90625 40.109375 62.90625 
Q 36.140625 65.921875 28.71875 65.921875 
Q 24.65625 65.921875 20.015625 65.03125 
Q 15.375 64.15625 9.8125 62.3125 
L 9.8125 71.09375 
Q 15.4375 72.65625 20.34375 73.4375 
Q 25.25 74.21875 29.59375 74.21875 
Q 40.828125 74.21875 47.359375 69.109375 
Q 53.90625 64.015625 53.90625 55.328125 
Q 53.90625 49.265625 50.4375 45.09375 
Q 46.96875 40.921875 40.578125 39.3125 
z
" id="DejaVuSans-51"/>
     </defs>
     <g transform="translate(427.427344 189.273281)scale(0.15 -0.15)">
      <use xlink:href="#DejaVuSans-83"/>
      <use x="63.476562" xlink:href="#DejaVuSans-116"/>
      <use x="102.685547" xlink:href="#DejaVuSans-114"/>
      <use x="143.798828" xlink:href="#DejaVuSans-97"/>
      <use x="205.078125" xlink:href="#DejaVuSans-32"/>
      <use x="236.865234" xlink:href="#DejaVuSans-51"/>
     </g>
    </g>
    <g id="line2d_29">
     <path d="M 385.427344 206.040469 
L 415.427344 206.040469 
" style="fill:none;stroke:#d62728;stroke-dasharray:1.5,2.475;stroke-dashoffset:0;stroke-width:1.5;"/>
    </g>
    <g id="line2d_30"/>
    <g id="text_21">
     <!-- Stra 4 -->
     <g transform="translate(427.427344 211.290469)scale(0.15 -0.15)">
      <use xlink:href="#DejaVuSans-83"/>
      <use x="63.476562" xlink:href="#DejaVuSans-116"/>
      <use x="102.685547" xlink:href="#DejaVuSans-114"/>
      <use x="143.798828" xlink:href="#DejaVuSans-97"/>
      <use x="205.078125" xlink:href="#DejaVuSans-32"/>
      <use x="236.865234" xlink:href="#DejaVuSans-52"/>
     </g>
    </g>
    <g id="line2d_31">
     <path d="M 385.427344 228.057656 
L 415.427344 228.057656 
" style="fill:none;stroke:#9467bd;stroke-linecap:square;stroke-width:1.5;"/>
    </g>
    <g id="line2d_32"/>
    <g id="text_22">
     <!-- Stra 5 -->
     <g transform="translate(427.427344 233.307656)scale(0.15 -0.15)">
      <use xlink:href="#DejaVuSans-83"/>
      <use x="63.476562" xlink:href="#DejaVuSans-116"/>
      <use x="102.685547" xlink:href="#DejaVuSans-114"/>
      <use x="143.798828" xlink:href="#DejaVuSans-97"/>
      <use x="205.078125" xlink:href="#DejaVuSans-32"/>
      <use x="236.865234" xlink:href="#DejaVuSans-53"/>
     </g>
    </g>
    <g id="line2d_33">
     <path d="M 385.427344 250.074844 
L 415.427344 250.074844 
" style="fill:none;stroke:#8c564b;stroke-dasharray:5.55,2.4;stroke-dashoffset:0;stroke-width:1.5;"/>
    </g>
    <g id="line2d_34"/>
    <g id="text_23">
     <!-- Stra 6 -->
     <g transform="translate(427.427344 255.324844)scale(0.15 -0.15)">
      <use xlink:href="#DejaVuSans-83"/>
      <use x="63.476562" xlink:href="#DejaVuSans-116"/>
      <use x="102.685547" xlink:href="#DejaVuSans-114"/>
      <use x="143.798828" xlink:href="#DejaVuSans-97"/>
      <use x="205.078125" xlink:href="#DejaVuSans-32"/>
      <use x="236.865234" xlink:href="#DejaVuSans-54"/>
     </g>
    </g>
    <g id="line2d_35">
     <path d="M 385.427344 272.092031 
L 415.427344 272.092031 
" style="fill:none;stroke:#e377c2;stroke-dasharray:9.6,2.4,1.5,2.4;stroke-dashoffset:0;stroke-width:1.5;"/>
    </g>
    <g id="line2d_36"/>
    <g id="text_24">
     <!-- Stra 7 -->
     <g transform="translate(427.427344 277.342031)scale(0.15 -0.15)">
      <use xlink:href="#DejaVuSans-83"/>
      <use x="63.476562" xlink:href="#DejaVuSans-116"/>
      <use x="102.685547" xlink:href="#DejaVuSans-114"/>
      <use x="143.798828" xlink:href="#DejaVuSans-97"/>
      <use x="205.078125" xlink:href="#DejaVuSans-32"/>
      <use x="236.865234" xlink:href="#DejaVuSans-55"/>
     </g>
    </g>
    <g id="line2d_37">
     <path d="M 385.427344 294.109219 
L 415.427344 294.109219 
" style="fill:none;stroke:#7f7f7f;stroke-dasharray:1.5,2.475;stroke-dashoffset:0;stroke-width:1.5;"/>
    </g>
    <g id="line2d_38"/>
    <g id="text_25">
     <!-- Stra 8 -->
     <g transform="translate(427.427344 299.359219)scale(0.15 -0.15)">
      <use xlink:href="#DejaVuSans-83"/>
      <use x="63.476562" xlink:href="#DejaVuSans-116"/>
      <use x="102.685547" xlink:href="#DejaVuSans-114"/>
      <use x="143.798828" xlink:href="#DejaVuSans-97"/>
      <use x="205.078125" xlink:href="#DejaVuSans-32"/>
      <use x="236.865234" xlink:href="#DejaVuSans-56"/>
     </g>
    </g>
   </g>
  </g>
 </g>
 <defs>
  <clipPath id="p319600cd47">
   <rect height="332.64" width="418.5" x="67.5" y="51.84"/>
  </clipPath>
 </defs>
</svg>
