<?xml version="1.0" encoding="utf-8" standalone="no"?>
<!DOCTYPE svg PUBLIC "-//W3C//DTD SVG 1.1//EN"
  "http://www.w3.org/Graphics/SVG/1.1/DTD/svg11.dtd">
<!-- Created with matplotlib (https://matplotlib.org/) -->
<svg height="432pt" version="1.1" viewBox="0 0 540 432" width="540pt" xmlns="http://www.w3.org/2000/svg" xmlns:xlink="http://www.w3.org/1999/xlink">
 <defs>
  <style type="text/css">
*{stroke-linecap:butt;stroke-linejoin:round;}
  </style>
 </defs>
 <g id="figure_1">
  <g id="patch_1">
   <path d="M 0 432 
L 540 432 
L 540 0 
L 0 0 
z
" style="fill:#ffffff;"/>
  </g>
  <g id="axes_1">
   <g id="patch_2">
    <path d="M 51.05 365.56 
L 529.2 365.56 
L 529.2 66.6 
L 51.05 66.6 
z
" style="fill:#ffffff;"/>
   </g>
   <g id="matplotlib.axis_1">
    <g id="xtick_1">
     <g id="line2d_1">
      <defs>
       <path d="M 0 0 
L 0 3.5 
" id="m516a0f4010" style="stroke:#000000;stroke-width:0.8;"/>
      </defs>
      <g>
       <use style="stroke:#000000;stroke-width:0.8;" x="72.784091" xlink:href="#m516a0f4010" y="365.56"/>
      </g>
     </g>
     <g id="text_1">
      <!-- 0 -->
      <defs>
       <path d="M 31.78125 66.40625 
Q 24.171875 66.40625 20.328125 58.90625 
Q 16.5 51.421875 16.5 36.375 
Q 16.5 21.390625 20.328125 13.890625 
Q 24.171875 6.390625 31.78125 6.390625 
Q 39.453125 6.390625 43.28125 13.890625 
Q 47.125 21.390625 47.125 36.375 
Q 47.125 51.421875 43.28125 58.90625 
Q 39.453125 66.40625 31.78125 66.40625 
z
M 31.78125 74.21875 
Q 44.046875 74.21875 50.515625 64.515625 
Q 56.984375 54.828125 56.984375 36.375 
Q 56.984375 17.96875 50.515625 8.265625 
Q 44.046875 -1.421875 31.78125 -1.421875 
Q 19.53125 -1.421875 13.0625 8.265625 
Q 6.59375 17.96875 6.59375 36.375 
Q 6.59375 54.828125 13.0625 64.515625 
Q 19.53125 74.21875 31.78125 74.21875 
z
" id="DejaVuSans-48"/>
      </defs>
      <g transform="translate(66.421591 387.756875)scale(0.2 -0.2)">
       <use xlink:href="#DejaVuSans-48"/>
      </g>
     </g>
    </g>
    <g id="xtick_2">
     <g id="line2d_2">
      <g>
       <use style="stroke:#000000;stroke-width:0.8;" x="173.872886" xlink:href="#m516a0f4010" y="365.56"/>
      </g>
     </g>
     <g id="text_2">
      <!-- 20 -->
      <defs>
       <path d="M 19.1875 8.296875 
L 53.609375 8.296875 
L 53.609375 0 
L 7.328125 0 
L 7.328125 8.296875 
Q 12.9375 14.109375 22.625 23.890625 
Q 32.328125 33.6875 34.8125 36.53125 
Q 39.546875 41.84375 41.421875 45.53125 
Q 43.3125 49.21875 43.3125 52.78125 
Q 43.3125 58.59375 39.234375 62.25 
Q 35.15625 65.921875 28.609375 65.921875 
Q 23.96875 65.921875 18.8125 64.3125 
Q 13.671875 62.703125 7.8125 59.421875 
L 7.8125 69.390625 
Q 13.765625 71.78125 18.9375 73 
Q 24.125 74.21875 28.421875 74.21875 
Q 39.75 74.21875 46.484375 68.546875 
Q 53.21875 62.890625 53.21875 53.421875 
Q 53.21875 48.921875 51.53125 44.890625 
Q 49.859375 40.875 45.40625 35.40625 
Q 44.1875 33.984375 37.640625 27.21875 
Q 31.109375 20.453125 19.1875 8.296875 
z
" id="DejaVuSans-50"/>
      </defs>
      <g transform="translate(161.147886 387.756875)scale(0.2 -0.2)">
       <use xlink:href="#DejaVuSans-50"/>
       <use x="63.623047" xlink:href="#DejaVuSans-48"/>
      </g>
     </g>
    </g>
    <g id="xtick_3">
     <g id="line2d_3">
      <g>
       <use style="stroke:#000000;stroke-width:0.8;" x="274.961681" xlink:href="#m516a0f4010" y="365.56"/>
      </g>
     </g>
     <g id="text_3">
      <!-- 40 -->
      <defs>
       <path d="M 37.796875 64.3125 
L 12.890625 25.390625 
L 37.796875 25.390625 
z
M 35.203125 72.90625 
L 47.609375 72.90625 
L 47.609375 25.390625 
L 58.015625 25.390625 
L 58.015625 17.1875 
L 47.609375 17.1875 
L 47.609375 0 
L 37.796875 0 
L 37.796875 17.1875 
L 4.890625 17.1875 
L 4.890625 26.703125 
z
" id="DejaVuSans-52"/>
      </defs>
      <g transform="translate(262.236681 387.756875)scale(0.2 -0.2)">
       <use xlink:href="#DejaVuSans-52"/>
       <use x="63.623047" xlink:href="#DejaVuSans-48"/>
      </g>
     </g>
    </g>
    <g id="xtick_4">
     <g id="line2d_4">
      <g>
       <use style="stroke:#000000;stroke-width:0.8;" x="376.050476" xlink:href="#m516a0f4010" y="365.56"/>
      </g>
     </g>
     <g id="text_4">
      <!-- 60 -->
      <defs>
       <path d="M 33.015625 40.375 
Q 26.375 40.375 22.484375 35.828125 
Q 18.609375 31.296875 18.609375 23.390625 
Q 18.609375 15.53125 22.484375 10.953125 
Q 26.375 6.390625 33.015625 6.390625 
Q 39.65625 6.390625 43.53125 10.953125 
Q 47.40625 15.53125 47.40625 23.390625 
Q 47.40625 31.296875 43.53125 35.828125 
Q 39.65625 40.375 33.015625 40.375 
z
M 52.59375 71.296875 
L 52.59375 62.3125 
Q 48.875 64.0625 45.09375 64.984375 
Q 41.3125 65.921875 37.59375 65.921875 
Q 27.828125 65.921875 22.671875 59.328125 
Q 17.53125 52.734375 16.796875 39.40625 
Q 19.671875 43.65625 24.015625 45.921875 
Q 28.375 48.1875 33.59375 48.1875 
Q 44.578125 48.1875 50.953125 41.515625 
Q 57.328125 34.859375 57.328125 23.390625 
Q 57.328125 12.15625 50.6875 5.359375 
Q 44.046875 -1.421875 33.015625 -1.421875 
Q 20.359375 -1.421875 13.671875 8.265625 
Q 6.984375 17.96875 6.984375 36.375 
Q 6.984375 53.65625 15.1875 63.9375 
Q 23.390625 74.21875 37.203125 74.21875 
Q 40.921875 74.21875 44.703125 73.484375 
Q 48.484375 72.75 52.59375 71.296875 
z
" id="DejaVuSans-54"/>
      </defs>
      <g transform="translate(363.325476 387.756875)scale(0.2 -0.2)">
       <use xlink:href="#DejaVuSans-54"/>
       <use x="63.623047" xlink:href="#DejaVuSans-48"/>
      </g>
     </g>
    </g>
    <g id="xtick_5">
     <g id="line2d_5">
      <g>
       <use style="stroke:#000000;stroke-width:0.8;" x="477.139271" xlink:href="#m516a0f4010" y="365.56"/>
      </g>
     </g>
     <g id="text_5">
      <!-- 80 -->
      <defs>
       <path d="M 31.78125 34.625 
Q 24.75 34.625 20.71875 30.859375 
Q 16.703125 27.09375 16.703125 20.515625 
Q 16.703125 13.921875 20.71875 10.15625 
Q 24.75 6.390625 31.78125 6.390625 
Q 38.8125 6.390625 42.859375 10.171875 
Q 46.921875 13.96875 46.921875 20.515625 
Q 46.921875 27.09375 42.890625 30.859375 
Q 38.875 34.625 31.78125 34.625 
z
M 21.921875 38.8125 
Q 15.578125 40.375 12.03125 44.71875 
Q 8.5 49.078125 8.5 55.328125 
Q 8.5 64.0625 14.71875 69.140625 
Q 20.953125 74.21875 31.78125 74.21875 
Q 42.671875 74.21875 48.875 69.140625 
Q 55.078125 64.0625 55.078125 55.328125 
Q 55.078125 49.078125 51.53125 44.71875 
Q 48 40.375 41.703125 38.8125 
Q 48.828125 37.15625 52.796875 32.3125 
Q 56.78125 27.484375 56.78125 20.515625 
Q 56.78125 9.90625 50.3125 4.234375 
Q 43.84375 -1.421875 31.78125 -1.421875 
Q 19.734375 -1.421875 13.25 4.234375 
Q 6.78125 9.90625 6.78125 20.515625 
Q 6.78125 27.484375 10.78125 32.3125 
Q 14.796875 37.15625 21.921875 38.8125 
z
M 18.3125 54.390625 
Q 18.3125 48.734375 21.84375 45.5625 
Q 25.390625 42.390625 31.78125 42.390625 
Q 38.140625 42.390625 41.71875 45.5625 
Q 45.3125 48.734375 45.3125 54.390625 
Q 45.3125 60.0625 41.71875 63.234375 
Q 38.140625 66.40625 31.78125 66.40625 
Q 25.390625 66.40625 21.84375 63.234375 
Q 18.3125 60.0625 18.3125 54.390625 
z
" id="DejaVuSans-56"/>
      </defs>
      <g transform="translate(464.414271 387.756875)scale(0.2 -0.2)">
       <use xlink:href="#DejaVuSans-56"/>
       <use x="63.623047" xlink:href="#DejaVuSans-48"/>
      </g>
     </g>
    </g>
    <g id="text_6">
     <!-- # of games -->
     <defs>
      <path d="M 51.125 44 
L 36.921875 44 
L 32.8125 27.6875 
L 47.125 27.6875 
z
M 43.796875 71.78125 
L 38.71875 51.515625 
L 52.984375 51.515625 
L 58.109375 71.78125 
L 65.921875 71.78125 
L 60.890625 51.515625 
L 76.125 51.515625 
L 76.125 44 
L 58.984375 44 
L 54.984375 27.6875 
L 70.515625 27.6875 
L 70.515625 20.21875 
L 53.078125 20.21875 
L 48 0 
L 40.1875 0 
L 45.21875 20.21875 
L 30.90625 20.21875 
L 25.875 0 
L 18.015625 0 
L 23.09375 20.21875 
L 7.71875 20.21875 
L 7.71875 27.6875 
L 24.90625 27.6875 
L 29 44 
L 13.28125 44 
L 13.28125 51.515625 
L 30.90625 51.515625 
L 35.890625 71.78125 
z
" id="DejaVuSans-35"/>
      <path id="DejaVuSans-32"/>
      <path d="M 30.609375 48.390625 
Q 23.390625 48.390625 19.1875 42.75 
Q 14.984375 37.109375 14.984375 27.296875 
Q 14.984375 17.484375 19.15625 11.84375 
Q 23.34375 6.203125 30.609375 6.203125 
Q 37.796875 6.203125 41.984375 11.859375 
Q 46.1875 17.53125 46.1875 27.296875 
Q 46.1875 37.015625 41.984375 42.703125 
Q 37.796875 48.390625 30.609375 48.390625 
z
M 30.609375 56 
Q 42.328125 56 49.015625 48.375 
Q 55.71875 40.765625 55.71875 27.296875 
Q 55.71875 13.875 49.015625 6.21875 
Q 42.328125 -1.421875 30.609375 -1.421875 
Q 18.84375 -1.421875 12.171875 6.21875 
Q 5.515625 13.875 5.515625 27.296875 
Q 5.515625 40.765625 12.171875 48.375 
Q 18.84375 56 30.609375 56 
z
" id="DejaVuSans-111"/>
      <path d="M 37.109375 75.984375 
L 37.109375 68.5 
L 28.515625 68.5 
Q 23.6875 68.5 21.796875 66.546875 
Q 19.921875 64.59375 19.921875 59.515625 
L 19.921875 54.6875 
L 34.71875 54.6875 
L 34.71875 47.703125 
L 19.921875 47.703125 
L 19.921875 0 
L 10.890625 0 
L 10.890625 47.703125 
L 2.296875 47.703125 
L 2.296875 54.6875 
L 10.890625 54.6875 
L 10.890625 58.5 
Q 10.890625 67.625 15.140625 71.796875 
Q 19.390625 75.984375 28.609375 75.984375 
z
" id="DejaVuSans-102"/>
      <path d="M 45.40625 27.984375 
Q 45.40625 37.75 41.375 43.109375 
Q 37.359375 48.484375 30.078125 48.484375 
Q 22.859375 48.484375 18.828125 43.109375 
Q 14.796875 37.75 14.796875 27.984375 
Q 14.796875 18.265625 18.828125 12.890625 
Q 22.859375 7.515625 30.078125 7.515625 
Q 37.359375 7.515625 41.375 12.890625 
Q 45.40625 18.265625 45.40625 27.984375 
z
M 54.390625 6.78125 
Q 54.390625 -7.171875 48.1875 -13.984375 
Q 42 -20.796875 29.203125 -20.796875 
Q 24.46875 -20.796875 20.265625 -20.09375 
Q 16.0625 -19.390625 12.109375 -17.921875 
L 12.109375 -9.1875 
Q 16.0625 -11.328125 19.921875 -12.34375 
Q 23.78125 -13.375 27.78125 -13.375 
Q 36.625 -13.375 41.015625 -8.765625 
Q 45.40625 -4.15625 45.40625 5.171875 
L 45.40625 9.625 
Q 42.625 4.78125 38.28125 2.390625 
Q 33.9375 0 27.875 0 
Q 17.828125 0 11.671875 7.65625 
Q 5.515625 15.328125 5.515625 27.984375 
Q 5.515625 40.671875 11.671875 48.328125 
Q 17.828125 56 27.875 56 
Q 33.9375 56 38.28125 53.609375 
Q 42.625 51.21875 45.40625 46.390625 
L 45.40625 54.6875 
L 54.390625 54.6875 
z
" id="DejaVuSans-103"/>
      <path d="M 34.28125 27.484375 
Q 23.390625 27.484375 19.1875 25 
Q 14.984375 22.515625 14.984375 16.5 
Q 14.984375 11.71875 18.140625 8.90625 
Q 21.296875 6.109375 26.703125 6.109375 
Q 34.1875 6.109375 38.703125 11.40625 
Q 43.21875 16.703125 43.21875 25.484375 
L 43.21875 27.484375 
z
M 52.203125 31.203125 
L 52.203125 0 
L 43.21875 0 
L 43.21875 8.296875 
Q 40.140625 3.328125 35.546875 0.953125 
Q 30.953125 -1.421875 24.3125 -1.421875 
Q 15.921875 -1.421875 10.953125 3.296875 
Q 6 8.015625 6 15.921875 
Q 6 25.140625 12.171875 29.828125 
Q 18.359375 34.515625 30.609375 34.515625 
L 43.21875 34.515625 
L 43.21875 35.40625 
Q 43.21875 41.609375 39.140625 45 
Q 35.0625 48.390625 27.6875 48.390625 
Q 23 48.390625 18.546875 47.265625 
Q 14.109375 46.140625 10.015625 43.890625 
L 10.015625 52.203125 
Q 14.9375 54.109375 19.578125 55.046875 
Q 24.21875 56 28.609375 56 
Q 40.484375 56 46.34375 49.84375 
Q 52.203125 43.703125 52.203125 31.203125 
z
" id="DejaVuSans-97"/>
      <path d="M 52 44.1875 
Q 55.375 50.25 60.0625 53.125 
Q 64.75 56 71.09375 56 
Q 79.640625 56 84.28125 50.015625 
Q 88.921875 44.046875 88.921875 33.015625 
L 88.921875 0 
L 79.890625 0 
L 79.890625 32.71875 
Q 79.890625 40.578125 77.09375 44.375 
Q 74.3125 48.1875 68.609375 48.1875 
Q 61.625 48.1875 57.5625 43.546875 
Q 53.515625 38.921875 53.515625 30.90625 
L 53.515625 0 
L 44.484375 0 
L 44.484375 32.71875 
Q 44.484375 40.625 41.703125 44.40625 
Q 38.921875 48.1875 33.109375 48.1875 
Q 26.21875 48.1875 22.15625 43.53125 
Q 18.109375 38.875 18.109375 30.90625 
L 18.109375 0 
L 9.078125 0 
L 9.078125 54.6875 
L 18.109375 54.6875 
L 18.109375 46.1875 
Q 21.1875 51.21875 25.484375 53.609375 
Q 29.78125 56 35.6875 56 
Q 41.65625 56 45.828125 52.96875 
Q 50 49.953125 52 44.1875 
z
" id="DejaVuSans-109"/>
      <path d="M 56.203125 29.59375 
L 56.203125 25.203125 
L 14.890625 25.203125 
Q 15.484375 15.921875 20.484375 11.0625 
Q 25.484375 6.203125 34.421875 6.203125 
Q 39.59375 6.203125 44.453125 7.46875 
Q 49.3125 8.734375 54.109375 11.28125 
L 54.109375 2.78125 
Q 49.265625 0.734375 44.1875 -0.34375 
Q 39.109375 -1.421875 33.890625 -1.421875 
Q 20.796875 -1.421875 13.15625 6.1875 
Q 5.515625 13.8125 5.515625 26.8125 
Q 5.515625 40.234375 12.765625 48.109375 
Q 20.015625 56 32.328125 56 
Q 43.359375 56 49.78125 48.890625 
Q 56.203125 41.796875 56.203125 29.59375 
z
M 47.21875 32.234375 
Q 47.125 39.59375 43.09375 43.984375 
Q 39.0625 48.390625 32.421875 48.390625 
Q 24.90625 48.390625 20.390625 44.140625 
Q 15.875 39.890625 15.1875 32.171875 
z
" id="DejaVuSans-101"/>
      <path d="M 44.28125 53.078125 
L 44.28125 44.578125 
Q 40.484375 46.53125 36.375 47.5 
Q 32.28125 48.484375 27.875 48.484375 
Q 21.1875 48.484375 17.84375 46.4375 
Q 14.5 44.390625 14.5 40.28125 
Q 14.5 37.15625 16.890625 35.375 
Q 19.28125 33.59375 26.515625 31.984375 
L 29.59375 31.296875 
Q 39.15625 29.25 43.1875 25.515625 
Q 47.21875 21.78125 47.21875 15.09375 
Q 47.21875 7.46875 41.1875 3.015625 
Q 35.15625 -1.421875 24.609375 -1.421875 
Q 20.21875 -1.421875 15.453125 -0.5625 
Q 10.6875 0.296875 5.421875 2 
L 5.421875 11.28125 
Q 10.40625 8.6875 15.234375 7.390625 
Q 20.0625 6.109375 24.8125 6.109375 
Q 31.15625 6.109375 34.5625 8.28125 
Q 37.984375 10.453125 37.984375 14.40625 
Q 37.984375 18.0625 35.515625 20.015625 
Q 33.0625 21.96875 24.703125 23.78125 
L 21.578125 24.515625 
Q 13.234375 26.265625 9.515625 29.90625 
Q 5.8125 33.546875 5.8125 39.890625 
Q 5.8125 47.609375 11.28125 51.796875 
Q 16.75 56 26.8125 56 
Q 31.78125 56 36.171875 55.265625 
Q 40.578125 54.546875 44.28125 53.078125 
z
" id="DejaVuSans-115"/>
     </defs>
     <g transform="translate(217.681641 414.912344)scale(0.25 -0.25)">
      <use xlink:href="#DejaVuSans-35"/>
      <use x="83.789062" xlink:href="#DejaVuSans-32"/>
      <use x="115.576172" xlink:href="#DejaVuSans-111"/>
      <use x="176.757812" xlink:href="#DejaVuSans-102"/>
      <use x="211.962891" xlink:href="#DejaVuSans-32"/>
      <use x="243.75" xlink:href="#DejaVuSans-103"/>
      <use x="307.226562" xlink:href="#DejaVuSans-97"/>
      <use x="368.505859" xlink:href="#DejaVuSans-109"/>
      <use x="465.917969" xlink:href="#DejaVuSans-101"/>
      <use x="527.441406" xlink:href="#DejaVuSans-115"/>
     </g>
    </g>
   </g>
   <g id="matplotlib.axis_2">
    <g id="ytick_1">
     <g id="line2d_6">
      <defs>
       <path d="M 0 0 
L -3.5 0 
" id="ma5ae246597" style="stroke:#000000;stroke-width:0.8;"/>
      </defs>
      <g>
       <use style="stroke:#000000;stroke-width:0.8;" x="51.05" xlink:href="#ma5ae246597" y="351.970909"/>
      </g>
     </g>
     <g id="text_7">
      <!-- 0 -->
      <g transform="translate(31.325 359.569347)scale(0.2 -0.2)">
       <use xlink:href="#DejaVuSans-48"/>
      </g>
     </g>
    </g>
    <g id="ytick_2">
     <g id="line2d_7">
      <g>
       <use style="stroke:#000000;stroke-width:0.8;" x="51.05" xlink:href="#ma5ae246597" y="289.518917"/>
      </g>
     </g>
     <g id="text_8">
      <!-- 2 -->
      <g transform="translate(31.325 297.117354)scale(0.2 -0.2)">
       <use xlink:href="#DejaVuSans-50"/>
      </g>
     </g>
    </g>
    <g id="ytick_3">
     <g id="line2d_8">
      <g>
       <use style="stroke:#000000;stroke-width:0.8;" x="51.05" xlink:href="#ma5ae246597" y="227.066925"/>
      </g>
     </g>
     <g id="text_9">
      <!-- 4 -->
      <g transform="translate(31.325 234.665362)scale(0.2 -0.2)">
       <use xlink:href="#DejaVuSans-52"/>
      </g>
     </g>
    </g>
    <g id="ytick_4">
     <g id="line2d_9">
      <g>
       <use style="stroke:#000000;stroke-width:0.8;" x="51.05" xlink:href="#ma5ae246597" y="164.614932"/>
      </g>
     </g>
     <g id="text_10">
      <!-- 6 -->
      <g transform="translate(31.325 172.21337)scale(0.2 -0.2)">
       <use xlink:href="#DejaVuSans-54"/>
      </g>
     </g>
    </g>
    <g id="ytick_5">
     <g id="line2d_10">
      <g>
       <use style="stroke:#000000;stroke-width:0.8;" x="51.05" xlink:href="#ma5ae246597" y="102.16294"/>
      </g>
     </g>
     <g id="text_11">
      <!-- 8 -->
      <g transform="translate(31.325 109.761378)scale(0.2 -0.2)">
       <use xlink:href="#DejaVuSans-56"/>
      </g>
     </g>
    </g>
    <g id="text_12">
     <!-- AHEU Value -->
     <defs>
      <path d="M 34.1875 63.1875 
L 20.796875 26.90625 
L 47.609375 26.90625 
z
M 28.609375 72.90625 
L 39.796875 72.90625 
L 67.578125 0 
L 57.328125 0 
L 50.6875 18.703125 
L 17.828125 18.703125 
L 11.1875 0 
L 0.78125 0 
z
" id="DejaVuSans-65"/>
      <path d="M 9.8125 72.90625 
L 19.671875 72.90625 
L 19.671875 43.015625 
L 55.515625 43.015625 
L 55.515625 72.90625 
L 65.375 72.90625 
L 65.375 0 
L 55.515625 0 
L 55.515625 34.71875 
L 19.671875 34.71875 
L 19.671875 0 
L 9.8125 0 
z
" id="DejaVuSans-72"/>
      <path d="M 9.8125 72.90625 
L 55.90625 72.90625 
L 55.90625 64.59375 
L 19.671875 64.59375 
L 19.671875 43.015625 
L 54.390625 43.015625 
L 54.390625 34.71875 
L 19.671875 34.71875 
L 19.671875 8.296875 
L 56.78125 8.296875 
L 56.78125 0 
L 9.8125 0 
z
" id="DejaVuSans-69"/>
      <path d="M 8.6875 72.90625 
L 18.609375 72.90625 
L 18.609375 28.609375 
Q 18.609375 16.890625 22.84375 11.734375 
Q 27.09375 6.59375 36.625 6.59375 
Q 46.09375 6.59375 50.34375 11.734375 
Q 54.59375 16.890625 54.59375 28.609375 
L 54.59375 72.90625 
L 64.5 72.90625 
L 64.5 27.390625 
Q 64.5 13.140625 57.4375 5.859375 
Q 50.390625 -1.421875 36.625 -1.421875 
Q 22.796875 -1.421875 15.734375 5.859375 
Q 8.6875 13.140625 8.6875 27.390625 
z
" id="DejaVuSans-85"/>
      <path d="M 28.609375 0 
L 0.78125 72.90625 
L 11.078125 72.90625 
L 34.1875 11.53125 
L 57.328125 72.90625 
L 67.578125 72.90625 
L 39.796875 0 
z
" id="DejaVuSans-86"/>
      <path d="M 9.421875 75.984375 
L 18.40625 75.984375 
L 18.40625 0 
L 9.421875 0 
z
" id="DejaVuSans-108"/>
      <path d="M 8.5 21.578125 
L 8.5 54.6875 
L 17.484375 54.6875 
L 17.484375 21.921875 
Q 17.484375 14.15625 20.5 10.265625 
Q 23.53125 6.390625 29.59375 6.390625 
Q 36.859375 6.390625 41.078125 11.03125 
Q 45.3125 15.671875 45.3125 23.6875 
L 45.3125 54.6875 
L 54.296875 54.6875 
L 54.296875 0 
L 45.3125 0 
L 45.3125 8.40625 
Q 42.046875 3.421875 37.71875 1 
Q 33.40625 -1.421875 27.6875 -1.421875 
Q 18.265625 -1.421875 13.375 4.4375 
Q 8.5 10.296875 8.5 21.578125 
z
M 31.109375 56 
z
" id="DejaVuSans-117"/>
     </defs>
     <g transform="translate(23.858854 265.582604)rotate(-90)scale(0.166667 -0.166667)">
      <use xlink:href="#DejaVuSans-65"/>
      <use x="68.408203" xlink:href="#DejaVuSans-72"/>
      <use x="143.603516" xlink:href="#DejaVuSans-69"/>
      <use x="206.787109" xlink:href="#DejaVuSans-85"/>
      <use x="279.980469" xlink:href="#DejaVuSans-32"/>
      <use x="311.767578" xlink:href="#DejaVuSans-86"/>
      <use x="380.066406" xlink:href="#DejaVuSans-97"/>
      <use x="441.345703" xlink:href="#DejaVuSans-108"/>
      <use x="469.128906" xlink:href="#DejaVuSans-117"/>
      <use x="532.507812" xlink:href="#DejaVuSans-101"/>
     </g>
    </g>
   </g>
   <g id="line2d_11">
    <path clip-path="url(#pd51745e1ea)" d="M 72.784091 351.970909 
L 77.838531 305.553888 
L 82.89297 277.236692 
L 87.94741 257.339455 
L 93.00185 252.361407 
L 98.05629 233.258053 
L 103.110729 238.349458 
L 108.165169 235.511354 
L 113.219609 228.871297 
L 118.274049 218.560906 
L 123.328488 208.93292 
L 128.382928 203.514953 
L 133.437368 195.071937 
L 138.491808 190.485579 
L 143.546247 187.391526 
L 148.600687 186.670992 
L 153.655127 186.736758 
L 158.709567 183.79735 
L 163.764006 178.834635 
L 168.818446 175.437846 
L 173.872886 178.258952 
L 178.927326 174.720832 
L 183.981765 162.391461 
L 189.036205 164.108487 
L 194.090645 156.529705 
L 199.145085 152.586121 
L 204.199524 153.613638 
L 209.253964 154.564649 
L 214.308404 152.865713 
L 219.362844 154.103885 
L 224.417283 159.86858 
L 229.471723 155.314083 
L 234.526163 153.826369 
L 239.580603 149.550636 
L 244.635042 151.333619 
L 249.689482 145.379172 
L 254.743922 150.018107 
L 259.798362 151.010129 
L 264.852801 143.350405 
L 269.907241 143.250609 
L 274.961681 137.13541 
L 280.016121 139.456081 
L 285.07056 135.861381 
L 290.125 143.584795 
L 295.17944 137.885288 
L 300.233879 133.338835 
L 305.288319 134.036681 
L 310.342759 133.647436 
L 315.397199 122.471244 
L 320.451638 128.441756 
L 325.506078 125.184581 
L 330.560518 118.360314 
L 335.614958 125.669754 
L 340.669397 125.279732 
L 345.723837 116.822502 
L 350.778277 117.808335 
L 355.832717 115.726602 
L 360.887156 117.05595 
L 365.941596 101.66673 
L 370.996036 113.584767 
L 376.050476 116.270875 
L 381.104915 117.587205 
L 386.159355 124.938765 
L 391.213795 103.172446 
L 396.268235 107.989194 
L 401.322674 115.633694 
L 406.377114 107.345928 
L 411.431554 119.350928 
L 416.485994 119.348699 
L 421.540433 118.717425 
L 426.594873 125.035594 
L 431.649313 112.768699 
L 436.703753 112.790396 
L 441.758192 117.37713 
L 446.812632 135.915011 
L 451.867072 133.74788 
L 456.921512 120.468693 
L 461.975951 121.105879 
L 467.030391 114.503153 
L 472.084831 124.037342 
L 477.139271 123.956791 
L 482.19371 147.575473 
L 487.24815 113.505229 
L 492.30259 113.505229 
L 497.35703 137.344229 
L 502.411469 137.344229 
L 507.465909 156.855745 
" style="fill:none;stroke:#1f77b4;stroke-linecap:square;stroke-width:1.5;"/>
   </g>
   <g id="line2d_12">
    <path clip-path="url(#pd51745e1ea)" d="M 72.784091 351.970909 
L 77.838531 327.458971 
L 82.89297 302.044011 
L 87.94741 276.599459 
L 93.00185 271.866961 
L 98.05629 253.237283 
L 103.110729 253.353974 
L 108.165169 254.020015 
L 113.219609 252.754236 
L 118.274049 252.747249 
L 123.328488 252.877394 
L 128.382928 258.007519 
L 133.437368 264.13202 
L 138.491808 267.875674 
L 143.546247 271.572404 
L 148.600687 269.502707 
L 153.655127 269.264387 
L 158.709567 268.381716 
L 163.764006 271.770808 
L 168.818446 276.785384 
L 173.872886 282.726569 
L 178.927326 288.494149 
L 183.981765 283.188792 
L 189.036205 285.565421 
L 194.090645 287.955968 
L 199.145085 287.79063 
L 204.199524 288.268114 
L 209.253964 289.275563 
L 214.308404 285.193117 
L 219.362844 286.6417 
L 224.417283 288.52073 
L 229.471723 283.357922 
L 234.526163 284.052301 
L 239.580603 282.722255 
L 244.635042 279.446844 
L 249.689482 281.963584 
L 254.743922 283.215119 
L 259.798362 291.243183 
L 264.852801 292.279107 
L 269.907241 293.518743 
L 274.961681 297.712846 
L 280.016121 299.222345 
L 285.07056 298.118054 
L 290.125 296.753225 
L 295.17944 292.439562 
L 300.233879 294.781794 
L 305.288319 297.379962 
L 310.342759 299.06538 
L 315.397199 293.708974 
L 320.451638 294.889514 
L 325.506078 293.168948 
L 330.560518 294.224726 
L 335.614958 297.418224 
L 340.669397 300.506512 
L 345.723837 290.056659 
L 350.778277 295.428892 
L 355.832717 295.428892 
L 360.887156 291.133418 
L 365.941596 298.670798 
L 370.996036 296.267232 
L 376.050476 294.252651 
L 381.104915 302.310973 
L 386.159355 303.84747 
L 391.213795 299.676139 
L 396.268235 299.668763 
L 401.322674 301.30324 
L 406.377114 297.216645 
L 411.431554 298.875844 
L 416.485994 303.417807 
L 421.540433 299.760823 
L 426.594873 300.20747 
L 431.649313 299.261272 
L 436.703753 299.261272 
L 441.758192 313.658736 
L 446.812632 314.989389 
L 451.867072 317.675444 
L 456.921512 305.979522 
L 461.975951 301.207977 
L 467.030391 301.205472 
L 472.084831 304.845659 
L 477.139271 304.845519 
L 482.19371 317.158655 
L 487.24815 304.057404 
L 492.30259 304.057404 
L 497.35703 308.848755 
L 502.411469 308.848755 
L 507.465909 312.768951 
" style="fill:none;stroke:#ff7f0e;stroke-linecap:square;stroke-width:1.5;"/>
   </g>
   <g id="line2d_13">
    <path clip-path="url(#pd51745e1ea)" d="M 72.784091 351.970909 
L 77.838531 326.108658 
L 82.89297 305.79113 
L 87.94741 282.892331 
L 93.00185 276.484935 
L 98.05629 263.452669 
L 103.110729 263.523522 
L 108.165169 257.578936 
L 113.219609 252.748959 
L 118.274049 250.781466 
L 123.328488 246.563179 
L 128.382928 251.159003 
L 133.437368 247.054617 
L 138.491808 245.596352 
L 143.546247 244.266261 
L 148.600687 249.456549 
L 153.655127 248.829171 
L 158.709567 254.023575 
L 163.764006 256.881574 
L 168.818446 258.335069 
L 173.872886 265.727995 
L 178.927326 264.061942 
L 183.981765 266.34338 
L 189.036205 270.064557 
L 194.090645 270.259217 
L 199.145085 273.975314 
L 204.199524 273.082302 
L 209.253964 275.846215 
L 214.308404 279.017322 
L 219.362844 281.934476 
L 224.417283 284.509881 
L 229.471723 282.813993 
L 234.526163 284.347507 
L 239.580603 282.899935 
L 244.635042 286.264597 
L 249.689482 289.914496 
L 254.743922 290.72584 
L 259.798362 293.66315 
L 264.852801 295.036251 
L 269.907241 293.973159 
L 274.961681 296.894559 
L 280.016121 298.63573 
L 285.07056 296.170033 
L 290.125 296.600014 
L 295.17944 293.633614 
L 300.233879 296.586672 
L 305.288319 298.478456 
L 310.342759 300.865256 
L 315.397199 298.963064 
L 320.451638 294.925511 
L 325.506078 294.877942 
L 330.560518 296.423008 
L 335.614958 299.73724 
L 340.669397 298.826704 
L 345.723837 305.105159 
L 350.778277 305.661928 
L 355.832717 305.661928 
L 360.887156 306.161167 
L 365.941596 299.9161 
L 370.996036 307.102178 
L 376.050476 305.870638 
L 381.104915 305.870444 
L 386.159355 307.100733 
L 391.213795 294.964636 
L 396.268235 294.964636 
L 401.322674 296.746337 
L 406.377114 301.625211 
L 411.431554 307.693119 
L 416.485994 307.711471 
L 421.540433 307.514157 
L 426.594873 307.718958 
L 431.649313 302.262993 
L 436.703753 302.262993 
L 441.758192 303.724991 
L 446.812632 310.201942 
L 451.867072 312.888049 
L 456.921512 301.18639 
L 461.975951 301.238696 
L 467.030391 301.193303 
L 472.084831 304.888415 
L 477.139271 304.888415 
L 482.19371 307.831071 
L 487.24815 287.378306 
L 492.30259 304.032171 
L 497.35703 308.826045 
L 502.411469 308.826045 
L 507.465909 312.748305 
" style="fill:none;stroke:#2ca02c;stroke-linecap:square;stroke-width:1.5;"/>
   </g>
   <g id="line2d_14">
    <path clip-path="url(#pd51745e1ea)" d="M 72.784091 351.970909 
L 77.838531 324.758344 
L 82.89297 300.794971 
L 87.94741 279.745895 
L 93.00185 269.984846 
L 98.05629 258.509205 
L 103.110729 256.94699 
L 108.165169 253.397095 
L 113.219609 250.953643 
L 118.274049 250.530557 
L 123.328488 251.260545 
L 128.382928 256.166063 
L 133.437368 251.93859 
L 138.491808 255.907237 
L 143.546247 257.409989 
L 148.600687 262.803986 
L 153.655127 264.002514 
L 158.709567 264.387867 
L 163.764006 265.107238 
L 168.818446 264.530394 
L 173.872886 267.368119 
L 178.927326 273.351497 
L 183.981765 271.28959 
L 189.036205 272.552077 
L 194.090645 277.06928 
L 199.145085 280.918161 
L 204.199524 280.442494 
L 209.253964 284.068413 
L 214.308404 282.085974 
L 219.362844 283.99404 
L 224.417283 286.249742 
L 229.471723 279.938337 
L 234.526163 278.433197 
L 239.580603 276.449573 
L 244.635042 272.15717 
L 249.689482 271.832506 
L 254.743922 270.831378 
L 259.798362 269.416372 
L 264.852801 273.879868 
L 269.907241 278.680625 
L 274.961681 278.062547 
L 280.016121 287.353965 
L 285.07056 289.011125 
L 290.125 297.312302 
L 295.17944 296.697506 
L 300.233879 300.879125 
L 305.288319 298.646356 
L 310.342759 297.544528 
L 315.397199 292.74526 
L 320.451638 286.056587 
L 325.506078 279.038159 
L 330.560518 285.592536 
L 335.614958 297.176456 
L 340.669397 292.02355 
L 345.723837 295.243372 
L 350.778277 295.447817 
L 355.832717 302.139102 
L 360.887156 306.226309 
L 365.941596 305.14955 
L 370.996036 302.328 
L 376.050476 302.328 
L 381.104915 302.328 
L 386.159355 308.56324 
L 391.213795 304.548915 
L 396.268235 304.548915 
L 401.322674 306.030856 
L 406.377114 309.738943 
L 411.431554 311.018701 
L 416.485994 311.018698 
L 421.540433 307.592154 
L 426.594873 307.801474 
L 431.649313 302.313268 
L 436.703753 302.299535 
L 441.758192 309.270929 
L 446.812632 310.182424 
L 451.867072 304.81021 
L 456.921512 297.960641 
L 461.975951 297.238758 
L 467.030391 297.238749 
L 472.084831 298.262196 
L 477.139271 298.262196 
L 482.19371 301.61899 
L 487.24815 276.334607 
L 492.30259 304.091048 
L 497.35703 308.879034 
L 502.411469 308.879034 
L 507.465909 312.796478 
" style="fill:none;stroke:#d62728;stroke-linecap:square;stroke-width:1.5;"/>
   </g>
   <g id="line2d_15">
    <path clip-path="url(#pd51745e1ea)" d="M 72.784091 351.970909 
L 77.838531 310.054932 
L 82.89297 271.407839 
L 87.94741 241.416581 
L 93.00185 228.57832 
L 98.05629 206.655126 
L 103.110729 206.037758 
L 108.165169 200.620845 
L 113.219609 192.267338 
L 118.274049 185.842633 
L 123.328488 172.480391 
L 128.382928 173.555989 
L 133.437368 169.968412 
L 138.491808 164.821638 
L 143.546247 162.228548 
L 148.600687 161.24587 
L 153.655127 160.385234 
L 158.709567 155.970545 
L 163.764006 151.376909 
L 168.818446 151.442127 
L 173.872886 157.002887 
L 178.927326 152.808737 
L 183.981765 141.522088 
L 189.036205 142.839271 
L 194.090645 142.004587 
L 199.145085 139.932825 
L 204.199524 138.550038 
L 209.253964 137.265401 
L 214.308404 136.491119 
L 219.362844 138.661173 
L 224.417283 142.956275 
L 229.471723 137.41394 
L 234.526163 139.254098 
L 239.580603 133.133901 
L 244.635042 132.122482 
L 249.689482 124.952816 
L 254.743922 125.267382 
L 259.798362 127.903491 
L 264.852801 127.071963 
L 269.907241 126.897618 
L 274.961681 121.934816 
L 280.016121 124.019002 
L 285.07056 124.587795 
L 290.125 129.086818 
L 295.17944 124.665977 
L 300.233879 118.443022 
L 305.288319 117.655121 
L 310.342759 121.732932 
L 315.397199 116.749673 
L 320.451638 122.026203 
L 325.506078 124.25139 
L 330.560518 111.554759 
L 335.614958 118.601061 
L 340.669397 123.99575 
L 345.723837 115.084042 
L 350.778277 126.697651 
L 355.832717 119.26289 
L 360.887156 120.467834 
L 365.941596 110.202737 
L 370.996036 116.735072 
L 376.050476 114.586186 
L 381.104915 115.929239 
L 386.159355 123.305542 
L 391.213795 101.491413 
L 396.268235 101.491413 
L 401.322674 109.318897 
L 406.377114 105.740919 
L 411.431554 113.202434 
L 416.485994 113.202434 
L 421.540433 117.106472 
L 426.594873 128.008545 
L 431.649313 115.707395 
L 436.703753 115.710454 
L 441.758192 120.21613 
L 446.812632 143.909116 
L 451.867072 138.536901 
L 456.921512 120.392654 
L 461.975951 121.020666 
L 467.030391 114.403531 
L 472.084831 123.951746 
L 477.139271 123.951746 
L 482.19371 128.835145 
L 487.24815 80.189091 
L 492.30259 80.189091 
L 497.35703 107.367273 
L 502.411469 107.367273 
L 507.465909 129.603967 
" style="fill:none;stroke:#9467bd;stroke-linecap:square;stroke-width:1.5;"/>
   </g>
   <g id="line2d_16">
    <path clip-path="url(#pd51745e1ea)" d="M 72.784091 351.970909 
L 77.838531 324.758344 
L 82.89297 298.296891 
L 87.94741 274.311142 
L 93.00185 268.787137 
L 98.05629 257.373714 
L 103.110729 255.60072 
L 108.165169 253.952506 
L 113.219609 251.421414 
L 118.274049 247.36371 
L 123.328488 245.859345 
L 128.382928 252.121598 
L 133.437368 250.65741 
L 138.491808 250.854747 
L 143.546247 251.985862 
L 148.600687 260.614329 
L 153.655127 260.063927 
L 158.709567 259.002329 
L 163.764006 259.425169 
L 168.818446 262.894066 
L 173.872886 267.463683 
L 178.927326 265.702902 
L 183.981765 261.881306 
L 189.036205 266.015124 
L 194.090645 265.973382 
L 199.145085 269.586903 
L 204.199524 270.525081 
L 209.253964 278.053433 
L 214.308404 281.466339 
L 219.362844 284.400878 
L 224.417283 284.004494 
L 229.471723 281.509051 
L 234.526163 278.298526 
L 239.580603 271.552095 
L 244.635042 273.368724 
L 249.689482 273.079018 
L 254.743922 277.332297 
L 259.798362 277.078613 
L 264.852801 276.674256 
L 269.907241 277.093438 
L 274.961681 275.423423 
L 280.016121 280.438804 
L 285.07056 284.717265 
L 290.125 282.903066 
L 295.17944 281.821219 
L 300.233879 286.439498 
L 305.288319 287.491252 
L 310.342759 294.018958 
L 315.397199 290.357248 
L 320.451638 289.692899 
L 325.506078 280.704376 
L 330.560518 289.43378 
L 335.614958 302.4219 
L 340.669397 288.361288 
L 345.723837 290.093188 
L 350.778277 290.113698 
L 355.832717 296.804983 
L 360.887156 297.625277 
L 365.941596 305.162602 
L 370.996036 302.34021 
L 376.050476 302.34021 
L 381.104915 302.34021 
L 386.159355 303.884072 
L 391.213795 301.325594 
L 396.268235 301.32192 
L 401.322674 302.904714 
L 406.377114 298.806302 
L 411.431554 300.417346 
L 416.485994 300.417346 
L 421.540433 299.789198 
L 426.594873 301.370465 
L 431.649313 295.882269 
L 436.703753 300.424233 
L 441.758192 301.940311 
L 446.812632 297.300099 
L 451.867072 291.927873 
L 456.921512 285.078308 
L 461.975951 281.264671 
L 467.030391 301.249308 
L 472.084831 288.259808 
L 477.139271 288.259784 
L 482.19371 310.977327 
L 487.24815 292.988472 
L 492.30259 292.988472 
L 497.35703 298.886716 
L 502.411469 298.886716 
L 507.465909 303.712551 
" style="fill:none;stroke:#8c564b;stroke-linecap:square;stroke-width:1.5;"/>
   </g>
   <g id="line2d_17">
    <path clip-path="url(#pd51745e1ea)" d="M 72.784091 351.970909 
L 77.838531 317.856743 
L 82.89297 288.443355 
L 87.94741 261.34401 
L 93.00185 247.827222 
L 98.05629 227.551597 
L 103.110729 227.077578 
L 108.165169 224.528924 
L 113.219609 219.596785 
L 118.274049 220.366282 
L 123.328488 216.788916 
L 128.382928 215.723658 
L 133.437368 213.903742 
L 138.491808 212.081235 
L 143.546247 207.184227 
L 148.600687 210.617793 
L 153.655127 216.583187 
L 158.709567 215.490822 
L 163.764006 210.779009 
L 168.818446 210.848085 
L 173.872886 216.945686 
L 178.927326 215.911621 
L 183.981765 204.943848 
L 189.036205 204.610101 
L 194.090645 203.722923 
L 199.145085 205.054547 
L 204.199524 206.630578 
L 209.253964 208.398191 
L 214.308404 211.722199 
L 219.362844 212.521251 
L 224.417283 214.80132 
L 229.471723 209.765465 
L 234.526163 210.2661 
L 239.580603 205.996777 
L 244.635042 203.880613 
L 249.689482 203.501395 
L 254.743922 206.498483 
L 259.798362 210.196184 
L 264.852801 214.608555 
L 269.907241 214.202634 
L 274.961681 213.013881 
L 280.016121 214.584855 
L 285.07056 208.86631 
L 290.125 211.416503 
L 295.17944 208.200701 
L 300.233879 209.665087 
L 305.288319 208.981588 
L 310.342759 212.139761 
L 315.397199 203.033189 
L 320.451638 201.301705 
L 325.506078 196.15871 
L 330.560518 194.507436 
L 335.614958 204.529684 
L 340.669397 212.132411 
L 345.723837 199.773383 
L 350.778277 205.497994 
L 355.832717 208.452964 
L 360.887156 209.454976 
L 365.941596 198.645675 
L 370.996036 201.064143 
L 376.050476 204.828361 
L 381.104915 201.860281 
L 386.159355 206.564773 
L 391.213795 194.149254 
L 396.268235 194.140077 
L 401.322674 199.082352 
L 406.377114 199.134462 
L 411.431554 203.790925 
L 416.485994 203.812745 
L 421.540433 202.989794 
L 426.594873 205.986948 
L 431.649313 202.786912 
L 436.703753 202.816056 
L 441.758192 205.972316 
L 446.812632 223.457733 
L 451.867072 223.717221 
L 456.921512 213.652842 
L 461.975951 214.647399 
L 467.030391 211.332082 
L 472.084831 224.472861 
L 477.139271 224.432585 
L 482.19371 227.719831 
L 487.24815 200.471206 
L 492.30259 200.471206 
L 497.35703 215.617393 
L 502.411469 215.617393 
L 507.465909 228.013167 
" style="fill:none;stroke:#e377c2;stroke-linecap:square;stroke-width:1.5;"/>
   </g>
   <g id="line2d_18">
    <path clip-path="url(#pd51745e1ea)" d="M 72.784091 351.970909 
L 77.838531 326.108658 
L 82.89297 302.044011 
L 87.94741 280.317974 
L 93.00185 274.176829 
L 98.05629 265.808788 
L 103.110729 265.847334 
L 108.165169 265.747936 
L 113.219609 265.250787 
L 118.274049 264.799674 
L 123.328488 260.512102 
L 128.382928 260.849621 
L 133.437368 256.402723 
L 138.491808 256.632727 
L 143.546247 257.027242 
L 148.600687 258.481755 
L 153.655127 264.20354 
L 158.709567 267.724168 
L 163.764006 269.264679 
L 168.818446 268.771761 
L 173.872886 270.570954 
L 178.927326 273.399589 
L 183.981765 267.068633 
L 189.036205 269.045729 
L 194.090645 271.276617 
L 199.145085 274.171188 
L 204.199524 278.398686 
L 209.253964 280.272951 
L 214.308404 281.926776 
L 219.362844 285.00475 
L 224.417283 290.071684 
L 229.471723 283.871119 
L 234.526163 279.223298 
L 239.580603 278.076979 
L 244.635042 275.065255 
L 249.689482 271.59318 
L 254.743922 275.407754 
L 259.798362 277.676051 
L 264.852801 285.066325 
L 269.907241 285.009037 
L 274.961681 289.223971 
L 280.016121 290.616045 
L 285.07056 288.255902 
L 290.125 299.245798 
L 295.17944 300.75927 
L 300.233879 306.218166 
L 305.288319 309.055651 
L 310.342759 314.489871 
L 315.397199 309.129216 
L 320.451638 307.658862 
L 325.506078 311.651942 
L 330.560518 306.167101 
L 335.614958 311.833735 
L 340.669397 301.356803 
L 345.723837 294.717395 
L 350.778277 300.256083 
L 355.832717 309.177796 
L 360.887156 314.745103 
L 365.941596 308.499924 
L 370.996036 305.46222 
L 376.050476 304.253472 
L 381.104915 309.088465 
L 386.159355 310.428542 
L 391.213795 303.255943 
L 396.268235 303.255929 
L 401.322674 304.778368 
L 406.377114 298.728331 
L 411.431554 300.341738 
L 416.485994 300.335094 
L 421.540433 307.574669 
L 426.594873 307.784519 
L 431.649313 302.296325 
L 436.703753 302.296325 
L 441.758192 311.104637 
L 446.812632 318.236128 
L 451.867072 320.922863 
L 456.921512 314.073302 
L 461.975951 317.218467 
L 467.030391 317.214135 
L 472.084831 314.894712 
L 477.139271 314.894681 
L 482.19371 326.579744 
L 487.24815 320.730309 
L 492.30259 320.730309 
L 497.35703 323.854365 
L 502.411469 323.854365 
L 507.465909 326.410414 
" style="fill:none;stroke:#7f7f7f;stroke-linecap:square;stroke-width:1.5;"/>
   </g>
   <g id="patch_3">
    <path d="M 51.05 365.56 
L 51.05 66.6 
" style="fill:none;stroke:#000000;stroke-linecap:square;stroke-linejoin:miter;stroke-width:0.8;"/>
   </g>
   <g id="patch_4">
    <path d="M 529.2 365.56 
L 529.2 66.6 
" style="fill:none;stroke:#000000;stroke-linecap:square;stroke-linejoin:miter;stroke-width:0.8;"/>
   </g>
   <g id="patch_5">
    <path d="M 51.05 365.56 
L 529.2 365.56 
" style="fill:none;stroke:#000000;stroke-linecap:square;stroke-linejoin:miter;stroke-width:0.8;"/>
   </g>
   <g id="patch_6">
    <path d="M 51.05 66.6 
L 529.2 66.6 
" style="fill:none;stroke:#000000;stroke-linecap:square;stroke-linejoin:miter;stroke-width:0.8;"/>
   </g>
   <g id="legend_1">
    <g id="patch_7">
     <path d="M 61.55 59.1 
L 518.7 59.1 
Q 521.7 59.1 521.7 56.1 
L 521.7 13.565625 
Q 521.7 10.565625 518.7 10.565625 
L 61.55 10.565625 
Q 58.55 10.565625 58.55 13.565625 
L 58.55 56.1 
Q 58.55 59.1 61.55 59.1 
z
" style="fill:#ffffff;opacity:0.8;stroke:#cccccc;stroke-linejoin:miter;"/>
    </g>
    <g id="line2d_19">
     <path d="M 64.55 22.713281 
L 94.55 22.713281 
" style="fill:none;stroke:#1f77b4;stroke-linecap:square;stroke-width:1.5;"/>
    </g>
    <g id="line2d_20"/>
    <g id="text_13">
     <!-- Stra 1 -->
     <defs>
      <path d="M 53.515625 70.515625 
L 53.515625 60.890625 
Q 47.90625 63.578125 42.921875 64.890625 
Q 37.9375 66.21875 33.296875 66.21875 
Q 25.25 66.21875 20.875 63.09375 
Q 16.5 59.96875 16.5 54.203125 
Q 16.5 49.359375 19.40625 46.890625 
Q 22.3125 44.4375 30.421875 42.921875 
L 36.375 41.703125 
Q 47.40625 39.59375 52.65625 34.296875 
Q 57.90625 29 57.90625 20.125 
Q 57.90625 9.515625 50.796875 4.046875 
Q 43.703125 -1.421875 29.984375 -1.421875 
Q 24.8125 -1.421875 18.96875 -0.25 
Q 13.140625 0.921875 6.890625 3.21875 
L 6.890625 13.375 
Q 12.890625 10.015625 18.65625 8.296875 
Q 24.421875 6.59375 29.984375 6.59375 
Q 38.421875 6.59375 43.015625 9.90625 
Q 47.609375 13.234375 47.609375 19.390625 
Q 47.609375 24.75 44.3125 27.78125 
Q 41.015625 30.8125 33.5 32.328125 
L 27.484375 33.5 
Q 16.453125 35.6875 11.515625 40.375 
Q 6.59375 45.0625 6.59375 53.421875 
Q 6.59375 63.09375 13.40625 68.65625 
Q 20.21875 74.21875 32.171875 74.21875 
Q 37.3125 74.21875 42.625 73.28125 
Q 47.953125 72.359375 53.515625 70.515625 
z
" id="DejaVuSans-83"/>
      <path d="M 18.3125 70.21875 
L 18.3125 54.6875 
L 36.8125 54.6875 
L 36.8125 47.703125 
L 18.3125 47.703125 
L 18.3125 18.015625 
Q 18.3125 11.328125 20.140625 9.421875 
Q 21.96875 7.515625 27.59375 7.515625 
L 36.8125 7.515625 
L 36.8125 0 
L 27.59375 0 
Q 17.1875 0 13.234375 3.875 
Q 9.28125 7.765625 9.28125 18.015625 
L 9.28125 47.703125 
L 2.6875 47.703125 
L 2.6875 54.6875 
L 9.28125 54.6875 
L 9.28125 70.21875 
z
" id="DejaVuSans-116"/>
      <path d="M 41.109375 46.296875 
Q 39.59375 47.171875 37.8125 47.578125 
Q 36.03125 48 33.890625 48 
Q 26.265625 48 22.1875 43.046875 
Q 18.109375 38.09375 18.109375 28.8125 
L 18.109375 0 
L 9.078125 0 
L 9.078125 54.6875 
L 18.109375 54.6875 
L 18.109375 46.1875 
Q 20.953125 51.171875 25.484375 53.578125 
Q 30.03125 56 36.53125 56 
Q 37.453125 56 38.578125 55.875 
Q 39.703125 55.765625 41.0625 55.515625 
z
" id="DejaVuSans-114"/>
      <path d="M 12.40625 8.296875 
L 28.515625 8.296875 
L 28.515625 63.921875 
L 10.984375 60.40625 
L 10.984375 69.390625 
L 28.421875 72.90625 
L 38.28125 72.90625 
L 38.28125 8.296875 
L 54.390625 8.296875 
L 54.390625 0 
L 12.40625 0 
z
" id="DejaVuSans-49"/>
     </defs>
     <g transform="translate(106.55 27.963281)scale(0.15 -0.15)">
      <use xlink:href="#DejaVuSans-83"/>
      <use x="63.476562" xlink:href="#DejaVuSans-116"/>
      <use x="102.685547" xlink:href="#DejaVuSans-114"/>
      <use x="143.798828" xlink:href="#DejaVuSans-97"/>
      <use x="205.078125" xlink:href="#DejaVuSans-32"/>
      <use x="236.865234" xlink:href="#DejaVuSans-49"/>
     </g>
    </g>
    <g id="line2d_21">
     <path d="M 64.55 44.730469 
L 94.55 44.730469 
" style="fill:none;stroke:#ff7f0e;stroke-linecap:square;stroke-width:1.5;"/>
    </g>
    <g id="line2d_22"/>
    <g id="text_14">
     <!-- Stra 2 -->
     <g transform="translate(106.55 49.980469)scale(0.15 -0.15)">
      <use xlink:href="#DejaVuSans-83"/>
      <use x="63.476562" xlink:href="#DejaVuSans-116"/>
      <use x="102.685547" xlink:href="#DejaVuSans-114"/>
      <use x="143.798828" xlink:href="#DejaVuSans-97"/>
      <use x="205.078125" xlink:href="#DejaVuSans-32"/>
      <use x="236.865234" xlink:href="#DejaVuSans-50"/>
     </g>
    </g>
    <g id="line2d_23">
     <path d="M 185.909115 22.713281 
L 215.909115 22.713281 
" style="fill:none;stroke:#2ca02c;stroke-linecap:square;stroke-width:1.5;"/>
    </g>
    <g id="line2d_24"/>
    <g id="text_15">
     <!-- Stra 3 -->
     <defs>
      <path d="M 40.578125 39.3125 
Q 47.65625 37.796875 51.625 33 
Q 55.609375 28.21875 55.609375 21.1875 
Q 55.609375 10.40625 48.1875 4.484375 
Q 40.765625 -1.421875 27.09375 -1.421875 
Q 22.515625 -1.421875 17.65625 -0.515625 
Q 12.796875 0.390625 7.625 2.203125 
L 7.625 11.71875 
Q 11.71875 9.328125 16.59375 8.109375 
Q 21.484375 6.890625 26.8125 6.890625 
Q 36.078125 6.890625 40.9375 10.546875 
Q 45.796875 14.203125 45.796875 21.1875 
Q 45.796875 27.640625 41.28125 31.265625 
Q 36.765625 34.90625 28.71875 34.90625 
L 20.21875 34.90625 
L 20.21875 43.015625 
L 29.109375 43.015625 
Q 36.375 43.015625 40.234375 45.921875 
Q 44.09375 48.828125 44.09375 54.296875 
Q 44.09375 59.90625 40.109375 62.90625 
Q 36.140625 65.921875 28.71875 65.921875 
Q 24.65625 65.921875 20.015625 65.03125 
Q 15.375 64.15625 9.8125 62.3125 
L 9.8125 71.09375 
Q 15.4375 72.65625 20.34375 73.4375 
Q 25.25 74.21875 29.59375 74.21875 
Q 40.828125 74.21875 47.359375 69.109375 
Q 53.90625 64.015625 53.90625 55.328125 
Q 53.90625 49.265625 50.4375 45.09375 
Q 46.96875 40.921875 40.578125 39.3125 
z
" id="DejaVuSans-51"/>
     </defs>
     <g transform="translate(227.909115 27.963281)scale(0.15 -0.15)">
      <use xlink:href="#DejaVuSans-83"/>
      <use x="63.476562" xlink:href="#DejaVuSans-116"/>
      <use x="102.685547" xlink:href="#DejaVuSans-114"/>
      <use x="143.798828" xlink:href="#DejaVuSans-97"/>
      <use x="205.078125" xlink:href="#DejaVuSans-32"/>
      <use x="236.865234" xlink:href="#DejaVuSans-51"/>
     </g>
    </g>
    <g id="line2d_25">
     <path d="M 185.909115 44.730469 
L 215.909115 44.730469 
" style="fill:none;stroke:#d62728;stroke-linecap:square;stroke-width:1.5;"/>
    </g>
    <g id="line2d_26"/>
    <g id="text_16">
     <!-- Stra 4 -->
     <g transform="translate(227.909115 49.980469)scale(0.15 -0.15)">
      <use xlink:href="#DejaVuSans-83"/>
      <use x="63.476562" xlink:href="#DejaVuSans-116"/>
      <use x="102.685547" xlink:href="#DejaVuSans-114"/>
      <use x="143.798828" xlink:href="#DejaVuSans-97"/>
      <use x="205.078125" xlink:href="#DejaVuSans-32"/>
      <use x="236.865234" xlink:href="#DejaVuSans-52"/>
     </g>
    </g>
    <g id="line2d_27">
     <path d="M 307.268229 22.713281 
L 337.268229 22.713281 
" style="fill:none;stroke:#9467bd;stroke-linecap:square;stroke-width:1.5;"/>
    </g>
    <g id="line2d_28"/>
    <g id="text_17">
     <!-- Stra 5 -->
     <defs>
      <path d="M 10.796875 72.90625 
L 49.515625 72.90625 
L 49.515625 64.59375 
L 19.828125 64.59375 
L 19.828125 46.734375 
Q 21.96875 47.46875 24.109375 47.828125 
Q 26.265625 48.1875 28.421875 48.1875 
Q 40.625 48.1875 47.75 41.5 
Q 54.890625 34.8125 54.890625 23.390625 
Q 54.890625 11.625 47.5625 5.09375 
Q 40.234375 -1.421875 26.90625 -1.421875 
Q 22.3125 -1.421875 17.546875 -0.640625 
Q 12.796875 0.140625 7.71875 1.703125 
L 7.71875 11.625 
Q 12.109375 9.234375 16.796875 8.0625 
Q 21.484375 6.890625 26.703125 6.890625 
Q 35.15625 6.890625 40.078125 11.328125 
Q 45.015625 15.765625 45.015625 23.390625 
Q 45.015625 31 40.078125 35.4375 
Q 35.15625 39.890625 26.703125 39.890625 
Q 22.75 39.890625 18.8125 39.015625 
Q 14.890625 38.140625 10.796875 36.28125 
z
" id="DejaVuSans-53"/>
     </defs>
     <g transform="translate(349.268229 27.963281)scale(0.15 -0.15)">
      <use xlink:href="#DejaVuSans-83"/>
      <use x="63.476562" xlink:href="#DejaVuSans-116"/>
      <use x="102.685547" xlink:href="#DejaVuSans-114"/>
      <use x="143.798828" xlink:href="#DejaVuSans-97"/>
      <use x="205.078125" xlink:href="#DejaVuSans-32"/>
      <use x="236.865234" xlink:href="#DejaVuSans-53"/>
     </g>
    </g>
    <g id="line2d_29">
     <path d="M 307.268229 44.730469 
L 337.268229 44.730469 
" style="fill:none;stroke:#8c564b;stroke-linecap:square;stroke-width:1.5;"/>
    </g>
    <g id="line2d_30"/>
    <g id="text_18">
     <!-- Stra 6 -->
     <g transform="translate(349.268229 49.980469)scale(0.15 -0.15)">
      <use xlink:href="#DejaVuSans-83"/>
      <use x="63.476562" xlink:href="#DejaVuSans-116"/>
      <use x="102.685547" xlink:href="#DejaVuSans-114"/>
      <use x="143.798828" xlink:href="#DejaVuSans-97"/>
      <use x="205.078125" xlink:href="#DejaVuSans-32"/>
      <use x="236.865234" xlink:href="#DejaVuSans-54"/>
     </g>
    </g>
    <g id="line2d_31">
     <path d="M 428.627344 22.713281 
L 458.627344 22.713281 
" style="fill:none;stroke:#e377c2;stroke-linecap:square;stroke-width:1.5;"/>
    </g>
    <g id="line2d_32"/>
    <g id="text_19">
     <!-- Stra 7 -->
     <defs>
      <path d="M 8.203125 72.90625 
L 55.078125 72.90625 
L 55.078125 68.703125 
L 28.609375 0 
L 18.3125 0 
L 43.21875 64.59375 
L 8.203125 64.59375 
z
" id="DejaVuSans-55"/>
     </defs>
     <g transform="translate(470.627344 27.963281)scale(0.15 -0.15)">
      <use xlink:href="#DejaVuSans-83"/>
      <use x="63.476562" xlink:href="#DejaVuSans-116"/>
      <use x="102.685547" xlink:href="#DejaVuSans-114"/>
      <use x="143.798828" xlink:href="#DejaVuSans-97"/>
      <use x="205.078125" xlink:href="#DejaVuSans-32"/>
      <use x="236.865234" xlink:href="#DejaVuSans-55"/>
     </g>
    </g>
    <g id="line2d_33">
     <path d="M 428.627344 44.730469 
L 458.627344 44.730469 
" style="fill:none;stroke:#7f7f7f;stroke-linecap:square;stroke-width:1.5;"/>
    </g>
    <g id="line2d_34"/>
    <g id="text_20">
     <!-- Stra 8 -->
     <g transform="translate(470.627344 49.980469)scale(0.15 -0.15)">
      <use xlink:href="#DejaVuSans-83"/>
      <use x="63.476562" xlink:href="#DejaVuSans-116"/>
      <use x="102.685547" xlink:href="#DejaVuSans-114"/>
      <use x="143.798828" xlink:href="#DejaVuSans-97"/>
      <use x="205.078125" xlink:href="#DejaVuSans-32"/>
      <use x="236.865234" xlink:href="#DejaVuSans-56"/>
     </g>
    </g>
   </g>
  </g>
 </g>
 <defs>
  <clipPath id="pd51745e1ea">
   <rect height="298.96" width="478.15" x="51.05" y="66.6"/>
  </clipPath>
 </defs>
</svg>
