<?xml version="1.0" encoding="utf-8" standalone="no"?>
<!DOCTYPE svg PUBLIC "-//W3C//DTD SVG 1.1//EN"
  "http://www.w3.org/Graphics/SVG/1.1/DTD/svg11.dtd">
<!-- Created with matplotlib (https://matplotlib.org/) -->
<svg height="432pt" version="1.1" viewBox="0 0 540 432" width="540pt" xmlns="http://www.w3.org/2000/svg" xmlns:xlink="http://www.w3.org/1999/xlink">
 <defs>
  <style type="text/css">
*{stroke-linecap:butt;stroke-linejoin:round;}
  </style>
 </defs>
 <g id="figure_1">
  <g id="patch_1">
   <path d="M 0 432 
L 540 432 
L 540 0 
L 0 0 
z
" style="fill:#ffffff;"/>
  </g>
  <g id="axes_1">
   <g id="patch_2">
    <path d="M 70.13 365.56 
L 529.2 365.56 
L 529.2 66.6 
L 70.13 66.6 
z
" style="fill:#ffffff;"/>
   </g>
   <g id="matplotlib.axis_1">
    <g id="xtick_1">
     <g id="line2d_1">
      <defs>
       <path d="M 0 0 
L 0 3.5 
" id="mf39a578abb" style="stroke:#000000;stroke-width:0.8;"/>
      </defs>
      <g>
       <use style="stroke:#000000;stroke-width:0.8;" x="90.996818" xlink:href="#mf39a578abb" y="365.56"/>
      </g>
     </g>
     <g id="text_1">
      <!-- 0 -->
      <defs>
       <path d="M 31.78125 66.40625 
Q 24.171875 66.40625 20.328125 58.90625 
Q 16.5 51.421875 16.5 36.375 
Q 16.5 21.390625 20.328125 13.890625 
Q 24.171875 6.390625 31.78125 6.390625 
Q 39.453125 6.390625 43.28125 13.890625 
Q 47.125 21.390625 47.125 36.375 
Q 47.125 51.421875 43.28125 58.90625 
Q 39.453125 66.40625 31.78125 66.40625 
z
M 31.78125 74.21875 
Q 44.046875 74.21875 50.515625 64.515625 
Q 56.984375 54.828125 56.984375 36.375 
Q 56.984375 17.96875 50.515625 8.265625 
Q 44.046875 -1.421875 31.78125 -1.421875 
Q 19.53125 -1.421875 13.0625 8.265625 
Q 6.59375 17.96875 6.59375 36.375 
Q 6.59375 54.828125 13.0625 64.515625 
Q 19.53125 74.21875 31.78125 74.21875 
z
" id="DejaVuSans-48"/>
      </defs>
      <g transform="translate(84.634318 387.756875)scale(0.2 -0.2)">
       <use xlink:href="#DejaVuSans-48"/>
      </g>
     </g>
    </g>
    <g id="xtick_2">
     <g id="line2d_2">
      <g>
       <use style="stroke:#000000;stroke-width:0.8;" x="188.051786" xlink:href="#mf39a578abb" y="365.56"/>
      </g>
     </g>
     <g id="text_2">
      <!-- 20 -->
      <defs>
       <path d="M 19.1875 8.296875 
L 53.609375 8.296875 
L 53.609375 0 
L 7.328125 0 
L 7.328125 8.296875 
Q 12.9375 14.109375 22.625 23.890625 
Q 32.328125 33.6875 34.8125 36.53125 
Q 39.546875 41.84375 41.421875 45.53125 
Q 43.3125 49.21875 43.3125 52.78125 
Q 43.3125 58.59375 39.234375 62.25 
Q 35.15625 65.921875 28.609375 65.921875 
Q 23.96875 65.921875 18.8125 64.3125 
Q 13.671875 62.703125 7.8125 59.421875 
L 7.8125 69.390625 
Q 13.765625 71.78125 18.9375 73 
Q 24.125 74.21875 28.421875 74.21875 
Q 39.75 74.21875 46.484375 68.546875 
Q 53.21875 62.890625 53.21875 53.421875 
Q 53.21875 48.921875 51.53125 44.890625 
Q 49.859375 40.875 45.40625 35.40625 
Q 44.1875 33.984375 37.640625 27.21875 
Q 31.109375 20.453125 19.1875 8.296875 
z
" id="DejaVuSans-50"/>
      </defs>
      <g transform="translate(175.326786 387.756875)scale(0.2 -0.2)">
       <use xlink:href="#DejaVuSans-50"/>
       <use x="63.623047" xlink:href="#DejaVuSans-48"/>
      </g>
     </g>
    </g>
    <g id="xtick_3">
     <g id="line2d_3">
      <g>
       <use style="stroke:#000000;stroke-width:0.8;" x="285.106755" xlink:href="#mf39a578abb" y="365.56"/>
      </g>
     </g>
     <g id="text_3">
      <!-- 40 -->
      <defs>
       <path d="M 37.796875 64.3125 
L 12.890625 25.390625 
L 37.796875 25.390625 
z
M 35.203125 72.90625 
L 47.609375 72.90625 
L 47.609375 25.390625 
L 58.015625 25.390625 
L 58.015625 17.1875 
L 47.609375 17.1875 
L 47.609375 0 
L 37.796875 0 
L 37.796875 17.1875 
L 4.890625 17.1875 
L 4.890625 26.703125 
z
" id="DejaVuSans-52"/>
      </defs>
      <g transform="translate(272.381755 387.756875)scale(0.2 -0.2)">
       <use xlink:href="#DejaVuSans-52"/>
       <use x="63.623047" xlink:href="#DejaVuSans-48"/>
      </g>
     </g>
    </g>
    <g id="xtick_4">
     <g id="line2d_4">
      <g>
       <use style="stroke:#000000;stroke-width:0.8;" x="382.161723" xlink:href="#mf39a578abb" y="365.56"/>
      </g>
     </g>
     <g id="text_4">
      <!-- 60 -->
      <defs>
       <path d="M 33.015625 40.375 
Q 26.375 40.375 22.484375 35.828125 
Q 18.609375 31.296875 18.609375 23.390625 
Q 18.609375 15.53125 22.484375 10.953125 
Q 26.375 6.390625 33.015625 6.390625 
Q 39.65625 6.390625 43.53125 10.953125 
Q 47.40625 15.53125 47.40625 23.390625 
Q 47.40625 31.296875 43.53125 35.828125 
Q 39.65625 40.375 33.015625 40.375 
z
M 52.59375 71.296875 
L 52.59375 62.3125 
Q 48.875 64.0625 45.09375 64.984375 
Q 41.3125 65.921875 37.59375 65.921875 
Q 27.828125 65.921875 22.671875 59.328125 
Q 17.53125 52.734375 16.796875 39.40625 
Q 19.671875 43.65625 24.015625 45.921875 
Q 28.375 48.1875 33.59375 48.1875 
Q 44.578125 48.1875 50.953125 41.515625 
Q 57.328125 34.859375 57.328125 23.390625 
Q 57.328125 12.15625 50.6875 5.359375 
Q 44.046875 -1.421875 33.015625 -1.421875 
Q 20.359375 -1.421875 13.671875 8.265625 
Q 6.984375 17.96875 6.984375 36.375 
Q 6.984375 53.65625 15.1875 63.9375 
Q 23.390625 74.21875 37.203125 74.21875 
Q 40.921875 74.21875 44.703125 73.484375 
Q 48.484375 72.75 52.59375 71.296875 
z
" id="DejaVuSans-54"/>
      </defs>
      <g transform="translate(369.436723 387.756875)scale(0.2 -0.2)">
       <use xlink:href="#DejaVuSans-54"/>
       <use x="63.623047" xlink:href="#DejaVuSans-48"/>
      </g>
     </g>
    </g>
    <g id="xtick_5">
     <g id="line2d_5">
      <g>
       <use style="stroke:#000000;stroke-width:0.8;" x="479.216691" xlink:href="#mf39a578abb" y="365.56"/>
      </g>
     </g>
     <g id="text_5">
      <!-- 80 -->
      <defs>
       <path d="M 31.78125 34.625 
Q 24.75 34.625 20.71875 30.859375 
Q 16.703125 27.09375 16.703125 20.515625 
Q 16.703125 13.921875 20.71875 10.15625 
Q 24.75 6.390625 31.78125 6.390625 
Q 38.8125 6.390625 42.859375 10.171875 
Q 46.921875 13.96875 46.921875 20.515625 
Q 46.921875 27.09375 42.890625 30.859375 
Q 38.875 34.625 31.78125 34.625 
z
M 21.921875 38.8125 
Q 15.578125 40.375 12.03125 44.71875 
Q 8.5 49.078125 8.5 55.328125 
Q 8.5 64.0625 14.71875 69.140625 
Q 20.953125 74.21875 31.78125 74.21875 
Q 42.671875 74.21875 48.875 69.140625 
Q 55.078125 64.0625 55.078125 55.328125 
Q 55.078125 49.078125 51.53125 44.71875 
Q 48 40.375 41.703125 38.8125 
Q 48.828125 37.15625 52.796875 32.3125 
Q 56.78125 27.484375 56.78125 20.515625 
Q 56.78125 9.90625 50.3125 4.234375 
Q 43.84375 -1.421875 31.78125 -1.421875 
Q 19.734375 -1.421875 13.25 4.234375 
Q 6.78125 9.90625 6.78125 20.515625 
Q 6.78125 27.484375 10.78125 32.3125 
Q 14.796875 37.15625 21.921875 38.8125 
z
M 18.3125 54.390625 
Q 18.3125 48.734375 21.84375 45.5625 
Q 25.390625 42.390625 31.78125 42.390625 
Q 38.140625 42.390625 41.71875 45.5625 
Q 45.3125 48.734375 45.3125 54.390625 
Q 45.3125 60.0625 41.71875 63.234375 
Q 38.140625 66.40625 31.78125 66.40625 
Q 25.390625 66.40625 21.84375 63.234375 
Q 18.3125 60.0625 18.3125 54.390625 
z
" id="DejaVuSans-56"/>
      </defs>
      <g transform="translate(466.491691 387.756875)scale(0.2 -0.2)">
       <use xlink:href="#DejaVuSans-56"/>
       <use x="63.623047" xlink:href="#DejaVuSans-48"/>
      </g>
     </g>
    </g>
    <g id="text_6">
     <!-- number of games (DD-ML-IPI) -->
     <defs>
      <path d="M 54.890625 33.015625 
L 54.890625 0 
L 45.90625 0 
L 45.90625 32.71875 
Q 45.90625 40.484375 42.875 44.328125 
Q 39.84375 48.1875 33.796875 48.1875 
Q 26.515625 48.1875 22.3125 43.546875 
Q 18.109375 38.921875 18.109375 30.90625 
L 18.109375 0 
L 9.078125 0 
L 9.078125 54.6875 
L 18.109375 54.6875 
L 18.109375 46.1875 
Q 21.34375 51.125 25.703125 53.5625 
Q 30.078125 56 35.796875 56 
Q 45.21875 56 50.046875 50.171875 
Q 54.890625 44.34375 54.890625 33.015625 
z
" id="DejaVuSans-110"/>
      <path d="M 8.5 21.578125 
L 8.5 54.6875 
L 17.484375 54.6875 
L 17.484375 21.921875 
Q 17.484375 14.15625 20.5 10.265625 
Q 23.53125 6.390625 29.59375 6.390625 
Q 36.859375 6.390625 41.078125 11.03125 
Q 45.3125 15.671875 45.3125 23.6875 
L 45.3125 54.6875 
L 54.296875 54.6875 
L 54.296875 0 
L 45.3125 0 
L 45.3125 8.40625 
Q 42.046875 3.421875 37.71875 1 
Q 33.40625 -1.421875 27.6875 -1.421875 
Q 18.265625 -1.421875 13.375 4.4375 
Q 8.5 10.296875 8.5 21.578125 
z
M 31.109375 56 
z
" id="DejaVuSans-117"/>
      <path d="M 52 44.1875 
Q 55.375 50.25 60.0625 53.125 
Q 64.75 56 71.09375 56 
Q 79.640625 56 84.28125 50.015625 
Q 88.921875 44.046875 88.921875 33.015625 
L 88.921875 0 
L 79.890625 0 
L 79.890625 32.71875 
Q 79.890625 40.578125 77.09375 44.375 
Q 74.3125 48.1875 68.609375 48.1875 
Q 61.625 48.1875 57.5625 43.546875 
Q 53.515625 38.921875 53.515625 30.90625 
L 53.515625 0 
L 44.484375 0 
L 44.484375 32.71875 
Q 44.484375 40.625 41.703125 44.40625 
Q 38.921875 48.1875 33.109375 48.1875 
Q 26.21875 48.1875 22.15625 43.53125 
Q 18.109375 38.875 18.109375 30.90625 
L 18.109375 0 
L 9.078125 0 
L 9.078125 54.6875 
L 18.109375 54.6875 
L 18.109375 46.1875 
Q 21.1875 51.21875 25.484375 53.609375 
Q 29.78125 56 35.6875 56 
Q 41.65625 56 45.828125 52.96875 
Q 50 49.953125 52 44.1875 
z
" id="DejaVuSans-109"/>
      <path d="M 48.6875 27.296875 
Q 48.6875 37.203125 44.609375 42.84375 
Q 40.53125 48.484375 33.40625 48.484375 
Q 26.265625 48.484375 22.1875 42.84375 
Q 18.109375 37.203125 18.109375 27.296875 
Q 18.109375 17.390625 22.1875 11.75 
Q 26.265625 6.109375 33.40625 6.109375 
Q 40.53125 6.109375 44.609375 11.75 
Q 48.6875 17.390625 48.6875 27.296875 
z
M 18.109375 46.390625 
Q 20.953125 51.265625 25.265625 53.625 
Q 29.59375 56 35.59375 56 
Q 45.5625 56 51.78125 48.09375 
Q 58.015625 40.1875 58.015625 27.296875 
Q 58.015625 14.40625 51.78125 6.484375 
Q 45.5625 -1.421875 35.59375 -1.421875 
Q 29.59375 -1.421875 25.265625 0.953125 
Q 20.953125 3.328125 18.109375 8.203125 
L 18.109375 0 
L 9.078125 0 
L 9.078125 75.984375 
L 18.109375 75.984375 
z
" id="DejaVuSans-98"/>
      <path d="M 56.203125 29.59375 
L 56.203125 25.203125 
L 14.890625 25.203125 
Q 15.484375 15.921875 20.484375 11.0625 
Q 25.484375 6.203125 34.421875 6.203125 
Q 39.59375 6.203125 44.453125 7.46875 
Q 49.3125 8.734375 54.109375 11.28125 
L 54.109375 2.78125 
Q 49.265625 0.734375 44.1875 -0.34375 
Q 39.109375 -1.421875 33.890625 -1.421875 
Q 20.796875 -1.421875 13.15625 6.1875 
Q 5.515625 13.8125 5.515625 26.8125 
Q 5.515625 40.234375 12.765625 48.109375 
Q 20.015625 56 32.328125 56 
Q 43.359375 56 49.78125 48.890625 
Q 56.203125 41.796875 56.203125 29.59375 
z
M 47.21875 32.234375 
Q 47.125 39.59375 43.09375 43.984375 
Q 39.0625 48.390625 32.421875 48.390625 
Q 24.90625 48.390625 20.390625 44.140625 
Q 15.875 39.890625 15.1875 32.171875 
z
" id="DejaVuSans-101"/>
      <path d="M 41.109375 46.296875 
Q 39.59375 47.171875 37.8125 47.578125 
Q 36.03125 48 33.890625 48 
Q 26.265625 48 22.1875 43.046875 
Q 18.109375 38.09375 18.109375 28.8125 
L 18.109375 0 
L 9.078125 0 
L 9.078125 54.6875 
L 18.109375 54.6875 
L 18.109375 46.1875 
Q 20.953125 51.171875 25.484375 53.578125 
Q 30.03125 56 36.53125 56 
Q 37.453125 56 38.578125 55.875 
Q 39.703125 55.765625 41.0625 55.515625 
z
" id="DejaVuSans-114"/>
      <path id="DejaVuSans-32"/>
      <path d="M 30.609375 48.390625 
Q 23.390625 48.390625 19.1875 42.75 
Q 14.984375 37.109375 14.984375 27.296875 
Q 14.984375 17.484375 19.15625 11.84375 
Q 23.34375 6.203125 30.609375 6.203125 
Q 37.796875 6.203125 41.984375 11.859375 
Q 46.1875 17.53125 46.1875 27.296875 
Q 46.1875 37.015625 41.984375 42.703125 
Q 37.796875 48.390625 30.609375 48.390625 
z
M 30.609375 56 
Q 42.328125 56 49.015625 48.375 
Q 55.71875 40.765625 55.71875 27.296875 
Q 55.71875 13.875 49.015625 6.21875 
Q 42.328125 -1.421875 30.609375 -1.421875 
Q 18.84375 -1.421875 12.171875 6.21875 
Q 5.515625 13.875 5.515625 27.296875 
Q 5.515625 40.765625 12.171875 48.375 
Q 18.84375 56 30.609375 56 
z
" id="DejaVuSans-111"/>
      <path d="M 37.109375 75.984375 
L 37.109375 68.5 
L 28.515625 68.5 
Q 23.6875 68.5 21.796875 66.546875 
Q 19.921875 64.59375 19.921875 59.515625 
L 19.921875 54.6875 
L 34.71875 54.6875 
L 34.71875 47.703125 
L 19.921875 47.703125 
L 19.921875 0 
L 10.890625 0 
L 10.890625 47.703125 
L 2.296875 47.703125 
L 2.296875 54.6875 
L 10.890625 54.6875 
L 10.890625 58.5 
Q 10.890625 67.625 15.140625 71.796875 
Q 19.390625 75.984375 28.609375 75.984375 
z
" id="DejaVuSans-102"/>
      <path d="M 45.40625 27.984375 
Q 45.40625 37.75 41.375 43.109375 
Q 37.359375 48.484375 30.078125 48.484375 
Q 22.859375 48.484375 18.828125 43.109375 
Q 14.796875 37.75 14.796875 27.984375 
Q 14.796875 18.265625 18.828125 12.890625 
Q 22.859375 7.515625 30.078125 7.515625 
Q 37.359375 7.515625 41.375 12.890625 
Q 45.40625 18.265625 45.40625 27.984375 
z
M 54.390625 6.78125 
Q 54.390625 -7.171875 48.1875 -13.984375 
Q 42 -20.796875 29.203125 -20.796875 
Q 24.46875 -20.796875 20.265625 -20.09375 
Q 16.0625 -19.390625 12.109375 -17.921875 
L 12.109375 -9.1875 
Q 16.0625 -11.328125 19.921875 -12.34375 
Q 23.78125 -13.375 27.78125 -13.375 
Q 36.625 -13.375 41.015625 -8.765625 
Q 45.40625 -4.15625 45.40625 5.171875 
L 45.40625 9.625 
Q 42.625 4.78125 38.28125 2.390625 
Q 33.9375 0 27.875 0 
Q 17.828125 0 11.671875 7.65625 
Q 5.515625 15.328125 5.515625 27.984375 
Q 5.515625 40.671875 11.671875 48.328125 
Q 17.828125 56 27.875 56 
Q 33.9375 56 38.28125 53.609375 
Q 42.625 51.21875 45.40625 46.390625 
L 45.40625 54.6875 
L 54.390625 54.6875 
z
" id="DejaVuSans-103"/>
      <path d="M 34.28125 27.484375 
Q 23.390625 27.484375 19.1875 25 
Q 14.984375 22.515625 14.984375 16.5 
Q 14.984375 11.71875 18.140625 8.90625 
Q 21.296875 6.109375 26.703125 6.109375 
Q 34.1875 6.109375 38.703125 11.40625 
Q 43.21875 16.703125 43.21875 25.484375 
L 43.21875 27.484375 
z
M 52.203125 31.203125 
L 52.203125 0 
L 43.21875 0 
L 43.21875 8.296875 
Q 40.140625 3.328125 35.546875 0.953125 
Q 30.953125 -1.421875 24.3125 -1.421875 
Q 15.921875 -1.421875 10.953125 3.296875 
Q 6 8.015625 6 15.921875 
Q 6 25.140625 12.171875 29.828125 
Q 18.359375 34.515625 30.609375 34.515625 
L 43.21875 34.515625 
L 43.21875 35.40625 
Q 43.21875 41.609375 39.140625 45 
Q 35.0625 48.390625 27.6875 48.390625 
Q 23 48.390625 18.546875 47.265625 
Q 14.109375 46.140625 10.015625 43.890625 
L 10.015625 52.203125 
Q 14.9375 54.109375 19.578125 55.046875 
Q 24.21875 56 28.609375 56 
Q 40.484375 56 46.34375 49.84375 
Q 52.203125 43.703125 52.203125 31.203125 
z
" id="DejaVuSans-97"/>
      <path d="M 44.28125 53.078125 
L 44.28125 44.578125 
Q 40.484375 46.53125 36.375 47.5 
Q 32.28125 48.484375 27.875 48.484375 
Q 21.1875 48.484375 17.84375 46.4375 
Q 14.5 44.390625 14.5 40.28125 
Q 14.5 37.15625 16.890625 35.375 
Q 19.28125 33.59375 26.515625 31.984375 
L 29.59375 31.296875 
Q 39.15625 29.25 43.1875 25.515625 
Q 47.21875 21.78125 47.21875 15.09375 
Q 47.21875 7.46875 41.1875 3.015625 
Q 35.15625 -1.421875 24.609375 -1.421875 
Q 20.21875 -1.421875 15.453125 -0.5625 
Q 10.6875 0.296875 5.421875 2 
L 5.421875 11.28125 
Q 10.40625 8.6875 15.234375 7.390625 
Q 20.0625 6.109375 24.8125 6.109375 
Q 31.15625 6.109375 34.5625 8.28125 
Q 37.984375 10.453125 37.984375 14.40625 
Q 37.984375 18.0625 35.515625 20.015625 
Q 33.0625 21.96875 24.703125 23.78125 
L 21.578125 24.515625 
Q 13.234375 26.265625 9.515625 29.90625 
Q 5.8125 33.546875 5.8125 39.890625 
Q 5.8125 47.609375 11.28125 51.796875 
Q 16.75 56 26.8125 56 
Q 31.78125 56 36.171875 55.265625 
Q 40.578125 54.546875 44.28125 53.078125 
z
" id="DejaVuSans-115"/>
      <path d="M 31 75.875 
Q 24.46875 64.65625 21.28125 53.65625 
Q 18.109375 42.671875 18.109375 31.390625 
Q 18.109375 20.125 21.3125 9.0625 
Q 24.515625 -2 31 -13.1875 
L 23.1875 -13.1875 
Q 15.875 -1.703125 12.234375 9.375 
Q 8.59375 20.453125 8.59375 31.390625 
Q 8.59375 42.28125 12.203125 53.3125 
Q 15.828125 64.359375 23.1875 75.875 
z
" id="DejaVuSans-40"/>
      <path d="M 19.671875 64.796875 
L 19.671875 8.109375 
L 31.59375 8.109375 
Q 46.6875 8.109375 53.6875 14.9375 
Q 60.6875 21.78125 60.6875 36.53125 
Q 60.6875 51.171875 53.6875 57.984375 
Q 46.6875 64.796875 31.59375 64.796875 
z
M 9.8125 72.90625 
L 30.078125 72.90625 
Q 51.265625 72.90625 61.171875 64.09375 
Q 71.09375 55.28125 71.09375 36.53125 
Q 71.09375 17.671875 61.125 8.828125 
Q 51.171875 0 30.078125 0 
L 9.8125 0 
z
" id="DejaVuSans-68"/>
      <path d="M 4.890625 31.390625 
L 31.203125 31.390625 
L 31.203125 23.390625 
L 4.890625 23.390625 
z
" id="DejaVuSans-45"/>
      <path d="M 9.8125 72.90625 
L 24.515625 72.90625 
L 43.109375 23.296875 
L 61.8125 72.90625 
L 76.515625 72.90625 
L 76.515625 0 
L 66.890625 0 
L 66.890625 64.015625 
L 48.09375 14.015625 
L 38.1875 14.015625 
L 19.390625 64.015625 
L 19.390625 0 
L 9.8125 0 
z
" id="DejaVuSans-77"/>
      <path d="M 9.8125 72.90625 
L 19.671875 72.90625 
L 19.671875 8.296875 
L 55.171875 8.296875 
L 55.171875 0 
L 9.8125 0 
z
" id="DejaVuSans-76"/>
      <path d="M 9.8125 72.90625 
L 19.671875 72.90625 
L 19.671875 0 
L 9.8125 0 
z
" id="DejaVuSans-73"/>
      <path d="M 19.671875 64.796875 
L 19.671875 37.40625 
L 32.078125 37.40625 
Q 38.96875 37.40625 42.71875 40.96875 
Q 46.484375 44.53125 46.484375 51.125 
Q 46.484375 57.671875 42.71875 61.234375 
Q 38.96875 64.796875 32.078125 64.796875 
z
M 9.8125 72.90625 
L 32.078125 72.90625 
Q 44.34375 72.90625 50.609375 67.359375 
Q 56.890625 61.8125 56.890625 51.125 
Q 56.890625 40.328125 50.609375 34.8125 
Q 44.34375 29.296875 32.078125 29.296875 
L 19.671875 29.296875 
L 19.671875 0 
L 9.8125 0 
z
" id="DejaVuSans-80"/>
      <path d="M 8.015625 75.875 
L 15.828125 75.875 
Q 23.140625 64.359375 26.78125 53.3125 
Q 30.421875 42.28125 30.421875 31.390625 
Q 30.421875 20.453125 26.78125 9.375 
Q 23.140625 -1.703125 15.828125 -13.1875 
L 8.015625 -13.1875 
Q 14.5 -2 17.703125 9.0625 
Q 20.90625 20.125 20.90625 31.390625 
Q 20.90625 42.671875 17.703125 53.65625 
Q 14.5 64.65625 8.015625 75.875 
z
" id="DejaVuSans-41"/>
     </defs>
     <g transform="translate(114.254844 414.912344)scale(0.25 -0.25)">
      <use xlink:href="#DejaVuSans-110"/>
      <use x="63.378906" xlink:href="#DejaVuSans-117"/>
      <use x="126.757812" xlink:href="#DejaVuSans-109"/>
      <use x="224.169922" xlink:href="#DejaVuSans-98"/>
      <use x="287.646484" xlink:href="#DejaVuSans-101"/>
      <use x="349.169922" xlink:href="#DejaVuSans-114"/>
      <use x="390.283203" xlink:href="#DejaVuSans-32"/>
      <use x="422.070312" xlink:href="#DejaVuSans-111"/>
      <use x="483.251953" xlink:href="#DejaVuSans-102"/>
      <use x="518.457031" xlink:href="#DejaVuSans-32"/>
      <use x="550.244141" xlink:href="#DejaVuSans-103"/>
      <use x="613.720703" xlink:href="#DejaVuSans-97"/>
      <use x="675" xlink:href="#DejaVuSans-109"/>
      <use x="772.412109" xlink:href="#DejaVuSans-101"/>
      <use x="833.935547" xlink:href="#DejaVuSans-115"/>
      <use x="886.035156" xlink:href="#DejaVuSans-32"/>
      <use x="917.822266" xlink:href="#DejaVuSans-40"/>
      <use x="956.835938" xlink:href="#DejaVuSans-68"/>
      <use x="1033.837891" xlink:href="#DejaVuSans-68"/>
      <use x="1110.839844" xlink:href="#DejaVuSans-45"/>
      <use x="1146.923828" xlink:href="#DejaVuSans-77"/>
      <use x="1233.203125" xlink:href="#DejaVuSans-76"/>
      <use x="1288.900391" xlink:href="#DejaVuSans-45"/>
      <use x="1324.984375" xlink:href="#DejaVuSans-73"/>
      <use x="1354.476562" xlink:href="#DejaVuSans-80"/>
      <use x="1414.779297" xlink:href="#DejaVuSans-73"/>
      <use x="1444.271484" xlink:href="#DejaVuSans-41"/>
     </g>
    </g>
   </g>
   <g id="matplotlib.axis_2">
    <g id="ytick_1">
     <g id="line2d_6">
      <defs>
       <path d="M 0 0 
L -3.5 0 
" id="m20f38133c4" style="stroke:#000000;stroke-width:0.8;"/>
      </defs>
      <g>
       <use style="stroke:#000000;stroke-width:0.8;" x="70.13" xlink:href="#m20f38133c4" y="351.970909"/>
      </g>
     </g>
     <g id="text_7">
      <!-- 0.0 -->
      <defs>
       <path d="M 10.6875 12.40625 
L 21 12.40625 
L 21 0 
L 10.6875 0 
z
" id="DejaVuSans-46"/>
      </defs>
      <g transform="translate(31.32375 359.569347)scale(0.2 -0.2)">
       <use xlink:href="#DejaVuSans-48"/>
       <use x="63.623047" xlink:href="#DejaVuSans-46"/>
       <use x="95.410156" xlink:href="#DejaVuSans-48"/>
      </g>
     </g>
    </g>
    <g id="ytick_2">
     <g id="line2d_7">
      <g>
       <use style="stroke:#000000;stroke-width:0.8;" x="70.13" xlink:href="#m20f38133c4" y="306.673939"/>
      </g>
     </g>
     <g id="text_8">
      <!-- 0.1 -->
      <defs>
       <path d="M 12.40625 8.296875 
L 28.515625 8.296875 
L 28.515625 63.921875 
L 10.984375 60.40625 
L 10.984375 69.390625 
L 28.421875 72.90625 
L 38.28125 72.90625 
L 38.28125 8.296875 
L 54.390625 8.296875 
L 54.390625 0 
L 12.40625 0 
z
" id="DejaVuSans-49"/>
      </defs>
      <g transform="translate(31.32375 314.272377)scale(0.2 -0.2)">
       <use xlink:href="#DejaVuSans-48"/>
       <use x="63.623047" xlink:href="#DejaVuSans-46"/>
       <use x="95.410156" xlink:href="#DejaVuSans-49"/>
      </g>
     </g>
    </g>
    <g id="ytick_3">
     <g id="line2d_8">
      <g>
       <use style="stroke:#000000;stroke-width:0.8;" x="70.13" xlink:href="#m20f38133c4" y="261.37697"/>
      </g>
     </g>
     <g id="text_9">
      <!-- 0.2 -->
      <g transform="translate(31.32375 268.975407)scale(0.2 -0.2)">
       <use xlink:href="#DejaVuSans-48"/>
       <use x="63.623047" xlink:href="#DejaVuSans-46"/>
       <use x="95.410156" xlink:href="#DejaVuSans-50"/>
      </g>
     </g>
    </g>
    <g id="ytick_4">
     <g id="line2d_9">
      <g>
       <use style="stroke:#000000;stroke-width:0.8;" x="70.13" xlink:href="#m20f38133c4" y="216.08"/>
      </g>
     </g>
     <g id="text_10">
      <!-- 0.3 -->
      <defs>
       <path d="M 40.578125 39.3125 
Q 47.65625 37.796875 51.625 33 
Q 55.609375 28.21875 55.609375 21.1875 
Q 55.609375 10.40625 48.1875 4.484375 
Q 40.765625 -1.421875 27.09375 -1.421875 
Q 22.515625 -1.421875 17.65625 -0.515625 
Q 12.796875 0.390625 7.625 2.203125 
L 7.625 11.71875 
Q 11.71875 9.328125 16.59375 8.109375 
Q 21.484375 6.890625 26.8125 6.890625 
Q 36.078125 6.890625 40.9375 10.546875 
Q 45.796875 14.203125 45.796875 21.1875 
Q 45.796875 27.640625 41.28125 31.265625 
Q 36.765625 34.90625 28.71875 34.90625 
L 20.21875 34.90625 
L 20.21875 43.015625 
L 29.109375 43.015625 
Q 36.375 43.015625 40.234375 45.921875 
Q 44.09375 48.828125 44.09375 54.296875 
Q 44.09375 59.90625 40.109375 62.90625 
Q 36.140625 65.921875 28.71875 65.921875 
Q 24.65625 65.921875 20.015625 65.03125 
Q 15.375 64.15625 9.8125 62.3125 
L 9.8125 71.09375 
Q 15.4375 72.65625 20.34375 73.4375 
Q 25.25 74.21875 29.59375 74.21875 
Q 40.828125 74.21875 47.359375 69.109375 
Q 53.90625 64.015625 53.90625 55.328125 
Q 53.90625 49.265625 50.4375 45.09375 
Q 46.96875 40.921875 40.578125 39.3125 
z
" id="DejaVuSans-51"/>
      </defs>
      <g transform="translate(31.32375 223.678437)scale(0.2 -0.2)">
       <use xlink:href="#DejaVuSans-48"/>
       <use x="63.623047" xlink:href="#DejaVuSans-46"/>
       <use x="95.410156" xlink:href="#DejaVuSans-51"/>
      </g>
     </g>
    </g>
    <g id="ytick_5">
     <g id="line2d_10">
      <g>
       <use style="stroke:#000000;stroke-width:0.8;" x="70.13" xlink:href="#m20f38133c4" y="170.78303"/>
      </g>
     </g>
     <g id="text_11">
      <!-- 0.4 -->
      <g transform="translate(31.32375 178.381468)scale(0.2 -0.2)">
       <use xlink:href="#DejaVuSans-48"/>
       <use x="63.623047" xlink:href="#DejaVuSans-46"/>
       <use x="95.410156" xlink:href="#DejaVuSans-52"/>
      </g>
     </g>
    </g>
    <g id="ytick_6">
     <g id="line2d_11">
      <g>
       <use style="stroke:#000000;stroke-width:0.8;" x="70.13" xlink:href="#m20f38133c4" y="125.486061"/>
      </g>
     </g>
     <g id="text_12">
      <!-- 0.5 -->
      <defs>
       <path d="M 10.796875 72.90625 
L 49.515625 72.90625 
L 49.515625 64.59375 
L 19.828125 64.59375 
L 19.828125 46.734375 
Q 21.96875 47.46875 24.109375 47.828125 
Q 26.265625 48.1875 28.421875 48.1875 
Q 40.625 48.1875 47.75 41.5 
Q 54.890625 34.8125 54.890625 23.390625 
Q 54.890625 11.625 47.5625 5.09375 
Q 40.234375 -1.421875 26.90625 -1.421875 
Q 22.3125 -1.421875 17.546875 -0.640625 
Q 12.796875 0.140625 7.71875 1.703125 
L 7.71875 11.625 
Q 12.109375 9.234375 16.796875 8.0625 
Q 21.484375 6.890625 26.703125 6.890625 
Q 35.15625 6.890625 40.078125 11.328125 
Q 45.015625 15.765625 45.015625 23.390625 
Q 45.015625 31 40.078125 35.4375 
Q 35.15625 39.890625 26.703125 39.890625 
Q 22.75 39.890625 18.8125 39.015625 
Q 14.890625 38.140625 10.796875 36.28125 
z
" id="DejaVuSans-53"/>
      </defs>
      <g transform="translate(31.32375 133.084498)scale(0.2 -0.2)">
       <use xlink:href="#DejaVuSans-48"/>
       <use x="63.623047" xlink:href="#DejaVuSans-46"/>
       <use x="95.410156" xlink:href="#DejaVuSans-53"/>
      </g>
     </g>
    </g>
    <g id="ytick_7">
     <g id="line2d_12">
      <g>
       <use style="stroke:#000000;stroke-width:0.8;" x="70.13" xlink:href="#m20f38133c4" y="80.189091"/>
      </g>
     </g>
     <g id="text_13">
      <!-- 0.6 -->
      <g transform="translate(31.32375 87.787528)scale(0.2 -0.2)">
       <use xlink:href="#DejaVuSans-48"/>
       <use x="63.623047" xlink:href="#DejaVuSans-46"/>
       <use x="95.410156" xlink:href="#DejaVuSans-54"/>
      </g>
     </g>
    </g>
    <g id="text_14">
     <!-- Percentage of Att strategy used -->
     <defs>
      <path d="M 48.78125 52.59375 
L 48.78125 44.1875 
Q 44.96875 46.296875 41.140625 47.34375 
Q 37.3125 48.390625 33.40625 48.390625 
Q 24.65625 48.390625 19.8125 42.84375 
Q 14.984375 37.3125 14.984375 27.296875 
Q 14.984375 17.28125 19.8125 11.734375 
Q 24.65625 6.203125 33.40625 6.203125 
Q 37.3125 6.203125 41.140625 7.25 
Q 44.96875 8.296875 48.78125 10.40625 
L 48.78125 2.09375 
Q 45.015625 0.34375 40.984375 -0.53125 
Q 36.96875 -1.421875 32.421875 -1.421875 
Q 20.0625 -1.421875 12.78125 6.34375 
Q 5.515625 14.109375 5.515625 27.296875 
Q 5.515625 40.671875 12.859375 48.328125 
Q 20.21875 56 33.015625 56 
Q 37.15625 56 41.109375 55.140625 
Q 45.0625 54.296875 48.78125 52.59375 
z
" id="DejaVuSans-99"/>
      <path d="M 18.3125 70.21875 
L 18.3125 54.6875 
L 36.8125 54.6875 
L 36.8125 47.703125 
L 18.3125 47.703125 
L 18.3125 18.015625 
Q 18.3125 11.328125 20.140625 9.421875 
Q 21.96875 7.515625 27.59375 7.515625 
L 36.8125 7.515625 
L 36.8125 0 
L 27.59375 0 
Q 17.1875 0 13.234375 3.875 
Q 9.28125 7.765625 9.28125 18.015625 
L 9.28125 47.703125 
L 2.6875 47.703125 
L 2.6875 54.6875 
L 9.28125 54.6875 
L 9.28125 70.21875 
z
" id="DejaVuSans-116"/>
      <path d="M 34.1875 63.1875 
L 20.796875 26.90625 
L 47.609375 26.90625 
z
M 28.609375 72.90625 
L 39.796875 72.90625 
L 67.578125 0 
L 57.328125 0 
L 50.6875 18.703125 
L 17.828125 18.703125 
L 11.1875 0 
L 0.78125 0 
z
" id="DejaVuSans-65"/>
      <path d="M 32.171875 -5.078125 
Q 28.375 -14.84375 24.75 -17.8125 
Q 21.140625 -20.796875 15.09375 -20.796875 
L 7.90625 -20.796875 
L 7.90625 -13.28125 
L 13.1875 -13.28125 
Q 16.890625 -13.28125 18.9375 -11.515625 
Q 21 -9.765625 23.484375 -3.21875 
L 25.09375 0.875 
L 2.984375 54.6875 
L 12.5 54.6875 
L 29.59375 11.921875 
L 46.6875 54.6875 
L 56.203125 54.6875 
z
" id="DejaVuSans-121"/>
      <path d="M 45.40625 46.390625 
L 45.40625 75.984375 
L 54.390625 75.984375 
L 54.390625 0 
L 45.40625 0 
L 45.40625 8.203125 
Q 42.578125 3.328125 38.25 0.953125 
Q 33.9375 -1.421875 27.875 -1.421875 
Q 17.96875 -1.421875 11.734375 6.484375 
Q 5.515625 14.40625 5.515625 27.296875 
Q 5.515625 40.1875 11.734375 48.09375 
Q 17.96875 56 27.875 56 
Q 33.9375 56 38.25 53.625 
Q 42.578125 51.265625 45.40625 46.390625 
z
M 14.796875 27.296875 
Q 14.796875 17.390625 18.875 11.75 
Q 22.953125 6.109375 30.078125 6.109375 
Q 37.203125 6.109375 41.296875 11.75 
Q 45.40625 17.390625 45.40625 27.296875 
Q 45.40625 37.203125 41.296875 42.84375 
Q 37.203125 48.484375 30.078125 48.484375 
Q 22.953125 48.484375 18.875 42.84375 
Q 14.796875 37.203125 14.796875 27.296875 
z
" id="DejaVuSans-100"/>
     </defs>
     <g transform="translate(23.857604 349.091719)rotate(-90)scale(0.166667 -0.166667)">
      <use xlink:href="#DejaVuSans-80"/>
      <use x="60.255859" xlink:href="#DejaVuSans-101"/>
      <use x="121.779297" xlink:href="#DejaVuSans-114"/>
      <use x="162.861328" xlink:href="#DejaVuSans-99"/>
      <use x="217.841797" xlink:href="#DejaVuSans-101"/>
      <use x="279.365234" xlink:href="#DejaVuSans-110"/>
      <use x="342.744141" xlink:href="#DejaVuSans-116"/>
      <use x="381.953125" xlink:href="#DejaVuSans-97"/>
      <use x="443.232422" xlink:href="#DejaVuSans-103"/>
      <use x="506.708984" xlink:href="#DejaVuSans-101"/>
      <use x="568.232422" xlink:href="#DejaVuSans-32"/>
      <use x="600.019531" xlink:href="#DejaVuSans-111"/>
      <use x="661.201172" xlink:href="#DejaVuSans-102"/>
      <use x="696.40625" xlink:href="#DejaVuSans-32"/>
      <use x="728.193359" xlink:href="#DejaVuSans-65"/>
      <use x="796.585938" xlink:href="#DejaVuSans-116"/>
      <use x="835.794922" xlink:href="#DejaVuSans-116"/>
      <use x="875.003906" xlink:href="#DejaVuSans-32"/>
      <use x="906.791016" xlink:href="#DejaVuSans-115"/>
      <use x="958.890625" xlink:href="#DejaVuSans-116"/>
      <use x="998.099609" xlink:href="#DejaVuSans-114"/>
      <use x="1039.212891" xlink:href="#DejaVuSans-97"/>
      <use x="1100.492188" xlink:href="#DejaVuSans-116"/>
      <use x="1139.701172" xlink:href="#DejaVuSans-101"/>
      <use x="1201.224609" xlink:href="#DejaVuSans-103"/>
      <use x="1264.701172" xlink:href="#DejaVuSans-121"/>
      <use x="1323.880859" xlink:href="#DejaVuSans-32"/>
      <use x="1355.667969" xlink:href="#DejaVuSans-117"/>
      <use x="1419.046875" xlink:href="#DejaVuSans-115"/>
      <use x="1471.146484" xlink:href="#DejaVuSans-101"/>
      <use x="1532.669922" xlink:href="#DejaVuSans-100"/>
     </g>
    </g>
   </g>
   <g id="line2d_13">
    <path clip-path="url(#p3198f6d03d)" d="M 90.996818 261.37697 
L 95.849567 205.061818 
L 100.702315 212.305253 
L 105.555063 196.370632 
L 110.407812 227.869622 
L 115.26056 216.668272 
L 120.113309 224.48842 
L 124.966057 227.973618 
L 129.818805 233.278315 
L 134.671554 220.908611 
L 139.524302 192.995967 
L 144.377051 203.078092 
L 149.229799 222.550996 
L 154.082548 215.073401 
L 158.935296 216.874684 
L 163.788044 202.916778 
L 168.640793 214.76432 
L 173.493541 226.883043 
L 178.34629 200.98101 
L 183.199038 214.594853 
L 188.051786 218.853284 
L 192.904535 234.953737 
L 197.757283 206.863733 
L 202.610032 213.616148 
L 207.46278 198.388909 
L 212.315529 208.706075 
L 217.168277 235.939263 
L 222.021025 192.758788 
L 226.873774 208.286973 
L 231.726522 184.297043 
L 236.579271 210.56767 
L 241.432019 201.801607 
L 246.284767 196.591769 
L 251.137516 192.892266 
L 255.990264 210.926453 
L 260.843013 212.165447 
L 265.695761 225.827449 
L 270.54851 218.911061 
L 275.401258 174.138361 
L 280.254006 221.570542 
L 285.106755 249.023251 
L 289.959503 216.08 
L 294.812252 246.538307 
L 299.665 235.226142 
L 304.517748 242.304561 
L 309.370497 237.484063 
L 314.223245 223.957734 
L 319.075994 224.73223 
L 323.928742 219.642683 
L 328.78149 243.02883 
L 333.634239 163.233535 
L 338.486987 212.595618 
L 343.339736 207.020606 
L 348.192484 186.250288 
L 353.045233 164.535172 
L 357.897981 271.083463 
L 362.750729 206.373506 
L 367.603478 227.013751 
L 372.456226 133.295883 
L 377.308975 176.627801 
L 382.161723 235.075503 
L 387.014471 191.239726 
L 391.86722 125.486061 
L 396.719968 103.568172 
L 401.572717 220.463578 
L 406.425465 252.883788 
L 411.278214 167.95197 
L 416.130962 214.707365 
L 420.98371 200.98101 
L 425.836459 224.573182 
L 430.689207 255.886428 
L 435.541956 255.886428 
L 440.394704 200.98101 
L 445.247452 245.389804 
L 450.100201 205.851652 
L 454.952949 191.239726 
L 459.805698 220.463578 
L 464.658446 279.495758 
L 469.511195 225.139394 
L 474.363943 261.37697 
L 479.216691 200.98101 
L 484.06944 210.417879 
L 488.922188 251.310976 
L 493.774937 150.651044 
L 498.627685 80.189091 
L 503.480433 216.08 
L 508.333182 228.433719 
" style="fill:none;stroke:#1f77b4;stroke-linecap:square;stroke-width:1.5;"/>
   </g>
   <g id="line2d_14">
    <path clip-path="url(#p3198f6d03d)" d="M 90.996818 293.084848 
L 95.849567 331.566869 
L 100.702315 325.547677 
L 105.555063 303.561934 
L 110.407812 324.04812 
L 115.26056 281.378229 
L 120.113309 300.435435 
L 124.966057 301.35977 
L 129.818805 288.991165 
L 134.671554 296.786784 
L 139.524302 299.705175 
L 144.377051 295.349697 
L 149.229799 303.438442 
L 154.082548 297.614545 
L 158.935296 308.263307 
L 163.788044 293.897871 
L 168.640793 297.464182 
L 173.493541 289.426976 
L 178.34629 294.889362 
L 183.199038 292.565047 
L 188.051786 296.505232 
L 192.904535 291.574949 
L 197.757283 302.948215 
L 202.610032 312.170224 
L 207.46278 315.033466 
L 212.315529 314.047865 
L 217.168277 296.186464 
L 222.021025 311.607273 
L 226.873774 298.393848 
L 231.726522 316.934579 
L 236.579271 306.434273 
L 241.432019 315.044032 
L 246.284767 309.834193 
L 251.137516 300.742193 
L 255.990264 313.997402 
L 260.843013 307.233161 
L 265.695761 286.032282 
L 270.54851 315.167121 
L 275.401258 315.062267 
L 280.254006 310.791846 
L 285.106755 297.065491 
L 289.959503 331.064615 
L 294.812252 297.302153 
L 299.665 319.282374 
L 304.517748 313.826093 
L 309.370497 282.283263 
L 314.223245 297.811489 
L 319.075994 326.523173 
L 323.928742 316.344079 
L 328.78149 317.568147 
L 333.634239 299.124444 
L 338.486987 308.416131 
L 343.339736 306.673939 
L 348.192484 329.874826 
L 353.045233 320.73162 
L 357.897981 319.615931 
L 362.750729 271.083463 
L 367.603478 351.970909 
L 372.456226 336.351264 
L 377.308975 351.970909 
L 382.161723 308.135132 
L 387.014471 337.358983 
L 391.86722 323.660303 
L 396.719968 322.747058 
L 401.572717 322.747058 
L 406.425465 295.349697 
L 411.278214 337.815606 
L 416.130962 324.5182 
L 420.98371 338.244555 
L 425.836459 309.505 
L 430.689207 269.612782 
L 435.541956 310.791846 
L 440.394704 324.5182 
L 445.247452 298.680357 
L 450.100201 351.970909 
L 454.952949 308.135132 
L 459.805698 293.523206 
L 464.658446 279.495758 
L 469.511195 297.614545 
L 474.363943 291.574949 
L 479.216691 291.574949 
L 484.06944 295.349697 
L 488.922188 301.640943 
L 493.774937 351.970909 
L 498.627685 261.37697 
L 503.480433 261.37697 
L 508.333182 351.970909 
" style="fill:none;stroke:#ff7f0e;stroke-linecap:square;stroke-width:1.5;"/>
   </g>
   <g id="line2d_15">
    <path clip-path="url(#p3198f6d03d)" d="M 90.996818 279.495758 
L 95.849567 311.162828 
L 100.702315 310.448687 
L 105.555063 303.561934 
L 110.407812 308.535459 
L 115.26056 319.615931 
L 120.113309 316.709795 
L 124.966057 303.890327 
L 129.818805 308.369548 
L 134.671554 322.079508 
L 139.524302 325.838042 
L 144.377051 307.932189 
L 149.229799 315.571558 
L 154.082548 325.799327 
L 158.935296 302.303179 
L 163.788044 319.062854 
L 168.640793 301.223267 
L 173.493541 321.646578 
L 178.34629 318.826785 
L 183.199038 303.703646 
L 188.051786 322.389215 
L 192.904535 293.462323 
L 197.757283 318.635477 
L 202.610032 321.646578 
L 207.46278 303.36901 
L 212.315529 311.941029 
L 217.168277 302.880597 
L 222.021025 311.607273 
L 226.873774 310.570453 
L 231.726522 314.431984 
L 236.579271 301.640943 
L 241.432019 307.658656 
L 246.284767 296.666469 
L 251.137516 314.223434 
L 255.990264 311.285008 
L 260.843013 307.233161 
L 265.695761 326.168838 
L 270.54851 329.322424 
L 275.401258 321.772929 
L 280.254006 307.360257 
L 285.106755 327.949789 
L 289.959503 292.73641 
L 294.812252 316.826708 
L 299.665 319.282374 
L 304.517748 289.985582 
L 309.370497 322.104775 
L 314.223245 307.658656 
L 319.075994 336.702268 
L 323.928742 331.61272 
L 328.78149 311.834354 
L 333.634239 321.772929 
L 338.486987 325.838042 
L 343.339736 306.673939 
L 348.192484 329.874826 
L 353.045233 305.111975 
L 357.897981 287.260952 
L 362.750729 335.79342 
L 367.603478 320.73162 
L 372.456226 305.111975 
L 377.308975 337.358983 
L 382.161723 278.911281 
L 387.014471 322.747058 
L 391.86722 323.660303 
L 396.719968 351.970909 
L 401.572717 308.135132 
L 406.425465 295.349697 
L 411.278214 323.660303 
L 416.130962 310.791846 
L 420.98371 324.5182 
L 425.836459 337.815606 
L 430.689207 310.791846 
L 435.541956 269.612782 
L 440.394704 338.244555 
L 445.247452 285.357718 
L 450.100201 308.135132 
L 454.952949 293.523206 
L 459.805698 322.747058 
L 464.658446 315.733333 
L 469.511195 333.852121 
L 474.363943 321.772929 
L 479.216691 321.772929 
L 484.06944 267.039091 
L 488.922188 301.640943 
L 493.774937 301.640943 
L 498.627685 351.970909 
L 503.480433 306.673939 
L 508.333182 351.970909 
" style="fill:none;stroke:#2ca02c;stroke-linecap:square;stroke-width:1.5;"/>
   </g>
   <g id="line2d_16">
    <path clip-path="url(#p3198f6d03d)" d="M 90.996818 311.203636 
L 95.849567 290.758788 
L 100.702315 317.998182 
L 105.555063 327.766421 
L 110.407812 296.12533 
L 115.26056 322.557292 
L 120.113309 308.572615 
L 124.966057 306.420884 
L 129.818805 313.214144 
L 134.671554 294.487445 
L 139.524302 310.593869 
L 144.377051 314.223434 
L 149.229799 301.416255 
L 154.082548 299.627744 
L 158.935296 312.236725 
L 163.788044 301.640943 
L 168.640793 323.777774 
L 173.493541 295.112788 
L 178.34629 318.826785 
L 183.199038 309.272946 
L 188.051786 309.447223 
L 192.904535 316.110808 
L 197.757283 326.479108 
L 202.610032 304.589142 
L 207.46278 311.145314 
L 212.315529 318.261536 
L 217.168277 305.111975 
L 222.021025 313.849697 
L 226.873774 325.182379 
L 231.726522 331.950149 
L 236.579271 308.830938 
L 241.432019 329.814783 
L 246.284767 315.101283 
L 251.137516 322.312179 
L 255.990264 324.846975 
L 260.843013 304.437052 
L 265.695761 320.435044 
L 270.54851 315.167121 
L 275.401258 311.706936 
L 280.254006 314.223434 
L 285.106755 300.49708 
L 289.959503 320.611469 
L 294.812252 336.351264 
L 299.665 300.603211 
L 304.517748 323.362297 
L 309.370497 322.104775 
L 314.223245 297.811489 
L 319.075994 295.98589 
L 323.928742 311.254532 
L 328.78149 294.632973 
L 333.634239 291.574949 
L 338.486987 334.548998 
L 343.339736 333.852121 
L 348.192484 274.634619 
L 353.045233 320.73162 
L 357.897981 319.615931 
L 362.750729 335.79342 
L 367.603478 351.970909 
L 372.456226 320.73162 
L 377.308975 293.523206 
L 382.161723 278.911281 
L 387.014471 337.358983 
L 391.86722 337.815606 
L 396.719968 351.970909 
L 401.572717 249.687429 
L 406.425465 295.349697 
L 411.278214 337.815606 
L 416.130962 283.339137 
L 420.98371 324.5182 
L 425.836459 309.505 
L 430.689207 297.065491 
L 435.541956 255.886428 
L 440.394704 283.339137 
L 445.247452 298.680357 
L 450.100201 322.747058 
L 454.952949 308.135132 
L 459.805698 293.523206 
L 464.658446 297.614545 
L 469.511195 279.495758 
L 474.363943 321.772929 
L 479.216691 321.772929 
L 484.06944 351.970909 
L 488.922188 301.640943 
L 493.774937 351.970909 
L 498.627685 351.970909 
L 503.480433 351.970909 
L 508.333182 269.612782 
" style="fill:none;stroke:#d62728;stroke-linecap:square;stroke-width:1.5;"/>
   </g>
   <g id="line2d_17">
    <path clip-path="url(#p3198f6d03d)" d="M 90.996818 279.495758 
L 95.849567 311.162828 
L 100.702315 287.800202 
L 105.555063 303.561934 
L 110.407812 305.432927 
L 115.26056 287.260952 
L 120.113309 295.010648 
L 124.966057 308.951441 
L 129.818805 310.791846 
L 134.671554 317.480831 
L 139.524302 290.994219 
L 144.377051 297.446779 
L 149.229799 287.260952 
L 154.082548 295.601347 
L 158.935296 302.303179 
L 163.788044 293.897871 
L 168.640793 295.58464 
L 173.493541 287.531705 
L 178.34629 289.365341 
L 183.199038 303.703646 
L 188.051786 285.412096 
L 192.904535 295.349697 
L 197.757283 281.378229 
L 202.610032 279.950623 
L 207.46278 311.145314 
L 212.315529 282.445328 
L 217.168277 305.111975 
L 222.021025 304.88 
L 226.873774 276.47596 
L 231.726522 281.898249 
L 236.579271 280.070957 
L 241.432019 287.964321 
L 246.284767 288.765835 
L 251.137516 289.957201 
L 255.990264 276.023894 
L 260.843013 284.864287 
L 265.695761 265.964005 
L 270.54851 261.37697 
L 275.401258 294.930281 
L 280.254006 283.339137 
L 285.106755 276.47596 
L 289.959503 275.314499 
L 294.812252 269.967774 
L 299.665 267.914677 
L 304.517748 256.608868 
L 309.370497 272.327885 
L 314.223245 283.040738 
L 319.075994 260.35906 
L 323.928742 265.448607 
L 328.78149 265.964005 
L 333.634239 299.124444 
L 338.486987 290.994219 
L 343.339736 261.37697 
L 348.192484 263.586578 
L 353.045233 289.49233 
L 357.897981 303.438442 
L 362.750729 303.438442 
L 367.603478 242.633396 
L 372.456226 305.111975 
L 377.308975 322.747058 
L 382.161723 293.523206 
L 387.014471 264.299355 
L 391.86722 309.505 
L 396.719968 308.135132 
L 401.572717 249.687429 
L 406.425465 281.194394 
L 411.278214 224.573182 
L 416.130962 297.065491 
L 420.98371 255.886428 
L 425.836459 267.039091 
L 430.689207 269.612782 
L 435.541956 255.886428 
L 440.394704 255.886428 
L 445.247452 325.325633 
L 450.100201 235.075503 
L 454.952949 293.523206 
L 459.805698 308.135132 
L 464.658446 207.020606 
L 469.511195 261.37697 
L 474.363943 231.17899 
L 479.216691 261.37697 
L 484.06944 323.660303 
L 488.922188 251.310976 
L 493.774937 251.310976 
L 498.627685 306.673939 
L 503.480433 261.37697 
L 508.333182 187.254656 
" style="fill:none;stroke:#9467bd;stroke-linecap:square;stroke-width:1.5;"/>
   </g>
   <g id="line2d_18">
    <path clip-path="url(#p3198f6d03d)" d="M 90.996818 324.792727 
L 95.849567 327.486061 
L 100.702315 295.349697 
L 105.555063 300.10415 
L 110.407812 283.715201 
L 115.26056 307.850484 
L 120.113309 322.134582 
L 124.966057 308.951441 
L 129.818805 325.325633 
L 134.671554 305.984138 
L 139.524302 310.593869 
L 144.377051 322.611762 
L 149.229799 307.482814 
L 154.082548 311.706936 
L 158.935296 314.223434 
L 163.788044 328.741694 
L 168.640793 308.741436 
L 173.493541 323.541849 
L 178.34629 329.874826 
L 183.199038 316.698679 
L 188.051786 320.540359 
L 192.904535 304.786566 
L 197.757283 299.026399 
L 202.610032 310.274954 
L 207.46278 318.921618 
L 212.315529 324.582044 
L 217.168277 318.500242 
L 222.021025 320.57697 
L 226.873774 330.053021 
L 231.726522 319.437174 
L 236.579271 313.624268 
L 241.432019 310.120448 
L 246.284767 320.368372 
L 251.137516 322.312179 
L 255.990264 316.709795 
L 260.843013 335.194254 
L 265.695761 317.568147 
L 270.54851 320.829242 
L 275.401258 328.483591 
L 280.254006 331.381377 
L 285.106755 300.49708 
L 289.959503 324.095851 
L 294.812252 305.111975 
L 299.665 305.273002 
L 304.517748 313.826093 
L 309.370497 337.037842 
L 314.223245 317.505823 
L 319.075994 311.254532 
L 323.928742 326.523173 
L 328.78149 317.568147 
L 333.634239 344.421414 
L 338.486987 325.838042 
L 343.339736 333.852121 
L 348.192484 340.922868 
L 353.045233 336.351264 
L 357.897981 287.260952 
L 362.750729 287.260952 
L 367.603478 289.49233 
L 372.456226 320.73162 
L 377.308975 308.135132 
L 382.161723 337.358983 
L 387.014471 293.523206 
L 391.86722 309.505 
L 396.719968 322.747058 
L 401.572717 351.970909 
L 406.425465 309.505 
L 411.278214 309.505 
L 416.130962 351.970909 
L 420.98371 297.065491 
L 425.836459 309.505 
L 430.689207 324.5182 
L 435.541956 351.970909 
L 440.394704 351.970909 
L 445.247452 325.325633 
L 450.100201 322.747058 
L 454.952949 308.135132 
L 459.805698 293.523206 
L 464.658446 315.733333 
L 469.511195 315.733333 
L 474.363943 261.37697 
L 479.216691 351.970909 
L 484.06944 267.039091 
L 488.922188 351.970909 
L 493.774937 351.970909 
L 498.627685 306.673939 
L 503.480433 306.673939 
L 508.333182 351.970909 
" style="fill:none;stroke:#8c564b;stroke-linecap:square;stroke-width:1.5;"/>
   </g>
   <g id="line2d_19">
    <path clip-path="url(#p3198f6d03d)" d="M 90.996818 288.555152 
L 95.849567 294.839596 
L 100.702315 314.223434 
L 105.555063 320.850854 
L 110.407812 317.843055 
L 115.26056 316.674569 
L 120.113309 295.010648 
L 124.966057 286.176428 
L 129.818805 279.301974 
L 134.671554 308.283476 
L 139.524302 304.060653 
L 144.377051 310.02927 
L 149.229799 307.482814 
L 154.082548 307.680539 
L 158.935296 300.31647 
L 163.788044 303.576711 
L 168.640793 316.259605 
L 173.493541 295.112788 
L 178.34629 298.572042 
L 183.199038 299.99078 
L 188.051786 298.354088 
L 192.904535 302.899192 
L 197.757283 302.948215 
L 202.610032 308.379683 
L 207.46278 293.648631 
L 212.315529 297.193178 
L 217.168277 289.49233 
L 222.021025 293.667879 
L 226.873774 305.699811 
L 231.726522 299.416414 
L 236.579271 311.227603 
L 241.432019 300.273281 
L 246.284767 301.933559 
L 251.137516 295.349697 
L 255.990264 284.161074 
L 260.843013 298.844834 
L 265.695761 291.766076 
L 270.54851 286.856515 
L 275.401258 304.996274 
L 280.254006 300.49708 
L 285.106755 297.065491 
L 289.959503 285.767646 
L 294.812252 266.062863 
L 299.665 300.603211 
L 304.517748 299.521786 
L 309.370497 297.21633 
L 314.223245 297.811489 
L 319.075994 265.448607 
L 323.928742 285.806796 
L 328.78149 300.366766 
L 333.634239 314.223434 
L 338.486987 273.572308 
L 343.339736 297.614545 
L 348.192484 307.778744 
L 353.045233 320.73162 
L 357.897981 254.905974 
L 362.750729 303.438442 
L 367.603478 258.253041 
L 372.456226 289.49233 
L 377.308975 278.911281 
L 382.161723 322.747058 
L 387.014471 278.911281 
L 391.86722 323.660303 
L 396.719968 264.299355 
L 401.572717 337.358983 
L 406.425465 309.505 
L 411.278214 337.815606 
L 416.130962 324.5182 
L 420.98371 310.791846 
L 425.836459 295.349697 
L 430.689207 310.791846 
L 435.541956 324.5182 
L 440.394704 283.339137 
L 445.247452 285.357718 
L 450.100201 322.747058 
L 454.952949 308.135132 
L 459.805698 293.523206 
L 464.658446 333.852121 
L 469.511195 297.614545 
L 474.363943 321.772929 
L 479.216691 321.772929 
L 484.06944 295.349697 
L 488.922188 301.640943 
L 493.774937 251.310976 
L 498.627685 351.970909 
L 503.480433 306.673939 
L 508.333182 269.612782 
" style="fill:none;stroke:#e377c2;stroke-linecap:square;stroke-width:1.5;"/>
   </g>
   <g id="line2d_20">
    <path clip-path="url(#p3198f6d03d)" d="M 90.996818 324.792727 
L 95.849567 290.758788 
L 100.702315 299.124444 
L 105.555063 307.019718 
L 110.407812 299.227862 
L 115.26056 310.791846 
L 120.113309 300.435435 
L 124.966057 319.073669 
L 129.818805 303.524952 
L 134.671554 296.786784 
L 139.524302 328.015781 
L 144.377051 312.126352 
L 149.229799 317.593745 
L 154.082548 309.693737 
L 158.935296 306.276598 
L 163.788044 319.062854 
L 168.640793 304.982351 
L 173.493541 323.541849 
L 178.34629 311.461424 
L 183.199038 322.267978 
L 188.051786 311.296079 
L 192.904535 323.660303 
L 197.757283 324.5182 
L 202.610032 312.170224 
L 207.46278 311.145314 
L 212.315529 305.620521 
L 217.168277 309.574731 
L 222.021025 313.849697 
L 226.873774 308.135132 
L 231.726522 314.431984 
L 236.579271 330.400924 
L 241.432019 310.120448 
L 246.284767 333.536096 
L 251.137516 325.008427 
L 255.990264 324.846975 
L 260.843013 312.82538 
L 265.695761 329.035735 
L 270.54851 315.167121 
L 275.401258 311.706936 
L 280.254006 293.633903 
L 285.106755 314.223434 
L 289.959503 317.127086 
L 294.812252 324.636531 
L 299.665 314.612584 
L 304.517748 323.362297 
L 309.370497 292.238641 
L 314.223245 337.200158 
L 319.075994 341.791815 
L 323.928742 306.164985 
L 328.78149 311.834354 
L 333.634239 329.322424 
L 338.486987 290.994219 
L 343.339736 315.733333 
L 348.192484 329.874826 
L 353.045233 305.111975 
L 357.897981 319.615931 
L 362.750729 319.615931 
L 367.603478 320.73162 
L 372.456226 351.970909 
L 377.308975 293.523206 
L 382.161723 308.135132 
L 387.014471 337.358983 
L 391.86722 309.505 
L 396.719968 337.358983 
L 401.572717 322.747058 
L 406.425465 323.660303 
L 411.278214 323.660303 
L 416.130962 255.886428 
L 420.98371 310.791846 
L 425.836459 309.505 
L 430.689207 324.5182 
L 435.541956 338.244555 
L 440.394704 324.5182 
L 445.247452 298.680357 
L 450.100201 293.523206 
L 454.952949 351.970909 
L 459.805698 337.358983 
L 464.658446 333.852121 
L 469.511195 351.970909 
L 474.363943 351.970909 
L 479.216691 291.574949 
L 484.06944 351.970909 
L 488.922188 301.640943 
L 493.774937 351.970909 
L 498.627685 351.970909 
L 503.480433 351.970909 
L 508.333182 351.970909 
" style="fill:none;stroke:#7f7f7f;stroke-linecap:square;stroke-width:1.5;"/>
   </g>
   <g id="patch_3">
    <path d="M 70.13 365.56 
L 70.13 66.6 
" style="fill:none;stroke:#000000;stroke-linecap:square;stroke-linejoin:miter;stroke-width:0.8;"/>
   </g>
   <g id="patch_4">
    <path d="M 529.2 365.56 
L 529.2 66.6 
" style="fill:none;stroke:#000000;stroke-linecap:square;stroke-linejoin:miter;stroke-width:0.8;"/>
   </g>
   <g id="patch_5">
    <path d="M 70.13 365.56 
L 529.2 365.56 
" style="fill:none;stroke:#000000;stroke-linecap:square;stroke-linejoin:miter;stroke-width:0.8;"/>
   </g>
   <g id="patch_6">
    <path d="M 70.13 66.6 
L 529.2 66.6 
" style="fill:none;stroke:#000000;stroke-linecap:square;stroke-linejoin:miter;stroke-width:0.8;"/>
   </g>
   <g id="legend_1">
    <g id="patch_7">
     <path d="M 80.63 59.1 
L 518.7 59.1 
Q 521.7 59.1 521.7 56.1 
L 521.7 13.565625 
Q 521.7 10.565625 518.7 10.565625 
L 80.63 10.565625 
Q 77.63 10.565625 77.63 13.565625 
L 77.63 56.1 
Q 77.63 59.1 80.63 59.1 
z
" style="fill:#ffffff;opacity:0.8;stroke:#cccccc;stroke-linejoin:miter;"/>
    </g>
    <g id="line2d_21">
     <path d="M 83.63 22.713281 
L 113.63 22.713281 
" style="fill:none;stroke:#1f77b4;stroke-linecap:square;stroke-width:1.5;"/>
    </g>
    <g id="line2d_22"/>
    <g id="text_15">
     <!-- Stra 1 -->
     <defs>
      <path d="M 53.515625 70.515625 
L 53.515625 60.890625 
Q 47.90625 63.578125 42.921875 64.890625 
Q 37.9375 66.21875 33.296875 66.21875 
Q 25.25 66.21875 20.875 63.09375 
Q 16.5 59.96875 16.5 54.203125 
Q 16.5 49.359375 19.40625 46.890625 
Q 22.3125 44.4375 30.421875 42.921875 
L 36.375 41.703125 
Q 47.40625 39.59375 52.65625 34.296875 
Q 57.90625 29 57.90625 20.125 
Q 57.90625 9.515625 50.796875 4.046875 
Q 43.703125 -1.421875 29.984375 -1.421875 
Q 24.8125 -1.421875 18.96875 -0.25 
Q 13.140625 0.921875 6.890625 3.21875 
L 6.890625 13.375 
Q 12.890625 10.015625 18.65625 8.296875 
Q 24.421875 6.59375 29.984375 6.59375 
Q 38.421875 6.59375 43.015625 9.90625 
Q 47.609375 13.234375 47.609375 19.390625 
Q 47.609375 24.75 44.3125 27.78125 
Q 41.015625 30.8125 33.5 32.328125 
L 27.484375 33.5 
Q 16.453125 35.6875 11.515625 40.375 
Q 6.59375 45.0625 6.59375 53.421875 
Q 6.59375 63.09375 13.40625 68.65625 
Q 20.21875 74.21875 32.171875 74.21875 
Q 37.3125 74.21875 42.625 73.28125 
Q 47.953125 72.359375 53.515625 70.515625 
z
" id="DejaVuSans-83"/>
     </defs>
     <g transform="translate(125.63 27.963281)scale(0.15 -0.15)">
      <use xlink:href="#DejaVuSans-83"/>
      <use x="63.476562" xlink:href="#DejaVuSans-116"/>
      <use x="102.685547" xlink:href="#DejaVuSans-114"/>
      <use x="143.798828" xlink:href="#DejaVuSans-97"/>
      <use x="205.078125" xlink:href="#DejaVuSans-32"/>
      <use x="236.865234" xlink:href="#DejaVuSans-49"/>
     </g>
    </g>
    <g id="line2d_23">
     <path d="M 83.63 44.730469 
L 113.63 44.730469 
" style="fill:none;stroke:#ff7f0e;stroke-linecap:square;stroke-width:1.5;"/>
    </g>
    <g id="line2d_24"/>
    <g id="text_16">
     <!-- Stra 2 -->
     <g transform="translate(125.63 49.980469)scale(0.15 -0.15)">
      <use xlink:href="#DejaVuSans-83"/>
      <use x="63.476562" xlink:href="#DejaVuSans-116"/>
      <use x="102.685547" xlink:href="#DejaVuSans-114"/>
      <use x="143.798828" xlink:href="#DejaVuSans-97"/>
      <use x="205.078125" xlink:href="#DejaVuSans-32"/>
      <use x="236.865234" xlink:href="#DejaVuSans-50"/>
     </g>
    </g>
    <g id="line2d_25">
     <path d="M 198.629115 22.713281 
L 228.629115 22.713281 
" style="fill:none;stroke:#2ca02c;stroke-linecap:square;stroke-width:1.5;"/>
    </g>
    <g id="line2d_26"/>
    <g id="text_17">
     <!-- Stra 3 -->
     <g transform="translate(240.629115 27.963281)scale(0.15 -0.15)">
      <use xlink:href="#DejaVuSans-83"/>
      <use x="63.476562" xlink:href="#DejaVuSans-116"/>
      <use x="102.685547" xlink:href="#DejaVuSans-114"/>
      <use x="143.798828" xlink:href="#DejaVuSans-97"/>
      <use x="205.078125" xlink:href="#DejaVuSans-32"/>
      <use x="236.865234" xlink:href="#DejaVuSans-51"/>
     </g>
    </g>
    <g id="line2d_27">
     <path d="M 198.629115 44.730469 
L 228.629115 44.730469 
" style="fill:none;stroke:#d62728;stroke-linecap:square;stroke-width:1.5;"/>
    </g>
    <g id="line2d_28"/>
    <g id="text_18">
     <!-- Stra 4 -->
     <g transform="translate(240.629115 49.980469)scale(0.15 -0.15)">
      <use xlink:href="#DejaVuSans-83"/>
      <use x="63.476562" xlink:href="#DejaVuSans-116"/>
      <use x="102.685547" xlink:href="#DejaVuSans-114"/>
      <use x="143.798828" xlink:href="#DejaVuSans-97"/>
      <use x="205.078125" xlink:href="#DejaVuSans-32"/>
      <use x="236.865234" xlink:href="#DejaVuSans-52"/>
     </g>
    </g>
    <g id="line2d_29">
     <path d="M 313.628229 22.713281 
L 343.628229 22.713281 
" style="fill:none;stroke:#9467bd;stroke-linecap:square;stroke-width:1.5;"/>
    </g>
    <g id="line2d_30"/>
    <g id="text_19">
     <!-- Stra 5 -->
     <g transform="translate(355.628229 27.963281)scale(0.15 -0.15)">
      <use xlink:href="#DejaVuSans-83"/>
      <use x="63.476562" xlink:href="#DejaVuSans-116"/>
      <use x="102.685547" xlink:href="#DejaVuSans-114"/>
      <use x="143.798828" xlink:href="#DejaVuSans-97"/>
      <use x="205.078125" xlink:href="#DejaVuSans-32"/>
      <use x="236.865234" xlink:href="#DejaVuSans-53"/>
     </g>
    </g>
    <g id="line2d_31">
     <path d="M 313.628229 44.730469 
L 343.628229 44.730469 
" style="fill:none;stroke:#8c564b;stroke-linecap:square;stroke-width:1.5;"/>
    </g>
    <g id="line2d_32"/>
    <g id="text_20">
     <!-- Stra 6 -->
     <g transform="translate(355.628229 49.980469)scale(0.15 -0.15)">
      <use xlink:href="#DejaVuSans-83"/>
      <use x="63.476562" xlink:href="#DejaVuSans-116"/>
      <use x="102.685547" xlink:href="#DejaVuSans-114"/>
      <use x="143.798828" xlink:href="#DejaVuSans-97"/>
      <use x="205.078125" xlink:href="#DejaVuSans-32"/>
      <use x="236.865234" xlink:href="#DejaVuSans-54"/>
     </g>
    </g>
    <g id="line2d_33">
     <path d="M 428.627344 22.713281 
L 458.627344 22.713281 
" style="fill:none;stroke:#e377c2;stroke-linecap:square;stroke-width:1.5;"/>
    </g>
    <g id="line2d_34"/>
    <g id="text_21">
     <!-- Stra 7 -->
     <defs>
      <path d="M 8.203125 72.90625 
L 55.078125 72.90625 
L 55.078125 68.703125 
L 28.609375 0 
L 18.3125 0 
L 43.21875 64.59375 
L 8.203125 64.59375 
z
" id="DejaVuSans-55"/>
     </defs>
     <g transform="translate(470.627344 27.963281)scale(0.15 -0.15)">
      <use xlink:href="#DejaVuSans-83"/>
      <use x="63.476562" xlink:href="#DejaVuSans-116"/>
      <use x="102.685547" xlink:href="#DejaVuSans-114"/>
      <use x="143.798828" xlink:href="#DejaVuSans-97"/>
      <use x="205.078125" xlink:href="#DejaVuSans-32"/>
      <use x="236.865234" xlink:href="#DejaVuSans-55"/>
     </g>
    </g>
    <g id="line2d_35">
     <path d="M 428.627344 44.730469 
L 458.627344 44.730469 
" style="fill:none;stroke:#7f7f7f;stroke-linecap:square;stroke-width:1.5;"/>
    </g>
    <g id="line2d_36"/>
    <g id="text_22">
     <!-- Stra 8 -->
     <g transform="translate(470.627344 49.980469)scale(0.15 -0.15)">
      <use xlink:href="#DejaVuSans-83"/>
      <use x="63.476562" xlink:href="#DejaVuSans-116"/>
      <use x="102.685547" xlink:href="#DejaVuSans-114"/>
      <use x="143.798828" xlink:href="#DejaVuSans-97"/>
      <use x="205.078125" xlink:href="#DejaVuSans-32"/>
      <use x="236.865234" xlink:href="#DejaVuSans-56"/>
     </g>
    </g>
   </g>
  </g>
 </g>
 <defs>
  <clipPath id="p3198f6d03d">
   <rect height="298.96" width="459.07" x="70.13" y="66.6"/>
  </clipPath>
 </defs>
</svg>
