<?xml version="1.0" encoding="utf-8" standalone="no"?>
<!DOCTYPE svg PUBLIC "-//W3C//DTD SVG 1.1//EN"
  "http://www.w3.org/Graphics/SVG/1.1/DTD/svg11.dtd">
<!-- Created with matplotlib (https://matplotlib.org/) -->
<svg height="432pt" version="1.1" viewBox="0 0 540 432" width="540pt" xmlns="http://www.w3.org/2000/svg" xmlns:xlink="http://www.w3.org/1999/xlink">
 <defs>
  <style type="text/css">
*{stroke-linecap:butt;stroke-linejoin:round;}
  </style>
 </defs>
 <g id="figure_1">
  <g id="patch_1">
   <path d="M 0 432 
L 540 432 
L 540 0 
L 0 0 
z
" style="fill:#ffffff;"/>
  </g>
  <g id="axes_1">
   <g id="patch_2">
    <path d="M 70.13 365.56 
L 529.2 365.56 
L 529.2 66.6 
L 70.13 66.6 
z
" style="fill:#ffffff;"/>
   </g>
   <g id="matplotlib.axis_1">
    <g id="xtick_1">
     <g id="line2d_1">
      <defs>
       <path d="M 0 0 
L 0 3.5 
" id="md5a063d18c" style="stroke:#000000;stroke-width:0.8;"/>
      </defs>
      <g>
       <use style="stroke:#000000;stroke-width:0.8;" x="90.996818" xlink:href="#md5a063d18c" y="365.56"/>
      </g>
     </g>
     <g id="text_1">
      <!-- 0 -->
      <defs>
       <path d="M 31.78125 66.40625 
Q 24.171875 66.40625 20.328125 58.90625 
Q 16.5 51.421875 16.5 36.375 
Q 16.5 21.390625 20.328125 13.890625 
Q 24.171875 6.390625 31.78125 6.390625 
Q 39.453125 6.390625 43.28125 13.890625 
Q 47.125 21.390625 47.125 36.375 
Q 47.125 51.421875 43.28125 58.90625 
Q 39.453125 66.40625 31.78125 66.40625 
z
M 31.78125 74.21875 
Q 44.046875 74.21875 50.515625 64.515625 
Q 56.984375 54.828125 56.984375 36.375 
Q 56.984375 17.96875 50.515625 8.265625 
Q 44.046875 -1.421875 31.78125 -1.421875 
Q 19.53125 -1.421875 13.0625 8.265625 
Q 6.59375 17.96875 6.59375 36.375 
Q 6.59375 54.828125 13.0625 64.515625 
Q 19.53125 74.21875 31.78125 74.21875 
z
" id="DejaVuSans-48"/>
      </defs>
      <g transform="translate(84.634318 387.756875)scale(0.2 -0.2)">
       <use xlink:href="#DejaVuSans-48"/>
      </g>
     </g>
    </g>
    <g id="xtick_2">
     <g id="line2d_2">
      <g>
       <use style="stroke:#000000;stroke-width:0.8;" x="188.051786" xlink:href="#md5a063d18c" y="365.56"/>
      </g>
     </g>
     <g id="text_2">
      <!-- 20 -->
      <defs>
       <path d="M 19.1875 8.296875 
L 53.609375 8.296875 
L 53.609375 0 
L 7.328125 0 
L 7.328125 8.296875 
Q 12.9375 14.109375 22.625 23.890625 
Q 32.328125 33.6875 34.8125 36.53125 
Q 39.546875 41.84375 41.421875 45.53125 
Q 43.3125 49.21875 43.3125 52.78125 
Q 43.3125 58.59375 39.234375 62.25 
Q 35.15625 65.921875 28.609375 65.921875 
Q 23.96875 65.921875 18.8125 64.3125 
Q 13.671875 62.703125 7.8125 59.421875 
L 7.8125 69.390625 
Q 13.765625 71.78125 18.9375 73 
Q 24.125 74.21875 28.421875 74.21875 
Q 39.75 74.21875 46.484375 68.546875 
Q 53.21875 62.890625 53.21875 53.421875 
Q 53.21875 48.921875 51.53125 44.890625 
Q 49.859375 40.875 45.40625 35.40625 
Q 44.1875 33.984375 37.640625 27.21875 
Q 31.109375 20.453125 19.1875 8.296875 
z
" id="DejaVuSans-50"/>
      </defs>
      <g transform="translate(175.326786 387.756875)scale(0.2 -0.2)">
       <use xlink:href="#DejaVuSans-50"/>
       <use x="63.623047" xlink:href="#DejaVuSans-48"/>
      </g>
     </g>
    </g>
    <g id="xtick_3">
     <g id="line2d_3">
      <g>
       <use style="stroke:#000000;stroke-width:0.8;" x="285.106755" xlink:href="#md5a063d18c" y="365.56"/>
      </g>
     </g>
     <g id="text_3">
      <!-- 40 -->
      <defs>
       <path d="M 37.796875 64.3125 
L 12.890625 25.390625 
L 37.796875 25.390625 
z
M 35.203125 72.90625 
L 47.609375 72.90625 
L 47.609375 25.390625 
L 58.015625 25.390625 
L 58.015625 17.1875 
L 47.609375 17.1875 
L 47.609375 0 
L 37.796875 0 
L 37.796875 17.1875 
L 4.890625 17.1875 
L 4.890625 26.703125 
z
" id="DejaVuSans-52"/>
      </defs>
      <g transform="translate(272.381755 387.756875)scale(0.2 -0.2)">
       <use xlink:href="#DejaVuSans-52"/>
       <use x="63.623047" xlink:href="#DejaVuSans-48"/>
      </g>
     </g>
    </g>
    <g id="xtick_4">
     <g id="line2d_4">
      <g>
       <use style="stroke:#000000;stroke-width:0.8;" x="382.161723" xlink:href="#md5a063d18c" y="365.56"/>
      </g>
     </g>
     <g id="text_4">
      <!-- 60 -->
      <defs>
       <path d="M 33.015625 40.375 
Q 26.375 40.375 22.484375 35.828125 
Q 18.609375 31.296875 18.609375 23.390625 
Q 18.609375 15.53125 22.484375 10.953125 
Q 26.375 6.390625 33.015625 6.390625 
Q 39.65625 6.390625 43.53125 10.953125 
Q 47.40625 15.53125 47.40625 23.390625 
Q 47.40625 31.296875 43.53125 35.828125 
Q 39.65625 40.375 33.015625 40.375 
z
M 52.59375 71.296875 
L 52.59375 62.3125 
Q 48.875 64.0625 45.09375 64.984375 
Q 41.3125 65.921875 37.59375 65.921875 
Q 27.828125 65.921875 22.671875 59.328125 
Q 17.53125 52.734375 16.796875 39.40625 
Q 19.671875 43.65625 24.015625 45.921875 
Q 28.375 48.1875 33.59375 48.1875 
Q 44.578125 48.1875 50.953125 41.515625 
Q 57.328125 34.859375 57.328125 23.390625 
Q 57.328125 12.15625 50.6875 5.359375 
Q 44.046875 -1.421875 33.015625 -1.421875 
Q 20.359375 -1.421875 13.671875 8.265625 
Q 6.984375 17.96875 6.984375 36.375 
Q 6.984375 53.65625 15.1875 63.9375 
Q 23.390625 74.21875 37.203125 74.21875 
Q 40.921875 74.21875 44.703125 73.484375 
Q 48.484375 72.75 52.59375 71.296875 
z
" id="DejaVuSans-54"/>
      </defs>
      <g transform="translate(369.436723 387.756875)scale(0.2 -0.2)">
       <use xlink:href="#DejaVuSans-54"/>
       <use x="63.623047" xlink:href="#DejaVuSans-48"/>
      </g>
     </g>
    </g>
    <g id="xtick_5">
     <g id="line2d_5">
      <g>
       <use style="stroke:#000000;stroke-width:0.8;" x="479.216691" xlink:href="#md5a063d18c" y="365.56"/>
      </g>
     </g>
     <g id="text_5">
      <!-- 80 -->
      <defs>
       <path d="M 31.78125 34.625 
Q 24.75 34.625 20.71875 30.859375 
Q 16.703125 27.09375 16.703125 20.515625 
Q 16.703125 13.921875 20.71875 10.15625 
Q 24.75 6.390625 31.78125 6.390625 
Q 38.8125 6.390625 42.859375 10.171875 
Q 46.921875 13.96875 46.921875 20.515625 
Q 46.921875 27.09375 42.890625 30.859375 
Q 38.875 34.625 31.78125 34.625 
z
M 21.921875 38.8125 
Q 15.578125 40.375 12.03125 44.71875 
Q 8.5 49.078125 8.5 55.328125 
Q 8.5 64.0625 14.71875 69.140625 
Q 20.953125 74.21875 31.78125 74.21875 
Q 42.671875 74.21875 48.875 69.140625 
Q 55.078125 64.0625 55.078125 55.328125 
Q 55.078125 49.078125 51.53125 44.71875 
Q 48 40.375 41.703125 38.8125 
Q 48.828125 37.15625 52.796875 32.3125 
Q 56.78125 27.484375 56.78125 20.515625 
Q 56.78125 9.90625 50.3125 4.234375 
Q 43.84375 -1.421875 31.78125 -1.421875 
Q 19.734375 -1.421875 13.25 4.234375 
Q 6.78125 9.90625 6.78125 20.515625 
Q 6.78125 27.484375 10.78125 32.3125 
Q 14.796875 37.15625 21.921875 38.8125 
z
M 18.3125 54.390625 
Q 18.3125 48.734375 21.84375 45.5625 
Q 25.390625 42.390625 31.78125 42.390625 
Q 38.140625 42.390625 41.71875 45.5625 
Q 45.3125 48.734375 45.3125 54.390625 
Q 45.3125 60.0625 41.71875 63.234375 
Q 38.140625 66.40625 31.78125 66.40625 
Q 25.390625 66.40625 21.84375 63.234375 
Q 18.3125 60.0625 18.3125 54.390625 
z
" id="DejaVuSans-56"/>
      </defs>
      <g transform="translate(466.491691 387.756875)scale(0.2 -0.2)">
       <use xlink:href="#DejaVuSans-56"/>
       <use x="63.623047" xlink:href="#DejaVuSans-48"/>
      </g>
     </g>
    </g>
    <g id="text_6">
     <!-- number of games (DD-ML-IPI) -->
     <defs>
      <path d="M 54.890625 33.015625 
L 54.890625 0 
L 45.90625 0 
L 45.90625 32.71875 
Q 45.90625 40.484375 42.875 44.328125 
Q 39.84375 48.1875 33.796875 48.1875 
Q 26.515625 48.1875 22.3125 43.546875 
Q 18.109375 38.921875 18.109375 30.90625 
L 18.109375 0 
L 9.078125 0 
L 9.078125 54.6875 
L 18.109375 54.6875 
L 18.109375 46.1875 
Q 21.34375 51.125 25.703125 53.5625 
Q 30.078125 56 35.796875 56 
Q 45.21875 56 50.046875 50.171875 
Q 54.890625 44.34375 54.890625 33.015625 
z
" id="DejaVuSans-110"/>
      <path d="M 8.5 21.578125 
L 8.5 54.6875 
L 17.484375 54.6875 
L 17.484375 21.921875 
Q 17.484375 14.15625 20.5 10.265625 
Q 23.53125 6.390625 29.59375 6.390625 
Q 36.859375 6.390625 41.078125 11.03125 
Q 45.3125 15.671875 45.3125 23.6875 
L 45.3125 54.6875 
L 54.296875 54.6875 
L 54.296875 0 
L 45.3125 0 
L 45.3125 8.40625 
Q 42.046875 3.421875 37.71875 1 
Q 33.40625 -1.421875 27.6875 -1.421875 
Q 18.265625 -1.421875 13.375 4.4375 
Q 8.5 10.296875 8.5 21.578125 
z
M 31.109375 56 
z
" id="DejaVuSans-117"/>
      <path d="M 52 44.1875 
Q 55.375 50.25 60.0625 53.125 
Q 64.75 56 71.09375 56 
Q 79.640625 56 84.28125 50.015625 
Q 88.921875 44.046875 88.921875 33.015625 
L 88.921875 0 
L 79.890625 0 
L 79.890625 32.71875 
Q 79.890625 40.578125 77.09375 44.375 
Q 74.3125 48.1875 68.609375 48.1875 
Q 61.625 48.1875 57.5625 43.546875 
Q 53.515625 38.921875 53.515625 30.90625 
L 53.515625 0 
L 44.484375 0 
L 44.484375 32.71875 
Q 44.484375 40.625 41.703125 44.40625 
Q 38.921875 48.1875 33.109375 48.1875 
Q 26.21875 48.1875 22.15625 43.53125 
Q 18.109375 38.875 18.109375 30.90625 
L 18.109375 0 
L 9.078125 0 
L 9.078125 54.6875 
L 18.109375 54.6875 
L 18.109375 46.1875 
Q 21.1875 51.21875 25.484375 53.609375 
Q 29.78125 56 35.6875 56 
Q 41.65625 56 45.828125 52.96875 
Q 50 49.953125 52 44.1875 
z
" id="DejaVuSans-109"/>
      <path d="M 48.6875 27.296875 
Q 48.6875 37.203125 44.609375 42.84375 
Q 40.53125 48.484375 33.40625 48.484375 
Q 26.265625 48.484375 22.1875 42.84375 
Q 18.109375 37.203125 18.109375 27.296875 
Q 18.109375 17.390625 22.1875 11.75 
Q 26.265625 6.109375 33.40625 6.109375 
Q 40.53125 6.109375 44.609375 11.75 
Q 48.6875 17.390625 48.6875 27.296875 
z
M 18.109375 46.390625 
Q 20.953125 51.265625 25.265625 53.625 
Q 29.59375 56 35.59375 56 
Q 45.5625 56 51.78125 48.09375 
Q 58.015625 40.1875 58.015625 27.296875 
Q 58.015625 14.40625 51.78125 6.484375 
Q 45.5625 -1.421875 35.59375 -1.421875 
Q 29.59375 -1.421875 25.265625 0.953125 
Q 20.953125 3.328125 18.109375 8.203125 
L 18.109375 0 
L 9.078125 0 
L 9.078125 75.984375 
L 18.109375 75.984375 
z
" id="DejaVuSans-98"/>
      <path d="M 56.203125 29.59375 
L 56.203125 25.203125 
L 14.890625 25.203125 
Q 15.484375 15.921875 20.484375 11.0625 
Q 25.484375 6.203125 34.421875 6.203125 
Q 39.59375 6.203125 44.453125 7.46875 
Q 49.3125 8.734375 54.109375 11.28125 
L 54.109375 2.78125 
Q 49.265625 0.734375 44.1875 -0.34375 
Q 39.109375 -1.421875 33.890625 -1.421875 
Q 20.796875 -1.421875 13.15625 6.1875 
Q 5.515625 13.8125 5.515625 26.8125 
Q 5.515625 40.234375 12.765625 48.109375 
Q 20.015625 56 32.328125 56 
Q 43.359375 56 49.78125 48.890625 
Q 56.203125 41.796875 56.203125 29.59375 
z
M 47.21875 32.234375 
Q 47.125 39.59375 43.09375 43.984375 
Q 39.0625 48.390625 32.421875 48.390625 
Q 24.90625 48.390625 20.390625 44.140625 
Q 15.875 39.890625 15.1875 32.171875 
z
" id="DejaVuSans-101"/>
      <path d="M 41.109375 46.296875 
Q 39.59375 47.171875 37.8125 47.578125 
Q 36.03125 48 33.890625 48 
Q 26.265625 48 22.1875 43.046875 
Q 18.109375 38.09375 18.109375 28.8125 
L 18.109375 0 
L 9.078125 0 
L 9.078125 54.6875 
L 18.109375 54.6875 
L 18.109375 46.1875 
Q 20.953125 51.171875 25.484375 53.578125 
Q 30.03125 56 36.53125 56 
Q 37.453125 56 38.578125 55.875 
Q 39.703125 55.765625 41.0625 55.515625 
z
" id="DejaVuSans-114"/>
      <path id="DejaVuSans-32"/>
      <path d="M 30.609375 48.390625 
Q 23.390625 48.390625 19.1875 42.75 
Q 14.984375 37.109375 14.984375 27.296875 
Q 14.984375 17.484375 19.15625 11.84375 
Q 23.34375 6.203125 30.609375 6.203125 
Q 37.796875 6.203125 41.984375 11.859375 
Q 46.1875 17.53125 46.1875 27.296875 
Q 46.1875 37.015625 41.984375 42.703125 
Q 37.796875 48.390625 30.609375 48.390625 
z
M 30.609375 56 
Q 42.328125 56 49.015625 48.375 
Q 55.71875 40.765625 55.71875 27.296875 
Q 55.71875 13.875 49.015625 6.21875 
Q 42.328125 -1.421875 30.609375 -1.421875 
Q 18.84375 -1.421875 12.171875 6.21875 
Q 5.515625 13.875 5.515625 27.296875 
Q 5.515625 40.765625 12.171875 48.375 
Q 18.84375 56 30.609375 56 
z
" id="DejaVuSans-111"/>
      <path d="M 37.109375 75.984375 
L 37.109375 68.5 
L 28.515625 68.5 
Q 23.6875 68.5 21.796875 66.546875 
Q 19.921875 64.59375 19.921875 59.515625 
L 19.921875 54.6875 
L 34.71875 54.6875 
L 34.71875 47.703125 
L 19.921875 47.703125 
L 19.921875 0 
L 10.890625 0 
L 10.890625 47.703125 
L 2.296875 47.703125 
L 2.296875 54.6875 
L 10.890625 54.6875 
L 10.890625 58.5 
Q 10.890625 67.625 15.140625 71.796875 
Q 19.390625 75.984375 28.609375 75.984375 
z
" id="DejaVuSans-102"/>
      <path d="M 45.40625 27.984375 
Q 45.40625 37.75 41.375 43.109375 
Q 37.359375 48.484375 30.078125 48.484375 
Q 22.859375 48.484375 18.828125 43.109375 
Q 14.796875 37.75 14.796875 27.984375 
Q 14.796875 18.265625 18.828125 12.890625 
Q 22.859375 7.515625 30.078125 7.515625 
Q 37.359375 7.515625 41.375 12.890625 
Q 45.40625 18.265625 45.40625 27.984375 
z
M 54.390625 6.78125 
Q 54.390625 -7.171875 48.1875 -13.984375 
Q 42 -20.796875 29.203125 -20.796875 
Q 24.46875 -20.796875 20.265625 -20.09375 
Q 16.0625 -19.390625 12.109375 -17.921875 
L 12.109375 -9.1875 
Q 16.0625 -11.328125 19.921875 -12.34375 
Q 23.78125 -13.375 27.78125 -13.375 
Q 36.625 -13.375 41.015625 -8.765625 
Q 45.40625 -4.15625 45.40625 5.171875 
L 45.40625 9.625 
Q 42.625 4.78125 38.28125 2.390625 
Q 33.9375 0 27.875 0 
Q 17.828125 0 11.671875 7.65625 
Q 5.515625 15.328125 5.515625 27.984375 
Q 5.515625 40.671875 11.671875 48.328125 
Q 17.828125 56 27.875 56 
Q 33.9375 56 38.28125 53.609375 
Q 42.625 51.21875 45.40625 46.390625 
L 45.40625 54.6875 
L 54.390625 54.6875 
z
" id="DejaVuSans-103"/>
      <path d="M 34.28125 27.484375 
Q 23.390625 27.484375 19.1875 25 
Q 14.984375 22.515625 14.984375 16.5 
Q 14.984375 11.71875 18.140625 8.90625 
Q 21.296875 6.109375 26.703125 6.109375 
Q 34.1875 6.109375 38.703125 11.40625 
Q 43.21875 16.703125 43.21875 25.484375 
L 43.21875 27.484375 
z
M 52.203125 31.203125 
L 52.203125 0 
L 43.21875 0 
L 43.21875 8.296875 
Q 40.140625 3.328125 35.546875 0.953125 
Q 30.953125 -1.421875 24.3125 -1.421875 
Q 15.921875 -1.421875 10.953125 3.296875 
Q 6 8.015625 6 15.921875 
Q 6 25.140625 12.171875 29.828125 
Q 18.359375 34.515625 30.609375 34.515625 
L 43.21875 34.515625 
L 43.21875 35.40625 
Q 43.21875 41.609375 39.140625 45 
Q 35.0625 48.390625 27.6875 48.390625 
Q 23 48.390625 18.546875 47.265625 
Q 14.109375 46.140625 10.015625 43.890625 
L 10.015625 52.203125 
Q 14.9375 54.109375 19.578125 55.046875 
Q 24.21875 56 28.609375 56 
Q 40.484375 56 46.34375 49.84375 
Q 52.203125 43.703125 52.203125 31.203125 
z
" id="DejaVuSans-97"/>
      <path d="M 44.28125 53.078125 
L 44.28125 44.578125 
Q 40.484375 46.53125 36.375 47.5 
Q 32.28125 48.484375 27.875 48.484375 
Q 21.1875 48.484375 17.84375 46.4375 
Q 14.5 44.390625 14.5 40.28125 
Q 14.5 37.15625 16.890625 35.375 
Q 19.28125 33.59375 26.515625 31.984375 
L 29.59375 31.296875 
Q 39.15625 29.25 43.1875 25.515625 
Q 47.21875 21.78125 47.21875 15.09375 
Q 47.21875 7.46875 41.1875 3.015625 
Q 35.15625 -1.421875 24.609375 -1.421875 
Q 20.21875 -1.421875 15.453125 -0.5625 
Q 10.6875 0.296875 5.421875 2 
L 5.421875 11.28125 
Q 10.40625 8.6875 15.234375 7.390625 
Q 20.0625 6.109375 24.8125 6.109375 
Q 31.15625 6.109375 34.5625 8.28125 
Q 37.984375 10.453125 37.984375 14.40625 
Q 37.984375 18.0625 35.515625 20.015625 
Q 33.0625 21.96875 24.703125 23.78125 
L 21.578125 24.515625 
Q 13.234375 26.265625 9.515625 29.90625 
Q 5.8125 33.546875 5.8125 39.890625 
Q 5.8125 47.609375 11.28125 51.796875 
Q 16.75 56 26.8125 56 
Q 31.78125 56 36.171875 55.265625 
Q 40.578125 54.546875 44.28125 53.078125 
z
" id="DejaVuSans-115"/>
      <path d="M 31 75.875 
Q 24.46875 64.65625 21.28125 53.65625 
Q 18.109375 42.671875 18.109375 31.390625 
Q 18.109375 20.125 21.3125 9.0625 
Q 24.515625 -2 31 -13.1875 
L 23.1875 -13.1875 
Q 15.875 -1.703125 12.234375 9.375 
Q 8.59375 20.453125 8.59375 31.390625 
Q 8.59375 42.28125 12.203125 53.3125 
Q 15.828125 64.359375 23.1875 75.875 
z
" id="DejaVuSans-40"/>
      <path d="M 19.671875 64.796875 
L 19.671875 8.109375 
L 31.59375 8.109375 
Q 46.6875 8.109375 53.6875 14.9375 
Q 60.6875 21.78125 60.6875 36.53125 
Q 60.6875 51.171875 53.6875 57.984375 
Q 46.6875 64.796875 31.59375 64.796875 
z
M 9.8125 72.90625 
L 30.078125 72.90625 
Q 51.265625 72.90625 61.171875 64.09375 
Q 71.09375 55.28125 71.09375 36.53125 
Q 71.09375 17.671875 61.125 8.828125 
Q 51.171875 0 30.078125 0 
L 9.8125 0 
z
" id="DejaVuSans-68"/>
      <path d="M 4.890625 31.390625 
L 31.203125 31.390625 
L 31.203125 23.390625 
L 4.890625 23.390625 
z
" id="DejaVuSans-45"/>
      <path d="M 9.8125 72.90625 
L 24.515625 72.90625 
L 43.109375 23.296875 
L 61.8125 72.90625 
L 76.515625 72.90625 
L 76.515625 0 
L 66.890625 0 
L 66.890625 64.015625 
L 48.09375 14.015625 
L 38.1875 14.015625 
L 19.390625 64.015625 
L 19.390625 0 
L 9.8125 0 
z
" id="DejaVuSans-77"/>
      <path d="M 9.8125 72.90625 
L 19.671875 72.90625 
L 19.671875 8.296875 
L 55.171875 8.296875 
L 55.171875 0 
L 9.8125 0 
z
" id="DejaVuSans-76"/>
      <path d="M 9.8125 72.90625 
L 19.671875 72.90625 
L 19.671875 0 
L 9.8125 0 
z
" id="DejaVuSans-73"/>
      <path d="M 19.671875 64.796875 
L 19.671875 37.40625 
L 32.078125 37.40625 
Q 38.96875 37.40625 42.71875 40.96875 
Q 46.484375 44.53125 46.484375 51.125 
Q 46.484375 57.671875 42.71875 61.234375 
Q 38.96875 64.796875 32.078125 64.796875 
z
M 9.8125 72.90625 
L 32.078125 72.90625 
Q 44.34375 72.90625 50.609375 67.359375 
Q 56.890625 61.8125 56.890625 51.125 
Q 56.890625 40.328125 50.609375 34.8125 
Q 44.34375 29.296875 32.078125 29.296875 
L 19.671875 29.296875 
L 19.671875 0 
L 9.8125 0 
z
" id="DejaVuSans-80"/>
      <path d="M 8.015625 75.875 
L 15.828125 75.875 
Q 23.140625 64.359375 26.78125 53.3125 
Q 30.421875 42.28125 30.421875 31.390625 
Q 30.421875 20.453125 26.78125 9.375 
Q 23.140625 -1.703125 15.828125 -13.1875 
L 8.015625 -13.1875 
Q 14.5 -2 17.703125 9.0625 
Q 20.90625 20.125 20.90625 31.390625 
Q 20.90625 42.671875 17.703125 53.65625 
Q 14.5 64.65625 8.015625 75.875 
z
" id="DejaVuSans-41"/>
     </defs>
     <g transform="translate(114.254844 414.912344)scale(0.25 -0.25)">
      <use xlink:href="#DejaVuSans-110"/>
      <use x="63.378906" xlink:href="#DejaVuSans-117"/>
      <use x="126.757812" xlink:href="#DejaVuSans-109"/>
      <use x="224.169922" xlink:href="#DejaVuSans-98"/>
      <use x="287.646484" xlink:href="#DejaVuSans-101"/>
      <use x="349.169922" xlink:href="#DejaVuSans-114"/>
      <use x="390.283203" xlink:href="#DejaVuSans-32"/>
      <use x="422.070312" xlink:href="#DejaVuSans-111"/>
      <use x="483.251953" xlink:href="#DejaVuSans-102"/>
      <use x="518.457031" xlink:href="#DejaVuSans-32"/>
      <use x="550.244141" xlink:href="#DejaVuSans-103"/>
      <use x="613.720703" xlink:href="#DejaVuSans-97"/>
      <use x="675" xlink:href="#DejaVuSans-109"/>
      <use x="772.412109" xlink:href="#DejaVuSans-101"/>
      <use x="833.935547" xlink:href="#DejaVuSans-115"/>
      <use x="886.035156" xlink:href="#DejaVuSans-32"/>
      <use x="917.822266" xlink:href="#DejaVuSans-40"/>
      <use x="956.835938" xlink:href="#DejaVuSans-68"/>
      <use x="1033.837891" xlink:href="#DejaVuSans-68"/>
      <use x="1110.839844" xlink:href="#DejaVuSans-45"/>
      <use x="1146.923828" xlink:href="#DejaVuSans-77"/>
      <use x="1233.203125" xlink:href="#DejaVuSans-76"/>
      <use x="1288.900391" xlink:href="#DejaVuSans-45"/>
      <use x="1324.984375" xlink:href="#DejaVuSans-73"/>
      <use x="1354.476562" xlink:href="#DejaVuSans-80"/>
      <use x="1414.779297" xlink:href="#DejaVuSans-73"/>
      <use x="1444.271484" xlink:href="#DejaVuSans-41"/>
     </g>
    </g>
   </g>
   <g id="matplotlib.axis_2">
    <g id="ytick_1">
     <g id="line2d_6">
      <defs>
       <path d="M 0 0 
L -3.5 0 
" id="m93b11e117e" style="stroke:#000000;stroke-width:0.8;"/>
      </defs>
      <g>
       <use style="stroke:#000000;stroke-width:0.8;" x="70.13" xlink:href="#m93b11e117e" y="351.970909"/>
      </g>
     </g>
     <g id="text_7">
      <!-- 0.0 -->
      <defs>
       <path d="M 10.6875 12.40625 
L 21 12.40625 
L 21 0 
L 10.6875 0 
z
" id="DejaVuSans-46"/>
      </defs>
      <g transform="translate(31.32375 359.569347)scale(0.2 -0.2)">
       <use xlink:href="#DejaVuSans-48"/>
       <use x="63.623047" xlink:href="#DejaVuSans-46"/>
       <use x="95.410156" xlink:href="#DejaVuSans-48"/>
      </g>
     </g>
    </g>
    <g id="ytick_2">
     <g id="line2d_7">
      <g>
       <use style="stroke:#000000;stroke-width:0.8;" x="70.13" xlink:href="#m93b11e117e" y="297.614545"/>
      </g>
     </g>
     <g id="text_8">
      <!-- 0.2 -->
      <g transform="translate(31.32375 305.212983)scale(0.2 -0.2)">
       <use xlink:href="#DejaVuSans-48"/>
       <use x="63.623047" xlink:href="#DejaVuSans-46"/>
       <use x="95.410156" xlink:href="#DejaVuSans-50"/>
      </g>
     </g>
    </g>
    <g id="ytick_3">
     <g id="line2d_8">
      <g>
       <use style="stroke:#000000;stroke-width:0.8;" x="70.13" xlink:href="#m93b11e117e" y="243.258182"/>
      </g>
     </g>
     <g id="text_9">
      <!-- 0.4 -->
      <g transform="translate(31.32375 250.856619)scale(0.2 -0.2)">
       <use xlink:href="#DejaVuSans-48"/>
       <use x="63.623047" xlink:href="#DejaVuSans-46"/>
       <use x="95.410156" xlink:href="#DejaVuSans-52"/>
      </g>
     </g>
    </g>
    <g id="ytick_4">
     <g id="line2d_9">
      <g>
       <use style="stroke:#000000;stroke-width:0.8;" x="70.13" xlink:href="#m93b11e117e" y="188.901818"/>
      </g>
     </g>
     <g id="text_10">
      <!-- 0.6 -->
      <g transform="translate(31.32375 196.500256)scale(0.2 -0.2)">
       <use xlink:href="#DejaVuSans-48"/>
       <use x="63.623047" xlink:href="#DejaVuSans-46"/>
       <use x="95.410156" xlink:href="#DejaVuSans-54"/>
      </g>
     </g>
    </g>
    <g id="ytick_5">
     <g id="line2d_10">
      <g>
       <use style="stroke:#000000;stroke-width:0.8;" x="70.13" xlink:href="#m93b11e117e" y="134.545455"/>
      </g>
     </g>
     <g id="text_11">
      <!-- 0.8 -->
      <g transform="translate(31.32375 142.143892)scale(0.2 -0.2)">
       <use xlink:href="#DejaVuSans-48"/>
       <use x="63.623047" xlink:href="#DejaVuSans-46"/>
       <use x="95.410156" xlink:href="#DejaVuSans-56"/>
      </g>
     </g>
    </g>
    <g id="ytick_6">
     <g id="line2d_11">
      <g>
       <use style="stroke:#000000;stroke-width:0.8;" x="70.13" xlink:href="#m93b11e117e" y="80.189091"/>
      </g>
     </g>
     <g id="text_12">
      <!-- 1.0 -->
      <defs>
       <path d="M 12.40625 8.296875 
L 28.515625 8.296875 
L 28.515625 63.921875 
L 10.984375 60.40625 
L 10.984375 69.390625 
L 28.421875 72.90625 
L 38.28125 72.90625 
L 38.28125 8.296875 
L 54.390625 8.296875 
L 54.390625 0 
L 12.40625 0 
z
" id="DejaVuSans-49"/>
      </defs>
      <g transform="translate(31.32375 87.787528)scale(0.2 -0.2)">
       <use xlink:href="#DejaVuSans-49"/>
       <use x="63.623047" xlink:href="#DejaVuSans-46"/>
       <use x="95.410156" xlink:href="#DejaVuSans-48"/>
      </g>
     </g>
    </g>
    <g id="text_13">
     <!-- Percentage of Def strategy used -->
     <defs>
      <path d="M 48.78125 52.59375 
L 48.78125 44.1875 
Q 44.96875 46.296875 41.140625 47.34375 
Q 37.3125 48.390625 33.40625 48.390625 
Q 24.65625 48.390625 19.8125 42.84375 
Q 14.984375 37.3125 14.984375 27.296875 
Q 14.984375 17.28125 19.8125 11.734375 
Q 24.65625 6.203125 33.40625 6.203125 
Q 37.3125 6.203125 41.140625 7.25 
Q 44.96875 8.296875 48.78125 10.40625 
L 48.78125 2.09375 
Q 45.015625 0.34375 40.984375 -0.53125 
Q 36.96875 -1.421875 32.421875 -1.421875 
Q 20.0625 -1.421875 12.78125 6.34375 
Q 5.515625 14.109375 5.515625 27.296875 
Q 5.515625 40.671875 12.859375 48.328125 
Q 20.21875 56 33.015625 56 
Q 37.15625 56 41.109375 55.140625 
Q 45.0625 54.296875 48.78125 52.59375 
z
" id="DejaVuSans-99"/>
      <path d="M 18.3125 70.21875 
L 18.3125 54.6875 
L 36.8125 54.6875 
L 36.8125 47.703125 
L 18.3125 47.703125 
L 18.3125 18.015625 
Q 18.3125 11.328125 20.140625 9.421875 
Q 21.96875 7.515625 27.59375 7.515625 
L 36.8125 7.515625 
L 36.8125 0 
L 27.59375 0 
Q 17.1875 0 13.234375 3.875 
Q 9.28125 7.765625 9.28125 18.015625 
L 9.28125 47.703125 
L 2.6875 47.703125 
L 2.6875 54.6875 
L 9.28125 54.6875 
L 9.28125 70.21875 
z
" id="DejaVuSans-116"/>
      <path d="M 32.171875 -5.078125 
Q 28.375 -14.84375 24.75 -17.8125 
Q 21.140625 -20.796875 15.09375 -20.796875 
L 7.90625 -20.796875 
L 7.90625 -13.28125 
L 13.1875 -13.28125 
Q 16.890625 -13.28125 18.9375 -11.515625 
Q 21 -9.765625 23.484375 -3.21875 
L 25.09375 0.875 
L 2.984375 54.6875 
L 12.5 54.6875 
L 29.59375 11.921875 
L 46.6875 54.6875 
L 56.203125 54.6875 
z
" id="DejaVuSans-121"/>
      <path d="M 45.40625 46.390625 
L 45.40625 75.984375 
L 54.390625 75.984375 
L 54.390625 0 
L 45.40625 0 
L 45.40625 8.203125 
Q 42.578125 3.328125 38.25 0.953125 
Q 33.9375 -1.421875 27.875 -1.421875 
Q 17.96875 -1.421875 11.734375 6.484375 
Q 5.515625 14.40625 5.515625 27.296875 
Q 5.515625 40.1875 11.734375 48.09375 
Q 17.96875 56 27.875 56 
Q 33.9375 56 38.25 53.625 
Q 42.578125 51.265625 45.40625 46.390625 
z
M 14.796875 27.296875 
Q 14.796875 17.390625 18.875 11.75 
Q 22.953125 6.109375 30.078125 6.109375 
Q 37.203125 6.109375 41.296875 11.75 
Q 45.40625 17.390625 45.40625 27.296875 
Q 45.40625 37.203125 41.296875 42.84375 
Q 37.203125 48.484375 30.078125 48.484375 
Q 22.953125 48.484375 18.875 42.84375 
Q 14.796875 37.203125 14.796875 27.296875 
z
" id="DejaVuSans-100"/>
     </defs>
     <g transform="translate(23.857604 351.33651)rotate(-90)scale(0.166667 -0.166667)">
      <use xlink:href="#DejaVuSans-80"/>
      <use x="60.255859" xlink:href="#DejaVuSans-101"/>
      <use x="121.779297" xlink:href="#DejaVuSans-114"/>
      <use x="162.861328" xlink:href="#DejaVuSans-99"/>
      <use x="217.841797" xlink:href="#DejaVuSans-101"/>
      <use x="279.365234" xlink:href="#DejaVuSans-110"/>
      <use x="342.744141" xlink:href="#DejaVuSans-116"/>
      <use x="381.953125" xlink:href="#DejaVuSans-97"/>
      <use x="443.232422" xlink:href="#DejaVuSans-103"/>
      <use x="506.708984" xlink:href="#DejaVuSans-101"/>
      <use x="568.232422" xlink:href="#DejaVuSans-32"/>
      <use x="600.019531" xlink:href="#DejaVuSans-111"/>
      <use x="661.201172" xlink:href="#DejaVuSans-102"/>
      <use x="696.40625" xlink:href="#DejaVuSans-32"/>
      <use x="728.193359" xlink:href="#DejaVuSans-68"/>
      <use x="805.195312" xlink:href="#DejaVuSans-101"/>
      <use x="866.71875" xlink:href="#DejaVuSans-102"/>
      <use x="901.923828" xlink:href="#DejaVuSans-32"/>
      <use x="933.710938" xlink:href="#DejaVuSans-115"/>
      <use x="985.810547" xlink:href="#DejaVuSans-116"/>
      <use x="1025.019531" xlink:href="#DejaVuSans-114"/>
      <use x="1066.132812" xlink:href="#DejaVuSans-97"/>
      <use x="1127.412109" xlink:href="#DejaVuSans-116"/>
      <use x="1166.621094" xlink:href="#DejaVuSans-101"/>
      <use x="1228.144531" xlink:href="#DejaVuSans-103"/>
      <use x="1291.621094" xlink:href="#DejaVuSans-121"/>
      <use x="1350.800781" xlink:href="#DejaVuSans-32"/>
      <use x="1382.587891" xlink:href="#DejaVuSans-117"/>
      <use x="1445.966797" xlink:href="#DejaVuSans-115"/>
      <use x="1498.066406" xlink:href="#DejaVuSans-101"/>
      <use x="1559.589844" xlink:href="#DejaVuSans-100"/>
     </g>
    </g>
   </g>
   <g id="line2d_12">
    <path clip-path="url(#pce30a17d5e)" d="M 90.996818 291.199819 
L 95.849567 261.37697 
L 100.702315 250.559783 
L 105.555063 239.280887 
L 110.407812 236.168221 
L 115.26056 223.813629 
L 120.113309 230.13768 
L 124.966057 237.776868 
L 129.818805 250.052727 
L 134.671554 221.789702 
L 139.524302 233.501911 
L 144.377051 235.172111 
L 149.229799 231.933939 
L 154.082548 245.040358 
L 158.935296 246.538307 
L 163.788044 251.224201 
L 168.640793 249.134545 
L 173.493541 247.439441 
L 178.34629 263.070314 
L 183.199038 258.860471 
L 188.051786 258.712442 
L 192.904535 266.300553 
L 197.757283 247.221667 
L 202.610032 253.905305 
L 207.46278 267.416566 
L 212.315529 294.930281 
L 217.168277 268.624485 
L 222.021025 290.36703 
L 226.873774 247.725828 
L 231.726522 266.785563 
L 236.579271 268.038289 
L 241.432019 252.748975 
L 246.284767 261.37697 
L 251.137516 270.913174 
L 255.990264 242.212867 
L 260.843013 275.051527 
L 265.695761 290.435403 
L 270.54851 256.047914 
L 275.401258 292.311486 
L 280.254006 256.847273 
L 285.106755 258.992919 
L 289.959503 300.552727 
L 294.812252 282.084156 
L 299.665 291.574949 
L 304.517748 261.37697 
L 309.370497 299.705175 
L 314.223245 278.798881 
L 319.075994 290.202314 
L 323.928742 261.37697 
L 328.78149 297.614545 
L 333.634239 261.37697 
L 338.486987 268.345734 
L 343.339736 284.025455 
L 348.192484 270.436364 
L 353.045233 261.37697 
L 357.897981 261.37697 
L 362.750729 297.614545 
L 367.603478 306.673939 
L 372.456226 235.492987 
L 377.308975 235.492987 
L 382.161723 306.673939 
L 387.014471 351.970909 
L 391.86722 274.318961 
L 396.719968 351.970909 
L 401.572717 250.052727 
L 406.425465 216.08 
L 411.278214 297.614545 
L 416.130962 284.025455 
L 420.98371 313.144935 
L 425.836459 261.37697 
L 430.689207 351.970909 
L 435.541956 243.258182 
L 440.394704 274.318961 
L 445.247452 351.970909 
L 450.100201 216.08 
L 454.952949 243.258182 
L 459.805698 306.673939 
L 464.658446 351.970909 
L 469.511195 351.970909 
L 474.363943 261.37697 
L 479.216691 261.37697 
L 484.06944 351.970909 
L 488.922188 80.189091 
L 493.774937 80.189091 
L 498.627685 351.970909 
L 503.480433 216.08 
L 508.333182 216.08 
" style="fill:none;stroke:#1f77b4;stroke-linecap:square;stroke-width:1.5;"/>
   </g>
   <g id="line2d_13">
    <path clip-path="url(#pce30a17d5e)" d="M 90.996818 324.961536 
L 95.849567 333.097172 
L 100.702315 331.688684 
L 105.555063 329.874826 
L 110.407812 321.247747 
L 115.26056 327.665218 
L 120.113309 314.483762 
L 124.966057 324.564339 
L 129.818805 311.628295 
L 134.671554 319.996578 
L 139.524302 314.804165 
L 144.377051 291.325379 
L 149.229799 311.203636 
L 154.082548 316.327392 
L 158.935296 316.826708 
L 163.788044 305.111975 
L 168.640793 307.898182 
L 173.493541 307.8354 
L 178.34629 313.870654 
L 183.199038 316.739933 
L 188.051786 312.002995 
L 192.904535 310.612806 
L 197.757283 320.829242 
L 202.610032 315.546542 
L 207.46278 315.733333 
L 212.315529 318.417598 
L 217.168277 319.357091 
L 222.021025 308.485818 
L 226.873774 322.1866 
L 231.726522 303.293569 
L 236.579271 347.974118 
L 241.432019 317.458932 
L 246.284767 306.673939 
L 251.137516 318.594195 
L 255.990264 315.384895 
L 260.843013 285.307444 
L 265.695761 321.203156 
L 270.54851 319.996578 
L 275.401258 325.45561 
L 280.254006 324.792727 
L 285.106755 323.362297 
L 289.959503 315.243636 
L 294.812252 289.849351 
L 299.665 301.640943 
L 304.517748 301.640943 
L 309.370497 299.705175 
L 314.223245 320.611469 
L 319.075994 327.263471 
L 323.928742 329.322424 
L 328.78149 311.203636 
L 333.634239 279.495758 
L 338.486987 331.064615 
L 343.339736 306.673939 
L 348.192484 324.792727 
L 353.045233 321.772929 
L 357.897981 351.970909 
L 362.750729 351.970909 
L 367.603478 306.673939 
L 372.456226 313.144935 
L 377.308975 313.144935 
L 382.161723 306.673939 
L 387.014471 188.901818 
L 391.86722 235.492987 
L 396.719968 216.08 
L 401.572717 317.998182 
L 406.425465 351.970909 
L 411.278214 351.970909 
L 416.130962 351.970909 
L 420.98371 313.144935 
L 425.836459 351.970909 
L 430.689207 306.673939 
L 435.541956 297.614545 
L 440.394704 313.144935 
L 445.247452 351.970909 
L 450.100201 351.970909 
L 454.952949 351.970909 
L 459.805698 351.970909 
L 464.658446 351.970909 
L 469.511195 351.970909 
L 474.363943 351.970909 
L 479.216691 351.970909 
L 484.06944 351.970909 
L 488.922188 351.970909 
L 493.774937 351.970909 
L 498.627685 351.970909 
L 503.480433 351.970909 
L 508.333182 351.970909 
" style="fill:none;stroke:#ff7f0e;stroke-linecap:square;stroke-width:1.5;"/>
   </g>
   <g id="line2d_14">
    <path clip-path="url(#pce30a17d5e)" d="M 90.996818 328.337708 
L 95.849567 316.110808 
L 100.702315 321.547571 
L 105.555063 340.922868 
L 110.407812 342.517628 
L 115.26056 345.342084 
L 120.113309 347.285016 
L 124.966057 340.551505 
L 129.818805 337.107841 
L 134.671554 326.84822 
L 139.524302 338.03338 
L 144.377051 347.478648 
L 149.229799 338.381818 
L 154.082548 343.06003 
L 158.935296 340.256176 
L 163.788044 337.913229 
L 168.640793 327.486061 
L 173.493541 342.679223 
L 178.34629 344.350858 
L 183.199038 334.355421 
L 188.051786 346.641854 
L 192.904535 328.337708 
L 197.757283 334.984545 
L 202.610032 323.952165 
L 207.46278 333.852121 
L 212.315529 345.260247 
L 217.168277 333.852121 
L 222.021025 330.228364 
L 226.873774 325.909639 
L 231.726522 331.688684 
L 236.579271 304.009412 
L 241.432019 334.714921 
L 246.284767 342.911515 
L 251.137516 328.130399 
L 255.990264 325.838042 
L 260.843013 341.714991 
L 265.695761 321.203156 
L 270.54851 325.325633 
L 275.401258 332.084435 
L 280.254006 331.587273 
L 285.106755 351.970909 
L 289.959503 329.934545 
L 294.812252 328.675325 
L 299.665 341.904916 
L 304.517748 341.904916 
L 309.370497 351.970909 
L 314.223245 331.064615 
L 319.075994 290.202314 
L 323.928742 329.322424 
L 328.78149 351.970909 
L 333.634239 333.852121 
L 338.486987 289.252028 
L 343.339736 284.025455 
L 348.192484 351.970909 
L 353.045233 351.970909 
L 357.897981 306.673939 
L 362.750729 351.970909 
L 367.603478 306.673939 
L 372.456226 313.144935 
L 377.308975 313.144935 
L 382.161723 351.970909 
L 387.014471 297.614545 
L 391.86722 313.144935 
L 396.719968 306.673939 
L 401.572717 317.998182 
L 406.425465 306.673939 
L 411.278214 297.614545 
L 416.130962 351.970909 
L 420.98371 313.144935 
L 425.836459 351.970909 
L 430.689207 261.37697 
L 435.541956 351.970909 
L 440.394704 351.970909 
L 445.247452 306.673939 
L 450.100201 351.970909 
L 454.952949 297.614545 
L 459.805698 351.970909 
L 464.658446 216.08 
L 469.511195 351.970909 
L 474.363943 351.970909 
L 479.216691 261.37697 
L 484.06944 351.970909 
L 488.922188 351.970909 
L 493.774937 351.970909 
L 498.627685 351.970909 
L 503.480433 351.970909 
L 508.333182 351.970909 
" style="fill:none;stroke:#2ca02c;stroke-linecap:square;stroke-width:1.5;"/>
   </g>
   <g id="line2d_15">
    <path clip-path="url(#pce30a17d5e)" d="M 90.996818 330.025793 
L 95.849567 333.097172 
L 100.702315 337.773351 
L 105.555063 345.342084 
L 110.407812 342.517628 
L 115.26056 349.761301 
L 120.113309 349.627962 
L 124.966057 342.835386 
L 129.818805 341.354432 
L 134.671554 345.119267 
L 139.524302 347.325066 
L 144.377051 347.478648 
L 149.229799 340.646667 
L 154.082548 336.37687 
L 158.935296 328.541442 
L 163.788044 335.570282 
L 168.640793 344.625455 
L 173.493541 340.356301 
L 178.34629 336.730807 
L 183.199038 334.355421 
L 188.051786 325.325633 
L 192.904535 322.429407 
L 197.757283 349.139848 
L 202.610032 335.159663 
L 207.46278 318.753131 
L 212.315529 321.772929 
L 217.168277 348.347152 
L 222.021025 326.604606 
L 226.873774 329.632677 
L 231.726522 343.858019 
L 236.579271 327.99016 
L 241.432019 330.400924 
L 246.284767 342.911515 
L 251.137516 342.434705 
L 255.990264 341.517762 
L 260.843013 341.714991 
L 265.695761 346.84295 
L 270.54851 319.996578 
L 275.401258 338.713259 
L 280.254006 338.381818 
L 285.106755 323.362297 
L 289.959503 322.589091 
L 294.812252 320.91013 
L 299.665 341.904916 
L 304.517748 341.904916 
L 309.370497 351.970909 
L 314.223245 331.064615 
L 319.075994 339.61719 
L 323.928742 295.349697 
L 328.78149 297.614545 
L 333.634239 315.733333 
L 338.486987 331.064615 
L 343.339736 306.673939 
L 348.192484 297.614545 
L 353.045233 321.772929 
L 357.897981 351.970909 
L 362.750729 351.970909 
L 367.603478 351.970909 
L 372.456226 351.970909 
L 377.308975 351.970909 
L 382.161723 351.970909 
L 387.014471 351.970909 
L 391.86722 351.970909 
L 396.719968 351.970909 
L 401.572717 351.970909 
L 406.425465 351.970909 
L 411.278214 351.970909 
L 416.130962 351.970909 
L 420.98371 351.970909 
L 425.836459 351.970909 
L 430.689207 351.970909 
L 435.541956 351.970909 
L 440.394704 351.970909 
L 445.247452 306.673939 
L 450.100201 351.970909 
L 454.952949 351.970909 
L 459.805698 306.673939 
L 464.658446 351.970909 
L 469.511195 261.37697 
L 474.363943 351.970909 
L 479.216691 351.970909 
L 484.06944 284.025455 
L 488.922188 351.970909 
L 493.774937 351.970909 
L 498.627685 351.970909 
L 503.480433 351.970909 
L 508.333182 216.08 
" style="fill:none;stroke:#d62728;stroke-linecap:square;stroke-width:1.5;"/>
   </g>
   <g id="line2d_16">
    <path clip-path="url(#pce30a17d5e)" d="M 90.996818 343.53048 
L 95.849567 348.196162 
L 100.702315 351.970909 
L 105.555063 345.342084 
L 110.407812 347.244269 
L 115.26056 347.551693 
L 120.113309 351.970909 
L 124.966057 349.687028 
L 129.818805 351.970909 
L 134.671554 351.970909 
L 139.524302 351.970909 
L 144.377051 349.724778 
L 149.229799 351.970909 
L 154.082548 349.743189 
L 158.935296 349.627962 
L 163.788044 351.970909 
L 168.640793 351.970909 
L 173.493541 351.970909 
L 178.34629 349.430892 
L 183.199038 351.970909 
L 188.051786 351.970909 
L 192.904535 351.970909 
L 197.757283 346.308788 
L 202.610032 349.169035 
L 207.46278 351.970909 
L 212.315529 348.615578 
L 217.168277 348.347152 
L 222.021025 351.970909 
L 226.873774 348.24787 
L 231.726522 343.858019 
L 236.579271 343.977326 
L 241.432019 347.656912 
L 246.284767 347.441212 
L 251.137516 342.434705 
L 255.990264 341.517762 
L 260.843013 351.970909 
L 265.695761 346.84295 
L 270.54851 341.312799 
L 275.401258 351.970909 
L 280.254006 345.176364 
L 285.106755 330.51445 
L 289.959503 344.625455 
L 294.812252 351.970909 
L 299.665 341.904916 
L 304.517748 341.904916 
L 309.370497 351.970909 
L 314.223245 351.970909 
L 319.075994 339.61719 
L 323.928742 351.970909 
L 328.78149 351.970909 
L 333.634239 351.970909 
L 338.486987 331.064615 
L 343.339736 351.970909 
L 348.192484 351.970909 
L 353.045233 351.970909 
L 357.897981 351.970909 
L 362.750729 297.614545 
L 367.603478 351.970909 
L 372.456226 351.970909 
L 377.308975 351.970909 
L 382.161723 351.970909 
L 387.014471 351.970909 
L 391.86722 351.970909 
L 396.719968 351.970909 
L 401.572717 351.970909 
L 406.425465 351.970909 
L 411.278214 297.614545 
L 416.130962 351.970909 
L 420.98371 351.970909 
L 425.836459 351.970909 
L 430.689207 351.970909 
L 435.541956 351.970909 
L 440.394704 351.970909 
L 445.247452 351.970909 
L 450.100201 284.025455 
L 454.952949 351.970909 
L 459.805698 351.970909 
L 464.658446 351.970909 
L 469.511195 351.970909 
L 474.363943 351.970909 
L 479.216691 351.970909 
L 484.06944 351.970909 
L 488.922188 351.970909 
L 493.774937 351.970909 
L 498.627685 351.970909 
L 503.480433 351.970909 
L 508.333182 351.970909 
" style="fill:none;stroke:#9467bd;stroke-linecap:square;stroke-width:1.5;"/>
   </g>
   <g id="line2d_17">
    <path clip-path="url(#pce30a17d5e)" d="M 90.996818 284.447476 
L 95.849567 316.110808 
L 100.702315 315.462904 
L 105.555063 325.45561 
L 110.407812 342.517628 
L 115.26056 336.503651 
L 120.113309 335.570282 
L 124.966057 333.699862 
L 129.818805 334.984545 
L 134.671554 338.267624 
L 139.524302 328.741694 
L 144.377051 340.740255 
L 149.229799 336.11697 
L 154.082548 334.149151 
L 158.935296 337.913229 
L 163.788044 321.512602 
L 168.640793 329.934545 
L 173.493541 317.127086 
L 178.34629 318.950688 
L 183.199038 321.772929 
L 188.051786 319.996578 
L 192.904535 319.475257 
L 197.757283 312.336061 
L 202.610032 326.754039 
L 207.46278 312.713535 
L 212.315529 298.285612 
L 217.168277 308.485818 
L 222.021025 304.862061 
L 226.873774 337.078755 
L 231.726522 323.575794 
L 236.579271 300.01262 
L 241.432019 308.830938 
L 246.284767 315.733333 
L 251.137516 313.826093 
L 255.990264 325.838042 
L 260.843013 316.075197 
L 265.695761 295.563362 
L 270.54851 325.325633 
L 275.401258 298.94031 
L 280.254006 297.614545 
L 285.106755 309.05799 
L 289.959503 293.207273 
L 294.812252 305.37974 
L 299.665 301.640943 
L 304.517748 321.772929 
L 309.370497 278.798881 
L 314.223245 299.705175 
L 319.075994 314.909752 
L 323.928742 317.998182 
L 328.78149 297.614545 
L 333.634239 315.733333 
L 338.486987 331.064615 
L 343.339736 329.322424 
L 348.192484 324.792727 
L 353.045233 321.772929 
L 357.897981 306.673939 
L 362.750729 351.970909 
L 367.603478 306.673939 
L 372.456226 313.144935 
L 377.308975 313.144935 
L 382.161723 306.673939 
L 387.014471 351.970909 
L 391.86722 351.970909 
L 396.719968 306.673939 
L 401.572717 284.025455 
L 406.425465 306.673939 
L 411.278214 243.258182 
L 416.130962 250.052727 
L 420.98371 274.318961 
L 425.836459 261.37697 
L 430.689207 261.37697 
L 435.541956 297.614545 
L 440.394704 351.970909 
L 445.247452 261.37697 
L 450.100201 284.025455 
L 454.952949 351.970909 
L 459.805698 261.37697 
L 464.658446 284.025455 
L 469.511195 170.78303 
L 474.363943 261.37697 
L 479.216691 261.37697 
L 484.06944 216.08 
L 488.922188 351.970909 
L 493.774937 351.970909 
L 498.627685 216.08 
L 503.480433 351.970909 
L 508.333182 351.970909 
" style="fill:none;stroke:#8c564b;stroke-linecap:square;stroke-width:1.5;"/>
   </g>
   <g id="line2d_18">
    <path clip-path="url(#pce30a17d5e)" d="M 90.996818 321.585364 
L 95.849567 340.646667 
L 100.702315 345.886242 
L 105.555063 340.922868 
L 110.407812 344.880949 
L 115.26056 347.551693 
L 120.113309 344.942069 
L 124.966057 351.970909 
L 129.818805 345.601023 
L 134.671554 335.983743 
L 139.524302 338.03338 
L 144.377051 340.740255 
L 149.229799 345.176364 
L 154.082548 334.149151 
L 158.935296 340.256176 
L 163.788044 342.599122 
L 168.640793 337.28 
L 173.493541 335.710458 
L 178.34629 324.030722 
L 183.199038 331.838923 
L 188.051786 319.996578 
L 192.904535 343.108458 
L 197.757283 334.984545 
L 202.610032 329.555914 
L 207.46278 333.852121 
L 212.315529 331.838923 
L 217.168277 337.475879 
L 222.021025 326.604606 
L 226.873774 325.909639 
L 231.726522 335.745129 
L 236.579271 331.986952 
L 241.432019 334.714921 
L 246.284767 315.733333 
L 251.137516 332.898501 
L 255.990264 336.291189 
L 260.843013 321.203156 
L 265.695761 305.81928 
L 270.54851 319.996578 
L 275.401258 312.19796 
L 280.254006 338.381818 
L 285.106755 323.362297 
L 289.959503 315.243636 
L 294.812252 328.675325 
L 299.665 321.772929 
L 304.517748 321.772929 
L 309.370497 331.064615 
L 314.223245 289.252028 
L 319.075994 339.61719 
L 323.928742 351.970909 
L 328.78149 338.381818 
L 333.634239 351.970909 
L 338.486987 351.970909 
L 343.339736 351.970909 
L 348.192484 351.970909 
L 353.045233 321.772929 
L 357.897981 306.673939 
L 362.750729 243.258182 
L 367.603478 351.970909 
L 372.456226 313.144935 
L 377.308975 351.970909 
L 382.161723 306.673939 
L 387.014471 297.614545 
L 391.86722 313.144935 
L 396.719968 306.673939 
L 401.572717 351.970909 
L 406.425465 351.970909 
L 411.278214 351.970909 
L 416.130962 317.998182 
L 420.98371 313.144935 
L 425.836459 351.970909 
L 430.689207 306.673939 
L 435.541956 351.970909 
L 440.394704 313.144935 
L 445.247452 351.970909 
L 450.100201 351.970909 
L 454.952949 297.614545 
L 459.805698 351.970909 
L 464.658446 351.970909 
L 469.511195 351.970909 
L 474.363943 351.970909 
L 479.216691 351.970909 
L 484.06944 284.025455 
L 488.922188 351.970909 
L 493.774937 351.970909 
L 498.627685 216.08 
L 503.480433 216.08 
L 508.333182 351.970909 
" style="fill:none;stroke:#e377c2;stroke-linecap:square;stroke-width:1.5;"/>
   </g>
   <g id="line2d_19">
    <path clip-path="url(#pce30a17d5e)" d="M 90.996818 319.897278 
L 95.849567 295.349697 
L 100.702315 289.096011 
L 105.555063 276.844228 
L 110.407812 266.891383 
L 115.26056 265.796186 
L 120.113309 269.967774 
L 124.966057 262.899557 
L 129.818805 271.285682 
L 134.671554 304.009412 
L 139.524302 291.574949 
L 144.377051 291.325379 
L 149.229799 288.555152 
L 154.082548 285.139314 
L 158.935296 284.025455 
L 163.788044 298.083135 
L 168.640793 295.655758 
L 173.493541 300.866636 
L 178.34629 293.550518 
L 183.199038 294.091448 
L 188.051786 309.338467 
L 192.904535 301.750356 
L 197.757283 298.180758 
L 202.610032 309.942793 
L 207.46278 309.693737 
L 212.315529 284.864287 
L 217.168277 279.495758 
L 222.021025 304.862061 
L 226.873774 307.294446 
L 231.726522 295.180678 
L 236.579271 319.996578 
L 241.432019 317.458932 
L 246.284767 311.203636 
L 251.137516 294.753684 
L 255.990264 315.384895 
L 260.843013 310.947238 
L 265.695761 316.075197 
L 270.54851 335.983743 
L 275.401258 292.311486 
L 280.254006 311.203636 
L 285.106755 323.362297 
L 289.959503 322.589091 
L 294.812252 336.440519 
L 299.665 301.640943 
L 304.517748 311.706936 
L 309.370497 278.798881 
L 314.223245 341.517762 
L 319.075994 302.556033 
L 323.928742 306.673939 
L 328.78149 297.614545 
L 333.634239 333.852121 
L 338.486987 310.158322 
L 343.339736 329.322424 
L 348.192484 270.436364 
L 353.045233 291.574949 
L 357.897981 306.673939 
L 362.750729 297.614545 
L 367.603478 261.37697 
L 372.456226 351.970909 
L 377.308975 313.144935 
L 382.161723 261.37697 
L 387.014471 351.970909 
L 391.86722 351.970909 
L 396.719968 351.970909 
L 401.572717 317.998182 
L 406.425465 306.673939 
L 411.278214 351.970909 
L 416.130962 284.025455 
L 420.98371 313.144935 
L 425.836459 261.37697 
L 430.689207 351.970909 
L 435.541956 297.614545 
L 440.394704 235.492987 
L 445.247452 261.37697 
L 450.100201 351.970909 
L 454.952949 297.614545 
L 459.805698 261.37697 
L 464.658446 284.025455 
L 469.511195 351.970909 
L 474.363943 261.37697 
L 479.216691 351.970909 
L 484.06944 351.970909 
L 488.922188 351.970909 
L 493.774937 351.970909 
L 498.627685 351.970909 
L 503.480433 351.970909 
L 508.333182 351.970909 
" style="fill:none;stroke:#7f7f7f;stroke-linecap:square;stroke-width:1.5;"/>
   </g>
   <g id="patch_3">
    <path d="M 70.13 365.56 
L 70.13 66.6 
" style="fill:none;stroke:#000000;stroke-linecap:square;stroke-linejoin:miter;stroke-width:0.8;"/>
   </g>
   <g id="patch_4">
    <path d="M 529.2 365.56 
L 529.2 66.6 
" style="fill:none;stroke:#000000;stroke-linecap:square;stroke-linejoin:miter;stroke-width:0.8;"/>
   </g>
   <g id="patch_5">
    <path d="M 70.13 365.56 
L 529.2 365.56 
" style="fill:none;stroke:#000000;stroke-linecap:square;stroke-linejoin:miter;stroke-width:0.8;"/>
   </g>
   <g id="patch_6">
    <path d="M 70.13 66.6 
L 529.2 66.6 
" style="fill:none;stroke:#000000;stroke-linecap:square;stroke-linejoin:miter;stroke-width:0.8;"/>
   </g>
   <g id="legend_1">
    <g id="patch_7">
     <path d="M 80.63 59.1 
L 518.7 59.1 
Q 521.7 59.1 521.7 56.1 
L 521.7 13.565625 
Q 521.7 10.565625 518.7 10.565625 
L 80.63 10.565625 
Q 77.63 10.565625 77.63 13.565625 
L 77.63 56.1 
Q 77.63 59.1 80.63 59.1 
z
" style="fill:#ffffff;opacity:0.8;stroke:#cccccc;stroke-linejoin:miter;"/>
    </g>
    <g id="line2d_20">
     <path d="M 83.63 22.713281 
L 113.63 22.713281 
" style="fill:none;stroke:#1f77b4;stroke-linecap:square;stroke-width:1.5;"/>
    </g>
    <g id="line2d_21"/>
    <g id="text_14">
     <!-- Stra 1 -->
     <defs>
      <path d="M 53.515625 70.515625 
L 53.515625 60.890625 
Q 47.90625 63.578125 42.921875 64.890625 
Q 37.9375 66.21875 33.296875 66.21875 
Q 25.25 66.21875 20.875 63.09375 
Q 16.5 59.96875 16.5 54.203125 
Q 16.5 49.359375 19.40625 46.890625 
Q 22.3125 44.4375 30.421875 42.921875 
L 36.375 41.703125 
Q 47.40625 39.59375 52.65625 34.296875 
Q 57.90625 29 57.90625 20.125 
Q 57.90625 9.515625 50.796875 4.046875 
Q 43.703125 -1.421875 29.984375 -1.421875 
Q 24.8125 -1.421875 18.96875 -0.25 
Q 13.140625 0.921875 6.890625 3.21875 
L 6.890625 13.375 
Q 12.890625 10.015625 18.65625 8.296875 
Q 24.421875 6.59375 29.984375 6.59375 
Q 38.421875 6.59375 43.015625 9.90625 
Q 47.609375 13.234375 47.609375 19.390625 
Q 47.609375 24.75 44.3125 27.78125 
Q 41.015625 30.8125 33.5 32.328125 
L 27.484375 33.5 
Q 16.453125 35.6875 11.515625 40.375 
Q 6.59375 45.0625 6.59375 53.421875 
Q 6.59375 63.09375 13.40625 68.65625 
Q 20.21875 74.21875 32.171875 74.21875 
Q 37.3125 74.21875 42.625 73.28125 
Q 47.953125 72.359375 53.515625 70.515625 
z
" id="DejaVuSans-83"/>
     </defs>
     <g transform="translate(125.63 27.963281)scale(0.15 -0.15)">
      <use xlink:href="#DejaVuSans-83"/>
      <use x="63.476562" xlink:href="#DejaVuSans-116"/>
      <use x="102.685547" xlink:href="#DejaVuSans-114"/>
      <use x="143.798828" xlink:href="#DejaVuSans-97"/>
      <use x="205.078125" xlink:href="#DejaVuSans-32"/>
      <use x="236.865234" xlink:href="#DejaVuSans-49"/>
     </g>
    </g>
    <g id="line2d_22">
     <path d="M 83.63 44.730469 
L 113.63 44.730469 
" style="fill:none;stroke:#ff7f0e;stroke-linecap:square;stroke-width:1.5;"/>
    </g>
    <g id="line2d_23"/>
    <g id="text_15">
     <!-- Stra 2 -->
     <g transform="translate(125.63 49.980469)scale(0.15 -0.15)">
      <use xlink:href="#DejaVuSans-83"/>
      <use x="63.476562" xlink:href="#DejaVuSans-116"/>
      <use x="102.685547" xlink:href="#DejaVuSans-114"/>
      <use x="143.798828" xlink:href="#DejaVuSans-97"/>
      <use x="205.078125" xlink:href="#DejaVuSans-32"/>
      <use x="236.865234" xlink:href="#DejaVuSans-50"/>
     </g>
    </g>
    <g id="line2d_24">
     <path d="M 198.629115 22.713281 
L 228.629115 22.713281 
" style="fill:none;stroke:#2ca02c;stroke-linecap:square;stroke-width:1.5;"/>
    </g>
    <g id="line2d_25"/>
    <g id="text_16">
     <!-- Stra 3 -->
     <defs>
      <path d="M 40.578125 39.3125 
Q 47.65625 37.796875 51.625 33 
Q 55.609375 28.21875 55.609375 21.1875 
Q 55.609375 10.40625 48.1875 4.484375 
Q 40.765625 -1.421875 27.09375 -1.421875 
Q 22.515625 -1.421875 17.65625 -0.515625 
Q 12.796875 0.390625 7.625 2.203125 
L 7.625 11.71875 
Q 11.71875 9.328125 16.59375 8.109375 
Q 21.484375 6.890625 26.8125 6.890625 
Q 36.078125 6.890625 40.9375 10.546875 
Q 45.796875 14.203125 45.796875 21.1875 
Q 45.796875 27.640625 41.28125 31.265625 
Q 36.765625 34.90625 28.71875 34.90625 
L 20.21875 34.90625 
L 20.21875 43.015625 
L 29.109375 43.015625 
Q 36.375 43.015625 40.234375 45.921875 
Q 44.09375 48.828125 44.09375 54.296875 
Q 44.09375 59.90625 40.109375 62.90625 
Q 36.140625 65.921875 28.71875 65.921875 
Q 24.65625 65.921875 20.015625 65.03125 
Q 15.375 64.15625 9.8125 62.3125 
L 9.8125 71.09375 
Q 15.4375 72.65625 20.34375 73.4375 
Q 25.25 74.21875 29.59375 74.21875 
Q 40.828125 74.21875 47.359375 69.109375 
Q 53.90625 64.015625 53.90625 55.328125 
Q 53.90625 49.265625 50.4375 45.09375 
Q 46.96875 40.921875 40.578125 39.3125 
z
" id="DejaVuSans-51"/>
     </defs>
     <g transform="translate(240.629115 27.963281)scale(0.15 -0.15)">
      <use xlink:href="#DejaVuSans-83"/>
      <use x="63.476562" xlink:href="#DejaVuSans-116"/>
      <use x="102.685547" xlink:href="#DejaVuSans-114"/>
      <use x="143.798828" xlink:href="#DejaVuSans-97"/>
      <use x="205.078125" xlink:href="#DejaVuSans-32"/>
      <use x="236.865234" xlink:href="#DejaVuSans-51"/>
     </g>
    </g>
    <g id="line2d_26">
     <path d="M 198.629115 44.730469 
L 228.629115 44.730469 
" style="fill:none;stroke:#d62728;stroke-linecap:square;stroke-width:1.5;"/>
    </g>
    <g id="line2d_27"/>
    <g id="text_17">
     <!-- Stra 4 -->
     <g transform="translate(240.629115 49.980469)scale(0.15 -0.15)">
      <use xlink:href="#DejaVuSans-83"/>
      <use x="63.476562" xlink:href="#DejaVuSans-116"/>
      <use x="102.685547" xlink:href="#DejaVuSans-114"/>
      <use x="143.798828" xlink:href="#DejaVuSans-97"/>
      <use x="205.078125" xlink:href="#DejaVuSans-32"/>
      <use x="236.865234" xlink:href="#DejaVuSans-52"/>
     </g>
    </g>
    <g id="line2d_28">
     <path d="M 313.628229 22.713281 
L 343.628229 22.713281 
" style="fill:none;stroke:#9467bd;stroke-linecap:square;stroke-width:1.5;"/>
    </g>
    <g id="line2d_29"/>
    <g id="text_18">
     <!-- Stra 5 -->
     <defs>
      <path d="M 10.796875 72.90625 
L 49.515625 72.90625 
L 49.515625 64.59375 
L 19.828125 64.59375 
L 19.828125 46.734375 
Q 21.96875 47.46875 24.109375 47.828125 
Q 26.265625 48.1875 28.421875 48.1875 
Q 40.625 48.1875 47.75 41.5 
Q 54.890625 34.8125 54.890625 23.390625 
Q 54.890625 11.625 47.5625 5.09375 
Q 40.234375 -1.421875 26.90625 -1.421875 
Q 22.3125 -1.421875 17.546875 -0.640625 
Q 12.796875 0.140625 7.71875 1.703125 
L 7.71875 11.625 
Q 12.109375 9.234375 16.796875 8.0625 
Q 21.484375 6.890625 26.703125 6.890625 
Q 35.15625 6.890625 40.078125 11.328125 
Q 45.015625 15.765625 45.015625 23.390625 
Q 45.015625 31 40.078125 35.4375 
Q 35.15625 39.890625 26.703125 39.890625 
Q 22.75 39.890625 18.8125 39.015625 
Q 14.890625 38.140625 10.796875 36.28125 
z
" id="DejaVuSans-53"/>
     </defs>
     <g transform="translate(355.628229 27.963281)scale(0.15 -0.15)">
      <use xlink:href="#DejaVuSans-83"/>
      <use x="63.476562" xlink:href="#DejaVuSans-116"/>
      <use x="102.685547" xlink:href="#DejaVuSans-114"/>
      <use x="143.798828" xlink:href="#DejaVuSans-97"/>
      <use x="205.078125" xlink:href="#DejaVuSans-32"/>
      <use x="236.865234" xlink:href="#DejaVuSans-53"/>
     </g>
    </g>
    <g id="line2d_30">
     <path d="M 313.628229 44.730469 
L 343.628229 44.730469 
" style="fill:none;stroke:#8c564b;stroke-linecap:square;stroke-width:1.5;"/>
    </g>
    <g id="line2d_31"/>
    <g id="text_19">
     <!-- Stra 6 -->
     <g transform="translate(355.628229 49.980469)scale(0.15 -0.15)">
      <use xlink:href="#DejaVuSans-83"/>
      <use x="63.476562" xlink:href="#DejaVuSans-116"/>
      <use x="102.685547" xlink:href="#DejaVuSans-114"/>
      <use x="143.798828" xlink:href="#DejaVuSans-97"/>
      <use x="205.078125" xlink:href="#DejaVuSans-32"/>
      <use x="236.865234" xlink:href="#DejaVuSans-54"/>
     </g>
    </g>
    <g id="line2d_32">
     <path d="M 428.627344 22.713281 
L 458.627344 22.713281 
" style="fill:none;stroke:#e377c2;stroke-linecap:square;stroke-width:1.5;"/>
    </g>
    <g id="line2d_33"/>
    <g id="text_20">
     <!-- Stra 7 -->
     <defs>
      <path d="M 8.203125 72.90625 
L 55.078125 72.90625 
L 55.078125 68.703125 
L 28.609375 0 
L 18.3125 0 
L 43.21875 64.59375 
L 8.203125 64.59375 
z
" id="DejaVuSans-55"/>
     </defs>
     <g transform="translate(470.627344 27.963281)scale(0.15 -0.15)">
      <use xlink:href="#DejaVuSans-83"/>
      <use x="63.476562" xlink:href="#DejaVuSans-116"/>
      <use x="102.685547" xlink:href="#DejaVuSans-114"/>
      <use x="143.798828" xlink:href="#DejaVuSans-97"/>
      <use x="205.078125" xlink:href="#DejaVuSans-32"/>
      <use x="236.865234" xlink:href="#DejaVuSans-55"/>
     </g>
    </g>
    <g id="line2d_34">
     <path d="M 428.627344 44.730469 
L 458.627344 44.730469 
" style="fill:none;stroke:#7f7f7f;stroke-linecap:square;stroke-width:1.5;"/>
    </g>
    <g id="line2d_35"/>
    <g id="text_21">
     <!-- Stra 8 -->
     <g transform="translate(470.627344 49.980469)scale(0.15 -0.15)">
      <use xlink:href="#DejaVuSans-83"/>
      <use x="63.476562" xlink:href="#DejaVuSans-116"/>
      <use x="102.685547" xlink:href="#DejaVuSans-114"/>
      <use x="143.798828" xlink:href="#DejaVuSans-97"/>
      <use x="205.078125" xlink:href="#DejaVuSans-32"/>
      <use x="236.865234" xlink:href="#DejaVuSans-56"/>
     </g>
    </g>
   </g>
  </g>
 </g>
 <defs>
  <clipPath id="pce30a17d5e">
   <rect height="298.96" width="459.07" x="70.13" y="66.6"/>
  </clipPath>
 </defs>
</svg>
