<?xml version="1.0" encoding="utf-8" standalone="no"?>
<!DOCTYPE svg PUBLIC "-//W3C//DTD SVG 1.1//EN"
  "http://www.w3.org/Graphics/SVG/1.1/DTD/svg11.dtd">
<!-- Created with matplotlib (https://matplotlib.org/) -->
<svg height="432pt" version="1.1" viewBox="0 0 540 432" width="540pt" xmlns="http://www.w3.org/2000/svg" xmlns:xlink="http://www.w3.org/1999/xlink">
 <defs>
  <style type="text/css">
*{stroke-linecap:butt;stroke-linejoin:round;}
  </style>
 </defs>
 <g id="figure_1">
  <g id="patch_1">
   <path d="M 0 432 
L 540 432 
L 540 0 
L 0 0 
z
" style="fill:#ffffff;"/>
  </g>
  <g id="axes_1">
   <g id="patch_2">
    <path d="M 63.74 365.56 
L 529.2 365.56 
L 529.2 66.6 
L 63.74 66.6 
z
" style="fill:#ffffff;"/>
   </g>
   <g id="matplotlib.axis_1">
    <g id="xtick_1">
     <g id="line2d_1">
      <defs>
       <path d="M 0 0 
L 0 3.5 
" id="m515c04b6f0" style="stroke:#000000;stroke-width:0.8;"/>
      </defs>
      <g>
       <use style="stroke:#000000;stroke-width:0.8;" x="84.897273" xlink:href="#m515c04b6f0" y="365.56"/>
      </g>
     </g>
     <g id="text_1">
      <!-- 0 -->
      <defs>
       <path d="M 31.78125 66.40625 
Q 24.171875 66.40625 20.328125 58.90625 
Q 16.5 51.421875 16.5 36.375 
Q 16.5 21.390625 20.328125 13.890625 
Q 24.171875 6.390625 31.78125 6.390625 
Q 39.453125 6.390625 43.28125 13.890625 
Q 47.125 21.390625 47.125 36.375 
Q 47.125 51.421875 43.28125 58.90625 
Q 39.453125 66.40625 31.78125 66.40625 
z
M 31.78125 74.21875 
Q 44.046875 74.21875 50.515625 64.515625 
Q 56.984375 54.828125 56.984375 36.375 
Q 56.984375 17.96875 50.515625 8.265625 
Q 44.046875 -1.421875 31.78125 -1.421875 
Q 19.53125 -1.421875 13.0625 8.265625 
Q 6.59375 17.96875 6.59375 36.375 
Q 6.59375 54.828125 13.0625 64.515625 
Q 19.53125 74.21875 31.78125 74.21875 
z
" id="DejaVuSans-48"/>
      </defs>
      <g transform="translate(78.534773 387.756875)scale(0.2 -0.2)">
       <use xlink:href="#DejaVuSans-48"/>
      </g>
     </g>
    </g>
    <g id="xtick_2">
     <g id="line2d_2">
      <g>
       <use style="stroke:#000000;stroke-width:0.8;" x="183.303192" xlink:href="#m515c04b6f0" y="365.56"/>
      </g>
     </g>
     <g id="text_2">
      <!-- 20 -->
      <defs>
       <path d="M 19.1875 8.296875 
L 53.609375 8.296875 
L 53.609375 0 
L 7.328125 0 
L 7.328125 8.296875 
Q 12.9375 14.109375 22.625 23.890625 
Q 32.328125 33.6875 34.8125 36.53125 
Q 39.546875 41.84375 41.421875 45.53125 
Q 43.3125 49.21875 43.3125 52.78125 
Q 43.3125 58.59375 39.234375 62.25 
Q 35.15625 65.921875 28.609375 65.921875 
Q 23.96875 65.921875 18.8125 64.3125 
Q 13.671875 62.703125 7.8125 59.421875 
L 7.8125 69.390625 
Q 13.765625 71.78125 18.9375 73 
Q 24.125 74.21875 28.421875 74.21875 
Q 39.75 74.21875 46.484375 68.546875 
Q 53.21875 62.890625 53.21875 53.421875 
Q 53.21875 48.921875 51.53125 44.890625 
Q 49.859375 40.875 45.40625 35.40625 
Q 44.1875 33.984375 37.640625 27.21875 
Q 31.109375 20.453125 19.1875 8.296875 
z
" id="DejaVuSans-50"/>
      </defs>
      <g transform="translate(170.578192 387.756875)scale(0.2 -0.2)">
       <use xlink:href="#DejaVuSans-50"/>
       <use x="63.623047" xlink:href="#DejaVuSans-48"/>
      </g>
     </g>
    </g>
    <g id="xtick_3">
     <g id="line2d_3">
      <g>
       <use style="stroke:#000000;stroke-width:0.8;" x="281.709112" xlink:href="#m515c04b6f0" y="365.56"/>
      </g>
     </g>
     <g id="text_3">
      <!-- 40 -->
      <defs>
       <path d="M 37.796875 64.3125 
L 12.890625 25.390625 
L 37.796875 25.390625 
z
M 35.203125 72.90625 
L 47.609375 72.90625 
L 47.609375 25.390625 
L 58.015625 25.390625 
L 58.015625 17.1875 
L 47.609375 17.1875 
L 47.609375 0 
L 37.796875 0 
L 37.796875 17.1875 
L 4.890625 17.1875 
L 4.890625 26.703125 
z
" id="DejaVuSans-52"/>
      </defs>
      <g transform="translate(268.984112 387.756875)scale(0.2 -0.2)">
       <use xlink:href="#DejaVuSans-52"/>
       <use x="63.623047" xlink:href="#DejaVuSans-48"/>
      </g>
     </g>
    </g>
    <g id="xtick_4">
     <g id="line2d_4">
      <g>
       <use style="stroke:#000000;stroke-width:0.8;" x="380.115032" xlink:href="#m515c04b6f0" y="365.56"/>
      </g>
     </g>
     <g id="text_4">
      <!-- 60 -->
      <defs>
       <path d="M 33.015625 40.375 
Q 26.375 40.375 22.484375 35.828125 
Q 18.609375 31.296875 18.609375 23.390625 
Q 18.609375 15.53125 22.484375 10.953125 
Q 26.375 6.390625 33.015625 6.390625 
Q 39.65625 6.390625 43.53125 10.953125 
Q 47.40625 15.53125 47.40625 23.390625 
Q 47.40625 31.296875 43.53125 35.828125 
Q 39.65625 40.375 33.015625 40.375 
z
M 52.59375 71.296875 
L 52.59375 62.3125 
Q 48.875 64.0625 45.09375 64.984375 
Q 41.3125 65.921875 37.59375 65.921875 
Q 27.828125 65.921875 22.671875 59.328125 
Q 17.53125 52.734375 16.796875 39.40625 
Q 19.671875 43.65625 24.015625 45.921875 
Q 28.375 48.1875 33.59375 48.1875 
Q 44.578125 48.1875 50.953125 41.515625 
Q 57.328125 34.859375 57.328125 23.390625 
Q 57.328125 12.15625 50.6875 5.359375 
Q 44.046875 -1.421875 33.015625 -1.421875 
Q 20.359375 -1.421875 13.671875 8.265625 
Q 6.984375 17.96875 6.984375 36.375 
Q 6.984375 53.65625 15.1875 63.9375 
Q 23.390625 74.21875 37.203125 74.21875 
Q 40.921875 74.21875 44.703125 73.484375 
Q 48.484375 72.75 52.59375 71.296875 
z
" id="DejaVuSans-54"/>
      </defs>
      <g transform="translate(367.390032 387.756875)scale(0.2 -0.2)">
       <use xlink:href="#DejaVuSans-54"/>
       <use x="63.623047" xlink:href="#DejaVuSans-48"/>
      </g>
     </g>
    </g>
    <g id="xtick_5">
     <g id="line2d_5">
      <g>
       <use style="stroke:#000000;stroke-width:0.8;" x="478.520951" xlink:href="#m515c04b6f0" y="365.56"/>
      </g>
     </g>
     <g id="text_5">
      <!-- 80 -->
      <defs>
       <path d="M 31.78125 34.625 
Q 24.75 34.625 20.71875 30.859375 
Q 16.703125 27.09375 16.703125 20.515625 
Q 16.703125 13.921875 20.71875 10.15625 
Q 24.75 6.390625 31.78125 6.390625 
Q 38.8125 6.390625 42.859375 10.171875 
Q 46.921875 13.96875 46.921875 20.515625 
Q 46.921875 27.09375 42.890625 30.859375 
Q 38.875 34.625 31.78125 34.625 
z
M 21.921875 38.8125 
Q 15.578125 40.375 12.03125 44.71875 
Q 8.5 49.078125 8.5 55.328125 
Q 8.5 64.0625 14.71875 69.140625 
Q 20.953125 74.21875 31.78125 74.21875 
Q 42.671875 74.21875 48.875 69.140625 
Q 55.078125 64.0625 55.078125 55.328125 
Q 55.078125 49.078125 51.53125 44.71875 
Q 48 40.375 41.703125 38.8125 
Q 48.828125 37.15625 52.796875 32.3125 
Q 56.78125 27.484375 56.78125 20.515625 
Q 56.78125 9.90625 50.3125 4.234375 
Q 43.84375 -1.421875 31.78125 -1.421875 
Q 19.734375 -1.421875 13.25 4.234375 
Q 6.78125 9.90625 6.78125 20.515625 
Q 6.78125 27.484375 10.78125 32.3125 
Q 14.796875 37.15625 21.921875 38.8125 
z
M 18.3125 54.390625 
Q 18.3125 48.734375 21.84375 45.5625 
Q 25.390625 42.390625 31.78125 42.390625 
Q 38.140625 42.390625 41.71875 45.5625 
Q 45.3125 48.734375 45.3125 54.390625 
Q 45.3125 60.0625 41.71875 63.234375 
Q 38.140625 66.40625 31.78125 66.40625 
Q 25.390625 66.40625 21.84375 63.234375 
Q 18.3125 60.0625 18.3125 54.390625 
z
" id="DejaVuSans-56"/>
      </defs>
      <g transform="translate(465.795951 387.756875)scale(0.2 -0.2)">
       <use xlink:href="#DejaVuSans-56"/>
       <use x="63.623047" xlink:href="#DejaVuSans-48"/>
      </g>
     </g>
    </g>
    <g id="text_6">
     <!-- number of games (DD-ML-IPI) -->
     <defs>
      <path d="M 54.890625 33.015625 
L 54.890625 0 
L 45.90625 0 
L 45.90625 32.71875 
Q 45.90625 40.484375 42.875 44.328125 
Q 39.84375 48.1875 33.796875 48.1875 
Q 26.515625 48.1875 22.3125 43.546875 
Q 18.109375 38.921875 18.109375 30.90625 
L 18.109375 0 
L 9.078125 0 
L 9.078125 54.6875 
L 18.109375 54.6875 
L 18.109375 46.1875 
Q 21.34375 51.125 25.703125 53.5625 
Q 30.078125 56 35.796875 56 
Q 45.21875 56 50.046875 50.171875 
Q 54.890625 44.34375 54.890625 33.015625 
z
" id="DejaVuSans-110"/>
      <path d="M 8.5 21.578125 
L 8.5 54.6875 
L 17.484375 54.6875 
L 17.484375 21.921875 
Q 17.484375 14.15625 20.5 10.265625 
Q 23.53125 6.390625 29.59375 6.390625 
Q 36.859375 6.390625 41.078125 11.03125 
Q 45.3125 15.671875 45.3125 23.6875 
L 45.3125 54.6875 
L 54.296875 54.6875 
L 54.296875 0 
L 45.3125 0 
L 45.3125 8.40625 
Q 42.046875 3.421875 37.71875 1 
Q 33.40625 -1.421875 27.6875 -1.421875 
Q 18.265625 -1.421875 13.375 4.4375 
Q 8.5 10.296875 8.5 21.578125 
z
M 31.109375 56 
z
" id="DejaVuSans-117"/>
      <path d="M 52 44.1875 
Q 55.375 50.25 60.0625 53.125 
Q 64.75 56 71.09375 56 
Q 79.640625 56 84.28125 50.015625 
Q 88.921875 44.046875 88.921875 33.015625 
L 88.921875 0 
L 79.890625 0 
L 79.890625 32.71875 
Q 79.890625 40.578125 77.09375 44.375 
Q 74.3125 48.1875 68.609375 48.1875 
Q 61.625 48.1875 57.5625 43.546875 
Q 53.515625 38.921875 53.515625 30.90625 
L 53.515625 0 
L 44.484375 0 
L 44.484375 32.71875 
Q 44.484375 40.625 41.703125 44.40625 
Q 38.921875 48.1875 33.109375 48.1875 
Q 26.21875 48.1875 22.15625 43.53125 
Q 18.109375 38.875 18.109375 30.90625 
L 18.109375 0 
L 9.078125 0 
L 9.078125 54.6875 
L 18.109375 54.6875 
L 18.109375 46.1875 
Q 21.1875 51.21875 25.484375 53.609375 
Q 29.78125 56 35.6875 56 
Q 41.65625 56 45.828125 52.96875 
Q 50 49.953125 52 44.1875 
z
" id="DejaVuSans-109"/>
      <path d="M 48.6875 27.296875 
Q 48.6875 37.203125 44.609375 42.84375 
Q 40.53125 48.484375 33.40625 48.484375 
Q 26.265625 48.484375 22.1875 42.84375 
Q 18.109375 37.203125 18.109375 27.296875 
Q 18.109375 17.390625 22.1875 11.75 
Q 26.265625 6.109375 33.40625 6.109375 
Q 40.53125 6.109375 44.609375 11.75 
Q 48.6875 17.390625 48.6875 27.296875 
z
M 18.109375 46.390625 
Q 20.953125 51.265625 25.265625 53.625 
Q 29.59375 56 35.59375 56 
Q 45.5625 56 51.78125 48.09375 
Q 58.015625 40.1875 58.015625 27.296875 
Q 58.015625 14.40625 51.78125 6.484375 
Q 45.5625 -1.421875 35.59375 -1.421875 
Q 29.59375 -1.421875 25.265625 0.953125 
Q 20.953125 3.328125 18.109375 8.203125 
L 18.109375 0 
L 9.078125 0 
L 9.078125 75.984375 
L 18.109375 75.984375 
z
" id="DejaVuSans-98"/>
      <path d="M 56.203125 29.59375 
L 56.203125 25.203125 
L 14.890625 25.203125 
Q 15.484375 15.921875 20.484375 11.0625 
Q 25.484375 6.203125 34.421875 6.203125 
Q 39.59375 6.203125 44.453125 7.46875 
Q 49.3125 8.734375 54.109375 11.28125 
L 54.109375 2.78125 
Q 49.265625 0.734375 44.1875 -0.34375 
Q 39.109375 -1.421875 33.890625 -1.421875 
Q 20.796875 -1.421875 13.15625 6.1875 
Q 5.515625 13.8125 5.515625 26.8125 
Q 5.515625 40.234375 12.765625 48.109375 
Q 20.015625 56 32.328125 56 
Q 43.359375 56 49.78125 48.890625 
Q 56.203125 41.796875 56.203125 29.59375 
z
M 47.21875 32.234375 
Q 47.125 39.59375 43.09375 43.984375 
Q 39.0625 48.390625 32.421875 48.390625 
Q 24.90625 48.390625 20.390625 44.140625 
Q 15.875 39.890625 15.1875 32.171875 
z
" id="DejaVuSans-101"/>
      <path d="M 41.109375 46.296875 
Q 39.59375 47.171875 37.8125 47.578125 
Q 36.03125 48 33.890625 48 
Q 26.265625 48 22.1875 43.046875 
Q 18.109375 38.09375 18.109375 28.8125 
L 18.109375 0 
L 9.078125 0 
L 9.078125 54.6875 
L 18.109375 54.6875 
L 18.109375 46.1875 
Q 20.953125 51.171875 25.484375 53.578125 
Q 30.03125 56 36.53125 56 
Q 37.453125 56 38.578125 55.875 
Q 39.703125 55.765625 41.0625 55.515625 
z
" id="DejaVuSans-114"/>
      <path id="DejaVuSans-32"/>
      <path d="M 30.609375 48.390625 
Q 23.390625 48.390625 19.1875 42.75 
Q 14.984375 37.109375 14.984375 27.296875 
Q 14.984375 17.484375 19.15625 11.84375 
Q 23.34375 6.203125 30.609375 6.203125 
Q 37.796875 6.203125 41.984375 11.859375 
Q 46.1875 17.53125 46.1875 27.296875 
Q 46.1875 37.015625 41.984375 42.703125 
Q 37.796875 48.390625 30.609375 48.390625 
z
M 30.609375 56 
Q 42.328125 56 49.015625 48.375 
Q 55.71875 40.765625 55.71875 27.296875 
Q 55.71875 13.875 49.015625 6.21875 
Q 42.328125 -1.421875 30.609375 -1.421875 
Q 18.84375 -1.421875 12.171875 6.21875 
Q 5.515625 13.875 5.515625 27.296875 
Q 5.515625 40.765625 12.171875 48.375 
Q 18.84375 56 30.609375 56 
z
" id="DejaVuSans-111"/>
      <path d="M 37.109375 75.984375 
L 37.109375 68.5 
L 28.515625 68.5 
Q 23.6875 68.5 21.796875 66.546875 
Q 19.921875 64.59375 19.921875 59.515625 
L 19.921875 54.6875 
L 34.71875 54.6875 
L 34.71875 47.703125 
L 19.921875 47.703125 
L 19.921875 0 
L 10.890625 0 
L 10.890625 47.703125 
L 2.296875 47.703125 
L 2.296875 54.6875 
L 10.890625 54.6875 
L 10.890625 58.5 
Q 10.890625 67.625 15.140625 71.796875 
Q 19.390625 75.984375 28.609375 75.984375 
z
" id="DejaVuSans-102"/>
      <path d="M 45.40625 27.984375 
Q 45.40625 37.75 41.375 43.109375 
Q 37.359375 48.484375 30.078125 48.484375 
Q 22.859375 48.484375 18.828125 43.109375 
Q 14.796875 37.75 14.796875 27.984375 
Q 14.796875 18.265625 18.828125 12.890625 
Q 22.859375 7.515625 30.078125 7.515625 
Q 37.359375 7.515625 41.375 12.890625 
Q 45.40625 18.265625 45.40625 27.984375 
z
M 54.390625 6.78125 
Q 54.390625 -7.171875 48.1875 -13.984375 
Q 42 -20.796875 29.203125 -20.796875 
Q 24.46875 -20.796875 20.265625 -20.09375 
Q 16.0625 -19.390625 12.109375 -17.921875 
L 12.109375 -9.1875 
Q 16.0625 -11.328125 19.921875 -12.34375 
Q 23.78125 -13.375 27.78125 -13.375 
Q 36.625 -13.375 41.015625 -8.765625 
Q 45.40625 -4.15625 45.40625 5.171875 
L 45.40625 9.625 
Q 42.625 4.78125 38.28125 2.390625 
Q 33.9375 0 27.875 0 
Q 17.828125 0 11.671875 7.65625 
Q 5.515625 15.328125 5.515625 27.984375 
Q 5.515625 40.671875 11.671875 48.328125 
Q 17.828125 56 27.875 56 
Q 33.9375 56 38.28125 53.609375 
Q 42.625 51.21875 45.40625 46.390625 
L 45.40625 54.6875 
L 54.390625 54.6875 
z
" id="DejaVuSans-103"/>
      <path d="M 34.28125 27.484375 
Q 23.390625 27.484375 19.1875 25 
Q 14.984375 22.515625 14.984375 16.5 
Q 14.984375 11.71875 18.140625 8.90625 
Q 21.296875 6.109375 26.703125 6.109375 
Q 34.1875 6.109375 38.703125 11.40625 
Q 43.21875 16.703125 43.21875 25.484375 
L 43.21875 27.484375 
z
M 52.203125 31.203125 
L 52.203125 0 
L 43.21875 0 
L 43.21875 8.296875 
Q 40.140625 3.328125 35.546875 0.953125 
Q 30.953125 -1.421875 24.3125 -1.421875 
Q 15.921875 -1.421875 10.953125 3.296875 
Q 6 8.015625 6 15.921875 
Q 6 25.140625 12.171875 29.828125 
Q 18.359375 34.515625 30.609375 34.515625 
L 43.21875 34.515625 
L 43.21875 35.40625 
Q 43.21875 41.609375 39.140625 45 
Q 35.0625 48.390625 27.6875 48.390625 
Q 23 48.390625 18.546875 47.265625 
Q 14.109375 46.140625 10.015625 43.890625 
L 10.015625 52.203125 
Q 14.9375 54.109375 19.578125 55.046875 
Q 24.21875 56 28.609375 56 
Q 40.484375 56 46.34375 49.84375 
Q 52.203125 43.703125 52.203125 31.203125 
z
" id="DejaVuSans-97"/>
      <path d="M 44.28125 53.078125 
L 44.28125 44.578125 
Q 40.484375 46.53125 36.375 47.5 
Q 32.28125 48.484375 27.875 48.484375 
Q 21.1875 48.484375 17.84375 46.4375 
Q 14.5 44.390625 14.5 40.28125 
Q 14.5 37.15625 16.890625 35.375 
Q 19.28125 33.59375 26.515625 31.984375 
L 29.59375 31.296875 
Q 39.15625 29.25 43.1875 25.515625 
Q 47.21875 21.78125 47.21875 15.09375 
Q 47.21875 7.46875 41.1875 3.015625 
Q 35.15625 -1.421875 24.609375 -1.421875 
Q 20.21875 -1.421875 15.453125 -0.5625 
Q 10.6875 0.296875 5.421875 2 
L 5.421875 11.28125 
Q 10.40625 8.6875 15.234375 7.390625 
Q 20.0625 6.109375 24.8125 6.109375 
Q 31.15625 6.109375 34.5625 8.28125 
Q 37.984375 10.453125 37.984375 14.40625 
Q 37.984375 18.0625 35.515625 20.015625 
Q 33.0625 21.96875 24.703125 23.78125 
L 21.578125 24.515625 
Q 13.234375 26.265625 9.515625 29.90625 
Q 5.8125 33.546875 5.8125 39.890625 
Q 5.8125 47.609375 11.28125 51.796875 
Q 16.75 56 26.8125 56 
Q 31.78125 56 36.171875 55.265625 
Q 40.578125 54.546875 44.28125 53.078125 
z
" id="DejaVuSans-115"/>
      <path d="M 31 75.875 
Q 24.46875 64.65625 21.28125 53.65625 
Q 18.109375 42.671875 18.109375 31.390625 
Q 18.109375 20.125 21.3125 9.0625 
Q 24.515625 -2 31 -13.1875 
L 23.1875 -13.1875 
Q 15.875 -1.703125 12.234375 9.375 
Q 8.59375 20.453125 8.59375 31.390625 
Q 8.59375 42.28125 12.203125 53.3125 
Q 15.828125 64.359375 23.1875 75.875 
z
" id="DejaVuSans-40"/>
      <path d="M 19.671875 64.796875 
L 19.671875 8.109375 
L 31.59375 8.109375 
Q 46.6875 8.109375 53.6875 14.9375 
Q 60.6875 21.78125 60.6875 36.53125 
Q 60.6875 51.171875 53.6875 57.984375 
Q 46.6875 64.796875 31.59375 64.796875 
z
M 9.8125 72.90625 
L 30.078125 72.90625 
Q 51.265625 72.90625 61.171875 64.09375 
Q 71.09375 55.28125 71.09375 36.53125 
Q 71.09375 17.671875 61.125 8.828125 
Q 51.171875 0 30.078125 0 
L 9.8125 0 
z
" id="DejaVuSans-68"/>
      <path d="M 4.890625 31.390625 
L 31.203125 31.390625 
L 31.203125 23.390625 
L 4.890625 23.390625 
z
" id="DejaVuSans-45"/>
      <path d="M 9.8125 72.90625 
L 24.515625 72.90625 
L 43.109375 23.296875 
L 61.8125 72.90625 
L 76.515625 72.90625 
L 76.515625 0 
L 66.890625 0 
L 66.890625 64.015625 
L 48.09375 14.015625 
L 38.1875 14.015625 
L 19.390625 64.015625 
L 19.390625 0 
L 9.8125 0 
z
" id="DejaVuSans-77"/>
      <path d="M 9.8125 72.90625 
L 19.671875 72.90625 
L 19.671875 8.296875 
L 55.171875 8.296875 
L 55.171875 0 
L 9.8125 0 
z
" id="DejaVuSans-76"/>
      <path d="M 9.8125 72.90625 
L 19.671875 72.90625 
L 19.671875 0 
L 9.8125 0 
z
" id="DejaVuSans-73"/>
      <path d="M 19.671875 64.796875 
L 19.671875 37.40625 
L 32.078125 37.40625 
Q 38.96875 37.40625 42.71875 40.96875 
Q 46.484375 44.53125 46.484375 51.125 
Q 46.484375 57.671875 42.71875 61.234375 
Q 38.96875 64.796875 32.078125 64.796875 
z
M 9.8125 72.90625 
L 32.078125 72.90625 
Q 44.34375 72.90625 50.609375 67.359375 
Q 56.890625 61.8125 56.890625 51.125 
Q 56.890625 40.328125 50.609375 34.8125 
Q 44.34375 29.296875 32.078125 29.296875 
L 19.671875 29.296875 
L 19.671875 0 
L 9.8125 0 
z
" id="DejaVuSans-80"/>
      <path d="M 8.015625 75.875 
L 15.828125 75.875 
Q 23.140625 64.359375 26.78125 53.3125 
Q 30.421875 42.28125 30.421875 31.390625 
Q 30.421875 20.453125 26.78125 9.375 
Q 23.140625 -1.703125 15.828125 -13.1875 
L 8.015625 -13.1875 
Q 14.5 -2 17.703125 9.0625 
Q 20.90625 20.125 20.90625 31.390625 
Q 20.90625 42.671875 17.703125 53.65625 
Q 14.5 64.65625 8.015625 75.875 
z
" id="DejaVuSans-41"/>
     </defs>
     <g transform="translate(111.059844 414.912344)scale(0.25 -0.25)">
      <use xlink:href="#DejaVuSans-110"/>
      <use x="63.378906" xlink:href="#DejaVuSans-117"/>
      <use x="126.757812" xlink:href="#DejaVuSans-109"/>
      <use x="224.169922" xlink:href="#DejaVuSans-98"/>
      <use x="287.646484" xlink:href="#DejaVuSans-101"/>
      <use x="349.169922" xlink:href="#DejaVuSans-114"/>
      <use x="390.283203" xlink:href="#DejaVuSans-32"/>
      <use x="422.070312" xlink:href="#DejaVuSans-111"/>
      <use x="483.251953" xlink:href="#DejaVuSans-102"/>
      <use x="518.457031" xlink:href="#DejaVuSans-32"/>
      <use x="550.244141" xlink:href="#DejaVuSans-103"/>
      <use x="613.720703" xlink:href="#DejaVuSans-97"/>
      <use x="675" xlink:href="#DejaVuSans-109"/>
      <use x="772.412109" xlink:href="#DejaVuSans-101"/>
      <use x="833.935547" xlink:href="#DejaVuSans-115"/>
      <use x="886.035156" xlink:href="#DejaVuSans-32"/>
      <use x="917.822266" xlink:href="#DejaVuSans-40"/>
      <use x="956.835938" xlink:href="#DejaVuSans-68"/>
      <use x="1033.837891" xlink:href="#DejaVuSans-68"/>
      <use x="1110.839844" xlink:href="#DejaVuSans-45"/>
      <use x="1146.923828" xlink:href="#DejaVuSans-77"/>
      <use x="1233.203125" xlink:href="#DejaVuSans-76"/>
      <use x="1288.900391" xlink:href="#DejaVuSans-45"/>
      <use x="1324.984375" xlink:href="#DejaVuSans-73"/>
      <use x="1354.476562" xlink:href="#DejaVuSans-80"/>
      <use x="1414.779297" xlink:href="#DejaVuSans-73"/>
      <use x="1444.271484" xlink:href="#DejaVuSans-41"/>
     </g>
    </g>
   </g>
   <g id="matplotlib.axis_2">
    <g id="ytick_1">
     <g id="line2d_6">
      <defs>
       <path d="M 0 0 
L -3.5 0 
" id="m2a9e329844" style="stroke:#000000;stroke-width:0.8;"/>
      </defs>
      <g>
       <use style="stroke:#000000;stroke-width:0.8;" x="63.74" xlink:href="#m2a9e329844" y="351.970909"/>
      </g>
     </g>
     <g id="text_7">
      <!-- 0 -->
      <g transform="translate(44.015 359.569347)scale(0.2 -0.2)">
       <use xlink:href="#DejaVuSans-48"/>
      </g>
     </g>
    </g>
    <g id="ytick_2">
     <g id="line2d_7">
      <g>
       <use style="stroke:#000000;stroke-width:0.8;" x="63.74" xlink:href="#m2a9e329844" y="305.111975"/>
      </g>
     </g>
     <g id="text_8">
      <!-- 10 -->
      <defs>
       <path d="M 12.40625 8.296875 
L 28.515625 8.296875 
L 28.515625 63.921875 
L 10.984375 60.40625 
L 10.984375 69.390625 
L 28.421875 72.90625 
L 38.28125 72.90625 
L 38.28125 8.296875 
L 54.390625 8.296875 
L 54.390625 0 
L 12.40625 0 
z
" id="DejaVuSans-49"/>
      </defs>
      <g transform="translate(31.29 312.710412)scale(0.2 -0.2)">
       <use xlink:href="#DejaVuSans-49"/>
       <use x="63.623047" xlink:href="#DejaVuSans-48"/>
      </g>
     </g>
    </g>
    <g id="ytick_3">
     <g id="line2d_8">
      <g>
       <use style="stroke:#000000;stroke-width:0.8;" x="63.74" xlink:href="#m2a9e329844" y="258.253041"/>
      </g>
     </g>
     <g id="text_9">
      <!-- 20 -->
      <g transform="translate(31.29 265.851478)scale(0.2 -0.2)">
       <use xlink:href="#DejaVuSans-50"/>
       <use x="63.623047" xlink:href="#DejaVuSans-48"/>
      </g>
     </g>
    </g>
    <g id="ytick_4">
     <g id="line2d_9">
      <g>
       <use style="stroke:#000000;stroke-width:0.8;" x="63.74" xlink:href="#m2a9e329844" y="211.394107"/>
      </g>
     </g>
     <g id="text_10">
      <!-- 30 -->
      <defs>
       <path d="M 40.578125 39.3125 
Q 47.65625 37.796875 51.625 33 
Q 55.609375 28.21875 55.609375 21.1875 
Q 55.609375 10.40625 48.1875 4.484375 
Q 40.765625 -1.421875 27.09375 -1.421875 
Q 22.515625 -1.421875 17.65625 -0.515625 
Q 12.796875 0.390625 7.625 2.203125 
L 7.625 11.71875 
Q 11.71875 9.328125 16.59375 8.109375 
Q 21.484375 6.890625 26.8125 6.890625 
Q 36.078125 6.890625 40.9375 10.546875 
Q 45.796875 14.203125 45.796875 21.1875 
Q 45.796875 27.640625 41.28125 31.265625 
Q 36.765625 34.90625 28.71875 34.90625 
L 20.21875 34.90625 
L 20.21875 43.015625 
L 29.109375 43.015625 
Q 36.375 43.015625 40.234375 45.921875 
Q 44.09375 48.828125 44.09375 54.296875 
Q 44.09375 59.90625 40.109375 62.90625 
Q 36.140625 65.921875 28.71875 65.921875 
Q 24.65625 65.921875 20.015625 65.03125 
Q 15.375 64.15625 9.8125 62.3125 
L 9.8125 71.09375 
Q 15.4375 72.65625 20.34375 73.4375 
Q 25.25 74.21875 29.59375 74.21875 
Q 40.828125 74.21875 47.359375 69.109375 
Q 53.90625 64.015625 53.90625 55.328125 
Q 53.90625 49.265625 50.4375 45.09375 
Q 46.96875 40.921875 40.578125 39.3125 
z
" id="DejaVuSans-51"/>
      </defs>
      <g transform="translate(31.29 218.992544)scale(0.2 -0.2)">
       <use xlink:href="#DejaVuSans-51"/>
       <use x="63.623047" xlink:href="#DejaVuSans-48"/>
      </g>
     </g>
    </g>
    <g id="ytick_5">
     <g id="line2d_10">
      <g>
       <use style="stroke:#000000;stroke-width:0.8;" x="63.74" xlink:href="#m2a9e329844" y="164.535172"/>
      </g>
     </g>
     <g id="text_11">
      <!-- 40 -->
      <g transform="translate(31.29 172.13361)scale(0.2 -0.2)">
       <use xlink:href="#DejaVuSans-52"/>
       <use x="63.623047" xlink:href="#DejaVuSans-48"/>
      </g>
     </g>
    </g>
    <g id="ytick_6">
     <g id="line2d_11">
      <g>
       <use style="stroke:#000000;stroke-width:0.8;" x="63.74" xlink:href="#m2a9e329844" y="117.676238"/>
      </g>
     </g>
     <g id="text_12">
      <!-- 50 -->
      <defs>
       <path d="M 10.796875 72.90625 
L 49.515625 72.90625 
L 49.515625 64.59375 
L 19.828125 64.59375 
L 19.828125 46.734375 
Q 21.96875 47.46875 24.109375 47.828125 
Q 26.265625 48.1875 28.421875 48.1875 
Q 40.625 48.1875 47.75 41.5 
Q 54.890625 34.8125 54.890625 23.390625 
Q 54.890625 11.625 47.5625 5.09375 
Q 40.234375 -1.421875 26.90625 -1.421875 
Q 22.3125 -1.421875 17.546875 -0.640625 
Q 12.796875 0.140625 7.71875 1.703125 
L 7.71875 11.625 
Q 12.109375 9.234375 16.796875 8.0625 
Q 21.484375 6.890625 26.703125 6.890625 
Q 35.15625 6.890625 40.078125 11.328125 
Q 45.015625 15.765625 45.015625 23.390625 
Q 45.015625 31 40.078125 35.4375 
Q 35.15625 39.890625 26.703125 39.890625 
Q 22.75 39.890625 18.8125 39.015625 
Q 14.890625 38.140625 10.796875 36.28125 
z
" id="DejaVuSans-53"/>
      </defs>
      <g transform="translate(31.29 125.274676)scale(0.2 -0.2)">
       <use xlink:href="#DejaVuSans-53"/>
       <use x="63.623047" xlink:href="#DejaVuSans-48"/>
      </g>
     </g>
    </g>
    <g id="ytick_7">
     <g id="line2d_12">
      <g>
       <use style="stroke:#000000;stroke-width:0.8;" x="63.74" xlink:href="#m2a9e329844" y="70.817304"/>
      </g>
     </g>
     <g id="text_13">
      <!-- 60 -->
      <g transform="translate(31.29 78.415742)scale(0.2 -0.2)">
       <use xlink:href="#DejaVuSans-54"/>
       <use x="63.623047" xlink:href="#DejaVuSans-48"/>
      </g>
     </g>
    </g>
    <g id="text_14">
     <!-- Number of Def strategy used -->
     <defs>
      <path d="M 9.8125 72.90625 
L 23.09375 72.90625 
L 55.421875 11.921875 
L 55.421875 72.90625 
L 64.984375 72.90625 
L 64.984375 0 
L 51.703125 0 
L 19.390625 60.984375 
L 19.390625 0 
L 9.8125 0 
z
" id="DejaVuSans-78"/>
      <path d="M 18.3125 70.21875 
L 18.3125 54.6875 
L 36.8125 54.6875 
L 36.8125 47.703125 
L 18.3125 47.703125 
L 18.3125 18.015625 
Q 18.3125 11.328125 20.140625 9.421875 
Q 21.96875 7.515625 27.59375 7.515625 
L 36.8125 7.515625 
L 36.8125 0 
L 27.59375 0 
Q 17.1875 0 13.234375 3.875 
Q 9.28125 7.765625 9.28125 18.015625 
L 9.28125 47.703125 
L 2.6875 47.703125 
L 2.6875 54.6875 
L 9.28125 54.6875 
L 9.28125 70.21875 
z
" id="DejaVuSans-116"/>
      <path d="M 32.171875 -5.078125 
Q 28.375 -14.84375 24.75 -17.8125 
Q 21.140625 -20.796875 15.09375 -20.796875 
L 7.90625 -20.796875 
L 7.90625 -13.28125 
L 13.1875 -13.28125 
Q 16.890625 -13.28125 18.9375 -11.515625 
Q 21 -9.765625 23.484375 -3.21875 
L 25.09375 0.875 
L 2.984375 54.6875 
L 12.5 54.6875 
L 29.59375 11.921875 
L 46.6875 54.6875 
L 56.203125 54.6875 
z
" id="DejaVuSans-121"/>
      <path d="M 45.40625 46.390625 
L 45.40625 75.984375 
L 54.390625 75.984375 
L 54.390625 0 
L 45.40625 0 
L 45.40625 8.203125 
Q 42.578125 3.328125 38.25 0.953125 
Q 33.9375 -1.421875 27.875 -1.421875 
Q 17.96875 -1.421875 11.734375 6.484375 
Q 5.515625 14.40625 5.515625 27.296875 
Q 5.515625 40.1875 11.734375 48.09375 
Q 17.96875 56 27.875 56 
Q 33.9375 56 38.25 53.625 
Q 42.578125 51.265625 45.40625 46.390625 
z
M 14.796875 27.296875 
Q 14.796875 17.390625 18.875 11.75 
Q 22.953125 6.109375 30.078125 6.109375 
Q 37.203125 6.109375 41.296875 11.75 
Q 45.40625 17.390625 45.40625 27.296875 
Q 45.40625 37.203125 41.296875 42.84375 
Q 37.203125 48.484375 30.078125 48.484375 
Q 22.953125 48.484375 18.875 42.84375 
Q 14.796875 37.203125 14.796875 27.296875 
z
" id="DejaVuSans-100"/>
     </defs>
     <g transform="translate(23.823854 337.458906)rotate(-90)scale(0.166667 -0.166667)">
      <use xlink:href="#DejaVuSans-78"/>
      <use x="74.804688" xlink:href="#DejaVuSans-117"/>
      <use x="138.183594" xlink:href="#DejaVuSans-109"/>
      <use x="235.595703" xlink:href="#DejaVuSans-98"/>
      <use x="299.072266" xlink:href="#DejaVuSans-101"/>
      <use x="360.595703" xlink:href="#DejaVuSans-114"/>
      <use x="401.708984" xlink:href="#DejaVuSans-32"/>
      <use x="433.496094" xlink:href="#DejaVuSans-111"/>
      <use x="494.677734" xlink:href="#DejaVuSans-102"/>
      <use x="529.882812" xlink:href="#DejaVuSans-32"/>
      <use x="561.669922" xlink:href="#DejaVuSans-68"/>
      <use x="638.671875" xlink:href="#DejaVuSans-101"/>
      <use x="700.195312" xlink:href="#DejaVuSans-102"/>
      <use x="735.400391" xlink:href="#DejaVuSans-32"/>
      <use x="767.1875" xlink:href="#DejaVuSans-115"/>
      <use x="819.287109" xlink:href="#DejaVuSans-116"/>
      <use x="858.496094" xlink:href="#DejaVuSans-114"/>
      <use x="899.609375" xlink:href="#DejaVuSans-97"/>
      <use x="960.888672" xlink:href="#DejaVuSans-116"/>
      <use x="1000.097656" xlink:href="#DejaVuSans-101"/>
      <use x="1061.621094" xlink:href="#DejaVuSans-103"/>
      <use x="1125.097656" xlink:href="#DejaVuSans-121"/>
      <use x="1184.277344" xlink:href="#DejaVuSans-32"/>
      <use x="1216.064453" xlink:href="#DejaVuSans-117"/>
      <use x="1279.443359" xlink:href="#DejaVuSans-115"/>
      <use x="1331.542969" xlink:href="#DejaVuSans-101"/>
      <use x="1393.066406" xlink:href="#DejaVuSans-100"/>
     </g>
    </g>
   </g>
   <g id="line2d_13">
    <path clip-path="url(#p392bfeb7d2)" d="M 84.897273 183.278746 
L 89.817569 127.048025 
L 94.737865 117.676238 
L 99.658161 112.990345 
L 104.578457 122.362132 
L 109.498753 80.189091 
L 114.419049 108.304451 
L 119.339345 117.676238 
L 124.259641 127.048025 
L 129.179937 84.874984 
L 134.100233 112.990345 
L 139.020529 108.304451 
L 143.940825 103.618558 
L 148.861121 127.048025 
L 153.781416 141.105705 
L 158.701712 150.477492 
L 163.622008 155.163386 
L 168.542304 141.105705 
L 173.4626 187.964639 
L 178.382896 178.592853 
L 183.303192 187.964639 
L 188.223488 216.08 
L 193.143784 178.592853 
L 198.06408 187.964639 
L 202.984376 220.765893 
L 207.904672 272.310721 
L 212.824968 244.195361 
L 217.745264 272.310721 
L 222.66556 220.765893 
L 227.585856 253.567147 
L 232.506152 253.567147 
L 237.426448 244.195361 
L 242.346744 258.253041 
L 247.26704 272.310721 
L 252.187336 253.567147 
L 257.107632 281.682508 
L 262.027928 295.740188 
L 266.948224 267.624828 
L 271.86852 309.797868 
L 276.788816 286.368401 
L 281.709112 291.054295 
L 286.629408 319.169655 
L 291.549704 309.797868 
L 296.47 323.855549 
L 301.390296 309.797868 
L 306.310592 328.541442 
L 311.230888 319.169655 
L 316.151184 328.541442 
L 321.07148 314.483762 
L 325.991776 333.227335 
L 330.912072 328.541442 
L 335.832368 333.227335 
L 340.752664 337.913229 
L 345.67296 337.913229 
L 350.593256 337.913229 
L 355.513552 342.599122 
L 360.433848 347.285016 
L 365.354144 347.285016 
L 370.27444 337.913229 
L 375.194736 337.913229 
L 380.115032 347.285016 
L 385.035328 351.970909 
L 389.955624 342.599122 
L 394.87592 351.970909 
L 399.796216 337.913229 
L 404.716512 337.913229 
L 409.636808 347.285016 
L 414.557104 342.599122 
L 419.4774 347.285016 
L 424.397696 342.599122 
L 429.317992 351.970909 
L 434.238288 342.599122 
L 439.158584 342.599122 
L 444.078879 351.970909 
L 448.999175 342.599122 
L 453.919471 342.599122 
L 458.839767 347.285016 
L 463.760063 351.970909 
L 468.680359 351.970909 
L 473.600655 347.285016 
L 478.520951 347.285016 
L 483.441247 351.970909 
L 488.361543 347.285016 
L 493.281839 347.285016 
L 498.202135 351.970909 
L 503.122431 347.285016 
L 508.042727 347.285016 
" style="fill:none;stroke:#1f77b4;stroke-linecap:square;stroke-width:1.5;"/>
   </g>
   <g id="line2d_14">
    <path clip-path="url(#p392bfeb7d2)" d="M 84.897273 276.996614 
L 89.817569 305.111975 
L 94.737865 305.111975 
L 99.658161 305.111975 
L 104.578457 291.054295 
L 109.498753 300.426082 
L 114.419049 276.996614 
L 119.339345 295.740188 
L 124.259641 262.938934 
L 129.179937 286.368401 
L 134.100233 276.996614 
L 139.020529 225.451787 
L 143.940825 267.624828 
L 148.861121 276.996614 
L 153.781416 281.682508 
L 158.701712 258.253041 
L 163.622008 267.624828 
L 168.542304 262.938934 
L 173.4626 281.682508 
L 178.382896 286.368401 
L 183.303192 281.682508 
L 188.223488 286.368401 
L 193.143784 300.426082 
L 198.06408 291.054295 
L 202.984376 295.740188 
L 207.904672 305.111975 
L 212.824968 309.797868 
L 217.745264 295.740188 
L 222.66556 314.483762 
L 227.585856 295.740188 
L 232.506152 347.285016 
L 237.426448 314.483762 
L 242.346744 305.111975 
L 247.26704 319.169655 
L 252.187336 319.169655 
L 257.107632 291.054295 
L 262.027928 323.855549 
L 266.948224 323.855549 
L 271.86852 333.227335 
L 276.788816 333.227335 
L 281.709112 333.227335 
L 286.629408 328.541442 
L 291.549704 314.483762 
L 296.47 328.541442 
L 301.390296 328.541442 
L 306.310592 328.541442 
L 311.230888 337.913229 
L 316.151184 342.599122 
L 321.07148 342.599122 
L 325.991776 337.913229 
L 330.912072 333.227335 
L 335.832368 347.285016 
L 340.752664 342.599122 
L 345.67296 347.285016 
L 350.593256 347.285016 
L 355.513552 351.970909 
L 360.433848 351.970909 
L 365.354144 347.285016 
L 370.27444 347.285016 
L 375.194736 347.285016 
L 380.115032 347.285016 
L 385.035328 337.913229 
L 389.955624 337.913229 
L 394.87592 337.913229 
L 399.796216 347.285016 
L 404.716512 351.970909 
L 409.636808 351.970909 
L 414.557104 351.970909 
L 419.4774 347.285016 
L 424.397696 351.970909 
L 429.317992 347.285016 
L 434.238288 347.285016 
L 439.158584 347.285016 
L 444.078879 351.970909 
L 448.999175 351.970909 
L 453.919471 351.970909 
L 458.839767 351.970909 
L 463.760063 351.970909 
L 468.680359 351.970909 
L 473.600655 351.970909 
L 478.520951 351.970909 
L 483.441247 351.970909 
L 488.361543 351.970909 
L 493.281839 351.970909 
L 498.202135 351.970909 
L 503.122431 351.970909 
L 508.042727 351.970909 
" style="fill:none;stroke:#ff7f0e;stroke-linecap:square;stroke-width:1.5;"/>
   </g>
   <g id="line2d_15">
    <path clip-path="url(#p392bfeb7d2)" d="M 84.897273 286.368401 
L 89.817569 262.938934 
L 94.737865 281.682508 
L 99.658161 328.541442 
L 104.578457 333.227335 
L 109.498753 337.913229 
L 114.419049 342.599122 
L 119.339345 328.541442 
L 124.259641 319.169655 
L 129.179937 300.426082 
L 134.100233 323.855549 
L 139.020529 342.599122 
L 143.940825 323.855549 
L 148.861121 333.227335 
L 153.781416 328.541442 
L 158.701712 323.855549 
L 163.622008 305.111975 
L 168.542304 333.227335 
L 173.4626 337.913229 
L 178.382896 319.169655 
L 183.303192 342.599122 
L 188.223488 314.483762 
L 193.143784 323.855549 
L 198.06408 305.111975 
L 202.984376 323.855549 
L 207.904672 342.599122 
L 212.824968 328.541442 
L 217.745264 323.855549 
L 222.66556 319.169655 
L 227.585856 328.541442 
L 232.506152 295.740188 
L 237.426448 333.227335 
L 242.346744 342.599122 
L 247.26704 328.541442 
L 252.187336 328.541442 
L 257.107632 342.599122 
L 262.027928 323.855549 
L 266.948224 328.541442 
L 271.86852 337.913229 
L 276.788816 337.913229 
L 281.709112 351.970909 
L 286.629408 337.913229 
L 291.549704 337.913229 
L 296.47 347.285016 
L 301.390296 347.285016 
L 306.310592 351.970909 
L 311.230888 342.599122 
L 316.151184 328.541442 
L 321.07148 342.599122 
L 325.991776 351.970909 
L 330.912072 347.285016 
L 335.832368 337.913229 
L 340.752664 337.913229 
L 345.67296 351.970909 
L 350.593256 351.970909 
L 355.513552 347.285016 
L 360.433848 351.970909 
L 365.354144 347.285016 
L 370.27444 347.285016 
L 375.194736 347.285016 
L 380.115032 351.970909 
L 385.035328 347.285016 
L 389.955624 347.285016 
L 394.87592 347.285016 
L 399.796216 347.285016 
L 404.716512 347.285016 
L 409.636808 347.285016 
L 414.557104 351.970909 
L 419.4774 347.285016 
L 424.397696 351.970909 
L 429.317992 342.599122 
L 434.238288 351.970909 
L 439.158584 351.970909 
L 444.078879 347.285016 
L 448.999175 351.970909 
L 453.919471 347.285016 
L 458.839767 351.970909 
L 463.760063 342.599122 
L 468.680359 351.970909 
L 473.600655 351.970909 
L 478.520951 347.285016 
L 483.441247 351.970909 
L 488.361543 351.970909 
L 493.281839 351.970909 
L 498.202135 351.970909 
L 503.122431 351.970909 
L 508.042727 351.970909 
" style="fill:none;stroke:#2ca02c;stroke-linecap:square;stroke-width:1.5;"/>
   </g>
   <g id="line2d_16">
    <path clip-path="url(#p392bfeb7d2)" d="M 84.897273 291.054295 
L 89.817569 305.111975 
L 94.737865 319.169655 
L 99.658161 337.913229 
L 104.578457 333.227335 
L 109.498753 347.285016 
L 114.419049 347.285016 
L 119.339345 333.227335 
L 124.259641 328.541442 
L 129.179937 337.913229 
L 134.100233 342.599122 
L 139.020529 342.599122 
L 143.940825 328.541442 
L 148.861121 319.169655 
L 153.781416 305.111975 
L 158.701712 319.169655 
L 163.622008 337.913229 
L 168.542304 328.541442 
L 173.4626 323.855549 
L 178.382896 319.169655 
L 183.303192 305.111975 
L 188.223488 305.111975 
L 193.143784 347.285016 
L 198.06408 323.855549 
L 202.984376 300.426082 
L 207.904672 309.797868 
L 212.824968 347.285016 
L 217.745264 319.169655 
L 222.66556 323.855549 
L 227.585856 342.599122 
L 232.506152 323.855549 
L 237.426448 328.541442 
L 242.346744 342.599122 
L 247.26704 342.599122 
L 252.187336 342.599122 
L 257.107632 342.599122 
L 262.027928 347.285016 
L 266.948224 323.855549 
L 271.86852 342.599122 
L 276.788816 342.599122 
L 281.709112 333.227335 
L 286.629408 333.227335 
L 291.549704 333.227335 
L 296.47 347.285016 
L 301.390296 347.285016 
L 306.310592 351.970909 
L 311.230888 342.599122 
L 316.151184 347.285016 
L 321.07148 328.541442 
L 325.991776 333.227335 
L 330.912072 342.599122 
L 335.832368 347.285016 
L 340.752664 342.599122 
L 345.67296 342.599122 
L 350.593256 347.285016 
L 355.513552 351.970909 
L 360.433848 351.970909 
L 365.354144 351.970909 
L 370.27444 351.970909 
L 375.194736 351.970909 
L 380.115032 351.970909 
L 385.035328 351.970909 
L 389.955624 351.970909 
L 394.87592 351.970909 
L 399.796216 351.970909 
L 404.716512 351.970909 
L 409.636808 351.970909 
L 414.557104 351.970909 
L 419.4774 351.970909 
L 424.397696 351.970909 
L 429.317992 351.970909 
L 434.238288 351.970909 
L 439.158584 351.970909 
L 444.078879 347.285016 
L 448.999175 351.970909 
L 453.919471 351.970909 
L 458.839767 347.285016 
L 463.760063 351.970909 
L 468.680359 347.285016 
L 473.600655 351.970909 
L 478.520951 351.970909 
L 483.441247 347.285016 
L 488.361543 351.970909 
L 493.281839 351.970909 
L 498.202135 351.970909 
L 503.122431 351.970909 
L 508.042727 347.285016 
" style="fill:none;stroke:#d62728;stroke-linecap:square;stroke-width:1.5;"/>
   </g>
   <g id="line2d_17">
    <path clip-path="url(#p392bfeb7d2)" d="M 84.897273 328.541442 
L 89.817569 342.599122 
L 94.737865 351.970909 
L 99.658161 337.913229 
L 104.578457 342.599122 
L 109.498753 342.599122 
L 114.419049 351.970909 
L 119.339345 347.285016 
L 124.259641 351.970909 
L 129.179937 351.970909 
L 134.100233 351.970909 
L 139.020529 347.285016 
L 143.940825 351.970909 
L 148.861121 347.285016 
L 153.781416 347.285016 
L 158.701712 351.970909 
L 163.622008 351.970909 
L 168.542304 351.970909 
L 173.4626 347.285016 
L 178.382896 351.970909 
L 183.303192 351.970909 
L 188.223488 351.970909 
L 193.143784 342.599122 
L 198.06408 347.285016 
L 202.984376 351.970909 
L 207.904672 347.285016 
L 212.824968 347.285016 
L 217.745264 351.970909 
L 222.66556 347.285016 
L 227.585856 342.599122 
L 232.506152 342.599122 
L 237.426448 347.285016 
L 242.346744 347.285016 
L 247.26704 342.599122 
L 252.187336 342.599122 
L 257.107632 351.970909 
L 262.027928 347.285016 
L 266.948224 342.599122 
L 271.86852 351.970909 
L 276.788816 347.285016 
L 281.709112 337.913229 
L 286.629408 347.285016 
L 291.549704 351.970909 
L 296.47 347.285016 
L 301.390296 347.285016 
L 306.310592 351.970909 
L 311.230888 351.970909 
L 316.151184 347.285016 
L 321.07148 351.970909 
L 325.991776 351.970909 
L 330.912072 351.970909 
L 335.832368 347.285016 
L 340.752664 351.970909 
L 345.67296 351.970909 
L 350.593256 351.970909 
L 355.513552 351.970909 
L 360.433848 347.285016 
L 365.354144 351.970909 
L 370.27444 351.970909 
L 375.194736 351.970909 
L 380.115032 351.970909 
L 385.035328 351.970909 
L 389.955624 351.970909 
L 394.87592 351.970909 
L 399.796216 351.970909 
L 404.716512 351.970909 
L 409.636808 347.285016 
L 414.557104 351.970909 
L 419.4774 351.970909 
L 424.397696 351.970909 
L 429.317992 351.970909 
L 434.238288 351.970909 
L 439.158584 351.970909 
L 444.078879 351.970909 
L 448.999175 347.285016 
L 453.919471 351.970909 
L 458.839767 351.970909 
L 463.760063 351.970909 
L 468.680359 351.970909 
L 473.600655 351.970909 
L 478.520951 351.970909 
L 483.441247 351.970909 
L 488.361543 351.970909 
L 493.281839 351.970909 
L 498.202135 351.970909 
L 503.122431 351.970909 
L 508.042727 351.970909 
" style="fill:none;stroke:#9467bd;stroke-linecap:square;stroke-width:1.5;"/>
   </g>
   <g id="line2d_18">
    <path clip-path="url(#p392bfeb7d2)" d="M 84.897273 164.535172 
L 89.817569 262.938934 
L 94.737865 267.624828 
L 99.658161 295.740188 
L 104.578457 333.227335 
L 109.498753 319.169655 
L 114.419049 319.169655 
L 119.339345 314.483762 
L 124.259641 314.483762 
L 129.179937 323.855549 
L 134.100233 305.111975 
L 139.020529 328.541442 
L 143.940825 319.169655 
L 148.861121 314.483762 
L 153.781416 323.855549 
L 158.701712 291.054295 
L 163.622008 309.797868 
L 168.542304 281.682508 
L 173.4626 291.054295 
L 178.382896 295.740188 
L 183.303192 295.740188 
L 188.223488 300.426082 
L 193.143784 286.368401 
L 198.06408 309.797868 
L 202.984376 291.054295 
L 207.904672 276.996614 
L 212.824968 295.740188 
L 217.745264 291.054295 
L 222.66556 333.227335 
L 227.585856 319.169655 
L 232.506152 291.054295 
L 237.426448 305.111975 
L 242.346744 314.483762 
L 247.26704 314.483762 
L 252.187336 328.541442 
L 257.107632 319.169655 
L 262.027928 300.426082 
L 266.948224 328.541442 
L 271.86852 314.483762 
L 276.788816 314.483762 
L 281.709112 323.855549 
L 286.629408 314.483762 
L 291.549704 323.855549 
L 296.47 328.541442 
L 301.390296 337.913229 
L 306.310592 319.169655 
L 311.230888 328.541442 
L 316.151184 337.913229 
L 321.07148 337.913229 
L 325.991776 333.227335 
L 330.912072 342.599122 
L 335.832368 347.285016 
L 340.752664 347.285016 
L 345.67296 347.285016 
L 350.593256 347.285016 
L 355.513552 347.285016 
L 360.433848 351.970909 
L 365.354144 347.285016 
L 370.27444 347.285016 
L 375.194736 347.285016 
L 380.115032 347.285016 
L 385.035328 351.970909 
L 389.955624 351.970909 
L 394.87592 347.285016 
L 399.796216 342.599122 
L 404.716512 347.285016 
L 409.636808 342.599122 
L 414.557104 337.913229 
L 419.4774 342.599122 
L 424.397696 342.599122 
L 429.317992 342.599122 
L 434.238288 347.285016 
L 439.158584 351.970909 
L 444.078879 342.599122 
L 448.999175 347.285016 
L 453.919471 351.970909 
L 458.839767 342.599122 
L 463.760063 347.285016 
L 468.680359 342.599122 
L 473.600655 347.285016 
L 478.520951 347.285016 
L 483.441247 342.599122 
L 488.361543 351.970909 
L 493.281839 351.970909 
L 498.202135 347.285016 
L 503.122431 351.970909 
L 508.042727 351.970909 
" style="fill:none;stroke:#8c564b;stroke-linecap:square;stroke-width:1.5;"/>
   </g>
   <g id="line2d_19">
    <path clip-path="url(#p392bfeb7d2)" d="M 84.897273 267.624828 
L 89.817569 323.855549 
L 94.737865 337.913229 
L 99.658161 328.541442 
L 104.578457 337.913229 
L 109.498753 342.599122 
L 114.419049 337.913229 
L 119.339345 351.970909 
L 124.259641 337.913229 
L 129.179937 319.169655 
L 134.100233 323.855549 
L 139.020529 328.541442 
L 143.940825 337.913229 
L 148.861121 314.483762 
L 153.781416 328.541442 
L 158.701712 333.227335 
L 163.622008 323.855549 
L 168.542304 319.169655 
L 173.4626 300.426082 
L 178.382896 314.483762 
L 183.303192 295.740188 
L 188.223488 337.913229 
L 193.143784 323.855549 
L 198.06408 314.483762 
L 202.984376 323.855549 
L 207.904672 323.855549 
L 212.824968 333.227335 
L 217.745264 319.169655 
L 222.66556 319.169655 
L 227.585856 333.227335 
L 232.506152 328.541442 
L 237.426448 333.227335 
L 242.346744 314.483762 
L 247.26704 333.227335 
L 252.187336 337.913229 
L 257.107632 323.855549 
L 262.027928 309.797868 
L 266.948224 323.855549 
L 271.86852 323.855549 
L 276.788816 342.599122 
L 281.709112 333.227335 
L 286.629408 328.541442 
L 291.549704 337.913229 
L 296.47 337.913229 
L 301.390296 337.913229 
L 306.310592 342.599122 
L 311.230888 323.855549 
L 316.151184 347.285016 
L 321.07148 351.970909 
L 325.991776 347.285016 
L 330.912072 351.970909 
L 335.832368 351.970909 
L 340.752664 351.970909 
L 345.67296 351.970909 
L 350.593256 347.285016 
L 355.513552 347.285016 
L 360.433848 342.599122 
L 365.354144 351.970909 
L 370.27444 347.285016 
L 375.194736 351.970909 
L 380.115032 347.285016 
L 385.035328 347.285016 
L 389.955624 347.285016 
L 394.87592 347.285016 
L 399.796216 351.970909 
L 404.716512 351.970909 
L 409.636808 351.970909 
L 414.557104 347.285016 
L 419.4774 347.285016 
L 424.397696 351.970909 
L 429.317992 347.285016 
L 434.238288 351.970909 
L 439.158584 347.285016 
L 444.078879 351.970909 
L 448.999175 351.970909 
L 453.919471 347.285016 
L 458.839767 351.970909 
L 463.760063 351.970909 
L 468.680359 351.970909 
L 473.600655 351.970909 
L 478.520951 351.970909 
L 483.441247 347.285016 
L 488.361543 351.970909 
L 493.281839 351.970909 
L 498.202135 347.285016 
L 503.122431 347.285016 
L 508.042727 351.970909 
" style="fill:none;stroke:#e377c2;stroke-linecap:square;stroke-width:1.5;"/>
   </g>
   <g id="line2d_20">
    <path clip-path="url(#p392bfeb7d2)" d="M 84.897273 262.938934 
L 89.817569 211.394107 
L 94.737865 206.708213 
L 99.658161 192.650533 
L 104.578457 183.278746 
L 109.498753 169.221066 
L 114.419049 187.964639 
L 119.339345 169.221066 
L 124.259641 173.906959 
L 129.179937 253.567147 
L 134.100233 230.13768 
L 139.020529 225.451787 
L 143.940825 220.765893 
L 148.861121 211.394107 
L 153.781416 216.08 
L 158.701712 244.195361 
L 163.622008 244.195361 
L 168.542304 248.881254 
L 173.4626 244.195361 
L 178.382896 244.195361 
L 183.303192 276.996614 
L 188.223488 272.310721 
L 193.143784 262.938934 
L 198.06408 281.682508 
L 202.984376 286.368401 
L 207.904672 258.253041 
L 212.824968 258.253041 
L 217.745264 291.054295 
L 222.66556 295.740188 
L 227.585856 286.368401 
L 232.506152 314.483762 
L 237.426448 314.483762 
L 242.346744 309.797868 
L 247.26704 295.740188 
L 252.187336 319.169655 
L 257.107632 314.483762 
L 262.027928 319.169655 
L 266.948224 337.913229 
L 271.86852 309.797868 
L 276.788816 323.855549 
L 281.709112 333.227335 
L 286.629408 333.227335 
L 291.549704 342.599122 
L 296.47 328.541442 
L 301.390296 333.227335 
L 306.310592 319.169655 
L 311.230888 347.285016 
L 316.151184 333.227335 
L 321.07148 333.227335 
L 325.991776 333.227335 
L 330.912072 347.285016 
L 335.832368 342.599122 
L 340.752664 347.285016 
L 345.67296 337.913229 
L 350.593256 342.599122 
L 355.513552 347.285016 
L 360.433848 347.285016 
L 365.354144 342.599122 
L 370.27444 351.970909 
L 375.194736 347.285016 
L 380.115032 342.599122 
L 385.035328 351.970909 
L 389.955624 351.970909 
L 394.87592 351.970909 
L 399.796216 347.285016 
L 404.716512 347.285016 
L 409.636808 351.970909 
L 414.557104 342.599122 
L 419.4774 347.285016 
L 424.397696 342.599122 
L 429.317992 351.970909 
L 434.238288 347.285016 
L 439.158584 337.913229 
L 444.078879 342.599122 
L 448.999175 351.970909 
L 453.919471 347.285016 
L 458.839767 342.599122 
L 463.760063 347.285016 
L 468.680359 351.970909 
L 473.600655 347.285016 
L 478.520951 351.970909 
L 483.441247 351.970909 
L 488.361543 351.970909 
L 493.281839 351.970909 
L 498.202135 351.970909 
L 503.122431 351.970909 
L 508.042727 351.970909 
" style="fill:none;stroke:#7f7f7f;stroke-linecap:square;stroke-width:1.5;"/>
   </g>
   <g id="patch_3">
    <path d="M 63.74 365.56 
L 63.74 66.6 
" style="fill:none;stroke:#000000;stroke-linecap:square;stroke-linejoin:miter;stroke-width:0.8;"/>
   </g>
   <g id="patch_4">
    <path d="M 529.2 365.56 
L 529.2 66.6 
" style="fill:none;stroke:#000000;stroke-linecap:square;stroke-linejoin:miter;stroke-width:0.8;"/>
   </g>
   <g id="patch_5">
    <path d="M 63.74 365.56 
L 529.2 365.56 
" style="fill:none;stroke:#000000;stroke-linecap:square;stroke-linejoin:miter;stroke-width:0.8;"/>
   </g>
   <g id="patch_6">
    <path d="M 63.74 66.6 
L 529.2 66.6 
" style="fill:none;stroke:#000000;stroke-linecap:square;stroke-linejoin:miter;stroke-width:0.8;"/>
   </g>
   <g id="legend_1">
    <g id="patch_7">
     <path d="M 74.24 59.1 
L 518.7 59.1 
Q 521.7 59.1 521.7 56.1 
L 521.7 13.565625 
Q 521.7 10.565625 518.7 10.565625 
L 74.24 10.565625 
Q 71.24 10.565625 71.24 13.565625 
L 71.24 56.1 
Q 71.24 59.1 74.24 59.1 
z
" style="fill:#ffffff;opacity:0.8;stroke:#cccccc;stroke-linejoin:miter;"/>
    </g>
    <g id="line2d_21">
     <path d="M 77.24 22.713281 
L 107.24 22.713281 
" style="fill:none;stroke:#1f77b4;stroke-linecap:square;stroke-width:1.5;"/>
    </g>
    <g id="line2d_22"/>
    <g id="text_15">
     <!-- Stra 1 -->
     <defs>
      <path d="M 53.515625 70.515625 
L 53.515625 60.890625 
Q 47.90625 63.578125 42.921875 64.890625 
Q 37.9375 66.21875 33.296875 66.21875 
Q 25.25 66.21875 20.875 63.09375 
Q 16.5 59.96875 16.5 54.203125 
Q 16.5 49.359375 19.40625 46.890625 
Q 22.3125 44.4375 30.421875 42.921875 
L 36.375 41.703125 
Q 47.40625 39.59375 52.65625 34.296875 
Q 57.90625 29 57.90625 20.125 
Q 57.90625 9.515625 50.796875 4.046875 
Q 43.703125 -1.421875 29.984375 -1.421875 
Q 24.8125 -1.421875 18.96875 -0.25 
Q 13.140625 0.921875 6.890625 3.21875 
L 6.890625 13.375 
Q 12.890625 10.015625 18.65625 8.296875 
Q 24.421875 6.59375 29.984375 6.59375 
Q 38.421875 6.59375 43.015625 9.90625 
Q 47.609375 13.234375 47.609375 19.390625 
Q 47.609375 24.75 44.3125 27.78125 
Q 41.015625 30.8125 33.5 32.328125 
L 27.484375 33.5 
Q 16.453125 35.6875 11.515625 40.375 
Q 6.59375 45.0625 6.59375 53.421875 
Q 6.59375 63.09375 13.40625 68.65625 
Q 20.21875 74.21875 32.171875 74.21875 
Q 37.3125 74.21875 42.625 73.28125 
Q 47.953125 72.359375 53.515625 70.515625 
z
" id="DejaVuSans-83"/>
     </defs>
     <g transform="translate(119.24 27.963281)scale(0.15 -0.15)">
      <use xlink:href="#DejaVuSans-83"/>
      <use x="63.476562" xlink:href="#DejaVuSans-116"/>
      <use x="102.685547" xlink:href="#DejaVuSans-114"/>
      <use x="143.798828" xlink:href="#DejaVuSans-97"/>
      <use x="205.078125" xlink:href="#DejaVuSans-32"/>
      <use x="236.865234" xlink:href="#DejaVuSans-49"/>
     </g>
    </g>
    <g id="line2d_23">
     <path d="M 77.24 44.730469 
L 107.24 44.730469 
" style="fill:none;stroke:#ff7f0e;stroke-linecap:square;stroke-width:1.5;"/>
    </g>
    <g id="line2d_24"/>
    <g id="text_16">
     <!-- Stra 2 -->
     <g transform="translate(119.24 49.980469)scale(0.15 -0.15)">
      <use xlink:href="#DejaVuSans-83"/>
      <use x="63.476562" xlink:href="#DejaVuSans-116"/>
      <use x="102.685547" xlink:href="#DejaVuSans-114"/>
      <use x="143.798828" xlink:href="#DejaVuSans-97"/>
      <use x="205.078125" xlink:href="#DejaVuSans-32"/>
      <use x="236.865234" xlink:href="#DejaVuSans-50"/>
     </g>
    </g>
    <g id="line2d_25">
     <path d="M 194.369115 22.713281 
L 224.369115 22.713281 
" style="fill:none;stroke:#2ca02c;stroke-linecap:square;stroke-width:1.5;"/>
    </g>
    <g id="line2d_26"/>
    <g id="text_17">
     <!-- Stra 3 -->
     <g transform="translate(236.369115 27.963281)scale(0.15 -0.15)">
      <use xlink:href="#DejaVuSans-83"/>
      <use x="63.476562" xlink:href="#DejaVuSans-116"/>
      <use x="102.685547" xlink:href="#DejaVuSans-114"/>
      <use x="143.798828" xlink:href="#DejaVuSans-97"/>
      <use x="205.078125" xlink:href="#DejaVuSans-32"/>
      <use x="236.865234" xlink:href="#DejaVuSans-51"/>
     </g>
    </g>
    <g id="line2d_27">
     <path d="M 194.369115 44.730469 
L 224.369115 44.730469 
" style="fill:none;stroke:#d62728;stroke-linecap:square;stroke-width:1.5;"/>
    </g>
    <g id="line2d_28"/>
    <g id="text_18">
     <!-- Stra 4 -->
     <g transform="translate(236.369115 49.980469)scale(0.15 -0.15)">
      <use xlink:href="#DejaVuSans-83"/>
      <use x="63.476562" xlink:href="#DejaVuSans-116"/>
      <use x="102.685547" xlink:href="#DejaVuSans-114"/>
      <use x="143.798828" xlink:href="#DejaVuSans-97"/>
      <use x="205.078125" xlink:href="#DejaVuSans-32"/>
      <use x="236.865234" xlink:href="#DejaVuSans-52"/>
     </g>
    </g>
    <g id="line2d_29">
     <path d="M 311.498229 22.713281 
L 341.498229 22.713281 
" style="fill:none;stroke:#9467bd;stroke-linecap:square;stroke-width:1.5;"/>
    </g>
    <g id="line2d_30"/>
    <g id="text_19">
     <!-- Stra 5 -->
     <g transform="translate(353.498229 27.963281)scale(0.15 -0.15)">
      <use xlink:href="#DejaVuSans-83"/>
      <use x="63.476562" xlink:href="#DejaVuSans-116"/>
      <use x="102.685547" xlink:href="#DejaVuSans-114"/>
      <use x="143.798828" xlink:href="#DejaVuSans-97"/>
      <use x="205.078125" xlink:href="#DejaVuSans-32"/>
      <use x="236.865234" xlink:href="#DejaVuSans-53"/>
     </g>
    </g>
    <g id="line2d_31">
     <path d="M 311.498229 44.730469 
L 341.498229 44.730469 
" style="fill:none;stroke:#8c564b;stroke-linecap:square;stroke-width:1.5;"/>
    </g>
    <g id="line2d_32"/>
    <g id="text_20">
     <!-- Stra 6 -->
     <g transform="translate(353.498229 49.980469)scale(0.15 -0.15)">
      <use xlink:href="#DejaVuSans-83"/>
      <use x="63.476562" xlink:href="#DejaVuSans-116"/>
      <use x="102.685547" xlink:href="#DejaVuSans-114"/>
      <use x="143.798828" xlink:href="#DejaVuSans-97"/>
      <use x="205.078125" xlink:href="#DejaVuSans-32"/>
      <use x="236.865234" xlink:href="#DejaVuSans-54"/>
     </g>
    </g>
    <g id="line2d_33">
     <path d="M 428.627344 22.713281 
L 458.627344 22.713281 
" style="fill:none;stroke:#e377c2;stroke-linecap:square;stroke-width:1.5;"/>
    </g>
    <g id="line2d_34"/>
    <g id="text_21">
     <!-- Stra 7 -->
     <defs>
      <path d="M 8.203125 72.90625 
L 55.078125 72.90625 
L 55.078125 68.703125 
L 28.609375 0 
L 18.3125 0 
L 43.21875 64.59375 
L 8.203125 64.59375 
z
" id="DejaVuSans-55"/>
     </defs>
     <g transform="translate(470.627344 27.963281)scale(0.15 -0.15)">
      <use xlink:href="#DejaVuSans-83"/>
      <use x="63.476562" xlink:href="#DejaVuSans-116"/>
      <use x="102.685547" xlink:href="#DejaVuSans-114"/>
      <use x="143.798828" xlink:href="#DejaVuSans-97"/>
      <use x="205.078125" xlink:href="#DejaVuSans-32"/>
      <use x="236.865234" xlink:href="#DejaVuSans-55"/>
     </g>
    </g>
    <g id="line2d_35">
     <path d="M 428.627344 44.730469 
L 458.627344 44.730469 
" style="fill:none;stroke:#7f7f7f;stroke-linecap:square;stroke-width:1.5;"/>
    </g>
    <g id="line2d_36"/>
    <g id="text_22">
     <!-- Stra 8 -->
     <g transform="translate(470.627344 49.980469)scale(0.15 -0.15)">
      <use xlink:href="#DejaVuSans-83"/>
      <use x="63.476562" xlink:href="#DejaVuSans-116"/>
      <use x="102.685547" xlink:href="#DejaVuSans-114"/>
      <use x="143.798828" xlink:href="#DejaVuSans-97"/>
      <use x="205.078125" xlink:href="#DejaVuSans-32"/>
      <use x="236.865234" xlink:href="#DejaVuSans-56"/>
     </g>
    </g>
   </g>
  </g>
 </g>
 <defs>
  <clipPath id="p392bfeb7d2">
   <rect height="298.96" width="465.46" x="63.74" y="66.6"/>
  </clipPath>
 </defs>
</svg>
