<?xml version="1.0" encoding="utf-8" standalone="no"?>
<!DOCTYPE svg PUBLIC "-//W3C//DTD SVG 1.1//EN"
  "http://www.w3.org/Graphics/SVG/1.1/DTD/svg11.dtd">
<!-- Created with matplotlib (https://matplotlib.org/) -->
<svg height="432pt" version="1.1" viewBox="0 0 540 432" width="540pt" xmlns="http://www.w3.org/2000/svg" xmlns:xlink="http://www.w3.org/1999/xlink">
 <defs>
  <style type="text/css">
*{stroke-linecap:butt;stroke-linejoin:round;}
  </style>
 </defs>
 <g id="figure_1">
  <g id="patch_1">
   <path d="M 0 432 
L 540 432 
L 540 0 
L 0 0 
z
" style="fill:#ffffff;"/>
  </g>
  <g id="axes_1">
   <g id="patch_2">
    <path d="M 51.05 365.56 
L 529.2 365.56 
L 529.2 66.6 
L 51.05 66.6 
z
" style="fill:#ffffff;"/>
   </g>
   <g id="matplotlib.axis_1">
    <g id="xtick_1">
     <g id="line2d_1">
      <defs>
       <path d="M 0 0 
L 0 3.5 
" id="mefffcd1af7" style="stroke:#000000;stroke-width:0.8;"/>
      </defs>
      <g>
       <use style="stroke:#000000;stroke-width:0.8;" x="72.784091" xlink:href="#mefffcd1af7" y="365.56"/>
      </g>
     </g>
     <g id="text_1">
      <!-- 0 -->
      <defs>
       <path d="M 31.78125 66.40625 
Q 24.171875 66.40625 20.328125 58.90625 
Q 16.5 51.421875 16.5 36.375 
Q 16.5 21.390625 20.328125 13.890625 
Q 24.171875 6.390625 31.78125 6.390625 
Q 39.453125 6.390625 43.28125 13.890625 
Q 47.125 21.390625 47.125 36.375 
Q 47.125 51.421875 43.28125 58.90625 
Q 39.453125 66.40625 31.78125 66.40625 
z
M 31.78125 74.21875 
Q 44.046875 74.21875 50.515625 64.515625 
Q 56.984375 54.828125 56.984375 36.375 
Q 56.984375 17.96875 50.515625 8.265625 
Q 44.046875 -1.421875 31.78125 -1.421875 
Q 19.53125 -1.421875 13.0625 8.265625 
Q 6.59375 17.96875 6.59375 36.375 
Q 6.59375 54.828125 13.0625 64.515625 
Q 19.53125 74.21875 31.78125 74.21875 
z
" id="DejaVuSans-48"/>
      </defs>
      <g transform="translate(66.421591 387.756875)scale(0.2 -0.2)">
       <use xlink:href="#DejaVuSans-48"/>
      </g>
     </g>
    </g>
    <g id="xtick_2">
     <g id="line2d_2">
      <g>
       <use style="stroke:#000000;stroke-width:0.8;" x="173.872886" xlink:href="#mefffcd1af7" y="365.56"/>
      </g>
     </g>
     <g id="text_2">
      <!-- 20 -->
      <defs>
       <path d="M 19.1875 8.296875 
L 53.609375 8.296875 
L 53.609375 0 
L 7.328125 0 
L 7.328125 8.296875 
Q 12.9375 14.109375 22.625 23.890625 
Q 32.328125 33.6875 34.8125 36.53125 
Q 39.546875 41.84375 41.421875 45.53125 
Q 43.3125 49.21875 43.3125 52.78125 
Q 43.3125 58.59375 39.234375 62.25 
Q 35.15625 65.921875 28.609375 65.921875 
Q 23.96875 65.921875 18.8125 64.3125 
Q 13.671875 62.703125 7.8125 59.421875 
L 7.8125 69.390625 
Q 13.765625 71.78125 18.9375 73 
Q 24.125 74.21875 28.421875 74.21875 
Q 39.75 74.21875 46.484375 68.546875 
Q 53.21875 62.890625 53.21875 53.421875 
Q 53.21875 48.921875 51.53125 44.890625 
Q 49.859375 40.875 45.40625 35.40625 
Q 44.1875 33.984375 37.640625 27.21875 
Q 31.109375 20.453125 19.1875 8.296875 
z
" id="DejaVuSans-50"/>
      </defs>
      <g transform="translate(161.147886 387.756875)scale(0.2 -0.2)">
       <use xlink:href="#DejaVuSans-50"/>
       <use x="63.623047" xlink:href="#DejaVuSans-48"/>
      </g>
     </g>
    </g>
    <g id="xtick_3">
     <g id="line2d_3">
      <g>
       <use style="stroke:#000000;stroke-width:0.8;" x="274.961681" xlink:href="#mefffcd1af7" y="365.56"/>
      </g>
     </g>
     <g id="text_3">
      <!-- 40 -->
      <defs>
       <path d="M 37.796875 64.3125 
L 12.890625 25.390625 
L 37.796875 25.390625 
z
M 35.203125 72.90625 
L 47.609375 72.90625 
L 47.609375 25.390625 
L 58.015625 25.390625 
L 58.015625 17.1875 
L 47.609375 17.1875 
L 47.609375 0 
L 37.796875 0 
L 37.796875 17.1875 
L 4.890625 17.1875 
L 4.890625 26.703125 
z
" id="DejaVuSans-52"/>
      </defs>
      <g transform="translate(262.236681 387.756875)scale(0.2 -0.2)">
       <use xlink:href="#DejaVuSans-52"/>
       <use x="63.623047" xlink:href="#DejaVuSans-48"/>
      </g>
     </g>
    </g>
    <g id="xtick_4">
     <g id="line2d_4">
      <g>
       <use style="stroke:#000000;stroke-width:0.8;" x="376.050476" xlink:href="#mefffcd1af7" y="365.56"/>
      </g>
     </g>
     <g id="text_4">
      <!-- 60 -->
      <defs>
       <path d="M 33.015625 40.375 
Q 26.375 40.375 22.484375 35.828125 
Q 18.609375 31.296875 18.609375 23.390625 
Q 18.609375 15.53125 22.484375 10.953125 
Q 26.375 6.390625 33.015625 6.390625 
Q 39.65625 6.390625 43.53125 10.953125 
Q 47.40625 15.53125 47.40625 23.390625 
Q 47.40625 31.296875 43.53125 35.828125 
Q 39.65625 40.375 33.015625 40.375 
z
M 52.59375 71.296875 
L 52.59375 62.3125 
Q 48.875 64.0625 45.09375 64.984375 
Q 41.3125 65.921875 37.59375 65.921875 
Q 27.828125 65.921875 22.671875 59.328125 
Q 17.53125 52.734375 16.796875 39.40625 
Q 19.671875 43.65625 24.015625 45.921875 
Q 28.375 48.1875 33.59375 48.1875 
Q 44.578125 48.1875 50.953125 41.515625 
Q 57.328125 34.859375 57.328125 23.390625 
Q 57.328125 12.15625 50.6875 5.359375 
Q 44.046875 -1.421875 33.015625 -1.421875 
Q 20.359375 -1.421875 13.671875 8.265625 
Q 6.984375 17.96875 6.984375 36.375 
Q 6.984375 53.65625 15.1875 63.9375 
Q 23.390625 74.21875 37.203125 74.21875 
Q 40.921875 74.21875 44.703125 73.484375 
Q 48.484375 72.75 52.59375 71.296875 
z
" id="DejaVuSans-54"/>
      </defs>
      <g transform="translate(363.325476 387.756875)scale(0.2 -0.2)">
       <use xlink:href="#DejaVuSans-54"/>
       <use x="63.623047" xlink:href="#DejaVuSans-48"/>
      </g>
     </g>
    </g>
    <g id="xtick_5">
     <g id="line2d_5">
      <g>
       <use style="stroke:#000000;stroke-width:0.8;" x="477.139271" xlink:href="#mefffcd1af7" y="365.56"/>
      </g>
     </g>
     <g id="text_5">
      <!-- 80 -->
      <defs>
       <path d="M 31.78125 34.625 
Q 24.75 34.625 20.71875 30.859375 
Q 16.703125 27.09375 16.703125 20.515625 
Q 16.703125 13.921875 20.71875 10.15625 
Q 24.75 6.390625 31.78125 6.390625 
Q 38.8125 6.390625 42.859375 10.171875 
Q 46.921875 13.96875 46.921875 20.515625 
Q 46.921875 27.09375 42.890625 30.859375 
Q 38.875 34.625 31.78125 34.625 
z
M 21.921875 38.8125 
Q 15.578125 40.375 12.03125 44.71875 
Q 8.5 49.078125 8.5 55.328125 
Q 8.5 64.0625 14.71875 69.140625 
Q 20.953125 74.21875 31.78125 74.21875 
Q 42.671875 74.21875 48.875 69.140625 
Q 55.078125 64.0625 55.078125 55.328125 
Q 55.078125 49.078125 51.53125 44.71875 
Q 48 40.375 41.703125 38.8125 
Q 48.828125 37.15625 52.796875 32.3125 
Q 56.78125 27.484375 56.78125 20.515625 
Q 56.78125 9.90625 50.3125 4.234375 
Q 43.84375 -1.421875 31.78125 -1.421875 
Q 19.734375 -1.421875 13.25 4.234375 
Q 6.78125 9.90625 6.78125 20.515625 
Q 6.78125 27.484375 10.78125 32.3125 
Q 14.796875 37.15625 21.921875 38.8125 
z
M 18.3125 54.390625 
Q 18.3125 48.734375 21.84375 45.5625 
Q 25.390625 42.390625 31.78125 42.390625 
Q 38.140625 42.390625 41.71875 45.5625 
Q 45.3125 48.734375 45.3125 54.390625 
Q 45.3125 60.0625 41.71875 63.234375 
Q 38.140625 66.40625 31.78125 66.40625 
Q 25.390625 66.40625 21.84375 63.234375 
Q 18.3125 60.0625 18.3125 54.390625 
z
" id="DejaVuSans-56"/>
      </defs>
      <g transform="translate(464.414271 387.756875)scale(0.2 -0.2)">
       <use xlink:href="#DejaVuSans-56"/>
       <use x="63.623047" xlink:href="#DejaVuSans-48"/>
      </g>
     </g>
    </g>
    <g id="text_6">
     <!-- # of games -->
     <defs>
      <path d="M 51.125 44 
L 36.921875 44 
L 32.8125 27.6875 
L 47.125 27.6875 
z
M 43.796875 71.78125 
L 38.71875 51.515625 
L 52.984375 51.515625 
L 58.109375 71.78125 
L 65.921875 71.78125 
L 60.890625 51.515625 
L 76.125 51.515625 
L 76.125 44 
L 58.984375 44 
L 54.984375 27.6875 
L 70.515625 27.6875 
L 70.515625 20.21875 
L 53.078125 20.21875 
L 48 0 
L 40.1875 0 
L 45.21875 20.21875 
L 30.90625 20.21875 
L 25.875 0 
L 18.015625 0 
L 23.09375 20.21875 
L 7.71875 20.21875 
L 7.71875 27.6875 
L 24.90625 27.6875 
L 29 44 
L 13.28125 44 
L 13.28125 51.515625 
L 30.90625 51.515625 
L 35.890625 71.78125 
z
" id="DejaVuSans-35"/>
      <path id="DejaVuSans-32"/>
      <path d="M 30.609375 48.390625 
Q 23.390625 48.390625 19.1875 42.75 
Q 14.984375 37.109375 14.984375 27.296875 
Q 14.984375 17.484375 19.15625 11.84375 
Q 23.34375 6.203125 30.609375 6.203125 
Q 37.796875 6.203125 41.984375 11.859375 
Q 46.1875 17.53125 46.1875 27.296875 
Q 46.1875 37.015625 41.984375 42.703125 
Q 37.796875 48.390625 30.609375 48.390625 
z
M 30.609375 56 
Q 42.328125 56 49.015625 48.375 
Q 55.71875 40.765625 55.71875 27.296875 
Q 55.71875 13.875 49.015625 6.21875 
Q 42.328125 -1.421875 30.609375 -1.421875 
Q 18.84375 -1.421875 12.171875 6.21875 
Q 5.515625 13.875 5.515625 27.296875 
Q 5.515625 40.765625 12.171875 48.375 
Q 18.84375 56 30.609375 56 
z
" id="DejaVuSans-111"/>
      <path d="M 37.109375 75.984375 
L 37.109375 68.5 
L 28.515625 68.5 
Q 23.6875 68.5 21.796875 66.546875 
Q 19.921875 64.59375 19.921875 59.515625 
L 19.921875 54.6875 
L 34.71875 54.6875 
L 34.71875 47.703125 
L 19.921875 47.703125 
L 19.921875 0 
L 10.890625 0 
L 10.890625 47.703125 
L 2.296875 47.703125 
L 2.296875 54.6875 
L 10.890625 54.6875 
L 10.890625 58.5 
Q 10.890625 67.625 15.140625 71.796875 
Q 19.390625 75.984375 28.609375 75.984375 
z
" id="DejaVuSans-102"/>
      <path d="M 45.40625 27.984375 
Q 45.40625 37.75 41.375 43.109375 
Q 37.359375 48.484375 30.078125 48.484375 
Q 22.859375 48.484375 18.828125 43.109375 
Q 14.796875 37.75 14.796875 27.984375 
Q 14.796875 18.265625 18.828125 12.890625 
Q 22.859375 7.515625 30.078125 7.515625 
Q 37.359375 7.515625 41.375 12.890625 
Q 45.40625 18.265625 45.40625 27.984375 
z
M 54.390625 6.78125 
Q 54.390625 -7.171875 48.1875 -13.984375 
Q 42 -20.796875 29.203125 -20.796875 
Q 24.46875 -20.796875 20.265625 -20.09375 
Q 16.0625 -19.390625 12.109375 -17.921875 
L 12.109375 -9.1875 
Q 16.0625 -11.328125 19.921875 -12.34375 
Q 23.78125 -13.375 27.78125 -13.375 
Q 36.625 -13.375 41.015625 -8.765625 
Q 45.40625 -4.15625 45.40625 5.171875 
L 45.40625 9.625 
Q 42.625 4.78125 38.28125 2.390625 
Q 33.9375 0 27.875 0 
Q 17.828125 0 11.671875 7.65625 
Q 5.515625 15.328125 5.515625 27.984375 
Q 5.515625 40.671875 11.671875 48.328125 
Q 17.828125 56 27.875 56 
Q 33.9375 56 38.28125 53.609375 
Q 42.625 51.21875 45.40625 46.390625 
L 45.40625 54.6875 
L 54.390625 54.6875 
z
" id="DejaVuSans-103"/>
      <path d="M 34.28125 27.484375 
Q 23.390625 27.484375 19.1875 25 
Q 14.984375 22.515625 14.984375 16.5 
Q 14.984375 11.71875 18.140625 8.90625 
Q 21.296875 6.109375 26.703125 6.109375 
Q 34.1875 6.109375 38.703125 11.40625 
Q 43.21875 16.703125 43.21875 25.484375 
L 43.21875 27.484375 
z
M 52.203125 31.203125 
L 52.203125 0 
L 43.21875 0 
L 43.21875 8.296875 
Q 40.140625 3.328125 35.546875 0.953125 
Q 30.953125 -1.421875 24.3125 -1.421875 
Q 15.921875 -1.421875 10.953125 3.296875 
Q 6 8.015625 6 15.921875 
Q 6 25.140625 12.171875 29.828125 
Q 18.359375 34.515625 30.609375 34.515625 
L 43.21875 34.515625 
L 43.21875 35.40625 
Q 43.21875 41.609375 39.140625 45 
Q 35.0625 48.390625 27.6875 48.390625 
Q 23 48.390625 18.546875 47.265625 
Q 14.109375 46.140625 10.015625 43.890625 
L 10.015625 52.203125 
Q 14.9375 54.109375 19.578125 55.046875 
Q 24.21875 56 28.609375 56 
Q 40.484375 56 46.34375 49.84375 
Q 52.203125 43.703125 52.203125 31.203125 
z
" id="DejaVuSans-97"/>
      <path d="M 52 44.1875 
Q 55.375 50.25 60.0625 53.125 
Q 64.75 56 71.09375 56 
Q 79.640625 56 84.28125 50.015625 
Q 88.921875 44.046875 88.921875 33.015625 
L 88.921875 0 
L 79.890625 0 
L 79.890625 32.71875 
Q 79.890625 40.578125 77.09375 44.375 
Q 74.3125 48.1875 68.609375 48.1875 
Q 61.625 48.1875 57.5625 43.546875 
Q 53.515625 38.921875 53.515625 30.90625 
L 53.515625 0 
L 44.484375 0 
L 44.484375 32.71875 
Q 44.484375 40.625 41.703125 44.40625 
Q 38.921875 48.1875 33.109375 48.1875 
Q 26.21875 48.1875 22.15625 43.53125 
Q 18.109375 38.875 18.109375 30.90625 
L 18.109375 0 
L 9.078125 0 
L 9.078125 54.6875 
L 18.109375 54.6875 
L 18.109375 46.1875 
Q 21.1875 51.21875 25.484375 53.609375 
Q 29.78125 56 35.6875 56 
Q 41.65625 56 45.828125 52.96875 
Q 50 49.953125 52 44.1875 
z
" id="DejaVuSans-109"/>
      <path d="M 56.203125 29.59375 
L 56.203125 25.203125 
L 14.890625 25.203125 
Q 15.484375 15.921875 20.484375 11.0625 
Q 25.484375 6.203125 34.421875 6.203125 
Q 39.59375 6.203125 44.453125 7.46875 
Q 49.3125 8.734375 54.109375 11.28125 
L 54.109375 2.78125 
Q 49.265625 0.734375 44.1875 -0.34375 
Q 39.109375 -1.421875 33.890625 -1.421875 
Q 20.796875 -1.421875 13.15625 6.1875 
Q 5.515625 13.8125 5.515625 26.8125 
Q 5.515625 40.234375 12.765625 48.109375 
Q 20.015625 56 32.328125 56 
Q 43.359375 56 49.78125 48.890625 
Q 56.203125 41.796875 56.203125 29.59375 
z
M 47.21875 32.234375 
Q 47.125 39.59375 43.09375 43.984375 
Q 39.0625 48.390625 32.421875 48.390625 
Q 24.90625 48.390625 20.390625 44.140625 
Q 15.875 39.890625 15.1875 32.171875 
z
" id="DejaVuSans-101"/>
      <path d="M 44.28125 53.078125 
L 44.28125 44.578125 
Q 40.484375 46.53125 36.375 47.5 
Q 32.28125 48.484375 27.875 48.484375 
Q 21.1875 48.484375 17.84375 46.4375 
Q 14.5 44.390625 14.5 40.28125 
Q 14.5 37.15625 16.890625 35.375 
Q 19.28125 33.59375 26.515625 31.984375 
L 29.59375 31.296875 
Q 39.15625 29.25 43.1875 25.515625 
Q 47.21875 21.78125 47.21875 15.09375 
Q 47.21875 7.46875 41.1875 3.015625 
Q 35.15625 -1.421875 24.609375 -1.421875 
Q 20.21875 -1.421875 15.453125 -0.5625 
Q 10.6875 0.296875 5.421875 2 
L 5.421875 11.28125 
Q 10.40625 8.6875 15.234375 7.390625 
Q 20.0625 6.109375 24.8125 6.109375 
Q 31.15625 6.109375 34.5625 8.28125 
Q 37.984375 10.453125 37.984375 14.40625 
Q 37.984375 18.0625 35.515625 20.015625 
Q 33.0625 21.96875 24.703125 23.78125 
L 21.578125 24.515625 
Q 13.234375 26.265625 9.515625 29.90625 
Q 5.8125 33.546875 5.8125 39.890625 
Q 5.8125 47.609375 11.28125 51.796875 
Q 16.75 56 26.8125 56 
Q 31.78125 56 36.171875 55.265625 
Q 40.578125 54.546875 44.28125 53.078125 
z
" id="DejaVuSans-115"/>
     </defs>
     <g transform="translate(217.681641 414.912344)scale(0.25 -0.25)">
      <use xlink:href="#DejaVuSans-35"/>
      <use x="83.789062" xlink:href="#DejaVuSans-32"/>
      <use x="115.576172" xlink:href="#DejaVuSans-111"/>
      <use x="176.757812" xlink:href="#DejaVuSans-102"/>
      <use x="211.962891" xlink:href="#DejaVuSans-32"/>
      <use x="243.75" xlink:href="#DejaVuSans-103"/>
      <use x="307.226562" xlink:href="#DejaVuSans-97"/>
      <use x="368.505859" xlink:href="#DejaVuSans-109"/>
      <use x="465.917969" xlink:href="#DejaVuSans-101"/>
      <use x="527.441406" xlink:href="#DejaVuSans-115"/>
     </g>
    </g>
   </g>
   <g id="matplotlib.axis_2">
    <g id="ytick_1">
     <g id="line2d_6">
      <defs>
       <path d="M 0 0 
L -3.5 0 
" id="mdc7f82a5b1" style="stroke:#000000;stroke-width:0.8;"/>
      </defs>
      <g>
       <use style="stroke:#000000;stroke-width:0.8;" x="51.05" xlink:href="#mdc7f82a5b1" y="351.970909"/>
      </g>
     </g>
     <g id="text_7">
      <!-- 0 -->
      <g transform="translate(31.325 359.569347)scale(0.2 -0.2)">
       <use xlink:href="#DejaVuSans-48"/>
      </g>
     </g>
    </g>
    <g id="ytick_2">
     <g id="line2d_7">
      <g>
       <use style="stroke:#000000;stroke-width:0.8;" x="51.05" xlink:href="#mdc7f82a5b1" y="291.574949"/>
      </g>
     </g>
     <g id="text_8">
      <!-- 2 -->
      <g transform="translate(31.325 299.173387)scale(0.2 -0.2)">
       <use xlink:href="#DejaVuSans-50"/>
      </g>
     </g>
    </g>
    <g id="ytick_3">
     <g id="line2d_8">
      <g>
       <use style="stroke:#000000;stroke-width:0.8;" x="51.05" xlink:href="#mdc7f82a5b1" y="231.17899"/>
      </g>
     </g>
     <g id="text_9">
      <!-- 4 -->
      <g transform="translate(31.325 238.777427)scale(0.2 -0.2)">
       <use xlink:href="#DejaVuSans-52"/>
      </g>
     </g>
    </g>
    <g id="ytick_4">
     <g id="line2d_9">
      <g>
       <use style="stroke:#000000;stroke-width:0.8;" x="51.05" xlink:href="#mdc7f82a5b1" y="170.78303"/>
      </g>
     </g>
     <g id="text_10">
      <!-- 6 -->
      <g transform="translate(31.325 178.381468)scale(0.2 -0.2)">
       <use xlink:href="#DejaVuSans-54"/>
      </g>
     </g>
    </g>
    <g id="ytick_5">
     <g id="line2d_10">
      <g>
       <use style="stroke:#000000;stroke-width:0.8;" x="51.05" xlink:href="#mdc7f82a5b1" y="110.387071"/>
      </g>
     </g>
     <g id="text_11">
      <!-- 8 -->
      <g transform="translate(31.325 117.985508)scale(0.2 -0.2)">
       <use xlink:href="#DejaVuSans-56"/>
      </g>
     </g>
    </g>
    <g id="text_12">
     <!-- DHEU Value -->
     <defs>
      <path d="M 19.671875 64.796875 
L 19.671875 8.109375 
L 31.59375 8.109375 
Q 46.6875 8.109375 53.6875 14.9375 
Q 60.6875 21.78125 60.6875 36.53125 
Q 60.6875 51.171875 53.6875 57.984375 
Q 46.6875 64.796875 31.59375 64.796875 
z
M 9.8125 72.90625 
L 30.078125 72.90625 
Q 51.265625 72.90625 61.171875 64.09375 
Q 71.09375 55.28125 71.09375 36.53125 
Q 71.09375 17.671875 61.125 8.828125 
Q 51.171875 0 30.078125 0 
L 9.8125 0 
z
" id="DejaVuSans-68"/>
      <path d="M 9.8125 72.90625 
L 19.671875 72.90625 
L 19.671875 43.015625 
L 55.515625 43.015625 
L 55.515625 72.90625 
L 65.375 72.90625 
L 65.375 0 
L 55.515625 0 
L 55.515625 34.71875 
L 19.671875 34.71875 
L 19.671875 0 
L 9.8125 0 
z
" id="DejaVuSans-72"/>
      <path d="M 9.8125 72.90625 
L 55.90625 72.90625 
L 55.90625 64.59375 
L 19.671875 64.59375 
L 19.671875 43.015625 
L 54.390625 43.015625 
L 54.390625 34.71875 
L 19.671875 34.71875 
L 19.671875 8.296875 
L 56.78125 8.296875 
L 56.78125 0 
L 9.8125 0 
z
" id="DejaVuSans-69"/>
      <path d="M 8.6875 72.90625 
L 18.609375 72.90625 
L 18.609375 28.609375 
Q 18.609375 16.890625 22.84375 11.734375 
Q 27.09375 6.59375 36.625 6.59375 
Q 46.09375 6.59375 50.34375 11.734375 
Q 54.59375 16.890625 54.59375 28.609375 
L 54.59375 72.90625 
L 64.5 72.90625 
L 64.5 27.390625 
Q 64.5 13.140625 57.4375 5.859375 
Q 50.390625 -1.421875 36.625 -1.421875 
Q 22.796875 -1.421875 15.734375 5.859375 
Q 8.6875 13.140625 8.6875 27.390625 
z
" id="DejaVuSans-85"/>
      <path d="M 28.609375 0 
L 0.78125 72.90625 
L 11.078125 72.90625 
L 34.1875 11.53125 
L 57.328125 72.90625 
L 67.578125 72.90625 
L 39.796875 0 
z
" id="DejaVuSans-86"/>
      <path d="M 9.421875 75.984375 
L 18.40625 75.984375 
L 18.40625 0 
L 9.421875 0 
z
" id="DejaVuSans-108"/>
      <path d="M 8.5 21.578125 
L 8.5 54.6875 
L 17.484375 54.6875 
L 17.484375 21.921875 
Q 17.484375 14.15625 20.5 10.265625 
Q 23.53125 6.390625 29.59375 6.390625 
Q 36.859375 6.390625 41.078125 11.03125 
Q 45.3125 15.671875 45.3125 23.6875 
L 45.3125 54.6875 
L 54.296875 54.6875 
L 54.296875 0 
L 45.3125 0 
L 45.3125 8.40625 
Q 42.046875 3.421875 37.71875 1 
Q 33.40625 -1.421875 27.6875 -1.421875 
Q 18.265625 -1.421875 13.375 4.4375 
Q 8.5 10.296875 8.5 21.578125 
z
M 31.109375 56 
z
" id="DejaVuSans-117"/>
     </defs>
     <g transform="translate(23.858854 266.29875)rotate(-90)scale(0.166667 -0.166667)">
      <use xlink:href="#DejaVuSans-68"/>
      <use x="77.001953" xlink:href="#DejaVuSans-72"/>
      <use x="152.197266" xlink:href="#DejaVuSans-69"/>
      <use x="215.380859" xlink:href="#DejaVuSans-85"/>
      <use x="288.574219" xlink:href="#DejaVuSans-32"/>
      <use x="320.361328" xlink:href="#DejaVuSans-86"/>
      <use x="388.660156" xlink:href="#DejaVuSans-97"/>
      <use x="449.939453" xlink:href="#DejaVuSans-108"/>
      <use x="477.722656" xlink:href="#DejaVuSans-117"/>
      <use x="541.101562" xlink:href="#DejaVuSans-101"/>
     </g>
    </g>
   </g>
   <g id="line2d_11">
    <path clip-path="url(#p9fc02256b6)" d="M 72.784091 351.970909 
L 77.838531 262.282909 
L 82.89297 169.877091 
L 87.94741 126.392 
L 93.00185 104.655677 
L 98.05629 93.788797 
L 103.110729 85.642663 
L 108.165169 85.637905 
L 113.219609 80.20776 
L 118.274049 80.262698 
L 123.328488 80.281397 
L 128.382928 80.239485 
L 133.437368 80.250071 
L 138.491808 80.250473 
L 143.546247 80.23966 
L 148.600687 80.236194 
L 153.655127 80.244423 
L 158.709567 80.248493 
L 163.764006 80.2391 
L 168.818446 80.222855 
L 173.872886 80.230965 
L 178.927326 80.238301 
L 183.981765 80.230665 
L 189.036205 80.220327 
L 194.090645 80.220028 
L 199.145085 80.231157 
L 204.199524 80.245892 
L 209.253964 80.243268 
L 214.308404 80.263351 
L 219.362844 80.252444 
L 224.417283 80.236745 
L 229.471723 80.221427 
L 234.526163 80.202952 
L 239.580603 80.194025 
L 244.635042 80.204691 
L 249.689482 80.22141 
L 254.743922 80.229876 
L 259.798362 80.231437 
L 264.852801 80.21555 
L 269.907241 80.245877 
L 274.961681 80.331649 
L 280.016121 80.335898 
L 285.07056 80.261776 
L 290.125 80.253509 
L 295.17944 80.226973 
L 300.233879 80.219856 
L 305.288319 80.217036 
L 310.342759 80.243533 
L 315.397199 80.245723 
L 320.451638 80.217304 
L 325.506078 80.219286 
L 330.560518 80.234315 
L 335.614958 80.273558 
L 340.669397 80.2736 
L 345.723837 80.243996 
L 350.778277 80.210565 
L 355.832717 80.203732 
L 360.887156 80.20373 
L 365.941596 80.237896 
L 370.996036 80.242776 
L 376.050476 80.193971 
L 381.104915 80.191531 
L 386.159355 80.191531 
L 391.213795 80.189091 
L 396.268235 80.189091 
L 401.322674 80.215933 
L 406.377114 80.215933 
L 411.431554 80.216931 
L 416.485994 80.189091 
L 421.540433 80.189091 
L 426.594873 80.189091 
L 431.649313 80.189091 
L 436.703753 80.189091 
L 441.758192 80.193483 
L 446.812632 80.194581 
L 451.867072 80.189091 
L 456.921512 80.223322 
L 461.975951 80.206263 
L 467.030391 80.206263 
L 472.084831 80.214849 
L 477.139271 80.214849 
L 482.19371 80.189091 
L 487.24815 80.189091 
L 492.30259 80.189091 
L 497.35703 80.189091 
L 502.411469 80.189091 
L 507.465909 80.189091 
" style="fill:none;stroke:#1f77b4;stroke-linecap:square;stroke-width:1.5;"/>
   </g>
   <g id="line2d_12">
    <path clip-path="url(#p9fc02256b6)" d="M 72.784091 351.970909 
L 77.838531 302.144242 
L 82.89297 250.807677 
L 87.94741 226.649293 
L 93.00185 214.570101 
L 98.05629 208.532091 
L 103.110729 204.002394 
L 108.165169 204.003912 
L 113.219609 200.982375 
L 118.274049 201.060378 
L 123.328488 201.060835 
L 128.382928 201.06203 
L 133.437368 201.053092 
L 138.491808 201.0625 
L 143.546247 201.068309 
L 148.600687 201.096065 
L 153.655127 201.108314 
L 158.709567 201.075126 
L 163.764006 201.07733 
L 168.818446 201.085171 
L 173.872886 201.090514 
L 178.927326 201.101433 
L 183.981765 201.116106 
L 189.036205 201.112067 
L 194.090645 201.108649 
L 199.145085 201.105099 
L 204.199524 201.115984 
L 209.253964 201.12949 
L 214.308404 201.112009 
L 219.362844 201.113632 
L 224.417283 201.106752 
L 229.471723 201.109515 
L 234.526163 201.107376 
L 239.580603 201.085065 
L 244.635042 201.072076 
L 249.689482 201.069103 
L 254.743922 201.059831 
L 259.798362 201.060303 
L 264.852801 201.053318 
L 269.907241 201.074715 
L 274.961681 201.1487 
L 280.016121 201.15984 
L 285.07056 201.217577 
L 290.125 201.222559 
L 295.17944 201.225565 
L 300.233879 201.072192 
L 305.288319 201.079716 
L 310.342759 201.028287 
L 315.397199 201.030924 
L 320.451638 201.029116 
L 325.506078 201.04246 
L 330.560518 201.024974 
L 335.614958 201.03943 
L 340.669397 201.055313 
L 345.723837 201.016597 
L 350.778277 201.025667 
L 355.832717 201.02469 
L 360.887156 201.020449 
L 365.941596 201.009879 
L 370.996036 201.006949 
L 376.050476 201.024506 
L 381.104915 201.025319 
L 386.159355 201.00755 
L 391.213795 200.981376 
L 396.268235 200.990527 
L 401.322674 200.980766 
L 406.377114 200.984426 
L 411.431554 200.982709 
L 416.485994 200.98221 
L 421.540433 200.98221 
L 426.594873 200.984041 
L 431.649313 200.984041 
L 436.703753 200.991993 
L 441.758192 200.9881 
L 446.812632 200.997458 
L 451.867072 200.997784 
L 456.921512 200.997784 
L 461.975951 201.003375 
L 467.030391 201.003375 
L 472.084831 201.00271 
L 477.139271 201.00271 
L 482.19371 201.00271 
L 487.24815 200.978656 
L 492.30259 200.978656 
L 497.35703 200.978656 
L 502.411469 200.978656 
L 507.465909 200.978656 
" style="fill:none;stroke:#ff7f0e;stroke-linecap:square;stroke-width:1.5;"/>
   </g>
   <g id="line2d_13">
    <path clip-path="url(#p9fc02256b6)" d="M 72.784091 351.970909 
L 77.838531 302.144242 
L 82.89297 250.807677 
L 87.94741 226.649293 
L 93.00185 214.570101 
L 98.05629 208.532092 
L 103.110729 204.00752 
L 108.165169 204.004292 
L 113.219609 200.985957 
L 118.274049 201.014263 
L 123.328488 201.022224 
L 128.382928 201.026138 
L 133.437368 201.025284 
L 138.491808 201.029829 
L 143.546247 201.028319 
L 148.600687 201.025694 
L 153.655127 201.025107 
L 158.709567 201.042368 
L 163.764006 201.042322 
L 168.818446 201.042456 
L 173.872886 201.023761 
L 178.927326 201.020828 
L 183.981765 201.024643 
L 189.036205 201.032767 
L 194.090645 201.039776 
L 199.145085 201.043748 
L 204.199524 201.050634 
L 209.253964 201.042793 
L 214.308404 201.035169 
L 219.362844 201.035302 
L 224.417283 201.031862 
L 229.471723 201.016949 
L 234.526163 201.02303 
L 239.580603 201.015635 
L 244.635042 201.030402 
L 249.689482 201.033175 
L 254.743922 201.038688 
L 259.798362 201.040943 
L 264.852801 201.045604 
L 269.907241 201.052356 
L 274.961681 201.042131 
L 280.016121 201.050399 
L 285.07056 201.060722 
L 290.125 201.072326 
L 295.17944 201.063038 
L 300.233879 201.057754 
L 305.288319 201.056008 
L 310.342759 201.035932 
L 315.397199 201.00567 
L 320.451638 200.988605 
L 325.506078 201.005017 
L 330.560518 200.996208 
L 335.614958 201.013278 
L 340.669397 200.991076 
L 345.723837 201.000532 
L 350.778277 201.004436 
L 355.832717 201.076668 
L 360.887156 201.072426 
L 365.941596 201.058765 
L 370.996036 200.975793 
L 376.050476 200.993352 
L 381.104915 200.993352 
L 386.159355 200.996402 
L 391.213795 200.993352 
L 396.268235 200.993352 
L 401.322674 200.990692 
L 406.377114 200.980931 
L 411.431554 201.017038 
L 416.485994 201.016539 
L 421.540433 200.978106 
L 426.594873 200.979936 
L 431.649313 201.005606 
L 436.703753 201.005606 
L 441.758192 201.004275 
L 446.812632 201.036436 
L 451.867072 201.036761 
L 456.921512 201.016305 
L 461.975951 201.02807 
L 467.030391 200.993908 
L 472.084831 200.981188 
L 477.139271 200.981188 
L 482.19371 200.981188 
L 487.24815 200.981367 
L 492.30259 200.981367 
L 497.35703 200.981367 
L 502.411469 200.981367 
L 507.465909 200.981367 
" style="fill:none;stroke:#2ca02c;stroke-linecap:square;stroke-width:1.5;"/>
   </g>
   <g id="line2d_14">
    <path clip-path="url(#p9fc02256b6)" d="M 72.784091 351.970909 
L 77.838531 302.144242 
L 82.89297 250.807677 
L 87.94741 226.649293 
L 93.00185 214.570101 
L 98.05629 208.529895 
L 103.110729 204.000198 
L 108.165169 203.996957 
L 113.219609 200.983199 
L 118.274049 200.985157 
L 123.328488 200.983296 
L 128.382928 200.983308 
L 133.437368 200.981768 
L 138.491808 200.987884 
L 143.546247 200.987326 
L 148.600687 200.988265 
L 153.655127 200.987855 
L 158.709567 200.985436 
L 163.764006 200.985532 
L 168.818446 200.983968 
L 173.872886 200.98273 
L 178.927326 200.981945 
L 183.981765 200.987727 
L 189.036205 200.983821 
L 194.090645 200.98125 
L 199.145085 200.979919 
L 204.199524 200.987693 
L 209.253964 200.985193 
L 214.308404 200.980645 
L 219.362844 200.992291 
L 224.417283 200.995358 
L 229.471723 200.991326 
L 234.526163 200.992696 
L 239.580603 200.985381 
L 244.635042 200.977855 
L 249.689482 200.97793 
L 254.743922 200.980579 
L 259.798362 200.979882 
L 264.852801 200.979093 
L 269.907241 200.987848 
L 274.961681 200.958793 
L 280.016121 200.961321 
L 285.07056 200.980358 
L 290.125 200.976369 
L 295.17944 200.972193 
L 300.233879 200.977013 
L 305.288319 200.975308 
L 310.342759 200.975062 
L 315.397199 200.975293 
L 320.451638 200.985307 
L 325.506078 201.005426 
L 330.560518 201.011666 
L 335.614958 201.008307 
L 340.669397 201.015268 
L 345.723837 200.998804 
L 350.778277 201.002362 
L 355.832717 201.001386 
L 360.887156 200.997145 
L 365.941596 200.989828 
L 370.996036 200.980066 
L 376.050476 200.997622 
L 381.104915 200.997622 
L 386.159355 200.997622 
L 391.213795 200.997622 
L 396.268235 200.997622 
L 401.322674 200.990303 
L 406.377114 200.993964 
L 411.431554 200.992248 
L 416.485994 200.991749 
L 421.540433 200.991749 
L 426.594873 200.993578 
L 431.649313 200.993578 
L 436.703753 200.993578 
L 441.758192 200.992247 
L 446.812632 200.975953 
L 451.867072 200.97628 
L 456.921512 200.97628 
L 461.975951 200.974703 
L 467.030391 200.974703 
L 472.084831 200.979833 
L 477.139271 200.979833 
L 482.19371 200.979833 
L 487.24815 200.978656 
L 492.30259 200.978656 
L 497.35703 200.978656 
L 502.411469 200.978656 
L 507.465909 200.978656 
" style="fill:none;stroke:#d62728;stroke-linecap:square;stroke-width:1.5;"/>
   </g>
   <g id="line2d_15">
    <path clip-path="url(#p9fc02256b6)" d="M 72.784091 351.970909 
L 77.838531 342.005576 
L 82.89297 331.738263 
L 87.94741 326.906586 
L 93.00185 324.490747 
L 98.05629 323.282828 
L 103.110729 322.376889 
L 108.165169 322.376889 
L 113.219609 321.772929 
L 118.274049 321.772929 
L 123.328488 321.772929 
L 128.382928 321.772929 
L 133.437368 321.772929 
L 138.491808 321.772929 
L 143.546247 321.772929 
L 148.600687 321.772929 
L 153.655127 321.772929 
L 158.709567 321.772929 
L 163.764006 321.772929 
L 168.818446 321.772929 
L 173.872886 321.772929 
L 178.927326 321.772929 
L 183.981765 321.772929 
L 189.036205 321.772929 
L 194.090645 321.772929 
L 199.145085 321.772929 
L 204.199524 321.772929 
L 209.253964 321.772929 
L 214.308404 321.772929 
L 219.362844 321.772929 
L 224.417283 321.772929 
L 229.471723 321.772929 
L 234.526163 321.772929 
L 239.580603 321.772929 
L 244.635042 321.772929 
L 249.689482 321.772929 
L 254.743922 321.772929 
L 259.798362 321.772929 
L 264.852801 321.772929 
L 269.907241 321.772929 
L 274.961681 321.772929 
L 280.016121 321.772929 
L 285.07056 321.772929 
L 290.125 321.772929 
L 295.17944 321.772929 
L 300.233879 321.772929 
L 305.288319 321.772929 
L 310.342759 321.772929 
L 315.397199 321.772929 
L 320.451638 321.772929 
L 325.506078 321.772929 
L 330.560518 321.772929 
L 335.614958 321.772929 
L 340.669397 321.772929 
L 345.723837 321.772929 
L 350.778277 321.772929 
L 355.832717 321.772929 
L 360.887156 321.772929 
L 365.941596 321.772929 
L 370.996036 321.772929 
L 376.050476 321.772929 
L 381.104915 321.772929 
L 386.159355 321.772929 
L 391.213795 321.772929 
L 396.268235 321.772929 
L 401.322674 321.772929 
L 406.377114 321.772929 
L 411.431554 321.772929 
L 416.485994 321.772929 
L 421.540433 321.772929 
L 426.594873 321.772929 
L 431.649313 321.772929 
L 436.703753 321.772929 
L 441.758192 321.772929 
L 446.812632 321.772929 
L 451.867072 321.772929 
L 456.921512 321.772929 
L 461.975951 321.772929 
L 467.030391 321.772929 
L 472.084831 321.772929 
L 477.139271 321.772929 
L 482.19371 321.772929 
L 487.24815 321.772929 
L 492.30259 321.772929 
L 497.35703 321.772929 
L 502.411469 321.772929 
L 507.465909 321.772929 
" style="fill:none;stroke:#9467bd;stroke-linecap:square;stroke-width:1.5;"/>
   </g>
   <g id="line2d_16">
    <path clip-path="url(#p9fc02256b6)" d="M 72.784091 351.970909 
L 77.838531 262.282909 
L 82.89297 169.877091 
L 87.94741 126.392 
L 93.00185 104.649455 
L 98.05629 93.779158 
L 103.110729 85.625704 
L 108.165169 85.625094 
L 113.219609 80.192021 
L 118.274049 80.212762 
L 123.328488 80.210077 
L 128.382928 80.211298 
L 133.437368 80.212761 
L 138.491808 80.211377 
L 143.546247 80.216638 
L 148.600687 80.219057 
L 153.655127 80.232985 
L 158.709567 80.255984 
L 163.764006 80.246279 
L 168.818446 80.252029 
L 173.872886 80.227929 
L 178.927326 80.230177 
L 183.981765 80.238571 
L 189.036205 80.234537 
L 194.090645 80.236335 
L 199.145085 80.237771 
L 204.199524 80.228648 
L 209.253964 80.242941 
L 214.308404 80.24625 
L 219.362844 80.262102 
L 224.417283 80.275497 
L 229.471723 80.2719 
L 234.526163 80.275449 
L 239.580603 80.260106 
L 244.635042 80.26812 
L 249.689482 80.251547 
L 254.743922 80.265158 
L 259.798362 80.247186 
L 264.852801 80.247656 
L 269.907241 80.252733 
L 274.961681 80.221263 
L 280.016121 80.236952 
L 285.07056 80.267277 
L 290.125 80.240161 
L 295.17944 80.23003 
L 300.233879 80.224075 
L 305.288319 80.239327 
L 310.342759 80.206934 
L 315.397199 80.240738 
L 320.451638 80.231942 
L 325.506078 80.279278 
L 330.560518 80.290301 
L 335.614958 80.245019 
L 340.669397 80.25595 
L 345.723837 80.23654 
L 350.778277 80.189091 
L 355.832717 80.192995 
L 360.887156 80.192995 
L 365.941596 80.195436 
L 370.996036 80.192995 
L 376.050476 80.228107 
L 381.104915 80.201269 
L 386.159355 80.201269 
L 391.213795 80.201269 
L 396.268235 80.21042 
L 401.322674 80.194582 
L 406.377114 80.201902 
L 411.431554 80.198242 
L 416.485994 80.200571 
L 421.540433 80.19142 
L 426.594873 80.198585 
L 431.649313 80.219813 
L 436.703753 80.252512 
L 441.758192 80.24985 
L 446.812632 80.189091 
L 451.867072 80.206173 
L 456.921512 80.206173 
L 461.975951 80.191531 
L 467.030391 80.203732 
L 472.084831 80.189091 
L 477.139271 80.189091 
L 482.19371 80.189091 
L 487.24815 80.189091 
L 492.30259 80.189091 
L 497.35703 80.189091 
L 502.411469 80.189091 
L 507.465909 80.189091 
" style="fill:none;stroke:#8c564b;stroke-linecap:square;stroke-width:1.5;"/>
   </g>
   <g id="line2d_17">
    <path clip-path="url(#p9fc02256b6)" d="M 72.784091 351.970909 
L 77.838531 302.144242 
L 82.89297 250.807677 
L 87.94741 226.649293 
L 93.00185 214.570101 
L 98.05629 208.529895 
L 103.110729 204.000198 
L 108.165169 203.996957 
L 113.219609 200.976793 
L 118.274049 200.978751 
L 123.328488 200.984764 
L 128.382928 200.988479 
L 133.437368 200.983964 
L 138.491808 200.98944 
L 143.546247 200.994307 
L 148.600687 200.995682 
L 153.655127 200.992942 
L 158.709567 200.998469 
L 163.764006 201.005871 
L 168.818446 201.010669 
L 173.872886 201.007044 
L 178.927326 201.007419 
L 183.981765 201.008945 
L 189.036205 201.00779 
L 194.090645 201.00609 
L 199.145085 201.005619 
L 204.199524 201.01104 
L 209.253964 201.011449 
L 214.308404 201.003776 
L 219.362844 200.9921 
L 224.417283 201.002343 
L 229.471723 200.999529 
L 234.526163 201.008901 
L 239.580603 201.004847 
L 244.635042 201.012377 
L 249.689482 201.008978 
L 254.743922 201.020964 
L 259.798362 201.023544 
L 264.852801 201.018218 
L 269.907241 201.027506 
L 274.961681 201.004461 
L 280.016121 201.001382 
L 285.07056 201.011484 
L 290.125 201.002699 
L 295.17944 201.001401 
L 300.233879 200.999842 
L 305.288319 200.998921 
L 310.342759 201.006713 
L 315.397199 201.006943 
L 320.451638 201.005238 
L 325.506078 200.97535 
L 330.560518 200.976122 
L 335.614958 200.985694 
L 340.669397 200.987 
L 345.723837 200.997278 
L 350.778277 201.000532 
L 355.832717 200.984914 
L 360.887156 200.981653 
L 365.941596 200.97433 
L 370.996036 200.96944 
L 376.050476 200.987011 
L 381.104915 201.029294 
L 386.159355 201.046373 
L 391.213795 201.046373 
L 396.268235 201.002226 
L 401.322674 200.994907 
L 406.377114 200.998567 
L 411.431554 200.996851 
L 416.485994 201.019778 
L 421.540433 200.996352 
L 426.594873 200.998181 
L 431.649313 201.012823 
L 436.703753 201.012823 
L 441.758192 201.006611 
L 446.812632 200.999246 
L 451.867072 200.999573 
L 456.921512 201.001902 
L 461.975951 201.008866 
L 467.030391 201.008866 
L 472.084831 201.016436 
L 477.139271 201.016436 
L 482.19371 201.016436 
L 487.24815 200.978656 
L 492.30259 200.978656 
L 497.35703 200.978656 
L 502.411469 200.978656 
L 507.465909 200.978656 
" style="fill:none;stroke:#e377c2;stroke-linecap:square;stroke-width:1.5;"/>
   </g>
   <g id="line2d_18">
    <path clip-path="url(#p9fc02256b6)" d="M 72.784091 351.970909 
L 77.838531 302.144242 
L 82.89297 250.807677 
L 87.94741 226.649293 
L 93.00185 214.570101 
L 98.05629 208.533312 
L 103.110729 204.013986 
L 108.165169 204.015843 
L 113.219609 201.000439 
L 118.274049 201.00816 
L 123.328488 201.013987 
L 128.382928 201.020217 
L 133.437368 201.032953 
L 138.491808 201.044098 
L 143.546247 201.040566 
L 148.600687 201.061762 
L 153.655127 201.057488 
L 158.709567 201.064826 
L 163.764006 201.073756 
L 168.818446 201.051351 
L 173.872886 201.077771 
L 178.927326 201.065601 
L 183.981765 201.051428 
L 189.036205 201.030377 
L 194.090645 201.054797 
L 199.145085 201.035407 
L 204.199524 201.039023 
L 209.253964 201.047398 
L 214.308404 201.046878 
L 219.362844 201.045456 
L 224.417283 201.031622 
L 229.471723 201.039778 
L 234.526163 201.043368 
L 239.580603 201.029503 
L 244.635042 201.039091 
L 249.689482 201.03157 
L 254.743922 201.038761 
L 259.798362 201.033898 
L 264.852801 201.034187 
L 269.907241 201.041164 
L 274.961681 201.015711 
L 280.016121 201.023409 
L 285.07056 201.04538 
L 290.125 201.051818 
L 295.17944 201.000175 
L 300.233879 201.006246 
L 305.288319 201.02679 
L 310.342759 201.048518 
L 315.397199 201.052362 
L 320.451638 201.049163 
L 325.506078 201.049058 
L 330.560518 201.036613 
L 335.614958 201.006477 
L 340.669397 201.03643 
L 345.723837 201.082433 
L 350.778277 201.000227 
L 355.832717 200.999251 
L 360.887156 201.002332 
L 365.941596 200.990437 
L 370.996036 200.980673 
L 376.050476 200.999231 
L 381.104915 200.991911 
L 386.159355 200.991911 
L 391.213795 200.991911 
L 396.268235 200.991911 
L 401.322674 201.004112 
L 406.377114 201.007773 
L 411.431554 201.006057 
L 416.485994 201.005558 
L 421.540433 201.010416 
L 426.594873 200.981744 
L 431.649313 200.981744 
L 436.703753 200.998824 
L 441.758192 200.981633 
L 446.812632 200.983274 
L 451.867072 200.9836 
L 456.921512 201.003427 
L 461.975951 201.10403 
L 467.030391 201.10403 
L 472.084831 200.979833 
L 477.139271 200.979833 
L 482.19371 200.979833 
L 487.24815 200.978656 
L 492.30259 200.978656 
L 497.35703 200.978656 
L 502.411469 200.978656 
L 507.465909 200.978656 
" style="fill:none;stroke:#7f7f7f;stroke-linecap:square;stroke-width:1.5;"/>
   </g>
   <g id="patch_3">
    <path d="M 51.05 365.56 
L 51.05 66.6 
" style="fill:none;stroke:#000000;stroke-linecap:square;stroke-linejoin:miter;stroke-width:0.8;"/>
   </g>
   <g id="patch_4">
    <path d="M 529.2 365.56 
L 529.2 66.6 
" style="fill:none;stroke:#000000;stroke-linecap:square;stroke-linejoin:miter;stroke-width:0.8;"/>
   </g>
   <g id="patch_5">
    <path d="M 51.05 365.56 
L 529.2 365.56 
" style="fill:none;stroke:#000000;stroke-linecap:square;stroke-linejoin:miter;stroke-width:0.8;"/>
   </g>
   <g id="patch_6">
    <path d="M 51.05 66.6 
L 529.2 66.6 
" style="fill:none;stroke:#000000;stroke-linecap:square;stroke-linejoin:miter;stroke-width:0.8;"/>
   </g>
   <g id="legend_1">
    <g id="patch_7">
     <path d="M 61.55 59.1 
L 518.7 59.1 
Q 521.7 59.1 521.7 56.1 
L 521.7 13.565625 
Q 521.7 10.565625 518.7 10.565625 
L 61.55 10.565625 
Q 58.55 10.565625 58.55 13.565625 
L 58.55 56.1 
Q 58.55 59.1 61.55 59.1 
z
" style="fill:#ffffff;opacity:0.8;stroke:#cccccc;stroke-linejoin:miter;"/>
    </g>
    <g id="line2d_19">
     <path d="M 64.55 22.713281 
L 94.55 22.713281 
" style="fill:none;stroke:#1f77b4;stroke-linecap:square;stroke-width:1.5;"/>
    </g>
    <g id="line2d_20"/>
    <g id="text_13">
     <!-- Stra 1 -->
     <defs>
      <path d="M 53.515625 70.515625 
L 53.515625 60.890625 
Q 47.90625 63.578125 42.921875 64.890625 
Q 37.9375 66.21875 33.296875 66.21875 
Q 25.25 66.21875 20.875 63.09375 
Q 16.5 59.96875 16.5 54.203125 
Q 16.5 49.359375 19.40625 46.890625 
Q 22.3125 44.4375 30.421875 42.921875 
L 36.375 41.703125 
Q 47.40625 39.59375 52.65625 34.296875 
Q 57.90625 29 57.90625 20.125 
Q 57.90625 9.515625 50.796875 4.046875 
Q 43.703125 -1.421875 29.984375 -1.421875 
Q 24.8125 -1.421875 18.96875 -0.25 
Q 13.140625 0.921875 6.890625 3.21875 
L 6.890625 13.375 
Q 12.890625 10.015625 18.65625 8.296875 
Q 24.421875 6.59375 29.984375 6.59375 
Q 38.421875 6.59375 43.015625 9.90625 
Q 47.609375 13.234375 47.609375 19.390625 
Q 47.609375 24.75 44.3125 27.78125 
Q 41.015625 30.8125 33.5 32.328125 
L 27.484375 33.5 
Q 16.453125 35.6875 11.515625 40.375 
Q 6.59375 45.0625 6.59375 53.421875 
Q 6.59375 63.09375 13.40625 68.65625 
Q 20.21875 74.21875 32.171875 74.21875 
Q 37.3125 74.21875 42.625 73.28125 
Q 47.953125 72.359375 53.515625 70.515625 
z
" id="DejaVuSans-83"/>
      <path d="M 18.3125 70.21875 
L 18.3125 54.6875 
L 36.8125 54.6875 
L 36.8125 47.703125 
L 18.3125 47.703125 
L 18.3125 18.015625 
Q 18.3125 11.328125 20.140625 9.421875 
Q 21.96875 7.515625 27.59375 7.515625 
L 36.8125 7.515625 
L 36.8125 0 
L 27.59375 0 
Q 17.1875 0 13.234375 3.875 
Q 9.28125 7.765625 9.28125 18.015625 
L 9.28125 47.703125 
L 2.6875 47.703125 
L 2.6875 54.6875 
L 9.28125 54.6875 
L 9.28125 70.21875 
z
" id="DejaVuSans-116"/>
      <path d="M 41.109375 46.296875 
Q 39.59375 47.171875 37.8125 47.578125 
Q 36.03125 48 33.890625 48 
Q 26.265625 48 22.1875 43.046875 
Q 18.109375 38.09375 18.109375 28.8125 
L 18.109375 0 
L 9.078125 0 
L 9.078125 54.6875 
L 18.109375 54.6875 
L 18.109375 46.1875 
Q 20.953125 51.171875 25.484375 53.578125 
Q 30.03125 56 36.53125 56 
Q 37.453125 56 38.578125 55.875 
Q 39.703125 55.765625 41.0625 55.515625 
z
" id="DejaVuSans-114"/>
      <path d="M 12.40625 8.296875 
L 28.515625 8.296875 
L 28.515625 63.921875 
L 10.984375 60.40625 
L 10.984375 69.390625 
L 28.421875 72.90625 
L 38.28125 72.90625 
L 38.28125 8.296875 
L 54.390625 8.296875 
L 54.390625 0 
L 12.40625 0 
z
" id="DejaVuSans-49"/>
     </defs>
     <g transform="translate(106.55 27.963281)scale(0.15 -0.15)">
      <use xlink:href="#DejaVuSans-83"/>
      <use x="63.476562" xlink:href="#DejaVuSans-116"/>
      <use x="102.685547" xlink:href="#DejaVuSans-114"/>
      <use x="143.798828" xlink:href="#DejaVuSans-97"/>
      <use x="205.078125" xlink:href="#DejaVuSans-32"/>
      <use x="236.865234" xlink:href="#DejaVuSans-49"/>
     </g>
    </g>
    <g id="line2d_21">
     <path d="M 64.55 44.730469 
L 94.55 44.730469 
" style="fill:none;stroke:#ff7f0e;stroke-linecap:square;stroke-width:1.5;"/>
    </g>
    <g id="line2d_22"/>
    <g id="text_14">
     <!-- Stra 2 -->
     <g transform="translate(106.55 49.980469)scale(0.15 -0.15)">
      <use xlink:href="#DejaVuSans-83"/>
      <use x="63.476562" xlink:href="#DejaVuSans-116"/>
      <use x="102.685547" xlink:href="#DejaVuSans-114"/>
      <use x="143.798828" xlink:href="#DejaVuSans-97"/>
      <use x="205.078125" xlink:href="#DejaVuSans-32"/>
      <use x="236.865234" xlink:href="#DejaVuSans-50"/>
     </g>
    </g>
    <g id="line2d_23">
     <path d="M 185.909115 22.713281 
L 215.909115 22.713281 
" style="fill:none;stroke:#2ca02c;stroke-linecap:square;stroke-width:1.5;"/>
    </g>
    <g id="line2d_24"/>
    <g id="text_15">
     <!-- Stra 3 -->
     <defs>
      <path d="M 40.578125 39.3125 
Q 47.65625 37.796875 51.625 33 
Q 55.609375 28.21875 55.609375 21.1875 
Q 55.609375 10.40625 48.1875 4.484375 
Q 40.765625 -1.421875 27.09375 -1.421875 
Q 22.515625 -1.421875 17.65625 -0.515625 
Q 12.796875 0.390625 7.625 2.203125 
L 7.625 11.71875 
Q 11.71875 9.328125 16.59375 8.109375 
Q 21.484375 6.890625 26.8125 6.890625 
Q 36.078125 6.890625 40.9375 10.546875 
Q 45.796875 14.203125 45.796875 21.1875 
Q 45.796875 27.640625 41.28125 31.265625 
Q 36.765625 34.90625 28.71875 34.90625 
L 20.21875 34.90625 
L 20.21875 43.015625 
L 29.109375 43.015625 
Q 36.375 43.015625 40.234375 45.921875 
Q 44.09375 48.828125 44.09375 54.296875 
Q 44.09375 59.90625 40.109375 62.90625 
Q 36.140625 65.921875 28.71875 65.921875 
Q 24.65625 65.921875 20.015625 65.03125 
Q 15.375 64.15625 9.8125 62.3125 
L 9.8125 71.09375 
Q 15.4375 72.65625 20.34375 73.4375 
Q 25.25 74.21875 29.59375 74.21875 
Q 40.828125 74.21875 47.359375 69.109375 
Q 53.90625 64.015625 53.90625 55.328125 
Q 53.90625 49.265625 50.4375 45.09375 
Q 46.96875 40.921875 40.578125 39.3125 
z
" id="DejaVuSans-51"/>
     </defs>
     <g transform="translate(227.909115 27.963281)scale(0.15 -0.15)">
      <use xlink:href="#DejaVuSans-83"/>
      <use x="63.476562" xlink:href="#DejaVuSans-116"/>
      <use x="102.685547" xlink:href="#DejaVuSans-114"/>
      <use x="143.798828" xlink:href="#DejaVuSans-97"/>
      <use x="205.078125" xlink:href="#DejaVuSans-32"/>
      <use x="236.865234" xlink:href="#DejaVuSans-51"/>
     </g>
    </g>
    <g id="line2d_25">
     <path d="M 185.909115 44.730469 
L 215.909115 44.730469 
" style="fill:none;stroke:#d62728;stroke-linecap:square;stroke-width:1.5;"/>
    </g>
    <g id="line2d_26"/>
    <g id="text_16">
     <!-- Stra 4 -->
     <g transform="translate(227.909115 49.980469)scale(0.15 -0.15)">
      <use xlink:href="#DejaVuSans-83"/>
      <use x="63.476562" xlink:href="#DejaVuSans-116"/>
      <use x="102.685547" xlink:href="#DejaVuSans-114"/>
      <use x="143.798828" xlink:href="#DejaVuSans-97"/>
      <use x="205.078125" xlink:href="#DejaVuSans-32"/>
      <use x="236.865234" xlink:href="#DejaVuSans-52"/>
     </g>
    </g>
    <g id="line2d_27">
     <path d="M 307.268229 22.713281 
L 337.268229 22.713281 
" style="fill:none;stroke:#9467bd;stroke-linecap:square;stroke-width:1.5;"/>
    </g>
    <g id="line2d_28"/>
    <g id="text_17">
     <!-- Stra 5 -->
     <defs>
      <path d="M 10.796875 72.90625 
L 49.515625 72.90625 
L 49.515625 64.59375 
L 19.828125 64.59375 
L 19.828125 46.734375 
Q 21.96875 47.46875 24.109375 47.828125 
Q 26.265625 48.1875 28.421875 48.1875 
Q 40.625 48.1875 47.75 41.5 
Q 54.890625 34.8125 54.890625 23.390625 
Q 54.890625 11.625 47.5625 5.09375 
Q 40.234375 -1.421875 26.90625 -1.421875 
Q 22.3125 -1.421875 17.546875 -0.640625 
Q 12.796875 0.140625 7.71875 1.703125 
L 7.71875 11.625 
Q 12.109375 9.234375 16.796875 8.0625 
Q 21.484375 6.890625 26.703125 6.890625 
Q 35.15625 6.890625 40.078125 11.328125 
Q 45.015625 15.765625 45.015625 23.390625 
Q 45.015625 31 40.078125 35.4375 
Q 35.15625 39.890625 26.703125 39.890625 
Q 22.75 39.890625 18.8125 39.015625 
Q 14.890625 38.140625 10.796875 36.28125 
z
" id="DejaVuSans-53"/>
     </defs>
     <g transform="translate(349.268229 27.963281)scale(0.15 -0.15)">
      <use xlink:href="#DejaVuSans-83"/>
      <use x="63.476562" xlink:href="#DejaVuSans-116"/>
      <use x="102.685547" xlink:href="#DejaVuSans-114"/>
      <use x="143.798828" xlink:href="#DejaVuSans-97"/>
      <use x="205.078125" xlink:href="#DejaVuSans-32"/>
      <use x="236.865234" xlink:href="#DejaVuSans-53"/>
     </g>
    </g>
    <g id="line2d_29">
     <path d="M 307.268229 44.730469 
L 337.268229 44.730469 
" style="fill:none;stroke:#8c564b;stroke-linecap:square;stroke-width:1.5;"/>
    </g>
    <g id="line2d_30"/>
    <g id="text_18">
     <!-- Stra 6 -->
     <g transform="translate(349.268229 49.980469)scale(0.15 -0.15)">
      <use xlink:href="#DejaVuSans-83"/>
      <use x="63.476562" xlink:href="#DejaVuSans-116"/>
      <use x="102.685547" xlink:href="#DejaVuSans-114"/>
      <use x="143.798828" xlink:href="#DejaVuSans-97"/>
      <use x="205.078125" xlink:href="#DejaVuSans-32"/>
      <use x="236.865234" xlink:href="#DejaVuSans-54"/>
     </g>
    </g>
    <g id="line2d_31">
     <path d="M 428.627344 22.713281 
L 458.627344 22.713281 
" style="fill:none;stroke:#e377c2;stroke-linecap:square;stroke-width:1.5;"/>
    </g>
    <g id="line2d_32"/>
    <g id="text_19">
     <!-- Stra 7 -->
     <defs>
      <path d="M 8.203125 72.90625 
L 55.078125 72.90625 
L 55.078125 68.703125 
L 28.609375 0 
L 18.3125 0 
L 43.21875 64.59375 
L 8.203125 64.59375 
z
" id="DejaVuSans-55"/>
     </defs>
     <g transform="translate(470.627344 27.963281)scale(0.15 -0.15)">
      <use xlink:href="#DejaVuSans-83"/>
      <use x="63.476562" xlink:href="#DejaVuSans-116"/>
      <use x="102.685547" xlink:href="#DejaVuSans-114"/>
      <use x="143.798828" xlink:href="#DejaVuSans-97"/>
      <use x="205.078125" xlink:href="#DejaVuSans-32"/>
      <use x="236.865234" xlink:href="#DejaVuSans-55"/>
     </g>
    </g>
    <g id="line2d_33">
     <path d="M 428.627344 44.730469 
L 458.627344 44.730469 
" style="fill:none;stroke:#7f7f7f;stroke-linecap:square;stroke-width:1.5;"/>
    </g>
    <g id="line2d_34"/>
    <g id="text_20">
     <!-- Stra 8 -->
     <g transform="translate(470.627344 49.980469)scale(0.15 -0.15)">
      <use xlink:href="#DejaVuSans-83"/>
      <use x="63.476562" xlink:href="#DejaVuSans-116"/>
      <use x="102.685547" xlink:href="#DejaVuSans-114"/>
      <use x="143.798828" xlink:href="#DejaVuSans-97"/>
      <use x="205.078125" xlink:href="#DejaVuSans-32"/>
      <use x="236.865234" xlink:href="#DejaVuSans-56"/>
     </g>
    </g>
   </g>
  </g>
 </g>
 <defs>
  <clipPath id="p9fc02256b6">
   <rect height="298.96" width="478.15" x="51.05" y="66.6"/>
  </clipPath>
 </defs>
</svg>
