<?xml version="1.0" encoding="utf-8" standalone="no"?>
<!DOCTYPE svg PUBLIC "-//W3C//DTD SVG 1.1//EN"
  "http://www.w3.org/Graphics/SVG/1.1/DTD/svg11.dtd">
<!-- Created with matplotlib (https://matplotlib.org/) -->
<svg height="432pt" version="1.1" viewBox="0 0 540 432" width="540pt" xmlns="http://www.w3.org/2000/svg" xmlns:xlink="http://www.w3.org/1999/xlink">
 <defs>
  <style type="text/css">
*{stroke-linecap:butt;stroke-linejoin:round;}
  </style>
 </defs>
 <g id="figure_1">
  <g id="patch_1">
   <path d="M 0 432 
L 540 432 
L 540 0 
L 0 0 
z
" style="fill:#ffffff;"/>
  </g>
  <g id="axes_1">
   <g id="patch_2">
    <path d="M 71.66 365.56 
L 526.900425 365.56 
L 526.900425 10.8 
L 71.66 10.8 
z
" style="fill:#ffffff;"/>
   </g>
   <g id="patch_3">
    <path clip-path="url(#p87a47624ac)" d="M 92.352747 365.56 
L 95.670221 365.56 
L 95.670221 58.977284 
L 92.352747 58.977284 
z
" style="fill:url(#he05dfa0278);"/>
   </g>
   <g id="patch_4">
    <path clip-path="url(#p87a47624ac)" d="M 96.49959 365.56 
L 99.817064 365.56 
L 99.817064 121.545185 
L 96.49959 121.545185 
z
" style="fill:url(#he05dfa0278);"/>
   </g>
   <g id="patch_5">
    <path clip-path="url(#p87a47624ac)" d="M 100.646433 365.56 
L 103.963907 365.56 
L 103.963907 234.167407 
L 100.646433 234.167407 
z
" style="fill:url(#he05dfa0278);"/>
   </g>
   <g id="patch_6">
    <path clip-path="url(#p87a47624ac)" d="M 104.793276 365.56 
L 108.11075 365.56 
L 108.11075 146.572346 
L 104.793276 146.572346 
z
" style="fill:url(#he05dfa0278);"/>
   </g>
   <g id="patch_7">
    <path clip-path="url(#p87a47624ac)" d="M 108.940119 365.56 
L 112.257593 365.56 
L 112.257593 240.424198 
L 108.940119 240.424198 
z
" style="fill:url(#he05dfa0278);"/>
   </g>
   <g id="patch_8">
    <path clip-path="url(#p87a47624ac)" d="M 113.086962 365.56 
L 116.404436 365.56 
L 116.404436 190.369877 
L 113.086962 190.369877 
z
" style="fill:url(#he05dfa0278);"/>
   </g>
   <g id="patch_9">
    <path clip-path="url(#p87a47624ac)" d="M 117.233805 365.56 
L 120.551279 365.56 
L 120.551279 58.977284 
L 117.233805 58.977284 
z
" style="fill:url(#he05dfa0278);"/>
   </g>
   <g id="patch_10">
    <path clip-path="url(#p87a47624ac)" d="M 121.380648 365.56 
L 124.698122 365.56 
L 124.698122 184.113086 
L 121.380648 184.113086 
z
" style="fill:url(#he05dfa0278);"/>
   </g>
   <g id="patch_11">
    <path clip-path="url(#p87a47624ac)" d="M 125.527491 365.56 
L 128.844965 365.56 
L 128.844965 96.518025 
L 125.527491 96.518025 
z
" style="fill:url(#he05dfa0278);"/>
   </g>
   <g id="patch_12">
    <path clip-path="url(#p87a47624ac)" d="M 129.674334 365.56 
L 132.991808 365.56 
L 132.991808 159.085926 
L 129.674334 159.085926 
z
" style="fill:url(#he05dfa0278);"/>
   </g>
   <g id="patch_13">
    <path clip-path="url(#p87a47624ac)" d="M 133.821177 365.56 
L 137.138651 365.56 
L 137.138651 159.085926 
L 133.821177 159.085926 
z
" style="fill:url(#he05dfa0278);"/>
   </g>
   <g id="patch_14">
    <path clip-path="url(#p87a47624ac)" d="M 137.96802 365.56 
L 141.285494 365.56 
L 141.285494 102.774815 
L 137.96802 102.774815 
z
" style="fill:url(#he05dfa0278);"/>
   </g>
   <g id="patch_15">
    <path clip-path="url(#p87a47624ac)" d="M 142.114863 365.56 
L 145.432337 365.56 
L 145.432337 121.545185 
L 142.114863 121.545185 
z
" style="fill:url(#he05dfa0278);"/>
   </g>
   <g id="patch_16">
    <path clip-path="url(#p87a47624ac)" d="M 146.261706 365.56 
L 149.57918 365.56 
L 149.57918 209.140247 
L 146.261706 209.140247 
z
" style="fill:url(#he05dfa0278);"/>
   </g>
   <g id="patch_17">
    <path clip-path="url(#p87a47624ac)" d="M 150.408549 365.56 
L 153.726023 365.56 
L 153.726023 202.883457 
L 150.408549 202.883457 
z
" style="fill:url(#he05dfa0278);"/>
   </g>
   <g id="patch_18">
    <path clip-path="url(#p87a47624ac)" d="M 154.555392 365.56 
L 157.872866 365.56 
L 157.872866 102.774815 
L 154.555392 102.774815 
z
" style="fill:url(#he05dfa0278);"/>
   </g>
   <g id="patch_19">
    <path clip-path="url(#p87a47624ac)" d="M 158.702235 365.56 
L 162.019709 365.56 
L 162.019709 134.058765 
L 158.702235 134.058765 
z
" style="fill:url(#he05dfa0278);"/>
   </g>
   <g id="patch_20">
    <path clip-path="url(#p87a47624ac)" d="M 162.849078 365.56 
L 166.166552 365.56 
L 166.166552 240.424198 
L 162.849078 240.424198 
z
" style="fill:url(#he05dfa0278);"/>
   </g>
   <g id="patch_21">
    <path clip-path="url(#p87a47624ac)" d="M 166.995921 365.56 
L 170.313395 365.56 
L 170.313395 127.801975 
L 166.995921 127.801975 
z
" style="fill:url(#he05dfa0278);"/>
   </g>
   <g id="patch_22">
    <path clip-path="url(#p87a47624ac)" d="M 171.142764 365.56 
L 174.460238 365.56 
L 174.460238 134.058765 
L 171.142764 134.058765 
z
" style="fill:url(#he05dfa0278);"/>
   </g>
   <g id="patch_23">
    <path clip-path="url(#p87a47624ac)" d="M 175.289607 365.56 
L 178.607081 365.56 
L 178.607081 71.490864 
L 175.289607 71.490864 
z
" style="fill:url(#he05dfa0278);"/>
   </g>
   <g id="patch_24">
    <path clip-path="url(#p87a47624ac)" d="M 179.43645 365.56 
L 182.753924 365.56 
L 182.753924 127.801975 
L 179.43645 127.801975 
z
" style="fill:url(#he05dfa0278);"/>
   </g>
   <g id="patch_25">
    <path clip-path="url(#p87a47624ac)" d="M 183.583293 365.56 
L 186.900767 365.56 
L 186.900767 146.572346 
L 183.583293 146.572346 
z
" style="fill:url(#he05dfa0278);"/>
   </g>
   <g id="patch_26">
    <path clip-path="url(#p87a47624ac)" d="M 187.730136 365.56 
L 191.04761 365.56 
L 191.04761 96.518025 
L 187.730136 96.518025 
z
" style="fill:url(#he05dfa0278);"/>
   </g>
   <g id="patch_27">
    <path clip-path="url(#p87a47624ac)" d="M 191.876979 365.56 
L 195.194453 365.56 
L 195.194453 146.572346 
L 191.876979 146.572346 
z
" style="fill:url(#he05dfa0278);"/>
   </g>
   <g id="patch_28">
    <path clip-path="url(#p87a47624ac)" d="M 196.023822 365.56 
L 199.341296 365.56 
L 199.341296 177.856296 
L 196.023822 177.856296 
z
" style="fill:url(#he05dfa0278);"/>
   </g>
   <g id="patch_29">
    <path clip-path="url(#p87a47624ac)" d="M 200.170665 365.56 
L 203.488139 365.56 
L 203.488139 165.342716 
L 200.170665 165.342716 
z
" style="fill:url(#he05dfa0278);"/>
   </g>
   <g id="patch_30">
    <path clip-path="url(#p87a47624ac)" d="M 204.317508 365.56 
L 207.634982 365.56 
L 207.634982 171.599506 
L 204.317508 171.599506 
z
" style="fill:url(#he05dfa0278);"/>
   </g>
   <g id="patch_31">
    <path clip-path="url(#p87a47624ac)" d="M 208.464351 365.56 
L 211.781825 365.56 
L 211.781825 121.545185 
L 208.464351 121.545185 
z
" style="fill:url(#he05dfa0278);"/>
   </g>
   <g id="patch_32">
    <path clip-path="url(#p87a47624ac)" d="M 212.611194 365.56 
L 215.928668 365.56 
L 215.928668 209.140247 
L 212.611194 209.140247 
z
" style="fill:url(#he05dfa0278);"/>
   </g>
   <g id="patch_33">
    <path clip-path="url(#p87a47624ac)" d="M 216.758037 365.56 
L 220.075511 365.56 
L 220.075511 184.113086 
L 216.758037 184.113086 
z
" style="fill:url(#he05dfa0278);"/>
   </g>
   <g id="patch_34">
    <path clip-path="url(#p87a47624ac)" d="M 220.90488 365.56 
L 224.222354 365.56 
L 224.222354 221.653827 
L 220.90488 221.653827 
z
" style="fill:url(#he05dfa0278);"/>
   </g>
   <g id="patch_35">
    <path clip-path="url(#p87a47624ac)" d="M 225.051723 365.56 
L 228.369197 365.56 
L 228.369197 127.801975 
L 225.051723 127.801975 
z
" style="fill:url(#he05dfa0278);"/>
   </g>
   <g id="patch_36">
    <path clip-path="url(#p87a47624ac)" d="M 229.198566 365.56 
L 232.51604 365.56 
L 232.51604 140.315556 
L 229.198566 140.315556 
z
" style="fill:url(#he05dfa0278);"/>
   </g>
   <g id="patch_37">
    <path clip-path="url(#p87a47624ac)" d="M 233.345409 365.56 
L 236.662883 365.56 
L 236.662883 215.397037 
L 233.345409 215.397037 
z
" style="fill:url(#he05dfa0278);"/>
   </g>
   <g id="patch_38">
    <path clip-path="url(#p87a47624ac)" d="M 237.492252 365.56 
L 240.809726 365.56 
L 240.809726 196.626667 
L 237.492252 196.626667 
z
" style="fill:url(#he05dfa0278);"/>
   </g>
   <g id="patch_39">
    <path clip-path="url(#p87a47624ac)" d="M 241.639095 365.56 
L 244.956569 365.56 
L 244.956569 196.626667 
L 241.639095 196.626667 
z
" style="fill:url(#he05dfa0278);"/>
   </g>
   <g id="patch_40">
    <path clip-path="url(#p87a47624ac)" d="M 245.785938 365.56 
L 249.103412 365.56 
L 249.103412 190.369877 
L 245.785938 190.369877 
z
" style="fill:url(#he05dfa0278);"/>
   </g>
   <g id="patch_41">
    <path clip-path="url(#p87a47624ac)" d="M 249.932781 365.56 
L 253.250255 365.56 
L 253.250255 190.369877 
L 249.932781 190.369877 
z
" style="fill:url(#he05dfa0278);"/>
   </g>
   <g id="patch_42">
    <path clip-path="url(#p87a47624ac)" d="M 254.079624 365.56 
L 257.397098 365.56 
L 257.397098 152.829136 
L 254.079624 152.829136 
z
" style="fill:url(#he05dfa0278);"/>
   </g>
   <g id="patch_43">
    <path clip-path="url(#p87a47624ac)" d="M 258.226467 365.56 
L 261.543941 365.56 
L 261.543941 152.829136 
L 258.226467 152.829136 
z
" style="fill:url(#he05dfa0278);"/>
   </g>
   <g id="patch_44">
    <path clip-path="url(#p87a47624ac)" d="M 262.37331 365.56 
L 265.690784 365.56 
L 265.690784 65.234074 
L 262.37331 65.234074 
z
" style="fill:url(#he05dfa0278);"/>
   </g>
   <g id="patch_45">
    <path clip-path="url(#p87a47624ac)" d="M 266.520153 365.56 
L 269.837627 365.56 
L 269.837627 202.883457 
L 266.520153 202.883457 
z
" style="fill:url(#he05dfa0278);"/>
   </g>
   <g id="patch_46">
    <path clip-path="url(#p87a47624ac)" d="M 270.666996 365.56 
L 273.98447 365.56 
L 273.98447 134.058765 
L 270.666996 134.058765 
z
" style="fill:url(#he05dfa0278);"/>
   </g>
   <g id="patch_47">
    <path clip-path="url(#p87a47624ac)" d="M 274.813839 365.56 
L 278.131313 365.56 
L 278.131313 190.369877 
L 274.813839 190.369877 
z
" style="fill:url(#he05dfa0278);"/>
   </g>
   <g id="patch_48">
    <path clip-path="url(#p87a47624ac)" d="M 278.960682 365.56 
L 282.278156 365.56 
L 282.278156 209.140247 
L 278.960682 209.140247 
z
" style="fill:url(#he05dfa0278);"/>
   </g>
   <g id="patch_49">
    <path clip-path="url(#p87a47624ac)" d="M 283.107525 365.56 
L 286.424999 365.56 
L 286.424999 71.490864 
L 283.107525 71.490864 
z
" style="fill:url(#he05dfa0278);"/>
   </g>
   <g id="patch_50">
    <path clip-path="url(#p87a47624ac)" d="M 287.254368 365.56 
L 290.571842 365.56 
L 290.571842 246.680988 
L 287.254368 246.680988 
z
" style="fill:url(#he05dfa0278);"/>
   </g>
   <g id="patch_51">
    <path clip-path="url(#p87a47624ac)" d="M 291.401211 365.56 
L 294.718685 365.56 
L 294.718685 184.113086 
L 291.401211 184.113086 
z
" style="fill:url(#he05dfa0278);"/>
   </g>
   <g id="patch_52">
    <path clip-path="url(#p87a47624ac)" d="M 295.548054 365.56 
L 298.865528 365.56 
L 298.865528 215.397037 
L 295.548054 215.397037 
z
" style="fill:url(#he05dfa0278);"/>
   </g>
   <g id="patch_53">
    <path clip-path="url(#p87a47624ac)" d="M 299.694897 365.56 
L 303.012371 365.56 
L 303.012371 96.518025 
L 299.694897 96.518025 
z
" style="fill:url(#he05dfa0278);"/>
   </g>
   <g id="patch_54">
    <path clip-path="url(#p87a47624ac)" d="M 303.84174 365.56 
L 307.159214 365.56 
L 307.159214 177.856296 
L 303.84174 177.856296 
z
" style="fill:url(#he05dfa0278);"/>
   </g>
   <g id="patch_55">
    <path clip-path="url(#p87a47624ac)" d="M 307.988583 365.56 
L 311.306057 365.56 
L 311.306057 215.397037 
L 307.988583 215.397037 
z
" style="fill:url(#he05dfa0278);"/>
   </g>
   <g id="patch_56">
    <path clip-path="url(#p87a47624ac)" d="M 312.135426 365.56 
L 315.4529 365.56 
L 315.4529 190.369877 
L 312.135426 190.369877 
z
" style="fill:url(#he05dfa0278);"/>
   </g>
   <g id="patch_57">
    <path clip-path="url(#p87a47624ac)" d="M 316.282269 365.56 
L 319.599743 365.56 
L 319.599743 259.194568 
L 316.282269 259.194568 
z
" style="fill:url(#he05dfa0278);"/>
   </g>
   <g id="patch_58">
    <path clip-path="url(#p87a47624ac)" d="M 320.429112 365.56 
L 323.746586 365.56 
L 323.746586 102.774815 
L 320.429112 102.774815 
z
" style="fill:url(#he05dfa0278);"/>
   </g>
   <g id="patch_59">
    <path clip-path="url(#p87a47624ac)" d="M 324.575955 365.56 
L 327.893429 365.56 
L 327.893429 234.167407 
L 324.575955 234.167407 
z
" style="fill:url(#he05dfa0278);"/>
   </g>
   <g id="patch_60">
    <path clip-path="url(#p87a47624ac)" d="M 328.722798 365.56 
L 332.040272 365.56 
L 332.040272 159.085926 
L 328.722798 159.085926 
z
" style="fill:url(#he05dfa0278);"/>
   </g>
   <g id="patch_61">
    <path clip-path="url(#p87a47624ac)" d="M 332.869641 365.56 
L 336.187115 365.56 
L 336.187115 190.369877 
L 332.869641 190.369877 
z
" style="fill:url(#he05dfa0278);"/>
   </g>
   <g id="patch_62">
    <path clip-path="url(#p87a47624ac)" d="M 337.016484 365.56 
L 340.333958 365.56 
L 340.333958 196.626667 
L 337.016484 196.626667 
z
" style="fill:url(#he05dfa0278);"/>
   </g>
   <g id="patch_63">
    <path clip-path="url(#p87a47624ac)" d="M 341.163327 365.56 
L 344.480801 365.56 
L 344.480801 152.829136 
L 341.163327 152.829136 
z
" style="fill:url(#he05dfa0278);"/>
   </g>
   <g id="patch_64">
    <path clip-path="url(#p87a47624ac)" d="M 345.31017 365.56 
L 348.627644 365.56 
L 348.627644 190.369877 
L 345.31017 190.369877 
z
" style="fill:url(#he05dfa0278);"/>
   </g>
   <g id="patch_65">
    <path clip-path="url(#p87a47624ac)" d="M 349.457013 365.56 
L 352.774487 365.56 
L 352.774487 146.572346 
L 349.457013 146.572346 
z
" style="fill:url(#he05dfa0278);"/>
   </g>
   <g id="patch_66">
    <path clip-path="url(#p87a47624ac)" d="M 353.603856 365.56 
L 356.921331 365.56 
L 356.921331 246.680988 
L 353.603856 246.680988 
z
" style="fill:url(#he05dfa0278);"/>
   </g>
   <g id="patch_67">
    <path clip-path="url(#p87a47624ac)" d="M 357.750699 365.56 
L 361.068174 365.56 
L 361.068174 115.288395 
L 357.750699 115.288395 
z
" style="fill:url(#he05dfa0278);"/>
   </g>
   <g id="patch_68">
    <path clip-path="url(#p87a47624ac)" d="M 361.897542 365.56 
L 365.215017 365.56 
L 365.215017 134.058765 
L 361.897542 134.058765 
z
" style="fill:url(#he05dfa0278);"/>
   </g>
   <g id="patch_69">
    <path clip-path="url(#p87a47624ac)" d="M 366.044385 365.56 
L 369.36186 365.56 
L 369.36186 240.424198 
L 366.044385 240.424198 
z
" style="fill:url(#he05dfa0278);"/>
   </g>
   <g id="patch_70">
    <path clip-path="url(#p87a47624ac)" d="M 370.191228 365.56 
L 373.508703 365.56 
L 373.508703 177.856296 
L 370.191228 177.856296 
z
" style="fill:url(#he05dfa0278);"/>
   </g>
   <g id="patch_71">
    <path clip-path="url(#p87a47624ac)" d="M 374.338071 365.56 
L 377.655546 365.56 
L 377.655546 90.261235 
L 374.338071 90.261235 
z
" style="fill:url(#he05dfa0278);"/>
   </g>
   <g id="patch_72">
    <path clip-path="url(#p87a47624ac)" d="M 378.484914 365.56 
L 381.802389 365.56 
L 381.802389 177.856296 
L 378.484914 177.856296 
z
" style="fill:url(#he05dfa0278);"/>
   </g>
   <g id="patch_73">
    <path clip-path="url(#p87a47624ac)" d="M 382.631757 365.56 
L 385.949232 365.56 
L 385.949232 152.829136 
L 382.631757 152.829136 
z
" style="fill:url(#he05dfa0278);"/>
   </g>
   <g id="patch_74">
    <path clip-path="url(#p87a47624ac)" d="M 386.7786 365.56 
L 390.096075 365.56 
L 390.096075 196.626667 
L 386.7786 196.626667 
z
" style="fill:url(#he05dfa0278);"/>
   </g>
   <g id="patch_75">
    <path clip-path="url(#p87a47624ac)" d="M 390.925443 365.56 
L 394.242918 365.56 
L 394.242918 65.234074 
L 390.925443 65.234074 
z
" style="fill:url(#he05dfa0278);"/>
   </g>
   <g id="patch_76">
    <path clip-path="url(#p87a47624ac)" d="M 395.072286 365.56 
L 398.389761 365.56 
L 398.389761 177.856296 
L 395.072286 177.856296 
z
" style="fill:url(#he05dfa0278);"/>
   </g>
   <g id="patch_77">
    <path clip-path="url(#p87a47624ac)" d="M 399.219129 365.56 
L 402.536604 365.56 
L 402.536604 121.545185 
L 399.219129 121.545185 
z
" style="fill:url(#he05dfa0278);"/>
   </g>
   <g id="patch_78">
    <path clip-path="url(#p87a47624ac)" d="M 403.365972 365.56 
L 406.683447 365.56 
L 406.683447 265.451358 
L 403.365972 265.451358 
z
" style="fill:url(#he05dfa0278);"/>
   </g>
   <g id="patch_79">
    <path clip-path="url(#p87a47624ac)" d="M 407.512815 365.56 
L 410.83029 365.56 
L 410.83029 127.801975 
L 407.512815 127.801975 
z
" style="fill:url(#he05dfa0278);"/>
   </g>
   <g id="patch_80">
    <path clip-path="url(#p87a47624ac)" d="M 411.659658 365.56 
L 414.977133 365.56 
L 414.977133 152.829136 
L 411.659658 152.829136 
z
" style="fill:url(#he05dfa0278);"/>
   </g>
   <g id="patch_81">
    <path clip-path="url(#p87a47624ac)" d="M 415.806501 365.56 
L 419.123976 365.56 
L 419.123976 221.653827 
L 415.806501 221.653827 
z
" style="fill:url(#he05dfa0278);"/>
   </g>
   <g id="patch_82">
    <path clip-path="url(#p87a47624ac)" d="M 419.953344 365.56 
L 423.270819 365.56 
L 423.270819 127.801975 
L 419.953344 127.801975 
z
" style="fill:url(#he05dfa0278);"/>
   </g>
   <g id="patch_83">
    <path clip-path="url(#p87a47624ac)" d="M 424.100187 365.56 
L 427.417662 365.56 
L 427.417662 140.315556 
L 424.100187 140.315556 
z
" style="fill:url(#he05dfa0278);"/>
   </g>
   <g id="patch_84">
    <path clip-path="url(#p87a47624ac)" d="M 428.24703 365.56 
L 431.564505 365.56 
L 431.564505 52.720494 
L 428.24703 52.720494 
z
" style="fill:url(#he05dfa0278);"/>
   </g>
   <g id="patch_85">
    <path clip-path="url(#p87a47624ac)" d="M 432.393873 365.56 
L 435.711348 365.56 
L 435.711348 171.599506 
L 432.393873 171.599506 
z
" style="fill:url(#he05dfa0278);"/>
   </g>
   <g id="patch_86">
    <path clip-path="url(#p87a47624ac)" d="M 436.540716 365.56 
L 439.858191 365.56 
L 439.858191 115.288395 
L 436.540716 115.288395 
z
" style="fill:url(#he05dfa0278);"/>
   </g>
   <g id="patch_87">
    <path clip-path="url(#p87a47624ac)" d="M 440.687559 365.56 
L 444.005034 365.56 
L 444.005034 58.977284 
L 440.687559 58.977284 
z
" style="fill:url(#he05dfa0278);"/>
   </g>
   <g id="patch_88">
    <path clip-path="url(#p87a47624ac)" d="M 444.834402 365.56 
L 448.151877 365.56 
L 448.151877 109.031605 
L 444.834402 109.031605 
z
" style="fill:url(#he05dfa0278);"/>
   </g>
   <g id="patch_89">
    <path clip-path="url(#p87a47624ac)" d="M 448.981245 365.56 
L 452.29872 365.56 
L 452.29872 140.315556 
L 448.981245 140.315556 
z
" style="fill:url(#he05dfa0278);"/>
   </g>
   <g id="patch_90">
    <path clip-path="url(#p87a47624ac)" d="M 453.128088 365.56 
L 456.445563 365.56 
L 456.445563 271.708148 
L 453.128088 271.708148 
z
" style="fill:url(#he05dfa0278);"/>
   </g>
   <g id="patch_91">
    <path clip-path="url(#p87a47624ac)" d="M 457.274931 365.56 
L 460.592406 365.56 
L 460.592406 215.397037 
L 457.274931 215.397037 
z
" style="fill:url(#he05dfa0278);"/>
   </g>
   <g id="patch_92">
    <path clip-path="url(#p87a47624ac)" d="M 461.421774 365.56 
L 464.739249 365.56 
L 464.739249 115.288395 
L 461.421774 115.288395 
z
" style="fill:url(#he05dfa0278);"/>
   </g>
   <g id="patch_93">
    <path clip-path="url(#p87a47624ac)" d="M 465.568617 365.56 
L 468.886092 365.56 
L 468.886092 202.883457 
L 465.568617 202.883457 
z
" style="fill:url(#he05dfa0278);"/>
   </g>
   <g id="patch_94">
    <path clip-path="url(#p87a47624ac)" d="M 469.71546 365.56 
L 473.032935 365.56 
L 473.032935 184.113086 
L 469.71546 184.113086 
z
" style="fill:url(#he05dfa0278);"/>
   </g>
   <g id="patch_95">
    <path clip-path="url(#p87a47624ac)" d="M 473.862303 365.56 
L 477.179778 365.56 
L 477.179778 52.720494 
L 473.862303 52.720494 
z
" style="fill:url(#he05dfa0278);"/>
   </g>
   <g id="patch_96">
    <path clip-path="url(#p87a47624ac)" d="M 478.009146 365.56 
L 481.326621 365.56 
L 481.326621 146.572346 
L 478.009146 146.572346 
z
" style="fill:url(#he05dfa0278);"/>
   </g>
   <g id="patch_97">
    <path clip-path="url(#p87a47624ac)" d="M 482.155989 365.56 
L 485.473464 365.56 
L 485.473464 221.653827 
L 482.155989 221.653827 
z
" style="fill:url(#he05dfa0278);"/>
   </g>
   <g id="patch_98">
    <path clip-path="url(#p87a47624ac)" d="M 486.302832 365.56 
L 489.620307 365.56 
L 489.620307 27.693333 
L 486.302832 27.693333 
z
" style="fill:url(#he05dfa0278);"/>
   </g>
   <g id="patch_99">
    <path clip-path="url(#p87a47624ac)" d="M 490.449675 365.56 
L 493.76715 365.56 
L 493.76715 246.680988 
L 490.449675 246.680988 
z
" style="fill:url(#he05dfa0278);"/>
   </g>
   <g id="patch_100">
    <path clip-path="url(#p87a47624ac)" d="M 494.596518 365.56 
L 497.913993 365.56 
L 497.913993 71.490864 
L 494.596518 71.490864 
z
" style="fill:url(#he05dfa0278);"/>
   </g>
   <g id="patch_101">
    <path clip-path="url(#p87a47624ac)" d="M 498.743361 365.56 
L 502.060836 365.56 
L 502.060836 127.801975 
L 498.743361 127.801975 
z
" style="fill:url(#he05dfa0278);"/>
   </g>
   <g id="patch_102">
    <path clip-path="url(#p87a47624ac)" d="M 502.890204 365.56 
L 506.207679 365.56 
L 506.207679 152.829136 
L 502.890204 152.829136 
z
" style="fill:url(#he05dfa0278);"/>
   </g>
   <g id="matplotlib.axis_1">
    <g id="xtick_1">
     <g id="line2d_1">
      <defs>
       <path d="M 0 0 
L 0 3.5 
" id="m6f4d55a907" style="stroke:#000000;stroke-width:0.8;"/>
      </defs>
      <g>
       <use style="stroke:#000000;stroke-width:0.8;" x="94.011484" xlink:href="#m6f4d55a907" y="365.56"/>
      </g>
     </g>
     <g id="text_1">
      <!-- 0 -->
      <defs>
       <path d="M 31.78125 66.40625 
Q 24.171875 66.40625 20.328125 58.90625 
Q 16.5 51.421875 16.5 36.375 
Q 16.5 21.390625 20.328125 13.890625 
Q 24.171875 6.390625 31.78125 6.390625 
Q 39.453125 6.390625 43.28125 13.890625 
Q 47.125 21.390625 47.125 36.375 
Q 47.125 51.421875 43.28125 58.90625 
Q 39.453125 66.40625 31.78125 66.40625 
z
M 31.78125 74.21875 
Q 44.046875 74.21875 50.515625 64.515625 
Q 56.984375 54.828125 56.984375 36.375 
Q 56.984375 17.96875 50.515625 8.265625 
Q 44.046875 -1.421875 31.78125 -1.421875 
Q 19.53125 -1.421875 13.0625 8.265625 
Q 6.59375 17.96875 6.59375 36.375 
Q 6.59375 54.828125 13.0625 64.515625 
Q 19.53125 74.21875 31.78125 74.21875 
z
" id="DejaVuSans-48"/>
      </defs>
      <g transform="translate(87.648984 387.756875)scale(0.2 -0.2)">
       <use xlink:href="#DejaVuSans-48"/>
      </g>
     </g>
    </g>
    <g id="xtick_2">
     <g id="line2d_2">
      <g>
       <use style="stroke:#000000;stroke-width:0.8;" x="176.948344" xlink:href="#m6f4d55a907" y="365.56"/>
      </g>
     </g>
     <g id="text_2">
      <!-- 20 -->
      <defs>
       <path d="M 19.1875 8.296875 
L 53.609375 8.296875 
L 53.609375 0 
L 7.328125 0 
L 7.328125 8.296875 
Q 12.9375 14.109375 22.625 23.890625 
Q 32.328125 33.6875 34.8125 36.53125 
Q 39.546875 41.84375 41.421875 45.53125 
Q 43.3125 49.21875 43.3125 52.78125 
Q 43.3125 58.59375 39.234375 62.25 
Q 35.15625 65.921875 28.609375 65.921875 
Q 23.96875 65.921875 18.8125 64.3125 
Q 13.671875 62.703125 7.8125 59.421875 
L 7.8125 69.390625 
Q 13.765625 71.78125 18.9375 73 
Q 24.125 74.21875 28.421875 74.21875 
Q 39.75 74.21875 46.484375 68.546875 
Q 53.21875 62.890625 53.21875 53.421875 
Q 53.21875 48.921875 51.53125 44.890625 
Q 49.859375 40.875 45.40625 35.40625 
Q 44.1875 33.984375 37.640625 27.21875 
Q 31.109375 20.453125 19.1875 8.296875 
z
" id="DejaVuSans-50"/>
      </defs>
      <g transform="translate(164.223344 387.756875)scale(0.2 -0.2)">
       <use xlink:href="#DejaVuSans-50"/>
       <use x="63.623047" xlink:href="#DejaVuSans-48"/>
      </g>
     </g>
    </g>
    <g id="xtick_3">
     <g id="line2d_3">
      <g>
       <use style="stroke:#000000;stroke-width:0.8;" x="259.885204" xlink:href="#m6f4d55a907" y="365.56"/>
      </g>
     </g>
     <g id="text_3">
      <!-- 40 -->
      <defs>
       <path d="M 37.796875 64.3125 
L 12.890625 25.390625 
L 37.796875 25.390625 
z
M 35.203125 72.90625 
L 47.609375 72.90625 
L 47.609375 25.390625 
L 58.015625 25.390625 
L 58.015625 17.1875 
L 47.609375 17.1875 
L 47.609375 0 
L 37.796875 0 
L 37.796875 17.1875 
L 4.890625 17.1875 
L 4.890625 26.703125 
z
" id="DejaVuSans-52"/>
      </defs>
      <g transform="translate(247.160204 387.756875)scale(0.2 -0.2)">
       <use xlink:href="#DejaVuSans-52"/>
       <use x="63.623047" xlink:href="#DejaVuSans-48"/>
      </g>
     </g>
    </g>
    <g id="xtick_4">
     <g id="line2d_4">
      <g>
       <use style="stroke:#000000;stroke-width:0.8;" x="342.822064" xlink:href="#m6f4d55a907" y="365.56"/>
      </g>
     </g>
     <g id="text_4">
      <!-- 60 -->
      <defs>
       <path d="M 33.015625 40.375 
Q 26.375 40.375 22.484375 35.828125 
Q 18.609375 31.296875 18.609375 23.390625 
Q 18.609375 15.53125 22.484375 10.953125 
Q 26.375 6.390625 33.015625 6.390625 
Q 39.65625 6.390625 43.53125 10.953125 
Q 47.40625 15.53125 47.40625 23.390625 
Q 47.40625 31.296875 43.53125 35.828125 
Q 39.65625 40.375 33.015625 40.375 
z
M 52.59375 71.296875 
L 52.59375 62.3125 
Q 48.875 64.0625 45.09375 64.984375 
Q 41.3125 65.921875 37.59375 65.921875 
Q 27.828125 65.921875 22.671875 59.328125 
Q 17.53125 52.734375 16.796875 39.40625 
Q 19.671875 43.65625 24.015625 45.921875 
Q 28.375 48.1875 33.59375 48.1875 
Q 44.578125 48.1875 50.953125 41.515625 
Q 57.328125 34.859375 57.328125 23.390625 
Q 57.328125 12.15625 50.6875 5.359375 
Q 44.046875 -1.421875 33.015625 -1.421875 
Q 20.359375 -1.421875 13.671875 8.265625 
Q 6.984375 17.96875 6.984375 36.375 
Q 6.984375 53.65625 15.1875 63.9375 
Q 23.390625 74.21875 37.203125 74.21875 
Q 40.921875 74.21875 44.703125 73.484375 
Q 48.484375 72.75 52.59375 71.296875 
z
" id="DejaVuSans-54"/>
      </defs>
      <g transform="translate(330.097064 387.756875)scale(0.2 -0.2)">
       <use xlink:href="#DejaVuSans-54"/>
       <use x="63.623047" xlink:href="#DejaVuSans-48"/>
      </g>
     </g>
    </g>
    <g id="xtick_5">
     <g id="line2d_5">
      <g>
       <use style="stroke:#000000;stroke-width:0.8;" x="425.758924" xlink:href="#m6f4d55a907" y="365.56"/>
      </g>
     </g>
     <g id="text_5">
      <!-- 80 -->
      <defs>
       <path d="M 31.78125 34.625 
Q 24.75 34.625 20.71875 30.859375 
Q 16.703125 27.09375 16.703125 20.515625 
Q 16.703125 13.921875 20.71875 10.15625 
Q 24.75 6.390625 31.78125 6.390625 
Q 38.8125 6.390625 42.859375 10.171875 
Q 46.921875 13.96875 46.921875 20.515625 
Q 46.921875 27.09375 42.890625 30.859375 
Q 38.875 34.625 31.78125 34.625 
z
M 21.921875 38.8125 
Q 15.578125 40.375 12.03125 44.71875 
Q 8.5 49.078125 8.5 55.328125 
Q 8.5 64.0625 14.71875 69.140625 
Q 20.953125 74.21875 31.78125 74.21875 
Q 42.671875 74.21875 48.875 69.140625 
Q 55.078125 64.0625 55.078125 55.328125 
Q 55.078125 49.078125 51.53125 44.71875 
Q 48 40.375 41.703125 38.8125 
Q 48.828125 37.15625 52.796875 32.3125 
Q 56.78125 27.484375 56.78125 20.515625 
Q 56.78125 9.90625 50.3125 4.234375 
Q 43.84375 -1.421875 31.78125 -1.421875 
Q 19.734375 -1.421875 13.25 4.234375 
Q 6.78125 9.90625 6.78125 20.515625 
Q 6.78125 27.484375 10.78125 32.3125 
Q 14.796875 37.15625 21.921875 38.8125 
z
M 18.3125 54.390625 
Q 18.3125 48.734375 21.84375 45.5625 
Q 25.390625 42.390625 31.78125 42.390625 
Q 38.140625 42.390625 41.71875 45.5625 
Q 45.3125 48.734375 45.3125 54.390625 
Q 45.3125 60.0625 41.71875 63.234375 
Q 38.140625 66.40625 31.78125 66.40625 
Q 25.390625 66.40625 21.84375 63.234375 
Q 18.3125 60.0625 18.3125 54.390625 
z
" id="DejaVuSans-56"/>
      </defs>
      <g transform="translate(413.033924 387.756875)scale(0.2 -0.2)">
       <use xlink:href="#DejaVuSans-56"/>
       <use x="63.623047" xlink:href="#DejaVuSans-48"/>
      </g>
     </g>
    </g>
    <g id="xtick_6">
     <g id="line2d_6">
      <g>
       <use style="stroke:#000000;stroke-width:0.8;" x="508.695785" xlink:href="#m6f4d55a907" y="365.56"/>
      </g>
     </g>
     <g id="text_6">
      <!-- 100 -->
      <defs>
       <path d="M 12.40625 8.296875 
L 28.515625 8.296875 
L 28.515625 63.921875 
L 10.984375 60.40625 
L 10.984375 69.390625 
L 28.421875 72.90625 
L 38.28125 72.90625 
L 38.28125 8.296875 
L 54.390625 8.296875 
L 54.390625 0 
L 12.40625 0 
z
" id="DejaVuSans-49"/>
      </defs>
      <g transform="translate(489.608285 387.756875)scale(0.2 -0.2)">
       <use xlink:href="#DejaVuSans-49"/>
       <use x="63.623047" xlink:href="#DejaVuSans-48"/>
       <use x="127.246094" xlink:href="#DejaVuSans-48"/>
      </g>
     </g>
    </g>
    <g id="text_7">
     <!-- Simulation ID -->
     <defs>
      <path d="M 53.515625 70.515625 
L 53.515625 60.890625 
Q 47.90625 63.578125 42.921875 64.890625 
Q 37.9375 66.21875 33.296875 66.21875 
Q 25.25 66.21875 20.875 63.09375 
Q 16.5 59.96875 16.5 54.203125 
Q 16.5 49.359375 19.40625 46.890625 
Q 22.3125 44.4375 30.421875 42.921875 
L 36.375 41.703125 
Q 47.40625 39.59375 52.65625 34.296875 
Q 57.90625 29 57.90625 20.125 
Q 57.90625 9.515625 50.796875 4.046875 
Q 43.703125 -1.421875 29.984375 -1.421875 
Q 24.8125 -1.421875 18.96875 -0.25 
Q 13.140625 0.921875 6.890625 3.21875 
L 6.890625 13.375 
Q 12.890625 10.015625 18.65625 8.296875 
Q 24.421875 6.59375 29.984375 6.59375 
Q 38.421875 6.59375 43.015625 9.90625 
Q 47.609375 13.234375 47.609375 19.390625 
Q 47.609375 24.75 44.3125 27.78125 
Q 41.015625 30.8125 33.5 32.328125 
L 27.484375 33.5 
Q 16.453125 35.6875 11.515625 40.375 
Q 6.59375 45.0625 6.59375 53.421875 
Q 6.59375 63.09375 13.40625 68.65625 
Q 20.21875 74.21875 32.171875 74.21875 
Q 37.3125 74.21875 42.625 73.28125 
Q 47.953125 72.359375 53.515625 70.515625 
z
" id="DejaVuSans-83"/>
      <path d="M 9.421875 54.6875 
L 18.40625 54.6875 
L 18.40625 0 
L 9.421875 0 
z
M 9.421875 75.984375 
L 18.40625 75.984375 
L 18.40625 64.59375 
L 9.421875 64.59375 
z
" id="DejaVuSans-105"/>
      <path d="M 52 44.1875 
Q 55.375 50.25 60.0625 53.125 
Q 64.75 56 71.09375 56 
Q 79.640625 56 84.28125 50.015625 
Q 88.921875 44.046875 88.921875 33.015625 
L 88.921875 0 
L 79.890625 0 
L 79.890625 32.71875 
Q 79.890625 40.578125 77.09375 44.375 
Q 74.3125 48.1875 68.609375 48.1875 
Q 61.625 48.1875 57.5625 43.546875 
Q 53.515625 38.921875 53.515625 30.90625 
L 53.515625 0 
L 44.484375 0 
L 44.484375 32.71875 
Q 44.484375 40.625 41.703125 44.40625 
Q 38.921875 48.1875 33.109375 48.1875 
Q 26.21875 48.1875 22.15625 43.53125 
Q 18.109375 38.875 18.109375 30.90625 
L 18.109375 0 
L 9.078125 0 
L 9.078125 54.6875 
L 18.109375 54.6875 
L 18.109375 46.1875 
Q 21.1875 51.21875 25.484375 53.609375 
Q 29.78125 56 35.6875 56 
Q 41.65625 56 45.828125 52.96875 
Q 50 49.953125 52 44.1875 
z
" id="DejaVuSans-109"/>
      <path d="M 8.5 21.578125 
L 8.5 54.6875 
L 17.484375 54.6875 
L 17.484375 21.921875 
Q 17.484375 14.15625 20.5 10.265625 
Q 23.53125 6.390625 29.59375 6.390625 
Q 36.859375 6.390625 41.078125 11.03125 
Q 45.3125 15.671875 45.3125 23.6875 
L 45.3125 54.6875 
L 54.296875 54.6875 
L 54.296875 0 
L 45.3125 0 
L 45.3125 8.40625 
Q 42.046875 3.421875 37.71875 1 
Q 33.40625 -1.421875 27.6875 -1.421875 
Q 18.265625 -1.421875 13.375 4.4375 
Q 8.5 10.296875 8.5 21.578125 
z
M 31.109375 56 
z
" id="DejaVuSans-117"/>
      <path d="M 9.421875 75.984375 
L 18.40625 75.984375 
L 18.40625 0 
L 9.421875 0 
z
" id="DejaVuSans-108"/>
      <path d="M 34.28125 27.484375 
Q 23.390625 27.484375 19.1875 25 
Q 14.984375 22.515625 14.984375 16.5 
Q 14.984375 11.71875 18.140625 8.90625 
Q 21.296875 6.109375 26.703125 6.109375 
Q 34.1875 6.109375 38.703125 11.40625 
Q 43.21875 16.703125 43.21875 25.484375 
L 43.21875 27.484375 
z
M 52.203125 31.203125 
L 52.203125 0 
L 43.21875 0 
L 43.21875 8.296875 
Q 40.140625 3.328125 35.546875 0.953125 
Q 30.953125 -1.421875 24.3125 -1.421875 
Q 15.921875 -1.421875 10.953125 3.296875 
Q 6 8.015625 6 15.921875 
Q 6 25.140625 12.171875 29.828125 
Q 18.359375 34.515625 30.609375 34.515625 
L 43.21875 34.515625 
L 43.21875 35.40625 
Q 43.21875 41.609375 39.140625 45 
Q 35.0625 48.390625 27.6875 48.390625 
Q 23 48.390625 18.546875 47.265625 
Q 14.109375 46.140625 10.015625 43.890625 
L 10.015625 52.203125 
Q 14.9375 54.109375 19.578125 55.046875 
Q 24.21875 56 28.609375 56 
Q 40.484375 56 46.34375 49.84375 
Q 52.203125 43.703125 52.203125 31.203125 
z
" id="DejaVuSans-97"/>
      <path d="M 18.3125 70.21875 
L 18.3125 54.6875 
L 36.8125 54.6875 
L 36.8125 47.703125 
L 18.3125 47.703125 
L 18.3125 18.015625 
Q 18.3125 11.328125 20.140625 9.421875 
Q 21.96875 7.515625 27.59375 7.515625 
L 36.8125 7.515625 
L 36.8125 0 
L 27.59375 0 
Q 17.1875 0 13.234375 3.875 
Q 9.28125 7.765625 9.28125 18.015625 
L 9.28125 47.703125 
L 2.6875 47.703125 
L 2.6875 54.6875 
L 9.28125 54.6875 
L 9.28125 70.21875 
z
" id="DejaVuSans-116"/>
      <path d="M 30.609375 48.390625 
Q 23.390625 48.390625 19.1875 42.75 
Q 14.984375 37.109375 14.984375 27.296875 
Q 14.984375 17.484375 19.15625 11.84375 
Q 23.34375 6.203125 30.609375 6.203125 
Q 37.796875 6.203125 41.984375 11.859375 
Q 46.1875 17.53125 46.1875 27.296875 
Q 46.1875 37.015625 41.984375 42.703125 
Q 37.796875 48.390625 30.609375 48.390625 
z
M 30.609375 56 
Q 42.328125 56 49.015625 48.375 
Q 55.71875 40.765625 55.71875 27.296875 
Q 55.71875 13.875 49.015625 6.21875 
Q 42.328125 -1.421875 30.609375 -1.421875 
Q 18.84375 -1.421875 12.171875 6.21875 
Q 5.515625 13.875 5.515625 27.296875 
Q 5.515625 40.765625 12.171875 48.375 
Q 18.84375 56 30.609375 56 
z
" id="DejaVuSans-111"/>
      <path d="M 54.890625 33.015625 
L 54.890625 0 
L 45.90625 0 
L 45.90625 32.71875 
Q 45.90625 40.484375 42.875 44.328125 
Q 39.84375 48.1875 33.796875 48.1875 
Q 26.515625 48.1875 22.3125 43.546875 
Q 18.109375 38.921875 18.109375 30.90625 
L 18.109375 0 
L 9.078125 0 
L 9.078125 54.6875 
L 18.109375 54.6875 
L 18.109375 46.1875 
Q 21.34375 51.125 25.703125 53.5625 
Q 30.078125 56 35.796875 56 
Q 45.21875 56 50.046875 50.171875 
Q 54.890625 44.34375 54.890625 33.015625 
z
" id="DejaVuSans-110"/>
      <path id="DejaVuSans-32"/>
      <path d="M 9.8125 72.90625 
L 19.671875 72.90625 
L 19.671875 0 
L 9.8125 0 
z
" id="DejaVuSans-73"/>
      <path d="M 19.671875 64.796875 
L 19.671875 8.109375 
L 31.59375 8.109375 
Q 46.6875 8.109375 53.6875 14.9375 
Q 60.6875 21.78125 60.6875 36.53125 
Q 60.6875 51.171875 53.6875 57.984375 
Q 46.6875 64.796875 31.59375 64.796875 
z
M 9.8125 72.90625 
L 30.078125 72.90625 
Q 51.265625 72.90625 61.171875 64.09375 
Q 71.09375 55.28125 71.09375 36.53125 
Q 71.09375 17.671875 61.125 8.828125 
Q 51.171875 0 30.078125 0 
L 9.8125 0 
z
" id="DejaVuSans-68"/>
     </defs>
     <g transform="translate(215.413025 414.912344)scale(0.25 -0.25)">
      <use xlink:href="#DejaVuSans-83"/>
      <use x="63.476562" xlink:href="#DejaVuSans-105"/>
      <use x="91.259766" xlink:href="#DejaVuSans-109"/>
      <use x="188.671875" xlink:href="#DejaVuSans-117"/>
      <use x="252.050781" xlink:href="#DejaVuSans-108"/>
      <use x="279.833984" xlink:href="#DejaVuSans-97"/>
      <use x="341.113281" xlink:href="#DejaVuSans-116"/>
      <use x="380.322266" xlink:href="#DejaVuSans-105"/>
      <use x="408.105469" xlink:href="#DejaVuSans-111"/>
      <use x="469.287109" xlink:href="#DejaVuSans-110"/>
      <use x="532.666016" xlink:href="#DejaVuSans-32"/>
      <use x="564.453125" xlink:href="#DejaVuSans-73"/>
      <use x="593.945312" xlink:href="#DejaVuSans-68"/>
     </g>
    </g>
   </g>
   <g id="matplotlib.axis_2">
    <g id="ytick_1">
     <g id="line2d_7">
      <defs>
       <path d="M 0 0 
L -3.5 0 
" id="m0684c0df6c" style="stroke:#000000;stroke-width:0.8;"/>
      </defs>
      <g>
       <use style="stroke:#000000;stroke-width:0.8;" x="71.66" xlink:href="#m0684c0df6c" y="365.56"/>
      </g>
     </g>
     <g id="text_8">
      <!-- 0 -->
      <g transform="translate(51.935 373.158437)scale(0.2 -0.2)">
       <use xlink:href="#DejaVuSans-48"/>
      </g>
     </g>
    </g>
    <g id="ytick_2">
     <g id="line2d_8">
      <g>
       <use style="stroke:#000000;stroke-width:0.8;" x="71.66" xlink:href="#m0684c0df6c" y="302.992099"/>
      </g>
     </g>
     <g id="text_9">
      <!-- 10 -->
      <g transform="translate(39.21 310.590536)scale(0.2 -0.2)">
       <use xlink:href="#DejaVuSans-49"/>
       <use x="63.623047" xlink:href="#DejaVuSans-48"/>
      </g>
     </g>
    </g>
    <g id="ytick_3">
     <g id="line2d_9">
      <g>
       <use style="stroke:#000000;stroke-width:0.8;" x="71.66" xlink:href="#m0684c0df6c" y="240.424198"/>
      </g>
     </g>
     <g id="text_10">
      <!-- 20 -->
      <g transform="translate(39.21 248.022635)scale(0.2 -0.2)">
       <use xlink:href="#DejaVuSans-50"/>
       <use x="63.623047" xlink:href="#DejaVuSans-48"/>
      </g>
     </g>
    </g>
    <g id="ytick_4">
     <g id="line2d_10">
      <g>
       <use style="stroke:#000000;stroke-width:0.8;" x="71.66" xlink:href="#m0684c0df6c" y="177.856296"/>
      </g>
     </g>
     <g id="text_11">
      <!-- 30 -->
      <defs>
       <path d="M 40.578125 39.3125 
Q 47.65625 37.796875 51.625 33 
Q 55.609375 28.21875 55.609375 21.1875 
Q 55.609375 10.40625 48.1875 4.484375 
Q 40.765625 -1.421875 27.09375 -1.421875 
Q 22.515625 -1.421875 17.65625 -0.515625 
Q 12.796875 0.390625 7.625 2.203125 
L 7.625 11.71875 
Q 11.71875 9.328125 16.59375 8.109375 
Q 21.484375 6.890625 26.8125 6.890625 
Q 36.078125 6.890625 40.9375 10.546875 
Q 45.796875 14.203125 45.796875 21.1875 
Q 45.796875 27.640625 41.28125 31.265625 
Q 36.765625 34.90625 28.71875 34.90625 
L 20.21875 34.90625 
L 20.21875 43.015625 
L 29.109375 43.015625 
Q 36.375 43.015625 40.234375 45.921875 
Q 44.09375 48.828125 44.09375 54.296875 
Q 44.09375 59.90625 40.109375 62.90625 
Q 36.140625 65.921875 28.71875 65.921875 
Q 24.65625 65.921875 20.015625 65.03125 
Q 15.375 64.15625 9.8125 62.3125 
L 9.8125 71.09375 
Q 15.4375 72.65625 20.34375 73.4375 
Q 25.25 74.21875 29.59375 74.21875 
Q 40.828125 74.21875 47.359375 69.109375 
Q 53.90625 64.015625 53.90625 55.328125 
Q 53.90625 49.265625 50.4375 45.09375 
Q 46.96875 40.921875 40.578125 39.3125 
z
" id="DejaVuSans-51"/>
      </defs>
      <g transform="translate(39.21 185.454734)scale(0.2 -0.2)">
       <use xlink:href="#DejaVuSans-51"/>
       <use x="63.623047" xlink:href="#DejaVuSans-48"/>
      </g>
     </g>
    </g>
    <g id="ytick_5">
     <g id="line2d_11">
      <g>
       <use style="stroke:#000000;stroke-width:0.8;" x="71.66" xlink:href="#m0684c0df6c" y="115.288395"/>
      </g>
     </g>
     <g id="text_12">
      <!-- 40 -->
      <g transform="translate(39.21 122.886833)scale(0.2 -0.2)">
       <use xlink:href="#DejaVuSans-52"/>
       <use x="63.623047" xlink:href="#DejaVuSans-48"/>
      </g>
     </g>
    </g>
    <g id="ytick_6">
     <g id="line2d_12">
      <g>
       <use style="stroke:#000000;stroke-width:0.8;" x="71.66" xlink:href="#m0684c0df6c" y="52.720494"/>
      </g>
     </g>
     <g id="text_13">
      <!-- 50 -->
      <defs>
       <path d="M 10.796875 72.90625 
L 49.515625 72.90625 
L 49.515625 64.59375 
L 19.828125 64.59375 
L 19.828125 46.734375 
Q 21.96875 47.46875 24.109375 47.828125 
Q 26.265625 48.1875 28.421875 48.1875 
Q 40.625 48.1875 47.75 41.5 
Q 54.890625 34.8125 54.890625 23.390625 
Q 54.890625 11.625 47.5625 5.09375 
Q 40.234375 -1.421875 26.90625 -1.421875 
Q 22.3125 -1.421875 17.546875 -0.640625 
Q 12.796875 0.140625 7.71875 1.703125 
L 7.71875 11.625 
Q 12.109375 9.234375 16.796875 8.0625 
Q 21.484375 6.890625 26.703125 6.890625 
Q 35.15625 6.890625 40.078125 11.328125 
Q 45.015625 15.765625 45.015625 23.390625 
Q 45.015625 31 40.078125 35.4375 
Q 35.15625 39.890625 26.703125 39.890625 
Q 22.75 39.890625 18.8125 39.015625 
Q 14.890625 38.140625 10.796875 36.28125 
z
" id="DejaVuSans-53"/>
      </defs>
      <g transform="translate(39.21 60.318931)scale(0.2 -0.2)">
       <use xlink:href="#DejaVuSans-53"/>
       <use x="63.623047" xlink:href="#DejaVuSans-48"/>
      </g>
     </g>
    </g>
    <g id="text_14">
     <!-- TTSF -->
     <defs>
      <path d="M -0.296875 72.90625 
L 61.375 72.90625 
L 61.375 64.59375 
L 35.5 64.59375 
L 35.5 0 
L 25.59375 0 
L 25.59375 64.59375 
L -0.296875 64.59375 
z
" id="DejaVuSans-84"/>
      <path d="M 9.8125 72.90625 
L 51.703125 72.90625 
L 51.703125 64.59375 
L 19.671875 64.59375 
L 19.671875 43.109375 
L 48.578125 43.109375 
L 48.578125 34.8125 
L 19.671875 34.8125 
L 19.671875 0 
L 9.8125 0 
z
" id="DejaVuSans-70"/>
     </defs>
     <g transform="translate(30.010781 218.572578)rotate(-90)scale(0.25 -0.25)">
      <use xlink:href="#DejaVuSans-84"/>
      <use x="61.068359" xlink:href="#DejaVuSans-84"/>
      <use x="122.152344" xlink:href="#DejaVuSans-83"/>
      <use x="185.628906" xlink:href="#DejaVuSans-70"/>
     </g>
    </g>
   </g>
   <g id="line2d_13">
    <path clip-path="url(#p87a47624ac)" d="M 71.66 158.773086 
L 526.900425 158.773086 
" style="fill:none;stroke:#ff0000;stroke-dasharray:1.5,2.475;stroke-dashoffset:0;stroke-width:1.5;"/>
   </g>
   <g id="patch_103">
    <path d="M 71.66 365.56 
L 71.66 10.8 
" style="fill:none;stroke:#000000;stroke-linecap:square;stroke-linejoin:miter;stroke-width:0.8;"/>
   </g>
   <g id="patch_104">
    <path d="M 526.900425 365.56 
L 526.900425 10.8 
" style="fill:none;stroke:#000000;stroke-linecap:square;stroke-linejoin:miter;stroke-width:0.8;"/>
   </g>
   <g id="patch_105">
    <path d="M 71.66 365.56 
L 526.900425 365.56 
" style="fill:none;stroke:#000000;stroke-linecap:square;stroke-linejoin:miter;stroke-width:0.8;"/>
   </g>
   <g id="patch_106">
    <path d="M 71.66 10.8 
L 526.900425 10.8 
" style="fill:none;stroke:#000000;stroke-linecap:square;stroke-linejoin:miter;stroke-width:0.8;"/>
   </g>
  </g>
 </g>
 <defs>
  <clipPath id="p87a47624ac">
   <rect height="354.76" width="455.240425" x="71.66" y="10.8"/>
  </clipPath>
 </defs>
 <defs>
  <pattern height="72" id="he05dfa0278" patternUnits="userSpaceOnUse" width="72" x="0" y="0">
   <rect fill="#1f77b4" height="73" width="73" x="0" y="0"/>
   <path d="M -36 36 
L 36 -36 
M -24 48 
L 48 -24 
M -12 60 
L 60 -12 
M 0 72 
L 72 0 
M 12 84 
L 84 12 
M 24 96 
L 96 24 
M 36 108 
L 108 36 
" style="fill:#000000;stroke:#000000;stroke-linecap:butt;stroke-linejoin:miter;stroke-width:1.0;"/>
  </pattern>
 </defs>
</svg>
